G04 #@! TF.GenerationSoftware,KiCad,Pcbnew,5.1.0-060a0da~80~ubuntu18.04.1*
G04 #@! TF.CreationDate,2019-04-12T23:32:23+02:00*
G04 #@! TF.ProjectId,mav_sbus_bridge,6d61765f-7362-4757-935f-627269646765,rev?*
G04 #@! TF.SameCoordinates,Original*
G04 #@! TF.FileFunction,Copper,L1,Top*
G04 #@! TF.FilePolarity,Positive*
%FSLAX46Y46*%
G04 Gerber Fmt 4.6, Leading zero omitted, Abs format (unit mm)*
G04 Created by KiCad (PCBNEW 5.1.0-060a0da~80~ubuntu18.04.1) date 2019-04-12 23:32:23*
%MOMM*%
%LPD*%
G04 APERTURE LIST*
%ADD10C,0.100000*%
%ADD11C,1.700000*%
%ADD12O,1.000000X1.300000*%
%ADD13C,0.400000*%
%ADD14C,1.500000*%
%ADD15O,1.650000X1.000000*%
%ADD16C,0.300000*%
%ADD17C,2.100000*%
%ADD18C,0.700000*%
%ADD19R,1.000000X1.000000*%
%ADD20C,0.600000*%
%ADD21C,0.200000*%
%ADD22C,0.300000*%
%ADD23C,0.400000*%
%ADD24C,0.500000*%
%ADD25C,0.600000*%
G04 APERTURE END LIST*
D10*
G36*
X147466657Y-111994046D02*
G01*
X147507913Y-112000166D01*
X147548371Y-112010300D01*
X147587640Y-112024351D01*
X147625344Y-112042183D01*
X147661117Y-112063625D01*
X147694617Y-112088471D01*
X147725520Y-112116480D01*
X147753529Y-112147383D01*
X147778375Y-112180883D01*
X147799817Y-112216656D01*
X147817649Y-112254360D01*
X147831700Y-112293629D01*
X147841834Y-112334087D01*
X147847954Y-112375343D01*
X147850000Y-112417000D01*
X147850000Y-113567000D01*
X147847954Y-113608657D01*
X147841834Y-113649913D01*
X147831700Y-113690371D01*
X147817649Y-113729640D01*
X147799817Y-113767344D01*
X147778375Y-113803117D01*
X147753529Y-113836617D01*
X147725520Y-113867520D01*
X147694617Y-113895529D01*
X147661117Y-113920375D01*
X147625344Y-113941817D01*
X147587640Y-113959649D01*
X147548371Y-113973700D01*
X147507913Y-113983834D01*
X147466657Y-113989954D01*
X147425000Y-113992000D01*
X146575000Y-113992000D01*
X146533343Y-113989954D01*
X146492087Y-113983834D01*
X146451629Y-113973700D01*
X146412360Y-113959649D01*
X146374656Y-113941817D01*
X146338883Y-113920375D01*
X146305383Y-113895529D01*
X146274480Y-113867520D01*
X146246471Y-113836617D01*
X146221625Y-113803117D01*
X146200183Y-113767344D01*
X146182351Y-113729640D01*
X146168300Y-113690371D01*
X146158166Y-113649913D01*
X146152046Y-113608657D01*
X146150000Y-113567000D01*
X146150000Y-112417000D01*
X146152046Y-112375343D01*
X146158166Y-112334087D01*
X146168300Y-112293629D01*
X146182351Y-112254360D01*
X146200183Y-112216656D01*
X146221625Y-112180883D01*
X146246471Y-112147383D01*
X146274480Y-112116480D01*
X146305383Y-112088471D01*
X146338883Y-112063625D01*
X146374656Y-112042183D01*
X146412360Y-112024351D01*
X146451629Y-112010300D01*
X146492087Y-112000166D01*
X146533343Y-111994046D01*
X146575000Y-111992000D01*
X147425000Y-111992000D01*
X147466657Y-111994046D01*
X147466657Y-111994046D01*
G37*
D11*
X147000000Y-112992000D03*
D10*
G36*
X155086657Y-111994046D02*
G01*
X155127913Y-112000166D01*
X155168371Y-112010300D01*
X155207640Y-112024351D01*
X155245344Y-112042183D01*
X155281117Y-112063625D01*
X155314617Y-112088471D01*
X155345520Y-112116480D01*
X155373529Y-112147383D01*
X155398375Y-112180883D01*
X155419817Y-112216656D01*
X155437649Y-112254360D01*
X155451700Y-112293629D01*
X155461834Y-112334087D01*
X155467954Y-112375343D01*
X155470000Y-112417000D01*
X155470000Y-113567000D01*
X155467954Y-113608657D01*
X155461834Y-113649913D01*
X155451700Y-113690371D01*
X155437649Y-113729640D01*
X155419817Y-113767344D01*
X155398375Y-113803117D01*
X155373529Y-113836617D01*
X155345520Y-113867520D01*
X155314617Y-113895529D01*
X155281117Y-113920375D01*
X155245344Y-113941817D01*
X155207640Y-113959649D01*
X155168371Y-113973700D01*
X155127913Y-113983834D01*
X155086657Y-113989954D01*
X155045000Y-113992000D01*
X154195000Y-113992000D01*
X154153343Y-113989954D01*
X154112087Y-113983834D01*
X154071629Y-113973700D01*
X154032360Y-113959649D01*
X153994656Y-113941817D01*
X153958883Y-113920375D01*
X153925383Y-113895529D01*
X153894480Y-113867520D01*
X153866471Y-113836617D01*
X153841625Y-113803117D01*
X153820183Y-113767344D01*
X153802351Y-113729640D01*
X153788300Y-113690371D01*
X153778166Y-113649913D01*
X153772046Y-113608657D01*
X153770000Y-113567000D01*
X153770000Y-112417000D01*
X153772046Y-112375343D01*
X153778166Y-112334087D01*
X153788300Y-112293629D01*
X153802351Y-112254360D01*
X153820183Y-112216656D01*
X153841625Y-112180883D01*
X153866471Y-112147383D01*
X153894480Y-112116480D01*
X153925383Y-112088471D01*
X153958883Y-112063625D01*
X153994656Y-112042183D01*
X154032360Y-112024351D01*
X154071629Y-112010300D01*
X154112087Y-112000166D01*
X154153343Y-111994046D01*
X154195000Y-111992000D01*
X155045000Y-111992000D01*
X155086657Y-111994046D01*
X155086657Y-111994046D01*
G37*
D11*
X154620000Y-112992000D03*
D10*
G36*
X152546657Y-111994046D02*
G01*
X152587913Y-112000166D01*
X152628371Y-112010300D01*
X152667640Y-112024351D01*
X152705344Y-112042183D01*
X152741117Y-112063625D01*
X152774617Y-112088471D01*
X152805520Y-112116480D01*
X152833529Y-112147383D01*
X152858375Y-112180883D01*
X152879817Y-112216656D01*
X152897649Y-112254360D01*
X152911700Y-112293629D01*
X152921834Y-112334087D01*
X152927954Y-112375343D01*
X152930000Y-112417000D01*
X152930000Y-113567000D01*
X152927954Y-113608657D01*
X152921834Y-113649913D01*
X152911700Y-113690371D01*
X152897649Y-113729640D01*
X152879817Y-113767344D01*
X152858375Y-113803117D01*
X152833529Y-113836617D01*
X152805520Y-113867520D01*
X152774617Y-113895529D01*
X152741117Y-113920375D01*
X152705344Y-113941817D01*
X152667640Y-113959649D01*
X152628371Y-113973700D01*
X152587913Y-113983834D01*
X152546657Y-113989954D01*
X152505000Y-113992000D01*
X151655000Y-113992000D01*
X151613343Y-113989954D01*
X151572087Y-113983834D01*
X151531629Y-113973700D01*
X151492360Y-113959649D01*
X151454656Y-113941817D01*
X151418883Y-113920375D01*
X151385383Y-113895529D01*
X151354480Y-113867520D01*
X151326471Y-113836617D01*
X151301625Y-113803117D01*
X151280183Y-113767344D01*
X151262351Y-113729640D01*
X151248300Y-113690371D01*
X151238166Y-113649913D01*
X151232046Y-113608657D01*
X151230000Y-113567000D01*
X151230000Y-112417000D01*
X151232046Y-112375343D01*
X151238166Y-112334087D01*
X151248300Y-112293629D01*
X151262351Y-112254360D01*
X151280183Y-112216656D01*
X151301625Y-112180883D01*
X151326471Y-112147383D01*
X151354480Y-112116480D01*
X151385383Y-112088471D01*
X151418883Y-112063625D01*
X151454656Y-112042183D01*
X151492360Y-112024351D01*
X151531629Y-112010300D01*
X151572087Y-112000166D01*
X151613343Y-111994046D01*
X151655000Y-111992000D01*
X152505000Y-111992000D01*
X152546657Y-111994046D01*
X152546657Y-111994046D01*
G37*
D11*
X152080000Y-112992000D03*
D10*
G36*
X150006657Y-111994046D02*
G01*
X150047913Y-112000166D01*
X150088371Y-112010300D01*
X150127640Y-112024351D01*
X150165344Y-112042183D01*
X150201117Y-112063625D01*
X150234617Y-112088471D01*
X150265520Y-112116480D01*
X150293529Y-112147383D01*
X150318375Y-112180883D01*
X150339817Y-112216656D01*
X150357649Y-112254360D01*
X150371700Y-112293629D01*
X150381834Y-112334087D01*
X150387954Y-112375343D01*
X150390000Y-112417000D01*
X150390000Y-113567000D01*
X150387954Y-113608657D01*
X150381834Y-113649913D01*
X150371700Y-113690371D01*
X150357649Y-113729640D01*
X150339817Y-113767344D01*
X150318375Y-113803117D01*
X150293529Y-113836617D01*
X150265520Y-113867520D01*
X150234617Y-113895529D01*
X150201117Y-113920375D01*
X150165344Y-113941817D01*
X150127640Y-113959649D01*
X150088371Y-113973700D01*
X150047913Y-113983834D01*
X150006657Y-113989954D01*
X149965000Y-113992000D01*
X149115000Y-113992000D01*
X149073343Y-113989954D01*
X149032087Y-113983834D01*
X148991629Y-113973700D01*
X148952360Y-113959649D01*
X148914656Y-113941817D01*
X148878883Y-113920375D01*
X148845383Y-113895529D01*
X148814480Y-113867520D01*
X148786471Y-113836617D01*
X148761625Y-113803117D01*
X148740183Y-113767344D01*
X148722351Y-113729640D01*
X148708300Y-113690371D01*
X148698166Y-113649913D01*
X148692046Y-113608657D01*
X148690000Y-113567000D01*
X148690000Y-112417000D01*
X148692046Y-112375343D01*
X148698166Y-112334087D01*
X148708300Y-112293629D01*
X148722351Y-112254360D01*
X148740183Y-112216656D01*
X148761625Y-112180883D01*
X148786471Y-112147383D01*
X148814480Y-112116480D01*
X148845383Y-112088471D01*
X148878883Y-112063625D01*
X148914656Y-112042183D01*
X148952360Y-112024351D01*
X148991629Y-112010300D01*
X149032087Y-112000166D01*
X149073343Y-111994046D01*
X149115000Y-111992000D01*
X149965000Y-111992000D01*
X150006657Y-111994046D01*
X150006657Y-111994046D01*
G37*
D11*
X149540000Y-112992000D03*
X154620000Y-113500000D03*
X152080000Y-113500000D03*
X149540000Y-113500000D03*
X147000000Y-113500000D03*
D10*
G36*
X142124657Y-103232046D02*
G01*
X142165913Y-103238166D01*
X142206371Y-103248300D01*
X142245640Y-103262351D01*
X142283344Y-103280183D01*
X142319117Y-103301625D01*
X142352617Y-103326471D01*
X142383520Y-103354480D01*
X142411529Y-103385383D01*
X142436375Y-103418883D01*
X142457817Y-103454656D01*
X142475649Y-103492360D01*
X142489700Y-103531629D01*
X142499834Y-103572087D01*
X142505954Y-103613343D01*
X142508000Y-103655000D01*
X142508000Y-104505000D01*
X142505954Y-104546657D01*
X142499834Y-104587913D01*
X142489700Y-104628371D01*
X142475649Y-104667640D01*
X142457817Y-104705344D01*
X142436375Y-104741117D01*
X142411529Y-104774617D01*
X142383520Y-104805520D01*
X142352617Y-104833529D01*
X142319117Y-104858375D01*
X142283344Y-104879817D01*
X142245640Y-104897649D01*
X142206371Y-104911700D01*
X142165913Y-104921834D01*
X142124657Y-104927954D01*
X142083000Y-104930000D01*
X140933000Y-104930000D01*
X140891343Y-104927954D01*
X140850087Y-104921834D01*
X140809629Y-104911700D01*
X140770360Y-104897649D01*
X140732656Y-104879817D01*
X140696883Y-104858375D01*
X140663383Y-104833529D01*
X140632480Y-104805520D01*
X140604471Y-104774617D01*
X140579625Y-104741117D01*
X140558183Y-104705344D01*
X140540351Y-104667640D01*
X140526300Y-104628371D01*
X140516166Y-104587913D01*
X140510046Y-104546657D01*
X140508000Y-104505000D01*
X140508000Y-103655000D01*
X140510046Y-103613343D01*
X140516166Y-103572087D01*
X140526300Y-103531629D01*
X140540351Y-103492360D01*
X140558183Y-103454656D01*
X140579625Y-103418883D01*
X140604471Y-103385383D01*
X140632480Y-103354480D01*
X140663383Y-103326471D01*
X140696883Y-103301625D01*
X140732656Y-103280183D01*
X140770360Y-103262351D01*
X140809629Y-103248300D01*
X140850087Y-103238166D01*
X140891343Y-103232046D01*
X140933000Y-103230000D01*
X142083000Y-103230000D01*
X142124657Y-103232046D01*
X142124657Y-103232046D01*
G37*
D11*
X141508000Y-104080000D03*
D10*
G36*
X142124657Y-100692046D02*
G01*
X142165913Y-100698166D01*
X142206371Y-100708300D01*
X142245640Y-100722351D01*
X142283344Y-100740183D01*
X142319117Y-100761625D01*
X142352617Y-100786471D01*
X142383520Y-100814480D01*
X142411529Y-100845383D01*
X142436375Y-100878883D01*
X142457817Y-100914656D01*
X142475649Y-100952360D01*
X142489700Y-100991629D01*
X142499834Y-101032087D01*
X142505954Y-101073343D01*
X142508000Y-101115000D01*
X142508000Y-101965000D01*
X142505954Y-102006657D01*
X142499834Y-102047913D01*
X142489700Y-102088371D01*
X142475649Y-102127640D01*
X142457817Y-102165344D01*
X142436375Y-102201117D01*
X142411529Y-102234617D01*
X142383520Y-102265520D01*
X142352617Y-102293529D01*
X142319117Y-102318375D01*
X142283344Y-102339817D01*
X142245640Y-102357649D01*
X142206371Y-102371700D01*
X142165913Y-102381834D01*
X142124657Y-102387954D01*
X142083000Y-102390000D01*
X140933000Y-102390000D01*
X140891343Y-102387954D01*
X140850087Y-102381834D01*
X140809629Y-102371700D01*
X140770360Y-102357649D01*
X140732656Y-102339817D01*
X140696883Y-102318375D01*
X140663383Y-102293529D01*
X140632480Y-102265520D01*
X140604471Y-102234617D01*
X140579625Y-102201117D01*
X140558183Y-102165344D01*
X140540351Y-102127640D01*
X140526300Y-102088371D01*
X140516166Y-102047913D01*
X140510046Y-102006657D01*
X140508000Y-101965000D01*
X140508000Y-101115000D01*
X140510046Y-101073343D01*
X140516166Y-101032087D01*
X140526300Y-100991629D01*
X140540351Y-100952360D01*
X140558183Y-100914656D01*
X140579625Y-100878883D01*
X140604471Y-100845383D01*
X140632480Y-100814480D01*
X140663383Y-100786471D01*
X140696883Y-100761625D01*
X140732656Y-100740183D01*
X140770360Y-100722351D01*
X140809629Y-100708300D01*
X140850087Y-100698166D01*
X140891343Y-100692046D01*
X140933000Y-100690000D01*
X142083000Y-100690000D01*
X142124657Y-100692046D01*
X142124657Y-100692046D01*
G37*
D11*
X141508000Y-101540000D03*
D10*
G36*
X142124657Y-98152046D02*
G01*
X142165913Y-98158166D01*
X142206371Y-98168300D01*
X142245640Y-98182351D01*
X142283344Y-98200183D01*
X142319117Y-98221625D01*
X142352617Y-98246471D01*
X142383520Y-98274480D01*
X142411529Y-98305383D01*
X142436375Y-98338883D01*
X142457817Y-98374656D01*
X142475649Y-98412360D01*
X142489700Y-98451629D01*
X142499834Y-98492087D01*
X142505954Y-98533343D01*
X142508000Y-98575000D01*
X142508000Y-99425000D01*
X142505954Y-99466657D01*
X142499834Y-99507913D01*
X142489700Y-99548371D01*
X142475649Y-99587640D01*
X142457817Y-99625344D01*
X142436375Y-99661117D01*
X142411529Y-99694617D01*
X142383520Y-99725520D01*
X142352617Y-99753529D01*
X142319117Y-99778375D01*
X142283344Y-99799817D01*
X142245640Y-99817649D01*
X142206371Y-99831700D01*
X142165913Y-99841834D01*
X142124657Y-99847954D01*
X142083000Y-99850000D01*
X140933000Y-99850000D01*
X140891343Y-99847954D01*
X140850087Y-99841834D01*
X140809629Y-99831700D01*
X140770360Y-99817649D01*
X140732656Y-99799817D01*
X140696883Y-99778375D01*
X140663383Y-99753529D01*
X140632480Y-99725520D01*
X140604471Y-99694617D01*
X140579625Y-99661117D01*
X140558183Y-99625344D01*
X140540351Y-99587640D01*
X140526300Y-99548371D01*
X140516166Y-99507913D01*
X140510046Y-99466657D01*
X140508000Y-99425000D01*
X140508000Y-98575000D01*
X140510046Y-98533343D01*
X140516166Y-98492087D01*
X140526300Y-98451629D01*
X140540351Y-98412360D01*
X140558183Y-98374656D01*
X140579625Y-98338883D01*
X140604471Y-98305383D01*
X140632480Y-98274480D01*
X140663383Y-98246471D01*
X140696883Y-98221625D01*
X140732656Y-98200183D01*
X140770360Y-98182351D01*
X140809629Y-98168300D01*
X140850087Y-98158166D01*
X140891343Y-98152046D01*
X140933000Y-98150000D01*
X142083000Y-98150000D01*
X142124657Y-98152046D01*
X142124657Y-98152046D01*
G37*
D11*
X141508000Y-99000000D03*
X141000000Y-104080000D03*
X141000000Y-101540000D03*
X141000000Y-99000000D03*
D10*
G36*
X142124657Y-111232046D02*
G01*
X142165913Y-111238166D01*
X142206371Y-111248300D01*
X142245640Y-111262351D01*
X142283344Y-111280183D01*
X142319117Y-111301625D01*
X142352617Y-111326471D01*
X142383520Y-111354480D01*
X142411529Y-111385383D01*
X142436375Y-111418883D01*
X142457817Y-111454656D01*
X142475649Y-111492360D01*
X142489700Y-111531629D01*
X142499834Y-111572087D01*
X142505954Y-111613343D01*
X142508000Y-111655000D01*
X142508000Y-112505000D01*
X142505954Y-112546657D01*
X142499834Y-112587913D01*
X142489700Y-112628371D01*
X142475649Y-112667640D01*
X142457817Y-112705344D01*
X142436375Y-112741117D01*
X142411529Y-112774617D01*
X142383520Y-112805520D01*
X142352617Y-112833529D01*
X142319117Y-112858375D01*
X142283344Y-112879817D01*
X142245640Y-112897649D01*
X142206371Y-112911700D01*
X142165913Y-112921834D01*
X142124657Y-112927954D01*
X142083000Y-112930000D01*
X140933000Y-112930000D01*
X140891343Y-112927954D01*
X140850087Y-112921834D01*
X140809629Y-112911700D01*
X140770360Y-112897649D01*
X140732656Y-112879817D01*
X140696883Y-112858375D01*
X140663383Y-112833529D01*
X140632480Y-112805520D01*
X140604471Y-112774617D01*
X140579625Y-112741117D01*
X140558183Y-112705344D01*
X140540351Y-112667640D01*
X140526300Y-112628371D01*
X140516166Y-112587913D01*
X140510046Y-112546657D01*
X140508000Y-112505000D01*
X140508000Y-111655000D01*
X140510046Y-111613343D01*
X140516166Y-111572087D01*
X140526300Y-111531629D01*
X140540351Y-111492360D01*
X140558183Y-111454656D01*
X140579625Y-111418883D01*
X140604471Y-111385383D01*
X140632480Y-111354480D01*
X140663383Y-111326471D01*
X140696883Y-111301625D01*
X140732656Y-111280183D01*
X140770360Y-111262351D01*
X140809629Y-111248300D01*
X140850087Y-111238166D01*
X140891343Y-111232046D01*
X140933000Y-111230000D01*
X142083000Y-111230000D01*
X142124657Y-111232046D01*
X142124657Y-111232046D01*
G37*
D11*
X141508000Y-112080000D03*
D10*
G36*
X142124657Y-108692046D02*
G01*
X142165913Y-108698166D01*
X142206371Y-108708300D01*
X142245640Y-108722351D01*
X142283344Y-108740183D01*
X142319117Y-108761625D01*
X142352617Y-108786471D01*
X142383520Y-108814480D01*
X142411529Y-108845383D01*
X142436375Y-108878883D01*
X142457817Y-108914656D01*
X142475649Y-108952360D01*
X142489700Y-108991629D01*
X142499834Y-109032087D01*
X142505954Y-109073343D01*
X142508000Y-109115000D01*
X142508000Y-109965000D01*
X142505954Y-110006657D01*
X142499834Y-110047913D01*
X142489700Y-110088371D01*
X142475649Y-110127640D01*
X142457817Y-110165344D01*
X142436375Y-110201117D01*
X142411529Y-110234617D01*
X142383520Y-110265520D01*
X142352617Y-110293529D01*
X142319117Y-110318375D01*
X142283344Y-110339817D01*
X142245640Y-110357649D01*
X142206371Y-110371700D01*
X142165913Y-110381834D01*
X142124657Y-110387954D01*
X142083000Y-110390000D01*
X140933000Y-110390000D01*
X140891343Y-110387954D01*
X140850087Y-110381834D01*
X140809629Y-110371700D01*
X140770360Y-110357649D01*
X140732656Y-110339817D01*
X140696883Y-110318375D01*
X140663383Y-110293529D01*
X140632480Y-110265520D01*
X140604471Y-110234617D01*
X140579625Y-110201117D01*
X140558183Y-110165344D01*
X140540351Y-110127640D01*
X140526300Y-110088371D01*
X140516166Y-110047913D01*
X140510046Y-110006657D01*
X140508000Y-109965000D01*
X140508000Y-109115000D01*
X140510046Y-109073343D01*
X140516166Y-109032087D01*
X140526300Y-108991629D01*
X140540351Y-108952360D01*
X140558183Y-108914656D01*
X140579625Y-108878883D01*
X140604471Y-108845383D01*
X140632480Y-108814480D01*
X140663383Y-108786471D01*
X140696883Y-108761625D01*
X140732656Y-108740183D01*
X140770360Y-108722351D01*
X140809629Y-108708300D01*
X140850087Y-108698166D01*
X140891343Y-108692046D01*
X140933000Y-108690000D01*
X142083000Y-108690000D01*
X142124657Y-108692046D01*
X142124657Y-108692046D01*
G37*
D11*
X141508000Y-109540000D03*
D10*
G36*
X142124657Y-106152046D02*
G01*
X142165913Y-106158166D01*
X142206371Y-106168300D01*
X142245640Y-106182351D01*
X142283344Y-106200183D01*
X142319117Y-106221625D01*
X142352617Y-106246471D01*
X142383520Y-106274480D01*
X142411529Y-106305383D01*
X142436375Y-106338883D01*
X142457817Y-106374656D01*
X142475649Y-106412360D01*
X142489700Y-106451629D01*
X142499834Y-106492087D01*
X142505954Y-106533343D01*
X142508000Y-106575000D01*
X142508000Y-107425000D01*
X142505954Y-107466657D01*
X142499834Y-107507913D01*
X142489700Y-107548371D01*
X142475649Y-107587640D01*
X142457817Y-107625344D01*
X142436375Y-107661117D01*
X142411529Y-107694617D01*
X142383520Y-107725520D01*
X142352617Y-107753529D01*
X142319117Y-107778375D01*
X142283344Y-107799817D01*
X142245640Y-107817649D01*
X142206371Y-107831700D01*
X142165913Y-107841834D01*
X142124657Y-107847954D01*
X142083000Y-107850000D01*
X140933000Y-107850000D01*
X140891343Y-107847954D01*
X140850087Y-107841834D01*
X140809629Y-107831700D01*
X140770360Y-107817649D01*
X140732656Y-107799817D01*
X140696883Y-107778375D01*
X140663383Y-107753529D01*
X140632480Y-107725520D01*
X140604471Y-107694617D01*
X140579625Y-107661117D01*
X140558183Y-107625344D01*
X140540351Y-107587640D01*
X140526300Y-107548371D01*
X140516166Y-107507913D01*
X140510046Y-107466657D01*
X140508000Y-107425000D01*
X140508000Y-106575000D01*
X140510046Y-106533343D01*
X140516166Y-106492087D01*
X140526300Y-106451629D01*
X140540351Y-106412360D01*
X140558183Y-106374656D01*
X140579625Y-106338883D01*
X140604471Y-106305383D01*
X140632480Y-106274480D01*
X140663383Y-106246471D01*
X140696883Y-106221625D01*
X140732656Y-106200183D01*
X140770360Y-106182351D01*
X140809629Y-106168300D01*
X140850087Y-106158166D01*
X140891343Y-106152046D01*
X140933000Y-106150000D01*
X142083000Y-106150000D01*
X142124657Y-106152046D01*
X142124657Y-106152046D01*
G37*
D11*
X141508000Y-107000000D03*
X141000000Y-112080000D03*
X141000000Y-109540000D03*
X141000000Y-107000000D03*
D12*
X152300000Y-109500000D03*
X152300000Y-104500000D03*
D10*
G36*
X152884802Y-108100482D02*
G01*
X152894509Y-108101921D01*
X152904028Y-108104306D01*
X152913268Y-108107612D01*
X152922140Y-108111808D01*
X152930557Y-108116853D01*
X152938439Y-108122699D01*
X152945711Y-108129289D01*
X152952301Y-108136561D01*
X152958147Y-108144443D01*
X152963192Y-108152860D01*
X152967388Y-108161732D01*
X152970694Y-108170972D01*
X152973079Y-108180491D01*
X152974518Y-108190198D01*
X152975000Y-108200000D01*
X152975000Y-108400000D01*
X152974518Y-108409802D01*
X152973079Y-108419509D01*
X152970694Y-108429028D01*
X152967388Y-108438268D01*
X152963192Y-108447140D01*
X152958147Y-108455557D01*
X152952301Y-108463439D01*
X152945711Y-108470711D01*
X152938439Y-108477301D01*
X152930557Y-108483147D01*
X152922140Y-108488192D01*
X152913268Y-108492388D01*
X152904028Y-108495694D01*
X152894509Y-108498079D01*
X152884802Y-108499518D01*
X152875000Y-108500000D01*
X151725000Y-108500000D01*
X151715198Y-108499518D01*
X151705491Y-108498079D01*
X151695972Y-108495694D01*
X151686732Y-108492388D01*
X151677860Y-108488192D01*
X151669443Y-108483147D01*
X151661561Y-108477301D01*
X151654289Y-108470711D01*
X151647699Y-108463439D01*
X151641853Y-108455557D01*
X151636808Y-108447140D01*
X151632612Y-108438268D01*
X151629306Y-108429028D01*
X151626921Y-108419509D01*
X151625482Y-108409802D01*
X151625000Y-108400000D01*
X151625000Y-108200000D01*
X151625482Y-108190198D01*
X151626921Y-108180491D01*
X151629306Y-108170972D01*
X151632612Y-108161732D01*
X151636808Y-108152860D01*
X151641853Y-108144443D01*
X151647699Y-108136561D01*
X151654289Y-108129289D01*
X151661561Y-108122699D01*
X151669443Y-108116853D01*
X151677860Y-108111808D01*
X151686732Y-108107612D01*
X151695972Y-108104306D01*
X151705491Y-108101921D01*
X151715198Y-108100482D01*
X151725000Y-108100000D01*
X152875000Y-108100000D01*
X152884802Y-108100482D01*
X152884802Y-108100482D01*
G37*
D13*
X152300000Y-108300000D03*
D10*
G36*
X152884802Y-107450482D02*
G01*
X152894509Y-107451921D01*
X152904028Y-107454306D01*
X152913268Y-107457612D01*
X152922140Y-107461808D01*
X152930557Y-107466853D01*
X152938439Y-107472699D01*
X152945711Y-107479289D01*
X152952301Y-107486561D01*
X152958147Y-107494443D01*
X152963192Y-107502860D01*
X152967388Y-107511732D01*
X152970694Y-107520972D01*
X152973079Y-107530491D01*
X152974518Y-107540198D01*
X152975000Y-107550000D01*
X152975000Y-107750000D01*
X152974518Y-107759802D01*
X152973079Y-107769509D01*
X152970694Y-107779028D01*
X152967388Y-107788268D01*
X152963192Y-107797140D01*
X152958147Y-107805557D01*
X152952301Y-107813439D01*
X152945711Y-107820711D01*
X152938439Y-107827301D01*
X152930557Y-107833147D01*
X152922140Y-107838192D01*
X152913268Y-107842388D01*
X152904028Y-107845694D01*
X152894509Y-107848079D01*
X152884802Y-107849518D01*
X152875000Y-107850000D01*
X151725000Y-107850000D01*
X151715198Y-107849518D01*
X151705491Y-107848079D01*
X151695972Y-107845694D01*
X151686732Y-107842388D01*
X151677860Y-107838192D01*
X151669443Y-107833147D01*
X151661561Y-107827301D01*
X151654289Y-107820711D01*
X151647699Y-107813439D01*
X151641853Y-107805557D01*
X151636808Y-107797140D01*
X151632612Y-107788268D01*
X151629306Y-107779028D01*
X151626921Y-107769509D01*
X151625482Y-107759802D01*
X151625000Y-107750000D01*
X151625000Y-107550000D01*
X151625482Y-107540198D01*
X151626921Y-107530491D01*
X151629306Y-107520972D01*
X151632612Y-107511732D01*
X151636808Y-107502860D01*
X151641853Y-107494443D01*
X151647699Y-107486561D01*
X151654289Y-107479289D01*
X151661561Y-107472699D01*
X151669443Y-107466853D01*
X151677860Y-107461808D01*
X151686732Y-107457612D01*
X151695972Y-107454306D01*
X151705491Y-107451921D01*
X151715198Y-107450482D01*
X151725000Y-107450000D01*
X152875000Y-107450000D01*
X152884802Y-107450482D01*
X152884802Y-107450482D01*
G37*
D13*
X152300000Y-107650000D03*
D10*
G36*
X152884802Y-106800482D02*
G01*
X152894509Y-106801921D01*
X152904028Y-106804306D01*
X152913268Y-106807612D01*
X152922140Y-106811808D01*
X152930557Y-106816853D01*
X152938439Y-106822699D01*
X152945711Y-106829289D01*
X152952301Y-106836561D01*
X152958147Y-106844443D01*
X152963192Y-106852860D01*
X152967388Y-106861732D01*
X152970694Y-106870972D01*
X152973079Y-106880491D01*
X152974518Y-106890198D01*
X152975000Y-106900000D01*
X152975000Y-107100000D01*
X152974518Y-107109802D01*
X152973079Y-107119509D01*
X152970694Y-107129028D01*
X152967388Y-107138268D01*
X152963192Y-107147140D01*
X152958147Y-107155557D01*
X152952301Y-107163439D01*
X152945711Y-107170711D01*
X152938439Y-107177301D01*
X152930557Y-107183147D01*
X152922140Y-107188192D01*
X152913268Y-107192388D01*
X152904028Y-107195694D01*
X152894509Y-107198079D01*
X152884802Y-107199518D01*
X152875000Y-107200000D01*
X151725000Y-107200000D01*
X151715198Y-107199518D01*
X151705491Y-107198079D01*
X151695972Y-107195694D01*
X151686732Y-107192388D01*
X151677860Y-107188192D01*
X151669443Y-107183147D01*
X151661561Y-107177301D01*
X151654289Y-107170711D01*
X151647699Y-107163439D01*
X151641853Y-107155557D01*
X151636808Y-107147140D01*
X151632612Y-107138268D01*
X151629306Y-107129028D01*
X151626921Y-107119509D01*
X151625482Y-107109802D01*
X151625000Y-107100000D01*
X151625000Y-106900000D01*
X151625482Y-106890198D01*
X151626921Y-106880491D01*
X151629306Y-106870972D01*
X151632612Y-106861732D01*
X151636808Y-106852860D01*
X151641853Y-106844443D01*
X151647699Y-106836561D01*
X151654289Y-106829289D01*
X151661561Y-106822699D01*
X151669443Y-106816853D01*
X151677860Y-106811808D01*
X151686732Y-106807612D01*
X151695972Y-106804306D01*
X151705491Y-106801921D01*
X151715198Y-106800482D01*
X151725000Y-106800000D01*
X152875000Y-106800000D01*
X152884802Y-106800482D01*
X152884802Y-106800482D01*
G37*
D13*
X152300000Y-107000000D03*
D10*
G36*
X152884802Y-106150482D02*
G01*
X152894509Y-106151921D01*
X152904028Y-106154306D01*
X152913268Y-106157612D01*
X152922140Y-106161808D01*
X152930557Y-106166853D01*
X152938439Y-106172699D01*
X152945711Y-106179289D01*
X152952301Y-106186561D01*
X152958147Y-106194443D01*
X152963192Y-106202860D01*
X152967388Y-106211732D01*
X152970694Y-106220972D01*
X152973079Y-106230491D01*
X152974518Y-106240198D01*
X152975000Y-106250000D01*
X152975000Y-106450000D01*
X152974518Y-106459802D01*
X152973079Y-106469509D01*
X152970694Y-106479028D01*
X152967388Y-106488268D01*
X152963192Y-106497140D01*
X152958147Y-106505557D01*
X152952301Y-106513439D01*
X152945711Y-106520711D01*
X152938439Y-106527301D01*
X152930557Y-106533147D01*
X152922140Y-106538192D01*
X152913268Y-106542388D01*
X152904028Y-106545694D01*
X152894509Y-106548079D01*
X152884802Y-106549518D01*
X152875000Y-106550000D01*
X151725000Y-106550000D01*
X151715198Y-106549518D01*
X151705491Y-106548079D01*
X151695972Y-106545694D01*
X151686732Y-106542388D01*
X151677860Y-106538192D01*
X151669443Y-106533147D01*
X151661561Y-106527301D01*
X151654289Y-106520711D01*
X151647699Y-106513439D01*
X151641853Y-106505557D01*
X151636808Y-106497140D01*
X151632612Y-106488268D01*
X151629306Y-106479028D01*
X151626921Y-106469509D01*
X151625482Y-106459802D01*
X151625000Y-106450000D01*
X151625000Y-106250000D01*
X151625482Y-106240198D01*
X151626921Y-106230491D01*
X151629306Y-106220972D01*
X151632612Y-106211732D01*
X151636808Y-106202860D01*
X151641853Y-106194443D01*
X151647699Y-106186561D01*
X151654289Y-106179289D01*
X151661561Y-106172699D01*
X151669443Y-106166853D01*
X151677860Y-106161808D01*
X151686732Y-106157612D01*
X151695972Y-106154306D01*
X151705491Y-106151921D01*
X151715198Y-106150482D01*
X151725000Y-106150000D01*
X152875000Y-106150000D01*
X152884802Y-106150482D01*
X152884802Y-106150482D01*
G37*
D13*
X152300000Y-106350000D03*
D10*
G36*
X152884802Y-105500482D02*
G01*
X152894509Y-105501921D01*
X152904028Y-105504306D01*
X152913268Y-105507612D01*
X152922140Y-105511808D01*
X152930557Y-105516853D01*
X152938439Y-105522699D01*
X152945711Y-105529289D01*
X152952301Y-105536561D01*
X152958147Y-105544443D01*
X152963192Y-105552860D01*
X152967388Y-105561732D01*
X152970694Y-105570972D01*
X152973079Y-105580491D01*
X152974518Y-105590198D01*
X152975000Y-105600000D01*
X152975000Y-105800000D01*
X152974518Y-105809802D01*
X152973079Y-105819509D01*
X152970694Y-105829028D01*
X152967388Y-105838268D01*
X152963192Y-105847140D01*
X152958147Y-105855557D01*
X152952301Y-105863439D01*
X152945711Y-105870711D01*
X152938439Y-105877301D01*
X152930557Y-105883147D01*
X152922140Y-105888192D01*
X152913268Y-105892388D01*
X152904028Y-105895694D01*
X152894509Y-105898079D01*
X152884802Y-105899518D01*
X152875000Y-105900000D01*
X151725000Y-105900000D01*
X151715198Y-105899518D01*
X151705491Y-105898079D01*
X151695972Y-105895694D01*
X151686732Y-105892388D01*
X151677860Y-105888192D01*
X151669443Y-105883147D01*
X151661561Y-105877301D01*
X151654289Y-105870711D01*
X151647699Y-105863439D01*
X151641853Y-105855557D01*
X151636808Y-105847140D01*
X151632612Y-105838268D01*
X151629306Y-105829028D01*
X151626921Y-105819509D01*
X151625482Y-105809802D01*
X151625000Y-105800000D01*
X151625000Y-105600000D01*
X151625482Y-105590198D01*
X151626921Y-105580491D01*
X151629306Y-105570972D01*
X151632612Y-105561732D01*
X151636808Y-105552860D01*
X151641853Y-105544443D01*
X151647699Y-105536561D01*
X151654289Y-105529289D01*
X151661561Y-105522699D01*
X151669443Y-105516853D01*
X151677860Y-105511808D01*
X151686732Y-105507612D01*
X151695972Y-105504306D01*
X151705491Y-105501921D01*
X151715198Y-105500482D01*
X151725000Y-105500000D01*
X152875000Y-105500000D01*
X152884802Y-105500482D01*
X152884802Y-105500482D01*
G37*
D13*
X152300000Y-105700000D03*
D10*
G36*
X155614703Y-105250722D02*
G01*
X155629264Y-105252882D01*
X155643543Y-105256459D01*
X155657403Y-105261418D01*
X155670710Y-105267712D01*
X155683336Y-105275280D01*
X155695159Y-105284048D01*
X155706066Y-105293934D01*
X155715952Y-105304841D01*
X155724720Y-105316664D01*
X155732288Y-105329290D01*
X155738582Y-105342597D01*
X155743541Y-105356457D01*
X155747118Y-105370736D01*
X155749278Y-105385297D01*
X155750000Y-105400000D01*
X155750000Y-106600000D01*
X155749278Y-106614703D01*
X155747118Y-106629264D01*
X155743541Y-106643543D01*
X155738582Y-106657403D01*
X155732288Y-106670710D01*
X155724720Y-106683336D01*
X155715952Y-106695159D01*
X155706066Y-106706066D01*
X155695159Y-106715952D01*
X155683336Y-106724720D01*
X155670710Y-106732288D01*
X155657403Y-106738582D01*
X155643543Y-106743541D01*
X155629264Y-106747118D01*
X155614703Y-106749278D01*
X155600000Y-106750000D01*
X154400000Y-106750000D01*
X154385297Y-106749278D01*
X154370736Y-106747118D01*
X154356457Y-106743541D01*
X154342597Y-106738582D01*
X154329290Y-106732288D01*
X154316664Y-106724720D01*
X154304841Y-106715952D01*
X154293934Y-106706066D01*
X154284048Y-106695159D01*
X154275280Y-106683336D01*
X154267712Y-106670710D01*
X154261418Y-106657403D01*
X154256459Y-106643543D01*
X154252882Y-106629264D01*
X154250722Y-106614703D01*
X154250000Y-106600000D01*
X154250000Y-105400000D01*
X154250722Y-105385297D01*
X154252882Y-105370736D01*
X154256459Y-105356457D01*
X154261418Y-105342597D01*
X154267712Y-105329290D01*
X154275280Y-105316664D01*
X154284048Y-105304841D01*
X154293934Y-105293934D01*
X154304841Y-105284048D01*
X154316664Y-105275280D01*
X154329290Y-105267712D01*
X154342597Y-105261418D01*
X154356457Y-105256459D01*
X154370736Y-105252882D01*
X154385297Y-105250722D01*
X154400000Y-105250000D01*
X155600000Y-105250000D01*
X155614703Y-105250722D01*
X155614703Y-105250722D01*
G37*
D14*
X155000000Y-106000000D03*
D10*
G36*
X155614703Y-107250722D02*
G01*
X155629264Y-107252882D01*
X155643543Y-107256459D01*
X155657403Y-107261418D01*
X155670710Y-107267712D01*
X155683336Y-107275280D01*
X155695159Y-107284048D01*
X155706066Y-107293934D01*
X155715952Y-107304841D01*
X155724720Y-107316664D01*
X155732288Y-107329290D01*
X155738582Y-107342597D01*
X155743541Y-107356457D01*
X155747118Y-107370736D01*
X155749278Y-107385297D01*
X155750000Y-107400000D01*
X155750000Y-108600000D01*
X155749278Y-108614703D01*
X155747118Y-108629264D01*
X155743541Y-108643543D01*
X155738582Y-108657403D01*
X155732288Y-108670710D01*
X155724720Y-108683336D01*
X155715952Y-108695159D01*
X155706066Y-108706066D01*
X155695159Y-108715952D01*
X155683336Y-108724720D01*
X155670710Y-108732288D01*
X155657403Y-108738582D01*
X155643543Y-108743541D01*
X155629264Y-108747118D01*
X155614703Y-108749278D01*
X155600000Y-108750000D01*
X154400000Y-108750000D01*
X154385297Y-108749278D01*
X154370736Y-108747118D01*
X154356457Y-108743541D01*
X154342597Y-108738582D01*
X154329290Y-108732288D01*
X154316664Y-108724720D01*
X154304841Y-108715952D01*
X154293934Y-108706066D01*
X154284048Y-108695159D01*
X154275280Y-108683336D01*
X154267712Y-108670710D01*
X154261418Y-108657403D01*
X154256459Y-108643543D01*
X154252882Y-108629264D01*
X154250722Y-108614703D01*
X154250000Y-108600000D01*
X154250000Y-107400000D01*
X154250722Y-107385297D01*
X154252882Y-107370736D01*
X154256459Y-107356457D01*
X154261418Y-107342597D01*
X154267712Y-107329290D01*
X154275280Y-107316664D01*
X154284048Y-107304841D01*
X154293934Y-107293934D01*
X154304841Y-107284048D01*
X154316664Y-107275280D01*
X154329290Y-107267712D01*
X154342597Y-107261418D01*
X154356457Y-107256459D01*
X154370736Y-107252882D01*
X154385297Y-107250722D01*
X154400000Y-107250000D01*
X155600000Y-107250000D01*
X155614703Y-107250722D01*
X155614703Y-107250722D01*
G37*
D14*
X155000000Y-108000000D03*
D15*
X155000000Y-103500000D03*
X155000000Y-110500000D03*
D10*
G36*
X155614703Y-103250722D02*
G01*
X155629264Y-103252882D01*
X155643543Y-103256459D01*
X155657403Y-103261418D01*
X155670710Y-103267712D01*
X155683336Y-103275280D01*
X155695159Y-103284048D01*
X155706066Y-103293934D01*
X155715952Y-103304841D01*
X155724720Y-103316664D01*
X155732288Y-103329290D01*
X155738582Y-103342597D01*
X155743541Y-103356457D01*
X155747118Y-103370736D01*
X155749278Y-103385297D01*
X155750000Y-103400000D01*
X155750000Y-104600000D01*
X155749278Y-104614703D01*
X155747118Y-104629264D01*
X155743541Y-104643543D01*
X155738582Y-104657403D01*
X155732288Y-104670710D01*
X155724720Y-104683336D01*
X155715952Y-104695159D01*
X155706066Y-104706066D01*
X155695159Y-104715952D01*
X155683336Y-104724720D01*
X155670710Y-104732288D01*
X155657403Y-104738582D01*
X155643543Y-104743541D01*
X155629264Y-104747118D01*
X155614703Y-104749278D01*
X155600000Y-104750000D01*
X154400000Y-104750000D01*
X154385297Y-104749278D01*
X154370736Y-104747118D01*
X154356457Y-104743541D01*
X154342597Y-104738582D01*
X154329290Y-104732288D01*
X154316664Y-104724720D01*
X154304841Y-104715952D01*
X154293934Y-104706066D01*
X154284048Y-104695159D01*
X154275280Y-104683336D01*
X154267712Y-104670710D01*
X154261418Y-104657403D01*
X154256459Y-104643543D01*
X154252882Y-104629264D01*
X154250722Y-104614703D01*
X154250000Y-104600000D01*
X154250000Y-103400000D01*
X154250722Y-103385297D01*
X154252882Y-103370736D01*
X154256459Y-103356457D01*
X154261418Y-103342597D01*
X154267712Y-103329290D01*
X154275280Y-103316664D01*
X154284048Y-103304841D01*
X154293934Y-103293934D01*
X154304841Y-103284048D01*
X154316664Y-103275280D01*
X154329290Y-103267712D01*
X154342597Y-103261418D01*
X154356457Y-103256459D01*
X154370736Y-103252882D01*
X154385297Y-103250722D01*
X154400000Y-103250000D01*
X155600000Y-103250000D01*
X155614703Y-103250722D01*
X155614703Y-103250722D01*
G37*
D14*
X155000000Y-104000000D03*
D10*
G36*
X155614703Y-109250722D02*
G01*
X155629264Y-109252882D01*
X155643543Y-109256459D01*
X155657403Y-109261418D01*
X155670710Y-109267712D01*
X155683336Y-109275280D01*
X155695159Y-109284048D01*
X155706066Y-109293934D01*
X155715952Y-109304841D01*
X155724720Y-109316664D01*
X155732288Y-109329290D01*
X155738582Y-109342597D01*
X155743541Y-109356457D01*
X155747118Y-109370736D01*
X155749278Y-109385297D01*
X155750000Y-109400000D01*
X155750000Y-110600000D01*
X155749278Y-110614703D01*
X155747118Y-110629264D01*
X155743541Y-110643543D01*
X155738582Y-110657403D01*
X155732288Y-110670710D01*
X155724720Y-110683336D01*
X155715952Y-110695159D01*
X155706066Y-110706066D01*
X155695159Y-110715952D01*
X155683336Y-110724720D01*
X155670710Y-110732288D01*
X155657403Y-110738582D01*
X155643543Y-110743541D01*
X155629264Y-110747118D01*
X155614703Y-110749278D01*
X155600000Y-110750000D01*
X154400000Y-110750000D01*
X154385297Y-110749278D01*
X154370736Y-110747118D01*
X154356457Y-110743541D01*
X154342597Y-110738582D01*
X154329290Y-110732288D01*
X154316664Y-110724720D01*
X154304841Y-110715952D01*
X154293934Y-110706066D01*
X154284048Y-110695159D01*
X154275280Y-110683336D01*
X154267712Y-110670710D01*
X154261418Y-110657403D01*
X154256459Y-110643543D01*
X154252882Y-110629264D01*
X154250722Y-110614703D01*
X154250000Y-110600000D01*
X154250000Y-109400000D01*
X154250722Y-109385297D01*
X154252882Y-109370736D01*
X154256459Y-109356457D01*
X154261418Y-109342597D01*
X154267712Y-109329290D01*
X154275280Y-109316664D01*
X154284048Y-109304841D01*
X154293934Y-109293934D01*
X154304841Y-109284048D01*
X154316664Y-109275280D01*
X154329290Y-109267712D01*
X154342597Y-109261418D01*
X154356457Y-109256459D01*
X154370736Y-109252882D01*
X154385297Y-109250722D01*
X154400000Y-109250000D01*
X155600000Y-109250000D01*
X155614703Y-109250722D01*
X155614703Y-109250722D01*
G37*
D14*
X155000000Y-110000000D03*
D10*
G36*
X147684802Y-109150482D02*
G01*
X147694509Y-109151921D01*
X147704028Y-109154306D01*
X147713268Y-109157612D01*
X147722140Y-109161808D01*
X147730557Y-109166853D01*
X147738439Y-109172699D01*
X147745711Y-109179289D01*
X147752301Y-109186561D01*
X147758147Y-109194443D01*
X147763192Y-109202860D01*
X147767388Y-109211732D01*
X147770694Y-109220972D01*
X147773079Y-109230491D01*
X147774518Y-109240198D01*
X147775000Y-109250000D01*
X147775000Y-109450000D01*
X147774518Y-109459802D01*
X147773079Y-109469509D01*
X147770694Y-109479028D01*
X147767388Y-109488268D01*
X147763192Y-109497140D01*
X147758147Y-109505557D01*
X147752301Y-109513439D01*
X147745711Y-109520711D01*
X147738439Y-109527301D01*
X147730557Y-109533147D01*
X147722140Y-109538192D01*
X147713268Y-109542388D01*
X147704028Y-109545694D01*
X147694509Y-109548079D01*
X147684802Y-109549518D01*
X147675000Y-109550000D01*
X147225000Y-109550000D01*
X147215198Y-109549518D01*
X147205491Y-109548079D01*
X147195972Y-109545694D01*
X147186732Y-109542388D01*
X147177860Y-109538192D01*
X147169443Y-109533147D01*
X147161561Y-109527301D01*
X147154289Y-109520711D01*
X147147699Y-109513439D01*
X147141853Y-109505557D01*
X147136808Y-109497140D01*
X147132612Y-109488268D01*
X147129306Y-109479028D01*
X147126921Y-109469509D01*
X147125482Y-109459802D01*
X147125000Y-109450000D01*
X147125000Y-109250000D01*
X147125482Y-109240198D01*
X147126921Y-109230491D01*
X147129306Y-109220972D01*
X147132612Y-109211732D01*
X147136808Y-109202860D01*
X147141853Y-109194443D01*
X147147699Y-109186561D01*
X147154289Y-109179289D01*
X147161561Y-109172699D01*
X147169443Y-109166853D01*
X147177860Y-109161808D01*
X147186732Y-109157612D01*
X147195972Y-109154306D01*
X147205491Y-109151921D01*
X147215198Y-109150482D01*
X147225000Y-109150000D01*
X147675000Y-109150000D01*
X147684802Y-109150482D01*
X147684802Y-109150482D01*
G37*
D13*
X147450000Y-109350000D03*
D10*
G36*
X147684802Y-110450482D02*
G01*
X147694509Y-110451921D01*
X147704028Y-110454306D01*
X147713268Y-110457612D01*
X147722140Y-110461808D01*
X147730557Y-110466853D01*
X147738439Y-110472699D01*
X147745711Y-110479289D01*
X147752301Y-110486561D01*
X147758147Y-110494443D01*
X147763192Y-110502860D01*
X147767388Y-110511732D01*
X147770694Y-110520972D01*
X147773079Y-110530491D01*
X147774518Y-110540198D01*
X147775000Y-110550000D01*
X147775000Y-110750000D01*
X147774518Y-110759802D01*
X147773079Y-110769509D01*
X147770694Y-110779028D01*
X147767388Y-110788268D01*
X147763192Y-110797140D01*
X147758147Y-110805557D01*
X147752301Y-110813439D01*
X147745711Y-110820711D01*
X147738439Y-110827301D01*
X147730557Y-110833147D01*
X147722140Y-110838192D01*
X147713268Y-110842388D01*
X147704028Y-110845694D01*
X147694509Y-110848079D01*
X147684802Y-110849518D01*
X147675000Y-110850000D01*
X147225000Y-110850000D01*
X147215198Y-110849518D01*
X147205491Y-110848079D01*
X147195972Y-110845694D01*
X147186732Y-110842388D01*
X147177860Y-110838192D01*
X147169443Y-110833147D01*
X147161561Y-110827301D01*
X147154289Y-110820711D01*
X147147699Y-110813439D01*
X147141853Y-110805557D01*
X147136808Y-110797140D01*
X147132612Y-110788268D01*
X147129306Y-110779028D01*
X147126921Y-110769509D01*
X147125482Y-110759802D01*
X147125000Y-110750000D01*
X147125000Y-110550000D01*
X147125482Y-110540198D01*
X147126921Y-110530491D01*
X147129306Y-110520972D01*
X147132612Y-110511732D01*
X147136808Y-110502860D01*
X147141853Y-110494443D01*
X147147699Y-110486561D01*
X147154289Y-110479289D01*
X147161561Y-110472699D01*
X147169443Y-110466853D01*
X147177860Y-110461808D01*
X147186732Y-110457612D01*
X147195972Y-110454306D01*
X147205491Y-110451921D01*
X147215198Y-110450482D01*
X147225000Y-110450000D01*
X147675000Y-110450000D01*
X147684802Y-110450482D01*
X147684802Y-110450482D01*
G37*
D13*
X147450000Y-110650000D03*
D10*
G36*
X145784802Y-109800482D02*
G01*
X145794509Y-109801921D01*
X145804028Y-109804306D01*
X145813268Y-109807612D01*
X145822140Y-109811808D01*
X145830557Y-109816853D01*
X145838439Y-109822699D01*
X145845711Y-109829289D01*
X145852301Y-109836561D01*
X145858147Y-109844443D01*
X145863192Y-109852860D01*
X145867388Y-109861732D01*
X145870694Y-109870972D01*
X145873079Y-109880491D01*
X145874518Y-109890198D01*
X145875000Y-109900000D01*
X145875000Y-110100000D01*
X145874518Y-110109802D01*
X145873079Y-110119509D01*
X145870694Y-110129028D01*
X145867388Y-110138268D01*
X145863192Y-110147140D01*
X145858147Y-110155557D01*
X145852301Y-110163439D01*
X145845711Y-110170711D01*
X145838439Y-110177301D01*
X145830557Y-110183147D01*
X145822140Y-110188192D01*
X145813268Y-110192388D01*
X145804028Y-110195694D01*
X145794509Y-110198079D01*
X145784802Y-110199518D01*
X145775000Y-110200000D01*
X145325000Y-110200000D01*
X145315198Y-110199518D01*
X145305491Y-110198079D01*
X145295972Y-110195694D01*
X145286732Y-110192388D01*
X145277860Y-110188192D01*
X145269443Y-110183147D01*
X145261561Y-110177301D01*
X145254289Y-110170711D01*
X145247699Y-110163439D01*
X145241853Y-110155557D01*
X145236808Y-110147140D01*
X145232612Y-110138268D01*
X145229306Y-110129028D01*
X145226921Y-110119509D01*
X145225482Y-110109802D01*
X145225000Y-110100000D01*
X145225000Y-109900000D01*
X145225482Y-109890198D01*
X145226921Y-109880491D01*
X145229306Y-109870972D01*
X145232612Y-109861732D01*
X145236808Y-109852860D01*
X145241853Y-109844443D01*
X145247699Y-109836561D01*
X145254289Y-109829289D01*
X145261561Y-109822699D01*
X145269443Y-109816853D01*
X145277860Y-109811808D01*
X145286732Y-109807612D01*
X145295972Y-109804306D01*
X145305491Y-109801921D01*
X145315198Y-109800482D01*
X145325000Y-109800000D01*
X145775000Y-109800000D01*
X145784802Y-109800482D01*
X145784802Y-109800482D01*
G37*
D13*
X145550000Y-110000000D03*
D10*
G36*
X145784802Y-110450482D02*
G01*
X145794509Y-110451921D01*
X145804028Y-110454306D01*
X145813268Y-110457612D01*
X145822140Y-110461808D01*
X145830557Y-110466853D01*
X145838439Y-110472699D01*
X145845711Y-110479289D01*
X145852301Y-110486561D01*
X145858147Y-110494443D01*
X145863192Y-110502860D01*
X145867388Y-110511732D01*
X145870694Y-110520972D01*
X145873079Y-110530491D01*
X145874518Y-110540198D01*
X145875000Y-110550000D01*
X145875000Y-110750000D01*
X145874518Y-110759802D01*
X145873079Y-110769509D01*
X145870694Y-110779028D01*
X145867388Y-110788268D01*
X145863192Y-110797140D01*
X145858147Y-110805557D01*
X145852301Y-110813439D01*
X145845711Y-110820711D01*
X145838439Y-110827301D01*
X145830557Y-110833147D01*
X145822140Y-110838192D01*
X145813268Y-110842388D01*
X145804028Y-110845694D01*
X145794509Y-110848079D01*
X145784802Y-110849518D01*
X145775000Y-110850000D01*
X145325000Y-110850000D01*
X145315198Y-110849518D01*
X145305491Y-110848079D01*
X145295972Y-110845694D01*
X145286732Y-110842388D01*
X145277860Y-110838192D01*
X145269443Y-110833147D01*
X145261561Y-110827301D01*
X145254289Y-110820711D01*
X145247699Y-110813439D01*
X145241853Y-110805557D01*
X145236808Y-110797140D01*
X145232612Y-110788268D01*
X145229306Y-110779028D01*
X145226921Y-110769509D01*
X145225482Y-110759802D01*
X145225000Y-110750000D01*
X145225000Y-110550000D01*
X145225482Y-110540198D01*
X145226921Y-110530491D01*
X145229306Y-110520972D01*
X145232612Y-110511732D01*
X145236808Y-110502860D01*
X145241853Y-110494443D01*
X145247699Y-110486561D01*
X145254289Y-110479289D01*
X145261561Y-110472699D01*
X145269443Y-110466853D01*
X145277860Y-110461808D01*
X145286732Y-110457612D01*
X145295972Y-110454306D01*
X145305491Y-110451921D01*
X145315198Y-110450482D01*
X145325000Y-110450000D01*
X145775000Y-110450000D01*
X145784802Y-110450482D01*
X145784802Y-110450482D01*
G37*
D13*
X145550000Y-110650000D03*
D10*
G36*
X145784802Y-109150482D02*
G01*
X145794509Y-109151921D01*
X145804028Y-109154306D01*
X145813268Y-109157612D01*
X145822140Y-109161808D01*
X145830557Y-109166853D01*
X145838439Y-109172699D01*
X145845711Y-109179289D01*
X145852301Y-109186561D01*
X145858147Y-109194443D01*
X145863192Y-109202860D01*
X145867388Y-109211732D01*
X145870694Y-109220972D01*
X145873079Y-109230491D01*
X145874518Y-109240198D01*
X145875000Y-109250000D01*
X145875000Y-109450000D01*
X145874518Y-109459802D01*
X145873079Y-109469509D01*
X145870694Y-109479028D01*
X145867388Y-109488268D01*
X145863192Y-109497140D01*
X145858147Y-109505557D01*
X145852301Y-109513439D01*
X145845711Y-109520711D01*
X145838439Y-109527301D01*
X145830557Y-109533147D01*
X145822140Y-109538192D01*
X145813268Y-109542388D01*
X145804028Y-109545694D01*
X145794509Y-109548079D01*
X145784802Y-109549518D01*
X145775000Y-109550000D01*
X145325000Y-109550000D01*
X145315198Y-109549518D01*
X145305491Y-109548079D01*
X145295972Y-109545694D01*
X145286732Y-109542388D01*
X145277860Y-109538192D01*
X145269443Y-109533147D01*
X145261561Y-109527301D01*
X145254289Y-109520711D01*
X145247699Y-109513439D01*
X145241853Y-109505557D01*
X145236808Y-109497140D01*
X145232612Y-109488268D01*
X145229306Y-109479028D01*
X145226921Y-109469509D01*
X145225482Y-109459802D01*
X145225000Y-109450000D01*
X145225000Y-109250000D01*
X145225482Y-109240198D01*
X145226921Y-109230491D01*
X145229306Y-109220972D01*
X145232612Y-109211732D01*
X145236808Y-109202860D01*
X145241853Y-109194443D01*
X145247699Y-109186561D01*
X145254289Y-109179289D01*
X145261561Y-109172699D01*
X145269443Y-109166853D01*
X145277860Y-109161808D01*
X145286732Y-109157612D01*
X145295972Y-109154306D01*
X145305491Y-109151921D01*
X145315198Y-109150482D01*
X145325000Y-109150000D01*
X145775000Y-109150000D01*
X145784802Y-109150482D01*
X145784802Y-109150482D01*
G37*
D13*
X145550000Y-109350000D03*
D10*
G36*
X144907351Y-105325361D02*
G01*
X144914632Y-105326441D01*
X144921771Y-105328229D01*
X144928701Y-105330709D01*
X144935355Y-105333856D01*
X144941668Y-105337640D01*
X144947579Y-105342024D01*
X144953033Y-105346967D01*
X144957976Y-105352421D01*
X144962360Y-105358332D01*
X144966144Y-105364645D01*
X144969291Y-105371299D01*
X144971771Y-105378229D01*
X144973559Y-105385368D01*
X144974639Y-105392649D01*
X144975000Y-105400000D01*
X144975000Y-105550000D01*
X144974639Y-105557351D01*
X144973559Y-105564632D01*
X144971771Y-105571771D01*
X144969291Y-105578701D01*
X144966144Y-105585355D01*
X144962360Y-105591668D01*
X144957976Y-105597579D01*
X144953033Y-105603033D01*
X144947579Y-105607976D01*
X144941668Y-105612360D01*
X144935355Y-105616144D01*
X144928701Y-105619291D01*
X144921771Y-105621771D01*
X144914632Y-105623559D01*
X144907351Y-105624639D01*
X144900000Y-105625000D01*
X144200000Y-105625000D01*
X144192649Y-105624639D01*
X144185368Y-105623559D01*
X144178229Y-105621771D01*
X144171299Y-105619291D01*
X144164645Y-105616144D01*
X144158332Y-105612360D01*
X144152421Y-105607976D01*
X144146967Y-105603033D01*
X144142024Y-105597579D01*
X144137640Y-105591668D01*
X144133856Y-105585355D01*
X144130709Y-105578701D01*
X144128229Y-105571771D01*
X144126441Y-105564632D01*
X144125361Y-105557351D01*
X144125000Y-105550000D01*
X144125000Y-105400000D01*
X144125361Y-105392649D01*
X144126441Y-105385368D01*
X144128229Y-105378229D01*
X144130709Y-105371299D01*
X144133856Y-105364645D01*
X144137640Y-105358332D01*
X144142024Y-105352421D01*
X144146967Y-105346967D01*
X144152421Y-105342024D01*
X144158332Y-105337640D01*
X144164645Y-105333856D01*
X144171299Y-105330709D01*
X144178229Y-105328229D01*
X144185368Y-105326441D01*
X144192649Y-105325361D01*
X144200000Y-105325000D01*
X144900000Y-105325000D01*
X144907351Y-105325361D01*
X144907351Y-105325361D01*
G37*
D16*
X144550000Y-105475000D03*
D10*
G36*
X144907351Y-104675361D02*
G01*
X144914632Y-104676441D01*
X144921771Y-104678229D01*
X144928701Y-104680709D01*
X144935355Y-104683856D01*
X144941668Y-104687640D01*
X144947579Y-104692024D01*
X144953033Y-104696967D01*
X144957976Y-104702421D01*
X144962360Y-104708332D01*
X144966144Y-104714645D01*
X144969291Y-104721299D01*
X144971771Y-104728229D01*
X144973559Y-104735368D01*
X144974639Y-104742649D01*
X144975000Y-104750000D01*
X144975000Y-104900000D01*
X144974639Y-104907351D01*
X144973559Y-104914632D01*
X144971771Y-104921771D01*
X144969291Y-104928701D01*
X144966144Y-104935355D01*
X144962360Y-104941668D01*
X144957976Y-104947579D01*
X144953033Y-104953033D01*
X144947579Y-104957976D01*
X144941668Y-104962360D01*
X144935355Y-104966144D01*
X144928701Y-104969291D01*
X144921771Y-104971771D01*
X144914632Y-104973559D01*
X144907351Y-104974639D01*
X144900000Y-104975000D01*
X144200000Y-104975000D01*
X144192649Y-104974639D01*
X144185368Y-104973559D01*
X144178229Y-104971771D01*
X144171299Y-104969291D01*
X144164645Y-104966144D01*
X144158332Y-104962360D01*
X144152421Y-104957976D01*
X144146967Y-104953033D01*
X144142024Y-104947579D01*
X144137640Y-104941668D01*
X144133856Y-104935355D01*
X144130709Y-104928701D01*
X144128229Y-104921771D01*
X144126441Y-104914632D01*
X144125361Y-104907351D01*
X144125000Y-104900000D01*
X144125000Y-104750000D01*
X144125361Y-104742649D01*
X144126441Y-104735368D01*
X144128229Y-104728229D01*
X144130709Y-104721299D01*
X144133856Y-104714645D01*
X144137640Y-104708332D01*
X144142024Y-104702421D01*
X144146967Y-104696967D01*
X144152421Y-104692024D01*
X144158332Y-104687640D01*
X144164645Y-104683856D01*
X144171299Y-104680709D01*
X144178229Y-104678229D01*
X144185368Y-104676441D01*
X144192649Y-104675361D01*
X144200000Y-104675000D01*
X144900000Y-104675000D01*
X144907351Y-104675361D01*
X144907351Y-104675361D01*
G37*
D16*
X144550000Y-104825000D03*
D10*
G36*
X144907351Y-104025361D02*
G01*
X144914632Y-104026441D01*
X144921771Y-104028229D01*
X144928701Y-104030709D01*
X144935355Y-104033856D01*
X144941668Y-104037640D01*
X144947579Y-104042024D01*
X144953033Y-104046967D01*
X144957976Y-104052421D01*
X144962360Y-104058332D01*
X144966144Y-104064645D01*
X144969291Y-104071299D01*
X144971771Y-104078229D01*
X144973559Y-104085368D01*
X144974639Y-104092649D01*
X144975000Y-104100000D01*
X144975000Y-104250000D01*
X144974639Y-104257351D01*
X144973559Y-104264632D01*
X144971771Y-104271771D01*
X144969291Y-104278701D01*
X144966144Y-104285355D01*
X144962360Y-104291668D01*
X144957976Y-104297579D01*
X144953033Y-104303033D01*
X144947579Y-104307976D01*
X144941668Y-104312360D01*
X144935355Y-104316144D01*
X144928701Y-104319291D01*
X144921771Y-104321771D01*
X144914632Y-104323559D01*
X144907351Y-104324639D01*
X144900000Y-104325000D01*
X144200000Y-104325000D01*
X144192649Y-104324639D01*
X144185368Y-104323559D01*
X144178229Y-104321771D01*
X144171299Y-104319291D01*
X144164645Y-104316144D01*
X144158332Y-104312360D01*
X144152421Y-104307976D01*
X144146967Y-104303033D01*
X144142024Y-104297579D01*
X144137640Y-104291668D01*
X144133856Y-104285355D01*
X144130709Y-104278701D01*
X144128229Y-104271771D01*
X144126441Y-104264632D01*
X144125361Y-104257351D01*
X144125000Y-104250000D01*
X144125000Y-104100000D01*
X144125361Y-104092649D01*
X144126441Y-104085368D01*
X144128229Y-104078229D01*
X144130709Y-104071299D01*
X144133856Y-104064645D01*
X144137640Y-104058332D01*
X144142024Y-104052421D01*
X144146967Y-104046967D01*
X144152421Y-104042024D01*
X144158332Y-104037640D01*
X144164645Y-104033856D01*
X144171299Y-104030709D01*
X144178229Y-104028229D01*
X144185368Y-104026441D01*
X144192649Y-104025361D01*
X144200000Y-104025000D01*
X144900000Y-104025000D01*
X144907351Y-104025361D01*
X144907351Y-104025361D01*
G37*
D16*
X144550000Y-104175000D03*
D10*
G36*
X144907351Y-103375361D02*
G01*
X144914632Y-103376441D01*
X144921771Y-103378229D01*
X144928701Y-103380709D01*
X144935355Y-103383856D01*
X144941668Y-103387640D01*
X144947579Y-103392024D01*
X144953033Y-103396967D01*
X144957976Y-103402421D01*
X144962360Y-103408332D01*
X144966144Y-103414645D01*
X144969291Y-103421299D01*
X144971771Y-103428229D01*
X144973559Y-103435368D01*
X144974639Y-103442649D01*
X144975000Y-103450000D01*
X144975000Y-103600000D01*
X144974639Y-103607351D01*
X144973559Y-103614632D01*
X144971771Y-103621771D01*
X144969291Y-103628701D01*
X144966144Y-103635355D01*
X144962360Y-103641668D01*
X144957976Y-103647579D01*
X144953033Y-103653033D01*
X144947579Y-103657976D01*
X144941668Y-103662360D01*
X144935355Y-103666144D01*
X144928701Y-103669291D01*
X144921771Y-103671771D01*
X144914632Y-103673559D01*
X144907351Y-103674639D01*
X144900000Y-103675000D01*
X144200000Y-103675000D01*
X144192649Y-103674639D01*
X144185368Y-103673559D01*
X144178229Y-103671771D01*
X144171299Y-103669291D01*
X144164645Y-103666144D01*
X144158332Y-103662360D01*
X144152421Y-103657976D01*
X144146967Y-103653033D01*
X144142024Y-103647579D01*
X144137640Y-103641668D01*
X144133856Y-103635355D01*
X144130709Y-103628701D01*
X144128229Y-103621771D01*
X144126441Y-103614632D01*
X144125361Y-103607351D01*
X144125000Y-103600000D01*
X144125000Y-103450000D01*
X144125361Y-103442649D01*
X144126441Y-103435368D01*
X144128229Y-103428229D01*
X144130709Y-103421299D01*
X144133856Y-103414645D01*
X144137640Y-103408332D01*
X144142024Y-103402421D01*
X144146967Y-103396967D01*
X144152421Y-103392024D01*
X144158332Y-103387640D01*
X144164645Y-103383856D01*
X144171299Y-103380709D01*
X144178229Y-103378229D01*
X144185368Y-103376441D01*
X144192649Y-103375361D01*
X144200000Y-103375000D01*
X144900000Y-103375000D01*
X144907351Y-103375361D01*
X144907351Y-103375361D01*
G37*
D16*
X144550000Y-103525000D03*
D10*
G36*
X145607351Y-102125361D02*
G01*
X145614632Y-102126441D01*
X145621771Y-102128229D01*
X145628701Y-102130709D01*
X145635355Y-102133856D01*
X145641668Y-102137640D01*
X145647579Y-102142024D01*
X145653033Y-102146967D01*
X145657976Y-102152421D01*
X145662360Y-102158332D01*
X145666144Y-102164645D01*
X145669291Y-102171299D01*
X145671771Y-102178229D01*
X145673559Y-102185368D01*
X145674639Y-102192649D01*
X145675000Y-102200000D01*
X145675000Y-102900000D01*
X145674639Y-102907351D01*
X145673559Y-102914632D01*
X145671771Y-102921771D01*
X145669291Y-102928701D01*
X145666144Y-102935355D01*
X145662360Y-102941668D01*
X145657976Y-102947579D01*
X145653033Y-102953033D01*
X145647579Y-102957976D01*
X145641668Y-102962360D01*
X145635355Y-102966144D01*
X145628701Y-102969291D01*
X145621771Y-102971771D01*
X145614632Y-102973559D01*
X145607351Y-102974639D01*
X145600000Y-102975000D01*
X145450000Y-102975000D01*
X145442649Y-102974639D01*
X145435368Y-102973559D01*
X145428229Y-102971771D01*
X145421299Y-102969291D01*
X145414645Y-102966144D01*
X145408332Y-102962360D01*
X145402421Y-102957976D01*
X145396967Y-102953033D01*
X145392024Y-102947579D01*
X145387640Y-102941668D01*
X145383856Y-102935355D01*
X145380709Y-102928701D01*
X145378229Y-102921771D01*
X145376441Y-102914632D01*
X145375361Y-102907351D01*
X145375000Y-102900000D01*
X145375000Y-102200000D01*
X145375361Y-102192649D01*
X145376441Y-102185368D01*
X145378229Y-102178229D01*
X145380709Y-102171299D01*
X145383856Y-102164645D01*
X145387640Y-102158332D01*
X145392024Y-102152421D01*
X145396967Y-102146967D01*
X145402421Y-102142024D01*
X145408332Y-102137640D01*
X145414645Y-102133856D01*
X145421299Y-102130709D01*
X145428229Y-102128229D01*
X145435368Y-102126441D01*
X145442649Y-102125361D01*
X145450000Y-102125000D01*
X145600000Y-102125000D01*
X145607351Y-102125361D01*
X145607351Y-102125361D01*
G37*
D16*
X145525000Y-102550000D03*
D10*
G36*
X146257351Y-102125361D02*
G01*
X146264632Y-102126441D01*
X146271771Y-102128229D01*
X146278701Y-102130709D01*
X146285355Y-102133856D01*
X146291668Y-102137640D01*
X146297579Y-102142024D01*
X146303033Y-102146967D01*
X146307976Y-102152421D01*
X146312360Y-102158332D01*
X146316144Y-102164645D01*
X146319291Y-102171299D01*
X146321771Y-102178229D01*
X146323559Y-102185368D01*
X146324639Y-102192649D01*
X146325000Y-102200000D01*
X146325000Y-102900000D01*
X146324639Y-102907351D01*
X146323559Y-102914632D01*
X146321771Y-102921771D01*
X146319291Y-102928701D01*
X146316144Y-102935355D01*
X146312360Y-102941668D01*
X146307976Y-102947579D01*
X146303033Y-102953033D01*
X146297579Y-102957976D01*
X146291668Y-102962360D01*
X146285355Y-102966144D01*
X146278701Y-102969291D01*
X146271771Y-102971771D01*
X146264632Y-102973559D01*
X146257351Y-102974639D01*
X146250000Y-102975000D01*
X146100000Y-102975000D01*
X146092649Y-102974639D01*
X146085368Y-102973559D01*
X146078229Y-102971771D01*
X146071299Y-102969291D01*
X146064645Y-102966144D01*
X146058332Y-102962360D01*
X146052421Y-102957976D01*
X146046967Y-102953033D01*
X146042024Y-102947579D01*
X146037640Y-102941668D01*
X146033856Y-102935355D01*
X146030709Y-102928701D01*
X146028229Y-102921771D01*
X146026441Y-102914632D01*
X146025361Y-102907351D01*
X146025000Y-102900000D01*
X146025000Y-102200000D01*
X146025361Y-102192649D01*
X146026441Y-102185368D01*
X146028229Y-102178229D01*
X146030709Y-102171299D01*
X146033856Y-102164645D01*
X146037640Y-102158332D01*
X146042024Y-102152421D01*
X146046967Y-102146967D01*
X146052421Y-102142024D01*
X146058332Y-102137640D01*
X146064645Y-102133856D01*
X146071299Y-102130709D01*
X146078229Y-102128229D01*
X146085368Y-102126441D01*
X146092649Y-102125361D01*
X146100000Y-102125000D01*
X146250000Y-102125000D01*
X146257351Y-102125361D01*
X146257351Y-102125361D01*
G37*
D16*
X146175000Y-102550000D03*
D10*
G36*
X146907351Y-102125361D02*
G01*
X146914632Y-102126441D01*
X146921771Y-102128229D01*
X146928701Y-102130709D01*
X146935355Y-102133856D01*
X146941668Y-102137640D01*
X146947579Y-102142024D01*
X146953033Y-102146967D01*
X146957976Y-102152421D01*
X146962360Y-102158332D01*
X146966144Y-102164645D01*
X146969291Y-102171299D01*
X146971771Y-102178229D01*
X146973559Y-102185368D01*
X146974639Y-102192649D01*
X146975000Y-102200000D01*
X146975000Y-102900000D01*
X146974639Y-102907351D01*
X146973559Y-102914632D01*
X146971771Y-102921771D01*
X146969291Y-102928701D01*
X146966144Y-102935355D01*
X146962360Y-102941668D01*
X146957976Y-102947579D01*
X146953033Y-102953033D01*
X146947579Y-102957976D01*
X146941668Y-102962360D01*
X146935355Y-102966144D01*
X146928701Y-102969291D01*
X146921771Y-102971771D01*
X146914632Y-102973559D01*
X146907351Y-102974639D01*
X146900000Y-102975000D01*
X146750000Y-102975000D01*
X146742649Y-102974639D01*
X146735368Y-102973559D01*
X146728229Y-102971771D01*
X146721299Y-102969291D01*
X146714645Y-102966144D01*
X146708332Y-102962360D01*
X146702421Y-102957976D01*
X146696967Y-102953033D01*
X146692024Y-102947579D01*
X146687640Y-102941668D01*
X146683856Y-102935355D01*
X146680709Y-102928701D01*
X146678229Y-102921771D01*
X146676441Y-102914632D01*
X146675361Y-102907351D01*
X146675000Y-102900000D01*
X146675000Y-102200000D01*
X146675361Y-102192649D01*
X146676441Y-102185368D01*
X146678229Y-102178229D01*
X146680709Y-102171299D01*
X146683856Y-102164645D01*
X146687640Y-102158332D01*
X146692024Y-102152421D01*
X146696967Y-102146967D01*
X146702421Y-102142024D01*
X146708332Y-102137640D01*
X146714645Y-102133856D01*
X146721299Y-102130709D01*
X146728229Y-102128229D01*
X146735368Y-102126441D01*
X146742649Y-102125361D01*
X146750000Y-102125000D01*
X146900000Y-102125000D01*
X146907351Y-102125361D01*
X146907351Y-102125361D01*
G37*
D16*
X146825000Y-102550000D03*
D10*
G36*
X147557351Y-102125361D02*
G01*
X147564632Y-102126441D01*
X147571771Y-102128229D01*
X147578701Y-102130709D01*
X147585355Y-102133856D01*
X147591668Y-102137640D01*
X147597579Y-102142024D01*
X147603033Y-102146967D01*
X147607976Y-102152421D01*
X147612360Y-102158332D01*
X147616144Y-102164645D01*
X147619291Y-102171299D01*
X147621771Y-102178229D01*
X147623559Y-102185368D01*
X147624639Y-102192649D01*
X147625000Y-102200000D01*
X147625000Y-102900000D01*
X147624639Y-102907351D01*
X147623559Y-102914632D01*
X147621771Y-102921771D01*
X147619291Y-102928701D01*
X147616144Y-102935355D01*
X147612360Y-102941668D01*
X147607976Y-102947579D01*
X147603033Y-102953033D01*
X147597579Y-102957976D01*
X147591668Y-102962360D01*
X147585355Y-102966144D01*
X147578701Y-102969291D01*
X147571771Y-102971771D01*
X147564632Y-102973559D01*
X147557351Y-102974639D01*
X147550000Y-102975000D01*
X147400000Y-102975000D01*
X147392649Y-102974639D01*
X147385368Y-102973559D01*
X147378229Y-102971771D01*
X147371299Y-102969291D01*
X147364645Y-102966144D01*
X147358332Y-102962360D01*
X147352421Y-102957976D01*
X147346967Y-102953033D01*
X147342024Y-102947579D01*
X147337640Y-102941668D01*
X147333856Y-102935355D01*
X147330709Y-102928701D01*
X147328229Y-102921771D01*
X147326441Y-102914632D01*
X147325361Y-102907351D01*
X147325000Y-102900000D01*
X147325000Y-102200000D01*
X147325361Y-102192649D01*
X147326441Y-102185368D01*
X147328229Y-102178229D01*
X147330709Y-102171299D01*
X147333856Y-102164645D01*
X147337640Y-102158332D01*
X147342024Y-102152421D01*
X147346967Y-102146967D01*
X147352421Y-102142024D01*
X147358332Y-102137640D01*
X147364645Y-102133856D01*
X147371299Y-102130709D01*
X147378229Y-102128229D01*
X147385368Y-102126441D01*
X147392649Y-102125361D01*
X147400000Y-102125000D01*
X147550000Y-102125000D01*
X147557351Y-102125361D01*
X147557351Y-102125361D01*
G37*
D16*
X147475000Y-102550000D03*
D10*
G36*
X148807351Y-103375361D02*
G01*
X148814632Y-103376441D01*
X148821771Y-103378229D01*
X148828701Y-103380709D01*
X148835355Y-103383856D01*
X148841668Y-103387640D01*
X148847579Y-103392024D01*
X148853033Y-103396967D01*
X148857976Y-103402421D01*
X148862360Y-103408332D01*
X148866144Y-103414645D01*
X148869291Y-103421299D01*
X148871771Y-103428229D01*
X148873559Y-103435368D01*
X148874639Y-103442649D01*
X148875000Y-103450000D01*
X148875000Y-103600000D01*
X148874639Y-103607351D01*
X148873559Y-103614632D01*
X148871771Y-103621771D01*
X148869291Y-103628701D01*
X148866144Y-103635355D01*
X148862360Y-103641668D01*
X148857976Y-103647579D01*
X148853033Y-103653033D01*
X148847579Y-103657976D01*
X148841668Y-103662360D01*
X148835355Y-103666144D01*
X148828701Y-103669291D01*
X148821771Y-103671771D01*
X148814632Y-103673559D01*
X148807351Y-103674639D01*
X148800000Y-103675000D01*
X148100000Y-103675000D01*
X148092649Y-103674639D01*
X148085368Y-103673559D01*
X148078229Y-103671771D01*
X148071299Y-103669291D01*
X148064645Y-103666144D01*
X148058332Y-103662360D01*
X148052421Y-103657976D01*
X148046967Y-103653033D01*
X148042024Y-103647579D01*
X148037640Y-103641668D01*
X148033856Y-103635355D01*
X148030709Y-103628701D01*
X148028229Y-103621771D01*
X148026441Y-103614632D01*
X148025361Y-103607351D01*
X148025000Y-103600000D01*
X148025000Y-103450000D01*
X148025361Y-103442649D01*
X148026441Y-103435368D01*
X148028229Y-103428229D01*
X148030709Y-103421299D01*
X148033856Y-103414645D01*
X148037640Y-103408332D01*
X148042024Y-103402421D01*
X148046967Y-103396967D01*
X148052421Y-103392024D01*
X148058332Y-103387640D01*
X148064645Y-103383856D01*
X148071299Y-103380709D01*
X148078229Y-103378229D01*
X148085368Y-103376441D01*
X148092649Y-103375361D01*
X148100000Y-103375000D01*
X148800000Y-103375000D01*
X148807351Y-103375361D01*
X148807351Y-103375361D01*
G37*
D16*
X148450000Y-103525000D03*
D10*
G36*
X148807351Y-104025361D02*
G01*
X148814632Y-104026441D01*
X148821771Y-104028229D01*
X148828701Y-104030709D01*
X148835355Y-104033856D01*
X148841668Y-104037640D01*
X148847579Y-104042024D01*
X148853033Y-104046967D01*
X148857976Y-104052421D01*
X148862360Y-104058332D01*
X148866144Y-104064645D01*
X148869291Y-104071299D01*
X148871771Y-104078229D01*
X148873559Y-104085368D01*
X148874639Y-104092649D01*
X148875000Y-104100000D01*
X148875000Y-104250000D01*
X148874639Y-104257351D01*
X148873559Y-104264632D01*
X148871771Y-104271771D01*
X148869291Y-104278701D01*
X148866144Y-104285355D01*
X148862360Y-104291668D01*
X148857976Y-104297579D01*
X148853033Y-104303033D01*
X148847579Y-104307976D01*
X148841668Y-104312360D01*
X148835355Y-104316144D01*
X148828701Y-104319291D01*
X148821771Y-104321771D01*
X148814632Y-104323559D01*
X148807351Y-104324639D01*
X148800000Y-104325000D01*
X148100000Y-104325000D01*
X148092649Y-104324639D01*
X148085368Y-104323559D01*
X148078229Y-104321771D01*
X148071299Y-104319291D01*
X148064645Y-104316144D01*
X148058332Y-104312360D01*
X148052421Y-104307976D01*
X148046967Y-104303033D01*
X148042024Y-104297579D01*
X148037640Y-104291668D01*
X148033856Y-104285355D01*
X148030709Y-104278701D01*
X148028229Y-104271771D01*
X148026441Y-104264632D01*
X148025361Y-104257351D01*
X148025000Y-104250000D01*
X148025000Y-104100000D01*
X148025361Y-104092649D01*
X148026441Y-104085368D01*
X148028229Y-104078229D01*
X148030709Y-104071299D01*
X148033856Y-104064645D01*
X148037640Y-104058332D01*
X148042024Y-104052421D01*
X148046967Y-104046967D01*
X148052421Y-104042024D01*
X148058332Y-104037640D01*
X148064645Y-104033856D01*
X148071299Y-104030709D01*
X148078229Y-104028229D01*
X148085368Y-104026441D01*
X148092649Y-104025361D01*
X148100000Y-104025000D01*
X148800000Y-104025000D01*
X148807351Y-104025361D01*
X148807351Y-104025361D01*
G37*
D16*
X148450000Y-104175000D03*
D10*
G36*
X148807351Y-104675361D02*
G01*
X148814632Y-104676441D01*
X148821771Y-104678229D01*
X148828701Y-104680709D01*
X148835355Y-104683856D01*
X148841668Y-104687640D01*
X148847579Y-104692024D01*
X148853033Y-104696967D01*
X148857976Y-104702421D01*
X148862360Y-104708332D01*
X148866144Y-104714645D01*
X148869291Y-104721299D01*
X148871771Y-104728229D01*
X148873559Y-104735368D01*
X148874639Y-104742649D01*
X148875000Y-104750000D01*
X148875000Y-104900000D01*
X148874639Y-104907351D01*
X148873559Y-104914632D01*
X148871771Y-104921771D01*
X148869291Y-104928701D01*
X148866144Y-104935355D01*
X148862360Y-104941668D01*
X148857976Y-104947579D01*
X148853033Y-104953033D01*
X148847579Y-104957976D01*
X148841668Y-104962360D01*
X148835355Y-104966144D01*
X148828701Y-104969291D01*
X148821771Y-104971771D01*
X148814632Y-104973559D01*
X148807351Y-104974639D01*
X148800000Y-104975000D01*
X148100000Y-104975000D01*
X148092649Y-104974639D01*
X148085368Y-104973559D01*
X148078229Y-104971771D01*
X148071299Y-104969291D01*
X148064645Y-104966144D01*
X148058332Y-104962360D01*
X148052421Y-104957976D01*
X148046967Y-104953033D01*
X148042024Y-104947579D01*
X148037640Y-104941668D01*
X148033856Y-104935355D01*
X148030709Y-104928701D01*
X148028229Y-104921771D01*
X148026441Y-104914632D01*
X148025361Y-104907351D01*
X148025000Y-104900000D01*
X148025000Y-104750000D01*
X148025361Y-104742649D01*
X148026441Y-104735368D01*
X148028229Y-104728229D01*
X148030709Y-104721299D01*
X148033856Y-104714645D01*
X148037640Y-104708332D01*
X148042024Y-104702421D01*
X148046967Y-104696967D01*
X148052421Y-104692024D01*
X148058332Y-104687640D01*
X148064645Y-104683856D01*
X148071299Y-104680709D01*
X148078229Y-104678229D01*
X148085368Y-104676441D01*
X148092649Y-104675361D01*
X148100000Y-104675000D01*
X148800000Y-104675000D01*
X148807351Y-104675361D01*
X148807351Y-104675361D01*
G37*
D16*
X148450000Y-104825000D03*
D10*
G36*
X148807351Y-105325361D02*
G01*
X148814632Y-105326441D01*
X148821771Y-105328229D01*
X148828701Y-105330709D01*
X148835355Y-105333856D01*
X148841668Y-105337640D01*
X148847579Y-105342024D01*
X148853033Y-105346967D01*
X148857976Y-105352421D01*
X148862360Y-105358332D01*
X148866144Y-105364645D01*
X148869291Y-105371299D01*
X148871771Y-105378229D01*
X148873559Y-105385368D01*
X148874639Y-105392649D01*
X148875000Y-105400000D01*
X148875000Y-105550000D01*
X148874639Y-105557351D01*
X148873559Y-105564632D01*
X148871771Y-105571771D01*
X148869291Y-105578701D01*
X148866144Y-105585355D01*
X148862360Y-105591668D01*
X148857976Y-105597579D01*
X148853033Y-105603033D01*
X148847579Y-105607976D01*
X148841668Y-105612360D01*
X148835355Y-105616144D01*
X148828701Y-105619291D01*
X148821771Y-105621771D01*
X148814632Y-105623559D01*
X148807351Y-105624639D01*
X148800000Y-105625000D01*
X148100000Y-105625000D01*
X148092649Y-105624639D01*
X148085368Y-105623559D01*
X148078229Y-105621771D01*
X148071299Y-105619291D01*
X148064645Y-105616144D01*
X148058332Y-105612360D01*
X148052421Y-105607976D01*
X148046967Y-105603033D01*
X148042024Y-105597579D01*
X148037640Y-105591668D01*
X148033856Y-105585355D01*
X148030709Y-105578701D01*
X148028229Y-105571771D01*
X148026441Y-105564632D01*
X148025361Y-105557351D01*
X148025000Y-105550000D01*
X148025000Y-105400000D01*
X148025361Y-105392649D01*
X148026441Y-105385368D01*
X148028229Y-105378229D01*
X148030709Y-105371299D01*
X148033856Y-105364645D01*
X148037640Y-105358332D01*
X148042024Y-105352421D01*
X148046967Y-105346967D01*
X148052421Y-105342024D01*
X148058332Y-105337640D01*
X148064645Y-105333856D01*
X148071299Y-105330709D01*
X148078229Y-105328229D01*
X148085368Y-105326441D01*
X148092649Y-105325361D01*
X148100000Y-105325000D01*
X148800000Y-105325000D01*
X148807351Y-105325361D01*
X148807351Y-105325361D01*
G37*
D16*
X148450000Y-105475000D03*
D10*
G36*
X147557351Y-106025361D02*
G01*
X147564632Y-106026441D01*
X147571771Y-106028229D01*
X147578701Y-106030709D01*
X147585355Y-106033856D01*
X147591668Y-106037640D01*
X147597579Y-106042024D01*
X147603033Y-106046967D01*
X147607976Y-106052421D01*
X147612360Y-106058332D01*
X147616144Y-106064645D01*
X147619291Y-106071299D01*
X147621771Y-106078229D01*
X147623559Y-106085368D01*
X147624639Y-106092649D01*
X147625000Y-106100000D01*
X147625000Y-106800000D01*
X147624639Y-106807351D01*
X147623559Y-106814632D01*
X147621771Y-106821771D01*
X147619291Y-106828701D01*
X147616144Y-106835355D01*
X147612360Y-106841668D01*
X147607976Y-106847579D01*
X147603033Y-106853033D01*
X147597579Y-106857976D01*
X147591668Y-106862360D01*
X147585355Y-106866144D01*
X147578701Y-106869291D01*
X147571771Y-106871771D01*
X147564632Y-106873559D01*
X147557351Y-106874639D01*
X147550000Y-106875000D01*
X147400000Y-106875000D01*
X147392649Y-106874639D01*
X147385368Y-106873559D01*
X147378229Y-106871771D01*
X147371299Y-106869291D01*
X147364645Y-106866144D01*
X147358332Y-106862360D01*
X147352421Y-106857976D01*
X147346967Y-106853033D01*
X147342024Y-106847579D01*
X147337640Y-106841668D01*
X147333856Y-106835355D01*
X147330709Y-106828701D01*
X147328229Y-106821771D01*
X147326441Y-106814632D01*
X147325361Y-106807351D01*
X147325000Y-106800000D01*
X147325000Y-106100000D01*
X147325361Y-106092649D01*
X147326441Y-106085368D01*
X147328229Y-106078229D01*
X147330709Y-106071299D01*
X147333856Y-106064645D01*
X147337640Y-106058332D01*
X147342024Y-106052421D01*
X147346967Y-106046967D01*
X147352421Y-106042024D01*
X147358332Y-106037640D01*
X147364645Y-106033856D01*
X147371299Y-106030709D01*
X147378229Y-106028229D01*
X147385368Y-106026441D01*
X147392649Y-106025361D01*
X147400000Y-106025000D01*
X147550000Y-106025000D01*
X147557351Y-106025361D01*
X147557351Y-106025361D01*
G37*
D16*
X147475000Y-106450000D03*
D10*
G36*
X146907351Y-106025361D02*
G01*
X146914632Y-106026441D01*
X146921771Y-106028229D01*
X146928701Y-106030709D01*
X146935355Y-106033856D01*
X146941668Y-106037640D01*
X146947579Y-106042024D01*
X146953033Y-106046967D01*
X146957976Y-106052421D01*
X146962360Y-106058332D01*
X146966144Y-106064645D01*
X146969291Y-106071299D01*
X146971771Y-106078229D01*
X146973559Y-106085368D01*
X146974639Y-106092649D01*
X146975000Y-106100000D01*
X146975000Y-106800000D01*
X146974639Y-106807351D01*
X146973559Y-106814632D01*
X146971771Y-106821771D01*
X146969291Y-106828701D01*
X146966144Y-106835355D01*
X146962360Y-106841668D01*
X146957976Y-106847579D01*
X146953033Y-106853033D01*
X146947579Y-106857976D01*
X146941668Y-106862360D01*
X146935355Y-106866144D01*
X146928701Y-106869291D01*
X146921771Y-106871771D01*
X146914632Y-106873559D01*
X146907351Y-106874639D01*
X146900000Y-106875000D01*
X146750000Y-106875000D01*
X146742649Y-106874639D01*
X146735368Y-106873559D01*
X146728229Y-106871771D01*
X146721299Y-106869291D01*
X146714645Y-106866144D01*
X146708332Y-106862360D01*
X146702421Y-106857976D01*
X146696967Y-106853033D01*
X146692024Y-106847579D01*
X146687640Y-106841668D01*
X146683856Y-106835355D01*
X146680709Y-106828701D01*
X146678229Y-106821771D01*
X146676441Y-106814632D01*
X146675361Y-106807351D01*
X146675000Y-106800000D01*
X146675000Y-106100000D01*
X146675361Y-106092649D01*
X146676441Y-106085368D01*
X146678229Y-106078229D01*
X146680709Y-106071299D01*
X146683856Y-106064645D01*
X146687640Y-106058332D01*
X146692024Y-106052421D01*
X146696967Y-106046967D01*
X146702421Y-106042024D01*
X146708332Y-106037640D01*
X146714645Y-106033856D01*
X146721299Y-106030709D01*
X146728229Y-106028229D01*
X146735368Y-106026441D01*
X146742649Y-106025361D01*
X146750000Y-106025000D01*
X146900000Y-106025000D01*
X146907351Y-106025361D01*
X146907351Y-106025361D01*
G37*
D16*
X146825000Y-106450000D03*
D10*
G36*
X146257351Y-106025361D02*
G01*
X146264632Y-106026441D01*
X146271771Y-106028229D01*
X146278701Y-106030709D01*
X146285355Y-106033856D01*
X146291668Y-106037640D01*
X146297579Y-106042024D01*
X146303033Y-106046967D01*
X146307976Y-106052421D01*
X146312360Y-106058332D01*
X146316144Y-106064645D01*
X146319291Y-106071299D01*
X146321771Y-106078229D01*
X146323559Y-106085368D01*
X146324639Y-106092649D01*
X146325000Y-106100000D01*
X146325000Y-106800000D01*
X146324639Y-106807351D01*
X146323559Y-106814632D01*
X146321771Y-106821771D01*
X146319291Y-106828701D01*
X146316144Y-106835355D01*
X146312360Y-106841668D01*
X146307976Y-106847579D01*
X146303033Y-106853033D01*
X146297579Y-106857976D01*
X146291668Y-106862360D01*
X146285355Y-106866144D01*
X146278701Y-106869291D01*
X146271771Y-106871771D01*
X146264632Y-106873559D01*
X146257351Y-106874639D01*
X146250000Y-106875000D01*
X146100000Y-106875000D01*
X146092649Y-106874639D01*
X146085368Y-106873559D01*
X146078229Y-106871771D01*
X146071299Y-106869291D01*
X146064645Y-106866144D01*
X146058332Y-106862360D01*
X146052421Y-106857976D01*
X146046967Y-106853033D01*
X146042024Y-106847579D01*
X146037640Y-106841668D01*
X146033856Y-106835355D01*
X146030709Y-106828701D01*
X146028229Y-106821771D01*
X146026441Y-106814632D01*
X146025361Y-106807351D01*
X146025000Y-106800000D01*
X146025000Y-106100000D01*
X146025361Y-106092649D01*
X146026441Y-106085368D01*
X146028229Y-106078229D01*
X146030709Y-106071299D01*
X146033856Y-106064645D01*
X146037640Y-106058332D01*
X146042024Y-106052421D01*
X146046967Y-106046967D01*
X146052421Y-106042024D01*
X146058332Y-106037640D01*
X146064645Y-106033856D01*
X146071299Y-106030709D01*
X146078229Y-106028229D01*
X146085368Y-106026441D01*
X146092649Y-106025361D01*
X146100000Y-106025000D01*
X146250000Y-106025000D01*
X146257351Y-106025361D01*
X146257351Y-106025361D01*
G37*
D16*
X146175000Y-106450000D03*
D10*
G36*
X145607351Y-106025361D02*
G01*
X145614632Y-106026441D01*
X145621771Y-106028229D01*
X145628701Y-106030709D01*
X145635355Y-106033856D01*
X145641668Y-106037640D01*
X145647579Y-106042024D01*
X145653033Y-106046967D01*
X145657976Y-106052421D01*
X145662360Y-106058332D01*
X145666144Y-106064645D01*
X145669291Y-106071299D01*
X145671771Y-106078229D01*
X145673559Y-106085368D01*
X145674639Y-106092649D01*
X145675000Y-106100000D01*
X145675000Y-106800000D01*
X145674639Y-106807351D01*
X145673559Y-106814632D01*
X145671771Y-106821771D01*
X145669291Y-106828701D01*
X145666144Y-106835355D01*
X145662360Y-106841668D01*
X145657976Y-106847579D01*
X145653033Y-106853033D01*
X145647579Y-106857976D01*
X145641668Y-106862360D01*
X145635355Y-106866144D01*
X145628701Y-106869291D01*
X145621771Y-106871771D01*
X145614632Y-106873559D01*
X145607351Y-106874639D01*
X145600000Y-106875000D01*
X145450000Y-106875000D01*
X145442649Y-106874639D01*
X145435368Y-106873559D01*
X145428229Y-106871771D01*
X145421299Y-106869291D01*
X145414645Y-106866144D01*
X145408332Y-106862360D01*
X145402421Y-106857976D01*
X145396967Y-106853033D01*
X145392024Y-106847579D01*
X145387640Y-106841668D01*
X145383856Y-106835355D01*
X145380709Y-106828701D01*
X145378229Y-106821771D01*
X145376441Y-106814632D01*
X145375361Y-106807351D01*
X145375000Y-106800000D01*
X145375000Y-106100000D01*
X145375361Y-106092649D01*
X145376441Y-106085368D01*
X145378229Y-106078229D01*
X145380709Y-106071299D01*
X145383856Y-106064645D01*
X145387640Y-106058332D01*
X145392024Y-106052421D01*
X145396967Y-106046967D01*
X145402421Y-106042024D01*
X145408332Y-106037640D01*
X145414645Y-106033856D01*
X145421299Y-106030709D01*
X145428229Y-106028229D01*
X145435368Y-106026441D01*
X145442649Y-106025361D01*
X145450000Y-106025000D01*
X145600000Y-106025000D01*
X145607351Y-106025361D01*
X145607351Y-106025361D01*
G37*
D16*
X145525000Y-106450000D03*
D10*
G36*
X147324504Y-103451204D02*
G01*
X147348773Y-103454804D01*
X147372571Y-103460765D01*
X147395671Y-103469030D01*
X147417849Y-103479520D01*
X147438893Y-103492133D01*
X147458598Y-103506747D01*
X147476777Y-103523223D01*
X147493253Y-103541402D01*
X147507867Y-103561107D01*
X147520480Y-103582151D01*
X147530970Y-103604329D01*
X147539235Y-103627429D01*
X147545196Y-103651227D01*
X147548796Y-103675496D01*
X147550000Y-103700000D01*
X147550000Y-105300000D01*
X147548796Y-105324504D01*
X147545196Y-105348773D01*
X147539235Y-105372571D01*
X147530970Y-105395671D01*
X147520480Y-105417849D01*
X147507867Y-105438893D01*
X147493253Y-105458598D01*
X147476777Y-105476777D01*
X147458598Y-105493253D01*
X147438893Y-105507867D01*
X147417849Y-105520480D01*
X147395671Y-105530970D01*
X147372571Y-105539235D01*
X147348773Y-105545196D01*
X147324504Y-105548796D01*
X147300000Y-105550000D01*
X145700000Y-105550000D01*
X145675496Y-105548796D01*
X145651227Y-105545196D01*
X145627429Y-105539235D01*
X145604329Y-105530970D01*
X145582151Y-105520480D01*
X145561107Y-105507867D01*
X145541402Y-105493253D01*
X145523223Y-105476777D01*
X145506747Y-105458598D01*
X145492133Y-105438893D01*
X145479520Y-105417849D01*
X145469030Y-105395671D01*
X145460765Y-105372571D01*
X145454804Y-105348773D01*
X145451204Y-105324504D01*
X145450000Y-105300000D01*
X145450000Y-103700000D01*
X145451204Y-103675496D01*
X145454804Y-103651227D01*
X145460765Y-103627429D01*
X145469030Y-103604329D01*
X145479520Y-103582151D01*
X145492133Y-103561107D01*
X145506747Y-103541402D01*
X145523223Y-103523223D01*
X145541402Y-103506747D01*
X145561107Y-103492133D01*
X145582151Y-103479520D01*
X145604329Y-103469030D01*
X145627429Y-103460765D01*
X145651227Y-103454804D01*
X145675496Y-103451204D01*
X145700000Y-103450000D01*
X147300000Y-103450000D01*
X147324504Y-103451204D01*
X147324504Y-103451204D01*
G37*
D17*
X146500000Y-104500000D03*
D10*
G36*
X149267153Y-108750843D02*
G01*
X149284141Y-108753363D01*
X149300800Y-108757535D01*
X149316970Y-108763321D01*
X149332494Y-108770664D01*
X149347225Y-108779493D01*
X149361019Y-108789723D01*
X149373744Y-108801256D01*
X149385277Y-108813981D01*
X149395507Y-108827775D01*
X149404336Y-108842506D01*
X149411679Y-108858030D01*
X149417465Y-108874200D01*
X149421637Y-108890859D01*
X149424157Y-108907847D01*
X149425000Y-108925000D01*
X149425000Y-109275000D01*
X149424157Y-109292153D01*
X149421637Y-109309141D01*
X149417465Y-109325800D01*
X149411679Y-109341970D01*
X149404336Y-109357494D01*
X149395507Y-109372225D01*
X149385277Y-109386019D01*
X149373744Y-109398744D01*
X149361019Y-109410277D01*
X149347225Y-109420507D01*
X149332494Y-109429336D01*
X149316970Y-109436679D01*
X149300800Y-109442465D01*
X149284141Y-109446637D01*
X149267153Y-109449157D01*
X149250000Y-109450000D01*
X148750000Y-109450000D01*
X148732847Y-109449157D01*
X148715859Y-109446637D01*
X148699200Y-109442465D01*
X148683030Y-109436679D01*
X148667506Y-109429336D01*
X148652775Y-109420507D01*
X148638981Y-109410277D01*
X148626256Y-109398744D01*
X148614723Y-109386019D01*
X148604493Y-109372225D01*
X148595664Y-109357494D01*
X148588321Y-109341970D01*
X148582535Y-109325800D01*
X148578363Y-109309141D01*
X148575843Y-109292153D01*
X148575000Y-109275000D01*
X148575000Y-108925000D01*
X148575843Y-108907847D01*
X148578363Y-108890859D01*
X148582535Y-108874200D01*
X148588321Y-108858030D01*
X148595664Y-108842506D01*
X148604493Y-108827775D01*
X148614723Y-108813981D01*
X148626256Y-108801256D01*
X148638981Y-108789723D01*
X148652775Y-108779493D01*
X148667506Y-108770664D01*
X148683030Y-108763321D01*
X148699200Y-108757535D01*
X148715859Y-108753363D01*
X148732847Y-108750843D01*
X148750000Y-108750000D01*
X149250000Y-108750000D01*
X149267153Y-108750843D01*
X149267153Y-108750843D01*
G37*
D18*
X149000000Y-109100000D03*
D10*
G36*
X149267153Y-110050843D02*
G01*
X149284141Y-110053363D01*
X149300800Y-110057535D01*
X149316970Y-110063321D01*
X149332494Y-110070664D01*
X149347225Y-110079493D01*
X149361019Y-110089723D01*
X149373744Y-110101256D01*
X149385277Y-110113981D01*
X149395507Y-110127775D01*
X149404336Y-110142506D01*
X149411679Y-110158030D01*
X149417465Y-110174200D01*
X149421637Y-110190859D01*
X149424157Y-110207847D01*
X149425000Y-110225000D01*
X149425000Y-110575000D01*
X149424157Y-110592153D01*
X149421637Y-110609141D01*
X149417465Y-110625800D01*
X149411679Y-110641970D01*
X149404336Y-110657494D01*
X149395507Y-110672225D01*
X149385277Y-110686019D01*
X149373744Y-110698744D01*
X149361019Y-110710277D01*
X149347225Y-110720507D01*
X149332494Y-110729336D01*
X149316970Y-110736679D01*
X149300800Y-110742465D01*
X149284141Y-110746637D01*
X149267153Y-110749157D01*
X149250000Y-110750000D01*
X148750000Y-110750000D01*
X148732847Y-110749157D01*
X148715859Y-110746637D01*
X148699200Y-110742465D01*
X148683030Y-110736679D01*
X148667506Y-110729336D01*
X148652775Y-110720507D01*
X148638981Y-110710277D01*
X148626256Y-110698744D01*
X148614723Y-110686019D01*
X148604493Y-110672225D01*
X148595664Y-110657494D01*
X148588321Y-110641970D01*
X148582535Y-110625800D01*
X148578363Y-110609141D01*
X148575843Y-110592153D01*
X148575000Y-110575000D01*
X148575000Y-110225000D01*
X148575843Y-110207847D01*
X148578363Y-110190859D01*
X148582535Y-110174200D01*
X148588321Y-110158030D01*
X148595664Y-110142506D01*
X148604493Y-110127775D01*
X148614723Y-110113981D01*
X148626256Y-110101256D01*
X148638981Y-110089723D01*
X148652775Y-110079493D01*
X148667506Y-110070664D01*
X148683030Y-110063321D01*
X148699200Y-110057535D01*
X148715859Y-110053363D01*
X148732847Y-110050843D01*
X148750000Y-110050000D01*
X149250000Y-110050000D01*
X149267153Y-110050843D01*
X149267153Y-110050843D01*
G37*
D18*
X149000000Y-110400000D03*
D10*
G36*
X147342153Y-107575843D02*
G01*
X147359141Y-107578363D01*
X147375800Y-107582535D01*
X147391970Y-107588321D01*
X147407494Y-107595664D01*
X147422225Y-107604493D01*
X147436019Y-107614723D01*
X147448744Y-107626256D01*
X147460277Y-107638981D01*
X147470507Y-107652775D01*
X147479336Y-107667506D01*
X147486679Y-107683030D01*
X147492465Y-107699200D01*
X147496637Y-107715859D01*
X147499157Y-107732847D01*
X147500000Y-107750000D01*
X147500000Y-108250000D01*
X147499157Y-108267153D01*
X147496637Y-108284141D01*
X147492465Y-108300800D01*
X147486679Y-108316970D01*
X147479336Y-108332494D01*
X147470507Y-108347225D01*
X147460277Y-108361019D01*
X147448744Y-108373744D01*
X147436019Y-108385277D01*
X147422225Y-108395507D01*
X147407494Y-108404336D01*
X147391970Y-108411679D01*
X147375800Y-108417465D01*
X147359141Y-108421637D01*
X147342153Y-108424157D01*
X147325000Y-108425000D01*
X146975000Y-108425000D01*
X146957847Y-108424157D01*
X146940859Y-108421637D01*
X146924200Y-108417465D01*
X146908030Y-108411679D01*
X146892506Y-108404336D01*
X146877775Y-108395507D01*
X146863981Y-108385277D01*
X146851256Y-108373744D01*
X146839723Y-108361019D01*
X146829493Y-108347225D01*
X146820664Y-108332494D01*
X146813321Y-108316970D01*
X146807535Y-108300800D01*
X146803363Y-108284141D01*
X146800843Y-108267153D01*
X146800000Y-108250000D01*
X146800000Y-107750000D01*
X146800843Y-107732847D01*
X146803363Y-107715859D01*
X146807535Y-107699200D01*
X146813321Y-107683030D01*
X146820664Y-107667506D01*
X146829493Y-107652775D01*
X146839723Y-107638981D01*
X146851256Y-107626256D01*
X146863981Y-107614723D01*
X146877775Y-107604493D01*
X146892506Y-107595664D01*
X146908030Y-107588321D01*
X146924200Y-107582535D01*
X146940859Y-107578363D01*
X146957847Y-107575843D01*
X146975000Y-107575000D01*
X147325000Y-107575000D01*
X147342153Y-107575843D01*
X147342153Y-107575843D01*
G37*
D18*
X147150000Y-108000000D03*
D10*
G36*
X146042153Y-107575843D02*
G01*
X146059141Y-107578363D01*
X146075800Y-107582535D01*
X146091970Y-107588321D01*
X146107494Y-107595664D01*
X146122225Y-107604493D01*
X146136019Y-107614723D01*
X146148744Y-107626256D01*
X146160277Y-107638981D01*
X146170507Y-107652775D01*
X146179336Y-107667506D01*
X146186679Y-107683030D01*
X146192465Y-107699200D01*
X146196637Y-107715859D01*
X146199157Y-107732847D01*
X146200000Y-107750000D01*
X146200000Y-108250000D01*
X146199157Y-108267153D01*
X146196637Y-108284141D01*
X146192465Y-108300800D01*
X146186679Y-108316970D01*
X146179336Y-108332494D01*
X146170507Y-108347225D01*
X146160277Y-108361019D01*
X146148744Y-108373744D01*
X146136019Y-108385277D01*
X146122225Y-108395507D01*
X146107494Y-108404336D01*
X146091970Y-108411679D01*
X146075800Y-108417465D01*
X146059141Y-108421637D01*
X146042153Y-108424157D01*
X146025000Y-108425000D01*
X145675000Y-108425000D01*
X145657847Y-108424157D01*
X145640859Y-108421637D01*
X145624200Y-108417465D01*
X145608030Y-108411679D01*
X145592506Y-108404336D01*
X145577775Y-108395507D01*
X145563981Y-108385277D01*
X145551256Y-108373744D01*
X145539723Y-108361019D01*
X145529493Y-108347225D01*
X145520664Y-108332494D01*
X145513321Y-108316970D01*
X145507535Y-108300800D01*
X145503363Y-108284141D01*
X145500843Y-108267153D01*
X145500000Y-108250000D01*
X145500000Y-107750000D01*
X145500843Y-107732847D01*
X145503363Y-107715859D01*
X145507535Y-107699200D01*
X145513321Y-107683030D01*
X145520664Y-107667506D01*
X145529493Y-107652775D01*
X145539723Y-107638981D01*
X145551256Y-107626256D01*
X145563981Y-107614723D01*
X145577775Y-107604493D01*
X145592506Y-107595664D01*
X145608030Y-107588321D01*
X145624200Y-107582535D01*
X145640859Y-107578363D01*
X145657847Y-107575843D01*
X145675000Y-107575000D01*
X146025000Y-107575000D01*
X146042153Y-107575843D01*
X146042153Y-107575843D01*
G37*
D18*
X145850000Y-108000000D03*
D10*
G36*
X144567153Y-99500843D02*
G01*
X144584141Y-99503363D01*
X144600800Y-99507535D01*
X144616970Y-99513321D01*
X144632494Y-99520664D01*
X144647225Y-99529493D01*
X144661019Y-99539723D01*
X144673744Y-99551256D01*
X144685277Y-99563981D01*
X144695507Y-99577775D01*
X144704336Y-99592506D01*
X144711679Y-99608030D01*
X144717465Y-99624200D01*
X144721637Y-99640859D01*
X144724157Y-99657847D01*
X144725000Y-99675000D01*
X144725000Y-100025000D01*
X144724157Y-100042153D01*
X144721637Y-100059141D01*
X144717465Y-100075800D01*
X144711679Y-100091970D01*
X144704336Y-100107494D01*
X144695507Y-100122225D01*
X144685277Y-100136019D01*
X144673744Y-100148744D01*
X144661019Y-100160277D01*
X144647225Y-100170507D01*
X144632494Y-100179336D01*
X144616970Y-100186679D01*
X144600800Y-100192465D01*
X144584141Y-100196637D01*
X144567153Y-100199157D01*
X144550000Y-100200000D01*
X144050000Y-100200000D01*
X144032847Y-100199157D01*
X144015859Y-100196637D01*
X143999200Y-100192465D01*
X143983030Y-100186679D01*
X143967506Y-100179336D01*
X143952775Y-100170507D01*
X143938981Y-100160277D01*
X143926256Y-100148744D01*
X143914723Y-100136019D01*
X143904493Y-100122225D01*
X143895664Y-100107494D01*
X143888321Y-100091970D01*
X143882535Y-100075800D01*
X143878363Y-100059141D01*
X143875843Y-100042153D01*
X143875000Y-100025000D01*
X143875000Y-99675000D01*
X143875843Y-99657847D01*
X143878363Y-99640859D01*
X143882535Y-99624200D01*
X143888321Y-99608030D01*
X143895664Y-99592506D01*
X143904493Y-99577775D01*
X143914723Y-99563981D01*
X143926256Y-99551256D01*
X143938981Y-99539723D01*
X143952775Y-99529493D01*
X143967506Y-99520664D01*
X143983030Y-99513321D01*
X143999200Y-99507535D01*
X144015859Y-99503363D01*
X144032847Y-99500843D01*
X144050000Y-99500000D01*
X144550000Y-99500000D01*
X144567153Y-99500843D01*
X144567153Y-99500843D01*
G37*
D18*
X144300000Y-99850000D03*
D10*
G36*
X144567153Y-100800843D02*
G01*
X144584141Y-100803363D01*
X144600800Y-100807535D01*
X144616970Y-100813321D01*
X144632494Y-100820664D01*
X144647225Y-100829493D01*
X144661019Y-100839723D01*
X144673744Y-100851256D01*
X144685277Y-100863981D01*
X144695507Y-100877775D01*
X144704336Y-100892506D01*
X144711679Y-100908030D01*
X144717465Y-100924200D01*
X144721637Y-100940859D01*
X144724157Y-100957847D01*
X144725000Y-100975000D01*
X144725000Y-101325000D01*
X144724157Y-101342153D01*
X144721637Y-101359141D01*
X144717465Y-101375800D01*
X144711679Y-101391970D01*
X144704336Y-101407494D01*
X144695507Y-101422225D01*
X144685277Y-101436019D01*
X144673744Y-101448744D01*
X144661019Y-101460277D01*
X144647225Y-101470507D01*
X144632494Y-101479336D01*
X144616970Y-101486679D01*
X144600800Y-101492465D01*
X144584141Y-101496637D01*
X144567153Y-101499157D01*
X144550000Y-101500000D01*
X144050000Y-101500000D01*
X144032847Y-101499157D01*
X144015859Y-101496637D01*
X143999200Y-101492465D01*
X143983030Y-101486679D01*
X143967506Y-101479336D01*
X143952775Y-101470507D01*
X143938981Y-101460277D01*
X143926256Y-101448744D01*
X143914723Y-101436019D01*
X143904493Y-101422225D01*
X143895664Y-101407494D01*
X143888321Y-101391970D01*
X143882535Y-101375800D01*
X143878363Y-101359141D01*
X143875843Y-101342153D01*
X143875000Y-101325000D01*
X143875000Y-100975000D01*
X143875843Y-100957847D01*
X143878363Y-100940859D01*
X143882535Y-100924200D01*
X143888321Y-100908030D01*
X143895664Y-100892506D01*
X143904493Y-100877775D01*
X143914723Y-100863981D01*
X143926256Y-100851256D01*
X143938981Y-100839723D01*
X143952775Y-100829493D01*
X143967506Y-100820664D01*
X143983030Y-100813321D01*
X143999200Y-100807535D01*
X144015859Y-100803363D01*
X144032847Y-100800843D01*
X144050000Y-100800000D01*
X144550000Y-100800000D01*
X144567153Y-100800843D01*
X144567153Y-100800843D01*
G37*
D18*
X144300000Y-101150000D03*
D10*
G36*
X144567153Y-110300843D02*
G01*
X144584141Y-110303363D01*
X144600800Y-110307535D01*
X144616970Y-110313321D01*
X144632494Y-110320664D01*
X144647225Y-110329493D01*
X144661019Y-110339723D01*
X144673744Y-110351256D01*
X144685277Y-110363981D01*
X144695507Y-110377775D01*
X144704336Y-110392506D01*
X144711679Y-110408030D01*
X144717465Y-110424200D01*
X144721637Y-110440859D01*
X144724157Y-110457847D01*
X144725000Y-110475000D01*
X144725000Y-110825000D01*
X144724157Y-110842153D01*
X144721637Y-110859141D01*
X144717465Y-110875800D01*
X144711679Y-110891970D01*
X144704336Y-110907494D01*
X144695507Y-110922225D01*
X144685277Y-110936019D01*
X144673744Y-110948744D01*
X144661019Y-110960277D01*
X144647225Y-110970507D01*
X144632494Y-110979336D01*
X144616970Y-110986679D01*
X144600800Y-110992465D01*
X144584141Y-110996637D01*
X144567153Y-110999157D01*
X144550000Y-111000000D01*
X144050000Y-111000000D01*
X144032847Y-110999157D01*
X144015859Y-110996637D01*
X143999200Y-110992465D01*
X143983030Y-110986679D01*
X143967506Y-110979336D01*
X143952775Y-110970507D01*
X143938981Y-110960277D01*
X143926256Y-110948744D01*
X143914723Y-110936019D01*
X143904493Y-110922225D01*
X143895664Y-110907494D01*
X143888321Y-110891970D01*
X143882535Y-110875800D01*
X143878363Y-110859141D01*
X143875843Y-110842153D01*
X143875000Y-110825000D01*
X143875000Y-110475000D01*
X143875843Y-110457847D01*
X143878363Y-110440859D01*
X143882535Y-110424200D01*
X143888321Y-110408030D01*
X143895664Y-110392506D01*
X143904493Y-110377775D01*
X143914723Y-110363981D01*
X143926256Y-110351256D01*
X143938981Y-110339723D01*
X143952775Y-110329493D01*
X143967506Y-110320664D01*
X143983030Y-110313321D01*
X143999200Y-110307535D01*
X144015859Y-110303363D01*
X144032847Y-110300843D01*
X144050000Y-110300000D01*
X144550000Y-110300000D01*
X144567153Y-110300843D01*
X144567153Y-110300843D01*
G37*
D18*
X144300000Y-110650000D03*
D10*
G36*
X144567153Y-109000843D02*
G01*
X144584141Y-109003363D01*
X144600800Y-109007535D01*
X144616970Y-109013321D01*
X144632494Y-109020664D01*
X144647225Y-109029493D01*
X144661019Y-109039723D01*
X144673744Y-109051256D01*
X144685277Y-109063981D01*
X144695507Y-109077775D01*
X144704336Y-109092506D01*
X144711679Y-109108030D01*
X144717465Y-109124200D01*
X144721637Y-109140859D01*
X144724157Y-109157847D01*
X144725000Y-109175000D01*
X144725000Y-109525000D01*
X144724157Y-109542153D01*
X144721637Y-109559141D01*
X144717465Y-109575800D01*
X144711679Y-109591970D01*
X144704336Y-109607494D01*
X144695507Y-109622225D01*
X144685277Y-109636019D01*
X144673744Y-109648744D01*
X144661019Y-109660277D01*
X144647225Y-109670507D01*
X144632494Y-109679336D01*
X144616970Y-109686679D01*
X144600800Y-109692465D01*
X144584141Y-109696637D01*
X144567153Y-109699157D01*
X144550000Y-109700000D01*
X144050000Y-109700000D01*
X144032847Y-109699157D01*
X144015859Y-109696637D01*
X143999200Y-109692465D01*
X143983030Y-109686679D01*
X143967506Y-109679336D01*
X143952775Y-109670507D01*
X143938981Y-109660277D01*
X143926256Y-109648744D01*
X143914723Y-109636019D01*
X143904493Y-109622225D01*
X143895664Y-109607494D01*
X143888321Y-109591970D01*
X143882535Y-109575800D01*
X143878363Y-109559141D01*
X143875843Y-109542153D01*
X143875000Y-109525000D01*
X143875000Y-109175000D01*
X143875843Y-109157847D01*
X143878363Y-109140859D01*
X143882535Y-109124200D01*
X143888321Y-109108030D01*
X143895664Y-109092506D01*
X143904493Y-109077775D01*
X143914723Y-109063981D01*
X143926256Y-109051256D01*
X143938981Y-109039723D01*
X143952775Y-109029493D01*
X143967506Y-109020664D01*
X143983030Y-109013321D01*
X143999200Y-109007535D01*
X144015859Y-109003363D01*
X144032847Y-109000843D01*
X144050000Y-109000000D01*
X144550000Y-109000000D01*
X144567153Y-109000843D01*
X144567153Y-109000843D01*
G37*
D18*
X144300000Y-109350000D03*
D19*
X152700000Y-100800000D03*
X151300000Y-100800000D03*
D10*
G36*
X148542153Y-100575843D02*
G01*
X148559141Y-100578363D01*
X148575800Y-100582535D01*
X148591970Y-100588321D01*
X148607494Y-100595664D01*
X148622225Y-100604493D01*
X148636019Y-100614723D01*
X148648744Y-100626256D01*
X148660277Y-100638981D01*
X148670507Y-100652775D01*
X148679336Y-100667506D01*
X148686679Y-100683030D01*
X148692465Y-100699200D01*
X148696637Y-100715859D01*
X148699157Y-100732847D01*
X148700000Y-100750000D01*
X148700000Y-101250000D01*
X148699157Y-101267153D01*
X148696637Y-101284141D01*
X148692465Y-101300800D01*
X148686679Y-101316970D01*
X148679336Y-101332494D01*
X148670507Y-101347225D01*
X148660277Y-101361019D01*
X148648744Y-101373744D01*
X148636019Y-101385277D01*
X148622225Y-101395507D01*
X148607494Y-101404336D01*
X148591970Y-101411679D01*
X148575800Y-101417465D01*
X148559141Y-101421637D01*
X148542153Y-101424157D01*
X148525000Y-101425000D01*
X148175000Y-101425000D01*
X148157847Y-101424157D01*
X148140859Y-101421637D01*
X148124200Y-101417465D01*
X148108030Y-101411679D01*
X148092506Y-101404336D01*
X148077775Y-101395507D01*
X148063981Y-101385277D01*
X148051256Y-101373744D01*
X148039723Y-101361019D01*
X148029493Y-101347225D01*
X148020664Y-101332494D01*
X148013321Y-101316970D01*
X148007535Y-101300800D01*
X148003363Y-101284141D01*
X148000843Y-101267153D01*
X148000000Y-101250000D01*
X148000000Y-100750000D01*
X148000843Y-100732847D01*
X148003363Y-100715859D01*
X148007535Y-100699200D01*
X148013321Y-100683030D01*
X148020664Y-100667506D01*
X148029493Y-100652775D01*
X148039723Y-100638981D01*
X148051256Y-100626256D01*
X148063981Y-100614723D01*
X148077775Y-100604493D01*
X148092506Y-100595664D01*
X148108030Y-100588321D01*
X148124200Y-100582535D01*
X148140859Y-100578363D01*
X148157847Y-100575843D01*
X148175000Y-100575000D01*
X148525000Y-100575000D01*
X148542153Y-100575843D01*
X148542153Y-100575843D01*
G37*
D18*
X148350000Y-101000000D03*
D10*
G36*
X149842153Y-100575843D02*
G01*
X149859141Y-100578363D01*
X149875800Y-100582535D01*
X149891970Y-100588321D01*
X149907494Y-100595664D01*
X149922225Y-100604493D01*
X149936019Y-100614723D01*
X149948744Y-100626256D01*
X149960277Y-100638981D01*
X149970507Y-100652775D01*
X149979336Y-100667506D01*
X149986679Y-100683030D01*
X149992465Y-100699200D01*
X149996637Y-100715859D01*
X149999157Y-100732847D01*
X150000000Y-100750000D01*
X150000000Y-101250000D01*
X149999157Y-101267153D01*
X149996637Y-101284141D01*
X149992465Y-101300800D01*
X149986679Y-101316970D01*
X149979336Y-101332494D01*
X149970507Y-101347225D01*
X149960277Y-101361019D01*
X149948744Y-101373744D01*
X149936019Y-101385277D01*
X149922225Y-101395507D01*
X149907494Y-101404336D01*
X149891970Y-101411679D01*
X149875800Y-101417465D01*
X149859141Y-101421637D01*
X149842153Y-101424157D01*
X149825000Y-101425000D01*
X149475000Y-101425000D01*
X149457847Y-101424157D01*
X149440859Y-101421637D01*
X149424200Y-101417465D01*
X149408030Y-101411679D01*
X149392506Y-101404336D01*
X149377775Y-101395507D01*
X149363981Y-101385277D01*
X149351256Y-101373744D01*
X149339723Y-101361019D01*
X149329493Y-101347225D01*
X149320664Y-101332494D01*
X149313321Y-101316970D01*
X149307535Y-101300800D01*
X149303363Y-101284141D01*
X149300843Y-101267153D01*
X149300000Y-101250000D01*
X149300000Y-100750000D01*
X149300843Y-100732847D01*
X149303363Y-100715859D01*
X149307535Y-100699200D01*
X149313321Y-100683030D01*
X149320664Y-100667506D01*
X149329493Y-100652775D01*
X149339723Y-100638981D01*
X149351256Y-100626256D01*
X149363981Y-100614723D01*
X149377775Y-100604493D01*
X149392506Y-100595664D01*
X149408030Y-100588321D01*
X149424200Y-100582535D01*
X149440859Y-100578363D01*
X149457847Y-100575843D01*
X149475000Y-100575000D01*
X149825000Y-100575000D01*
X149842153Y-100575843D01*
X149842153Y-100575843D01*
G37*
D18*
X149650000Y-101000000D03*
D10*
G36*
X147342153Y-100575843D02*
G01*
X147359141Y-100578363D01*
X147375800Y-100582535D01*
X147391970Y-100588321D01*
X147407494Y-100595664D01*
X147422225Y-100604493D01*
X147436019Y-100614723D01*
X147448744Y-100626256D01*
X147460277Y-100638981D01*
X147470507Y-100652775D01*
X147479336Y-100667506D01*
X147486679Y-100683030D01*
X147492465Y-100699200D01*
X147496637Y-100715859D01*
X147499157Y-100732847D01*
X147500000Y-100750000D01*
X147500000Y-101250000D01*
X147499157Y-101267153D01*
X147496637Y-101284141D01*
X147492465Y-101300800D01*
X147486679Y-101316970D01*
X147479336Y-101332494D01*
X147470507Y-101347225D01*
X147460277Y-101361019D01*
X147448744Y-101373744D01*
X147436019Y-101385277D01*
X147422225Y-101395507D01*
X147407494Y-101404336D01*
X147391970Y-101411679D01*
X147375800Y-101417465D01*
X147359141Y-101421637D01*
X147342153Y-101424157D01*
X147325000Y-101425000D01*
X146975000Y-101425000D01*
X146957847Y-101424157D01*
X146940859Y-101421637D01*
X146924200Y-101417465D01*
X146908030Y-101411679D01*
X146892506Y-101404336D01*
X146877775Y-101395507D01*
X146863981Y-101385277D01*
X146851256Y-101373744D01*
X146839723Y-101361019D01*
X146829493Y-101347225D01*
X146820664Y-101332494D01*
X146813321Y-101316970D01*
X146807535Y-101300800D01*
X146803363Y-101284141D01*
X146800843Y-101267153D01*
X146800000Y-101250000D01*
X146800000Y-100750000D01*
X146800843Y-100732847D01*
X146803363Y-100715859D01*
X146807535Y-100699200D01*
X146813321Y-100683030D01*
X146820664Y-100667506D01*
X146829493Y-100652775D01*
X146839723Y-100638981D01*
X146851256Y-100626256D01*
X146863981Y-100614723D01*
X146877775Y-100604493D01*
X146892506Y-100595664D01*
X146908030Y-100588321D01*
X146924200Y-100582535D01*
X146940859Y-100578363D01*
X146957847Y-100575843D01*
X146975000Y-100575000D01*
X147325000Y-100575000D01*
X147342153Y-100575843D01*
X147342153Y-100575843D01*
G37*
D18*
X147150000Y-101000000D03*
D10*
G36*
X146042153Y-100575843D02*
G01*
X146059141Y-100578363D01*
X146075800Y-100582535D01*
X146091970Y-100588321D01*
X146107494Y-100595664D01*
X146122225Y-100604493D01*
X146136019Y-100614723D01*
X146148744Y-100626256D01*
X146160277Y-100638981D01*
X146170507Y-100652775D01*
X146179336Y-100667506D01*
X146186679Y-100683030D01*
X146192465Y-100699200D01*
X146196637Y-100715859D01*
X146199157Y-100732847D01*
X146200000Y-100750000D01*
X146200000Y-101250000D01*
X146199157Y-101267153D01*
X146196637Y-101284141D01*
X146192465Y-101300800D01*
X146186679Y-101316970D01*
X146179336Y-101332494D01*
X146170507Y-101347225D01*
X146160277Y-101361019D01*
X146148744Y-101373744D01*
X146136019Y-101385277D01*
X146122225Y-101395507D01*
X146107494Y-101404336D01*
X146091970Y-101411679D01*
X146075800Y-101417465D01*
X146059141Y-101421637D01*
X146042153Y-101424157D01*
X146025000Y-101425000D01*
X145675000Y-101425000D01*
X145657847Y-101424157D01*
X145640859Y-101421637D01*
X145624200Y-101417465D01*
X145608030Y-101411679D01*
X145592506Y-101404336D01*
X145577775Y-101395507D01*
X145563981Y-101385277D01*
X145551256Y-101373744D01*
X145539723Y-101361019D01*
X145529493Y-101347225D01*
X145520664Y-101332494D01*
X145513321Y-101316970D01*
X145507535Y-101300800D01*
X145503363Y-101284141D01*
X145500843Y-101267153D01*
X145500000Y-101250000D01*
X145500000Y-100750000D01*
X145500843Y-100732847D01*
X145503363Y-100715859D01*
X145507535Y-100699200D01*
X145513321Y-100683030D01*
X145520664Y-100667506D01*
X145529493Y-100652775D01*
X145539723Y-100638981D01*
X145551256Y-100626256D01*
X145563981Y-100614723D01*
X145577775Y-100604493D01*
X145592506Y-100595664D01*
X145608030Y-100588321D01*
X145624200Y-100582535D01*
X145640859Y-100578363D01*
X145657847Y-100575843D01*
X145675000Y-100575000D01*
X146025000Y-100575000D01*
X146042153Y-100575843D01*
X146042153Y-100575843D01*
G37*
D18*
X145850000Y-101000000D03*
D10*
G36*
X147342153Y-99075843D02*
G01*
X147359141Y-99078363D01*
X147375800Y-99082535D01*
X147391970Y-99088321D01*
X147407494Y-99095664D01*
X147422225Y-99104493D01*
X147436019Y-99114723D01*
X147448744Y-99126256D01*
X147460277Y-99138981D01*
X147470507Y-99152775D01*
X147479336Y-99167506D01*
X147486679Y-99183030D01*
X147492465Y-99199200D01*
X147496637Y-99215859D01*
X147499157Y-99232847D01*
X147500000Y-99250000D01*
X147500000Y-99750000D01*
X147499157Y-99767153D01*
X147496637Y-99784141D01*
X147492465Y-99800800D01*
X147486679Y-99816970D01*
X147479336Y-99832494D01*
X147470507Y-99847225D01*
X147460277Y-99861019D01*
X147448744Y-99873744D01*
X147436019Y-99885277D01*
X147422225Y-99895507D01*
X147407494Y-99904336D01*
X147391970Y-99911679D01*
X147375800Y-99917465D01*
X147359141Y-99921637D01*
X147342153Y-99924157D01*
X147325000Y-99925000D01*
X146975000Y-99925000D01*
X146957847Y-99924157D01*
X146940859Y-99921637D01*
X146924200Y-99917465D01*
X146908030Y-99911679D01*
X146892506Y-99904336D01*
X146877775Y-99895507D01*
X146863981Y-99885277D01*
X146851256Y-99873744D01*
X146839723Y-99861019D01*
X146829493Y-99847225D01*
X146820664Y-99832494D01*
X146813321Y-99816970D01*
X146807535Y-99800800D01*
X146803363Y-99784141D01*
X146800843Y-99767153D01*
X146800000Y-99750000D01*
X146800000Y-99250000D01*
X146800843Y-99232847D01*
X146803363Y-99215859D01*
X146807535Y-99199200D01*
X146813321Y-99183030D01*
X146820664Y-99167506D01*
X146829493Y-99152775D01*
X146839723Y-99138981D01*
X146851256Y-99126256D01*
X146863981Y-99114723D01*
X146877775Y-99104493D01*
X146892506Y-99095664D01*
X146908030Y-99088321D01*
X146924200Y-99082535D01*
X146940859Y-99078363D01*
X146957847Y-99075843D01*
X146975000Y-99075000D01*
X147325000Y-99075000D01*
X147342153Y-99075843D01*
X147342153Y-99075843D01*
G37*
D18*
X147150000Y-99500000D03*
D10*
G36*
X146042153Y-99075843D02*
G01*
X146059141Y-99078363D01*
X146075800Y-99082535D01*
X146091970Y-99088321D01*
X146107494Y-99095664D01*
X146122225Y-99104493D01*
X146136019Y-99114723D01*
X146148744Y-99126256D01*
X146160277Y-99138981D01*
X146170507Y-99152775D01*
X146179336Y-99167506D01*
X146186679Y-99183030D01*
X146192465Y-99199200D01*
X146196637Y-99215859D01*
X146199157Y-99232847D01*
X146200000Y-99250000D01*
X146200000Y-99750000D01*
X146199157Y-99767153D01*
X146196637Y-99784141D01*
X146192465Y-99800800D01*
X146186679Y-99816970D01*
X146179336Y-99832494D01*
X146170507Y-99847225D01*
X146160277Y-99861019D01*
X146148744Y-99873744D01*
X146136019Y-99885277D01*
X146122225Y-99895507D01*
X146107494Y-99904336D01*
X146091970Y-99911679D01*
X146075800Y-99917465D01*
X146059141Y-99921637D01*
X146042153Y-99924157D01*
X146025000Y-99925000D01*
X145675000Y-99925000D01*
X145657847Y-99924157D01*
X145640859Y-99921637D01*
X145624200Y-99917465D01*
X145608030Y-99911679D01*
X145592506Y-99904336D01*
X145577775Y-99895507D01*
X145563981Y-99885277D01*
X145551256Y-99873744D01*
X145539723Y-99861019D01*
X145529493Y-99847225D01*
X145520664Y-99832494D01*
X145513321Y-99816970D01*
X145507535Y-99800800D01*
X145503363Y-99784141D01*
X145500843Y-99767153D01*
X145500000Y-99750000D01*
X145500000Y-99250000D01*
X145500843Y-99232847D01*
X145503363Y-99215859D01*
X145507535Y-99199200D01*
X145513321Y-99183030D01*
X145520664Y-99167506D01*
X145529493Y-99152775D01*
X145539723Y-99138981D01*
X145551256Y-99126256D01*
X145563981Y-99114723D01*
X145577775Y-99104493D01*
X145592506Y-99095664D01*
X145608030Y-99088321D01*
X145624200Y-99082535D01*
X145640859Y-99078363D01*
X145657847Y-99075843D01*
X145675000Y-99075000D01*
X146025000Y-99075000D01*
X146042153Y-99075843D01*
X146042153Y-99075843D01*
G37*
D18*
X145850000Y-99500000D03*
D10*
G36*
X149842153Y-107575843D02*
G01*
X149859141Y-107578363D01*
X149875800Y-107582535D01*
X149891970Y-107588321D01*
X149907494Y-107595664D01*
X149922225Y-107604493D01*
X149936019Y-107614723D01*
X149948744Y-107626256D01*
X149960277Y-107638981D01*
X149970507Y-107652775D01*
X149979336Y-107667506D01*
X149986679Y-107683030D01*
X149992465Y-107699200D01*
X149996637Y-107715859D01*
X149999157Y-107732847D01*
X150000000Y-107750000D01*
X150000000Y-108250000D01*
X149999157Y-108267153D01*
X149996637Y-108284141D01*
X149992465Y-108300800D01*
X149986679Y-108316970D01*
X149979336Y-108332494D01*
X149970507Y-108347225D01*
X149960277Y-108361019D01*
X149948744Y-108373744D01*
X149936019Y-108385277D01*
X149922225Y-108395507D01*
X149907494Y-108404336D01*
X149891970Y-108411679D01*
X149875800Y-108417465D01*
X149859141Y-108421637D01*
X149842153Y-108424157D01*
X149825000Y-108425000D01*
X149475000Y-108425000D01*
X149457847Y-108424157D01*
X149440859Y-108421637D01*
X149424200Y-108417465D01*
X149408030Y-108411679D01*
X149392506Y-108404336D01*
X149377775Y-108395507D01*
X149363981Y-108385277D01*
X149351256Y-108373744D01*
X149339723Y-108361019D01*
X149329493Y-108347225D01*
X149320664Y-108332494D01*
X149313321Y-108316970D01*
X149307535Y-108300800D01*
X149303363Y-108284141D01*
X149300843Y-108267153D01*
X149300000Y-108250000D01*
X149300000Y-107750000D01*
X149300843Y-107732847D01*
X149303363Y-107715859D01*
X149307535Y-107699200D01*
X149313321Y-107683030D01*
X149320664Y-107667506D01*
X149329493Y-107652775D01*
X149339723Y-107638981D01*
X149351256Y-107626256D01*
X149363981Y-107614723D01*
X149377775Y-107604493D01*
X149392506Y-107595664D01*
X149408030Y-107588321D01*
X149424200Y-107582535D01*
X149440859Y-107578363D01*
X149457847Y-107575843D01*
X149475000Y-107575000D01*
X149825000Y-107575000D01*
X149842153Y-107575843D01*
X149842153Y-107575843D01*
G37*
D18*
X149650000Y-108000000D03*
D10*
G36*
X148542153Y-107575843D02*
G01*
X148559141Y-107578363D01*
X148575800Y-107582535D01*
X148591970Y-107588321D01*
X148607494Y-107595664D01*
X148622225Y-107604493D01*
X148636019Y-107614723D01*
X148648744Y-107626256D01*
X148660277Y-107638981D01*
X148670507Y-107652775D01*
X148679336Y-107667506D01*
X148686679Y-107683030D01*
X148692465Y-107699200D01*
X148696637Y-107715859D01*
X148699157Y-107732847D01*
X148700000Y-107750000D01*
X148700000Y-108250000D01*
X148699157Y-108267153D01*
X148696637Y-108284141D01*
X148692465Y-108300800D01*
X148686679Y-108316970D01*
X148679336Y-108332494D01*
X148670507Y-108347225D01*
X148660277Y-108361019D01*
X148648744Y-108373744D01*
X148636019Y-108385277D01*
X148622225Y-108395507D01*
X148607494Y-108404336D01*
X148591970Y-108411679D01*
X148575800Y-108417465D01*
X148559141Y-108421637D01*
X148542153Y-108424157D01*
X148525000Y-108425000D01*
X148175000Y-108425000D01*
X148157847Y-108424157D01*
X148140859Y-108421637D01*
X148124200Y-108417465D01*
X148108030Y-108411679D01*
X148092506Y-108404336D01*
X148077775Y-108395507D01*
X148063981Y-108385277D01*
X148051256Y-108373744D01*
X148039723Y-108361019D01*
X148029493Y-108347225D01*
X148020664Y-108332494D01*
X148013321Y-108316970D01*
X148007535Y-108300800D01*
X148003363Y-108284141D01*
X148000843Y-108267153D01*
X148000000Y-108250000D01*
X148000000Y-107750000D01*
X148000843Y-107732847D01*
X148003363Y-107715859D01*
X148007535Y-107699200D01*
X148013321Y-107683030D01*
X148020664Y-107667506D01*
X148029493Y-107652775D01*
X148039723Y-107638981D01*
X148051256Y-107626256D01*
X148063981Y-107614723D01*
X148077775Y-107604493D01*
X148092506Y-107595664D01*
X148108030Y-107588321D01*
X148124200Y-107582535D01*
X148140859Y-107578363D01*
X148157847Y-107575843D01*
X148175000Y-107575000D01*
X148525000Y-107575000D01*
X148542153Y-107575843D01*
X148542153Y-107575843D01*
G37*
D18*
X148350000Y-108000000D03*
D20*
X148200000Y-106200000D03*
X144600000Y-102600000D03*
X144200000Y-107300000D03*
X144800000Y-99000000D03*
X149200000Y-98100000D03*
X145600000Y-111500000D03*
X150000000Y-109100000D03*
X146500000Y-109000000D03*
X144900000Y-106400000D03*
X148500000Y-102000000D03*
X148700000Y-107200000D03*
X151300000Y-100800000D03*
X153500000Y-108000000D03*
X148900002Y-99800002D03*
X151250000Y-107688909D03*
X150438909Y-105561091D03*
X152700000Y-100800000D03*
X148200000Y-110000000D03*
X144800000Y-108500000D03*
X146700000Y-110700000D03*
D21*
X144550000Y-103525000D02*
X145525000Y-103525000D01*
X145525000Y-103525000D02*
X146500000Y-104500000D01*
X146825000Y-106450000D02*
X146825000Y-104825000D01*
X146825000Y-104825000D02*
X146500000Y-104500000D01*
X146500000Y-104500000D02*
X147925010Y-105925010D01*
X147925010Y-105925010D02*
X148200000Y-106200000D01*
X148200000Y-106200000D02*
X148200000Y-106200000D01*
X147420000Y-112992000D02*
X146008000Y-112992000D01*
X146008000Y-112992000D02*
X146016000Y-113000000D01*
X145516000Y-113000000D02*
X148000000Y-113000000D01*
X141508000Y-112080000D02*
X141508000Y-111008000D01*
X141508000Y-104080000D02*
X141508000Y-103008000D01*
X141508000Y-105030000D02*
X141500000Y-105038000D01*
X141508000Y-104080000D02*
X141508000Y-105030000D01*
X141500000Y-105038000D02*
X141500000Y-105400000D01*
X155000000Y-110500000D02*
X155000000Y-102400000D01*
D22*
X147475000Y-101925000D02*
X147475000Y-102550000D01*
X148350000Y-101000000D02*
X148350000Y-101050000D01*
X148350000Y-101050000D02*
X147475000Y-101925000D01*
X148450000Y-103150000D02*
X148450000Y-103525000D01*
X147475000Y-102550000D02*
X147850000Y-102550000D01*
X147850000Y-102550000D02*
X148450000Y-103150000D01*
X145525000Y-106450000D02*
X144950000Y-106450000D01*
X144950000Y-106450000D02*
X144900000Y-106400000D01*
X148350000Y-101000000D02*
X148350000Y-101850000D01*
X148350000Y-101850000D02*
X148500000Y-102000000D01*
X148700000Y-107650000D02*
X148700000Y-107200000D01*
X148350000Y-108000000D02*
X148700000Y-107650000D01*
D21*
X148350000Y-108150000D02*
X148350000Y-108000000D01*
X147450000Y-109350000D02*
X147450000Y-109050000D01*
X147450000Y-109050000D02*
X148350000Y-108150000D01*
X146825000Y-101325000D02*
X147150000Y-101000000D01*
X146825000Y-102550000D02*
X146825000Y-101325000D01*
D22*
X147150000Y-101000000D02*
X147150000Y-99500000D01*
D23*
X153075000Y-108300000D02*
X153400000Y-108625000D01*
X152300000Y-108300000D02*
X153075000Y-108300000D01*
X153400000Y-108625000D02*
X153400000Y-111772000D01*
X154620000Y-112992000D02*
X154620000Y-113074990D01*
X153400000Y-111772000D02*
X154620000Y-112992000D01*
D24*
X153500000Y-108525000D02*
X153400000Y-108625000D01*
X153500000Y-108000000D02*
X153500000Y-108525000D01*
D23*
X147150000Y-99500000D02*
X148600000Y-99500000D01*
X148600000Y-99500000D02*
X148700001Y-99600001D01*
X148700001Y-99600001D02*
X148900002Y-99800002D01*
D25*
X147170001Y-98070001D02*
X148900002Y-99800002D01*
X142000000Y-98920000D02*
X142849999Y-98070001D01*
X142849999Y-98070001D02*
X147170001Y-98070001D01*
D21*
X143150000Y-109500000D02*
X142000000Y-109500000D01*
X144300000Y-110650000D02*
X143150000Y-109500000D01*
X143610000Y-99850000D02*
X144300000Y-99850000D01*
X142000000Y-101460000D02*
X143610000Y-99850000D01*
X151525000Y-107650000D02*
X152300000Y-107650000D01*
X151287500Y-107887500D02*
X151525000Y-107650000D01*
X151287500Y-107887500D02*
X151287500Y-107726409D01*
X151287500Y-107726409D02*
X151250000Y-107688909D01*
X149052818Y-104175000D02*
X148450000Y-104175000D01*
X150438909Y-105561091D02*
X149052818Y-104175000D01*
X151100000Y-111800000D02*
X151100000Y-108075000D01*
X151100000Y-108075000D02*
X151287500Y-107887500D01*
X152080000Y-112992000D02*
X152080000Y-112780000D01*
X152080000Y-112780000D02*
X151100000Y-111800000D01*
X151525000Y-107000000D02*
X152300000Y-107000000D01*
X151100000Y-107000000D02*
X151525000Y-107000000D01*
X149540000Y-112992000D02*
X150700000Y-111832000D01*
X150700000Y-107400000D02*
X151100000Y-107000000D01*
X150700000Y-111832000D02*
X150700000Y-107400000D01*
X148925000Y-104825000D02*
X151100000Y-107000000D01*
X148450000Y-104825000D02*
X148925000Y-104825000D01*
X148350000Y-110000000D02*
X149000000Y-110650000D01*
X145550000Y-110000000D02*
X148350000Y-110000000D01*
X145550000Y-108300000D02*
X145850000Y-108000000D01*
X145550000Y-109350000D02*
X145550000Y-108300000D01*
X145550000Y-109350000D02*
X144300000Y-109350000D01*
X143800000Y-101650000D02*
X144300000Y-101150000D01*
X143800000Y-104600000D02*
X143800000Y-101650000D01*
X144550000Y-104825000D02*
X144025000Y-104825000D01*
X144025000Y-104825000D02*
X143800000Y-104600000D01*
X145478242Y-107274990D02*
X144800000Y-107953232D01*
X145875010Y-107274990D02*
X145478242Y-107274990D01*
X146175000Y-106450000D02*
X146175000Y-106975000D01*
X146175000Y-106975000D02*
X145875010Y-107274990D01*
X144800000Y-107953232D02*
X144800000Y-108500000D01*
X146750000Y-110650000D02*
X147450000Y-110650000D01*
X146700000Y-110700000D02*
X146750000Y-110650000D01*
G36*
X156175000Y-98134619D02*
G01*
X156175001Y-112865380D01*
X155865382Y-113175000D01*
X155771451Y-113175000D01*
X155771451Y-112417000D01*
X155757492Y-112275276D01*
X155716153Y-112138999D01*
X155649022Y-112013405D01*
X155558678Y-111903322D01*
X155448595Y-111812978D01*
X155323001Y-111745847D01*
X155186724Y-111704508D01*
X155045000Y-111690549D01*
X154195000Y-111690549D01*
X154053276Y-111704508D01*
X154042793Y-111707688D01*
X153900000Y-111564895D01*
X153900000Y-110686928D01*
X153933983Y-110801528D01*
X154007047Y-110940299D01*
X154105780Y-111062150D01*
X154226387Y-111162398D01*
X154364234Y-111237190D01*
X154514024Y-111283653D01*
X154670000Y-111300000D01*
X154995000Y-111300000D01*
X154995000Y-109025000D01*
X154970000Y-109000000D01*
X154995000Y-108975000D01*
X154995000Y-108005000D01*
X155005000Y-108005000D01*
X155005000Y-108975000D01*
X155030000Y-109000000D01*
X155005000Y-109025000D01*
X155005000Y-111300000D01*
X155330000Y-111300000D01*
X155485976Y-111283653D01*
X155635766Y-111237190D01*
X155773613Y-111162398D01*
X155894220Y-111062150D01*
X155992953Y-110940299D01*
X156066017Y-110801528D01*
X156110604Y-110651169D01*
X156114353Y-110630084D01*
X156050925Y-110506831D01*
X156050896Y-110493227D01*
X156114353Y-110369916D01*
X156110604Y-110348831D01*
X156066017Y-110198472D01*
X156050192Y-110168415D01*
X156050000Y-110080000D01*
X155975000Y-110005000D01*
X155948630Y-110005000D01*
X155940527Y-109995000D01*
X155975000Y-109995000D01*
X156050000Y-109920000D01*
X156051452Y-109250000D01*
X156045660Y-109191190D01*
X156028505Y-109134639D01*
X156000648Y-109082522D01*
X155963159Y-109036841D01*
X155918268Y-109000000D01*
X155963159Y-108963159D01*
X156000648Y-108917478D01*
X156028505Y-108865361D01*
X156045660Y-108808810D01*
X156051452Y-108750000D01*
X156050000Y-108080000D01*
X155975000Y-108005000D01*
X155005000Y-108005000D01*
X154995000Y-108005000D01*
X154975000Y-108005000D01*
X154975000Y-107995000D01*
X154995000Y-107995000D01*
X154995000Y-107025000D01*
X154970000Y-107000000D01*
X154995000Y-106975000D01*
X154995000Y-106005000D01*
X155005000Y-106005000D01*
X155005000Y-106975000D01*
X155030000Y-107000000D01*
X155005000Y-107025000D01*
X155005000Y-107995000D01*
X155975000Y-107995000D01*
X156050000Y-107920000D01*
X156051452Y-107250000D01*
X156045660Y-107191190D01*
X156028505Y-107134639D01*
X156000648Y-107082522D01*
X155963159Y-107036841D01*
X155918268Y-107000000D01*
X155963159Y-106963159D01*
X156000648Y-106917478D01*
X156028505Y-106865361D01*
X156045660Y-106808810D01*
X156051452Y-106750000D01*
X156050000Y-106080000D01*
X155975000Y-106005000D01*
X155005000Y-106005000D01*
X154995000Y-106005000D01*
X154025000Y-106005000D01*
X153950000Y-106080000D01*
X153948548Y-106750000D01*
X153954340Y-106808810D01*
X153971495Y-106865361D01*
X153999352Y-106917478D01*
X154036841Y-106963159D01*
X154081732Y-107000000D01*
X154036841Y-107036841D01*
X153999352Y-107082522D01*
X153971495Y-107134639D01*
X153954340Y-107191190D01*
X153948548Y-107250000D01*
X153949308Y-107600780D01*
X153882478Y-107533950D01*
X153784207Y-107468287D01*
X153675014Y-107423058D01*
X153559095Y-107400000D01*
X153440905Y-107400000D01*
X153324986Y-107423058D01*
X153261913Y-107449184D01*
X153245892Y-107396371D01*
X153208794Y-107326966D01*
X153207181Y-107325000D01*
X153208794Y-107323034D01*
X153245892Y-107253629D01*
X153268737Y-107178319D01*
X153276451Y-107100000D01*
X153276451Y-106900000D01*
X153268737Y-106821681D01*
X153245892Y-106746371D01*
X153208794Y-106676966D01*
X153207181Y-106675000D01*
X153208794Y-106673034D01*
X153245892Y-106603629D01*
X153268737Y-106528319D01*
X153276451Y-106450000D01*
X153276451Y-106250000D01*
X153268737Y-106171681D01*
X153245892Y-106096371D01*
X153228048Y-106062988D01*
X153253505Y-106015361D01*
X153270660Y-105958810D01*
X153276452Y-105900000D01*
X153275000Y-105780000D01*
X153200000Y-105705000D01*
X152305000Y-105705000D01*
X152305000Y-105725000D01*
X152295000Y-105725000D01*
X152295000Y-105705000D01*
X151400000Y-105705000D01*
X151325000Y-105780000D01*
X151323548Y-105900000D01*
X151329340Y-105958810D01*
X151346495Y-106015361D01*
X151371952Y-106062988D01*
X151354108Y-106096371D01*
X151331263Y-106171681D01*
X151323549Y-106250000D01*
X151323549Y-106450000D01*
X151331263Y-106528319D01*
X151353007Y-106600000D01*
X151265685Y-106600000D01*
X150744321Y-106078636D01*
X150821387Y-106027141D01*
X150904959Y-105943569D01*
X150970622Y-105845298D01*
X151015851Y-105736105D01*
X151038909Y-105620186D01*
X151038909Y-105501996D01*
X151038512Y-105500000D01*
X151323548Y-105500000D01*
X151325000Y-105620000D01*
X151400000Y-105695000D01*
X152295000Y-105695000D01*
X152295000Y-104505000D01*
X152305000Y-104505000D01*
X152305000Y-105695000D01*
X153200000Y-105695000D01*
X153275000Y-105620000D01*
X153276452Y-105500000D01*
X153270660Y-105441190D01*
X153253505Y-105384639D01*
X153225648Y-105332522D01*
X153188159Y-105286841D01*
X153142478Y-105249352D01*
X153090361Y-105221495D01*
X153033810Y-105204340D01*
X152975000Y-105198548D01*
X152879138Y-105198782D01*
X152962398Y-105098613D01*
X153037190Y-104960766D01*
X153083653Y-104810976D01*
X153100000Y-104655000D01*
X153100000Y-104505000D01*
X152305000Y-104505000D01*
X152295000Y-104505000D01*
X151500000Y-104505000D01*
X151500000Y-104655000D01*
X151516347Y-104810976D01*
X151562810Y-104960766D01*
X151637602Y-105098613D01*
X151720862Y-105198782D01*
X151625000Y-105198548D01*
X151566190Y-105204340D01*
X151509639Y-105221495D01*
X151457522Y-105249352D01*
X151411841Y-105286841D01*
X151374352Y-105332522D01*
X151346495Y-105384639D01*
X151329340Y-105441190D01*
X151323548Y-105500000D01*
X151038512Y-105500000D01*
X151015851Y-105386077D01*
X150970622Y-105276884D01*
X150904959Y-105178613D01*
X150821387Y-105095041D01*
X150723116Y-105029378D01*
X150613923Y-104984149D01*
X150498004Y-104961091D01*
X150404594Y-104961091D01*
X149788503Y-104345000D01*
X151500000Y-104345000D01*
X151500000Y-104495000D01*
X152295000Y-104495000D01*
X152295000Y-103625017D01*
X152305000Y-103625017D01*
X152305000Y-104495000D01*
X153100000Y-104495000D01*
X153100000Y-104345000D01*
X153083653Y-104189024D01*
X153037190Y-104039234D01*
X152962398Y-103901387D01*
X152862150Y-103780780D01*
X152740299Y-103682047D01*
X152601528Y-103608983D01*
X152451169Y-103564396D01*
X152430084Y-103560647D01*
X152305000Y-103625017D01*
X152295000Y-103625017D01*
X152169916Y-103560647D01*
X152148831Y-103564396D01*
X151998472Y-103608983D01*
X151859701Y-103682047D01*
X151737850Y-103780780D01*
X151637602Y-103901387D01*
X151562810Y-104039234D01*
X151516347Y-104189024D01*
X151500000Y-104345000D01*
X149788503Y-104345000D01*
X149349555Y-103906052D01*
X149337029Y-103890789D01*
X149276121Y-103840803D01*
X149206632Y-103803660D01*
X149131232Y-103780788D01*
X149128318Y-103780501D01*
X149147795Y-103744062D01*
X149169218Y-103673442D01*
X149176451Y-103600000D01*
X149176451Y-103450000D01*
X149169218Y-103376558D01*
X149167204Y-103369916D01*
X153885647Y-103369916D01*
X153949075Y-103493169D01*
X153949104Y-103506773D01*
X153885647Y-103630084D01*
X153889396Y-103651169D01*
X153933983Y-103801528D01*
X153949808Y-103831585D01*
X153950000Y-103920000D01*
X154025000Y-103995000D01*
X154051370Y-103995000D01*
X154059473Y-104005000D01*
X154025000Y-104005000D01*
X153950000Y-104080000D01*
X153948548Y-104750000D01*
X153954340Y-104808810D01*
X153971495Y-104865361D01*
X153999352Y-104917478D01*
X154036841Y-104963159D01*
X154081732Y-105000000D01*
X154036841Y-105036841D01*
X153999352Y-105082522D01*
X153971495Y-105134639D01*
X153954340Y-105191190D01*
X153948548Y-105250000D01*
X153950000Y-105920000D01*
X154025000Y-105995000D01*
X154995000Y-105995000D01*
X154995000Y-105025000D01*
X154970000Y-105000000D01*
X154995000Y-104975000D01*
X154995000Y-103475000D01*
X155005000Y-103475000D01*
X155005000Y-104975000D01*
X155030000Y-105000000D01*
X155005000Y-105025000D01*
X155005000Y-105995000D01*
X155975000Y-105995000D01*
X156050000Y-105920000D01*
X156051452Y-105250000D01*
X156045660Y-105191190D01*
X156028505Y-105134639D01*
X156000648Y-105082522D01*
X155963159Y-105036841D01*
X155918268Y-105000000D01*
X155963159Y-104963159D01*
X156000648Y-104917478D01*
X156028505Y-104865361D01*
X156045660Y-104808810D01*
X156051452Y-104750000D01*
X156050000Y-104080000D01*
X155975000Y-104005000D01*
X155940527Y-104005000D01*
X155948630Y-103995000D01*
X155975000Y-103995000D01*
X156050000Y-103920000D01*
X156050192Y-103831585D01*
X156066017Y-103801528D01*
X156110604Y-103651169D01*
X156114353Y-103630084D01*
X156050896Y-103506773D01*
X156050925Y-103493169D01*
X156114353Y-103369916D01*
X156110604Y-103348831D01*
X156066017Y-103198472D01*
X155992953Y-103059701D01*
X155894220Y-102937850D01*
X155773613Y-102837602D01*
X155635766Y-102762810D01*
X155485976Y-102716347D01*
X155330000Y-102700000D01*
X154670000Y-102700000D01*
X154514024Y-102716347D01*
X154364234Y-102762810D01*
X154226387Y-102837602D01*
X154105780Y-102937850D01*
X154007047Y-103059701D01*
X153933983Y-103198472D01*
X153889396Y-103348831D01*
X153885647Y-103369916D01*
X149167204Y-103369916D01*
X149147795Y-103305938D01*
X149113008Y-103240855D01*
X149066191Y-103183809D01*
X149009145Y-103136992D01*
X148944062Y-103102205D01*
X148896035Y-103087636D01*
X148893489Y-103061785D01*
X148867757Y-102976959D01*
X148850253Y-102944212D01*
X148825971Y-102898783D01*
X148783828Y-102847432D01*
X148783824Y-102847428D01*
X148769737Y-102830263D01*
X148752573Y-102816177D01*
X148536396Y-102600000D01*
X148559095Y-102600000D01*
X148675014Y-102576942D01*
X148784207Y-102531713D01*
X148882478Y-102466050D01*
X148966050Y-102382478D01*
X149031713Y-102284207D01*
X149076942Y-102175014D01*
X149100000Y-102059095D01*
X149100000Y-101940905D01*
X149076942Y-101824986D01*
X149031713Y-101715793D01*
X148966050Y-101617522D01*
X148895045Y-101546517D01*
X148921155Y-101514702D01*
X148965183Y-101432330D01*
X148992296Y-101342951D01*
X148999188Y-101272978D01*
X148998548Y-101425000D01*
X149004340Y-101483810D01*
X149021495Y-101540361D01*
X149049352Y-101592478D01*
X149086841Y-101638159D01*
X149132522Y-101675648D01*
X149184639Y-101703505D01*
X149241190Y-101720660D01*
X149300000Y-101726452D01*
X149570000Y-101725000D01*
X149645000Y-101650000D01*
X149645000Y-101005000D01*
X149655000Y-101005000D01*
X149655000Y-101650000D01*
X149730000Y-101725000D01*
X150000000Y-101726452D01*
X150058810Y-101720660D01*
X150115361Y-101703505D01*
X150167478Y-101675648D01*
X150213159Y-101638159D01*
X150250648Y-101592478D01*
X150278505Y-101540361D01*
X150295660Y-101483810D01*
X150301452Y-101425000D01*
X150300000Y-101080000D01*
X150225000Y-101005000D01*
X149655000Y-101005000D01*
X149645000Y-101005000D01*
X149625000Y-101005000D01*
X149625000Y-100995000D01*
X149645000Y-100995000D01*
X149645000Y-100350000D01*
X149655000Y-100350000D01*
X149655000Y-100995000D01*
X150225000Y-100995000D01*
X150300000Y-100920000D01*
X150301452Y-100575000D01*
X150295660Y-100516190D01*
X150278505Y-100459639D01*
X150250648Y-100407522D01*
X150213159Y-100361841D01*
X150167478Y-100324352D01*
X150121919Y-100300000D01*
X150498549Y-100300000D01*
X150498549Y-101300000D01*
X150504341Y-101358810D01*
X150521496Y-101415360D01*
X150549353Y-101467477D01*
X150586842Y-101513158D01*
X150632523Y-101550647D01*
X150684640Y-101578504D01*
X150741190Y-101595659D01*
X150800000Y-101601451D01*
X151800000Y-101601451D01*
X151858810Y-101595659D01*
X151915360Y-101578504D01*
X151967477Y-101550647D01*
X152000000Y-101523956D01*
X152032523Y-101550647D01*
X152084640Y-101578504D01*
X152141190Y-101595659D01*
X152200000Y-101601451D01*
X153200000Y-101601451D01*
X153258810Y-101595659D01*
X153315360Y-101578504D01*
X153367477Y-101550647D01*
X153413158Y-101513158D01*
X153450647Y-101467477D01*
X153478504Y-101415360D01*
X153495659Y-101358810D01*
X153501451Y-101300000D01*
X153501451Y-100300000D01*
X153495659Y-100241190D01*
X153478504Y-100184640D01*
X153450647Y-100132523D01*
X153413158Y-100086842D01*
X153367477Y-100049353D01*
X153315360Y-100021496D01*
X153258810Y-100004341D01*
X153200000Y-99998549D01*
X152200000Y-99998549D01*
X152141190Y-100004341D01*
X152084640Y-100021496D01*
X152032523Y-100049353D01*
X152000000Y-100076044D01*
X151967477Y-100049353D01*
X151915360Y-100021496D01*
X151858810Y-100004341D01*
X151800000Y-99998549D01*
X150800000Y-99998549D01*
X150741190Y-100004341D01*
X150684640Y-100021496D01*
X150632523Y-100049353D01*
X150586842Y-100086842D01*
X150549353Y-100132523D01*
X150521496Y-100184640D01*
X150504341Y-100241190D01*
X150498549Y-100300000D01*
X150121919Y-100300000D01*
X150115361Y-100296495D01*
X150058810Y-100279340D01*
X150000000Y-100273548D01*
X149730000Y-100275000D01*
X149655000Y-100350000D01*
X149645000Y-100350000D01*
X149570000Y-100275000D01*
X149300000Y-100273548D01*
X149266293Y-100276868D01*
X149282480Y-100266052D01*
X149303431Y-100245101D01*
X149326318Y-100226318D01*
X149345101Y-100203431D01*
X149366052Y-100182480D01*
X149382514Y-100157843D01*
X149401297Y-100134956D01*
X149415255Y-100108843D01*
X149431715Y-100084209D01*
X149443051Y-100056842D01*
X149457012Y-100030723D01*
X149465610Y-100002380D01*
X149476944Y-99975016D01*
X149482723Y-99945963D01*
X149491320Y-99917622D01*
X149494223Y-99888151D01*
X149500002Y-99859097D01*
X149500002Y-99829476D01*
X149502905Y-99800002D01*
X149500002Y-99770528D01*
X149500002Y-99740907D01*
X149494223Y-99711854D01*
X149491320Y-99682381D01*
X149482723Y-99654038D01*
X149476944Y-99624988D01*
X149465611Y-99597627D01*
X149457012Y-99569280D01*
X149443049Y-99543157D01*
X149431715Y-99515795D01*
X149415258Y-99491165D01*
X149401297Y-99465047D01*
X149382510Y-99442154D01*
X149366052Y-99417524D01*
X149282480Y-99333952D01*
X147773527Y-97825000D01*
X155865382Y-97825000D01*
X156175000Y-98134619D01*
X156175000Y-98134619D01*
G37*
X156175000Y-98134619D02*
X156175001Y-112865380D01*
X155865382Y-113175000D01*
X155771451Y-113175000D01*
X155771451Y-112417000D01*
X155757492Y-112275276D01*
X155716153Y-112138999D01*
X155649022Y-112013405D01*
X155558678Y-111903322D01*
X155448595Y-111812978D01*
X155323001Y-111745847D01*
X155186724Y-111704508D01*
X155045000Y-111690549D01*
X154195000Y-111690549D01*
X154053276Y-111704508D01*
X154042793Y-111707688D01*
X153900000Y-111564895D01*
X153900000Y-110686928D01*
X153933983Y-110801528D01*
X154007047Y-110940299D01*
X154105780Y-111062150D01*
X154226387Y-111162398D01*
X154364234Y-111237190D01*
X154514024Y-111283653D01*
X154670000Y-111300000D01*
X154995000Y-111300000D01*
X154995000Y-109025000D01*
X154970000Y-109000000D01*
X154995000Y-108975000D01*
X154995000Y-108005000D01*
X155005000Y-108005000D01*
X155005000Y-108975000D01*
X155030000Y-109000000D01*
X155005000Y-109025000D01*
X155005000Y-111300000D01*
X155330000Y-111300000D01*
X155485976Y-111283653D01*
X155635766Y-111237190D01*
X155773613Y-111162398D01*
X155894220Y-111062150D01*
X155992953Y-110940299D01*
X156066017Y-110801528D01*
X156110604Y-110651169D01*
X156114353Y-110630084D01*
X156050925Y-110506831D01*
X156050896Y-110493227D01*
X156114353Y-110369916D01*
X156110604Y-110348831D01*
X156066017Y-110198472D01*
X156050192Y-110168415D01*
X156050000Y-110080000D01*
X155975000Y-110005000D01*
X155948630Y-110005000D01*
X155940527Y-109995000D01*
X155975000Y-109995000D01*
X156050000Y-109920000D01*
X156051452Y-109250000D01*
X156045660Y-109191190D01*
X156028505Y-109134639D01*
X156000648Y-109082522D01*
X155963159Y-109036841D01*
X155918268Y-109000000D01*
X155963159Y-108963159D01*
X156000648Y-108917478D01*
X156028505Y-108865361D01*
X156045660Y-108808810D01*
X156051452Y-108750000D01*
X156050000Y-108080000D01*
X155975000Y-108005000D01*
X155005000Y-108005000D01*
X154995000Y-108005000D01*
X154975000Y-108005000D01*
X154975000Y-107995000D01*
X154995000Y-107995000D01*
X154995000Y-107025000D01*
X154970000Y-107000000D01*
X154995000Y-106975000D01*
X154995000Y-106005000D01*
X155005000Y-106005000D01*
X155005000Y-106975000D01*
X155030000Y-107000000D01*
X155005000Y-107025000D01*
X155005000Y-107995000D01*
X155975000Y-107995000D01*
X156050000Y-107920000D01*
X156051452Y-107250000D01*
X156045660Y-107191190D01*
X156028505Y-107134639D01*
X156000648Y-107082522D01*
X155963159Y-107036841D01*
X155918268Y-107000000D01*
X155963159Y-106963159D01*
X156000648Y-106917478D01*
X156028505Y-106865361D01*
X156045660Y-106808810D01*
X156051452Y-106750000D01*
X156050000Y-106080000D01*
X155975000Y-106005000D01*
X155005000Y-106005000D01*
X154995000Y-106005000D01*
X154025000Y-106005000D01*
X153950000Y-106080000D01*
X153948548Y-106750000D01*
X153954340Y-106808810D01*
X153971495Y-106865361D01*
X153999352Y-106917478D01*
X154036841Y-106963159D01*
X154081732Y-107000000D01*
X154036841Y-107036841D01*
X153999352Y-107082522D01*
X153971495Y-107134639D01*
X153954340Y-107191190D01*
X153948548Y-107250000D01*
X153949308Y-107600780D01*
X153882478Y-107533950D01*
X153784207Y-107468287D01*
X153675014Y-107423058D01*
X153559095Y-107400000D01*
X153440905Y-107400000D01*
X153324986Y-107423058D01*
X153261913Y-107449184D01*
X153245892Y-107396371D01*
X153208794Y-107326966D01*
X153207181Y-107325000D01*
X153208794Y-107323034D01*
X153245892Y-107253629D01*
X153268737Y-107178319D01*
X153276451Y-107100000D01*
X153276451Y-106900000D01*
X153268737Y-106821681D01*
X153245892Y-106746371D01*
X153208794Y-106676966D01*
X153207181Y-106675000D01*
X153208794Y-106673034D01*
X153245892Y-106603629D01*
X153268737Y-106528319D01*
X153276451Y-106450000D01*
X153276451Y-106250000D01*
X153268737Y-106171681D01*
X153245892Y-106096371D01*
X153228048Y-106062988D01*
X153253505Y-106015361D01*
X153270660Y-105958810D01*
X153276452Y-105900000D01*
X153275000Y-105780000D01*
X153200000Y-105705000D01*
X152305000Y-105705000D01*
X152305000Y-105725000D01*
X152295000Y-105725000D01*
X152295000Y-105705000D01*
X151400000Y-105705000D01*
X151325000Y-105780000D01*
X151323548Y-105900000D01*
X151329340Y-105958810D01*
X151346495Y-106015361D01*
X151371952Y-106062988D01*
X151354108Y-106096371D01*
X151331263Y-106171681D01*
X151323549Y-106250000D01*
X151323549Y-106450000D01*
X151331263Y-106528319D01*
X151353007Y-106600000D01*
X151265685Y-106600000D01*
X150744321Y-106078636D01*
X150821387Y-106027141D01*
X150904959Y-105943569D01*
X150970622Y-105845298D01*
X151015851Y-105736105D01*
X151038909Y-105620186D01*
X151038909Y-105501996D01*
X151038512Y-105500000D01*
X151323548Y-105500000D01*
X151325000Y-105620000D01*
X151400000Y-105695000D01*
X152295000Y-105695000D01*
X152295000Y-104505000D01*
X152305000Y-104505000D01*
X152305000Y-105695000D01*
X153200000Y-105695000D01*
X153275000Y-105620000D01*
X153276452Y-105500000D01*
X153270660Y-105441190D01*
X153253505Y-105384639D01*
X153225648Y-105332522D01*
X153188159Y-105286841D01*
X153142478Y-105249352D01*
X153090361Y-105221495D01*
X153033810Y-105204340D01*
X152975000Y-105198548D01*
X152879138Y-105198782D01*
X152962398Y-105098613D01*
X153037190Y-104960766D01*
X153083653Y-104810976D01*
X153100000Y-104655000D01*
X153100000Y-104505000D01*
X152305000Y-104505000D01*
X152295000Y-104505000D01*
X151500000Y-104505000D01*
X151500000Y-104655000D01*
X151516347Y-104810976D01*
X151562810Y-104960766D01*
X151637602Y-105098613D01*
X151720862Y-105198782D01*
X151625000Y-105198548D01*
X151566190Y-105204340D01*
X151509639Y-105221495D01*
X151457522Y-105249352D01*
X151411841Y-105286841D01*
X151374352Y-105332522D01*
X151346495Y-105384639D01*
X151329340Y-105441190D01*
X151323548Y-105500000D01*
X151038512Y-105500000D01*
X151015851Y-105386077D01*
X150970622Y-105276884D01*
X150904959Y-105178613D01*
X150821387Y-105095041D01*
X150723116Y-105029378D01*
X150613923Y-104984149D01*
X150498004Y-104961091D01*
X150404594Y-104961091D01*
X149788503Y-104345000D01*
X151500000Y-104345000D01*
X151500000Y-104495000D01*
X152295000Y-104495000D01*
X152295000Y-103625017D01*
X152305000Y-103625017D01*
X152305000Y-104495000D01*
X153100000Y-104495000D01*
X153100000Y-104345000D01*
X153083653Y-104189024D01*
X153037190Y-104039234D01*
X152962398Y-103901387D01*
X152862150Y-103780780D01*
X152740299Y-103682047D01*
X152601528Y-103608983D01*
X152451169Y-103564396D01*
X152430084Y-103560647D01*
X152305000Y-103625017D01*
X152295000Y-103625017D01*
X152169916Y-103560647D01*
X152148831Y-103564396D01*
X151998472Y-103608983D01*
X151859701Y-103682047D01*
X151737850Y-103780780D01*
X151637602Y-103901387D01*
X151562810Y-104039234D01*
X151516347Y-104189024D01*
X151500000Y-104345000D01*
X149788503Y-104345000D01*
X149349555Y-103906052D01*
X149337029Y-103890789D01*
X149276121Y-103840803D01*
X149206632Y-103803660D01*
X149131232Y-103780788D01*
X149128318Y-103780501D01*
X149147795Y-103744062D01*
X149169218Y-103673442D01*
X149176451Y-103600000D01*
X149176451Y-103450000D01*
X149169218Y-103376558D01*
X149167204Y-103369916D01*
X153885647Y-103369916D01*
X153949075Y-103493169D01*
X153949104Y-103506773D01*
X153885647Y-103630084D01*
X153889396Y-103651169D01*
X153933983Y-103801528D01*
X153949808Y-103831585D01*
X153950000Y-103920000D01*
X154025000Y-103995000D01*
X154051370Y-103995000D01*
X154059473Y-104005000D01*
X154025000Y-104005000D01*
X153950000Y-104080000D01*
X153948548Y-104750000D01*
X153954340Y-104808810D01*
X153971495Y-104865361D01*
X153999352Y-104917478D01*
X154036841Y-104963159D01*
X154081732Y-105000000D01*
X154036841Y-105036841D01*
X153999352Y-105082522D01*
X153971495Y-105134639D01*
X153954340Y-105191190D01*
X153948548Y-105250000D01*
X153950000Y-105920000D01*
X154025000Y-105995000D01*
X154995000Y-105995000D01*
X154995000Y-105025000D01*
X154970000Y-105000000D01*
X154995000Y-104975000D01*
X154995000Y-103475000D01*
X155005000Y-103475000D01*
X155005000Y-104975000D01*
X155030000Y-105000000D01*
X155005000Y-105025000D01*
X155005000Y-105995000D01*
X155975000Y-105995000D01*
X156050000Y-105920000D01*
X156051452Y-105250000D01*
X156045660Y-105191190D01*
X156028505Y-105134639D01*
X156000648Y-105082522D01*
X155963159Y-105036841D01*
X155918268Y-105000000D01*
X155963159Y-104963159D01*
X156000648Y-104917478D01*
X156028505Y-104865361D01*
X156045660Y-104808810D01*
X156051452Y-104750000D01*
X156050000Y-104080000D01*
X155975000Y-104005000D01*
X155940527Y-104005000D01*
X155948630Y-103995000D01*
X155975000Y-103995000D01*
X156050000Y-103920000D01*
X156050192Y-103831585D01*
X156066017Y-103801528D01*
X156110604Y-103651169D01*
X156114353Y-103630084D01*
X156050896Y-103506773D01*
X156050925Y-103493169D01*
X156114353Y-103369916D01*
X156110604Y-103348831D01*
X156066017Y-103198472D01*
X155992953Y-103059701D01*
X155894220Y-102937850D01*
X155773613Y-102837602D01*
X155635766Y-102762810D01*
X155485976Y-102716347D01*
X155330000Y-102700000D01*
X154670000Y-102700000D01*
X154514024Y-102716347D01*
X154364234Y-102762810D01*
X154226387Y-102837602D01*
X154105780Y-102937850D01*
X154007047Y-103059701D01*
X153933983Y-103198472D01*
X153889396Y-103348831D01*
X153885647Y-103369916D01*
X149167204Y-103369916D01*
X149147795Y-103305938D01*
X149113008Y-103240855D01*
X149066191Y-103183809D01*
X149009145Y-103136992D01*
X148944062Y-103102205D01*
X148896035Y-103087636D01*
X148893489Y-103061785D01*
X148867757Y-102976959D01*
X148850253Y-102944212D01*
X148825971Y-102898783D01*
X148783828Y-102847432D01*
X148783824Y-102847428D01*
X148769737Y-102830263D01*
X148752573Y-102816177D01*
X148536396Y-102600000D01*
X148559095Y-102600000D01*
X148675014Y-102576942D01*
X148784207Y-102531713D01*
X148882478Y-102466050D01*
X148966050Y-102382478D01*
X149031713Y-102284207D01*
X149076942Y-102175014D01*
X149100000Y-102059095D01*
X149100000Y-101940905D01*
X149076942Y-101824986D01*
X149031713Y-101715793D01*
X148966050Y-101617522D01*
X148895045Y-101546517D01*
X148921155Y-101514702D01*
X148965183Y-101432330D01*
X148992296Y-101342951D01*
X148999188Y-101272978D01*
X148998548Y-101425000D01*
X149004340Y-101483810D01*
X149021495Y-101540361D01*
X149049352Y-101592478D01*
X149086841Y-101638159D01*
X149132522Y-101675648D01*
X149184639Y-101703505D01*
X149241190Y-101720660D01*
X149300000Y-101726452D01*
X149570000Y-101725000D01*
X149645000Y-101650000D01*
X149645000Y-101005000D01*
X149655000Y-101005000D01*
X149655000Y-101650000D01*
X149730000Y-101725000D01*
X150000000Y-101726452D01*
X150058810Y-101720660D01*
X150115361Y-101703505D01*
X150167478Y-101675648D01*
X150213159Y-101638159D01*
X150250648Y-101592478D01*
X150278505Y-101540361D01*
X150295660Y-101483810D01*
X150301452Y-101425000D01*
X150300000Y-101080000D01*
X150225000Y-101005000D01*
X149655000Y-101005000D01*
X149645000Y-101005000D01*
X149625000Y-101005000D01*
X149625000Y-100995000D01*
X149645000Y-100995000D01*
X149645000Y-100350000D01*
X149655000Y-100350000D01*
X149655000Y-100995000D01*
X150225000Y-100995000D01*
X150300000Y-100920000D01*
X150301452Y-100575000D01*
X150295660Y-100516190D01*
X150278505Y-100459639D01*
X150250648Y-100407522D01*
X150213159Y-100361841D01*
X150167478Y-100324352D01*
X150121919Y-100300000D01*
X150498549Y-100300000D01*
X150498549Y-101300000D01*
X150504341Y-101358810D01*
X150521496Y-101415360D01*
X150549353Y-101467477D01*
X150586842Y-101513158D01*
X150632523Y-101550647D01*
X150684640Y-101578504D01*
X150741190Y-101595659D01*
X150800000Y-101601451D01*
X151800000Y-101601451D01*
X151858810Y-101595659D01*
X151915360Y-101578504D01*
X151967477Y-101550647D01*
X152000000Y-101523956D01*
X152032523Y-101550647D01*
X152084640Y-101578504D01*
X152141190Y-101595659D01*
X152200000Y-101601451D01*
X153200000Y-101601451D01*
X153258810Y-101595659D01*
X153315360Y-101578504D01*
X153367477Y-101550647D01*
X153413158Y-101513158D01*
X153450647Y-101467477D01*
X153478504Y-101415360D01*
X153495659Y-101358810D01*
X153501451Y-101300000D01*
X153501451Y-100300000D01*
X153495659Y-100241190D01*
X153478504Y-100184640D01*
X153450647Y-100132523D01*
X153413158Y-100086842D01*
X153367477Y-100049353D01*
X153315360Y-100021496D01*
X153258810Y-100004341D01*
X153200000Y-99998549D01*
X152200000Y-99998549D01*
X152141190Y-100004341D01*
X152084640Y-100021496D01*
X152032523Y-100049353D01*
X152000000Y-100076044D01*
X151967477Y-100049353D01*
X151915360Y-100021496D01*
X151858810Y-100004341D01*
X151800000Y-99998549D01*
X150800000Y-99998549D01*
X150741190Y-100004341D01*
X150684640Y-100021496D01*
X150632523Y-100049353D01*
X150586842Y-100086842D01*
X150549353Y-100132523D01*
X150521496Y-100184640D01*
X150504341Y-100241190D01*
X150498549Y-100300000D01*
X150121919Y-100300000D01*
X150115361Y-100296495D01*
X150058810Y-100279340D01*
X150000000Y-100273548D01*
X149730000Y-100275000D01*
X149655000Y-100350000D01*
X149645000Y-100350000D01*
X149570000Y-100275000D01*
X149300000Y-100273548D01*
X149266293Y-100276868D01*
X149282480Y-100266052D01*
X149303431Y-100245101D01*
X149326318Y-100226318D01*
X149345101Y-100203431D01*
X149366052Y-100182480D01*
X149382514Y-100157843D01*
X149401297Y-100134956D01*
X149415255Y-100108843D01*
X149431715Y-100084209D01*
X149443051Y-100056842D01*
X149457012Y-100030723D01*
X149465610Y-100002380D01*
X149476944Y-99975016D01*
X149482723Y-99945963D01*
X149491320Y-99917622D01*
X149494223Y-99888151D01*
X149500002Y-99859097D01*
X149500002Y-99829476D01*
X149502905Y-99800002D01*
X149500002Y-99770528D01*
X149500002Y-99740907D01*
X149494223Y-99711854D01*
X149491320Y-99682381D01*
X149482723Y-99654038D01*
X149476944Y-99624988D01*
X149465611Y-99597627D01*
X149457012Y-99569280D01*
X149443049Y-99543157D01*
X149431715Y-99515795D01*
X149415258Y-99491165D01*
X149401297Y-99465047D01*
X149382510Y-99442154D01*
X149366052Y-99417524D01*
X149282480Y-99333952D01*
X147773527Y-97825000D01*
X155865382Y-97825000D01*
X156175000Y-98134619D01*
G36*
X148998548Y-108425000D02*
G01*
X149004340Y-108483810D01*
X149014081Y-108515919D01*
X149005000Y-108525000D01*
X149005000Y-109095000D01*
X149650000Y-109095000D01*
X149725000Y-109020000D01*
X149726452Y-108750000D01*
X149723333Y-108718333D01*
X149730000Y-108725000D01*
X150000000Y-108726452D01*
X150058810Y-108720660D01*
X150115361Y-108703505D01*
X150167478Y-108675648D01*
X150213159Y-108638159D01*
X150250648Y-108592478D01*
X150278505Y-108540361D01*
X150295660Y-108483810D01*
X150300001Y-108439735D01*
X150300000Y-111666315D01*
X150225712Y-111740603D01*
X150106724Y-111704508D01*
X149965000Y-111690549D01*
X149115000Y-111690549D01*
X148973276Y-111704508D01*
X148836999Y-111745847D01*
X148711405Y-111812978D01*
X148601322Y-111903322D01*
X148510978Y-112013405D01*
X148443847Y-112138999D01*
X148402508Y-112275276D01*
X148388549Y-112417000D01*
X148388549Y-113175000D01*
X148150163Y-113175000D01*
X148150000Y-113072000D01*
X148075000Y-112997000D01*
X148034168Y-112997000D01*
X148029264Y-112987000D01*
X148075000Y-112987000D01*
X148150000Y-112912000D01*
X148151452Y-111992000D01*
X148145660Y-111933190D01*
X148128505Y-111876639D01*
X148100648Y-111824522D01*
X148063159Y-111778841D01*
X148017478Y-111741352D01*
X147965361Y-111713495D01*
X147908810Y-111696340D01*
X147850000Y-111690548D01*
X147080000Y-111692000D01*
X147005000Y-111767000D01*
X147005000Y-112347382D01*
X146995000Y-112348015D01*
X146995000Y-111767000D01*
X146920000Y-111692000D01*
X146150000Y-111690548D01*
X146091190Y-111696340D01*
X146034639Y-111713495D01*
X145982522Y-111741352D01*
X145936841Y-111778841D01*
X145899352Y-111824522D01*
X145871495Y-111876639D01*
X145854340Y-111933190D01*
X145848548Y-111992000D01*
X145850000Y-112912000D01*
X145925000Y-112987000D01*
X145968089Y-112987000D01*
X145962286Y-112997000D01*
X145925000Y-112997000D01*
X145850000Y-113072000D01*
X145849837Y-113175000D01*
X142682360Y-113175000D01*
X142721159Y-113143159D01*
X142758648Y-113097478D01*
X142786505Y-113045361D01*
X142803660Y-112988810D01*
X142809452Y-112930000D01*
X142808000Y-112160000D01*
X142733000Y-112085000D01*
X142152618Y-112085000D01*
X142151985Y-112075000D01*
X142733000Y-112075000D01*
X142808000Y-112000000D01*
X142809452Y-111230000D01*
X142803660Y-111171190D01*
X142786505Y-111114639D01*
X142758648Y-111062522D01*
X142721159Y-111016841D01*
X142675478Y-110979352D01*
X142623361Y-110951495D01*
X142566810Y-110934340D01*
X142508000Y-110928548D01*
X141588000Y-110930000D01*
X141513000Y-111005000D01*
X141513000Y-111048089D01*
X141503000Y-111042286D01*
X141503000Y-111005000D01*
X141428000Y-110930000D01*
X141325000Y-110929837D01*
X141325000Y-110691451D01*
X142083000Y-110691451D01*
X142224724Y-110677492D01*
X142361001Y-110636153D01*
X142486595Y-110569022D01*
X142596678Y-110478678D01*
X142687022Y-110368595D01*
X142754153Y-110243001D01*
X142795492Y-110106724D01*
X142809451Y-109965000D01*
X142809451Y-109900000D01*
X142984315Y-109900000D01*
X143573549Y-110489234D01*
X143573549Y-110825000D01*
X143582704Y-110917951D01*
X143609817Y-111007330D01*
X143653845Y-111089702D01*
X143713098Y-111161902D01*
X143785298Y-111221155D01*
X143867670Y-111265183D01*
X143957049Y-111292296D01*
X144050000Y-111301451D01*
X144550000Y-111301451D01*
X144642951Y-111292296D01*
X144732330Y-111265183D01*
X144814702Y-111221155D01*
X144886902Y-111161902D01*
X144946155Y-111089702D01*
X144980654Y-111025157D01*
X145011841Y-111063159D01*
X145057522Y-111100648D01*
X145109639Y-111128505D01*
X145166190Y-111145660D01*
X145225000Y-111151452D01*
X145470000Y-111150000D01*
X145545000Y-111075000D01*
X145545000Y-110655000D01*
X145525000Y-110655000D01*
X145525000Y-110645000D01*
X145545000Y-110645000D01*
X145545000Y-110625000D01*
X145555000Y-110625000D01*
X145555000Y-110645000D01*
X145575000Y-110645000D01*
X145575000Y-110655000D01*
X145555000Y-110655000D01*
X145555000Y-111075000D01*
X145630000Y-111150000D01*
X145875000Y-111151452D01*
X145933810Y-111145660D01*
X145990361Y-111128505D01*
X146042478Y-111100648D01*
X146088159Y-111063159D01*
X146125648Y-111017478D01*
X146153505Y-110965361D01*
X146156454Y-110955640D01*
X146168287Y-110984207D01*
X146233950Y-111082478D01*
X146317522Y-111166050D01*
X146415793Y-111231713D01*
X146524986Y-111276942D01*
X146640905Y-111300000D01*
X146759095Y-111300000D01*
X146875014Y-111276942D01*
X146984207Y-111231713D01*
X147082478Y-111166050D01*
X147114541Y-111133987D01*
X147146681Y-111143737D01*
X147225000Y-111151451D01*
X147675000Y-111151451D01*
X147753319Y-111143737D01*
X147828629Y-111120892D01*
X147898034Y-111083794D01*
X147958869Y-111033869D01*
X148008794Y-110973034D01*
X148045892Y-110903629D01*
X148068737Y-110828319D01*
X148076451Y-110750000D01*
X148076451Y-110587179D01*
X148140905Y-110600000D01*
X148259095Y-110600000D01*
X148275686Y-110596700D01*
X148282704Y-110667951D01*
X148309817Y-110757330D01*
X148353845Y-110839702D01*
X148413098Y-110911902D01*
X148485298Y-110971155D01*
X148567670Y-111015183D01*
X148657049Y-111042296D01*
X148750000Y-111051451D01*
X148995086Y-111051451D01*
X149000000Y-111051935D01*
X149004914Y-111051451D01*
X149250000Y-111051451D01*
X149342951Y-111042296D01*
X149432330Y-111015183D01*
X149514702Y-110971155D01*
X149586902Y-110911902D01*
X149646155Y-110839702D01*
X149690183Y-110757330D01*
X149717296Y-110667951D01*
X149726451Y-110575000D01*
X149726451Y-110225000D01*
X149717296Y-110132049D01*
X149690183Y-110042670D01*
X149646155Y-109960298D01*
X149586902Y-109888098D01*
X149514702Y-109828845D01*
X149432330Y-109784817D01*
X149342951Y-109757704D01*
X149272978Y-109750812D01*
X149425000Y-109751452D01*
X149483810Y-109745660D01*
X149540361Y-109728505D01*
X149592478Y-109700648D01*
X149638159Y-109663159D01*
X149675648Y-109617478D01*
X149703505Y-109565361D01*
X149720660Y-109508810D01*
X149726452Y-109450000D01*
X149725000Y-109180000D01*
X149650000Y-109105000D01*
X149005000Y-109105000D01*
X149005000Y-109125000D01*
X148995000Y-109125000D01*
X148995000Y-109105000D01*
X148350000Y-109105000D01*
X148275000Y-109180000D01*
X148273801Y-109402925D01*
X148259095Y-109400000D01*
X148140905Y-109400000D01*
X148076451Y-109412821D01*
X148076451Y-109250000D01*
X148068737Y-109171681D01*
X148045892Y-109096371D01*
X148019218Y-109046467D01*
X148273773Y-108791912D01*
X148275000Y-109020000D01*
X148350000Y-109095000D01*
X148995000Y-109095000D01*
X148995000Y-108525000D01*
X148943290Y-108473290D01*
X148965183Y-108432330D01*
X148992296Y-108342951D01*
X148999188Y-108272978D01*
X148998548Y-108425000D01*
X148998548Y-108425000D01*
G37*
X148998548Y-108425000D02*
X149004340Y-108483810D01*
X149014081Y-108515919D01*
X149005000Y-108525000D01*
X149005000Y-109095000D01*
X149650000Y-109095000D01*
X149725000Y-109020000D01*
X149726452Y-108750000D01*
X149723333Y-108718333D01*
X149730000Y-108725000D01*
X150000000Y-108726452D01*
X150058810Y-108720660D01*
X150115361Y-108703505D01*
X150167478Y-108675648D01*
X150213159Y-108638159D01*
X150250648Y-108592478D01*
X150278505Y-108540361D01*
X150295660Y-108483810D01*
X150300001Y-108439735D01*
X150300000Y-111666315D01*
X150225712Y-111740603D01*
X150106724Y-111704508D01*
X149965000Y-111690549D01*
X149115000Y-111690549D01*
X148973276Y-111704508D01*
X148836999Y-111745847D01*
X148711405Y-111812978D01*
X148601322Y-111903322D01*
X148510978Y-112013405D01*
X148443847Y-112138999D01*
X148402508Y-112275276D01*
X148388549Y-112417000D01*
X148388549Y-113175000D01*
X148150163Y-113175000D01*
X148150000Y-113072000D01*
X148075000Y-112997000D01*
X148034168Y-112997000D01*
X148029264Y-112987000D01*
X148075000Y-112987000D01*
X148150000Y-112912000D01*
X148151452Y-111992000D01*
X148145660Y-111933190D01*
X148128505Y-111876639D01*
X148100648Y-111824522D01*
X148063159Y-111778841D01*
X148017478Y-111741352D01*
X147965361Y-111713495D01*
X147908810Y-111696340D01*
X147850000Y-111690548D01*
X147080000Y-111692000D01*
X147005000Y-111767000D01*
X147005000Y-112347382D01*
X146995000Y-112348015D01*
X146995000Y-111767000D01*
X146920000Y-111692000D01*
X146150000Y-111690548D01*
X146091190Y-111696340D01*
X146034639Y-111713495D01*
X145982522Y-111741352D01*
X145936841Y-111778841D01*
X145899352Y-111824522D01*
X145871495Y-111876639D01*
X145854340Y-111933190D01*
X145848548Y-111992000D01*
X145850000Y-112912000D01*
X145925000Y-112987000D01*
X145968089Y-112987000D01*
X145962286Y-112997000D01*
X145925000Y-112997000D01*
X145850000Y-113072000D01*
X145849837Y-113175000D01*
X142682360Y-113175000D01*
X142721159Y-113143159D01*
X142758648Y-113097478D01*
X142786505Y-113045361D01*
X142803660Y-112988810D01*
X142809452Y-112930000D01*
X142808000Y-112160000D01*
X142733000Y-112085000D01*
X142152618Y-112085000D01*
X142151985Y-112075000D01*
X142733000Y-112075000D01*
X142808000Y-112000000D01*
X142809452Y-111230000D01*
X142803660Y-111171190D01*
X142786505Y-111114639D01*
X142758648Y-111062522D01*
X142721159Y-111016841D01*
X142675478Y-110979352D01*
X142623361Y-110951495D01*
X142566810Y-110934340D01*
X142508000Y-110928548D01*
X141588000Y-110930000D01*
X141513000Y-111005000D01*
X141513000Y-111048089D01*
X141503000Y-111042286D01*
X141503000Y-111005000D01*
X141428000Y-110930000D01*
X141325000Y-110929837D01*
X141325000Y-110691451D01*
X142083000Y-110691451D01*
X142224724Y-110677492D01*
X142361001Y-110636153D01*
X142486595Y-110569022D01*
X142596678Y-110478678D01*
X142687022Y-110368595D01*
X142754153Y-110243001D01*
X142795492Y-110106724D01*
X142809451Y-109965000D01*
X142809451Y-109900000D01*
X142984315Y-109900000D01*
X143573549Y-110489234D01*
X143573549Y-110825000D01*
X143582704Y-110917951D01*
X143609817Y-111007330D01*
X143653845Y-111089702D01*
X143713098Y-111161902D01*
X143785298Y-111221155D01*
X143867670Y-111265183D01*
X143957049Y-111292296D01*
X144050000Y-111301451D01*
X144550000Y-111301451D01*
X144642951Y-111292296D01*
X144732330Y-111265183D01*
X144814702Y-111221155D01*
X144886902Y-111161902D01*
X144946155Y-111089702D01*
X144980654Y-111025157D01*
X145011841Y-111063159D01*
X145057522Y-111100648D01*
X145109639Y-111128505D01*
X145166190Y-111145660D01*
X145225000Y-111151452D01*
X145470000Y-111150000D01*
X145545000Y-111075000D01*
X145545000Y-110655000D01*
X145525000Y-110655000D01*
X145525000Y-110645000D01*
X145545000Y-110645000D01*
X145545000Y-110625000D01*
X145555000Y-110625000D01*
X145555000Y-110645000D01*
X145575000Y-110645000D01*
X145575000Y-110655000D01*
X145555000Y-110655000D01*
X145555000Y-111075000D01*
X145630000Y-111150000D01*
X145875000Y-111151452D01*
X145933810Y-111145660D01*
X145990361Y-111128505D01*
X146042478Y-111100648D01*
X146088159Y-111063159D01*
X146125648Y-111017478D01*
X146153505Y-110965361D01*
X146156454Y-110955640D01*
X146168287Y-110984207D01*
X146233950Y-111082478D01*
X146317522Y-111166050D01*
X146415793Y-111231713D01*
X146524986Y-111276942D01*
X146640905Y-111300000D01*
X146759095Y-111300000D01*
X146875014Y-111276942D01*
X146984207Y-111231713D01*
X147082478Y-111166050D01*
X147114541Y-111133987D01*
X147146681Y-111143737D01*
X147225000Y-111151451D01*
X147675000Y-111151451D01*
X147753319Y-111143737D01*
X147828629Y-111120892D01*
X147898034Y-111083794D01*
X147958869Y-111033869D01*
X148008794Y-110973034D01*
X148045892Y-110903629D01*
X148068737Y-110828319D01*
X148076451Y-110750000D01*
X148076451Y-110587179D01*
X148140905Y-110600000D01*
X148259095Y-110600000D01*
X148275686Y-110596700D01*
X148282704Y-110667951D01*
X148309817Y-110757330D01*
X148353845Y-110839702D01*
X148413098Y-110911902D01*
X148485298Y-110971155D01*
X148567670Y-111015183D01*
X148657049Y-111042296D01*
X148750000Y-111051451D01*
X148995086Y-111051451D01*
X149000000Y-111051935D01*
X149004914Y-111051451D01*
X149250000Y-111051451D01*
X149342951Y-111042296D01*
X149432330Y-111015183D01*
X149514702Y-110971155D01*
X149586902Y-110911902D01*
X149646155Y-110839702D01*
X149690183Y-110757330D01*
X149717296Y-110667951D01*
X149726451Y-110575000D01*
X149726451Y-110225000D01*
X149717296Y-110132049D01*
X149690183Y-110042670D01*
X149646155Y-109960298D01*
X149586902Y-109888098D01*
X149514702Y-109828845D01*
X149432330Y-109784817D01*
X149342951Y-109757704D01*
X149272978Y-109750812D01*
X149425000Y-109751452D01*
X149483810Y-109745660D01*
X149540361Y-109728505D01*
X149592478Y-109700648D01*
X149638159Y-109663159D01*
X149675648Y-109617478D01*
X149703505Y-109565361D01*
X149720660Y-109508810D01*
X149726452Y-109450000D01*
X149725000Y-109180000D01*
X149650000Y-109105000D01*
X149005000Y-109105000D01*
X149005000Y-109125000D01*
X148995000Y-109125000D01*
X148995000Y-109105000D01*
X148350000Y-109105000D01*
X148275000Y-109180000D01*
X148273801Y-109402925D01*
X148259095Y-109400000D01*
X148140905Y-109400000D01*
X148076451Y-109412821D01*
X148076451Y-109250000D01*
X148068737Y-109171681D01*
X148045892Y-109096371D01*
X148019218Y-109046467D01*
X148273773Y-108791912D01*
X148275000Y-109020000D01*
X148350000Y-109095000D01*
X148995000Y-109095000D01*
X148995000Y-108525000D01*
X148943290Y-108473290D01*
X148965183Y-108432330D01*
X148992296Y-108342951D01*
X148999188Y-108272978D01*
X148998548Y-108425000D01*
G36*
X152305000Y-109495000D02*
G01*
X152325000Y-109495000D01*
X152325000Y-109505000D01*
X152305000Y-109505000D01*
X152305000Y-110374983D01*
X152430084Y-110439353D01*
X152451169Y-110435604D01*
X152601528Y-110391017D01*
X152740299Y-110317953D01*
X152862150Y-110219220D01*
X152900000Y-110173683D01*
X152900001Y-111747430D01*
X152897581Y-111772000D01*
X152901229Y-111809041D01*
X152783001Y-111745847D01*
X152646724Y-111704508D01*
X152505000Y-111690549D01*
X151655000Y-111690549D01*
X151565090Y-111699405D01*
X151500000Y-111634315D01*
X151500000Y-109655000D01*
X151516347Y-109810976D01*
X151562810Y-109960766D01*
X151637602Y-110098613D01*
X151737850Y-110219220D01*
X151859701Y-110317953D01*
X151998472Y-110391017D01*
X152148831Y-110435604D01*
X152169916Y-110439353D01*
X152295000Y-110374983D01*
X152295000Y-109505000D01*
X152275000Y-109505000D01*
X152275000Y-109495000D01*
X152295000Y-109495000D01*
X152295000Y-109475000D01*
X152305000Y-109475000D01*
X152305000Y-109495000D01*
X152305000Y-109495000D01*
G37*
X152305000Y-109495000D02*
X152325000Y-109495000D01*
X152325000Y-109505000D01*
X152305000Y-109505000D01*
X152305000Y-110374983D01*
X152430084Y-110439353D01*
X152451169Y-110435604D01*
X152601528Y-110391017D01*
X152740299Y-110317953D01*
X152862150Y-110219220D01*
X152900000Y-110173683D01*
X152900001Y-111747430D01*
X152897581Y-111772000D01*
X152901229Y-111809041D01*
X152783001Y-111745847D01*
X152646724Y-111704508D01*
X152505000Y-111690549D01*
X151655000Y-111690549D01*
X151565090Y-111699405D01*
X151500000Y-111634315D01*
X151500000Y-109655000D01*
X151516347Y-109810976D01*
X151562810Y-109960766D01*
X151637602Y-110098613D01*
X151737850Y-110219220D01*
X151859701Y-110317953D01*
X151998472Y-110391017D01*
X152148831Y-110435604D01*
X152169916Y-110439353D01*
X152295000Y-110374983D01*
X152295000Y-109505000D01*
X152275000Y-109505000D01*
X152275000Y-109495000D01*
X152295000Y-109495000D01*
X152295000Y-109475000D01*
X152305000Y-109475000D01*
X152305000Y-109495000D01*
G36*
X150534315Y-107000000D02*
G01*
X150431048Y-107103267D01*
X150415790Y-107115789D01*
X150403268Y-107131047D01*
X150403265Y-107131050D01*
X150365803Y-107176698D01*
X150328661Y-107246186D01*
X150305788Y-107321587D01*
X150298065Y-107400000D01*
X150300001Y-107419656D01*
X150300001Y-107560267D01*
X150295660Y-107516190D01*
X150278505Y-107459639D01*
X150250648Y-107407522D01*
X150213159Y-107361841D01*
X150167478Y-107324352D01*
X150115361Y-107296495D01*
X150058810Y-107279340D01*
X150000000Y-107273548D01*
X149730000Y-107275000D01*
X149655000Y-107350000D01*
X149655000Y-107995000D01*
X149675000Y-107995000D01*
X149675000Y-108005000D01*
X149655000Y-108005000D01*
X149655000Y-108025000D01*
X149645000Y-108025000D01*
X149645000Y-108005000D01*
X149625000Y-108005000D01*
X149625000Y-107995000D01*
X149645000Y-107995000D01*
X149645000Y-107350000D01*
X149570000Y-107275000D01*
X149300000Y-107273548D01*
X149297068Y-107273837D01*
X149300000Y-107259095D01*
X149300000Y-107140905D01*
X149276942Y-107024986D01*
X149231713Y-106915793D01*
X149166050Y-106817522D01*
X149082478Y-106733950D01*
X148984207Y-106668287D01*
X148875014Y-106623058D01*
X148759095Y-106600000D01*
X148640905Y-106600000D01*
X148524986Y-106623058D01*
X148415793Y-106668287D01*
X148317522Y-106733950D01*
X148233950Y-106817522D01*
X148168287Y-106915793D01*
X148123058Y-107024986D01*
X148100000Y-107140905D01*
X148100000Y-107259095D01*
X148104261Y-107280516D01*
X148082049Y-107282704D01*
X147992670Y-107309817D01*
X147910298Y-107353845D01*
X147838098Y-107413098D01*
X147784280Y-107478676D01*
X147778505Y-107459639D01*
X147750648Y-107407522D01*
X147713159Y-107361841D01*
X147667478Y-107324352D01*
X147615361Y-107296495D01*
X147558810Y-107279340D01*
X147500000Y-107273548D01*
X147230000Y-107275000D01*
X147155000Y-107350000D01*
X147155000Y-107995000D01*
X147175000Y-107995000D01*
X147175000Y-108005000D01*
X147155000Y-108005000D01*
X147155000Y-108650000D01*
X147219657Y-108714657D01*
X147181048Y-108753267D01*
X147165790Y-108765789D01*
X147153268Y-108781047D01*
X147153265Y-108781050D01*
X147123543Y-108817267D01*
X147115804Y-108826697D01*
X147090966Y-108873164D01*
X147071371Y-108879108D01*
X147001966Y-108916206D01*
X146941131Y-108966131D01*
X146891206Y-109026966D01*
X146854108Y-109096371D01*
X146831263Y-109171681D01*
X146823549Y-109250000D01*
X146823549Y-109450000D01*
X146831263Y-109528319D01*
X146853007Y-109600000D01*
X146146993Y-109600000D01*
X146168737Y-109528319D01*
X146176451Y-109450000D01*
X146176451Y-109250000D01*
X146168737Y-109171681D01*
X146145892Y-109096371D01*
X146108794Y-109026966D01*
X146058869Y-108966131D01*
X145998034Y-108916206D01*
X145950000Y-108890531D01*
X145950000Y-108726451D01*
X146025000Y-108726451D01*
X146117951Y-108717296D01*
X146207330Y-108690183D01*
X146289702Y-108646155D01*
X146361902Y-108586902D01*
X146421155Y-108514702D01*
X146465183Y-108432330D01*
X146492296Y-108342951D01*
X146499188Y-108272978D01*
X146498548Y-108425000D01*
X146504340Y-108483810D01*
X146521495Y-108540361D01*
X146549352Y-108592478D01*
X146586841Y-108638159D01*
X146632522Y-108675648D01*
X146684639Y-108703505D01*
X146741190Y-108720660D01*
X146800000Y-108726452D01*
X147070000Y-108725000D01*
X147145000Y-108650000D01*
X147145000Y-108005000D01*
X147125000Y-108005000D01*
X147125000Y-107995000D01*
X147145000Y-107995000D01*
X147145000Y-107350000D01*
X147070000Y-107275000D01*
X146800000Y-107273548D01*
X146741190Y-107279340D01*
X146684639Y-107296495D01*
X146632522Y-107324352D01*
X146586841Y-107361841D01*
X146549352Y-107407522D01*
X146521495Y-107459639D01*
X146504340Y-107516190D01*
X146498548Y-107575000D01*
X146499188Y-107727022D01*
X146492296Y-107657049D01*
X146465183Y-107567670D01*
X146421155Y-107485298D01*
X146361902Y-107413098D01*
X146329324Y-107386362D01*
X146443953Y-107271733D01*
X146459211Y-107259211D01*
X146489045Y-107222859D01*
X146509197Y-107198303D01*
X146539031Y-107142490D01*
X146559639Y-107153505D01*
X146616190Y-107170660D01*
X146675000Y-107176452D01*
X146745000Y-107175000D01*
X146820000Y-107100000D01*
X146820000Y-106455000D01*
X146800000Y-106455000D01*
X146800000Y-106445000D01*
X146820000Y-106445000D01*
X146820000Y-106425000D01*
X146830000Y-106425000D01*
X146830000Y-106445000D01*
X146850000Y-106445000D01*
X146850000Y-106455000D01*
X146830000Y-106455000D01*
X146830000Y-107100000D01*
X146905000Y-107175000D01*
X146975000Y-107176452D01*
X147033810Y-107170660D01*
X147090361Y-107153505D01*
X147142478Y-107125648D01*
X147174368Y-107099477D01*
X147190855Y-107113008D01*
X147255938Y-107147795D01*
X147326558Y-107169218D01*
X147400000Y-107176451D01*
X147550000Y-107176451D01*
X147623442Y-107169218D01*
X147694062Y-107147795D01*
X147759145Y-107113008D01*
X147816191Y-107066191D01*
X147863008Y-107009145D01*
X147897795Y-106944062D01*
X147919218Y-106873442D01*
X147926451Y-106800000D01*
X147926451Y-106100000D01*
X147919218Y-106026558D01*
X147897795Y-105955938D01*
X147863008Y-105890855D01*
X147816191Y-105833809D01*
X147759145Y-105786992D01*
X147743989Y-105778891D01*
X147763159Y-105763159D01*
X147778891Y-105743989D01*
X147786992Y-105759145D01*
X147833809Y-105816191D01*
X147890855Y-105863008D01*
X147955938Y-105897795D01*
X148026558Y-105919218D01*
X148100000Y-105926451D01*
X148800000Y-105926451D01*
X148873442Y-105919218D01*
X148944062Y-105897795D01*
X149009145Y-105863008D01*
X149066191Y-105816191D01*
X149113008Y-105759145D01*
X149147795Y-105694062D01*
X149166550Y-105632235D01*
X150534315Y-107000000D01*
X150534315Y-107000000D01*
G37*
X150534315Y-107000000D02*
X150431048Y-107103267D01*
X150415790Y-107115789D01*
X150403268Y-107131047D01*
X150403265Y-107131050D01*
X150365803Y-107176698D01*
X150328661Y-107246186D01*
X150305788Y-107321587D01*
X150298065Y-107400000D01*
X150300001Y-107419656D01*
X150300001Y-107560267D01*
X150295660Y-107516190D01*
X150278505Y-107459639D01*
X150250648Y-107407522D01*
X150213159Y-107361841D01*
X150167478Y-107324352D01*
X150115361Y-107296495D01*
X150058810Y-107279340D01*
X150000000Y-107273548D01*
X149730000Y-107275000D01*
X149655000Y-107350000D01*
X149655000Y-107995000D01*
X149675000Y-107995000D01*
X149675000Y-108005000D01*
X149655000Y-108005000D01*
X149655000Y-108025000D01*
X149645000Y-108025000D01*
X149645000Y-108005000D01*
X149625000Y-108005000D01*
X149625000Y-107995000D01*
X149645000Y-107995000D01*
X149645000Y-107350000D01*
X149570000Y-107275000D01*
X149300000Y-107273548D01*
X149297068Y-107273837D01*
X149300000Y-107259095D01*
X149300000Y-107140905D01*
X149276942Y-107024986D01*
X149231713Y-106915793D01*
X149166050Y-106817522D01*
X149082478Y-106733950D01*
X148984207Y-106668287D01*
X148875014Y-106623058D01*
X148759095Y-106600000D01*
X148640905Y-106600000D01*
X148524986Y-106623058D01*
X148415793Y-106668287D01*
X148317522Y-106733950D01*
X148233950Y-106817522D01*
X148168287Y-106915793D01*
X148123058Y-107024986D01*
X148100000Y-107140905D01*
X148100000Y-107259095D01*
X148104261Y-107280516D01*
X148082049Y-107282704D01*
X147992670Y-107309817D01*
X147910298Y-107353845D01*
X147838098Y-107413098D01*
X147784280Y-107478676D01*
X147778505Y-107459639D01*
X147750648Y-107407522D01*
X147713159Y-107361841D01*
X147667478Y-107324352D01*
X147615361Y-107296495D01*
X147558810Y-107279340D01*
X147500000Y-107273548D01*
X147230000Y-107275000D01*
X147155000Y-107350000D01*
X147155000Y-107995000D01*
X147175000Y-107995000D01*
X147175000Y-108005000D01*
X147155000Y-108005000D01*
X147155000Y-108650000D01*
X147219657Y-108714657D01*
X147181048Y-108753267D01*
X147165790Y-108765789D01*
X147153268Y-108781047D01*
X147153265Y-108781050D01*
X147123543Y-108817267D01*
X147115804Y-108826697D01*
X147090966Y-108873164D01*
X147071371Y-108879108D01*
X147001966Y-108916206D01*
X146941131Y-108966131D01*
X146891206Y-109026966D01*
X146854108Y-109096371D01*
X146831263Y-109171681D01*
X146823549Y-109250000D01*
X146823549Y-109450000D01*
X146831263Y-109528319D01*
X146853007Y-109600000D01*
X146146993Y-109600000D01*
X146168737Y-109528319D01*
X146176451Y-109450000D01*
X146176451Y-109250000D01*
X146168737Y-109171681D01*
X146145892Y-109096371D01*
X146108794Y-109026966D01*
X146058869Y-108966131D01*
X145998034Y-108916206D01*
X145950000Y-108890531D01*
X145950000Y-108726451D01*
X146025000Y-108726451D01*
X146117951Y-108717296D01*
X146207330Y-108690183D01*
X146289702Y-108646155D01*
X146361902Y-108586902D01*
X146421155Y-108514702D01*
X146465183Y-108432330D01*
X146492296Y-108342951D01*
X146499188Y-108272978D01*
X146498548Y-108425000D01*
X146504340Y-108483810D01*
X146521495Y-108540361D01*
X146549352Y-108592478D01*
X146586841Y-108638159D01*
X146632522Y-108675648D01*
X146684639Y-108703505D01*
X146741190Y-108720660D01*
X146800000Y-108726452D01*
X147070000Y-108725000D01*
X147145000Y-108650000D01*
X147145000Y-108005000D01*
X147125000Y-108005000D01*
X147125000Y-107995000D01*
X147145000Y-107995000D01*
X147145000Y-107350000D01*
X147070000Y-107275000D01*
X146800000Y-107273548D01*
X146741190Y-107279340D01*
X146684639Y-107296495D01*
X146632522Y-107324352D01*
X146586841Y-107361841D01*
X146549352Y-107407522D01*
X146521495Y-107459639D01*
X146504340Y-107516190D01*
X146498548Y-107575000D01*
X146499188Y-107727022D01*
X146492296Y-107657049D01*
X146465183Y-107567670D01*
X146421155Y-107485298D01*
X146361902Y-107413098D01*
X146329324Y-107386362D01*
X146443953Y-107271733D01*
X146459211Y-107259211D01*
X146489045Y-107222859D01*
X146509197Y-107198303D01*
X146539031Y-107142490D01*
X146559639Y-107153505D01*
X146616190Y-107170660D01*
X146675000Y-107176452D01*
X146745000Y-107175000D01*
X146820000Y-107100000D01*
X146820000Y-106455000D01*
X146800000Y-106455000D01*
X146800000Y-106445000D01*
X146820000Y-106445000D01*
X146820000Y-106425000D01*
X146830000Y-106425000D01*
X146830000Y-106445000D01*
X146850000Y-106445000D01*
X146850000Y-106455000D01*
X146830000Y-106455000D01*
X146830000Y-107100000D01*
X146905000Y-107175000D01*
X146975000Y-107176452D01*
X147033810Y-107170660D01*
X147090361Y-107153505D01*
X147142478Y-107125648D01*
X147174368Y-107099477D01*
X147190855Y-107113008D01*
X147255938Y-107147795D01*
X147326558Y-107169218D01*
X147400000Y-107176451D01*
X147550000Y-107176451D01*
X147623442Y-107169218D01*
X147694062Y-107147795D01*
X147759145Y-107113008D01*
X147816191Y-107066191D01*
X147863008Y-107009145D01*
X147897795Y-106944062D01*
X147919218Y-106873442D01*
X147926451Y-106800000D01*
X147926451Y-106100000D01*
X147919218Y-106026558D01*
X147897795Y-105955938D01*
X147863008Y-105890855D01*
X147816191Y-105833809D01*
X147759145Y-105786992D01*
X147743989Y-105778891D01*
X147763159Y-105763159D01*
X147778891Y-105743989D01*
X147786992Y-105759145D01*
X147833809Y-105816191D01*
X147890855Y-105863008D01*
X147955938Y-105897795D01*
X148026558Y-105919218D01*
X148100000Y-105926451D01*
X148800000Y-105926451D01*
X148873442Y-105919218D01*
X148944062Y-105897795D01*
X149009145Y-105863008D01*
X149066191Y-105816191D01*
X149113008Y-105759145D01*
X149147795Y-105694062D01*
X149166550Y-105632235D01*
X150534315Y-107000000D01*
G36*
X143713098Y-100361902D02*
G01*
X143785298Y-100421155D01*
X143867670Y-100465183D01*
X143957049Y-100492296D01*
X144035268Y-100500000D01*
X143957049Y-100507704D01*
X143867670Y-100534817D01*
X143785298Y-100578845D01*
X143713098Y-100638098D01*
X143653845Y-100710298D01*
X143609817Y-100792670D01*
X143582704Y-100882049D01*
X143573549Y-100975000D01*
X143573549Y-101310766D01*
X143531047Y-101353268D01*
X143515790Y-101365789D01*
X143503268Y-101381047D01*
X143503265Y-101381050D01*
X143465803Y-101426698D01*
X143428661Y-101496186D01*
X143405788Y-101571587D01*
X143398065Y-101650000D01*
X143400001Y-101669656D01*
X143400000Y-104580353D01*
X143398065Y-104600000D01*
X143400000Y-104619646D01*
X143405788Y-104678413D01*
X143428660Y-104753813D01*
X143465803Y-104823302D01*
X143515789Y-104884211D01*
X143531052Y-104896737D01*
X143728263Y-105093948D01*
X143740789Y-105109211D01*
X143801697Y-105159197D01*
X143871186Y-105196340D01*
X143882264Y-105199700D01*
X143852205Y-105255938D01*
X143830782Y-105326558D01*
X143823549Y-105400000D01*
X143823549Y-105550000D01*
X143830782Y-105623442D01*
X143852205Y-105694062D01*
X143886992Y-105759145D01*
X143933809Y-105816191D01*
X143990855Y-105863008D01*
X144055938Y-105897795D01*
X144126558Y-105919218D01*
X144200000Y-105926451D01*
X144528745Y-105926451D01*
X144517522Y-105933950D01*
X144433950Y-106017522D01*
X144368287Y-106115793D01*
X144323058Y-106224986D01*
X144300000Y-106340905D01*
X144300000Y-106459095D01*
X144323058Y-106575014D01*
X144368287Y-106684207D01*
X144433950Y-106782478D01*
X144517522Y-106866050D01*
X144615793Y-106931713D01*
X144724986Y-106976942D01*
X144840905Y-107000000D01*
X144959095Y-107000000D01*
X145075014Y-106976942D01*
X145111665Y-106961761D01*
X145136992Y-107009145D01*
X145155657Y-107031889D01*
X144531052Y-107656495D01*
X144515789Y-107669021D01*
X144465803Y-107729930D01*
X144428660Y-107799419D01*
X144415524Y-107842723D01*
X144405788Y-107874819D01*
X144398065Y-107953232D01*
X144400000Y-107972879D01*
X144400000Y-108051472D01*
X144333950Y-108117522D01*
X144268287Y-108215793D01*
X144223058Y-108324986D01*
X144200000Y-108440905D01*
X144200000Y-108559095D01*
X144223058Y-108675014D01*
X144232806Y-108698549D01*
X144050000Y-108698549D01*
X143957049Y-108707704D01*
X143867670Y-108734817D01*
X143785298Y-108778845D01*
X143713098Y-108838098D01*
X143653845Y-108910298D01*
X143609817Y-108992670D01*
X143582704Y-109082049D01*
X143573549Y-109175000D01*
X143573549Y-109357864D01*
X143446737Y-109231052D01*
X143434211Y-109215789D01*
X143373303Y-109165803D01*
X143303814Y-109128660D01*
X143228414Y-109105788D01*
X143169647Y-109100000D01*
X143169646Y-109100000D01*
X143150000Y-109098065D01*
X143130354Y-109100000D01*
X142807974Y-109100000D01*
X142795492Y-108973276D01*
X142754153Y-108836999D01*
X142687022Y-108711405D01*
X142596678Y-108601322D01*
X142486595Y-108510978D01*
X142361001Y-108443847D01*
X142224724Y-108402508D01*
X142083000Y-108388549D01*
X141325000Y-108388549D01*
X141325000Y-108151451D01*
X142083000Y-108151451D01*
X142224724Y-108137492D01*
X142361001Y-108096153D01*
X142486595Y-108029022D01*
X142596678Y-107938678D01*
X142687022Y-107828595D01*
X142754153Y-107703001D01*
X142795492Y-107566724D01*
X142809451Y-107425000D01*
X142809451Y-106575000D01*
X142795492Y-106433276D01*
X142754153Y-106296999D01*
X142687022Y-106171405D01*
X142596678Y-106061322D01*
X142486595Y-105970978D01*
X142361001Y-105903847D01*
X142224724Y-105862508D01*
X142083000Y-105848549D01*
X141325000Y-105848549D01*
X141325000Y-105230163D01*
X141428000Y-105230000D01*
X141503000Y-105155000D01*
X141503000Y-105114168D01*
X141513000Y-105109264D01*
X141513000Y-105155000D01*
X141588000Y-105230000D01*
X142508000Y-105231452D01*
X142566810Y-105225660D01*
X142623361Y-105208505D01*
X142675478Y-105180648D01*
X142721159Y-105143159D01*
X142758648Y-105097478D01*
X142786505Y-105045361D01*
X142803660Y-104988810D01*
X142809452Y-104930000D01*
X142808000Y-104160000D01*
X142733000Y-104085000D01*
X142152618Y-104085000D01*
X142151985Y-104075000D01*
X142733000Y-104075000D01*
X142808000Y-104000000D01*
X142809452Y-103230000D01*
X142803660Y-103171190D01*
X142786505Y-103114639D01*
X142758648Y-103062522D01*
X142721159Y-103016841D01*
X142675478Y-102979352D01*
X142623361Y-102951495D01*
X142566810Y-102934340D01*
X142508000Y-102928548D01*
X141588000Y-102930000D01*
X141513000Y-103005000D01*
X141513000Y-103048089D01*
X141503000Y-103042286D01*
X141503000Y-103005000D01*
X141428000Y-102930000D01*
X141325000Y-102929837D01*
X141325000Y-102691451D01*
X142083000Y-102691451D01*
X142224724Y-102677492D01*
X142361001Y-102636153D01*
X142486595Y-102569022D01*
X142596678Y-102478678D01*
X142687022Y-102368595D01*
X142754153Y-102243001D01*
X142795492Y-102106724D01*
X142809451Y-101965000D01*
X142809451Y-101216234D01*
X143690869Y-100334816D01*
X143713098Y-100361902D01*
X143713098Y-100361902D01*
G37*
X143713098Y-100361902D02*
X143785298Y-100421155D01*
X143867670Y-100465183D01*
X143957049Y-100492296D01*
X144035268Y-100500000D01*
X143957049Y-100507704D01*
X143867670Y-100534817D01*
X143785298Y-100578845D01*
X143713098Y-100638098D01*
X143653845Y-100710298D01*
X143609817Y-100792670D01*
X143582704Y-100882049D01*
X143573549Y-100975000D01*
X143573549Y-101310766D01*
X143531047Y-101353268D01*
X143515790Y-101365789D01*
X143503268Y-101381047D01*
X143503265Y-101381050D01*
X143465803Y-101426698D01*
X143428661Y-101496186D01*
X143405788Y-101571587D01*
X143398065Y-101650000D01*
X143400001Y-101669656D01*
X143400000Y-104580353D01*
X143398065Y-104600000D01*
X143400000Y-104619646D01*
X143405788Y-104678413D01*
X143428660Y-104753813D01*
X143465803Y-104823302D01*
X143515789Y-104884211D01*
X143531052Y-104896737D01*
X143728263Y-105093948D01*
X143740789Y-105109211D01*
X143801697Y-105159197D01*
X143871186Y-105196340D01*
X143882264Y-105199700D01*
X143852205Y-105255938D01*
X143830782Y-105326558D01*
X143823549Y-105400000D01*
X143823549Y-105550000D01*
X143830782Y-105623442D01*
X143852205Y-105694062D01*
X143886992Y-105759145D01*
X143933809Y-105816191D01*
X143990855Y-105863008D01*
X144055938Y-105897795D01*
X144126558Y-105919218D01*
X144200000Y-105926451D01*
X144528745Y-105926451D01*
X144517522Y-105933950D01*
X144433950Y-106017522D01*
X144368287Y-106115793D01*
X144323058Y-106224986D01*
X144300000Y-106340905D01*
X144300000Y-106459095D01*
X144323058Y-106575014D01*
X144368287Y-106684207D01*
X144433950Y-106782478D01*
X144517522Y-106866050D01*
X144615793Y-106931713D01*
X144724986Y-106976942D01*
X144840905Y-107000000D01*
X144959095Y-107000000D01*
X145075014Y-106976942D01*
X145111665Y-106961761D01*
X145136992Y-107009145D01*
X145155657Y-107031889D01*
X144531052Y-107656495D01*
X144515789Y-107669021D01*
X144465803Y-107729930D01*
X144428660Y-107799419D01*
X144415524Y-107842723D01*
X144405788Y-107874819D01*
X144398065Y-107953232D01*
X144400000Y-107972879D01*
X144400000Y-108051472D01*
X144333950Y-108117522D01*
X144268287Y-108215793D01*
X144223058Y-108324986D01*
X144200000Y-108440905D01*
X144200000Y-108559095D01*
X144223058Y-108675014D01*
X144232806Y-108698549D01*
X144050000Y-108698549D01*
X143957049Y-108707704D01*
X143867670Y-108734817D01*
X143785298Y-108778845D01*
X143713098Y-108838098D01*
X143653845Y-108910298D01*
X143609817Y-108992670D01*
X143582704Y-109082049D01*
X143573549Y-109175000D01*
X143573549Y-109357864D01*
X143446737Y-109231052D01*
X143434211Y-109215789D01*
X143373303Y-109165803D01*
X143303814Y-109128660D01*
X143228414Y-109105788D01*
X143169647Y-109100000D01*
X143169646Y-109100000D01*
X143150000Y-109098065D01*
X143130354Y-109100000D01*
X142807974Y-109100000D01*
X142795492Y-108973276D01*
X142754153Y-108836999D01*
X142687022Y-108711405D01*
X142596678Y-108601322D01*
X142486595Y-108510978D01*
X142361001Y-108443847D01*
X142224724Y-108402508D01*
X142083000Y-108388549D01*
X141325000Y-108388549D01*
X141325000Y-108151451D01*
X142083000Y-108151451D01*
X142224724Y-108137492D01*
X142361001Y-108096153D01*
X142486595Y-108029022D01*
X142596678Y-107938678D01*
X142687022Y-107828595D01*
X142754153Y-107703001D01*
X142795492Y-107566724D01*
X142809451Y-107425000D01*
X142809451Y-106575000D01*
X142795492Y-106433276D01*
X142754153Y-106296999D01*
X142687022Y-106171405D01*
X142596678Y-106061322D01*
X142486595Y-105970978D01*
X142361001Y-105903847D01*
X142224724Y-105862508D01*
X142083000Y-105848549D01*
X141325000Y-105848549D01*
X141325000Y-105230163D01*
X141428000Y-105230000D01*
X141503000Y-105155000D01*
X141503000Y-105114168D01*
X141513000Y-105109264D01*
X141513000Y-105155000D01*
X141588000Y-105230000D01*
X142508000Y-105231452D01*
X142566810Y-105225660D01*
X142623361Y-105208505D01*
X142675478Y-105180648D01*
X142721159Y-105143159D01*
X142758648Y-105097478D01*
X142786505Y-105045361D01*
X142803660Y-104988810D01*
X142809452Y-104930000D01*
X142808000Y-104160000D01*
X142733000Y-104085000D01*
X142152618Y-104085000D01*
X142151985Y-104075000D01*
X142733000Y-104075000D01*
X142808000Y-104000000D01*
X142809452Y-103230000D01*
X142803660Y-103171190D01*
X142786505Y-103114639D01*
X142758648Y-103062522D01*
X142721159Y-103016841D01*
X142675478Y-102979352D01*
X142623361Y-102951495D01*
X142566810Y-102934340D01*
X142508000Y-102928548D01*
X141588000Y-102930000D01*
X141513000Y-103005000D01*
X141513000Y-103048089D01*
X141503000Y-103042286D01*
X141503000Y-103005000D01*
X141428000Y-102930000D01*
X141325000Y-102929837D01*
X141325000Y-102691451D01*
X142083000Y-102691451D01*
X142224724Y-102677492D01*
X142361001Y-102636153D01*
X142486595Y-102569022D01*
X142596678Y-102478678D01*
X142687022Y-102368595D01*
X142754153Y-102243001D01*
X142795492Y-102106724D01*
X142809451Y-101965000D01*
X142809451Y-101216234D01*
X143690869Y-100334816D01*
X143713098Y-100361902D01*
G36*
X146505000Y-104495000D02*
G01*
X146525000Y-104495000D01*
X146525000Y-104505000D01*
X146505000Y-104505000D01*
X146505000Y-104525000D01*
X146495000Y-104525000D01*
X146495000Y-104505000D01*
X146475000Y-104505000D01*
X146475000Y-104495000D01*
X146495000Y-104495000D01*
X146495000Y-104475000D01*
X146505000Y-104475000D01*
X146505000Y-104495000D01*
X146505000Y-104495000D01*
G37*
X146505000Y-104495000D02*
X146525000Y-104495000D01*
X146525000Y-104505000D01*
X146505000Y-104505000D01*
X146505000Y-104525000D01*
X146495000Y-104525000D01*
X146495000Y-104505000D01*
X146475000Y-104505000D01*
X146475000Y-104495000D01*
X146495000Y-104495000D01*
X146495000Y-104475000D01*
X146505000Y-104475000D01*
X146505000Y-104495000D01*
G36*
X147025022Y-98773549D02*
G01*
X146975000Y-98773549D01*
X146882049Y-98782704D01*
X146792670Y-98809817D01*
X146710298Y-98853845D01*
X146638098Y-98913098D01*
X146578845Y-98985298D01*
X146534817Y-99067670D01*
X146507704Y-99157049D01*
X146500812Y-99227022D01*
X146501452Y-99075000D01*
X146495660Y-99016190D01*
X146478505Y-98959639D01*
X146450648Y-98907522D01*
X146413159Y-98861841D01*
X146367478Y-98824352D01*
X146315361Y-98796495D01*
X146258810Y-98779340D01*
X146200000Y-98773548D01*
X145930000Y-98775000D01*
X145855000Y-98850000D01*
X145855000Y-99495000D01*
X145875000Y-99495000D01*
X145875000Y-99505000D01*
X145855000Y-99505000D01*
X145855000Y-100150000D01*
X145930000Y-100225000D01*
X146200000Y-100226452D01*
X146258810Y-100220660D01*
X146315361Y-100203505D01*
X146367478Y-100175648D01*
X146413159Y-100138159D01*
X146450648Y-100092478D01*
X146478505Y-100040361D01*
X146495660Y-99983810D01*
X146501452Y-99925000D01*
X146500812Y-99772978D01*
X146507704Y-99842951D01*
X146534817Y-99932330D01*
X146578845Y-100014702D01*
X146638098Y-100086902D01*
X146700001Y-100137704D01*
X146700000Y-100362296D01*
X146638098Y-100413098D01*
X146578845Y-100485298D01*
X146534817Y-100567670D01*
X146507704Y-100657049D01*
X146500812Y-100727022D01*
X146501452Y-100575000D01*
X146495660Y-100516190D01*
X146478505Y-100459639D01*
X146450648Y-100407522D01*
X146413159Y-100361841D01*
X146367478Y-100324352D01*
X146315361Y-100296495D01*
X146258810Y-100279340D01*
X146200000Y-100273548D01*
X145930000Y-100275000D01*
X145855000Y-100350000D01*
X145855000Y-100995000D01*
X145875000Y-100995000D01*
X145875000Y-101005000D01*
X145855000Y-101005000D01*
X145855000Y-101650000D01*
X145930000Y-101725000D01*
X146200000Y-101726452D01*
X146258810Y-101720660D01*
X146315361Y-101703505D01*
X146367478Y-101675648D01*
X146413159Y-101638159D01*
X146425001Y-101623730D01*
X146425001Y-101868742D01*
X146394062Y-101852205D01*
X146323442Y-101830782D01*
X146250000Y-101823549D01*
X146100000Y-101823549D01*
X146026558Y-101830782D01*
X145955938Y-101852205D01*
X145890855Y-101886992D01*
X145850000Y-101920521D01*
X145809145Y-101886992D01*
X145744062Y-101852205D01*
X145673442Y-101830782D01*
X145600000Y-101823549D01*
X145450000Y-101823549D01*
X145376558Y-101830782D01*
X145305938Y-101852205D01*
X145240855Y-101886992D01*
X145183809Y-101933809D01*
X145136992Y-101990855D01*
X145102205Y-102055938D01*
X145080782Y-102126558D01*
X145073549Y-102200000D01*
X145073549Y-102900000D01*
X145080782Y-102973442D01*
X145102205Y-103044062D01*
X145136992Y-103109145D01*
X145163901Y-103141933D01*
X145142478Y-103124352D01*
X145090361Y-103096495D01*
X145033810Y-103079340D01*
X144975000Y-103073548D01*
X144630000Y-103075000D01*
X144555000Y-103150000D01*
X144555000Y-103520000D01*
X144575000Y-103520000D01*
X144575000Y-103530000D01*
X144555000Y-103530000D01*
X144555000Y-103550000D01*
X144545000Y-103550000D01*
X144545000Y-103530000D01*
X144525000Y-103530000D01*
X144525000Y-103520000D01*
X144545000Y-103520000D01*
X144545000Y-103150000D01*
X144470000Y-103075000D01*
X144200000Y-103073864D01*
X144200000Y-101815685D01*
X144214234Y-101801451D01*
X144550000Y-101801451D01*
X144642951Y-101792296D01*
X144732330Y-101765183D01*
X144814702Y-101721155D01*
X144886902Y-101661902D01*
X144946155Y-101589702D01*
X144990183Y-101507330D01*
X145015157Y-101425000D01*
X145198548Y-101425000D01*
X145204340Y-101483810D01*
X145221495Y-101540361D01*
X145249352Y-101592478D01*
X145286841Y-101638159D01*
X145332522Y-101675648D01*
X145384639Y-101703505D01*
X145441190Y-101720660D01*
X145500000Y-101726452D01*
X145770000Y-101725000D01*
X145845000Y-101650000D01*
X145845000Y-101005000D01*
X145275000Y-101005000D01*
X145200000Y-101080000D01*
X145198548Y-101425000D01*
X145015157Y-101425000D01*
X145017296Y-101417951D01*
X145026451Y-101325000D01*
X145026451Y-100975000D01*
X145017296Y-100882049D01*
X144990183Y-100792670D01*
X144946155Y-100710298D01*
X144886902Y-100638098D01*
X144814702Y-100578845D01*
X144807509Y-100575000D01*
X145198548Y-100575000D01*
X145200000Y-100920000D01*
X145275000Y-100995000D01*
X145845000Y-100995000D01*
X145845000Y-100350000D01*
X145770000Y-100275000D01*
X145500000Y-100273548D01*
X145441190Y-100279340D01*
X145384639Y-100296495D01*
X145332522Y-100324352D01*
X145286841Y-100361841D01*
X145249352Y-100407522D01*
X145221495Y-100459639D01*
X145204340Y-100516190D01*
X145198548Y-100575000D01*
X144807509Y-100575000D01*
X144732330Y-100534817D01*
X144642951Y-100507704D01*
X144564732Y-100500000D01*
X144642951Y-100492296D01*
X144732330Y-100465183D01*
X144814702Y-100421155D01*
X144886902Y-100361902D01*
X144946155Y-100289702D01*
X144990183Y-100207330D01*
X145017296Y-100117951D01*
X145026451Y-100025000D01*
X145026451Y-99925000D01*
X145198548Y-99925000D01*
X145204340Y-99983810D01*
X145221495Y-100040361D01*
X145249352Y-100092478D01*
X145286841Y-100138159D01*
X145332522Y-100175648D01*
X145384639Y-100203505D01*
X145441190Y-100220660D01*
X145500000Y-100226452D01*
X145770000Y-100225000D01*
X145845000Y-100150000D01*
X145845000Y-99505000D01*
X145275000Y-99505000D01*
X145200000Y-99580000D01*
X145198548Y-99925000D01*
X145026451Y-99925000D01*
X145026451Y-99675000D01*
X145017296Y-99582049D01*
X144990183Y-99492670D01*
X144946155Y-99410298D01*
X144886902Y-99338098D01*
X144814702Y-99278845D01*
X144732330Y-99234817D01*
X144642951Y-99207704D01*
X144550000Y-99198549D01*
X144050000Y-99198549D01*
X143957049Y-99207704D01*
X143867670Y-99234817D01*
X143785298Y-99278845D01*
X143713098Y-99338098D01*
X143653845Y-99410298D01*
X143632624Y-99450000D01*
X143629647Y-99450000D01*
X143610000Y-99448065D01*
X143531586Y-99455788D01*
X143456186Y-99478660D01*
X143386697Y-99515803D01*
X143341049Y-99553265D01*
X143341047Y-99553267D01*
X143325789Y-99565789D01*
X143313267Y-99581047D01*
X142419304Y-100475010D01*
X142361001Y-100443847D01*
X142224724Y-100402508D01*
X142083000Y-100388549D01*
X141325000Y-100388549D01*
X141325000Y-100151451D01*
X142083000Y-100151451D01*
X142224724Y-100137492D01*
X142361001Y-100096153D01*
X142486595Y-100029022D01*
X142596678Y-99938678D01*
X142687022Y-99828595D01*
X142754153Y-99703001D01*
X142795492Y-99566724D01*
X142809451Y-99425000D01*
X142809451Y-99075000D01*
X145198548Y-99075000D01*
X145200000Y-99420000D01*
X145275000Y-99495000D01*
X145845000Y-99495000D01*
X145845000Y-98850000D01*
X145770000Y-98775000D01*
X145500000Y-98773548D01*
X145441190Y-98779340D01*
X145384639Y-98796495D01*
X145332522Y-98824352D01*
X145286841Y-98861841D01*
X145249352Y-98907522D01*
X145221495Y-98959639D01*
X145204340Y-99016190D01*
X145198548Y-99075000D01*
X142809451Y-99075000D01*
X142809451Y-98959076D01*
X143098527Y-98670001D01*
X146921474Y-98670001D01*
X147025022Y-98773549D01*
X147025022Y-98773549D01*
G37*
X147025022Y-98773549D02*
X146975000Y-98773549D01*
X146882049Y-98782704D01*
X146792670Y-98809817D01*
X146710298Y-98853845D01*
X146638098Y-98913098D01*
X146578845Y-98985298D01*
X146534817Y-99067670D01*
X146507704Y-99157049D01*
X146500812Y-99227022D01*
X146501452Y-99075000D01*
X146495660Y-99016190D01*
X146478505Y-98959639D01*
X146450648Y-98907522D01*
X146413159Y-98861841D01*
X146367478Y-98824352D01*
X146315361Y-98796495D01*
X146258810Y-98779340D01*
X146200000Y-98773548D01*
X145930000Y-98775000D01*
X145855000Y-98850000D01*
X145855000Y-99495000D01*
X145875000Y-99495000D01*
X145875000Y-99505000D01*
X145855000Y-99505000D01*
X145855000Y-100150000D01*
X145930000Y-100225000D01*
X146200000Y-100226452D01*
X146258810Y-100220660D01*
X146315361Y-100203505D01*
X146367478Y-100175648D01*
X146413159Y-100138159D01*
X146450648Y-100092478D01*
X146478505Y-100040361D01*
X146495660Y-99983810D01*
X146501452Y-99925000D01*
X146500812Y-99772978D01*
X146507704Y-99842951D01*
X146534817Y-99932330D01*
X146578845Y-100014702D01*
X146638098Y-100086902D01*
X146700001Y-100137704D01*
X146700000Y-100362296D01*
X146638098Y-100413098D01*
X146578845Y-100485298D01*
X146534817Y-100567670D01*
X146507704Y-100657049D01*
X146500812Y-100727022D01*
X146501452Y-100575000D01*
X146495660Y-100516190D01*
X146478505Y-100459639D01*
X146450648Y-100407522D01*
X146413159Y-100361841D01*
X146367478Y-100324352D01*
X146315361Y-100296495D01*
X146258810Y-100279340D01*
X146200000Y-100273548D01*
X145930000Y-100275000D01*
X145855000Y-100350000D01*
X145855000Y-100995000D01*
X145875000Y-100995000D01*
X145875000Y-101005000D01*
X145855000Y-101005000D01*
X145855000Y-101650000D01*
X145930000Y-101725000D01*
X146200000Y-101726452D01*
X146258810Y-101720660D01*
X146315361Y-101703505D01*
X146367478Y-101675648D01*
X146413159Y-101638159D01*
X146425001Y-101623730D01*
X146425001Y-101868742D01*
X146394062Y-101852205D01*
X146323442Y-101830782D01*
X146250000Y-101823549D01*
X146100000Y-101823549D01*
X146026558Y-101830782D01*
X145955938Y-101852205D01*
X145890855Y-101886992D01*
X145850000Y-101920521D01*
X145809145Y-101886992D01*
X145744062Y-101852205D01*
X145673442Y-101830782D01*
X145600000Y-101823549D01*
X145450000Y-101823549D01*
X145376558Y-101830782D01*
X145305938Y-101852205D01*
X145240855Y-101886992D01*
X145183809Y-101933809D01*
X145136992Y-101990855D01*
X145102205Y-102055938D01*
X145080782Y-102126558D01*
X145073549Y-102200000D01*
X145073549Y-102900000D01*
X145080782Y-102973442D01*
X145102205Y-103044062D01*
X145136992Y-103109145D01*
X145163901Y-103141933D01*
X145142478Y-103124352D01*
X145090361Y-103096495D01*
X145033810Y-103079340D01*
X144975000Y-103073548D01*
X144630000Y-103075000D01*
X144555000Y-103150000D01*
X144555000Y-103520000D01*
X144575000Y-103520000D01*
X144575000Y-103530000D01*
X144555000Y-103530000D01*
X144555000Y-103550000D01*
X144545000Y-103550000D01*
X144545000Y-103530000D01*
X144525000Y-103530000D01*
X144525000Y-103520000D01*
X144545000Y-103520000D01*
X144545000Y-103150000D01*
X144470000Y-103075000D01*
X144200000Y-103073864D01*
X144200000Y-101815685D01*
X144214234Y-101801451D01*
X144550000Y-101801451D01*
X144642951Y-101792296D01*
X144732330Y-101765183D01*
X144814702Y-101721155D01*
X144886902Y-101661902D01*
X144946155Y-101589702D01*
X144990183Y-101507330D01*
X145015157Y-101425000D01*
X145198548Y-101425000D01*
X145204340Y-101483810D01*
X145221495Y-101540361D01*
X145249352Y-101592478D01*
X145286841Y-101638159D01*
X145332522Y-101675648D01*
X145384639Y-101703505D01*
X145441190Y-101720660D01*
X145500000Y-101726452D01*
X145770000Y-101725000D01*
X145845000Y-101650000D01*
X145845000Y-101005000D01*
X145275000Y-101005000D01*
X145200000Y-101080000D01*
X145198548Y-101425000D01*
X145015157Y-101425000D01*
X145017296Y-101417951D01*
X145026451Y-101325000D01*
X145026451Y-100975000D01*
X145017296Y-100882049D01*
X144990183Y-100792670D01*
X144946155Y-100710298D01*
X144886902Y-100638098D01*
X144814702Y-100578845D01*
X144807509Y-100575000D01*
X145198548Y-100575000D01*
X145200000Y-100920000D01*
X145275000Y-100995000D01*
X145845000Y-100995000D01*
X145845000Y-100350000D01*
X145770000Y-100275000D01*
X145500000Y-100273548D01*
X145441190Y-100279340D01*
X145384639Y-100296495D01*
X145332522Y-100324352D01*
X145286841Y-100361841D01*
X145249352Y-100407522D01*
X145221495Y-100459639D01*
X145204340Y-100516190D01*
X145198548Y-100575000D01*
X144807509Y-100575000D01*
X144732330Y-100534817D01*
X144642951Y-100507704D01*
X144564732Y-100500000D01*
X144642951Y-100492296D01*
X144732330Y-100465183D01*
X144814702Y-100421155D01*
X144886902Y-100361902D01*
X144946155Y-100289702D01*
X144990183Y-100207330D01*
X145017296Y-100117951D01*
X145026451Y-100025000D01*
X145026451Y-99925000D01*
X145198548Y-99925000D01*
X145204340Y-99983810D01*
X145221495Y-100040361D01*
X145249352Y-100092478D01*
X145286841Y-100138159D01*
X145332522Y-100175648D01*
X145384639Y-100203505D01*
X145441190Y-100220660D01*
X145500000Y-100226452D01*
X145770000Y-100225000D01*
X145845000Y-100150000D01*
X145845000Y-99505000D01*
X145275000Y-99505000D01*
X145200000Y-99580000D01*
X145198548Y-99925000D01*
X145026451Y-99925000D01*
X145026451Y-99675000D01*
X145017296Y-99582049D01*
X144990183Y-99492670D01*
X144946155Y-99410298D01*
X144886902Y-99338098D01*
X144814702Y-99278845D01*
X144732330Y-99234817D01*
X144642951Y-99207704D01*
X144550000Y-99198549D01*
X144050000Y-99198549D01*
X143957049Y-99207704D01*
X143867670Y-99234817D01*
X143785298Y-99278845D01*
X143713098Y-99338098D01*
X143653845Y-99410298D01*
X143632624Y-99450000D01*
X143629647Y-99450000D01*
X143610000Y-99448065D01*
X143531586Y-99455788D01*
X143456186Y-99478660D01*
X143386697Y-99515803D01*
X143341049Y-99553265D01*
X143341047Y-99553267D01*
X143325789Y-99565789D01*
X143313267Y-99581047D01*
X142419304Y-100475010D01*
X142361001Y-100443847D01*
X142224724Y-100402508D01*
X142083000Y-100388549D01*
X141325000Y-100388549D01*
X141325000Y-100151451D01*
X142083000Y-100151451D01*
X142224724Y-100137492D01*
X142361001Y-100096153D01*
X142486595Y-100029022D01*
X142596678Y-99938678D01*
X142687022Y-99828595D01*
X142754153Y-99703001D01*
X142795492Y-99566724D01*
X142809451Y-99425000D01*
X142809451Y-99075000D01*
X145198548Y-99075000D01*
X145200000Y-99420000D01*
X145275000Y-99495000D01*
X145845000Y-99495000D01*
X145845000Y-98850000D01*
X145770000Y-98775000D01*
X145500000Y-98773548D01*
X145441190Y-98779340D01*
X145384639Y-98796495D01*
X145332522Y-98824352D01*
X145286841Y-98861841D01*
X145249352Y-98907522D01*
X145221495Y-98959639D01*
X145204340Y-99016190D01*
X145198548Y-99075000D01*
X142809451Y-99075000D01*
X142809451Y-98959076D01*
X143098527Y-98670001D01*
X146921474Y-98670001D01*
X147025022Y-98773549D01*
M02*
