G04 #@! TF.GenerationSoftware,KiCad,Pcbnew,5.1.0-060a0da~80~ubuntu18.04.1*
G04 #@! TF.CreationDate,2019-04-03T19:32:02+02:00*
G04 #@! TF.ProjectId,mav_sbus_bridge,6d61765f-7362-4757-935f-627269646765,rev?*
G04 #@! TF.SameCoordinates,Original*
G04 #@! TF.FileFunction,Legend,Top*
G04 #@! TF.FilePolarity,Positive*
%FSLAX46Y46*%
G04 Gerber Fmt 4.6, Leading zero omitted, Abs format (unit mm)*
G04 Created by KiCad (PCBNEW 5.1.0-060a0da~80~ubuntu18.04.1) date 2019-04-03 19:32:02*
%MOMM*%
%LPD*%
G04 APERTURE LIST*
%ADD10C,0.150000*%
%ADD11C,0.200000*%
%ADD12C,0.120000*%
%ADD13O,1.050000X1.350000*%
%ADD14C,0.100000*%
%ADD15C,0.500000*%
%ADD16C,1.600000*%
%ADD17O,1.650000X1.100000*%
%ADD18C,0.400000*%
%ADD19C,2.200000*%
%ADD20R,0.750000X0.500000*%
%ADD21C,0.800000*%
%ADD22R,1.000000X1.000000*%
%ADD23R,1.100000X1.100000*%
%ADD24C,1.800000*%
%ADD25R,1.800000X1.800000*%
G04 APERTURE END LIST*
D10*
X150067857Y-111104761D02*
X150067857Y-110838095D01*
X150486904Y-110723809D02*
X150486904Y-111104761D01*
X149686904Y-111104761D01*
X149686904Y-110723809D01*
X150486904Y-110380952D02*
X149953571Y-110380952D01*
X150029761Y-110380952D02*
X149991666Y-110342857D01*
X149953571Y-110266666D01*
X149953571Y-110152380D01*
X149991666Y-110076190D01*
X150067857Y-110038095D01*
X150486904Y-110038095D01*
X150067857Y-110038095D02*
X149991666Y-110000000D01*
X149953571Y-109923809D01*
X149953571Y-109809523D01*
X149991666Y-109733333D01*
X150067857Y-109695238D01*
X150486904Y-109695238D01*
X150486904Y-109314285D02*
X149953571Y-109314285D01*
X149686904Y-109314285D02*
X149725000Y-109352380D01*
X149763095Y-109314285D01*
X149725000Y-109276190D01*
X149686904Y-109314285D01*
X149763095Y-109314285D01*
X150486904Y-108819047D02*
X150448809Y-108895238D01*
X150372619Y-108933333D01*
X149686904Y-108933333D01*
X151417857Y-111123809D02*
X151417857Y-111390476D01*
X151836904Y-111390476D02*
X151036904Y-111390476D01*
X151036904Y-111009523D01*
X151836904Y-110704761D02*
X151303571Y-110704761D01*
X151455952Y-110704761D02*
X151379761Y-110666666D01*
X151341666Y-110628571D01*
X151303571Y-110552380D01*
X151303571Y-110476190D01*
X151798809Y-109904761D02*
X151836904Y-109980952D01*
X151836904Y-110133333D01*
X151798809Y-110209523D01*
X151722619Y-110247619D01*
X151417857Y-110247619D01*
X151341666Y-110209523D01*
X151303571Y-110133333D01*
X151303571Y-109980952D01*
X151341666Y-109904761D01*
X151417857Y-109866666D01*
X151494047Y-109866666D01*
X151570238Y-110247619D01*
X151798809Y-109561904D02*
X151836904Y-109485714D01*
X151836904Y-109333333D01*
X151798809Y-109257142D01*
X151722619Y-109219047D01*
X151684523Y-109219047D01*
X151608333Y-109257142D01*
X151570238Y-109333333D01*
X151570238Y-109447619D01*
X151532142Y-109523809D01*
X151455952Y-109561904D01*
X151417857Y-109561904D01*
X151341666Y-109523809D01*
X151303571Y-109447619D01*
X151303571Y-109333333D01*
X151341666Y-109257142D01*
X151836904Y-108876190D02*
X151036904Y-108876190D01*
X151532142Y-108800000D02*
X151836904Y-108571428D01*
X151303571Y-108571428D02*
X151608333Y-108876190D01*
X144111904Y-112823809D02*
X144226190Y-112861904D01*
X144416666Y-112861904D01*
X144492857Y-112823809D01*
X144530952Y-112785714D01*
X144569047Y-112709523D01*
X144569047Y-112633333D01*
X144530952Y-112557142D01*
X144492857Y-112519047D01*
X144416666Y-112480952D01*
X144264285Y-112442857D01*
X144188095Y-112404761D01*
X144150000Y-112366666D01*
X144111904Y-112290476D01*
X144111904Y-112214285D01*
X144150000Y-112138095D01*
X144188095Y-112100000D01*
X144264285Y-112061904D01*
X144454761Y-112061904D01*
X144569047Y-112100000D01*
X145178571Y-112442857D02*
X145292857Y-112480952D01*
X145330952Y-112519047D01*
X145369047Y-112595238D01*
X145369047Y-112709523D01*
X145330952Y-112785714D01*
X145292857Y-112823809D01*
X145216666Y-112861904D01*
X144911904Y-112861904D01*
X144911904Y-112061904D01*
X145178571Y-112061904D01*
X145254761Y-112100000D01*
X145292857Y-112138095D01*
X145330952Y-112214285D01*
X145330952Y-112290476D01*
X145292857Y-112366666D01*
X145254761Y-112404761D01*
X145178571Y-112442857D01*
X144911904Y-112442857D01*
X145711904Y-112061904D02*
X145711904Y-112709523D01*
X145750000Y-112785714D01*
X145788095Y-112823809D01*
X145864285Y-112861904D01*
X146016666Y-112861904D01*
X146092857Y-112823809D01*
X146130952Y-112785714D01*
X146169047Y-112709523D01*
X146169047Y-112061904D01*
X146511904Y-112823809D02*
X146626190Y-112861904D01*
X146816666Y-112861904D01*
X146892857Y-112823809D01*
X146930952Y-112785714D01*
X146969047Y-112709523D01*
X146969047Y-112633333D01*
X146930952Y-112557142D01*
X146892857Y-112519047D01*
X146816666Y-112480952D01*
X146664285Y-112442857D01*
X146588095Y-112404761D01*
X146550000Y-112366666D01*
X146511904Y-112290476D01*
X146511904Y-112214285D01*
X146550000Y-112138095D01*
X146588095Y-112100000D01*
X146664285Y-112061904D01*
X146854761Y-112061904D01*
X146969047Y-112100000D01*
X148188095Y-112442857D02*
X148302380Y-112480952D01*
X148340476Y-112519047D01*
X148378571Y-112595238D01*
X148378571Y-112709523D01*
X148340476Y-112785714D01*
X148302380Y-112823809D01*
X148226190Y-112861904D01*
X147921428Y-112861904D01*
X147921428Y-112061904D01*
X148188095Y-112061904D01*
X148264285Y-112100000D01*
X148302380Y-112138095D01*
X148340476Y-112214285D01*
X148340476Y-112290476D01*
X148302380Y-112366666D01*
X148264285Y-112404761D01*
X148188095Y-112442857D01*
X147921428Y-112442857D01*
X148721428Y-112861904D02*
X148721428Y-112328571D01*
X148721428Y-112480952D02*
X148759523Y-112404761D01*
X148797619Y-112366666D01*
X148873809Y-112328571D01*
X148950000Y-112328571D01*
X149216666Y-112861904D02*
X149216666Y-112328571D01*
X149216666Y-112061904D02*
X149178571Y-112100000D01*
X149216666Y-112138095D01*
X149254761Y-112100000D01*
X149216666Y-112061904D01*
X149216666Y-112138095D01*
X149940476Y-112861904D02*
X149940476Y-112061904D01*
X149940476Y-112823809D02*
X149864285Y-112861904D01*
X149711904Y-112861904D01*
X149635714Y-112823809D01*
X149597619Y-112785714D01*
X149559523Y-112709523D01*
X149559523Y-112480952D01*
X149597619Y-112404761D01*
X149635714Y-112366666D01*
X149711904Y-112328571D01*
X149864285Y-112328571D01*
X149940476Y-112366666D01*
X150664285Y-112328571D02*
X150664285Y-112976190D01*
X150626190Y-113052380D01*
X150588095Y-113090476D01*
X150511904Y-113128571D01*
X150397619Y-113128571D01*
X150321428Y-113090476D01*
X150664285Y-112823809D02*
X150588095Y-112861904D01*
X150435714Y-112861904D01*
X150359523Y-112823809D01*
X150321428Y-112785714D01*
X150283333Y-112709523D01*
X150283333Y-112480952D01*
X150321428Y-112404761D01*
X150359523Y-112366666D01*
X150435714Y-112328571D01*
X150588095Y-112328571D01*
X150664285Y-112366666D01*
X151350000Y-112823809D02*
X151273809Y-112861904D01*
X151121428Y-112861904D01*
X151045238Y-112823809D01*
X151007142Y-112747619D01*
X151007142Y-112442857D01*
X151045238Y-112366666D01*
X151121428Y-112328571D01*
X151273809Y-112328571D01*
X151350000Y-112366666D01*
X151388095Y-112442857D01*
X151388095Y-112519047D01*
X151007142Y-112595238D01*
X143250000Y-105500000D02*
X143250000Y-113000000D01*
X143250000Y-105500000D02*
X141500000Y-105500000D01*
X143250000Y-98000000D02*
X143250000Y-105500000D01*
D11*
X150961904Y-99352380D02*
X150961904Y-98352380D01*
X151438095Y-99352380D02*
X151438095Y-98352380D01*
X152009523Y-99352380D01*
X152009523Y-98352380D01*
X152342857Y-98352380D02*
X152676190Y-99352380D01*
X153009523Y-98352380D01*
X153342857Y-99257142D02*
X153390476Y-99304761D01*
X153342857Y-99352380D01*
X153295238Y-99304761D01*
X153342857Y-99257142D01*
X153342857Y-99352380D01*
X154580952Y-99352380D02*
X154580952Y-98352380D01*
X155057142Y-99352380D02*
X155057142Y-98352380D01*
X155628571Y-99352380D01*
X155628571Y-98352380D01*
X156104761Y-99352380D02*
X156104761Y-98352380D01*
X156485714Y-98352380D01*
X156580952Y-98400000D01*
X156628571Y-98447619D01*
X156676190Y-98542857D01*
X156676190Y-98685714D01*
X156628571Y-98780952D01*
X156580952Y-98828571D01*
X156485714Y-98876190D01*
X156104761Y-98876190D01*
X157104761Y-98352380D02*
X157104761Y-99161904D01*
X157152380Y-99257142D01*
X157200000Y-99304761D01*
X157295238Y-99352380D01*
X157485714Y-99352380D01*
X157580952Y-99304761D01*
X157628571Y-99257142D01*
X157676190Y-99161904D01*
X157676190Y-98352380D01*
X158009523Y-98352380D02*
X158580952Y-98352380D01*
X158295238Y-99352380D02*
X158295238Y-98352380D01*
D10*
X154000000Y-101300000D02*
X154000000Y-99700000D01*
X157000000Y-101300000D02*
X154000000Y-101300000D01*
X157000000Y-99700000D02*
X157000000Y-101300000D01*
X154000000Y-99700000D02*
X157000000Y-99700000D01*
X155000000Y-112000000D02*
X156500000Y-112000000D01*
X155000000Y-104000000D02*
X156500000Y-104000000D01*
D12*
X144390000Y-105885000D02*
X144390000Y-106610000D01*
X148610000Y-102390000D02*
X147885000Y-102390000D01*
X148610000Y-103115000D02*
X148610000Y-102390000D01*
X148610000Y-106610000D02*
X147885000Y-106610000D01*
X148610000Y-105885000D02*
X148610000Y-106610000D01*
X144390000Y-102390000D02*
X145115000Y-102390000D01*
X144390000Y-103115000D02*
X144390000Y-102390000D01*
D10*
X149600000Y-105600000D02*
X149600000Y-104400000D01*
X151400000Y-104000000D02*
X151400000Y-105600000D01*
D12*
X145800000Y-111160000D02*
X147200000Y-111160000D01*
X147200000Y-108840000D02*
X145300000Y-108840000D01*
D11*
X148600000Y-110000000D02*
X149400000Y-110000000D01*
X146500000Y-107600000D02*
X146500000Y-108400000D01*
X143600000Y-100500000D02*
X144400000Y-100500000D01*
X144400000Y-110000000D02*
X143600000Y-110000000D01*
X149000000Y-100600000D02*
X149000000Y-101400000D01*
X146500000Y-101400000D02*
X146500000Y-100600000D01*
X146500000Y-99900000D02*
X146500000Y-99100000D01*
X149000000Y-108400000D02*
X149000000Y-107600000D01*
%LPC*%
D13*
X155300000Y-110500000D03*
X155300000Y-105500000D03*
D14*
G36*
X155912252Y-109050602D02*
G01*
X155924386Y-109052402D01*
X155936286Y-109055382D01*
X155947835Y-109059515D01*
X155958925Y-109064760D01*
X155969446Y-109071066D01*
X155979299Y-109078374D01*
X155988388Y-109086612D01*
X155996626Y-109095701D01*
X156003934Y-109105554D01*
X156010240Y-109116075D01*
X156015485Y-109127165D01*
X156019618Y-109138714D01*
X156022598Y-109150614D01*
X156024398Y-109162748D01*
X156025000Y-109175000D01*
X156025000Y-109425000D01*
X156024398Y-109437252D01*
X156022598Y-109449386D01*
X156019618Y-109461286D01*
X156015485Y-109472835D01*
X156010240Y-109483925D01*
X156003934Y-109494446D01*
X155996626Y-109504299D01*
X155988388Y-109513388D01*
X155979299Y-109521626D01*
X155969446Y-109528934D01*
X155958925Y-109535240D01*
X155947835Y-109540485D01*
X155936286Y-109544618D01*
X155924386Y-109547598D01*
X155912252Y-109549398D01*
X155900000Y-109550000D01*
X154700000Y-109550000D01*
X154687748Y-109549398D01*
X154675614Y-109547598D01*
X154663714Y-109544618D01*
X154652165Y-109540485D01*
X154641075Y-109535240D01*
X154630554Y-109528934D01*
X154620701Y-109521626D01*
X154611612Y-109513388D01*
X154603374Y-109504299D01*
X154596066Y-109494446D01*
X154589760Y-109483925D01*
X154584515Y-109472835D01*
X154580382Y-109461286D01*
X154577402Y-109449386D01*
X154575602Y-109437252D01*
X154575000Y-109425000D01*
X154575000Y-109175000D01*
X154575602Y-109162748D01*
X154577402Y-109150614D01*
X154580382Y-109138714D01*
X154584515Y-109127165D01*
X154589760Y-109116075D01*
X154596066Y-109105554D01*
X154603374Y-109095701D01*
X154611612Y-109086612D01*
X154620701Y-109078374D01*
X154630554Y-109071066D01*
X154641075Y-109064760D01*
X154652165Y-109059515D01*
X154663714Y-109055382D01*
X154675614Y-109052402D01*
X154687748Y-109050602D01*
X154700000Y-109050000D01*
X155900000Y-109050000D01*
X155912252Y-109050602D01*
X155912252Y-109050602D01*
G37*
D15*
X155300000Y-109300000D03*
D14*
G36*
X155912252Y-108400602D02*
G01*
X155924386Y-108402402D01*
X155936286Y-108405382D01*
X155947835Y-108409515D01*
X155958925Y-108414760D01*
X155969446Y-108421066D01*
X155979299Y-108428374D01*
X155988388Y-108436612D01*
X155996626Y-108445701D01*
X156003934Y-108455554D01*
X156010240Y-108466075D01*
X156015485Y-108477165D01*
X156019618Y-108488714D01*
X156022598Y-108500614D01*
X156024398Y-108512748D01*
X156025000Y-108525000D01*
X156025000Y-108775000D01*
X156024398Y-108787252D01*
X156022598Y-108799386D01*
X156019618Y-108811286D01*
X156015485Y-108822835D01*
X156010240Y-108833925D01*
X156003934Y-108844446D01*
X155996626Y-108854299D01*
X155988388Y-108863388D01*
X155979299Y-108871626D01*
X155969446Y-108878934D01*
X155958925Y-108885240D01*
X155947835Y-108890485D01*
X155936286Y-108894618D01*
X155924386Y-108897598D01*
X155912252Y-108899398D01*
X155900000Y-108900000D01*
X154700000Y-108900000D01*
X154687748Y-108899398D01*
X154675614Y-108897598D01*
X154663714Y-108894618D01*
X154652165Y-108890485D01*
X154641075Y-108885240D01*
X154630554Y-108878934D01*
X154620701Y-108871626D01*
X154611612Y-108863388D01*
X154603374Y-108854299D01*
X154596066Y-108844446D01*
X154589760Y-108833925D01*
X154584515Y-108822835D01*
X154580382Y-108811286D01*
X154577402Y-108799386D01*
X154575602Y-108787252D01*
X154575000Y-108775000D01*
X154575000Y-108525000D01*
X154575602Y-108512748D01*
X154577402Y-108500614D01*
X154580382Y-108488714D01*
X154584515Y-108477165D01*
X154589760Y-108466075D01*
X154596066Y-108455554D01*
X154603374Y-108445701D01*
X154611612Y-108436612D01*
X154620701Y-108428374D01*
X154630554Y-108421066D01*
X154641075Y-108414760D01*
X154652165Y-108409515D01*
X154663714Y-108405382D01*
X154675614Y-108402402D01*
X154687748Y-108400602D01*
X154700000Y-108400000D01*
X155900000Y-108400000D01*
X155912252Y-108400602D01*
X155912252Y-108400602D01*
G37*
D15*
X155300000Y-108650000D03*
D14*
G36*
X155912252Y-107750602D02*
G01*
X155924386Y-107752402D01*
X155936286Y-107755382D01*
X155947835Y-107759515D01*
X155958925Y-107764760D01*
X155969446Y-107771066D01*
X155979299Y-107778374D01*
X155988388Y-107786612D01*
X155996626Y-107795701D01*
X156003934Y-107805554D01*
X156010240Y-107816075D01*
X156015485Y-107827165D01*
X156019618Y-107838714D01*
X156022598Y-107850614D01*
X156024398Y-107862748D01*
X156025000Y-107875000D01*
X156025000Y-108125000D01*
X156024398Y-108137252D01*
X156022598Y-108149386D01*
X156019618Y-108161286D01*
X156015485Y-108172835D01*
X156010240Y-108183925D01*
X156003934Y-108194446D01*
X155996626Y-108204299D01*
X155988388Y-108213388D01*
X155979299Y-108221626D01*
X155969446Y-108228934D01*
X155958925Y-108235240D01*
X155947835Y-108240485D01*
X155936286Y-108244618D01*
X155924386Y-108247598D01*
X155912252Y-108249398D01*
X155900000Y-108250000D01*
X154700000Y-108250000D01*
X154687748Y-108249398D01*
X154675614Y-108247598D01*
X154663714Y-108244618D01*
X154652165Y-108240485D01*
X154641075Y-108235240D01*
X154630554Y-108228934D01*
X154620701Y-108221626D01*
X154611612Y-108213388D01*
X154603374Y-108204299D01*
X154596066Y-108194446D01*
X154589760Y-108183925D01*
X154584515Y-108172835D01*
X154580382Y-108161286D01*
X154577402Y-108149386D01*
X154575602Y-108137252D01*
X154575000Y-108125000D01*
X154575000Y-107875000D01*
X154575602Y-107862748D01*
X154577402Y-107850614D01*
X154580382Y-107838714D01*
X154584515Y-107827165D01*
X154589760Y-107816075D01*
X154596066Y-107805554D01*
X154603374Y-107795701D01*
X154611612Y-107786612D01*
X154620701Y-107778374D01*
X154630554Y-107771066D01*
X154641075Y-107764760D01*
X154652165Y-107759515D01*
X154663714Y-107755382D01*
X154675614Y-107752402D01*
X154687748Y-107750602D01*
X154700000Y-107750000D01*
X155900000Y-107750000D01*
X155912252Y-107750602D01*
X155912252Y-107750602D01*
G37*
D15*
X155300000Y-108000000D03*
D14*
G36*
X155912252Y-107100602D02*
G01*
X155924386Y-107102402D01*
X155936286Y-107105382D01*
X155947835Y-107109515D01*
X155958925Y-107114760D01*
X155969446Y-107121066D01*
X155979299Y-107128374D01*
X155988388Y-107136612D01*
X155996626Y-107145701D01*
X156003934Y-107155554D01*
X156010240Y-107166075D01*
X156015485Y-107177165D01*
X156019618Y-107188714D01*
X156022598Y-107200614D01*
X156024398Y-107212748D01*
X156025000Y-107225000D01*
X156025000Y-107475000D01*
X156024398Y-107487252D01*
X156022598Y-107499386D01*
X156019618Y-107511286D01*
X156015485Y-107522835D01*
X156010240Y-107533925D01*
X156003934Y-107544446D01*
X155996626Y-107554299D01*
X155988388Y-107563388D01*
X155979299Y-107571626D01*
X155969446Y-107578934D01*
X155958925Y-107585240D01*
X155947835Y-107590485D01*
X155936286Y-107594618D01*
X155924386Y-107597598D01*
X155912252Y-107599398D01*
X155900000Y-107600000D01*
X154700000Y-107600000D01*
X154687748Y-107599398D01*
X154675614Y-107597598D01*
X154663714Y-107594618D01*
X154652165Y-107590485D01*
X154641075Y-107585240D01*
X154630554Y-107578934D01*
X154620701Y-107571626D01*
X154611612Y-107563388D01*
X154603374Y-107554299D01*
X154596066Y-107544446D01*
X154589760Y-107533925D01*
X154584515Y-107522835D01*
X154580382Y-107511286D01*
X154577402Y-107499386D01*
X154575602Y-107487252D01*
X154575000Y-107475000D01*
X154575000Y-107225000D01*
X154575602Y-107212748D01*
X154577402Y-107200614D01*
X154580382Y-107188714D01*
X154584515Y-107177165D01*
X154589760Y-107166075D01*
X154596066Y-107155554D01*
X154603374Y-107145701D01*
X154611612Y-107136612D01*
X154620701Y-107128374D01*
X154630554Y-107121066D01*
X154641075Y-107114760D01*
X154652165Y-107109515D01*
X154663714Y-107105382D01*
X154675614Y-107102402D01*
X154687748Y-107100602D01*
X154700000Y-107100000D01*
X155900000Y-107100000D01*
X155912252Y-107100602D01*
X155912252Y-107100602D01*
G37*
D15*
X155300000Y-107350000D03*
D14*
G36*
X155912252Y-106450602D02*
G01*
X155924386Y-106452402D01*
X155936286Y-106455382D01*
X155947835Y-106459515D01*
X155958925Y-106464760D01*
X155969446Y-106471066D01*
X155979299Y-106478374D01*
X155988388Y-106486612D01*
X155996626Y-106495701D01*
X156003934Y-106505554D01*
X156010240Y-106516075D01*
X156015485Y-106527165D01*
X156019618Y-106538714D01*
X156022598Y-106550614D01*
X156024398Y-106562748D01*
X156025000Y-106575000D01*
X156025000Y-106825000D01*
X156024398Y-106837252D01*
X156022598Y-106849386D01*
X156019618Y-106861286D01*
X156015485Y-106872835D01*
X156010240Y-106883925D01*
X156003934Y-106894446D01*
X155996626Y-106904299D01*
X155988388Y-106913388D01*
X155979299Y-106921626D01*
X155969446Y-106928934D01*
X155958925Y-106935240D01*
X155947835Y-106940485D01*
X155936286Y-106944618D01*
X155924386Y-106947598D01*
X155912252Y-106949398D01*
X155900000Y-106950000D01*
X154700000Y-106950000D01*
X154687748Y-106949398D01*
X154675614Y-106947598D01*
X154663714Y-106944618D01*
X154652165Y-106940485D01*
X154641075Y-106935240D01*
X154630554Y-106928934D01*
X154620701Y-106921626D01*
X154611612Y-106913388D01*
X154603374Y-106904299D01*
X154596066Y-106894446D01*
X154589760Y-106883925D01*
X154584515Y-106872835D01*
X154580382Y-106861286D01*
X154577402Y-106849386D01*
X154575602Y-106837252D01*
X154575000Y-106825000D01*
X154575000Y-106575000D01*
X154575602Y-106562748D01*
X154577402Y-106550614D01*
X154580382Y-106538714D01*
X154584515Y-106527165D01*
X154589760Y-106516075D01*
X154596066Y-106505554D01*
X154603374Y-106495701D01*
X154611612Y-106486612D01*
X154620701Y-106478374D01*
X154630554Y-106471066D01*
X154641075Y-106464760D01*
X154652165Y-106459515D01*
X154663714Y-106455382D01*
X154675614Y-106452402D01*
X154687748Y-106450602D01*
X154700000Y-106450000D01*
X155900000Y-106450000D01*
X155912252Y-106450602D01*
X155912252Y-106450602D01*
G37*
D15*
X155300000Y-106700000D03*
D14*
G36*
X158655683Y-106200770D02*
G01*
X158671214Y-106203074D01*
X158686446Y-106206890D01*
X158701229Y-106212179D01*
X158715423Y-106218893D01*
X158728891Y-106226965D01*
X158741503Y-106236318D01*
X158753137Y-106246863D01*
X158763682Y-106258497D01*
X158773035Y-106271109D01*
X158781107Y-106284577D01*
X158787821Y-106298771D01*
X158793110Y-106313554D01*
X158796926Y-106328786D01*
X158799230Y-106344317D01*
X158800000Y-106360000D01*
X158800000Y-107640000D01*
X158799230Y-107655683D01*
X158796926Y-107671214D01*
X158793110Y-107686446D01*
X158787821Y-107701229D01*
X158781107Y-107715423D01*
X158773035Y-107728891D01*
X158763682Y-107741503D01*
X158753137Y-107753137D01*
X158741503Y-107763682D01*
X158728891Y-107773035D01*
X158715423Y-107781107D01*
X158701229Y-107787821D01*
X158686446Y-107793110D01*
X158671214Y-107796926D01*
X158655683Y-107799230D01*
X158640000Y-107800000D01*
X157360000Y-107800000D01*
X157344317Y-107799230D01*
X157328786Y-107796926D01*
X157313554Y-107793110D01*
X157298771Y-107787821D01*
X157284577Y-107781107D01*
X157271109Y-107773035D01*
X157258497Y-107763682D01*
X157246863Y-107753137D01*
X157236318Y-107741503D01*
X157226965Y-107728891D01*
X157218893Y-107715423D01*
X157212179Y-107701229D01*
X157206890Y-107686446D01*
X157203074Y-107671214D01*
X157200770Y-107655683D01*
X157200000Y-107640000D01*
X157200000Y-106360000D01*
X157200770Y-106344317D01*
X157203074Y-106328786D01*
X157206890Y-106313554D01*
X157212179Y-106298771D01*
X157218893Y-106284577D01*
X157226965Y-106271109D01*
X157236318Y-106258497D01*
X157246863Y-106246863D01*
X157258497Y-106236318D01*
X157271109Y-106226965D01*
X157284577Y-106218893D01*
X157298771Y-106212179D01*
X157313554Y-106206890D01*
X157328786Y-106203074D01*
X157344317Y-106200770D01*
X157360000Y-106200000D01*
X158640000Y-106200000D01*
X158655683Y-106200770D01*
X158655683Y-106200770D01*
G37*
D16*
X158000000Y-107000000D03*
D14*
G36*
X158655683Y-108200770D02*
G01*
X158671214Y-108203074D01*
X158686446Y-108206890D01*
X158701229Y-108212179D01*
X158715423Y-108218893D01*
X158728891Y-108226965D01*
X158741503Y-108236318D01*
X158753137Y-108246863D01*
X158763682Y-108258497D01*
X158773035Y-108271109D01*
X158781107Y-108284577D01*
X158787821Y-108298771D01*
X158793110Y-108313554D01*
X158796926Y-108328786D01*
X158799230Y-108344317D01*
X158800000Y-108360000D01*
X158800000Y-109640000D01*
X158799230Y-109655683D01*
X158796926Y-109671214D01*
X158793110Y-109686446D01*
X158787821Y-109701229D01*
X158781107Y-109715423D01*
X158773035Y-109728891D01*
X158763682Y-109741503D01*
X158753137Y-109753137D01*
X158741503Y-109763682D01*
X158728891Y-109773035D01*
X158715423Y-109781107D01*
X158701229Y-109787821D01*
X158686446Y-109793110D01*
X158671214Y-109796926D01*
X158655683Y-109799230D01*
X158640000Y-109800000D01*
X157360000Y-109800000D01*
X157344317Y-109799230D01*
X157328786Y-109796926D01*
X157313554Y-109793110D01*
X157298771Y-109787821D01*
X157284577Y-109781107D01*
X157271109Y-109773035D01*
X157258497Y-109763682D01*
X157246863Y-109753137D01*
X157236318Y-109741503D01*
X157226965Y-109728891D01*
X157218893Y-109715423D01*
X157212179Y-109701229D01*
X157206890Y-109686446D01*
X157203074Y-109671214D01*
X157200770Y-109655683D01*
X157200000Y-109640000D01*
X157200000Y-108360000D01*
X157200770Y-108344317D01*
X157203074Y-108328786D01*
X157206890Y-108313554D01*
X157212179Y-108298771D01*
X157218893Y-108284577D01*
X157226965Y-108271109D01*
X157236318Y-108258497D01*
X157246863Y-108246863D01*
X157258497Y-108236318D01*
X157271109Y-108226965D01*
X157284577Y-108218893D01*
X157298771Y-108212179D01*
X157313554Y-108206890D01*
X157328786Y-108203074D01*
X157344317Y-108200770D01*
X157360000Y-108200000D01*
X158640000Y-108200000D01*
X158655683Y-108200770D01*
X158655683Y-108200770D01*
G37*
D16*
X158000000Y-109000000D03*
D17*
X158000000Y-104500000D03*
X158000000Y-111500000D03*
D14*
G36*
X158655683Y-104200770D02*
G01*
X158671214Y-104203074D01*
X158686446Y-104206890D01*
X158701229Y-104212179D01*
X158715423Y-104218893D01*
X158728891Y-104226965D01*
X158741503Y-104236318D01*
X158753137Y-104246863D01*
X158763682Y-104258497D01*
X158773035Y-104271109D01*
X158781107Y-104284577D01*
X158787821Y-104298771D01*
X158793110Y-104313554D01*
X158796926Y-104328786D01*
X158799230Y-104344317D01*
X158800000Y-104360000D01*
X158800000Y-105640000D01*
X158799230Y-105655683D01*
X158796926Y-105671214D01*
X158793110Y-105686446D01*
X158787821Y-105701229D01*
X158781107Y-105715423D01*
X158773035Y-105728891D01*
X158763682Y-105741503D01*
X158753137Y-105753137D01*
X158741503Y-105763682D01*
X158728891Y-105773035D01*
X158715423Y-105781107D01*
X158701229Y-105787821D01*
X158686446Y-105793110D01*
X158671214Y-105796926D01*
X158655683Y-105799230D01*
X158640000Y-105800000D01*
X157360000Y-105800000D01*
X157344317Y-105799230D01*
X157328786Y-105796926D01*
X157313554Y-105793110D01*
X157298771Y-105787821D01*
X157284577Y-105781107D01*
X157271109Y-105773035D01*
X157258497Y-105763682D01*
X157246863Y-105753137D01*
X157236318Y-105741503D01*
X157226965Y-105728891D01*
X157218893Y-105715423D01*
X157212179Y-105701229D01*
X157206890Y-105686446D01*
X157203074Y-105671214D01*
X157200770Y-105655683D01*
X157200000Y-105640000D01*
X157200000Y-104360000D01*
X157200770Y-104344317D01*
X157203074Y-104328786D01*
X157206890Y-104313554D01*
X157212179Y-104298771D01*
X157218893Y-104284577D01*
X157226965Y-104271109D01*
X157236318Y-104258497D01*
X157246863Y-104246863D01*
X157258497Y-104236318D01*
X157271109Y-104226965D01*
X157284577Y-104218893D01*
X157298771Y-104212179D01*
X157313554Y-104206890D01*
X157328786Y-104203074D01*
X157344317Y-104200770D01*
X157360000Y-104200000D01*
X158640000Y-104200000D01*
X158655683Y-104200770D01*
X158655683Y-104200770D01*
G37*
D16*
X158000000Y-105000000D03*
D14*
G36*
X158655683Y-110200770D02*
G01*
X158671214Y-110203074D01*
X158686446Y-110206890D01*
X158701229Y-110212179D01*
X158715423Y-110218893D01*
X158728891Y-110226965D01*
X158741503Y-110236318D01*
X158753137Y-110246863D01*
X158763682Y-110258497D01*
X158773035Y-110271109D01*
X158781107Y-110284577D01*
X158787821Y-110298771D01*
X158793110Y-110313554D01*
X158796926Y-110328786D01*
X158799230Y-110344317D01*
X158800000Y-110360000D01*
X158800000Y-111640000D01*
X158799230Y-111655683D01*
X158796926Y-111671214D01*
X158793110Y-111686446D01*
X158787821Y-111701229D01*
X158781107Y-111715423D01*
X158773035Y-111728891D01*
X158763682Y-111741503D01*
X158753137Y-111753137D01*
X158741503Y-111763682D01*
X158728891Y-111773035D01*
X158715423Y-111781107D01*
X158701229Y-111787821D01*
X158686446Y-111793110D01*
X158671214Y-111796926D01*
X158655683Y-111799230D01*
X158640000Y-111800000D01*
X157360000Y-111800000D01*
X157344317Y-111799230D01*
X157328786Y-111796926D01*
X157313554Y-111793110D01*
X157298771Y-111787821D01*
X157284577Y-111781107D01*
X157271109Y-111773035D01*
X157258497Y-111763682D01*
X157246863Y-111753137D01*
X157236318Y-111741503D01*
X157226965Y-111728891D01*
X157218893Y-111715423D01*
X157212179Y-111701229D01*
X157206890Y-111686446D01*
X157203074Y-111671214D01*
X157200770Y-111655683D01*
X157200000Y-111640000D01*
X157200000Y-110360000D01*
X157200770Y-110344317D01*
X157203074Y-110328786D01*
X157206890Y-110313554D01*
X157212179Y-110298771D01*
X157218893Y-110284577D01*
X157226965Y-110271109D01*
X157236318Y-110258497D01*
X157246863Y-110246863D01*
X157258497Y-110236318D01*
X157271109Y-110226965D01*
X157284577Y-110218893D01*
X157298771Y-110212179D01*
X157313554Y-110206890D01*
X157328786Y-110203074D01*
X157344317Y-110200770D01*
X157360000Y-110200000D01*
X158640000Y-110200000D01*
X158655683Y-110200770D01*
X158655683Y-110200770D01*
G37*
D16*
X158000000Y-111000000D03*
D14*
G36*
X144934802Y-105275482D02*
G01*
X144944509Y-105276921D01*
X144954028Y-105279306D01*
X144963268Y-105282612D01*
X144972140Y-105286808D01*
X144980557Y-105291853D01*
X144988439Y-105297699D01*
X144995711Y-105304289D01*
X145002301Y-105311561D01*
X145008147Y-105319443D01*
X145013192Y-105327860D01*
X145017388Y-105336732D01*
X145020694Y-105345972D01*
X145023079Y-105355491D01*
X145024518Y-105365198D01*
X145025000Y-105375000D01*
X145025000Y-105575000D01*
X145024518Y-105584802D01*
X145023079Y-105594509D01*
X145020694Y-105604028D01*
X145017388Y-105613268D01*
X145013192Y-105622140D01*
X145008147Y-105630557D01*
X145002301Y-105638439D01*
X144995711Y-105645711D01*
X144988439Y-105652301D01*
X144980557Y-105658147D01*
X144972140Y-105663192D01*
X144963268Y-105667388D01*
X144954028Y-105670694D01*
X144944509Y-105673079D01*
X144934802Y-105674518D01*
X144925000Y-105675000D01*
X144175000Y-105675000D01*
X144165198Y-105674518D01*
X144155491Y-105673079D01*
X144145972Y-105670694D01*
X144136732Y-105667388D01*
X144127860Y-105663192D01*
X144119443Y-105658147D01*
X144111561Y-105652301D01*
X144104289Y-105645711D01*
X144097699Y-105638439D01*
X144091853Y-105630557D01*
X144086808Y-105622140D01*
X144082612Y-105613268D01*
X144079306Y-105604028D01*
X144076921Y-105594509D01*
X144075482Y-105584802D01*
X144075000Y-105575000D01*
X144075000Y-105375000D01*
X144075482Y-105365198D01*
X144076921Y-105355491D01*
X144079306Y-105345972D01*
X144082612Y-105336732D01*
X144086808Y-105327860D01*
X144091853Y-105319443D01*
X144097699Y-105311561D01*
X144104289Y-105304289D01*
X144111561Y-105297699D01*
X144119443Y-105291853D01*
X144127860Y-105286808D01*
X144136732Y-105282612D01*
X144145972Y-105279306D01*
X144155491Y-105276921D01*
X144165198Y-105275482D01*
X144175000Y-105275000D01*
X144925000Y-105275000D01*
X144934802Y-105275482D01*
X144934802Y-105275482D01*
G37*
D18*
X144550000Y-105475000D03*
D14*
G36*
X144934802Y-104625482D02*
G01*
X144944509Y-104626921D01*
X144954028Y-104629306D01*
X144963268Y-104632612D01*
X144972140Y-104636808D01*
X144980557Y-104641853D01*
X144988439Y-104647699D01*
X144995711Y-104654289D01*
X145002301Y-104661561D01*
X145008147Y-104669443D01*
X145013192Y-104677860D01*
X145017388Y-104686732D01*
X145020694Y-104695972D01*
X145023079Y-104705491D01*
X145024518Y-104715198D01*
X145025000Y-104725000D01*
X145025000Y-104925000D01*
X145024518Y-104934802D01*
X145023079Y-104944509D01*
X145020694Y-104954028D01*
X145017388Y-104963268D01*
X145013192Y-104972140D01*
X145008147Y-104980557D01*
X145002301Y-104988439D01*
X144995711Y-104995711D01*
X144988439Y-105002301D01*
X144980557Y-105008147D01*
X144972140Y-105013192D01*
X144963268Y-105017388D01*
X144954028Y-105020694D01*
X144944509Y-105023079D01*
X144934802Y-105024518D01*
X144925000Y-105025000D01*
X144175000Y-105025000D01*
X144165198Y-105024518D01*
X144155491Y-105023079D01*
X144145972Y-105020694D01*
X144136732Y-105017388D01*
X144127860Y-105013192D01*
X144119443Y-105008147D01*
X144111561Y-105002301D01*
X144104289Y-104995711D01*
X144097699Y-104988439D01*
X144091853Y-104980557D01*
X144086808Y-104972140D01*
X144082612Y-104963268D01*
X144079306Y-104954028D01*
X144076921Y-104944509D01*
X144075482Y-104934802D01*
X144075000Y-104925000D01*
X144075000Y-104725000D01*
X144075482Y-104715198D01*
X144076921Y-104705491D01*
X144079306Y-104695972D01*
X144082612Y-104686732D01*
X144086808Y-104677860D01*
X144091853Y-104669443D01*
X144097699Y-104661561D01*
X144104289Y-104654289D01*
X144111561Y-104647699D01*
X144119443Y-104641853D01*
X144127860Y-104636808D01*
X144136732Y-104632612D01*
X144145972Y-104629306D01*
X144155491Y-104626921D01*
X144165198Y-104625482D01*
X144175000Y-104625000D01*
X144925000Y-104625000D01*
X144934802Y-104625482D01*
X144934802Y-104625482D01*
G37*
D18*
X144550000Y-104825000D03*
D14*
G36*
X144934802Y-103975482D02*
G01*
X144944509Y-103976921D01*
X144954028Y-103979306D01*
X144963268Y-103982612D01*
X144972140Y-103986808D01*
X144980557Y-103991853D01*
X144988439Y-103997699D01*
X144995711Y-104004289D01*
X145002301Y-104011561D01*
X145008147Y-104019443D01*
X145013192Y-104027860D01*
X145017388Y-104036732D01*
X145020694Y-104045972D01*
X145023079Y-104055491D01*
X145024518Y-104065198D01*
X145025000Y-104075000D01*
X145025000Y-104275000D01*
X145024518Y-104284802D01*
X145023079Y-104294509D01*
X145020694Y-104304028D01*
X145017388Y-104313268D01*
X145013192Y-104322140D01*
X145008147Y-104330557D01*
X145002301Y-104338439D01*
X144995711Y-104345711D01*
X144988439Y-104352301D01*
X144980557Y-104358147D01*
X144972140Y-104363192D01*
X144963268Y-104367388D01*
X144954028Y-104370694D01*
X144944509Y-104373079D01*
X144934802Y-104374518D01*
X144925000Y-104375000D01*
X144175000Y-104375000D01*
X144165198Y-104374518D01*
X144155491Y-104373079D01*
X144145972Y-104370694D01*
X144136732Y-104367388D01*
X144127860Y-104363192D01*
X144119443Y-104358147D01*
X144111561Y-104352301D01*
X144104289Y-104345711D01*
X144097699Y-104338439D01*
X144091853Y-104330557D01*
X144086808Y-104322140D01*
X144082612Y-104313268D01*
X144079306Y-104304028D01*
X144076921Y-104294509D01*
X144075482Y-104284802D01*
X144075000Y-104275000D01*
X144075000Y-104075000D01*
X144075482Y-104065198D01*
X144076921Y-104055491D01*
X144079306Y-104045972D01*
X144082612Y-104036732D01*
X144086808Y-104027860D01*
X144091853Y-104019443D01*
X144097699Y-104011561D01*
X144104289Y-104004289D01*
X144111561Y-103997699D01*
X144119443Y-103991853D01*
X144127860Y-103986808D01*
X144136732Y-103982612D01*
X144145972Y-103979306D01*
X144155491Y-103976921D01*
X144165198Y-103975482D01*
X144175000Y-103975000D01*
X144925000Y-103975000D01*
X144934802Y-103975482D01*
X144934802Y-103975482D01*
G37*
D18*
X144550000Y-104175000D03*
D14*
G36*
X144934802Y-103325482D02*
G01*
X144944509Y-103326921D01*
X144954028Y-103329306D01*
X144963268Y-103332612D01*
X144972140Y-103336808D01*
X144980557Y-103341853D01*
X144988439Y-103347699D01*
X144995711Y-103354289D01*
X145002301Y-103361561D01*
X145008147Y-103369443D01*
X145013192Y-103377860D01*
X145017388Y-103386732D01*
X145020694Y-103395972D01*
X145023079Y-103405491D01*
X145024518Y-103415198D01*
X145025000Y-103425000D01*
X145025000Y-103625000D01*
X145024518Y-103634802D01*
X145023079Y-103644509D01*
X145020694Y-103654028D01*
X145017388Y-103663268D01*
X145013192Y-103672140D01*
X145008147Y-103680557D01*
X145002301Y-103688439D01*
X144995711Y-103695711D01*
X144988439Y-103702301D01*
X144980557Y-103708147D01*
X144972140Y-103713192D01*
X144963268Y-103717388D01*
X144954028Y-103720694D01*
X144944509Y-103723079D01*
X144934802Y-103724518D01*
X144925000Y-103725000D01*
X144175000Y-103725000D01*
X144165198Y-103724518D01*
X144155491Y-103723079D01*
X144145972Y-103720694D01*
X144136732Y-103717388D01*
X144127860Y-103713192D01*
X144119443Y-103708147D01*
X144111561Y-103702301D01*
X144104289Y-103695711D01*
X144097699Y-103688439D01*
X144091853Y-103680557D01*
X144086808Y-103672140D01*
X144082612Y-103663268D01*
X144079306Y-103654028D01*
X144076921Y-103644509D01*
X144075482Y-103634802D01*
X144075000Y-103625000D01*
X144075000Y-103425000D01*
X144075482Y-103415198D01*
X144076921Y-103405491D01*
X144079306Y-103395972D01*
X144082612Y-103386732D01*
X144086808Y-103377860D01*
X144091853Y-103369443D01*
X144097699Y-103361561D01*
X144104289Y-103354289D01*
X144111561Y-103347699D01*
X144119443Y-103341853D01*
X144127860Y-103336808D01*
X144136732Y-103332612D01*
X144145972Y-103329306D01*
X144155491Y-103326921D01*
X144165198Y-103325482D01*
X144175000Y-103325000D01*
X144925000Y-103325000D01*
X144934802Y-103325482D01*
X144934802Y-103325482D01*
G37*
D18*
X144550000Y-103525000D03*
D14*
G36*
X145634802Y-102075482D02*
G01*
X145644509Y-102076921D01*
X145654028Y-102079306D01*
X145663268Y-102082612D01*
X145672140Y-102086808D01*
X145680557Y-102091853D01*
X145688439Y-102097699D01*
X145695711Y-102104289D01*
X145702301Y-102111561D01*
X145708147Y-102119443D01*
X145713192Y-102127860D01*
X145717388Y-102136732D01*
X145720694Y-102145972D01*
X145723079Y-102155491D01*
X145724518Y-102165198D01*
X145725000Y-102175000D01*
X145725000Y-102925000D01*
X145724518Y-102934802D01*
X145723079Y-102944509D01*
X145720694Y-102954028D01*
X145717388Y-102963268D01*
X145713192Y-102972140D01*
X145708147Y-102980557D01*
X145702301Y-102988439D01*
X145695711Y-102995711D01*
X145688439Y-103002301D01*
X145680557Y-103008147D01*
X145672140Y-103013192D01*
X145663268Y-103017388D01*
X145654028Y-103020694D01*
X145644509Y-103023079D01*
X145634802Y-103024518D01*
X145625000Y-103025000D01*
X145425000Y-103025000D01*
X145415198Y-103024518D01*
X145405491Y-103023079D01*
X145395972Y-103020694D01*
X145386732Y-103017388D01*
X145377860Y-103013192D01*
X145369443Y-103008147D01*
X145361561Y-103002301D01*
X145354289Y-102995711D01*
X145347699Y-102988439D01*
X145341853Y-102980557D01*
X145336808Y-102972140D01*
X145332612Y-102963268D01*
X145329306Y-102954028D01*
X145326921Y-102944509D01*
X145325482Y-102934802D01*
X145325000Y-102925000D01*
X145325000Y-102175000D01*
X145325482Y-102165198D01*
X145326921Y-102155491D01*
X145329306Y-102145972D01*
X145332612Y-102136732D01*
X145336808Y-102127860D01*
X145341853Y-102119443D01*
X145347699Y-102111561D01*
X145354289Y-102104289D01*
X145361561Y-102097699D01*
X145369443Y-102091853D01*
X145377860Y-102086808D01*
X145386732Y-102082612D01*
X145395972Y-102079306D01*
X145405491Y-102076921D01*
X145415198Y-102075482D01*
X145425000Y-102075000D01*
X145625000Y-102075000D01*
X145634802Y-102075482D01*
X145634802Y-102075482D01*
G37*
D18*
X145525000Y-102550000D03*
D14*
G36*
X146284802Y-102075482D02*
G01*
X146294509Y-102076921D01*
X146304028Y-102079306D01*
X146313268Y-102082612D01*
X146322140Y-102086808D01*
X146330557Y-102091853D01*
X146338439Y-102097699D01*
X146345711Y-102104289D01*
X146352301Y-102111561D01*
X146358147Y-102119443D01*
X146363192Y-102127860D01*
X146367388Y-102136732D01*
X146370694Y-102145972D01*
X146373079Y-102155491D01*
X146374518Y-102165198D01*
X146375000Y-102175000D01*
X146375000Y-102925000D01*
X146374518Y-102934802D01*
X146373079Y-102944509D01*
X146370694Y-102954028D01*
X146367388Y-102963268D01*
X146363192Y-102972140D01*
X146358147Y-102980557D01*
X146352301Y-102988439D01*
X146345711Y-102995711D01*
X146338439Y-103002301D01*
X146330557Y-103008147D01*
X146322140Y-103013192D01*
X146313268Y-103017388D01*
X146304028Y-103020694D01*
X146294509Y-103023079D01*
X146284802Y-103024518D01*
X146275000Y-103025000D01*
X146075000Y-103025000D01*
X146065198Y-103024518D01*
X146055491Y-103023079D01*
X146045972Y-103020694D01*
X146036732Y-103017388D01*
X146027860Y-103013192D01*
X146019443Y-103008147D01*
X146011561Y-103002301D01*
X146004289Y-102995711D01*
X145997699Y-102988439D01*
X145991853Y-102980557D01*
X145986808Y-102972140D01*
X145982612Y-102963268D01*
X145979306Y-102954028D01*
X145976921Y-102944509D01*
X145975482Y-102934802D01*
X145975000Y-102925000D01*
X145975000Y-102175000D01*
X145975482Y-102165198D01*
X145976921Y-102155491D01*
X145979306Y-102145972D01*
X145982612Y-102136732D01*
X145986808Y-102127860D01*
X145991853Y-102119443D01*
X145997699Y-102111561D01*
X146004289Y-102104289D01*
X146011561Y-102097699D01*
X146019443Y-102091853D01*
X146027860Y-102086808D01*
X146036732Y-102082612D01*
X146045972Y-102079306D01*
X146055491Y-102076921D01*
X146065198Y-102075482D01*
X146075000Y-102075000D01*
X146275000Y-102075000D01*
X146284802Y-102075482D01*
X146284802Y-102075482D01*
G37*
D18*
X146175000Y-102550000D03*
D14*
G36*
X146934802Y-102075482D02*
G01*
X146944509Y-102076921D01*
X146954028Y-102079306D01*
X146963268Y-102082612D01*
X146972140Y-102086808D01*
X146980557Y-102091853D01*
X146988439Y-102097699D01*
X146995711Y-102104289D01*
X147002301Y-102111561D01*
X147008147Y-102119443D01*
X147013192Y-102127860D01*
X147017388Y-102136732D01*
X147020694Y-102145972D01*
X147023079Y-102155491D01*
X147024518Y-102165198D01*
X147025000Y-102175000D01*
X147025000Y-102925000D01*
X147024518Y-102934802D01*
X147023079Y-102944509D01*
X147020694Y-102954028D01*
X147017388Y-102963268D01*
X147013192Y-102972140D01*
X147008147Y-102980557D01*
X147002301Y-102988439D01*
X146995711Y-102995711D01*
X146988439Y-103002301D01*
X146980557Y-103008147D01*
X146972140Y-103013192D01*
X146963268Y-103017388D01*
X146954028Y-103020694D01*
X146944509Y-103023079D01*
X146934802Y-103024518D01*
X146925000Y-103025000D01*
X146725000Y-103025000D01*
X146715198Y-103024518D01*
X146705491Y-103023079D01*
X146695972Y-103020694D01*
X146686732Y-103017388D01*
X146677860Y-103013192D01*
X146669443Y-103008147D01*
X146661561Y-103002301D01*
X146654289Y-102995711D01*
X146647699Y-102988439D01*
X146641853Y-102980557D01*
X146636808Y-102972140D01*
X146632612Y-102963268D01*
X146629306Y-102954028D01*
X146626921Y-102944509D01*
X146625482Y-102934802D01*
X146625000Y-102925000D01*
X146625000Y-102175000D01*
X146625482Y-102165198D01*
X146626921Y-102155491D01*
X146629306Y-102145972D01*
X146632612Y-102136732D01*
X146636808Y-102127860D01*
X146641853Y-102119443D01*
X146647699Y-102111561D01*
X146654289Y-102104289D01*
X146661561Y-102097699D01*
X146669443Y-102091853D01*
X146677860Y-102086808D01*
X146686732Y-102082612D01*
X146695972Y-102079306D01*
X146705491Y-102076921D01*
X146715198Y-102075482D01*
X146725000Y-102075000D01*
X146925000Y-102075000D01*
X146934802Y-102075482D01*
X146934802Y-102075482D01*
G37*
D18*
X146825000Y-102550000D03*
D14*
G36*
X147584802Y-102075482D02*
G01*
X147594509Y-102076921D01*
X147604028Y-102079306D01*
X147613268Y-102082612D01*
X147622140Y-102086808D01*
X147630557Y-102091853D01*
X147638439Y-102097699D01*
X147645711Y-102104289D01*
X147652301Y-102111561D01*
X147658147Y-102119443D01*
X147663192Y-102127860D01*
X147667388Y-102136732D01*
X147670694Y-102145972D01*
X147673079Y-102155491D01*
X147674518Y-102165198D01*
X147675000Y-102175000D01*
X147675000Y-102925000D01*
X147674518Y-102934802D01*
X147673079Y-102944509D01*
X147670694Y-102954028D01*
X147667388Y-102963268D01*
X147663192Y-102972140D01*
X147658147Y-102980557D01*
X147652301Y-102988439D01*
X147645711Y-102995711D01*
X147638439Y-103002301D01*
X147630557Y-103008147D01*
X147622140Y-103013192D01*
X147613268Y-103017388D01*
X147604028Y-103020694D01*
X147594509Y-103023079D01*
X147584802Y-103024518D01*
X147575000Y-103025000D01*
X147375000Y-103025000D01*
X147365198Y-103024518D01*
X147355491Y-103023079D01*
X147345972Y-103020694D01*
X147336732Y-103017388D01*
X147327860Y-103013192D01*
X147319443Y-103008147D01*
X147311561Y-103002301D01*
X147304289Y-102995711D01*
X147297699Y-102988439D01*
X147291853Y-102980557D01*
X147286808Y-102972140D01*
X147282612Y-102963268D01*
X147279306Y-102954028D01*
X147276921Y-102944509D01*
X147275482Y-102934802D01*
X147275000Y-102925000D01*
X147275000Y-102175000D01*
X147275482Y-102165198D01*
X147276921Y-102155491D01*
X147279306Y-102145972D01*
X147282612Y-102136732D01*
X147286808Y-102127860D01*
X147291853Y-102119443D01*
X147297699Y-102111561D01*
X147304289Y-102104289D01*
X147311561Y-102097699D01*
X147319443Y-102091853D01*
X147327860Y-102086808D01*
X147336732Y-102082612D01*
X147345972Y-102079306D01*
X147355491Y-102076921D01*
X147365198Y-102075482D01*
X147375000Y-102075000D01*
X147575000Y-102075000D01*
X147584802Y-102075482D01*
X147584802Y-102075482D01*
G37*
D18*
X147475000Y-102550000D03*
D14*
G36*
X148834802Y-103325482D02*
G01*
X148844509Y-103326921D01*
X148854028Y-103329306D01*
X148863268Y-103332612D01*
X148872140Y-103336808D01*
X148880557Y-103341853D01*
X148888439Y-103347699D01*
X148895711Y-103354289D01*
X148902301Y-103361561D01*
X148908147Y-103369443D01*
X148913192Y-103377860D01*
X148917388Y-103386732D01*
X148920694Y-103395972D01*
X148923079Y-103405491D01*
X148924518Y-103415198D01*
X148925000Y-103425000D01*
X148925000Y-103625000D01*
X148924518Y-103634802D01*
X148923079Y-103644509D01*
X148920694Y-103654028D01*
X148917388Y-103663268D01*
X148913192Y-103672140D01*
X148908147Y-103680557D01*
X148902301Y-103688439D01*
X148895711Y-103695711D01*
X148888439Y-103702301D01*
X148880557Y-103708147D01*
X148872140Y-103713192D01*
X148863268Y-103717388D01*
X148854028Y-103720694D01*
X148844509Y-103723079D01*
X148834802Y-103724518D01*
X148825000Y-103725000D01*
X148075000Y-103725000D01*
X148065198Y-103724518D01*
X148055491Y-103723079D01*
X148045972Y-103720694D01*
X148036732Y-103717388D01*
X148027860Y-103713192D01*
X148019443Y-103708147D01*
X148011561Y-103702301D01*
X148004289Y-103695711D01*
X147997699Y-103688439D01*
X147991853Y-103680557D01*
X147986808Y-103672140D01*
X147982612Y-103663268D01*
X147979306Y-103654028D01*
X147976921Y-103644509D01*
X147975482Y-103634802D01*
X147975000Y-103625000D01*
X147975000Y-103425000D01*
X147975482Y-103415198D01*
X147976921Y-103405491D01*
X147979306Y-103395972D01*
X147982612Y-103386732D01*
X147986808Y-103377860D01*
X147991853Y-103369443D01*
X147997699Y-103361561D01*
X148004289Y-103354289D01*
X148011561Y-103347699D01*
X148019443Y-103341853D01*
X148027860Y-103336808D01*
X148036732Y-103332612D01*
X148045972Y-103329306D01*
X148055491Y-103326921D01*
X148065198Y-103325482D01*
X148075000Y-103325000D01*
X148825000Y-103325000D01*
X148834802Y-103325482D01*
X148834802Y-103325482D01*
G37*
D18*
X148450000Y-103525000D03*
D14*
G36*
X148834802Y-103975482D02*
G01*
X148844509Y-103976921D01*
X148854028Y-103979306D01*
X148863268Y-103982612D01*
X148872140Y-103986808D01*
X148880557Y-103991853D01*
X148888439Y-103997699D01*
X148895711Y-104004289D01*
X148902301Y-104011561D01*
X148908147Y-104019443D01*
X148913192Y-104027860D01*
X148917388Y-104036732D01*
X148920694Y-104045972D01*
X148923079Y-104055491D01*
X148924518Y-104065198D01*
X148925000Y-104075000D01*
X148925000Y-104275000D01*
X148924518Y-104284802D01*
X148923079Y-104294509D01*
X148920694Y-104304028D01*
X148917388Y-104313268D01*
X148913192Y-104322140D01*
X148908147Y-104330557D01*
X148902301Y-104338439D01*
X148895711Y-104345711D01*
X148888439Y-104352301D01*
X148880557Y-104358147D01*
X148872140Y-104363192D01*
X148863268Y-104367388D01*
X148854028Y-104370694D01*
X148844509Y-104373079D01*
X148834802Y-104374518D01*
X148825000Y-104375000D01*
X148075000Y-104375000D01*
X148065198Y-104374518D01*
X148055491Y-104373079D01*
X148045972Y-104370694D01*
X148036732Y-104367388D01*
X148027860Y-104363192D01*
X148019443Y-104358147D01*
X148011561Y-104352301D01*
X148004289Y-104345711D01*
X147997699Y-104338439D01*
X147991853Y-104330557D01*
X147986808Y-104322140D01*
X147982612Y-104313268D01*
X147979306Y-104304028D01*
X147976921Y-104294509D01*
X147975482Y-104284802D01*
X147975000Y-104275000D01*
X147975000Y-104075000D01*
X147975482Y-104065198D01*
X147976921Y-104055491D01*
X147979306Y-104045972D01*
X147982612Y-104036732D01*
X147986808Y-104027860D01*
X147991853Y-104019443D01*
X147997699Y-104011561D01*
X148004289Y-104004289D01*
X148011561Y-103997699D01*
X148019443Y-103991853D01*
X148027860Y-103986808D01*
X148036732Y-103982612D01*
X148045972Y-103979306D01*
X148055491Y-103976921D01*
X148065198Y-103975482D01*
X148075000Y-103975000D01*
X148825000Y-103975000D01*
X148834802Y-103975482D01*
X148834802Y-103975482D01*
G37*
D18*
X148450000Y-104175000D03*
D14*
G36*
X148834802Y-104625482D02*
G01*
X148844509Y-104626921D01*
X148854028Y-104629306D01*
X148863268Y-104632612D01*
X148872140Y-104636808D01*
X148880557Y-104641853D01*
X148888439Y-104647699D01*
X148895711Y-104654289D01*
X148902301Y-104661561D01*
X148908147Y-104669443D01*
X148913192Y-104677860D01*
X148917388Y-104686732D01*
X148920694Y-104695972D01*
X148923079Y-104705491D01*
X148924518Y-104715198D01*
X148925000Y-104725000D01*
X148925000Y-104925000D01*
X148924518Y-104934802D01*
X148923079Y-104944509D01*
X148920694Y-104954028D01*
X148917388Y-104963268D01*
X148913192Y-104972140D01*
X148908147Y-104980557D01*
X148902301Y-104988439D01*
X148895711Y-104995711D01*
X148888439Y-105002301D01*
X148880557Y-105008147D01*
X148872140Y-105013192D01*
X148863268Y-105017388D01*
X148854028Y-105020694D01*
X148844509Y-105023079D01*
X148834802Y-105024518D01*
X148825000Y-105025000D01*
X148075000Y-105025000D01*
X148065198Y-105024518D01*
X148055491Y-105023079D01*
X148045972Y-105020694D01*
X148036732Y-105017388D01*
X148027860Y-105013192D01*
X148019443Y-105008147D01*
X148011561Y-105002301D01*
X148004289Y-104995711D01*
X147997699Y-104988439D01*
X147991853Y-104980557D01*
X147986808Y-104972140D01*
X147982612Y-104963268D01*
X147979306Y-104954028D01*
X147976921Y-104944509D01*
X147975482Y-104934802D01*
X147975000Y-104925000D01*
X147975000Y-104725000D01*
X147975482Y-104715198D01*
X147976921Y-104705491D01*
X147979306Y-104695972D01*
X147982612Y-104686732D01*
X147986808Y-104677860D01*
X147991853Y-104669443D01*
X147997699Y-104661561D01*
X148004289Y-104654289D01*
X148011561Y-104647699D01*
X148019443Y-104641853D01*
X148027860Y-104636808D01*
X148036732Y-104632612D01*
X148045972Y-104629306D01*
X148055491Y-104626921D01*
X148065198Y-104625482D01*
X148075000Y-104625000D01*
X148825000Y-104625000D01*
X148834802Y-104625482D01*
X148834802Y-104625482D01*
G37*
D18*
X148450000Y-104825000D03*
D14*
G36*
X148834802Y-105275482D02*
G01*
X148844509Y-105276921D01*
X148854028Y-105279306D01*
X148863268Y-105282612D01*
X148872140Y-105286808D01*
X148880557Y-105291853D01*
X148888439Y-105297699D01*
X148895711Y-105304289D01*
X148902301Y-105311561D01*
X148908147Y-105319443D01*
X148913192Y-105327860D01*
X148917388Y-105336732D01*
X148920694Y-105345972D01*
X148923079Y-105355491D01*
X148924518Y-105365198D01*
X148925000Y-105375000D01*
X148925000Y-105575000D01*
X148924518Y-105584802D01*
X148923079Y-105594509D01*
X148920694Y-105604028D01*
X148917388Y-105613268D01*
X148913192Y-105622140D01*
X148908147Y-105630557D01*
X148902301Y-105638439D01*
X148895711Y-105645711D01*
X148888439Y-105652301D01*
X148880557Y-105658147D01*
X148872140Y-105663192D01*
X148863268Y-105667388D01*
X148854028Y-105670694D01*
X148844509Y-105673079D01*
X148834802Y-105674518D01*
X148825000Y-105675000D01*
X148075000Y-105675000D01*
X148065198Y-105674518D01*
X148055491Y-105673079D01*
X148045972Y-105670694D01*
X148036732Y-105667388D01*
X148027860Y-105663192D01*
X148019443Y-105658147D01*
X148011561Y-105652301D01*
X148004289Y-105645711D01*
X147997699Y-105638439D01*
X147991853Y-105630557D01*
X147986808Y-105622140D01*
X147982612Y-105613268D01*
X147979306Y-105604028D01*
X147976921Y-105594509D01*
X147975482Y-105584802D01*
X147975000Y-105575000D01*
X147975000Y-105375000D01*
X147975482Y-105365198D01*
X147976921Y-105355491D01*
X147979306Y-105345972D01*
X147982612Y-105336732D01*
X147986808Y-105327860D01*
X147991853Y-105319443D01*
X147997699Y-105311561D01*
X148004289Y-105304289D01*
X148011561Y-105297699D01*
X148019443Y-105291853D01*
X148027860Y-105286808D01*
X148036732Y-105282612D01*
X148045972Y-105279306D01*
X148055491Y-105276921D01*
X148065198Y-105275482D01*
X148075000Y-105275000D01*
X148825000Y-105275000D01*
X148834802Y-105275482D01*
X148834802Y-105275482D01*
G37*
D18*
X148450000Y-105475000D03*
D14*
G36*
X147584802Y-105975482D02*
G01*
X147594509Y-105976921D01*
X147604028Y-105979306D01*
X147613268Y-105982612D01*
X147622140Y-105986808D01*
X147630557Y-105991853D01*
X147638439Y-105997699D01*
X147645711Y-106004289D01*
X147652301Y-106011561D01*
X147658147Y-106019443D01*
X147663192Y-106027860D01*
X147667388Y-106036732D01*
X147670694Y-106045972D01*
X147673079Y-106055491D01*
X147674518Y-106065198D01*
X147675000Y-106075000D01*
X147675000Y-106825000D01*
X147674518Y-106834802D01*
X147673079Y-106844509D01*
X147670694Y-106854028D01*
X147667388Y-106863268D01*
X147663192Y-106872140D01*
X147658147Y-106880557D01*
X147652301Y-106888439D01*
X147645711Y-106895711D01*
X147638439Y-106902301D01*
X147630557Y-106908147D01*
X147622140Y-106913192D01*
X147613268Y-106917388D01*
X147604028Y-106920694D01*
X147594509Y-106923079D01*
X147584802Y-106924518D01*
X147575000Y-106925000D01*
X147375000Y-106925000D01*
X147365198Y-106924518D01*
X147355491Y-106923079D01*
X147345972Y-106920694D01*
X147336732Y-106917388D01*
X147327860Y-106913192D01*
X147319443Y-106908147D01*
X147311561Y-106902301D01*
X147304289Y-106895711D01*
X147297699Y-106888439D01*
X147291853Y-106880557D01*
X147286808Y-106872140D01*
X147282612Y-106863268D01*
X147279306Y-106854028D01*
X147276921Y-106844509D01*
X147275482Y-106834802D01*
X147275000Y-106825000D01*
X147275000Y-106075000D01*
X147275482Y-106065198D01*
X147276921Y-106055491D01*
X147279306Y-106045972D01*
X147282612Y-106036732D01*
X147286808Y-106027860D01*
X147291853Y-106019443D01*
X147297699Y-106011561D01*
X147304289Y-106004289D01*
X147311561Y-105997699D01*
X147319443Y-105991853D01*
X147327860Y-105986808D01*
X147336732Y-105982612D01*
X147345972Y-105979306D01*
X147355491Y-105976921D01*
X147365198Y-105975482D01*
X147375000Y-105975000D01*
X147575000Y-105975000D01*
X147584802Y-105975482D01*
X147584802Y-105975482D01*
G37*
D18*
X147475000Y-106450000D03*
D14*
G36*
X146934802Y-105975482D02*
G01*
X146944509Y-105976921D01*
X146954028Y-105979306D01*
X146963268Y-105982612D01*
X146972140Y-105986808D01*
X146980557Y-105991853D01*
X146988439Y-105997699D01*
X146995711Y-106004289D01*
X147002301Y-106011561D01*
X147008147Y-106019443D01*
X147013192Y-106027860D01*
X147017388Y-106036732D01*
X147020694Y-106045972D01*
X147023079Y-106055491D01*
X147024518Y-106065198D01*
X147025000Y-106075000D01*
X147025000Y-106825000D01*
X147024518Y-106834802D01*
X147023079Y-106844509D01*
X147020694Y-106854028D01*
X147017388Y-106863268D01*
X147013192Y-106872140D01*
X147008147Y-106880557D01*
X147002301Y-106888439D01*
X146995711Y-106895711D01*
X146988439Y-106902301D01*
X146980557Y-106908147D01*
X146972140Y-106913192D01*
X146963268Y-106917388D01*
X146954028Y-106920694D01*
X146944509Y-106923079D01*
X146934802Y-106924518D01*
X146925000Y-106925000D01*
X146725000Y-106925000D01*
X146715198Y-106924518D01*
X146705491Y-106923079D01*
X146695972Y-106920694D01*
X146686732Y-106917388D01*
X146677860Y-106913192D01*
X146669443Y-106908147D01*
X146661561Y-106902301D01*
X146654289Y-106895711D01*
X146647699Y-106888439D01*
X146641853Y-106880557D01*
X146636808Y-106872140D01*
X146632612Y-106863268D01*
X146629306Y-106854028D01*
X146626921Y-106844509D01*
X146625482Y-106834802D01*
X146625000Y-106825000D01*
X146625000Y-106075000D01*
X146625482Y-106065198D01*
X146626921Y-106055491D01*
X146629306Y-106045972D01*
X146632612Y-106036732D01*
X146636808Y-106027860D01*
X146641853Y-106019443D01*
X146647699Y-106011561D01*
X146654289Y-106004289D01*
X146661561Y-105997699D01*
X146669443Y-105991853D01*
X146677860Y-105986808D01*
X146686732Y-105982612D01*
X146695972Y-105979306D01*
X146705491Y-105976921D01*
X146715198Y-105975482D01*
X146725000Y-105975000D01*
X146925000Y-105975000D01*
X146934802Y-105975482D01*
X146934802Y-105975482D01*
G37*
D18*
X146825000Y-106450000D03*
D14*
G36*
X146284802Y-105975482D02*
G01*
X146294509Y-105976921D01*
X146304028Y-105979306D01*
X146313268Y-105982612D01*
X146322140Y-105986808D01*
X146330557Y-105991853D01*
X146338439Y-105997699D01*
X146345711Y-106004289D01*
X146352301Y-106011561D01*
X146358147Y-106019443D01*
X146363192Y-106027860D01*
X146367388Y-106036732D01*
X146370694Y-106045972D01*
X146373079Y-106055491D01*
X146374518Y-106065198D01*
X146375000Y-106075000D01*
X146375000Y-106825000D01*
X146374518Y-106834802D01*
X146373079Y-106844509D01*
X146370694Y-106854028D01*
X146367388Y-106863268D01*
X146363192Y-106872140D01*
X146358147Y-106880557D01*
X146352301Y-106888439D01*
X146345711Y-106895711D01*
X146338439Y-106902301D01*
X146330557Y-106908147D01*
X146322140Y-106913192D01*
X146313268Y-106917388D01*
X146304028Y-106920694D01*
X146294509Y-106923079D01*
X146284802Y-106924518D01*
X146275000Y-106925000D01*
X146075000Y-106925000D01*
X146065198Y-106924518D01*
X146055491Y-106923079D01*
X146045972Y-106920694D01*
X146036732Y-106917388D01*
X146027860Y-106913192D01*
X146019443Y-106908147D01*
X146011561Y-106902301D01*
X146004289Y-106895711D01*
X145997699Y-106888439D01*
X145991853Y-106880557D01*
X145986808Y-106872140D01*
X145982612Y-106863268D01*
X145979306Y-106854028D01*
X145976921Y-106844509D01*
X145975482Y-106834802D01*
X145975000Y-106825000D01*
X145975000Y-106075000D01*
X145975482Y-106065198D01*
X145976921Y-106055491D01*
X145979306Y-106045972D01*
X145982612Y-106036732D01*
X145986808Y-106027860D01*
X145991853Y-106019443D01*
X145997699Y-106011561D01*
X146004289Y-106004289D01*
X146011561Y-105997699D01*
X146019443Y-105991853D01*
X146027860Y-105986808D01*
X146036732Y-105982612D01*
X146045972Y-105979306D01*
X146055491Y-105976921D01*
X146065198Y-105975482D01*
X146075000Y-105975000D01*
X146275000Y-105975000D01*
X146284802Y-105975482D01*
X146284802Y-105975482D01*
G37*
D18*
X146175000Y-106450000D03*
D14*
G36*
X145634802Y-105975482D02*
G01*
X145644509Y-105976921D01*
X145654028Y-105979306D01*
X145663268Y-105982612D01*
X145672140Y-105986808D01*
X145680557Y-105991853D01*
X145688439Y-105997699D01*
X145695711Y-106004289D01*
X145702301Y-106011561D01*
X145708147Y-106019443D01*
X145713192Y-106027860D01*
X145717388Y-106036732D01*
X145720694Y-106045972D01*
X145723079Y-106055491D01*
X145724518Y-106065198D01*
X145725000Y-106075000D01*
X145725000Y-106825000D01*
X145724518Y-106834802D01*
X145723079Y-106844509D01*
X145720694Y-106854028D01*
X145717388Y-106863268D01*
X145713192Y-106872140D01*
X145708147Y-106880557D01*
X145702301Y-106888439D01*
X145695711Y-106895711D01*
X145688439Y-106902301D01*
X145680557Y-106908147D01*
X145672140Y-106913192D01*
X145663268Y-106917388D01*
X145654028Y-106920694D01*
X145644509Y-106923079D01*
X145634802Y-106924518D01*
X145625000Y-106925000D01*
X145425000Y-106925000D01*
X145415198Y-106924518D01*
X145405491Y-106923079D01*
X145395972Y-106920694D01*
X145386732Y-106917388D01*
X145377860Y-106913192D01*
X145369443Y-106908147D01*
X145361561Y-106902301D01*
X145354289Y-106895711D01*
X145347699Y-106888439D01*
X145341853Y-106880557D01*
X145336808Y-106872140D01*
X145332612Y-106863268D01*
X145329306Y-106854028D01*
X145326921Y-106844509D01*
X145325482Y-106834802D01*
X145325000Y-106825000D01*
X145325000Y-106075000D01*
X145325482Y-106065198D01*
X145326921Y-106055491D01*
X145329306Y-106045972D01*
X145332612Y-106036732D01*
X145336808Y-106027860D01*
X145341853Y-106019443D01*
X145347699Y-106011561D01*
X145354289Y-106004289D01*
X145361561Y-105997699D01*
X145369443Y-105991853D01*
X145377860Y-105986808D01*
X145386732Y-105982612D01*
X145395972Y-105979306D01*
X145405491Y-105976921D01*
X145415198Y-105975482D01*
X145425000Y-105975000D01*
X145625000Y-105975000D01*
X145634802Y-105975482D01*
X145634802Y-105975482D01*
G37*
D18*
X145525000Y-106450000D03*
D14*
G36*
X147363766Y-103401261D02*
G01*
X147389190Y-103405032D01*
X147414122Y-103411278D01*
X147438322Y-103419936D01*
X147461556Y-103430925D01*
X147483602Y-103444139D01*
X147504246Y-103459450D01*
X147523290Y-103476710D01*
X147540550Y-103495754D01*
X147555861Y-103516398D01*
X147569075Y-103538444D01*
X147580064Y-103561678D01*
X147588722Y-103585878D01*
X147594968Y-103610810D01*
X147598739Y-103636234D01*
X147600000Y-103661905D01*
X147600000Y-105338095D01*
X147598739Y-105363766D01*
X147594968Y-105389190D01*
X147588722Y-105414122D01*
X147580064Y-105438322D01*
X147569075Y-105461556D01*
X147555861Y-105483602D01*
X147540550Y-105504246D01*
X147523290Y-105523290D01*
X147504246Y-105540550D01*
X147483602Y-105555861D01*
X147461556Y-105569075D01*
X147438322Y-105580064D01*
X147414122Y-105588722D01*
X147389190Y-105594968D01*
X147363766Y-105598739D01*
X147338095Y-105600000D01*
X145661905Y-105600000D01*
X145636234Y-105598739D01*
X145610810Y-105594968D01*
X145585878Y-105588722D01*
X145561678Y-105580064D01*
X145538444Y-105569075D01*
X145516398Y-105555861D01*
X145495754Y-105540550D01*
X145476710Y-105523290D01*
X145459450Y-105504246D01*
X145444139Y-105483602D01*
X145430925Y-105461556D01*
X145419936Y-105438322D01*
X145411278Y-105414122D01*
X145405032Y-105389190D01*
X145401261Y-105363766D01*
X145400000Y-105338095D01*
X145400000Y-103661905D01*
X145401261Y-103636234D01*
X145405032Y-103610810D01*
X145411278Y-103585878D01*
X145419936Y-103561678D01*
X145430925Y-103538444D01*
X145444139Y-103516398D01*
X145459450Y-103495754D01*
X145476710Y-103476710D01*
X145495754Y-103459450D01*
X145516398Y-103444139D01*
X145538444Y-103430925D01*
X145561678Y-103419936D01*
X145585878Y-103411278D01*
X145610810Y-103405032D01*
X145636234Y-103401261D01*
X145661905Y-103400000D01*
X147338095Y-103400000D01*
X147363766Y-103401261D01*
X147363766Y-103401261D01*
G37*
D19*
X146500000Y-104500000D03*
D14*
G36*
X150109802Y-105425482D02*
G01*
X150119509Y-105426921D01*
X150129028Y-105429306D01*
X150138268Y-105432612D01*
X150147140Y-105436808D01*
X150155557Y-105441853D01*
X150163439Y-105447699D01*
X150170711Y-105454289D01*
X150177301Y-105461561D01*
X150183147Y-105469443D01*
X150188192Y-105477860D01*
X150192388Y-105486732D01*
X150195694Y-105495972D01*
X150198079Y-105505491D01*
X150199518Y-105515198D01*
X150200000Y-105525000D01*
X150200000Y-105875000D01*
X150199518Y-105884802D01*
X150198079Y-105894509D01*
X150195694Y-105904028D01*
X150192388Y-105913268D01*
X150188192Y-105922140D01*
X150183147Y-105930557D01*
X150177301Y-105938439D01*
X150170711Y-105945711D01*
X150163439Y-105952301D01*
X150155557Y-105958147D01*
X150147140Y-105963192D01*
X150138268Y-105967388D01*
X150129028Y-105970694D01*
X150119509Y-105973079D01*
X150109802Y-105974518D01*
X150100000Y-105975000D01*
X149900000Y-105975000D01*
X149890198Y-105974518D01*
X149880491Y-105973079D01*
X149870972Y-105970694D01*
X149861732Y-105967388D01*
X149852860Y-105963192D01*
X149844443Y-105958147D01*
X149836561Y-105952301D01*
X149829289Y-105945711D01*
X149822699Y-105938439D01*
X149816853Y-105930557D01*
X149811808Y-105922140D01*
X149807612Y-105913268D01*
X149804306Y-105904028D01*
X149801921Y-105894509D01*
X149800482Y-105884802D01*
X149800000Y-105875000D01*
X149800000Y-105525000D01*
X149800482Y-105515198D01*
X149801921Y-105505491D01*
X149804306Y-105495972D01*
X149807612Y-105486732D01*
X149811808Y-105477860D01*
X149816853Y-105469443D01*
X149822699Y-105461561D01*
X149829289Y-105454289D01*
X149836561Y-105447699D01*
X149844443Y-105441853D01*
X149852860Y-105436808D01*
X149861732Y-105432612D01*
X149870972Y-105429306D01*
X149880491Y-105426921D01*
X149890198Y-105425482D01*
X149900000Y-105425000D01*
X150100000Y-105425000D01*
X150109802Y-105425482D01*
X150109802Y-105425482D01*
G37*
D18*
X150000000Y-105700000D03*
D14*
G36*
X150609802Y-105425482D02*
G01*
X150619509Y-105426921D01*
X150629028Y-105429306D01*
X150638268Y-105432612D01*
X150647140Y-105436808D01*
X150655557Y-105441853D01*
X150663439Y-105447699D01*
X150670711Y-105454289D01*
X150677301Y-105461561D01*
X150683147Y-105469443D01*
X150688192Y-105477860D01*
X150692388Y-105486732D01*
X150695694Y-105495972D01*
X150698079Y-105505491D01*
X150699518Y-105515198D01*
X150700000Y-105525000D01*
X150700000Y-105875000D01*
X150699518Y-105884802D01*
X150698079Y-105894509D01*
X150695694Y-105904028D01*
X150692388Y-105913268D01*
X150688192Y-105922140D01*
X150683147Y-105930557D01*
X150677301Y-105938439D01*
X150670711Y-105945711D01*
X150663439Y-105952301D01*
X150655557Y-105958147D01*
X150647140Y-105963192D01*
X150638268Y-105967388D01*
X150629028Y-105970694D01*
X150619509Y-105973079D01*
X150609802Y-105974518D01*
X150600000Y-105975000D01*
X150400000Y-105975000D01*
X150390198Y-105974518D01*
X150380491Y-105973079D01*
X150370972Y-105970694D01*
X150361732Y-105967388D01*
X150352860Y-105963192D01*
X150344443Y-105958147D01*
X150336561Y-105952301D01*
X150329289Y-105945711D01*
X150322699Y-105938439D01*
X150316853Y-105930557D01*
X150311808Y-105922140D01*
X150307612Y-105913268D01*
X150304306Y-105904028D01*
X150301921Y-105894509D01*
X150300482Y-105884802D01*
X150300000Y-105875000D01*
X150300000Y-105525000D01*
X150300482Y-105515198D01*
X150301921Y-105505491D01*
X150304306Y-105495972D01*
X150307612Y-105486732D01*
X150311808Y-105477860D01*
X150316853Y-105469443D01*
X150322699Y-105461561D01*
X150329289Y-105454289D01*
X150336561Y-105447699D01*
X150344443Y-105441853D01*
X150352860Y-105436808D01*
X150361732Y-105432612D01*
X150370972Y-105429306D01*
X150380491Y-105426921D01*
X150390198Y-105425482D01*
X150400000Y-105425000D01*
X150600000Y-105425000D01*
X150609802Y-105425482D01*
X150609802Y-105425482D01*
G37*
D18*
X150500000Y-105700000D03*
D14*
G36*
X150609802Y-104025482D02*
G01*
X150619509Y-104026921D01*
X150629028Y-104029306D01*
X150638268Y-104032612D01*
X150647140Y-104036808D01*
X150655557Y-104041853D01*
X150663439Y-104047699D01*
X150670711Y-104054289D01*
X150677301Y-104061561D01*
X150683147Y-104069443D01*
X150688192Y-104077860D01*
X150692388Y-104086732D01*
X150695694Y-104095972D01*
X150698079Y-104105491D01*
X150699518Y-104115198D01*
X150700000Y-104125000D01*
X150700000Y-104475000D01*
X150699518Y-104484802D01*
X150698079Y-104494509D01*
X150695694Y-104504028D01*
X150692388Y-104513268D01*
X150688192Y-104522140D01*
X150683147Y-104530557D01*
X150677301Y-104538439D01*
X150670711Y-104545711D01*
X150663439Y-104552301D01*
X150655557Y-104558147D01*
X150647140Y-104563192D01*
X150638268Y-104567388D01*
X150629028Y-104570694D01*
X150619509Y-104573079D01*
X150609802Y-104574518D01*
X150600000Y-104575000D01*
X150400000Y-104575000D01*
X150390198Y-104574518D01*
X150380491Y-104573079D01*
X150370972Y-104570694D01*
X150361732Y-104567388D01*
X150352860Y-104563192D01*
X150344443Y-104558147D01*
X150336561Y-104552301D01*
X150329289Y-104545711D01*
X150322699Y-104538439D01*
X150316853Y-104530557D01*
X150311808Y-104522140D01*
X150307612Y-104513268D01*
X150304306Y-104504028D01*
X150301921Y-104494509D01*
X150300482Y-104484802D01*
X150300000Y-104475000D01*
X150300000Y-104125000D01*
X150300482Y-104115198D01*
X150301921Y-104105491D01*
X150304306Y-104095972D01*
X150307612Y-104086732D01*
X150311808Y-104077860D01*
X150316853Y-104069443D01*
X150322699Y-104061561D01*
X150329289Y-104054289D01*
X150336561Y-104047699D01*
X150344443Y-104041853D01*
X150352860Y-104036808D01*
X150361732Y-104032612D01*
X150370972Y-104029306D01*
X150380491Y-104026921D01*
X150390198Y-104025482D01*
X150400000Y-104025000D01*
X150600000Y-104025000D01*
X150609802Y-104025482D01*
X150609802Y-104025482D01*
G37*
D18*
X150500000Y-104300000D03*
D14*
G36*
X151109802Y-105425482D02*
G01*
X151119509Y-105426921D01*
X151129028Y-105429306D01*
X151138268Y-105432612D01*
X151147140Y-105436808D01*
X151155557Y-105441853D01*
X151163439Y-105447699D01*
X151170711Y-105454289D01*
X151177301Y-105461561D01*
X151183147Y-105469443D01*
X151188192Y-105477860D01*
X151192388Y-105486732D01*
X151195694Y-105495972D01*
X151198079Y-105505491D01*
X151199518Y-105515198D01*
X151200000Y-105525000D01*
X151200000Y-105875000D01*
X151199518Y-105884802D01*
X151198079Y-105894509D01*
X151195694Y-105904028D01*
X151192388Y-105913268D01*
X151188192Y-105922140D01*
X151183147Y-105930557D01*
X151177301Y-105938439D01*
X151170711Y-105945711D01*
X151163439Y-105952301D01*
X151155557Y-105958147D01*
X151147140Y-105963192D01*
X151138268Y-105967388D01*
X151129028Y-105970694D01*
X151119509Y-105973079D01*
X151109802Y-105974518D01*
X151100000Y-105975000D01*
X150900000Y-105975000D01*
X150890198Y-105974518D01*
X150880491Y-105973079D01*
X150870972Y-105970694D01*
X150861732Y-105967388D01*
X150852860Y-105963192D01*
X150844443Y-105958147D01*
X150836561Y-105952301D01*
X150829289Y-105945711D01*
X150822699Y-105938439D01*
X150816853Y-105930557D01*
X150811808Y-105922140D01*
X150807612Y-105913268D01*
X150804306Y-105904028D01*
X150801921Y-105894509D01*
X150800482Y-105884802D01*
X150800000Y-105875000D01*
X150800000Y-105525000D01*
X150800482Y-105515198D01*
X150801921Y-105505491D01*
X150804306Y-105495972D01*
X150807612Y-105486732D01*
X150811808Y-105477860D01*
X150816853Y-105469443D01*
X150822699Y-105461561D01*
X150829289Y-105454289D01*
X150836561Y-105447699D01*
X150844443Y-105441853D01*
X150852860Y-105436808D01*
X150861732Y-105432612D01*
X150870972Y-105429306D01*
X150880491Y-105426921D01*
X150890198Y-105425482D01*
X150900000Y-105425000D01*
X151100000Y-105425000D01*
X151109802Y-105425482D01*
X151109802Y-105425482D01*
G37*
D18*
X151000000Y-105700000D03*
D14*
G36*
X150109802Y-104025482D02*
G01*
X150119509Y-104026921D01*
X150129028Y-104029306D01*
X150138268Y-104032612D01*
X150147140Y-104036808D01*
X150155557Y-104041853D01*
X150163439Y-104047699D01*
X150170711Y-104054289D01*
X150177301Y-104061561D01*
X150183147Y-104069443D01*
X150188192Y-104077860D01*
X150192388Y-104086732D01*
X150195694Y-104095972D01*
X150198079Y-104105491D01*
X150199518Y-104115198D01*
X150200000Y-104125000D01*
X150200000Y-104475000D01*
X150199518Y-104484802D01*
X150198079Y-104494509D01*
X150195694Y-104504028D01*
X150192388Y-104513268D01*
X150188192Y-104522140D01*
X150183147Y-104530557D01*
X150177301Y-104538439D01*
X150170711Y-104545711D01*
X150163439Y-104552301D01*
X150155557Y-104558147D01*
X150147140Y-104563192D01*
X150138268Y-104567388D01*
X150129028Y-104570694D01*
X150119509Y-104573079D01*
X150109802Y-104574518D01*
X150100000Y-104575000D01*
X149900000Y-104575000D01*
X149890198Y-104574518D01*
X149880491Y-104573079D01*
X149870972Y-104570694D01*
X149861732Y-104567388D01*
X149852860Y-104563192D01*
X149844443Y-104558147D01*
X149836561Y-104552301D01*
X149829289Y-104545711D01*
X149822699Y-104538439D01*
X149816853Y-104530557D01*
X149811808Y-104522140D01*
X149807612Y-104513268D01*
X149804306Y-104504028D01*
X149801921Y-104494509D01*
X149800482Y-104484802D01*
X149800000Y-104475000D01*
X149800000Y-104125000D01*
X149800482Y-104115198D01*
X149801921Y-104105491D01*
X149804306Y-104095972D01*
X149807612Y-104086732D01*
X149811808Y-104077860D01*
X149816853Y-104069443D01*
X149822699Y-104061561D01*
X149829289Y-104054289D01*
X149836561Y-104047699D01*
X149844443Y-104041853D01*
X149852860Y-104036808D01*
X149861732Y-104032612D01*
X149870972Y-104029306D01*
X149880491Y-104026921D01*
X149890198Y-104025482D01*
X149900000Y-104025000D01*
X150100000Y-104025000D01*
X150109802Y-104025482D01*
X150109802Y-104025482D01*
G37*
D18*
X150000000Y-104300000D03*
D14*
G36*
X151109802Y-104025482D02*
G01*
X151119509Y-104026921D01*
X151129028Y-104029306D01*
X151138268Y-104032612D01*
X151147140Y-104036808D01*
X151155557Y-104041853D01*
X151163439Y-104047699D01*
X151170711Y-104054289D01*
X151177301Y-104061561D01*
X151183147Y-104069443D01*
X151188192Y-104077860D01*
X151192388Y-104086732D01*
X151195694Y-104095972D01*
X151198079Y-104105491D01*
X151199518Y-104115198D01*
X151200000Y-104125000D01*
X151200000Y-104475000D01*
X151199518Y-104484802D01*
X151198079Y-104494509D01*
X151195694Y-104504028D01*
X151192388Y-104513268D01*
X151188192Y-104522140D01*
X151183147Y-104530557D01*
X151177301Y-104538439D01*
X151170711Y-104545711D01*
X151163439Y-104552301D01*
X151155557Y-104558147D01*
X151147140Y-104563192D01*
X151138268Y-104567388D01*
X151129028Y-104570694D01*
X151119509Y-104573079D01*
X151109802Y-104574518D01*
X151100000Y-104575000D01*
X150900000Y-104575000D01*
X150890198Y-104574518D01*
X150880491Y-104573079D01*
X150870972Y-104570694D01*
X150861732Y-104567388D01*
X150852860Y-104563192D01*
X150844443Y-104558147D01*
X150836561Y-104552301D01*
X150829289Y-104545711D01*
X150822699Y-104538439D01*
X150816853Y-104530557D01*
X150811808Y-104522140D01*
X150807612Y-104513268D01*
X150804306Y-104504028D01*
X150801921Y-104494509D01*
X150800482Y-104484802D01*
X150800000Y-104475000D01*
X150800000Y-104125000D01*
X150800482Y-104115198D01*
X150801921Y-104105491D01*
X150804306Y-104095972D01*
X150807612Y-104086732D01*
X150811808Y-104077860D01*
X150816853Y-104069443D01*
X150822699Y-104061561D01*
X150829289Y-104054289D01*
X150836561Y-104047699D01*
X150844443Y-104041853D01*
X150852860Y-104036808D01*
X150861732Y-104032612D01*
X150870972Y-104029306D01*
X150880491Y-104026921D01*
X150890198Y-104025482D01*
X150900000Y-104025000D01*
X151100000Y-104025000D01*
X151109802Y-104025482D01*
X151109802Y-104025482D01*
G37*
D18*
X151000000Y-104300000D03*
D20*
X147450000Y-109350000D03*
X147450000Y-110650000D03*
X145550000Y-110000000D03*
X145550000Y-110650000D03*
X145550000Y-109350000D03*
D14*
G36*
X149294603Y-108950963D02*
G01*
X149314018Y-108953843D01*
X149333057Y-108958612D01*
X149351537Y-108965224D01*
X149369279Y-108973616D01*
X149386114Y-108983706D01*
X149401879Y-108995398D01*
X149416421Y-109008579D01*
X149429602Y-109023121D01*
X149441294Y-109038886D01*
X149451384Y-109055721D01*
X149459776Y-109073463D01*
X149466388Y-109091943D01*
X149471157Y-109110982D01*
X149474037Y-109130397D01*
X149475000Y-109150000D01*
X149475000Y-109550000D01*
X149474037Y-109569603D01*
X149471157Y-109589018D01*
X149466388Y-109608057D01*
X149459776Y-109626537D01*
X149451384Y-109644279D01*
X149441294Y-109661114D01*
X149429602Y-109676879D01*
X149416421Y-109691421D01*
X149401879Y-109704602D01*
X149386114Y-109716294D01*
X149369279Y-109726384D01*
X149351537Y-109734776D01*
X149333057Y-109741388D01*
X149314018Y-109746157D01*
X149294603Y-109749037D01*
X149275000Y-109750000D01*
X148725000Y-109750000D01*
X148705397Y-109749037D01*
X148685982Y-109746157D01*
X148666943Y-109741388D01*
X148648463Y-109734776D01*
X148630721Y-109726384D01*
X148613886Y-109716294D01*
X148598121Y-109704602D01*
X148583579Y-109691421D01*
X148570398Y-109676879D01*
X148558706Y-109661114D01*
X148548616Y-109644279D01*
X148540224Y-109626537D01*
X148533612Y-109608057D01*
X148528843Y-109589018D01*
X148525963Y-109569603D01*
X148525000Y-109550000D01*
X148525000Y-109150000D01*
X148525963Y-109130397D01*
X148528843Y-109110982D01*
X148533612Y-109091943D01*
X148540224Y-109073463D01*
X148548616Y-109055721D01*
X148558706Y-109038886D01*
X148570398Y-109023121D01*
X148583579Y-109008579D01*
X148598121Y-108995398D01*
X148613886Y-108983706D01*
X148630721Y-108973616D01*
X148648463Y-108965224D01*
X148666943Y-108958612D01*
X148685982Y-108953843D01*
X148705397Y-108950963D01*
X148725000Y-108950000D01*
X149275000Y-108950000D01*
X149294603Y-108950963D01*
X149294603Y-108950963D01*
G37*
D21*
X149000000Y-109350000D03*
D14*
G36*
X149294603Y-110250963D02*
G01*
X149314018Y-110253843D01*
X149333057Y-110258612D01*
X149351537Y-110265224D01*
X149369279Y-110273616D01*
X149386114Y-110283706D01*
X149401879Y-110295398D01*
X149416421Y-110308579D01*
X149429602Y-110323121D01*
X149441294Y-110338886D01*
X149451384Y-110355721D01*
X149459776Y-110373463D01*
X149466388Y-110391943D01*
X149471157Y-110410982D01*
X149474037Y-110430397D01*
X149475000Y-110450000D01*
X149475000Y-110850000D01*
X149474037Y-110869603D01*
X149471157Y-110889018D01*
X149466388Y-110908057D01*
X149459776Y-110926537D01*
X149451384Y-110944279D01*
X149441294Y-110961114D01*
X149429602Y-110976879D01*
X149416421Y-110991421D01*
X149401879Y-111004602D01*
X149386114Y-111016294D01*
X149369279Y-111026384D01*
X149351537Y-111034776D01*
X149333057Y-111041388D01*
X149314018Y-111046157D01*
X149294603Y-111049037D01*
X149275000Y-111050000D01*
X148725000Y-111050000D01*
X148705397Y-111049037D01*
X148685982Y-111046157D01*
X148666943Y-111041388D01*
X148648463Y-111034776D01*
X148630721Y-111026384D01*
X148613886Y-111016294D01*
X148598121Y-111004602D01*
X148583579Y-110991421D01*
X148570398Y-110976879D01*
X148558706Y-110961114D01*
X148548616Y-110944279D01*
X148540224Y-110926537D01*
X148533612Y-110908057D01*
X148528843Y-110889018D01*
X148525963Y-110869603D01*
X148525000Y-110850000D01*
X148525000Y-110450000D01*
X148525963Y-110430397D01*
X148528843Y-110410982D01*
X148533612Y-110391943D01*
X148540224Y-110373463D01*
X148548616Y-110355721D01*
X148558706Y-110338886D01*
X148570398Y-110323121D01*
X148583579Y-110308579D01*
X148598121Y-110295398D01*
X148613886Y-110283706D01*
X148630721Y-110273616D01*
X148648463Y-110265224D01*
X148666943Y-110258612D01*
X148685982Y-110253843D01*
X148705397Y-110250963D01*
X148725000Y-110250000D01*
X149275000Y-110250000D01*
X149294603Y-110250963D01*
X149294603Y-110250963D01*
G37*
D21*
X149000000Y-110650000D03*
D14*
G36*
X147369603Y-107525963D02*
G01*
X147389018Y-107528843D01*
X147408057Y-107533612D01*
X147426537Y-107540224D01*
X147444279Y-107548616D01*
X147461114Y-107558706D01*
X147476879Y-107570398D01*
X147491421Y-107583579D01*
X147504602Y-107598121D01*
X147516294Y-107613886D01*
X147526384Y-107630721D01*
X147534776Y-107648463D01*
X147541388Y-107666943D01*
X147546157Y-107685982D01*
X147549037Y-107705397D01*
X147550000Y-107725000D01*
X147550000Y-108275000D01*
X147549037Y-108294603D01*
X147546157Y-108314018D01*
X147541388Y-108333057D01*
X147534776Y-108351537D01*
X147526384Y-108369279D01*
X147516294Y-108386114D01*
X147504602Y-108401879D01*
X147491421Y-108416421D01*
X147476879Y-108429602D01*
X147461114Y-108441294D01*
X147444279Y-108451384D01*
X147426537Y-108459776D01*
X147408057Y-108466388D01*
X147389018Y-108471157D01*
X147369603Y-108474037D01*
X147350000Y-108475000D01*
X146950000Y-108475000D01*
X146930397Y-108474037D01*
X146910982Y-108471157D01*
X146891943Y-108466388D01*
X146873463Y-108459776D01*
X146855721Y-108451384D01*
X146838886Y-108441294D01*
X146823121Y-108429602D01*
X146808579Y-108416421D01*
X146795398Y-108401879D01*
X146783706Y-108386114D01*
X146773616Y-108369279D01*
X146765224Y-108351537D01*
X146758612Y-108333057D01*
X146753843Y-108314018D01*
X146750963Y-108294603D01*
X146750000Y-108275000D01*
X146750000Y-107725000D01*
X146750963Y-107705397D01*
X146753843Y-107685982D01*
X146758612Y-107666943D01*
X146765224Y-107648463D01*
X146773616Y-107630721D01*
X146783706Y-107613886D01*
X146795398Y-107598121D01*
X146808579Y-107583579D01*
X146823121Y-107570398D01*
X146838886Y-107558706D01*
X146855721Y-107548616D01*
X146873463Y-107540224D01*
X146891943Y-107533612D01*
X146910982Y-107528843D01*
X146930397Y-107525963D01*
X146950000Y-107525000D01*
X147350000Y-107525000D01*
X147369603Y-107525963D01*
X147369603Y-107525963D01*
G37*
D21*
X147150000Y-108000000D03*
D14*
G36*
X146069603Y-107525963D02*
G01*
X146089018Y-107528843D01*
X146108057Y-107533612D01*
X146126537Y-107540224D01*
X146144279Y-107548616D01*
X146161114Y-107558706D01*
X146176879Y-107570398D01*
X146191421Y-107583579D01*
X146204602Y-107598121D01*
X146216294Y-107613886D01*
X146226384Y-107630721D01*
X146234776Y-107648463D01*
X146241388Y-107666943D01*
X146246157Y-107685982D01*
X146249037Y-107705397D01*
X146250000Y-107725000D01*
X146250000Y-108275000D01*
X146249037Y-108294603D01*
X146246157Y-108314018D01*
X146241388Y-108333057D01*
X146234776Y-108351537D01*
X146226384Y-108369279D01*
X146216294Y-108386114D01*
X146204602Y-108401879D01*
X146191421Y-108416421D01*
X146176879Y-108429602D01*
X146161114Y-108441294D01*
X146144279Y-108451384D01*
X146126537Y-108459776D01*
X146108057Y-108466388D01*
X146089018Y-108471157D01*
X146069603Y-108474037D01*
X146050000Y-108475000D01*
X145650000Y-108475000D01*
X145630397Y-108474037D01*
X145610982Y-108471157D01*
X145591943Y-108466388D01*
X145573463Y-108459776D01*
X145555721Y-108451384D01*
X145538886Y-108441294D01*
X145523121Y-108429602D01*
X145508579Y-108416421D01*
X145495398Y-108401879D01*
X145483706Y-108386114D01*
X145473616Y-108369279D01*
X145465224Y-108351537D01*
X145458612Y-108333057D01*
X145453843Y-108314018D01*
X145450963Y-108294603D01*
X145450000Y-108275000D01*
X145450000Y-107725000D01*
X145450963Y-107705397D01*
X145453843Y-107685982D01*
X145458612Y-107666943D01*
X145465224Y-107648463D01*
X145473616Y-107630721D01*
X145483706Y-107613886D01*
X145495398Y-107598121D01*
X145508579Y-107583579D01*
X145523121Y-107570398D01*
X145538886Y-107558706D01*
X145555721Y-107548616D01*
X145573463Y-107540224D01*
X145591943Y-107533612D01*
X145610982Y-107528843D01*
X145630397Y-107525963D01*
X145650000Y-107525000D01*
X146050000Y-107525000D01*
X146069603Y-107525963D01*
X146069603Y-107525963D01*
G37*
D21*
X145850000Y-108000000D03*
D14*
G36*
X144294603Y-99450963D02*
G01*
X144314018Y-99453843D01*
X144333057Y-99458612D01*
X144351537Y-99465224D01*
X144369279Y-99473616D01*
X144386114Y-99483706D01*
X144401879Y-99495398D01*
X144416421Y-99508579D01*
X144429602Y-99523121D01*
X144441294Y-99538886D01*
X144451384Y-99555721D01*
X144459776Y-99573463D01*
X144466388Y-99591943D01*
X144471157Y-99610982D01*
X144474037Y-99630397D01*
X144475000Y-99650000D01*
X144475000Y-100050000D01*
X144474037Y-100069603D01*
X144471157Y-100089018D01*
X144466388Y-100108057D01*
X144459776Y-100126537D01*
X144451384Y-100144279D01*
X144441294Y-100161114D01*
X144429602Y-100176879D01*
X144416421Y-100191421D01*
X144401879Y-100204602D01*
X144386114Y-100216294D01*
X144369279Y-100226384D01*
X144351537Y-100234776D01*
X144333057Y-100241388D01*
X144314018Y-100246157D01*
X144294603Y-100249037D01*
X144275000Y-100250000D01*
X143725000Y-100250000D01*
X143705397Y-100249037D01*
X143685982Y-100246157D01*
X143666943Y-100241388D01*
X143648463Y-100234776D01*
X143630721Y-100226384D01*
X143613886Y-100216294D01*
X143598121Y-100204602D01*
X143583579Y-100191421D01*
X143570398Y-100176879D01*
X143558706Y-100161114D01*
X143548616Y-100144279D01*
X143540224Y-100126537D01*
X143533612Y-100108057D01*
X143528843Y-100089018D01*
X143525963Y-100069603D01*
X143525000Y-100050000D01*
X143525000Y-99650000D01*
X143525963Y-99630397D01*
X143528843Y-99610982D01*
X143533612Y-99591943D01*
X143540224Y-99573463D01*
X143548616Y-99555721D01*
X143558706Y-99538886D01*
X143570398Y-99523121D01*
X143583579Y-99508579D01*
X143598121Y-99495398D01*
X143613886Y-99483706D01*
X143630721Y-99473616D01*
X143648463Y-99465224D01*
X143666943Y-99458612D01*
X143685982Y-99453843D01*
X143705397Y-99450963D01*
X143725000Y-99450000D01*
X144275000Y-99450000D01*
X144294603Y-99450963D01*
X144294603Y-99450963D01*
G37*
D21*
X144000000Y-99850000D03*
D14*
G36*
X144294603Y-100750963D02*
G01*
X144314018Y-100753843D01*
X144333057Y-100758612D01*
X144351537Y-100765224D01*
X144369279Y-100773616D01*
X144386114Y-100783706D01*
X144401879Y-100795398D01*
X144416421Y-100808579D01*
X144429602Y-100823121D01*
X144441294Y-100838886D01*
X144451384Y-100855721D01*
X144459776Y-100873463D01*
X144466388Y-100891943D01*
X144471157Y-100910982D01*
X144474037Y-100930397D01*
X144475000Y-100950000D01*
X144475000Y-101350000D01*
X144474037Y-101369603D01*
X144471157Y-101389018D01*
X144466388Y-101408057D01*
X144459776Y-101426537D01*
X144451384Y-101444279D01*
X144441294Y-101461114D01*
X144429602Y-101476879D01*
X144416421Y-101491421D01*
X144401879Y-101504602D01*
X144386114Y-101516294D01*
X144369279Y-101526384D01*
X144351537Y-101534776D01*
X144333057Y-101541388D01*
X144314018Y-101546157D01*
X144294603Y-101549037D01*
X144275000Y-101550000D01*
X143725000Y-101550000D01*
X143705397Y-101549037D01*
X143685982Y-101546157D01*
X143666943Y-101541388D01*
X143648463Y-101534776D01*
X143630721Y-101526384D01*
X143613886Y-101516294D01*
X143598121Y-101504602D01*
X143583579Y-101491421D01*
X143570398Y-101476879D01*
X143558706Y-101461114D01*
X143548616Y-101444279D01*
X143540224Y-101426537D01*
X143533612Y-101408057D01*
X143528843Y-101389018D01*
X143525963Y-101369603D01*
X143525000Y-101350000D01*
X143525000Y-100950000D01*
X143525963Y-100930397D01*
X143528843Y-100910982D01*
X143533612Y-100891943D01*
X143540224Y-100873463D01*
X143548616Y-100855721D01*
X143558706Y-100838886D01*
X143570398Y-100823121D01*
X143583579Y-100808579D01*
X143598121Y-100795398D01*
X143613886Y-100783706D01*
X143630721Y-100773616D01*
X143648463Y-100765224D01*
X143666943Y-100758612D01*
X143685982Y-100753843D01*
X143705397Y-100750963D01*
X143725000Y-100750000D01*
X144275000Y-100750000D01*
X144294603Y-100750963D01*
X144294603Y-100750963D01*
G37*
D21*
X144000000Y-101150000D03*
D14*
G36*
X144294603Y-110250963D02*
G01*
X144314018Y-110253843D01*
X144333057Y-110258612D01*
X144351537Y-110265224D01*
X144369279Y-110273616D01*
X144386114Y-110283706D01*
X144401879Y-110295398D01*
X144416421Y-110308579D01*
X144429602Y-110323121D01*
X144441294Y-110338886D01*
X144451384Y-110355721D01*
X144459776Y-110373463D01*
X144466388Y-110391943D01*
X144471157Y-110410982D01*
X144474037Y-110430397D01*
X144475000Y-110450000D01*
X144475000Y-110850000D01*
X144474037Y-110869603D01*
X144471157Y-110889018D01*
X144466388Y-110908057D01*
X144459776Y-110926537D01*
X144451384Y-110944279D01*
X144441294Y-110961114D01*
X144429602Y-110976879D01*
X144416421Y-110991421D01*
X144401879Y-111004602D01*
X144386114Y-111016294D01*
X144369279Y-111026384D01*
X144351537Y-111034776D01*
X144333057Y-111041388D01*
X144314018Y-111046157D01*
X144294603Y-111049037D01*
X144275000Y-111050000D01*
X143725000Y-111050000D01*
X143705397Y-111049037D01*
X143685982Y-111046157D01*
X143666943Y-111041388D01*
X143648463Y-111034776D01*
X143630721Y-111026384D01*
X143613886Y-111016294D01*
X143598121Y-111004602D01*
X143583579Y-110991421D01*
X143570398Y-110976879D01*
X143558706Y-110961114D01*
X143548616Y-110944279D01*
X143540224Y-110926537D01*
X143533612Y-110908057D01*
X143528843Y-110889018D01*
X143525963Y-110869603D01*
X143525000Y-110850000D01*
X143525000Y-110450000D01*
X143525963Y-110430397D01*
X143528843Y-110410982D01*
X143533612Y-110391943D01*
X143540224Y-110373463D01*
X143548616Y-110355721D01*
X143558706Y-110338886D01*
X143570398Y-110323121D01*
X143583579Y-110308579D01*
X143598121Y-110295398D01*
X143613886Y-110283706D01*
X143630721Y-110273616D01*
X143648463Y-110265224D01*
X143666943Y-110258612D01*
X143685982Y-110253843D01*
X143705397Y-110250963D01*
X143725000Y-110250000D01*
X144275000Y-110250000D01*
X144294603Y-110250963D01*
X144294603Y-110250963D01*
G37*
D21*
X144000000Y-110650000D03*
D14*
G36*
X144294603Y-108950963D02*
G01*
X144314018Y-108953843D01*
X144333057Y-108958612D01*
X144351537Y-108965224D01*
X144369279Y-108973616D01*
X144386114Y-108983706D01*
X144401879Y-108995398D01*
X144416421Y-109008579D01*
X144429602Y-109023121D01*
X144441294Y-109038886D01*
X144451384Y-109055721D01*
X144459776Y-109073463D01*
X144466388Y-109091943D01*
X144471157Y-109110982D01*
X144474037Y-109130397D01*
X144475000Y-109150000D01*
X144475000Y-109550000D01*
X144474037Y-109569603D01*
X144471157Y-109589018D01*
X144466388Y-109608057D01*
X144459776Y-109626537D01*
X144451384Y-109644279D01*
X144441294Y-109661114D01*
X144429602Y-109676879D01*
X144416421Y-109691421D01*
X144401879Y-109704602D01*
X144386114Y-109716294D01*
X144369279Y-109726384D01*
X144351537Y-109734776D01*
X144333057Y-109741388D01*
X144314018Y-109746157D01*
X144294603Y-109749037D01*
X144275000Y-109750000D01*
X143725000Y-109750000D01*
X143705397Y-109749037D01*
X143685982Y-109746157D01*
X143666943Y-109741388D01*
X143648463Y-109734776D01*
X143630721Y-109726384D01*
X143613886Y-109716294D01*
X143598121Y-109704602D01*
X143583579Y-109691421D01*
X143570398Y-109676879D01*
X143558706Y-109661114D01*
X143548616Y-109644279D01*
X143540224Y-109626537D01*
X143533612Y-109608057D01*
X143528843Y-109589018D01*
X143525963Y-109569603D01*
X143525000Y-109550000D01*
X143525000Y-109150000D01*
X143525963Y-109130397D01*
X143528843Y-109110982D01*
X143533612Y-109091943D01*
X143540224Y-109073463D01*
X143548616Y-109055721D01*
X143558706Y-109038886D01*
X143570398Y-109023121D01*
X143583579Y-109008579D01*
X143598121Y-108995398D01*
X143613886Y-108983706D01*
X143630721Y-108973616D01*
X143648463Y-108965224D01*
X143666943Y-108958612D01*
X143685982Y-108953843D01*
X143705397Y-108950963D01*
X143725000Y-108950000D01*
X144275000Y-108950000D01*
X144294603Y-108950963D01*
X144294603Y-108950963D01*
G37*
D21*
X144000000Y-109350000D03*
D22*
X155500000Y-100500000D03*
D23*
X156200000Y-100500000D03*
X154800000Y-100500000D03*
D24*
X153000000Y-112120000D03*
X153000000Y-109580000D03*
X153000000Y-107040000D03*
D25*
X153000000Y-104500000D03*
D24*
X142000000Y-98920000D03*
X142000000Y-101460000D03*
D25*
X142000000Y-104000000D03*
D24*
X142000000Y-106960000D03*
X142000000Y-109500000D03*
D25*
X142000000Y-112040000D03*
D14*
G36*
X148569603Y-100525963D02*
G01*
X148589018Y-100528843D01*
X148608057Y-100533612D01*
X148626537Y-100540224D01*
X148644279Y-100548616D01*
X148661114Y-100558706D01*
X148676879Y-100570398D01*
X148691421Y-100583579D01*
X148704602Y-100598121D01*
X148716294Y-100613886D01*
X148726384Y-100630721D01*
X148734776Y-100648463D01*
X148741388Y-100666943D01*
X148746157Y-100685982D01*
X148749037Y-100705397D01*
X148750000Y-100725000D01*
X148750000Y-101275000D01*
X148749037Y-101294603D01*
X148746157Y-101314018D01*
X148741388Y-101333057D01*
X148734776Y-101351537D01*
X148726384Y-101369279D01*
X148716294Y-101386114D01*
X148704602Y-101401879D01*
X148691421Y-101416421D01*
X148676879Y-101429602D01*
X148661114Y-101441294D01*
X148644279Y-101451384D01*
X148626537Y-101459776D01*
X148608057Y-101466388D01*
X148589018Y-101471157D01*
X148569603Y-101474037D01*
X148550000Y-101475000D01*
X148150000Y-101475000D01*
X148130397Y-101474037D01*
X148110982Y-101471157D01*
X148091943Y-101466388D01*
X148073463Y-101459776D01*
X148055721Y-101451384D01*
X148038886Y-101441294D01*
X148023121Y-101429602D01*
X148008579Y-101416421D01*
X147995398Y-101401879D01*
X147983706Y-101386114D01*
X147973616Y-101369279D01*
X147965224Y-101351537D01*
X147958612Y-101333057D01*
X147953843Y-101314018D01*
X147950963Y-101294603D01*
X147950000Y-101275000D01*
X147950000Y-100725000D01*
X147950963Y-100705397D01*
X147953843Y-100685982D01*
X147958612Y-100666943D01*
X147965224Y-100648463D01*
X147973616Y-100630721D01*
X147983706Y-100613886D01*
X147995398Y-100598121D01*
X148008579Y-100583579D01*
X148023121Y-100570398D01*
X148038886Y-100558706D01*
X148055721Y-100548616D01*
X148073463Y-100540224D01*
X148091943Y-100533612D01*
X148110982Y-100528843D01*
X148130397Y-100525963D01*
X148150000Y-100525000D01*
X148550000Y-100525000D01*
X148569603Y-100525963D01*
X148569603Y-100525963D01*
G37*
D21*
X148350000Y-101000000D03*
D14*
G36*
X149869603Y-100525963D02*
G01*
X149889018Y-100528843D01*
X149908057Y-100533612D01*
X149926537Y-100540224D01*
X149944279Y-100548616D01*
X149961114Y-100558706D01*
X149976879Y-100570398D01*
X149991421Y-100583579D01*
X150004602Y-100598121D01*
X150016294Y-100613886D01*
X150026384Y-100630721D01*
X150034776Y-100648463D01*
X150041388Y-100666943D01*
X150046157Y-100685982D01*
X150049037Y-100705397D01*
X150050000Y-100725000D01*
X150050000Y-101275000D01*
X150049037Y-101294603D01*
X150046157Y-101314018D01*
X150041388Y-101333057D01*
X150034776Y-101351537D01*
X150026384Y-101369279D01*
X150016294Y-101386114D01*
X150004602Y-101401879D01*
X149991421Y-101416421D01*
X149976879Y-101429602D01*
X149961114Y-101441294D01*
X149944279Y-101451384D01*
X149926537Y-101459776D01*
X149908057Y-101466388D01*
X149889018Y-101471157D01*
X149869603Y-101474037D01*
X149850000Y-101475000D01*
X149450000Y-101475000D01*
X149430397Y-101474037D01*
X149410982Y-101471157D01*
X149391943Y-101466388D01*
X149373463Y-101459776D01*
X149355721Y-101451384D01*
X149338886Y-101441294D01*
X149323121Y-101429602D01*
X149308579Y-101416421D01*
X149295398Y-101401879D01*
X149283706Y-101386114D01*
X149273616Y-101369279D01*
X149265224Y-101351537D01*
X149258612Y-101333057D01*
X149253843Y-101314018D01*
X149250963Y-101294603D01*
X149250000Y-101275000D01*
X149250000Y-100725000D01*
X149250963Y-100705397D01*
X149253843Y-100685982D01*
X149258612Y-100666943D01*
X149265224Y-100648463D01*
X149273616Y-100630721D01*
X149283706Y-100613886D01*
X149295398Y-100598121D01*
X149308579Y-100583579D01*
X149323121Y-100570398D01*
X149338886Y-100558706D01*
X149355721Y-100548616D01*
X149373463Y-100540224D01*
X149391943Y-100533612D01*
X149410982Y-100528843D01*
X149430397Y-100525963D01*
X149450000Y-100525000D01*
X149850000Y-100525000D01*
X149869603Y-100525963D01*
X149869603Y-100525963D01*
G37*
D21*
X149650000Y-101000000D03*
D14*
G36*
X147369603Y-100525963D02*
G01*
X147389018Y-100528843D01*
X147408057Y-100533612D01*
X147426537Y-100540224D01*
X147444279Y-100548616D01*
X147461114Y-100558706D01*
X147476879Y-100570398D01*
X147491421Y-100583579D01*
X147504602Y-100598121D01*
X147516294Y-100613886D01*
X147526384Y-100630721D01*
X147534776Y-100648463D01*
X147541388Y-100666943D01*
X147546157Y-100685982D01*
X147549037Y-100705397D01*
X147550000Y-100725000D01*
X147550000Y-101275000D01*
X147549037Y-101294603D01*
X147546157Y-101314018D01*
X147541388Y-101333057D01*
X147534776Y-101351537D01*
X147526384Y-101369279D01*
X147516294Y-101386114D01*
X147504602Y-101401879D01*
X147491421Y-101416421D01*
X147476879Y-101429602D01*
X147461114Y-101441294D01*
X147444279Y-101451384D01*
X147426537Y-101459776D01*
X147408057Y-101466388D01*
X147389018Y-101471157D01*
X147369603Y-101474037D01*
X147350000Y-101475000D01*
X146950000Y-101475000D01*
X146930397Y-101474037D01*
X146910982Y-101471157D01*
X146891943Y-101466388D01*
X146873463Y-101459776D01*
X146855721Y-101451384D01*
X146838886Y-101441294D01*
X146823121Y-101429602D01*
X146808579Y-101416421D01*
X146795398Y-101401879D01*
X146783706Y-101386114D01*
X146773616Y-101369279D01*
X146765224Y-101351537D01*
X146758612Y-101333057D01*
X146753843Y-101314018D01*
X146750963Y-101294603D01*
X146750000Y-101275000D01*
X146750000Y-100725000D01*
X146750963Y-100705397D01*
X146753843Y-100685982D01*
X146758612Y-100666943D01*
X146765224Y-100648463D01*
X146773616Y-100630721D01*
X146783706Y-100613886D01*
X146795398Y-100598121D01*
X146808579Y-100583579D01*
X146823121Y-100570398D01*
X146838886Y-100558706D01*
X146855721Y-100548616D01*
X146873463Y-100540224D01*
X146891943Y-100533612D01*
X146910982Y-100528843D01*
X146930397Y-100525963D01*
X146950000Y-100525000D01*
X147350000Y-100525000D01*
X147369603Y-100525963D01*
X147369603Y-100525963D01*
G37*
D21*
X147150000Y-101000000D03*
D14*
G36*
X146069603Y-100525963D02*
G01*
X146089018Y-100528843D01*
X146108057Y-100533612D01*
X146126537Y-100540224D01*
X146144279Y-100548616D01*
X146161114Y-100558706D01*
X146176879Y-100570398D01*
X146191421Y-100583579D01*
X146204602Y-100598121D01*
X146216294Y-100613886D01*
X146226384Y-100630721D01*
X146234776Y-100648463D01*
X146241388Y-100666943D01*
X146246157Y-100685982D01*
X146249037Y-100705397D01*
X146250000Y-100725000D01*
X146250000Y-101275000D01*
X146249037Y-101294603D01*
X146246157Y-101314018D01*
X146241388Y-101333057D01*
X146234776Y-101351537D01*
X146226384Y-101369279D01*
X146216294Y-101386114D01*
X146204602Y-101401879D01*
X146191421Y-101416421D01*
X146176879Y-101429602D01*
X146161114Y-101441294D01*
X146144279Y-101451384D01*
X146126537Y-101459776D01*
X146108057Y-101466388D01*
X146089018Y-101471157D01*
X146069603Y-101474037D01*
X146050000Y-101475000D01*
X145650000Y-101475000D01*
X145630397Y-101474037D01*
X145610982Y-101471157D01*
X145591943Y-101466388D01*
X145573463Y-101459776D01*
X145555721Y-101451384D01*
X145538886Y-101441294D01*
X145523121Y-101429602D01*
X145508579Y-101416421D01*
X145495398Y-101401879D01*
X145483706Y-101386114D01*
X145473616Y-101369279D01*
X145465224Y-101351537D01*
X145458612Y-101333057D01*
X145453843Y-101314018D01*
X145450963Y-101294603D01*
X145450000Y-101275000D01*
X145450000Y-100725000D01*
X145450963Y-100705397D01*
X145453843Y-100685982D01*
X145458612Y-100666943D01*
X145465224Y-100648463D01*
X145473616Y-100630721D01*
X145483706Y-100613886D01*
X145495398Y-100598121D01*
X145508579Y-100583579D01*
X145523121Y-100570398D01*
X145538886Y-100558706D01*
X145555721Y-100548616D01*
X145573463Y-100540224D01*
X145591943Y-100533612D01*
X145610982Y-100528843D01*
X145630397Y-100525963D01*
X145650000Y-100525000D01*
X146050000Y-100525000D01*
X146069603Y-100525963D01*
X146069603Y-100525963D01*
G37*
D21*
X145850000Y-101000000D03*
D14*
G36*
X147369603Y-99025963D02*
G01*
X147389018Y-99028843D01*
X147408057Y-99033612D01*
X147426537Y-99040224D01*
X147444279Y-99048616D01*
X147461114Y-99058706D01*
X147476879Y-99070398D01*
X147491421Y-99083579D01*
X147504602Y-99098121D01*
X147516294Y-99113886D01*
X147526384Y-99130721D01*
X147534776Y-99148463D01*
X147541388Y-99166943D01*
X147546157Y-99185982D01*
X147549037Y-99205397D01*
X147550000Y-99225000D01*
X147550000Y-99775000D01*
X147549037Y-99794603D01*
X147546157Y-99814018D01*
X147541388Y-99833057D01*
X147534776Y-99851537D01*
X147526384Y-99869279D01*
X147516294Y-99886114D01*
X147504602Y-99901879D01*
X147491421Y-99916421D01*
X147476879Y-99929602D01*
X147461114Y-99941294D01*
X147444279Y-99951384D01*
X147426537Y-99959776D01*
X147408057Y-99966388D01*
X147389018Y-99971157D01*
X147369603Y-99974037D01*
X147350000Y-99975000D01*
X146950000Y-99975000D01*
X146930397Y-99974037D01*
X146910982Y-99971157D01*
X146891943Y-99966388D01*
X146873463Y-99959776D01*
X146855721Y-99951384D01*
X146838886Y-99941294D01*
X146823121Y-99929602D01*
X146808579Y-99916421D01*
X146795398Y-99901879D01*
X146783706Y-99886114D01*
X146773616Y-99869279D01*
X146765224Y-99851537D01*
X146758612Y-99833057D01*
X146753843Y-99814018D01*
X146750963Y-99794603D01*
X146750000Y-99775000D01*
X146750000Y-99225000D01*
X146750963Y-99205397D01*
X146753843Y-99185982D01*
X146758612Y-99166943D01*
X146765224Y-99148463D01*
X146773616Y-99130721D01*
X146783706Y-99113886D01*
X146795398Y-99098121D01*
X146808579Y-99083579D01*
X146823121Y-99070398D01*
X146838886Y-99058706D01*
X146855721Y-99048616D01*
X146873463Y-99040224D01*
X146891943Y-99033612D01*
X146910982Y-99028843D01*
X146930397Y-99025963D01*
X146950000Y-99025000D01*
X147350000Y-99025000D01*
X147369603Y-99025963D01*
X147369603Y-99025963D01*
G37*
D21*
X147150000Y-99500000D03*
D14*
G36*
X146069603Y-99025963D02*
G01*
X146089018Y-99028843D01*
X146108057Y-99033612D01*
X146126537Y-99040224D01*
X146144279Y-99048616D01*
X146161114Y-99058706D01*
X146176879Y-99070398D01*
X146191421Y-99083579D01*
X146204602Y-99098121D01*
X146216294Y-99113886D01*
X146226384Y-99130721D01*
X146234776Y-99148463D01*
X146241388Y-99166943D01*
X146246157Y-99185982D01*
X146249037Y-99205397D01*
X146250000Y-99225000D01*
X146250000Y-99775000D01*
X146249037Y-99794603D01*
X146246157Y-99814018D01*
X146241388Y-99833057D01*
X146234776Y-99851537D01*
X146226384Y-99869279D01*
X146216294Y-99886114D01*
X146204602Y-99901879D01*
X146191421Y-99916421D01*
X146176879Y-99929602D01*
X146161114Y-99941294D01*
X146144279Y-99951384D01*
X146126537Y-99959776D01*
X146108057Y-99966388D01*
X146089018Y-99971157D01*
X146069603Y-99974037D01*
X146050000Y-99975000D01*
X145650000Y-99975000D01*
X145630397Y-99974037D01*
X145610982Y-99971157D01*
X145591943Y-99966388D01*
X145573463Y-99959776D01*
X145555721Y-99951384D01*
X145538886Y-99941294D01*
X145523121Y-99929602D01*
X145508579Y-99916421D01*
X145495398Y-99901879D01*
X145483706Y-99886114D01*
X145473616Y-99869279D01*
X145465224Y-99851537D01*
X145458612Y-99833057D01*
X145453843Y-99814018D01*
X145450963Y-99794603D01*
X145450000Y-99775000D01*
X145450000Y-99225000D01*
X145450963Y-99205397D01*
X145453843Y-99185982D01*
X145458612Y-99166943D01*
X145465224Y-99148463D01*
X145473616Y-99130721D01*
X145483706Y-99113886D01*
X145495398Y-99098121D01*
X145508579Y-99083579D01*
X145523121Y-99070398D01*
X145538886Y-99058706D01*
X145555721Y-99048616D01*
X145573463Y-99040224D01*
X145591943Y-99033612D01*
X145610982Y-99028843D01*
X145630397Y-99025963D01*
X145650000Y-99025000D01*
X146050000Y-99025000D01*
X146069603Y-99025963D01*
X146069603Y-99025963D01*
G37*
D21*
X145850000Y-99500000D03*
D14*
G36*
X149869603Y-107525963D02*
G01*
X149889018Y-107528843D01*
X149908057Y-107533612D01*
X149926537Y-107540224D01*
X149944279Y-107548616D01*
X149961114Y-107558706D01*
X149976879Y-107570398D01*
X149991421Y-107583579D01*
X150004602Y-107598121D01*
X150016294Y-107613886D01*
X150026384Y-107630721D01*
X150034776Y-107648463D01*
X150041388Y-107666943D01*
X150046157Y-107685982D01*
X150049037Y-107705397D01*
X150050000Y-107725000D01*
X150050000Y-108275000D01*
X150049037Y-108294603D01*
X150046157Y-108314018D01*
X150041388Y-108333057D01*
X150034776Y-108351537D01*
X150026384Y-108369279D01*
X150016294Y-108386114D01*
X150004602Y-108401879D01*
X149991421Y-108416421D01*
X149976879Y-108429602D01*
X149961114Y-108441294D01*
X149944279Y-108451384D01*
X149926537Y-108459776D01*
X149908057Y-108466388D01*
X149889018Y-108471157D01*
X149869603Y-108474037D01*
X149850000Y-108475000D01*
X149450000Y-108475000D01*
X149430397Y-108474037D01*
X149410982Y-108471157D01*
X149391943Y-108466388D01*
X149373463Y-108459776D01*
X149355721Y-108451384D01*
X149338886Y-108441294D01*
X149323121Y-108429602D01*
X149308579Y-108416421D01*
X149295398Y-108401879D01*
X149283706Y-108386114D01*
X149273616Y-108369279D01*
X149265224Y-108351537D01*
X149258612Y-108333057D01*
X149253843Y-108314018D01*
X149250963Y-108294603D01*
X149250000Y-108275000D01*
X149250000Y-107725000D01*
X149250963Y-107705397D01*
X149253843Y-107685982D01*
X149258612Y-107666943D01*
X149265224Y-107648463D01*
X149273616Y-107630721D01*
X149283706Y-107613886D01*
X149295398Y-107598121D01*
X149308579Y-107583579D01*
X149323121Y-107570398D01*
X149338886Y-107558706D01*
X149355721Y-107548616D01*
X149373463Y-107540224D01*
X149391943Y-107533612D01*
X149410982Y-107528843D01*
X149430397Y-107525963D01*
X149450000Y-107525000D01*
X149850000Y-107525000D01*
X149869603Y-107525963D01*
X149869603Y-107525963D01*
G37*
D21*
X149650000Y-108000000D03*
D14*
G36*
X148569603Y-107525963D02*
G01*
X148589018Y-107528843D01*
X148608057Y-107533612D01*
X148626537Y-107540224D01*
X148644279Y-107548616D01*
X148661114Y-107558706D01*
X148676879Y-107570398D01*
X148691421Y-107583579D01*
X148704602Y-107598121D01*
X148716294Y-107613886D01*
X148726384Y-107630721D01*
X148734776Y-107648463D01*
X148741388Y-107666943D01*
X148746157Y-107685982D01*
X148749037Y-107705397D01*
X148750000Y-107725000D01*
X148750000Y-108275000D01*
X148749037Y-108294603D01*
X148746157Y-108314018D01*
X148741388Y-108333057D01*
X148734776Y-108351537D01*
X148726384Y-108369279D01*
X148716294Y-108386114D01*
X148704602Y-108401879D01*
X148691421Y-108416421D01*
X148676879Y-108429602D01*
X148661114Y-108441294D01*
X148644279Y-108451384D01*
X148626537Y-108459776D01*
X148608057Y-108466388D01*
X148589018Y-108471157D01*
X148569603Y-108474037D01*
X148550000Y-108475000D01*
X148150000Y-108475000D01*
X148130397Y-108474037D01*
X148110982Y-108471157D01*
X148091943Y-108466388D01*
X148073463Y-108459776D01*
X148055721Y-108451384D01*
X148038886Y-108441294D01*
X148023121Y-108429602D01*
X148008579Y-108416421D01*
X147995398Y-108401879D01*
X147983706Y-108386114D01*
X147973616Y-108369279D01*
X147965224Y-108351537D01*
X147958612Y-108333057D01*
X147953843Y-108314018D01*
X147950963Y-108294603D01*
X147950000Y-108275000D01*
X147950000Y-107725000D01*
X147950963Y-107705397D01*
X147953843Y-107685982D01*
X147958612Y-107666943D01*
X147965224Y-107648463D01*
X147973616Y-107630721D01*
X147983706Y-107613886D01*
X147995398Y-107598121D01*
X148008579Y-107583579D01*
X148023121Y-107570398D01*
X148038886Y-107558706D01*
X148055721Y-107548616D01*
X148073463Y-107540224D01*
X148091943Y-107533612D01*
X148110982Y-107528843D01*
X148130397Y-107525963D01*
X148150000Y-107525000D01*
X148550000Y-107525000D01*
X148569603Y-107525963D01*
X148569603Y-107525963D01*
G37*
D21*
X148350000Y-108000000D03*
M02*
