G04 #@! TF.GenerationSoftware,KiCad,Pcbnew,5.1.0-060a0da~80~ubuntu18.04.1*
G04 #@! TF.CreationDate,2019-04-03T19:32:02+02:00*
G04 #@! TF.ProjectId,mav_sbus_bridge,6d61765f-7362-4757-935f-627269646765,rev?*
G04 #@! TF.SameCoordinates,Original*
G04 #@! TF.FileFunction,Copper,L1,Top*
G04 #@! TF.FilePolarity,Positive*
%FSLAX46Y46*%
G04 Gerber Fmt 4.6, Leading zero omitted, Abs format (unit mm)*
G04 Created by KiCad (PCBNEW 5.1.0-060a0da~80~ubuntu18.04.1) date 2019-04-03 19:32:02*
%MOMM*%
%LPD*%
G04 APERTURE LIST*
%ADD10O,0.950000X1.250000*%
%ADD11C,0.100000*%
%ADD12C,0.400000*%
%ADD13C,1.500000*%
%ADD14O,1.550000X1.000000*%
%ADD15C,0.300000*%
%ADD16C,2.100000*%
%ADD17R,0.650000X0.400000*%
%ADD18C,0.700000*%
%ADD19R,1.000000X1.000000*%
%ADD20C,1.700000*%
%ADD21R,1.700000X1.700000*%
%ADD22C,0.600000*%
%ADD23C,0.200000*%
%ADD24C,0.300000*%
%ADD25C,0.400000*%
%ADD26C,0.600000*%
G04 APERTURE END LIST*
D10*
X155300000Y-110500000D03*
X155300000Y-105500000D03*
D11*
G36*
X155884802Y-109100482D02*
G01*
X155894509Y-109101921D01*
X155904028Y-109104306D01*
X155913268Y-109107612D01*
X155922140Y-109111808D01*
X155930557Y-109116853D01*
X155938439Y-109122699D01*
X155945711Y-109129289D01*
X155952301Y-109136561D01*
X155958147Y-109144443D01*
X155963192Y-109152860D01*
X155967388Y-109161732D01*
X155970694Y-109170972D01*
X155973079Y-109180491D01*
X155974518Y-109190198D01*
X155975000Y-109200000D01*
X155975000Y-109400000D01*
X155974518Y-109409802D01*
X155973079Y-109419509D01*
X155970694Y-109429028D01*
X155967388Y-109438268D01*
X155963192Y-109447140D01*
X155958147Y-109455557D01*
X155952301Y-109463439D01*
X155945711Y-109470711D01*
X155938439Y-109477301D01*
X155930557Y-109483147D01*
X155922140Y-109488192D01*
X155913268Y-109492388D01*
X155904028Y-109495694D01*
X155894509Y-109498079D01*
X155884802Y-109499518D01*
X155875000Y-109500000D01*
X154725000Y-109500000D01*
X154715198Y-109499518D01*
X154705491Y-109498079D01*
X154695972Y-109495694D01*
X154686732Y-109492388D01*
X154677860Y-109488192D01*
X154669443Y-109483147D01*
X154661561Y-109477301D01*
X154654289Y-109470711D01*
X154647699Y-109463439D01*
X154641853Y-109455557D01*
X154636808Y-109447140D01*
X154632612Y-109438268D01*
X154629306Y-109429028D01*
X154626921Y-109419509D01*
X154625482Y-109409802D01*
X154625000Y-109400000D01*
X154625000Y-109200000D01*
X154625482Y-109190198D01*
X154626921Y-109180491D01*
X154629306Y-109170972D01*
X154632612Y-109161732D01*
X154636808Y-109152860D01*
X154641853Y-109144443D01*
X154647699Y-109136561D01*
X154654289Y-109129289D01*
X154661561Y-109122699D01*
X154669443Y-109116853D01*
X154677860Y-109111808D01*
X154686732Y-109107612D01*
X154695972Y-109104306D01*
X154705491Y-109101921D01*
X154715198Y-109100482D01*
X154725000Y-109100000D01*
X155875000Y-109100000D01*
X155884802Y-109100482D01*
X155884802Y-109100482D01*
G37*
D12*
X155300000Y-109300000D03*
D11*
G36*
X155884802Y-108450482D02*
G01*
X155894509Y-108451921D01*
X155904028Y-108454306D01*
X155913268Y-108457612D01*
X155922140Y-108461808D01*
X155930557Y-108466853D01*
X155938439Y-108472699D01*
X155945711Y-108479289D01*
X155952301Y-108486561D01*
X155958147Y-108494443D01*
X155963192Y-108502860D01*
X155967388Y-108511732D01*
X155970694Y-108520972D01*
X155973079Y-108530491D01*
X155974518Y-108540198D01*
X155975000Y-108550000D01*
X155975000Y-108750000D01*
X155974518Y-108759802D01*
X155973079Y-108769509D01*
X155970694Y-108779028D01*
X155967388Y-108788268D01*
X155963192Y-108797140D01*
X155958147Y-108805557D01*
X155952301Y-108813439D01*
X155945711Y-108820711D01*
X155938439Y-108827301D01*
X155930557Y-108833147D01*
X155922140Y-108838192D01*
X155913268Y-108842388D01*
X155904028Y-108845694D01*
X155894509Y-108848079D01*
X155884802Y-108849518D01*
X155875000Y-108850000D01*
X154725000Y-108850000D01*
X154715198Y-108849518D01*
X154705491Y-108848079D01*
X154695972Y-108845694D01*
X154686732Y-108842388D01*
X154677860Y-108838192D01*
X154669443Y-108833147D01*
X154661561Y-108827301D01*
X154654289Y-108820711D01*
X154647699Y-108813439D01*
X154641853Y-108805557D01*
X154636808Y-108797140D01*
X154632612Y-108788268D01*
X154629306Y-108779028D01*
X154626921Y-108769509D01*
X154625482Y-108759802D01*
X154625000Y-108750000D01*
X154625000Y-108550000D01*
X154625482Y-108540198D01*
X154626921Y-108530491D01*
X154629306Y-108520972D01*
X154632612Y-108511732D01*
X154636808Y-108502860D01*
X154641853Y-108494443D01*
X154647699Y-108486561D01*
X154654289Y-108479289D01*
X154661561Y-108472699D01*
X154669443Y-108466853D01*
X154677860Y-108461808D01*
X154686732Y-108457612D01*
X154695972Y-108454306D01*
X154705491Y-108451921D01*
X154715198Y-108450482D01*
X154725000Y-108450000D01*
X155875000Y-108450000D01*
X155884802Y-108450482D01*
X155884802Y-108450482D01*
G37*
D12*
X155300000Y-108650000D03*
D11*
G36*
X155884802Y-107800482D02*
G01*
X155894509Y-107801921D01*
X155904028Y-107804306D01*
X155913268Y-107807612D01*
X155922140Y-107811808D01*
X155930557Y-107816853D01*
X155938439Y-107822699D01*
X155945711Y-107829289D01*
X155952301Y-107836561D01*
X155958147Y-107844443D01*
X155963192Y-107852860D01*
X155967388Y-107861732D01*
X155970694Y-107870972D01*
X155973079Y-107880491D01*
X155974518Y-107890198D01*
X155975000Y-107900000D01*
X155975000Y-108100000D01*
X155974518Y-108109802D01*
X155973079Y-108119509D01*
X155970694Y-108129028D01*
X155967388Y-108138268D01*
X155963192Y-108147140D01*
X155958147Y-108155557D01*
X155952301Y-108163439D01*
X155945711Y-108170711D01*
X155938439Y-108177301D01*
X155930557Y-108183147D01*
X155922140Y-108188192D01*
X155913268Y-108192388D01*
X155904028Y-108195694D01*
X155894509Y-108198079D01*
X155884802Y-108199518D01*
X155875000Y-108200000D01*
X154725000Y-108200000D01*
X154715198Y-108199518D01*
X154705491Y-108198079D01*
X154695972Y-108195694D01*
X154686732Y-108192388D01*
X154677860Y-108188192D01*
X154669443Y-108183147D01*
X154661561Y-108177301D01*
X154654289Y-108170711D01*
X154647699Y-108163439D01*
X154641853Y-108155557D01*
X154636808Y-108147140D01*
X154632612Y-108138268D01*
X154629306Y-108129028D01*
X154626921Y-108119509D01*
X154625482Y-108109802D01*
X154625000Y-108100000D01*
X154625000Y-107900000D01*
X154625482Y-107890198D01*
X154626921Y-107880491D01*
X154629306Y-107870972D01*
X154632612Y-107861732D01*
X154636808Y-107852860D01*
X154641853Y-107844443D01*
X154647699Y-107836561D01*
X154654289Y-107829289D01*
X154661561Y-107822699D01*
X154669443Y-107816853D01*
X154677860Y-107811808D01*
X154686732Y-107807612D01*
X154695972Y-107804306D01*
X154705491Y-107801921D01*
X154715198Y-107800482D01*
X154725000Y-107800000D01*
X155875000Y-107800000D01*
X155884802Y-107800482D01*
X155884802Y-107800482D01*
G37*
D12*
X155300000Y-108000000D03*
D11*
G36*
X155884802Y-107150482D02*
G01*
X155894509Y-107151921D01*
X155904028Y-107154306D01*
X155913268Y-107157612D01*
X155922140Y-107161808D01*
X155930557Y-107166853D01*
X155938439Y-107172699D01*
X155945711Y-107179289D01*
X155952301Y-107186561D01*
X155958147Y-107194443D01*
X155963192Y-107202860D01*
X155967388Y-107211732D01*
X155970694Y-107220972D01*
X155973079Y-107230491D01*
X155974518Y-107240198D01*
X155975000Y-107250000D01*
X155975000Y-107450000D01*
X155974518Y-107459802D01*
X155973079Y-107469509D01*
X155970694Y-107479028D01*
X155967388Y-107488268D01*
X155963192Y-107497140D01*
X155958147Y-107505557D01*
X155952301Y-107513439D01*
X155945711Y-107520711D01*
X155938439Y-107527301D01*
X155930557Y-107533147D01*
X155922140Y-107538192D01*
X155913268Y-107542388D01*
X155904028Y-107545694D01*
X155894509Y-107548079D01*
X155884802Y-107549518D01*
X155875000Y-107550000D01*
X154725000Y-107550000D01*
X154715198Y-107549518D01*
X154705491Y-107548079D01*
X154695972Y-107545694D01*
X154686732Y-107542388D01*
X154677860Y-107538192D01*
X154669443Y-107533147D01*
X154661561Y-107527301D01*
X154654289Y-107520711D01*
X154647699Y-107513439D01*
X154641853Y-107505557D01*
X154636808Y-107497140D01*
X154632612Y-107488268D01*
X154629306Y-107479028D01*
X154626921Y-107469509D01*
X154625482Y-107459802D01*
X154625000Y-107450000D01*
X154625000Y-107250000D01*
X154625482Y-107240198D01*
X154626921Y-107230491D01*
X154629306Y-107220972D01*
X154632612Y-107211732D01*
X154636808Y-107202860D01*
X154641853Y-107194443D01*
X154647699Y-107186561D01*
X154654289Y-107179289D01*
X154661561Y-107172699D01*
X154669443Y-107166853D01*
X154677860Y-107161808D01*
X154686732Y-107157612D01*
X154695972Y-107154306D01*
X154705491Y-107151921D01*
X154715198Y-107150482D01*
X154725000Y-107150000D01*
X155875000Y-107150000D01*
X155884802Y-107150482D01*
X155884802Y-107150482D01*
G37*
D12*
X155300000Y-107350000D03*
D11*
G36*
X155884802Y-106500482D02*
G01*
X155894509Y-106501921D01*
X155904028Y-106504306D01*
X155913268Y-106507612D01*
X155922140Y-106511808D01*
X155930557Y-106516853D01*
X155938439Y-106522699D01*
X155945711Y-106529289D01*
X155952301Y-106536561D01*
X155958147Y-106544443D01*
X155963192Y-106552860D01*
X155967388Y-106561732D01*
X155970694Y-106570972D01*
X155973079Y-106580491D01*
X155974518Y-106590198D01*
X155975000Y-106600000D01*
X155975000Y-106800000D01*
X155974518Y-106809802D01*
X155973079Y-106819509D01*
X155970694Y-106829028D01*
X155967388Y-106838268D01*
X155963192Y-106847140D01*
X155958147Y-106855557D01*
X155952301Y-106863439D01*
X155945711Y-106870711D01*
X155938439Y-106877301D01*
X155930557Y-106883147D01*
X155922140Y-106888192D01*
X155913268Y-106892388D01*
X155904028Y-106895694D01*
X155894509Y-106898079D01*
X155884802Y-106899518D01*
X155875000Y-106900000D01*
X154725000Y-106900000D01*
X154715198Y-106899518D01*
X154705491Y-106898079D01*
X154695972Y-106895694D01*
X154686732Y-106892388D01*
X154677860Y-106888192D01*
X154669443Y-106883147D01*
X154661561Y-106877301D01*
X154654289Y-106870711D01*
X154647699Y-106863439D01*
X154641853Y-106855557D01*
X154636808Y-106847140D01*
X154632612Y-106838268D01*
X154629306Y-106829028D01*
X154626921Y-106819509D01*
X154625482Y-106809802D01*
X154625000Y-106800000D01*
X154625000Y-106600000D01*
X154625482Y-106590198D01*
X154626921Y-106580491D01*
X154629306Y-106570972D01*
X154632612Y-106561732D01*
X154636808Y-106552860D01*
X154641853Y-106544443D01*
X154647699Y-106536561D01*
X154654289Y-106529289D01*
X154661561Y-106522699D01*
X154669443Y-106516853D01*
X154677860Y-106511808D01*
X154686732Y-106507612D01*
X154695972Y-106504306D01*
X154705491Y-106501921D01*
X154715198Y-106500482D01*
X154725000Y-106500000D01*
X155875000Y-106500000D01*
X155884802Y-106500482D01*
X155884802Y-106500482D01*
G37*
D12*
X155300000Y-106700000D03*
D11*
G36*
X158614703Y-106250722D02*
G01*
X158629264Y-106252882D01*
X158643543Y-106256459D01*
X158657403Y-106261418D01*
X158670710Y-106267712D01*
X158683336Y-106275280D01*
X158695159Y-106284048D01*
X158706066Y-106293934D01*
X158715952Y-106304841D01*
X158724720Y-106316664D01*
X158732288Y-106329290D01*
X158738582Y-106342597D01*
X158743541Y-106356457D01*
X158747118Y-106370736D01*
X158749278Y-106385297D01*
X158750000Y-106400000D01*
X158750000Y-107600000D01*
X158749278Y-107614703D01*
X158747118Y-107629264D01*
X158743541Y-107643543D01*
X158738582Y-107657403D01*
X158732288Y-107670710D01*
X158724720Y-107683336D01*
X158715952Y-107695159D01*
X158706066Y-107706066D01*
X158695159Y-107715952D01*
X158683336Y-107724720D01*
X158670710Y-107732288D01*
X158657403Y-107738582D01*
X158643543Y-107743541D01*
X158629264Y-107747118D01*
X158614703Y-107749278D01*
X158600000Y-107750000D01*
X157400000Y-107750000D01*
X157385297Y-107749278D01*
X157370736Y-107747118D01*
X157356457Y-107743541D01*
X157342597Y-107738582D01*
X157329290Y-107732288D01*
X157316664Y-107724720D01*
X157304841Y-107715952D01*
X157293934Y-107706066D01*
X157284048Y-107695159D01*
X157275280Y-107683336D01*
X157267712Y-107670710D01*
X157261418Y-107657403D01*
X157256459Y-107643543D01*
X157252882Y-107629264D01*
X157250722Y-107614703D01*
X157250000Y-107600000D01*
X157250000Y-106400000D01*
X157250722Y-106385297D01*
X157252882Y-106370736D01*
X157256459Y-106356457D01*
X157261418Y-106342597D01*
X157267712Y-106329290D01*
X157275280Y-106316664D01*
X157284048Y-106304841D01*
X157293934Y-106293934D01*
X157304841Y-106284048D01*
X157316664Y-106275280D01*
X157329290Y-106267712D01*
X157342597Y-106261418D01*
X157356457Y-106256459D01*
X157370736Y-106252882D01*
X157385297Y-106250722D01*
X157400000Y-106250000D01*
X158600000Y-106250000D01*
X158614703Y-106250722D01*
X158614703Y-106250722D01*
G37*
D13*
X158000000Y-107000000D03*
D11*
G36*
X158614703Y-108250722D02*
G01*
X158629264Y-108252882D01*
X158643543Y-108256459D01*
X158657403Y-108261418D01*
X158670710Y-108267712D01*
X158683336Y-108275280D01*
X158695159Y-108284048D01*
X158706066Y-108293934D01*
X158715952Y-108304841D01*
X158724720Y-108316664D01*
X158732288Y-108329290D01*
X158738582Y-108342597D01*
X158743541Y-108356457D01*
X158747118Y-108370736D01*
X158749278Y-108385297D01*
X158750000Y-108400000D01*
X158750000Y-109600000D01*
X158749278Y-109614703D01*
X158747118Y-109629264D01*
X158743541Y-109643543D01*
X158738582Y-109657403D01*
X158732288Y-109670710D01*
X158724720Y-109683336D01*
X158715952Y-109695159D01*
X158706066Y-109706066D01*
X158695159Y-109715952D01*
X158683336Y-109724720D01*
X158670710Y-109732288D01*
X158657403Y-109738582D01*
X158643543Y-109743541D01*
X158629264Y-109747118D01*
X158614703Y-109749278D01*
X158600000Y-109750000D01*
X157400000Y-109750000D01*
X157385297Y-109749278D01*
X157370736Y-109747118D01*
X157356457Y-109743541D01*
X157342597Y-109738582D01*
X157329290Y-109732288D01*
X157316664Y-109724720D01*
X157304841Y-109715952D01*
X157293934Y-109706066D01*
X157284048Y-109695159D01*
X157275280Y-109683336D01*
X157267712Y-109670710D01*
X157261418Y-109657403D01*
X157256459Y-109643543D01*
X157252882Y-109629264D01*
X157250722Y-109614703D01*
X157250000Y-109600000D01*
X157250000Y-108400000D01*
X157250722Y-108385297D01*
X157252882Y-108370736D01*
X157256459Y-108356457D01*
X157261418Y-108342597D01*
X157267712Y-108329290D01*
X157275280Y-108316664D01*
X157284048Y-108304841D01*
X157293934Y-108293934D01*
X157304841Y-108284048D01*
X157316664Y-108275280D01*
X157329290Y-108267712D01*
X157342597Y-108261418D01*
X157356457Y-108256459D01*
X157370736Y-108252882D01*
X157385297Y-108250722D01*
X157400000Y-108250000D01*
X158600000Y-108250000D01*
X158614703Y-108250722D01*
X158614703Y-108250722D01*
G37*
D13*
X158000000Y-109000000D03*
D14*
X158000000Y-104500000D03*
X158000000Y-111500000D03*
D11*
G36*
X158614703Y-104250722D02*
G01*
X158629264Y-104252882D01*
X158643543Y-104256459D01*
X158657403Y-104261418D01*
X158670710Y-104267712D01*
X158683336Y-104275280D01*
X158695159Y-104284048D01*
X158706066Y-104293934D01*
X158715952Y-104304841D01*
X158724720Y-104316664D01*
X158732288Y-104329290D01*
X158738582Y-104342597D01*
X158743541Y-104356457D01*
X158747118Y-104370736D01*
X158749278Y-104385297D01*
X158750000Y-104400000D01*
X158750000Y-105600000D01*
X158749278Y-105614703D01*
X158747118Y-105629264D01*
X158743541Y-105643543D01*
X158738582Y-105657403D01*
X158732288Y-105670710D01*
X158724720Y-105683336D01*
X158715952Y-105695159D01*
X158706066Y-105706066D01*
X158695159Y-105715952D01*
X158683336Y-105724720D01*
X158670710Y-105732288D01*
X158657403Y-105738582D01*
X158643543Y-105743541D01*
X158629264Y-105747118D01*
X158614703Y-105749278D01*
X158600000Y-105750000D01*
X157400000Y-105750000D01*
X157385297Y-105749278D01*
X157370736Y-105747118D01*
X157356457Y-105743541D01*
X157342597Y-105738582D01*
X157329290Y-105732288D01*
X157316664Y-105724720D01*
X157304841Y-105715952D01*
X157293934Y-105706066D01*
X157284048Y-105695159D01*
X157275280Y-105683336D01*
X157267712Y-105670710D01*
X157261418Y-105657403D01*
X157256459Y-105643543D01*
X157252882Y-105629264D01*
X157250722Y-105614703D01*
X157250000Y-105600000D01*
X157250000Y-104400000D01*
X157250722Y-104385297D01*
X157252882Y-104370736D01*
X157256459Y-104356457D01*
X157261418Y-104342597D01*
X157267712Y-104329290D01*
X157275280Y-104316664D01*
X157284048Y-104304841D01*
X157293934Y-104293934D01*
X157304841Y-104284048D01*
X157316664Y-104275280D01*
X157329290Y-104267712D01*
X157342597Y-104261418D01*
X157356457Y-104256459D01*
X157370736Y-104252882D01*
X157385297Y-104250722D01*
X157400000Y-104250000D01*
X158600000Y-104250000D01*
X158614703Y-104250722D01*
X158614703Y-104250722D01*
G37*
D13*
X158000000Y-105000000D03*
D11*
G36*
X158614703Y-110250722D02*
G01*
X158629264Y-110252882D01*
X158643543Y-110256459D01*
X158657403Y-110261418D01*
X158670710Y-110267712D01*
X158683336Y-110275280D01*
X158695159Y-110284048D01*
X158706066Y-110293934D01*
X158715952Y-110304841D01*
X158724720Y-110316664D01*
X158732288Y-110329290D01*
X158738582Y-110342597D01*
X158743541Y-110356457D01*
X158747118Y-110370736D01*
X158749278Y-110385297D01*
X158750000Y-110400000D01*
X158750000Y-111600000D01*
X158749278Y-111614703D01*
X158747118Y-111629264D01*
X158743541Y-111643543D01*
X158738582Y-111657403D01*
X158732288Y-111670710D01*
X158724720Y-111683336D01*
X158715952Y-111695159D01*
X158706066Y-111706066D01*
X158695159Y-111715952D01*
X158683336Y-111724720D01*
X158670710Y-111732288D01*
X158657403Y-111738582D01*
X158643543Y-111743541D01*
X158629264Y-111747118D01*
X158614703Y-111749278D01*
X158600000Y-111750000D01*
X157400000Y-111750000D01*
X157385297Y-111749278D01*
X157370736Y-111747118D01*
X157356457Y-111743541D01*
X157342597Y-111738582D01*
X157329290Y-111732288D01*
X157316664Y-111724720D01*
X157304841Y-111715952D01*
X157293934Y-111706066D01*
X157284048Y-111695159D01*
X157275280Y-111683336D01*
X157267712Y-111670710D01*
X157261418Y-111657403D01*
X157256459Y-111643543D01*
X157252882Y-111629264D01*
X157250722Y-111614703D01*
X157250000Y-111600000D01*
X157250000Y-110400000D01*
X157250722Y-110385297D01*
X157252882Y-110370736D01*
X157256459Y-110356457D01*
X157261418Y-110342597D01*
X157267712Y-110329290D01*
X157275280Y-110316664D01*
X157284048Y-110304841D01*
X157293934Y-110293934D01*
X157304841Y-110284048D01*
X157316664Y-110275280D01*
X157329290Y-110267712D01*
X157342597Y-110261418D01*
X157356457Y-110256459D01*
X157370736Y-110252882D01*
X157385297Y-110250722D01*
X157400000Y-110250000D01*
X158600000Y-110250000D01*
X158614703Y-110250722D01*
X158614703Y-110250722D01*
G37*
D13*
X158000000Y-111000000D03*
D11*
G36*
X144907351Y-105325361D02*
G01*
X144914632Y-105326441D01*
X144921771Y-105328229D01*
X144928701Y-105330709D01*
X144935355Y-105333856D01*
X144941668Y-105337640D01*
X144947579Y-105342024D01*
X144953033Y-105346967D01*
X144957976Y-105352421D01*
X144962360Y-105358332D01*
X144966144Y-105364645D01*
X144969291Y-105371299D01*
X144971771Y-105378229D01*
X144973559Y-105385368D01*
X144974639Y-105392649D01*
X144975000Y-105400000D01*
X144975000Y-105550000D01*
X144974639Y-105557351D01*
X144973559Y-105564632D01*
X144971771Y-105571771D01*
X144969291Y-105578701D01*
X144966144Y-105585355D01*
X144962360Y-105591668D01*
X144957976Y-105597579D01*
X144953033Y-105603033D01*
X144947579Y-105607976D01*
X144941668Y-105612360D01*
X144935355Y-105616144D01*
X144928701Y-105619291D01*
X144921771Y-105621771D01*
X144914632Y-105623559D01*
X144907351Y-105624639D01*
X144900000Y-105625000D01*
X144200000Y-105625000D01*
X144192649Y-105624639D01*
X144185368Y-105623559D01*
X144178229Y-105621771D01*
X144171299Y-105619291D01*
X144164645Y-105616144D01*
X144158332Y-105612360D01*
X144152421Y-105607976D01*
X144146967Y-105603033D01*
X144142024Y-105597579D01*
X144137640Y-105591668D01*
X144133856Y-105585355D01*
X144130709Y-105578701D01*
X144128229Y-105571771D01*
X144126441Y-105564632D01*
X144125361Y-105557351D01*
X144125000Y-105550000D01*
X144125000Y-105400000D01*
X144125361Y-105392649D01*
X144126441Y-105385368D01*
X144128229Y-105378229D01*
X144130709Y-105371299D01*
X144133856Y-105364645D01*
X144137640Y-105358332D01*
X144142024Y-105352421D01*
X144146967Y-105346967D01*
X144152421Y-105342024D01*
X144158332Y-105337640D01*
X144164645Y-105333856D01*
X144171299Y-105330709D01*
X144178229Y-105328229D01*
X144185368Y-105326441D01*
X144192649Y-105325361D01*
X144200000Y-105325000D01*
X144900000Y-105325000D01*
X144907351Y-105325361D01*
X144907351Y-105325361D01*
G37*
D15*
X144550000Y-105475000D03*
D11*
G36*
X144907351Y-104675361D02*
G01*
X144914632Y-104676441D01*
X144921771Y-104678229D01*
X144928701Y-104680709D01*
X144935355Y-104683856D01*
X144941668Y-104687640D01*
X144947579Y-104692024D01*
X144953033Y-104696967D01*
X144957976Y-104702421D01*
X144962360Y-104708332D01*
X144966144Y-104714645D01*
X144969291Y-104721299D01*
X144971771Y-104728229D01*
X144973559Y-104735368D01*
X144974639Y-104742649D01*
X144975000Y-104750000D01*
X144975000Y-104900000D01*
X144974639Y-104907351D01*
X144973559Y-104914632D01*
X144971771Y-104921771D01*
X144969291Y-104928701D01*
X144966144Y-104935355D01*
X144962360Y-104941668D01*
X144957976Y-104947579D01*
X144953033Y-104953033D01*
X144947579Y-104957976D01*
X144941668Y-104962360D01*
X144935355Y-104966144D01*
X144928701Y-104969291D01*
X144921771Y-104971771D01*
X144914632Y-104973559D01*
X144907351Y-104974639D01*
X144900000Y-104975000D01*
X144200000Y-104975000D01*
X144192649Y-104974639D01*
X144185368Y-104973559D01*
X144178229Y-104971771D01*
X144171299Y-104969291D01*
X144164645Y-104966144D01*
X144158332Y-104962360D01*
X144152421Y-104957976D01*
X144146967Y-104953033D01*
X144142024Y-104947579D01*
X144137640Y-104941668D01*
X144133856Y-104935355D01*
X144130709Y-104928701D01*
X144128229Y-104921771D01*
X144126441Y-104914632D01*
X144125361Y-104907351D01*
X144125000Y-104900000D01*
X144125000Y-104750000D01*
X144125361Y-104742649D01*
X144126441Y-104735368D01*
X144128229Y-104728229D01*
X144130709Y-104721299D01*
X144133856Y-104714645D01*
X144137640Y-104708332D01*
X144142024Y-104702421D01*
X144146967Y-104696967D01*
X144152421Y-104692024D01*
X144158332Y-104687640D01*
X144164645Y-104683856D01*
X144171299Y-104680709D01*
X144178229Y-104678229D01*
X144185368Y-104676441D01*
X144192649Y-104675361D01*
X144200000Y-104675000D01*
X144900000Y-104675000D01*
X144907351Y-104675361D01*
X144907351Y-104675361D01*
G37*
D15*
X144550000Y-104825000D03*
D11*
G36*
X144907351Y-104025361D02*
G01*
X144914632Y-104026441D01*
X144921771Y-104028229D01*
X144928701Y-104030709D01*
X144935355Y-104033856D01*
X144941668Y-104037640D01*
X144947579Y-104042024D01*
X144953033Y-104046967D01*
X144957976Y-104052421D01*
X144962360Y-104058332D01*
X144966144Y-104064645D01*
X144969291Y-104071299D01*
X144971771Y-104078229D01*
X144973559Y-104085368D01*
X144974639Y-104092649D01*
X144975000Y-104100000D01*
X144975000Y-104250000D01*
X144974639Y-104257351D01*
X144973559Y-104264632D01*
X144971771Y-104271771D01*
X144969291Y-104278701D01*
X144966144Y-104285355D01*
X144962360Y-104291668D01*
X144957976Y-104297579D01*
X144953033Y-104303033D01*
X144947579Y-104307976D01*
X144941668Y-104312360D01*
X144935355Y-104316144D01*
X144928701Y-104319291D01*
X144921771Y-104321771D01*
X144914632Y-104323559D01*
X144907351Y-104324639D01*
X144900000Y-104325000D01*
X144200000Y-104325000D01*
X144192649Y-104324639D01*
X144185368Y-104323559D01*
X144178229Y-104321771D01*
X144171299Y-104319291D01*
X144164645Y-104316144D01*
X144158332Y-104312360D01*
X144152421Y-104307976D01*
X144146967Y-104303033D01*
X144142024Y-104297579D01*
X144137640Y-104291668D01*
X144133856Y-104285355D01*
X144130709Y-104278701D01*
X144128229Y-104271771D01*
X144126441Y-104264632D01*
X144125361Y-104257351D01*
X144125000Y-104250000D01*
X144125000Y-104100000D01*
X144125361Y-104092649D01*
X144126441Y-104085368D01*
X144128229Y-104078229D01*
X144130709Y-104071299D01*
X144133856Y-104064645D01*
X144137640Y-104058332D01*
X144142024Y-104052421D01*
X144146967Y-104046967D01*
X144152421Y-104042024D01*
X144158332Y-104037640D01*
X144164645Y-104033856D01*
X144171299Y-104030709D01*
X144178229Y-104028229D01*
X144185368Y-104026441D01*
X144192649Y-104025361D01*
X144200000Y-104025000D01*
X144900000Y-104025000D01*
X144907351Y-104025361D01*
X144907351Y-104025361D01*
G37*
D15*
X144550000Y-104175000D03*
D11*
G36*
X144907351Y-103375361D02*
G01*
X144914632Y-103376441D01*
X144921771Y-103378229D01*
X144928701Y-103380709D01*
X144935355Y-103383856D01*
X144941668Y-103387640D01*
X144947579Y-103392024D01*
X144953033Y-103396967D01*
X144957976Y-103402421D01*
X144962360Y-103408332D01*
X144966144Y-103414645D01*
X144969291Y-103421299D01*
X144971771Y-103428229D01*
X144973559Y-103435368D01*
X144974639Y-103442649D01*
X144975000Y-103450000D01*
X144975000Y-103600000D01*
X144974639Y-103607351D01*
X144973559Y-103614632D01*
X144971771Y-103621771D01*
X144969291Y-103628701D01*
X144966144Y-103635355D01*
X144962360Y-103641668D01*
X144957976Y-103647579D01*
X144953033Y-103653033D01*
X144947579Y-103657976D01*
X144941668Y-103662360D01*
X144935355Y-103666144D01*
X144928701Y-103669291D01*
X144921771Y-103671771D01*
X144914632Y-103673559D01*
X144907351Y-103674639D01*
X144900000Y-103675000D01*
X144200000Y-103675000D01*
X144192649Y-103674639D01*
X144185368Y-103673559D01*
X144178229Y-103671771D01*
X144171299Y-103669291D01*
X144164645Y-103666144D01*
X144158332Y-103662360D01*
X144152421Y-103657976D01*
X144146967Y-103653033D01*
X144142024Y-103647579D01*
X144137640Y-103641668D01*
X144133856Y-103635355D01*
X144130709Y-103628701D01*
X144128229Y-103621771D01*
X144126441Y-103614632D01*
X144125361Y-103607351D01*
X144125000Y-103600000D01*
X144125000Y-103450000D01*
X144125361Y-103442649D01*
X144126441Y-103435368D01*
X144128229Y-103428229D01*
X144130709Y-103421299D01*
X144133856Y-103414645D01*
X144137640Y-103408332D01*
X144142024Y-103402421D01*
X144146967Y-103396967D01*
X144152421Y-103392024D01*
X144158332Y-103387640D01*
X144164645Y-103383856D01*
X144171299Y-103380709D01*
X144178229Y-103378229D01*
X144185368Y-103376441D01*
X144192649Y-103375361D01*
X144200000Y-103375000D01*
X144900000Y-103375000D01*
X144907351Y-103375361D01*
X144907351Y-103375361D01*
G37*
D15*
X144550000Y-103525000D03*
D11*
G36*
X145607351Y-102125361D02*
G01*
X145614632Y-102126441D01*
X145621771Y-102128229D01*
X145628701Y-102130709D01*
X145635355Y-102133856D01*
X145641668Y-102137640D01*
X145647579Y-102142024D01*
X145653033Y-102146967D01*
X145657976Y-102152421D01*
X145662360Y-102158332D01*
X145666144Y-102164645D01*
X145669291Y-102171299D01*
X145671771Y-102178229D01*
X145673559Y-102185368D01*
X145674639Y-102192649D01*
X145675000Y-102200000D01*
X145675000Y-102900000D01*
X145674639Y-102907351D01*
X145673559Y-102914632D01*
X145671771Y-102921771D01*
X145669291Y-102928701D01*
X145666144Y-102935355D01*
X145662360Y-102941668D01*
X145657976Y-102947579D01*
X145653033Y-102953033D01*
X145647579Y-102957976D01*
X145641668Y-102962360D01*
X145635355Y-102966144D01*
X145628701Y-102969291D01*
X145621771Y-102971771D01*
X145614632Y-102973559D01*
X145607351Y-102974639D01*
X145600000Y-102975000D01*
X145450000Y-102975000D01*
X145442649Y-102974639D01*
X145435368Y-102973559D01*
X145428229Y-102971771D01*
X145421299Y-102969291D01*
X145414645Y-102966144D01*
X145408332Y-102962360D01*
X145402421Y-102957976D01*
X145396967Y-102953033D01*
X145392024Y-102947579D01*
X145387640Y-102941668D01*
X145383856Y-102935355D01*
X145380709Y-102928701D01*
X145378229Y-102921771D01*
X145376441Y-102914632D01*
X145375361Y-102907351D01*
X145375000Y-102900000D01*
X145375000Y-102200000D01*
X145375361Y-102192649D01*
X145376441Y-102185368D01*
X145378229Y-102178229D01*
X145380709Y-102171299D01*
X145383856Y-102164645D01*
X145387640Y-102158332D01*
X145392024Y-102152421D01*
X145396967Y-102146967D01*
X145402421Y-102142024D01*
X145408332Y-102137640D01*
X145414645Y-102133856D01*
X145421299Y-102130709D01*
X145428229Y-102128229D01*
X145435368Y-102126441D01*
X145442649Y-102125361D01*
X145450000Y-102125000D01*
X145600000Y-102125000D01*
X145607351Y-102125361D01*
X145607351Y-102125361D01*
G37*
D15*
X145525000Y-102550000D03*
D11*
G36*
X146257351Y-102125361D02*
G01*
X146264632Y-102126441D01*
X146271771Y-102128229D01*
X146278701Y-102130709D01*
X146285355Y-102133856D01*
X146291668Y-102137640D01*
X146297579Y-102142024D01*
X146303033Y-102146967D01*
X146307976Y-102152421D01*
X146312360Y-102158332D01*
X146316144Y-102164645D01*
X146319291Y-102171299D01*
X146321771Y-102178229D01*
X146323559Y-102185368D01*
X146324639Y-102192649D01*
X146325000Y-102200000D01*
X146325000Y-102900000D01*
X146324639Y-102907351D01*
X146323559Y-102914632D01*
X146321771Y-102921771D01*
X146319291Y-102928701D01*
X146316144Y-102935355D01*
X146312360Y-102941668D01*
X146307976Y-102947579D01*
X146303033Y-102953033D01*
X146297579Y-102957976D01*
X146291668Y-102962360D01*
X146285355Y-102966144D01*
X146278701Y-102969291D01*
X146271771Y-102971771D01*
X146264632Y-102973559D01*
X146257351Y-102974639D01*
X146250000Y-102975000D01*
X146100000Y-102975000D01*
X146092649Y-102974639D01*
X146085368Y-102973559D01*
X146078229Y-102971771D01*
X146071299Y-102969291D01*
X146064645Y-102966144D01*
X146058332Y-102962360D01*
X146052421Y-102957976D01*
X146046967Y-102953033D01*
X146042024Y-102947579D01*
X146037640Y-102941668D01*
X146033856Y-102935355D01*
X146030709Y-102928701D01*
X146028229Y-102921771D01*
X146026441Y-102914632D01*
X146025361Y-102907351D01*
X146025000Y-102900000D01*
X146025000Y-102200000D01*
X146025361Y-102192649D01*
X146026441Y-102185368D01*
X146028229Y-102178229D01*
X146030709Y-102171299D01*
X146033856Y-102164645D01*
X146037640Y-102158332D01*
X146042024Y-102152421D01*
X146046967Y-102146967D01*
X146052421Y-102142024D01*
X146058332Y-102137640D01*
X146064645Y-102133856D01*
X146071299Y-102130709D01*
X146078229Y-102128229D01*
X146085368Y-102126441D01*
X146092649Y-102125361D01*
X146100000Y-102125000D01*
X146250000Y-102125000D01*
X146257351Y-102125361D01*
X146257351Y-102125361D01*
G37*
D15*
X146175000Y-102550000D03*
D11*
G36*
X146907351Y-102125361D02*
G01*
X146914632Y-102126441D01*
X146921771Y-102128229D01*
X146928701Y-102130709D01*
X146935355Y-102133856D01*
X146941668Y-102137640D01*
X146947579Y-102142024D01*
X146953033Y-102146967D01*
X146957976Y-102152421D01*
X146962360Y-102158332D01*
X146966144Y-102164645D01*
X146969291Y-102171299D01*
X146971771Y-102178229D01*
X146973559Y-102185368D01*
X146974639Y-102192649D01*
X146975000Y-102200000D01*
X146975000Y-102900000D01*
X146974639Y-102907351D01*
X146973559Y-102914632D01*
X146971771Y-102921771D01*
X146969291Y-102928701D01*
X146966144Y-102935355D01*
X146962360Y-102941668D01*
X146957976Y-102947579D01*
X146953033Y-102953033D01*
X146947579Y-102957976D01*
X146941668Y-102962360D01*
X146935355Y-102966144D01*
X146928701Y-102969291D01*
X146921771Y-102971771D01*
X146914632Y-102973559D01*
X146907351Y-102974639D01*
X146900000Y-102975000D01*
X146750000Y-102975000D01*
X146742649Y-102974639D01*
X146735368Y-102973559D01*
X146728229Y-102971771D01*
X146721299Y-102969291D01*
X146714645Y-102966144D01*
X146708332Y-102962360D01*
X146702421Y-102957976D01*
X146696967Y-102953033D01*
X146692024Y-102947579D01*
X146687640Y-102941668D01*
X146683856Y-102935355D01*
X146680709Y-102928701D01*
X146678229Y-102921771D01*
X146676441Y-102914632D01*
X146675361Y-102907351D01*
X146675000Y-102900000D01*
X146675000Y-102200000D01*
X146675361Y-102192649D01*
X146676441Y-102185368D01*
X146678229Y-102178229D01*
X146680709Y-102171299D01*
X146683856Y-102164645D01*
X146687640Y-102158332D01*
X146692024Y-102152421D01*
X146696967Y-102146967D01*
X146702421Y-102142024D01*
X146708332Y-102137640D01*
X146714645Y-102133856D01*
X146721299Y-102130709D01*
X146728229Y-102128229D01*
X146735368Y-102126441D01*
X146742649Y-102125361D01*
X146750000Y-102125000D01*
X146900000Y-102125000D01*
X146907351Y-102125361D01*
X146907351Y-102125361D01*
G37*
D15*
X146825000Y-102550000D03*
D11*
G36*
X147557351Y-102125361D02*
G01*
X147564632Y-102126441D01*
X147571771Y-102128229D01*
X147578701Y-102130709D01*
X147585355Y-102133856D01*
X147591668Y-102137640D01*
X147597579Y-102142024D01*
X147603033Y-102146967D01*
X147607976Y-102152421D01*
X147612360Y-102158332D01*
X147616144Y-102164645D01*
X147619291Y-102171299D01*
X147621771Y-102178229D01*
X147623559Y-102185368D01*
X147624639Y-102192649D01*
X147625000Y-102200000D01*
X147625000Y-102900000D01*
X147624639Y-102907351D01*
X147623559Y-102914632D01*
X147621771Y-102921771D01*
X147619291Y-102928701D01*
X147616144Y-102935355D01*
X147612360Y-102941668D01*
X147607976Y-102947579D01*
X147603033Y-102953033D01*
X147597579Y-102957976D01*
X147591668Y-102962360D01*
X147585355Y-102966144D01*
X147578701Y-102969291D01*
X147571771Y-102971771D01*
X147564632Y-102973559D01*
X147557351Y-102974639D01*
X147550000Y-102975000D01*
X147400000Y-102975000D01*
X147392649Y-102974639D01*
X147385368Y-102973559D01*
X147378229Y-102971771D01*
X147371299Y-102969291D01*
X147364645Y-102966144D01*
X147358332Y-102962360D01*
X147352421Y-102957976D01*
X147346967Y-102953033D01*
X147342024Y-102947579D01*
X147337640Y-102941668D01*
X147333856Y-102935355D01*
X147330709Y-102928701D01*
X147328229Y-102921771D01*
X147326441Y-102914632D01*
X147325361Y-102907351D01*
X147325000Y-102900000D01*
X147325000Y-102200000D01*
X147325361Y-102192649D01*
X147326441Y-102185368D01*
X147328229Y-102178229D01*
X147330709Y-102171299D01*
X147333856Y-102164645D01*
X147337640Y-102158332D01*
X147342024Y-102152421D01*
X147346967Y-102146967D01*
X147352421Y-102142024D01*
X147358332Y-102137640D01*
X147364645Y-102133856D01*
X147371299Y-102130709D01*
X147378229Y-102128229D01*
X147385368Y-102126441D01*
X147392649Y-102125361D01*
X147400000Y-102125000D01*
X147550000Y-102125000D01*
X147557351Y-102125361D01*
X147557351Y-102125361D01*
G37*
D15*
X147475000Y-102550000D03*
D11*
G36*
X148807351Y-103375361D02*
G01*
X148814632Y-103376441D01*
X148821771Y-103378229D01*
X148828701Y-103380709D01*
X148835355Y-103383856D01*
X148841668Y-103387640D01*
X148847579Y-103392024D01*
X148853033Y-103396967D01*
X148857976Y-103402421D01*
X148862360Y-103408332D01*
X148866144Y-103414645D01*
X148869291Y-103421299D01*
X148871771Y-103428229D01*
X148873559Y-103435368D01*
X148874639Y-103442649D01*
X148875000Y-103450000D01*
X148875000Y-103600000D01*
X148874639Y-103607351D01*
X148873559Y-103614632D01*
X148871771Y-103621771D01*
X148869291Y-103628701D01*
X148866144Y-103635355D01*
X148862360Y-103641668D01*
X148857976Y-103647579D01*
X148853033Y-103653033D01*
X148847579Y-103657976D01*
X148841668Y-103662360D01*
X148835355Y-103666144D01*
X148828701Y-103669291D01*
X148821771Y-103671771D01*
X148814632Y-103673559D01*
X148807351Y-103674639D01*
X148800000Y-103675000D01*
X148100000Y-103675000D01*
X148092649Y-103674639D01*
X148085368Y-103673559D01*
X148078229Y-103671771D01*
X148071299Y-103669291D01*
X148064645Y-103666144D01*
X148058332Y-103662360D01*
X148052421Y-103657976D01*
X148046967Y-103653033D01*
X148042024Y-103647579D01*
X148037640Y-103641668D01*
X148033856Y-103635355D01*
X148030709Y-103628701D01*
X148028229Y-103621771D01*
X148026441Y-103614632D01*
X148025361Y-103607351D01*
X148025000Y-103600000D01*
X148025000Y-103450000D01*
X148025361Y-103442649D01*
X148026441Y-103435368D01*
X148028229Y-103428229D01*
X148030709Y-103421299D01*
X148033856Y-103414645D01*
X148037640Y-103408332D01*
X148042024Y-103402421D01*
X148046967Y-103396967D01*
X148052421Y-103392024D01*
X148058332Y-103387640D01*
X148064645Y-103383856D01*
X148071299Y-103380709D01*
X148078229Y-103378229D01*
X148085368Y-103376441D01*
X148092649Y-103375361D01*
X148100000Y-103375000D01*
X148800000Y-103375000D01*
X148807351Y-103375361D01*
X148807351Y-103375361D01*
G37*
D15*
X148450000Y-103525000D03*
D11*
G36*
X148807351Y-104025361D02*
G01*
X148814632Y-104026441D01*
X148821771Y-104028229D01*
X148828701Y-104030709D01*
X148835355Y-104033856D01*
X148841668Y-104037640D01*
X148847579Y-104042024D01*
X148853033Y-104046967D01*
X148857976Y-104052421D01*
X148862360Y-104058332D01*
X148866144Y-104064645D01*
X148869291Y-104071299D01*
X148871771Y-104078229D01*
X148873559Y-104085368D01*
X148874639Y-104092649D01*
X148875000Y-104100000D01*
X148875000Y-104250000D01*
X148874639Y-104257351D01*
X148873559Y-104264632D01*
X148871771Y-104271771D01*
X148869291Y-104278701D01*
X148866144Y-104285355D01*
X148862360Y-104291668D01*
X148857976Y-104297579D01*
X148853033Y-104303033D01*
X148847579Y-104307976D01*
X148841668Y-104312360D01*
X148835355Y-104316144D01*
X148828701Y-104319291D01*
X148821771Y-104321771D01*
X148814632Y-104323559D01*
X148807351Y-104324639D01*
X148800000Y-104325000D01*
X148100000Y-104325000D01*
X148092649Y-104324639D01*
X148085368Y-104323559D01*
X148078229Y-104321771D01*
X148071299Y-104319291D01*
X148064645Y-104316144D01*
X148058332Y-104312360D01*
X148052421Y-104307976D01*
X148046967Y-104303033D01*
X148042024Y-104297579D01*
X148037640Y-104291668D01*
X148033856Y-104285355D01*
X148030709Y-104278701D01*
X148028229Y-104271771D01*
X148026441Y-104264632D01*
X148025361Y-104257351D01*
X148025000Y-104250000D01*
X148025000Y-104100000D01*
X148025361Y-104092649D01*
X148026441Y-104085368D01*
X148028229Y-104078229D01*
X148030709Y-104071299D01*
X148033856Y-104064645D01*
X148037640Y-104058332D01*
X148042024Y-104052421D01*
X148046967Y-104046967D01*
X148052421Y-104042024D01*
X148058332Y-104037640D01*
X148064645Y-104033856D01*
X148071299Y-104030709D01*
X148078229Y-104028229D01*
X148085368Y-104026441D01*
X148092649Y-104025361D01*
X148100000Y-104025000D01*
X148800000Y-104025000D01*
X148807351Y-104025361D01*
X148807351Y-104025361D01*
G37*
D15*
X148450000Y-104175000D03*
D11*
G36*
X148807351Y-104675361D02*
G01*
X148814632Y-104676441D01*
X148821771Y-104678229D01*
X148828701Y-104680709D01*
X148835355Y-104683856D01*
X148841668Y-104687640D01*
X148847579Y-104692024D01*
X148853033Y-104696967D01*
X148857976Y-104702421D01*
X148862360Y-104708332D01*
X148866144Y-104714645D01*
X148869291Y-104721299D01*
X148871771Y-104728229D01*
X148873559Y-104735368D01*
X148874639Y-104742649D01*
X148875000Y-104750000D01*
X148875000Y-104900000D01*
X148874639Y-104907351D01*
X148873559Y-104914632D01*
X148871771Y-104921771D01*
X148869291Y-104928701D01*
X148866144Y-104935355D01*
X148862360Y-104941668D01*
X148857976Y-104947579D01*
X148853033Y-104953033D01*
X148847579Y-104957976D01*
X148841668Y-104962360D01*
X148835355Y-104966144D01*
X148828701Y-104969291D01*
X148821771Y-104971771D01*
X148814632Y-104973559D01*
X148807351Y-104974639D01*
X148800000Y-104975000D01*
X148100000Y-104975000D01*
X148092649Y-104974639D01*
X148085368Y-104973559D01*
X148078229Y-104971771D01*
X148071299Y-104969291D01*
X148064645Y-104966144D01*
X148058332Y-104962360D01*
X148052421Y-104957976D01*
X148046967Y-104953033D01*
X148042024Y-104947579D01*
X148037640Y-104941668D01*
X148033856Y-104935355D01*
X148030709Y-104928701D01*
X148028229Y-104921771D01*
X148026441Y-104914632D01*
X148025361Y-104907351D01*
X148025000Y-104900000D01*
X148025000Y-104750000D01*
X148025361Y-104742649D01*
X148026441Y-104735368D01*
X148028229Y-104728229D01*
X148030709Y-104721299D01*
X148033856Y-104714645D01*
X148037640Y-104708332D01*
X148042024Y-104702421D01*
X148046967Y-104696967D01*
X148052421Y-104692024D01*
X148058332Y-104687640D01*
X148064645Y-104683856D01*
X148071299Y-104680709D01*
X148078229Y-104678229D01*
X148085368Y-104676441D01*
X148092649Y-104675361D01*
X148100000Y-104675000D01*
X148800000Y-104675000D01*
X148807351Y-104675361D01*
X148807351Y-104675361D01*
G37*
D15*
X148450000Y-104825000D03*
D11*
G36*
X148807351Y-105325361D02*
G01*
X148814632Y-105326441D01*
X148821771Y-105328229D01*
X148828701Y-105330709D01*
X148835355Y-105333856D01*
X148841668Y-105337640D01*
X148847579Y-105342024D01*
X148853033Y-105346967D01*
X148857976Y-105352421D01*
X148862360Y-105358332D01*
X148866144Y-105364645D01*
X148869291Y-105371299D01*
X148871771Y-105378229D01*
X148873559Y-105385368D01*
X148874639Y-105392649D01*
X148875000Y-105400000D01*
X148875000Y-105550000D01*
X148874639Y-105557351D01*
X148873559Y-105564632D01*
X148871771Y-105571771D01*
X148869291Y-105578701D01*
X148866144Y-105585355D01*
X148862360Y-105591668D01*
X148857976Y-105597579D01*
X148853033Y-105603033D01*
X148847579Y-105607976D01*
X148841668Y-105612360D01*
X148835355Y-105616144D01*
X148828701Y-105619291D01*
X148821771Y-105621771D01*
X148814632Y-105623559D01*
X148807351Y-105624639D01*
X148800000Y-105625000D01*
X148100000Y-105625000D01*
X148092649Y-105624639D01*
X148085368Y-105623559D01*
X148078229Y-105621771D01*
X148071299Y-105619291D01*
X148064645Y-105616144D01*
X148058332Y-105612360D01*
X148052421Y-105607976D01*
X148046967Y-105603033D01*
X148042024Y-105597579D01*
X148037640Y-105591668D01*
X148033856Y-105585355D01*
X148030709Y-105578701D01*
X148028229Y-105571771D01*
X148026441Y-105564632D01*
X148025361Y-105557351D01*
X148025000Y-105550000D01*
X148025000Y-105400000D01*
X148025361Y-105392649D01*
X148026441Y-105385368D01*
X148028229Y-105378229D01*
X148030709Y-105371299D01*
X148033856Y-105364645D01*
X148037640Y-105358332D01*
X148042024Y-105352421D01*
X148046967Y-105346967D01*
X148052421Y-105342024D01*
X148058332Y-105337640D01*
X148064645Y-105333856D01*
X148071299Y-105330709D01*
X148078229Y-105328229D01*
X148085368Y-105326441D01*
X148092649Y-105325361D01*
X148100000Y-105325000D01*
X148800000Y-105325000D01*
X148807351Y-105325361D01*
X148807351Y-105325361D01*
G37*
D15*
X148450000Y-105475000D03*
D11*
G36*
X147557351Y-106025361D02*
G01*
X147564632Y-106026441D01*
X147571771Y-106028229D01*
X147578701Y-106030709D01*
X147585355Y-106033856D01*
X147591668Y-106037640D01*
X147597579Y-106042024D01*
X147603033Y-106046967D01*
X147607976Y-106052421D01*
X147612360Y-106058332D01*
X147616144Y-106064645D01*
X147619291Y-106071299D01*
X147621771Y-106078229D01*
X147623559Y-106085368D01*
X147624639Y-106092649D01*
X147625000Y-106100000D01*
X147625000Y-106800000D01*
X147624639Y-106807351D01*
X147623559Y-106814632D01*
X147621771Y-106821771D01*
X147619291Y-106828701D01*
X147616144Y-106835355D01*
X147612360Y-106841668D01*
X147607976Y-106847579D01*
X147603033Y-106853033D01*
X147597579Y-106857976D01*
X147591668Y-106862360D01*
X147585355Y-106866144D01*
X147578701Y-106869291D01*
X147571771Y-106871771D01*
X147564632Y-106873559D01*
X147557351Y-106874639D01*
X147550000Y-106875000D01*
X147400000Y-106875000D01*
X147392649Y-106874639D01*
X147385368Y-106873559D01*
X147378229Y-106871771D01*
X147371299Y-106869291D01*
X147364645Y-106866144D01*
X147358332Y-106862360D01*
X147352421Y-106857976D01*
X147346967Y-106853033D01*
X147342024Y-106847579D01*
X147337640Y-106841668D01*
X147333856Y-106835355D01*
X147330709Y-106828701D01*
X147328229Y-106821771D01*
X147326441Y-106814632D01*
X147325361Y-106807351D01*
X147325000Y-106800000D01*
X147325000Y-106100000D01*
X147325361Y-106092649D01*
X147326441Y-106085368D01*
X147328229Y-106078229D01*
X147330709Y-106071299D01*
X147333856Y-106064645D01*
X147337640Y-106058332D01*
X147342024Y-106052421D01*
X147346967Y-106046967D01*
X147352421Y-106042024D01*
X147358332Y-106037640D01*
X147364645Y-106033856D01*
X147371299Y-106030709D01*
X147378229Y-106028229D01*
X147385368Y-106026441D01*
X147392649Y-106025361D01*
X147400000Y-106025000D01*
X147550000Y-106025000D01*
X147557351Y-106025361D01*
X147557351Y-106025361D01*
G37*
D15*
X147475000Y-106450000D03*
D11*
G36*
X146907351Y-106025361D02*
G01*
X146914632Y-106026441D01*
X146921771Y-106028229D01*
X146928701Y-106030709D01*
X146935355Y-106033856D01*
X146941668Y-106037640D01*
X146947579Y-106042024D01*
X146953033Y-106046967D01*
X146957976Y-106052421D01*
X146962360Y-106058332D01*
X146966144Y-106064645D01*
X146969291Y-106071299D01*
X146971771Y-106078229D01*
X146973559Y-106085368D01*
X146974639Y-106092649D01*
X146975000Y-106100000D01*
X146975000Y-106800000D01*
X146974639Y-106807351D01*
X146973559Y-106814632D01*
X146971771Y-106821771D01*
X146969291Y-106828701D01*
X146966144Y-106835355D01*
X146962360Y-106841668D01*
X146957976Y-106847579D01*
X146953033Y-106853033D01*
X146947579Y-106857976D01*
X146941668Y-106862360D01*
X146935355Y-106866144D01*
X146928701Y-106869291D01*
X146921771Y-106871771D01*
X146914632Y-106873559D01*
X146907351Y-106874639D01*
X146900000Y-106875000D01*
X146750000Y-106875000D01*
X146742649Y-106874639D01*
X146735368Y-106873559D01*
X146728229Y-106871771D01*
X146721299Y-106869291D01*
X146714645Y-106866144D01*
X146708332Y-106862360D01*
X146702421Y-106857976D01*
X146696967Y-106853033D01*
X146692024Y-106847579D01*
X146687640Y-106841668D01*
X146683856Y-106835355D01*
X146680709Y-106828701D01*
X146678229Y-106821771D01*
X146676441Y-106814632D01*
X146675361Y-106807351D01*
X146675000Y-106800000D01*
X146675000Y-106100000D01*
X146675361Y-106092649D01*
X146676441Y-106085368D01*
X146678229Y-106078229D01*
X146680709Y-106071299D01*
X146683856Y-106064645D01*
X146687640Y-106058332D01*
X146692024Y-106052421D01*
X146696967Y-106046967D01*
X146702421Y-106042024D01*
X146708332Y-106037640D01*
X146714645Y-106033856D01*
X146721299Y-106030709D01*
X146728229Y-106028229D01*
X146735368Y-106026441D01*
X146742649Y-106025361D01*
X146750000Y-106025000D01*
X146900000Y-106025000D01*
X146907351Y-106025361D01*
X146907351Y-106025361D01*
G37*
D15*
X146825000Y-106450000D03*
D11*
G36*
X146257351Y-106025361D02*
G01*
X146264632Y-106026441D01*
X146271771Y-106028229D01*
X146278701Y-106030709D01*
X146285355Y-106033856D01*
X146291668Y-106037640D01*
X146297579Y-106042024D01*
X146303033Y-106046967D01*
X146307976Y-106052421D01*
X146312360Y-106058332D01*
X146316144Y-106064645D01*
X146319291Y-106071299D01*
X146321771Y-106078229D01*
X146323559Y-106085368D01*
X146324639Y-106092649D01*
X146325000Y-106100000D01*
X146325000Y-106800000D01*
X146324639Y-106807351D01*
X146323559Y-106814632D01*
X146321771Y-106821771D01*
X146319291Y-106828701D01*
X146316144Y-106835355D01*
X146312360Y-106841668D01*
X146307976Y-106847579D01*
X146303033Y-106853033D01*
X146297579Y-106857976D01*
X146291668Y-106862360D01*
X146285355Y-106866144D01*
X146278701Y-106869291D01*
X146271771Y-106871771D01*
X146264632Y-106873559D01*
X146257351Y-106874639D01*
X146250000Y-106875000D01*
X146100000Y-106875000D01*
X146092649Y-106874639D01*
X146085368Y-106873559D01*
X146078229Y-106871771D01*
X146071299Y-106869291D01*
X146064645Y-106866144D01*
X146058332Y-106862360D01*
X146052421Y-106857976D01*
X146046967Y-106853033D01*
X146042024Y-106847579D01*
X146037640Y-106841668D01*
X146033856Y-106835355D01*
X146030709Y-106828701D01*
X146028229Y-106821771D01*
X146026441Y-106814632D01*
X146025361Y-106807351D01*
X146025000Y-106800000D01*
X146025000Y-106100000D01*
X146025361Y-106092649D01*
X146026441Y-106085368D01*
X146028229Y-106078229D01*
X146030709Y-106071299D01*
X146033856Y-106064645D01*
X146037640Y-106058332D01*
X146042024Y-106052421D01*
X146046967Y-106046967D01*
X146052421Y-106042024D01*
X146058332Y-106037640D01*
X146064645Y-106033856D01*
X146071299Y-106030709D01*
X146078229Y-106028229D01*
X146085368Y-106026441D01*
X146092649Y-106025361D01*
X146100000Y-106025000D01*
X146250000Y-106025000D01*
X146257351Y-106025361D01*
X146257351Y-106025361D01*
G37*
D15*
X146175000Y-106450000D03*
D11*
G36*
X145607351Y-106025361D02*
G01*
X145614632Y-106026441D01*
X145621771Y-106028229D01*
X145628701Y-106030709D01*
X145635355Y-106033856D01*
X145641668Y-106037640D01*
X145647579Y-106042024D01*
X145653033Y-106046967D01*
X145657976Y-106052421D01*
X145662360Y-106058332D01*
X145666144Y-106064645D01*
X145669291Y-106071299D01*
X145671771Y-106078229D01*
X145673559Y-106085368D01*
X145674639Y-106092649D01*
X145675000Y-106100000D01*
X145675000Y-106800000D01*
X145674639Y-106807351D01*
X145673559Y-106814632D01*
X145671771Y-106821771D01*
X145669291Y-106828701D01*
X145666144Y-106835355D01*
X145662360Y-106841668D01*
X145657976Y-106847579D01*
X145653033Y-106853033D01*
X145647579Y-106857976D01*
X145641668Y-106862360D01*
X145635355Y-106866144D01*
X145628701Y-106869291D01*
X145621771Y-106871771D01*
X145614632Y-106873559D01*
X145607351Y-106874639D01*
X145600000Y-106875000D01*
X145450000Y-106875000D01*
X145442649Y-106874639D01*
X145435368Y-106873559D01*
X145428229Y-106871771D01*
X145421299Y-106869291D01*
X145414645Y-106866144D01*
X145408332Y-106862360D01*
X145402421Y-106857976D01*
X145396967Y-106853033D01*
X145392024Y-106847579D01*
X145387640Y-106841668D01*
X145383856Y-106835355D01*
X145380709Y-106828701D01*
X145378229Y-106821771D01*
X145376441Y-106814632D01*
X145375361Y-106807351D01*
X145375000Y-106800000D01*
X145375000Y-106100000D01*
X145375361Y-106092649D01*
X145376441Y-106085368D01*
X145378229Y-106078229D01*
X145380709Y-106071299D01*
X145383856Y-106064645D01*
X145387640Y-106058332D01*
X145392024Y-106052421D01*
X145396967Y-106046967D01*
X145402421Y-106042024D01*
X145408332Y-106037640D01*
X145414645Y-106033856D01*
X145421299Y-106030709D01*
X145428229Y-106028229D01*
X145435368Y-106026441D01*
X145442649Y-106025361D01*
X145450000Y-106025000D01*
X145600000Y-106025000D01*
X145607351Y-106025361D01*
X145607351Y-106025361D01*
G37*
D15*
X145525000Y-106450000D03*
D11*
G36*
X147324504Y-103451204D02*
G01*
X147348773Y-103454804D01*
X147372571Y-103460765D01*
X147395671Y-103469030D01*
X147417849Y-103479520D01*
X147438893Y-103492133D01*
X147458598Y-103506747D01*
X147476777Y-103523223D01*
X147493253Y-103541402D01*
X147507867Y-103561107D01*
X147520480Y-103582151D01*
X147530970Y-103604329D01*
X147539235Y-103627429D01*
X147545196Y-103651227D01*
X147548796Y-103675496D01*
X147550000Y-103700000D01*
X147550000Y-105300000D01*
X147548796Y-105324504D01*
X147545196Y-105348773D01*
X147539235Y-105372571D01*
X147530970Y-105395671D01*
X147520480Y-105417849D01*
X147507867Y-105438893D01*
X147493253Y-105458598D01*
X147476777Y-105476777D01*
X147458598Y-105493253D01*
X147438893Y-105507867D01*
X147417849Y-105520480D01*
X147395671Y-105530970D01*
X147372571Y-105539235D01*
X147348773Y-105545196D01*
X147324504Y-105548796D01*
X147300000Y-105550000D01*
X145700000Y-105550000D01*
X145675496Y-105548796D01*
X145651227Y-105545196D01*
X145627429Y-105539235D01*
X145604329Y-105530970D01*
X145582151Y-105520480D01*
X145561107Y-105507867D01*
X145541402Y-105493253D01*
X145523223Y-105476777D01*
X145506747Y-105458598D01*
X145492133Y-105438893D01*
X145479520Y-105417849D01*
X145469030Y-105395671D01*
X145460765Y-105372571D01*
X145454804Y-105348773D01*
X145451204Y-105324504D01*
X145450000Y-105300000D01*
X145450000Y-103700000D01*
X145451204Y-103675496D01*
X145454804Y-103651227D01*
X145460765Y-103627429D01*
X145469030Y-103604329D01*
X145479520Y-103582151D01*
X145492133Y-103561107D01*
X145506747Y-103541402D01*
X145523223Y-103523223D01*
X145541402Y-103506747D01*
X145561107Y-103492133D01*
X145582151Y-103479520D01*
X145604329Y-103469030D01*
X145627429Y-103460765D01*
X145651227Y-103454804D01*
X145675496Y-103451204D01*
X145700000Y-103450000D01*
X147300000Y-103450000D01*
X147324504Y-103451204D01*
X147324504Y-103451204D01*
G37*
D16*
X146500000Y-104500000D03*
D11*
G36*
X150082351Y-105475361D02*
G01*
X150089632Y-105476441D01*
X150096771Y-105478229D01*
X150103701Y-105480709D01*
X150110355Y-105483856D01*
X150116668Y-105487640D01*
X150122579Y-105492024D01*
X150128033Y-105496967D01*
X150132976Y-105502421D01*
X150137360Y-105508332D01*
X150141144Y-105514645D01*
X150144291Y-105521299D01*
X150146771Y-105528229D01*
X150148559Y-105535368D01*
X150149639Y-105542649D01*
X150150000Y-105550000D01*
X150150000Y-105850000D01*
X150149639Y-105857351D01*
X150148559Y-105864632D01*
X150146771Y-105871771D01*
X150144291Y-105878701D01*
X150141144Y-105885355D01*
X150137360Y-105891668D01*
X150132976Y-105897579D01*
X150128033Y-105903033D01*
X150122579Y-105907976D01*
X150116668Y-105912360D01*
X150110355Y-105916144D01*
X150103701Y-105919291D01*
X150096771Y-105921771D01*
X150089632Y-105923559D01*
X150082351Y-105924639D01*
X150075000Y-105925000D01*
X149925000Y-105925000D01*
X149917649Y-105924639D01*
X149910368Y-105923559D01*
X149903229Y-105921771D01*
X149896299Y-105919291D01*
X149889645Y-105916144D01*
X149883332Y-105912360D01*
X149877421Y-105907976D01*
X149871967Y-105903033D01*
X149867024Y-105897579D01*
X149862640Y-105891668D01*
X149858856Y-105885355D01*
X149855709Y-105878701D01*
X149853229Y-105871771D01*
X149851441Y-105864632D01*
X149850361Y-105857351D01*
X149850000Y-105850000D01*
X149850000Y-105550000D01*
X149850361Y-105542649D01*
X149851441Y-105535368D01*
X149853229Y-105528229D01*
X149855709Y-105521299D01*
X149858856Y-105514645D01*
X149862640Y-105508332D01*
X149867024Y-105502421D01*
X149871967Y-105496967D01*
X149877421Y-105492024D01*
X149883332Y-105487640D01*
X149889645Y-105483856D01*
X149896299Y-105480709D01*
X149903229Y-105478229D01*
X149910368Y-105476441D01*
X149917649Y-105475361D01*
X149925000Y-105475000D01*
X150075000Y-105475000D01*
X150082351Y-105475361D01*
X150082351Y-105475361D01*
G37*
D15*
X150000000Y-105700000D03*
D11*
G36*
X150582351Y-105475361D02*
G01*
X150589632Y-105476441D01*
X150596771Y-105478229D01*
X150603701Y-105480709D01*
X150610355Y-105483856D01*
X150616668Y-105487640D01*
X150622579Y-105492024D01*
X150628033Y-105496967D01*
X150632976Y-105502421D01*
X150637360Y-105508332D01*
X150641144Y-105514645D01*
X150644291Y-105521299D01*
X150646771Y-105528229D01*
X150648559Y-105535368D01*
X150649639Y-105542649D01*
X150650000Y-105550000D01*
X150650000Y-105850000D01*
X150649639Y-105857351D01*
X150648559Y-105864632D01*
X150646771Y-105871771D01*
X150644291Y-105878701D01*
X150641144Y-105885355D01*
X150637360Y-105891668D01*
X150632976Y-105897579D01*
X150628033Y-105903033D01*
X150622579Y-105907976D01*
X150616668Y-105912360D01*
X150610355Y-105916144D01*
X150603701Y-105919291D01*
X150596771Y-105921771D01*
X150589632Y-105923559D01*
X150582351Y-105924639D01*
X150575000Y-105925000D01*
X150425000Y-105925000D01*
X150417649Y-105924639D01*
X150410368Y-105923559D01*
X150403229Y-105921771D01*
X150396299Y-105919291D01*
X150389645Y-105916144D01*
X150383332Y-105912360D01*
X150377421Y-105907976D01*
X150371967Y-105903033D01*
X150367024Y-105897579D01*
X150362640Y-105891668D01*
X150358856Y-105885355D01*
X150355709Y-105878701D01*
X150353229Y-105871771D01*
X150351441Y-105864632D01*
X150350361Y-105857351D01*
X150350000Y-105850000D01*
X150350000Y-105550000D01*
X150350361Y-105542649D01*
X150351441Y-105535368D01*
X150353229Y-105528229D01*
X150355709Y-105521299D01*
X150358856Y-105514645D01*
X150362640Y-105508332D01*
X150367024Y-105502421D01*
X150371967Y-105496967D01*
X150377421Y-105492024D01*
X150383332Y-105487640D01*
X150389645Y-105483856D01*
X150396299Y-105480709D01*
X150403229Y-105478229D01*
X150410368Y-105476441D01*
X150417649Y-105475361D01*
X150425000Y-105475000D01*
X150575000Y-105475000D01*
X150582351Y-105475361D01*
X150582351Y-105475361D01*
G37*
D15*
X150500000Y-105700000D03*
D11*
G36*
X150582351Y-104075361D02*
G01*
X150589632Y-104076441D01*
X150596771Y-104078229D01*
X150603701Y-104080709D01*
X150610355Y-104083856D01*
X150616668Y-104087640D01*
X150622579Y-104092024D01*
X150628033Y-104096967D01*
X150632976Y-104102421D01*
X150637360Y-104108332D01*
X150641144Y-104114645D01*
X150644291Y-104121299D01*
X150646771Y-104128229D01*
X150648559Y-104135368D01*
X150649639Y-104142649D01*
X150650000Y-104150000D01*
X150650000Y-104450000D01*
X150649639Y-104457351D01*
X150648559Y-104464632D01*
X150646771Y-104471771D01*
X150644291Y-104478701D01*
X150641144Y-104485355D01*
X150637360Y-104491668D01*
X150632976Y-104497579D01*
X150628033Y-104503033D01*
X150622579Y-104507976D01*
X150616668Y-104512360D01*
X150610355Y-104516144D01*
X150603701Y-104519291D01*
X150596771Y-104521771D01*
X150589632Y-104523559D01*
X150582351Y-104524639D01*
X150575000Y-104525000D01*
X150425000Y-104525000D01*
X150417649Y-104524639D01*
X150410368Y-104523559D01*
X150403229Y-104521771D01*
X150396299Y-104519291D01*
X150389645Y-104516144D01*
X150383332Y-104512360D01*
X150377421Y-104507976D01*
X150371967Y-104503033D01*
X150367024Y-104497579D01*
X150362640Y-104491668D01*
X150358856Y-104485355D01*
X150355709Y-104478701D01*
X150353229Y-104471771D01*
X150351441Y-104464632D01*
X150350361Y-104457351D01*
X150350000Y-104450000D01*
X150350000Y-104150000D01*
X150350361Y-104142649D01*
X150351441Y-104135368D01*
X150353229Y-104128229D01*
X150355709Y-104121299D01*
X150358856Y-104114645D01*
X150362640Y-104108332D01*
X150367024Y-104102421D01*
X150371967Y-104096967D01*
X150377421Y-104092024D01*
X150383332Y-104087640D01*
X150389645Y-104083856D01*
X150396299Y-104080709D01*
X150403229Y-104078229D01*
X150410368Y-104076441D01*
X150417649Y-104075361D01*
X150425000Y-104075000D01*
X150575000Y-104075000D01*
X150582351Y-104075361D01*
X150582351Y-104075361D01*
G37*
D15*
X150500000Y-104300000D03*
D11*
G36*
X151082351Y-105475361D02*
G01*
X151089632Y-105476441D01*
X151096771Y-105478229D01*
X151103701Y-105480709D01*
X151110355Y-105483856D01*
X151116668Y-105487640D01*
X151122579Y-105492024D01*
X151128033Y-105496967D01*
X151132976Y-105502421D01*
X151137360Y-105508332D01*
X151141144Y-105514645D01*
X151144291Y-105521299D01*
X151146771Y-105528229D01*
X151148559Y-105535368D01*
X151149639Y-105542649D01*
X151150000Y-105550000D01*
X151150000Y-105850000D01*
X151149639Y-105857351D01*
X151148559Y-105864632D01*
X151146771Y-105871771D01*
X151144291Y-105878701D01*
X151141144Y-105885355D01*
X151137360Y-105891668D01*
X151132976Y-105897579D01*
X151128033Y-105903033D01*
X151122579Y-105907976D01*
X151116668Y-105912360D01*
X151110355Y-105916144D01*
X151103701Y-105919291D01*
X151096771Y-105921771D01*
X151089632Y-105923559D01*
X151082351Y-105924639D01*
X151075000Y-105925000D01*
X150925000Y-105925000D01*
X150917649Y-105924639D01*
X150910368Y-105923559D01*
X150903229Y-105921771D01*
X150896299Y-105919291D01*
X150889645Y-105916144D01*
X150883332Y-105912360D01*
X150877421Y-105907976D01*
X150871967Y-105903033D01*
X150867024Y-105897579D01*
X150862640Y-105891668D01*
X150858856Y-105885355D01*
X150855709Y-105878701D01*
X150853229Y-105871771D01*
X150851441Y-105864632D01*
X150850361Y-105857351D01*
X150850000Y-105850000D01*
X150850000Y-105550000D01*
X150850361Y-105542649D01*
X150851441Y-105535368D01*
X150853229Y-105528229D01*
X150855709Y-105521299D01*
X150858856Y-105514645D01*
X150862640Y-105508332D01*
X150867024Y-105502421D01*
X150871967Y-105496967D01*
X150877421Y-105492024D01*
X150883332Y-105487640D01*
X150889645Y-105483856D01*
X150896299Y-105480709D01*
X150903229Y-105478229D01*
X150910368Y-105476441D01*
X150917649Y-105475361D01*
X150925000Y-105475000D01*
X151075000Y-105475000D01*
X151082351Y-105475361D01*
X151082351Y-105475361D01*
G37*
D15*
X151000000Y-105700000D03*
D11*
G36*
X150082351Y-104075361D02*
G01*
X150089632Y-104076441D01*
X150096771Y-104078229D01*
X150103701Y-104080709D01*
X150110355Y-104083856D01*
X150116668Y-104087640D01*
X150122579Y-104092024D01*
X150128033Y-104096967D01*
X150132976Y-104102421D01*
X150137360Y-104108332D01*
X150141144Y-104114645D01*
X150144291Y-104121299D01*
X150146771Y-104128229D01*
X150148559Y-104135368D01*
X150149639Y-104142649D01*
X150150000Y-104150000D01*
X150150000Y-104450000D01*
X150149639Y-104457351D01*
X150148559Y-104464632D01*
X150146771Y-104471771D01*
X150144291Y-104478701D01*
X150141144Y-104485355D01*
X150137360Y-104491668D01*
X150132976Y-104497579D01*
X150128033Y-104503033D01*
X150122579Y-104507976D01*
X150116668Y-104512360D01*
X150110355Y-104516144D01*
X150103701Y-104519291D01*
X150096771Y-104521771D01*
X150089632Y-104523559D01*
X150082351Y-104524639D01*
X150075000Y-104525000D01*
X149925000Y-104525000D01*
X149917649Y-104524639D01*
X149910368Y-104523559D01*
X149903229Y-104521771D01*
X149896299Y-104519291D01*
X149889645Y-104516144D01*
X149883332Y-104512360D01*
X149877421Y-104507976D01*
X149871967Y-104503033D01*
X149867024Y-104497579D01*
X149862640Y-104491668D01*
X149858856Y-104485355D01*
X149855709Y-104478701D01*
X149853229Y-104471771D01*
X149851441Y-104464632D01*
X149850361Y-104457351D01*
X149850000Y-104450000D01*
X149850000Y-104150000D01*
X149850361Y-104142649D01*
X149851441Y-104135368D01*
X149853229Y-104128229D01*
X149855709Y-104121299D01*
X149858856Y-104114645D01*
X149862640Y-104108332D01*
X149867024Y-104102421D01*
X149871967Y-104096967D01*
X149877421Y-104092024D01*
X149883332Y-104087640D01*
X149889645Y-104083856D01*
X149896299Y-104080709D01*
X149903229Y-104078229D01*
X149910368Y-104076441D01*
X149917649Y-104075361D01*
X149925000Y-104075000D01*
X150075000Y-104075000D01*
X150082351Y-104075361D01*
X150082351Y-104075361D01*
G37*
D15*
X150000000Y-104300000D03*
D11*
G36*
X151082351Y-104075361D02*
G01*
X151089632Y-104076441D01*
X151096771Y-104078229D01*
X151103701Y-104080709D01*
X151110355Y-104083856D01*
X151116668Y-104087640D01*
X151122579Y-104092024D01*
X151128033Y-104096967D01*
X151132976Y-104102421D01*
X151137360Y-104108332D01*
X151141144Y-104114645D01*
X151144291Y-104121299D01*
X151146771Y-104128229D01*
X151148559Y-104135368D01*
X151149639Y-104142649D01*
X151150000Y-104150000D01*
X151150000Y-104450000D01*
X151149639Y-104457351D01*
X151148559Y-104464632D01*
X151146771Y-104471771D01*
X151144291Y-104478701D01*
X151141144Y-104485355D01*
X151137360Y-104491668D01*
X151132976Y-104497579D01*
X151128033Y-104503033D01*
X151122579Y-104507976D01*
X151116668Y-104512360D01*
X151110355Y-104516144D01*
X151103701Y-104519291D01*
X151096771Y-104521771D01*
X151089632Y-104523559D01*
X151082351Y-104524639D01*
X151075000Y-104525000D01*
X150925000Y-104525000D01*
X150917649Y-104524639D01*
X150910368Y-104523559D01*
X150903229Y-104521771D01*
X150896299Y-104519291D01*
X150889645Y-104516144D01*
X150883332Y-104512360D01*
X150877421Y-104507976D01*
X150871967Y-104503033D01*
X150867024Y-104497579D01*
X150862640Y-104491668D01*
X150858856Y-104485355D01*
X150855709Y-104478701D01*
X150853229Y-104471771D01*
X150851441Y-104464632D01*
X150850361Y-104457351D01*
X150850000Y-104450000D01*
X150850000Y-104150000D01*
X150850361Y-104142649D01*
X150851441Y-104135368D01*
X150853229Y-104128229D01*
X150855709Y-104121299D01*
X150858856Y-104114645D01*
X150862640Y-104108332D01*
X150867024Y-104102421D01*
X150871967Y-104096967D01*
X150877421Y-104092024D01*
X150883332Y-104087640D01*
X150889645Y-104083856D01*
X150896299Y-104080709D01*
X150903229Y-104078229D01*
X150910368Y-104076441D01*
X150917649Y-104075361D01*
X150925000Y-104075000D01*
X151075000Y-104075000D01*
X151082351Y-104075361D01*
X151082351Y-104075361D01*
G37*
D15*
X151000000Y-104300000D03*
D17*
X147450000Y-109350000D03*
X147450000Y-110650000D03*
X145550000Y-110000000D03*
X145550000Y-110650000D03*
X145550000Y-109350000D03*
D11*
G36*
X149267153Y-109000843D02*
G01*
X149284141Y-109003363D01*
X149300800Y-109007535D01*
X149316970Y-109013321D01*
X149332494Y-109020664D01*
X149347225Y-109029493D01*
X149361019Y-109039723D01*
X149373744Y-109051256D01*
X149385277Y-109063981D01*
X149395507Y-109077775D01*
X149404336Y-109092506D01*
X149411679Y-109108030D01*
X149417465Y-109124200D01*
X149421637Y-109140859D01*
X149424157Y-109157847D01*
X149425000Y-109175000D01*
X149425000Y-109525000D01*
X149424157Y-109542153D01*
X149421637Y-109559141D01*
X149417465Y-109575800D01*
X149411679Y-109591970D01*
X149404336Y-109607494D01*
X149395507Y-109622225D01*
X149385277Y-109636019D01*
X149373744Y-109648744D01*
X149361019Y-109660277D01*
X149347225Y-109670507D01*
X149332494Y-109679336D01*
X149316970Y-109686679D01*
X149300800Y-109692465D01*
X149284141Y-109696637D01*
X149267153Y-109699157D01*
X149250000Y-109700000D01*
X148750000Y-109700000D01*
X148732847Y-109699157D01*
X148715859Y-109696637D01*
X148699200Y-109692465D01*
X148683030Y-109686679D01*
X148667506Y-109679336D01*
X148652775Y-109670507D01*
X148638981Y-109660277D01*
X148626256Y-109648744D01*
X148614723Y-109636019D01*
X148604493Y-109622225D01*
X148595664Y-109607494D01*
X148588321Y-109591970D01*
X148582535Y-109575800D01*
X148578363Y-109559141D01*
X148575843Y-109542153D01*
X148575000Y-109525000D01*
X148575000Y-109175000D01*
X148575843Y-109157847D01*
X148578363Y-109140859D01*
X148582535Y-109124200D01*
X148588321Y-109108030D01*
X148595664Y-109092506D01*
X148604493Y-109077775D01*
X148614723Y-109063981D01*
X148626256Y-109051256D01*
X148638981Y-109039723D01*
X148652775Y-109029493D01*
X148667506Y-109020664D01*
X148683030Y-109013321D01*
X148699200Y-109007535D01*
X148715859Y-109003363D01*
X148732847Y-109000843D01*
X148750000Y-109000000D01*
X149250000Y-109000000D01*
X149267153Y-109000843D01*
X149267153Y-109000843D01*
G37*
D18*
X149000000Y-109350000D03*
D11*
G36*
X149267153Y-110300843D02*
G01*
X149284141Y-110303363D01*
X149300800Y-110307535D01*
X149316970Y-110313321D01*
X149332494Y-110320664D01*
X149347225Y-110329493D01*
X149361019Y-110339723D01*
X149373744Y-110351256D01*
X149385277Y-110363981D01*
X149395507Y-110377775D01*
X149404336Y-110392506D01*
X149411679Y-110408030D01*
X149417465Y-110424200D01*
X149421637Y-110440859D01*
X149424157Y-110457847D01*
X149425000Y-110475000D01*
X149425000Y-110825000D01*
X149424157Y-110842153D01*
X149421637Y-110859141D01*
X149417465Y-110875800D01*
X149411679Y-110891970D01*
X149404336Y-110907494D01*
X149395507Y-110922225D01*
X149385277Y-110936019D01*
X149373744Y-110948744D01*
X149361019Y-110960277D01*
X149347225Y-110970507D01*
X149332494Y-110979336D01*
X149316970Y-110986679D01*
X149300800Y-110992465D01*
X149284141Y-110996637D01*
X149267153Y-110999157D01*
X149250000Y-111000000D01*
X148750000Y-111000000D01*
X148732847Y-110999157D01*
X148715859Y-110996637D01*
X148699200Y-110992465D01*
X148683030Y-110986679D01*
X148667506Y-110979336D01*
X148652775Y-110970507D01*
X148638981Y-110960277D01*
X148626256Y-110948744D01*
X148614723Y-110936019D01*
X148604493Y-110922225D01*
X148595664Y-110907494D01*
X148588321Y-110891970D01*
X148582535Y-110875800D01*
X148578363Y-110859141D01*
X148575843Y-110842153D01*
X148575000Y-110825000D01*
X148575000Y-110475000D01*
X148575843Y-110457847D01*
X148578363Y-110440859D01*
X148582535Y-110424200D01*
X148588321Y-110408030D01*
X148595664Y-110392506D01*
X148604493Y-110377775D01*
X148614723Y-110363981D01*
X148626256Y-110351256D01*
X148638981Y-110339723D01*
X148652775Y-110329493D01*
X148667506Y-110320664D01*
X148683030Y-110313321D01*
X148699200Y-110307535D01*
X148715859Y-110303363D01*
X148732847Y-110300843D01*
X148750000Y-110300000D01*
X149250000Y-110300000D01*
X149267153Y-110300843D01*
X149267153Y-110300843D01*
G37*
D18*
X149000000Y-110650000D03*
D11*
G36*
X147342153Y-107575843D02*
G01*
X147359141Y-107578363D01*
X147375800Y-107582535D01*
X147391970Y-107588321D01*
X147407494Y-107595664D01*
X147422225Y-107604493D01*
X147436019Y-107614723D01*
X147448744Y-107626256D01*
X147460277Y-107638981D01*
X147470507Y-107652775D01*
X147479336Y-107667506D01*
X147486679Y-107683030D01*
X147492465Y-107699200D01*
X147496637Y-107715859D01*
X147499157Y-107732847D01*
X147500000Y-107750000D01*
X147500000Y-108250000D01*
X147499157Y-108267153D01*
X147496637Y-108284141D01*
X147492465Y-108300800D01*
X147486679Y-108316970D01*
X147479336Y-108332494D01*
X147470507Y-108347225D01*
X147460277Y-108361019D01*
X147448744Y-108373744D01*
X147436019Y-108385277D01*
X147422225Y-108395507D01*
X147407494Y-108404336D01*
X147391970Y-108411679D01*
X147375800Y-108417465D01*
X147359141Y-108421637D01*
X147342153Y-108424157D01*
X147325000Y-108425000D01*
X146975000Y-108425000D01*
X146957847Y-108424157D01*
X146940859Y-108421637D01*
X146924200Y-108417465D01*
X146908030Y-108411679D01*
X146892506Y-108404336D01*
X146877775Y-108395507D01*
X146863981Y-108385277D01*
X146851256Y-108373744D01*
X146839723Y-108361019D01*
X146829493Y-108347225D01*
X146820664Y-108332494D01*
X146813321Y-108316970D01*
X146807535Y-108300800D01*
X146803363Y-108284141D01*
X146800843Y-108267153D01*
X146800000Y-108250000D01*
X146800000Y-107750000D01*
X146800843Y-107732847D01*
X146803363Y-107715859D01*
X146807535Y-107699200D01*
X146813321Y-107683030D01*
X146820664Y-107667506D01*
X146829493Y-107652775D01*
X146839723Y-107638981D01*
X146851256Y-107626256D01*
X146863981Y-107614723D01*
X146877775Y-107604493D01*
X146892506Y-107595664D01*
X146908030Y-107588321D01*
X146924200Y-107582535D01*
X146940859Y-107578363D01*
X146957847Y-107575843D01*
X146975000Y-107575000D01*
X147325000Y-107575000D01*
X147342153Y-107575843D01*
X147342153Y-107575843D01*
G37*
D18*
X147150000Y-108000000D03*
D11*
G36*
X146042153Y-107575843D02*
G01*
X146059141Y-107578363D01*
X146075800Y-107582535D01*
X146091970Y-107588321D01*
X146107494Y-107595664D01*
X146122225Y-107604493D01*
X146136019Y-107614723D01*
X146148744Y-107626256D01*
X146160277Y-107638981D01*
X146170507Y-107652775D01*
X146179336Y-107667506D01*
X146186679Y-107683030D01*
X146192465Y-107699200D01*
X146196637Y-107715859D01*
X146199157Y-107732847D01*
X146200000Y-107750000D01*
X146200000Y-108250000D01*
X146199157Y-108267153D01*
X146196637Y-108284141D01*
X146192465Y-108300800D01*
X146186679Y-108316970D01*
X146179336Y-108332494D01*
X146170507Y-108347225D01*
X146160277Y-108361019D01*
X146148744Y-108373744D01*
X146136019Y-108385277D01*
X146122225Y-108395507D01*
X146107494Y-108404336D01*
X146091970Y-108411679D01*
X146075800Y-108417465D01*
X146059141Y-108421637D01*
X146042153Y-108424157D01*
X146025000Y-108425000D01*
X145675000Y-108425000D01*
X145657847Y-108424157D01*
X145640859Y-108421637D01*
X145624200Y-108417465D01*
X145608030Y-108411679D01*
X145592506Y-108404336D01*
X145577775Y-108395507D01*
X145563981Y-108385277D01*
X145551256Y-108373744D01*
X145539723Y-108361019D01*
X145529493Y-108347225D01*
X145520664Y-108332494D01*
X145513321Y-108316970D01*
X145507535Y-108300800D01*
X145503363Y-108284141D01*
X145500843Y-108267153D01*
X145500000Y-108250000D01*
X145500000Y-107750000D01*
X145500843Y-107732847D01*
X145503363Y-107715859D01*
X145507535Y-107699200D01*
X145513321Y-107683030D01*
X145520664Y-107667506D01*
X145529493Y-107652775D01*
X145539723Y-107638981D01*
X145551256Y-107626256D01*
X145563981Y-107614723D01*
X145577775Y-107604493D01*
X145592506Y-107595664D01*
X145608030Y-107588321D01*
X145624200Y-107582535D01*
X145640859Y-107578363D01*
X145657847Y-107575843D01*
X145675000Y-107575000D01*
X146025000Y-107575000D01*
X146042153Y-107575843D01*
X146042153Y-107575843D01*
G37*
D18*
X145850000Y-108000000D03*
D11*
G36*
X144267153Y-99500843D02*
G01*
X144284141Y-99503363D01*
X144300800Y-99507535D01*
X144316970Y-99513321D01*
X144332494Y-99520664D01*
X144347225Y-99529493D01*
X144361019Y-99539723D01*
X144373744Y-99551256D01*
X144385277Y-99563981D01*
X144395507Y-99577775D01*
X144404336Y-99592506D01*
X144411679Y-99608030D01*
X144417465Y-99624200D01*
X144421637Y-99640859D01*
X144424157Y-99657847D01*
X144425000Y-99675000D01*
X144425000Y-100025000D01*
X144424157Y-100042153D01*
X144421637Y-100059141D01*
X144417465Y-100075800D01*
X144411679Y-100091970D01*
X144404336Y-100107494D01*
X144395507Y-100122225D01*
X144385277Y-100136019D01*
X144373744Y-100148744D01*
X144361019Y-100160277D01*
X144347225Y-100170507D01*
X144332494Y-100179336D01*
X144316970Y-100186679D01*
X144300800Y-100192465D01*
X144284141Y-100196637D01*
X144267153Y-100199157D01*
X144250000Y-100200000D01*
X143750000Y-100200000D01*
X143732847Y-100199157D01*
X143715859Y-100196637D01*
X143699200Y-100192465D01*
X143683030Y-100186679D01*
X143667506Y-100179336D01*
X143652775Y-100170507D01*
X143638981Y-100160277D01*
X143626256Y-100148744D01*
X143614723Y-100136019D01*
X143604493Y-100122225D01*
X143595664Y-100107494D01*
X143588321Y-100091970D01*
X143582535Y-100075800D01*
X143578363Y-100059141D01*
X143575843Y-100042153D01*
X143575000Y-100025000D01*
X143575000Y-99675000D01*
X143575843Y-99657847D01*
X143578363Y-99640859D01*
X143582535Y-99624200D01*
X143588321Y-99608030D01*
X143595664Y-99592506D01*
X143604493Y-99577775D01*
X143614723Y-99563981D01*
X143626256Y-99551256D01*
X143638981Y-99539723D01*
X143652775Y-99529493D01*
X143667506Y-99520664D01*
X143683030Y-99513321D01*
X143699200Y-99507535D01*
X143715859Y-99503363D01*
X143732847Y-99500843D01*
X143750000Y-99500000D01*
X144250000Y-99500000D01*
X144267153Y-99500843D01*
X144267153Y-99500843D01*
G37*
D18*
X144000000Y-99850000D03*
D11*
G36*
X144267153Y-100800843D02*
G01*
X144284141Y-100803363D01*
X144300800Y-100807535D01*
X144316970Y-100813321D01*
X144332494Y-100820664D01*
X144347225Y-100829493D01*
X144361019Y-100839723D01*
X144373744Y-100851256D01*
X144385277Y-100863981D01*
X144395507Y-100877775D01*
X144404336Y-100892506D01*
X144411679Y-100908030D01*
X144417465Y-100924200D01*
X144421637Y-100940859D01*
X144424157Y-100957847D01*
X144425000Y-100975000D01*
X144425000Y-101325000D01*
X144424157Y-101342153D01*
X144421637Y-101359141D01*
X144417465Y-101375800D01*
X144411679Y-101391970D01*
X144404336Y-101407494D01*
X144395507Y-101422225D01*
X144385277Y-101436019D01*
X144373744Y-101448744D01*
X144361019Y-101460277D01*
X144347225Y-101470507D01*
X144332494Y-101479336D01*
X144316970Y-101486679D01*
X144300800Y-101492465D01*
X144284141Y-101496637D01*
X144267153Y-101499157D01*
X144250000Y-101500000D01*
X143750000Y-101500000D01*
X143732847Y-101499157D01*
X143715859Y-101496637D01*
X143699200Y-101492465D01*
X143683030Y-101486679D01*
X143667506Y-101479336D01*
X143652775Y-101470507D01*
X143638981Y-101460277D01*
X143626256Y-101448744D01*
X143614723Y-101436019D01*
X143604493Y-101422225D01*
X143595664Y-101407494D01*
X143588321Y-101391970D01*
X143582535Y-101375800D01*
X143578363Y-101359141D01*
X143575843Y-101342153D01*
X143575000Y-101325000D01*
X143575000Y-100975000D01*
X143575843Y-100957847D01*
X143578363Y-100940859D01*
X143582535Y-100924200D01*
X143588321Y-100908030D01*
X143595664Y-100892506D01*
X143604493Y-100877775D01*
X143614723Y-100863981D01*
X143626256Y-100851256D01*
X143638981Y-100839723D01*
X143652775Y-100829493D01*
X143667506Y-100820664D01*
X143683030Y-100813321D01*
X143699200Y-100807535D01*
X143715859Y-100803363D01*
X143732847Y-100800843D01*
X143750000Y-100800000D01*
X144250000Y-100800000D01*
X144267153Y-100800843D01*
X144267153Y-100800843D01*
G37*
D18*
X144000000Y-101150000D03*
D11*
G36*
X144267153Y-110300843D02*
G01*
X144284141Y-110303363D01*
X144300800Y-110307535D01*
X144316970Y-110313321D01*
X144332494Y-110320664D01*
X144347225Y-110329493D01*
X144361019Y-110339723D01*
X144373744Y-110351256D01*
X144385277Y-110363981D01*
X144395507Y-110377775D01*
X144404336Y-110392506D01*
X144411679Y-110408030D01*
X144417465Y-110424200D01*
X144421637Y-110440859D01*
X144424157Y-110457847D01*
X144425000Y-110475000D01*
X144425000Y-110825000D01*
X144424157Y-110842153D01*
X144421637Y-110859141D01*
X144417465Y-110875800D01*
X144411679Y-110891970D01*
X144404336Y-110907494D01*
X144395507Y-110922225D01*
X144385277Y-110936019D01*
X144373744Y-110948744D01*
X144361019Y-110960277D01*
X144347225Y-110970507D01*
X144332494Y-110979336D01*
X144316970Y-110986679D01*
X144300800Y-110992465D01*
X144284141Y-110996637D01*
X144267153Y-110999157D01*
X144250000Y-111000000D01*
X143750000Y-111000000D01*
X143732847Y-110999157D01*
X143715859Y-110996637D01*
X143699200Y-110992465D01*
X143683030Y-110986679D01*
X143667506Y-110979336D01*
X143652775Y-110970507D01*
X143638981Y-110960277D01*
X143626256Y-110948744D01*
X143614723Y-110936019D01*
X143604493Y-110922225D01*
X143595664Y-110907494D01*
X143588321Y-110891970D01*
X143582535Y-110875800D01*
X143578363Y-110859141D01*
X143575843Y-110842153D01*
X143575000Y-110825000D01*
X143575000Y-110475000D01*
X143575843Y-110457847D01*
X143578363Y-110440859D01*
X143582535Y-110424200D01*
X143588321Y-110408030D01*
X143595664Y-110392506D01*
X143604493Y-110377775D01*
X143614723Y-110363981D01*
X143626256Y-110351256D01*
X143638981Y-110339723D01*
X143652775Y-110329493D01*
X143667506Y-110320664D01*
X143683030Y-110313321D01*
X143699200Y-110307535D01*
X143715859Y-110303363D01*
X143732847Y-110300843D01*
X143750000Y-110300000D01*
X144250000Y-110300000D01*
X144267153Y-110300843D01*
X144267153Y-110300843D01*
G37*
D18*
X144000000Y-110650000D03*
D11*
G36*
X144267153Y-109000843D02*
G01*
X144284141Y-109003363D01*
X144300800Y-109007535D01*
X144316970Y-109013321D01*
X144332494Y-109020664D01*
X144347225Y-109029493D01*
X144361019Y-109039723D01*
X144373744Y-109051256D01*
X144385277Y-109063981D01*
X144395507Y-109077775D01*
X144404336Y-109092506D01*
X144411679Y-109108030D01*
X144417465Y-109124200D01*
X144421637Y-109140859D01*
X144424157Y-109157847D01*
X144425000Y-109175000D01*
X144425000Y-109525000D01*
X144424157Y-109542153D01*
X144421637Y-109559141D01*
X144417465Y-109575800D01*
X144411679Y-109591970D01*
X144404336Y-109607494D01*
X144395507Y-109622225D01*
X144385277Y-109636019D01*
X144373744Y-109648744D01*
X144361019Y-109660277D01*
X144347225Y-109670507D01*
X144332494Y-109679336D01*
X144316970Y-109686679D01*
X144300800Y-109692465D01*
X144284141Y-109696637D01*
X144267153Y-109699157D01*
X144250000Y-109700000D01*
X143750000Y-109700000D01*
X143732847Y-109699157D01*
X143715859Y-109696637D01*
X143699200Y-109692465D01*
X143683030Y-109686679D01*
X143667506Y-109679336D01*
X143652775Y-109670507D01*
X143638981Y-109660277D01*
X143626256Y-109648744D01*
X143614723Y-109636019D01*
X143604493Y-109622225D01*
X143595664Y-109607494D01*
X143588321Y-109591970D01*
X143582535Y-109575800D01*
X143578363Y-109559141D01*
X143575843Y-109542153D01*
X143575000Y-109525000D01*
X143575000Y-109175000D01*
X143575843Y-109157847D01*
X143578363Y-109140859D01*
X143582535Y-109124200D01*
X143588321Y-109108030D01*
X143595664Y-109092506D01*
X143604493Y-109077775D01*
X143614723Y-109063981D01*
X143626256Y-109051256D01*
X143638981Y-109039723D01*
X143652775Y-109029493D01*
X143667506Y-109020664D01*
X143683030Y-109013321D01*
X143699200Y-109007535D01*
X143715859Y-109003363D01*
X143732847Y-109000843D01*
X143750000Y-109000000D01*
X144250000Y-109000000D01*
X144267153Y-109000843D01*
X144267153Y-109000843D01*
G37*
D18*
X144000000Y-109350000D03*
D19*
X156200000Y-100500000D03*
X154800000Y-100500000D03*
D20*
X153000000Y-112120000D03*
X153000000Y-109580000D03*
X153000000Y-107040000D03*
D21*
X153000000Y-104500000D03*
D20*
X142000000Y-98920000D03*
X142000000Y-101460000D03*
D21*
X142000000Y-104000000D03*
D20*
X142000000Y-106960000D03*
X142000000Y-109500000D03*
D21*
X142000000Y-112040000D03*
D11*
G36*
X148542153Y-100575843D02*
G01*
X148559141Y-100578363D01*
X148575800Y-100582535D01*
X148591970Y-100588321D01*
X148607494Y-100595664D01*
X148622225Y-100604493D01*
X148636019Y-100614723D01*
X148648744Y-100626256D01*
X148660277Y-100638981D01*
X148670507Y-100652775D01*
X148679336Y-100667506D01*
X148686679Y-100683030D01*
X148692465Y-100699200D01*
X148696637Y-100715859D01*
X148699157Y-100732847D01*
X148700000Y-100750000D01*
X148700000Y-101250000D01*
X148699157Y-101267153D01*
X148696637Y-101284141D01*
X148692465Y-101300800D01*
X148686679Y-101316970D01*
X148679336Y-101332494D01*
X148670507Y-101347225D01*
X148660277Y-101361019D01*
X148648744Y-101373744D01*
X148636019Y-101385277D01*
X148622225Y-101395507D01*
X148607494Y-101404336D01*
X148591970Y-101411679D01*
X148575800Y-101417465D01*
X148559141Y-101421637D01*
X148542153Y-101424157D01*
X148525000Y-101425000D01*
X148175000Y-101425000D01*
X148157847Y-101424157D01*
X148140859Y-101421637D01*
X148124200Y-101417465D01*
X148108030Y-101411679D01*
X148092506Y-101404336D01*
X148077775Y-101395507D01*
X148063981Y-101385277D01*
X148051256Y-101373744D01*
X148039723Y-101361019D01*
X148029493Y-101347225D01*
X148020664Y-101332494D01*
X148013321Y-101316970D01*
X148007535Y-101300800D01*
X148003363Y-101284141D01*
X148000843Y-101267153D01*
X148000000Y-101250000D01*
X148000000Y-100750000D01*
X148000843Y-100732847D01*
X148003363Y-100715859D01*
X148007535Y-100699200D01*
X148013321Y-100683030D01*
X148020664Y-100667506D01*
X148029493Y-100652775D01*
X148039723Y-100638981D01*
X148051256Y-100626256D01*
X148063981Y-100614723D01*
X148077775Y-100604493D01*
X148092506Y-100595664D01*
X148108030Y-100588321D01*
X148124200Y-100582535D01*
X148140859Y-100578363D01*
X148157847Y-100575843D01*
X148175000Y-100575000D01*
X148525000Y-100575000D01*
X148542153Y-100575843D01*
X148542153Y-100575843D01*
G37*
D18*
X148350000Y-101000000D03*
D11*
G36*
X149842153Y-100575843D02*
G01*
X149859141Y-100578363D01*
X149875800Y-100582535D01*
X149891970Y-100588321D01*
X149907494Y-100595664D01*
X149922225Y-100604493D01*
X149936019Y-100614723D01*
X149948744Y-100626256D01*
X149960277Y-100638981D01*
X149970507Y-100652775D01*
X149979336Y-100667506D01*
X149986679Y-100683030D01*
X149992465Y-100699200D01*
X149996637Y-100715859D01*
X149999157Y-100732847D01*
X150000000Y-100750000D01*
X150000000Y-101250000D01*
X149999157Y-101267153D01*
X149996637Y-101284141D01*
X149992465Y-101300800D01*
X149986679Y-101316970D01*
X149979336Y-101332494D01*
X149970507Y-101347225D01*
X149960277Y-101361019D01*
X149948744Y-101373744D01*
X149936019Y-101385277D01*
X149922225Y-101395507D01*
X149907494Y-101404336D01*
X149891970Y-101411679D01*
X149875800Y-101417465D01*
X149859141Y-101421637D01*
X149842153Y-101424157D01*
X149825000Y-101425000D01*
X149475000Y-101425000D01*
X149457847Y-101424157D01*
X149440859Y-101421637D01*
X149424200Y-101417465D01*
X149408030Y-101411679D01*
X149392506Y-101404336D01*
X149377775Y-101395507D01*
X149363981Y-101385277D01*
X149351256Y-101373744D01*
X149339723Y-101361019D01*
X149329493Y-101347225D01*
X149320664Y-101332494D01*
X149313321Y-101316970D01*
X149307535Y-101300800D01*
X149303363Y-101284141D01*
X149300843Y-101267153D01*
X149300000Y-101250000D01*
X149300000Y-100750000D01*
X149300843Y-100732847D01*
X149303363Y-100715859D01*
X149307535Y-100699200D01*
X149313321Y-100683030D01*
X149320664Y-100667506D01*
X149329493Y-100652775D01*
X149339723Y-100638981D01*
X149351256Y-100626256D01*
X149363981Y-100614723D01*
X149377775Y-100604493D01*
X149392506Y-100595664D01*
X149408030Y-100588321D01*
X149424200Y-100582535D01*
X149440859Y-100578363D01*
X149457847Y-100575843D01*
X149475000Y-100575000D01*
X149825000Y-100575000D01*
X149842153Y-100575843D01*
X149842153Y-100575843D01*
G37*
D18*
X149650000Y-101000000D03*
D11*
G36*
X147342153Y-100575843D02*
G01*
X147359141Y-100578363D01*
X147375800Y-100582535D01*
X147391970Y-100588321D01*
X147407494Y-100595664D01*
X147422225Y-100604493D01*
X147436019Y-100614723D01*
X147448744Y-100626256D01*
X147460277Y-100638981D01*
X147470507Y-100652775D01*
X147479336Y-100667506D01*
X147486679Y-100683030D01*
X147492465Y-100699200D01*
X147496637Y-100715859D01*
X147499157Y-100732847D01*
X147500000Y-100750000D01*
X147500000Y-101250000D01*
X147499157Y-101267153D01*
X147496637Y-101284141D01*
X147492465Y-101300800D01*
X147486679Y-101316970D01*
X147479336Y-101332494D01*
X147470507Y-101347225D01*
X147460277Y-101361019D01*
X147448744Y-101373744D01*
X147436019Y-101385277D01*
X147422225Y-101395507D01*
X147407494Y-101404336D01*
X147391970Y-101411679D01*
X147375800Y-101417465D01*
X147359141Y-101421637D01*
X147342153Y-101424157D01*
X147325000Y-101425000D01*
X146975000Y-101425000D01*
X146957847Y-101424157D01*
X146940859Y-101421637D01*
X146924200Y-101417465D01*
X146908030Y-101411679D01*
X146892506Y-101404336D01*
X146877775Y-101395507D01*
X146863981Y-101385277D01*
X146851256Y-101373744D01*
X146839723Y-101361019D01*
X146829493Y-101347225D01*
X146820664Y-101332494D01*
X146813321Y-101316970D01*
X146807535Y-101300800D01*
X146803363Y-101284141D01*
X146800843Y-101267153D01*
X146800000Y-101250000D01*
X146800000Y-100750000D01*
X146800843Y-100732847D01*
X146803363Y-100715859D01*
X146807535Y-100699200D01*
X146813321Y-100683030D01*
X146820664Y-100667506D01*
X146829493Y-100652775D01*
X146839723Y-100638981D01*
X146851256Y-100626256D01*
X146863981Y-100614723D01*
X146877775Y-100604493D01*
X146892506Y-100595664D01*
X146908030Y-100588321D01*
X146924200Y-100582535D01*
X146940859Y-100578363D01*
X146957847Y-100575843D01*
X146975000Y-100575000D01*
X147325000Y-100575000D01*
X147342153Y-100575843D01*
X147342153Y-100575843D01*
G37*
D18*
X147150000Y-101000000D03*
D11*
G36*
X146042153Y-100575843D02*
G01*
X146059141Y-100578363D01*
X146075800Y-100582535D01*
X146091970Y-100588321D01*
X146107494Y-100595664D01*
X146122225Y-100604493D01*
X146136019Y-100614723D01*
X146148744Y-100626256D01*
X146160277Y-100638981D01*
X146170507Y-100652775D01*
X146179336Y-100667506D01*
X146186679Y-100683030D01*
X146192465Y-100699200D01*
X146196637Y-100715859D01*
X146199157Y-100732847D01*
X146200000Y-100750000D01*
X146200000Y-101250000D01*
X146199157Y-101267153D01*
X146196637Y-101284141D01*
X146192465Y-101300800D01*
X146186679Y-101316970D01*
X146179336Y-101332494D01*
X146170507Y-101347225D01*
X146160277Y-101361019D01*
X146148744Y-101373744D01*
X146136019Y-101385277D01*
X146122225Y-101395507D01*
X146107494Y-101404336D01*
X146091970Y-101411679D01*
X146075800Y-101417465D01*
X146059141Y-101421637D01*
X146042153Y-101424157D01*
X146025000Y-101425000D01*
X145675000Y-101425000D01*
X145657847Y-101424157D01*
X145640859Y-101421637D01*
X145624200Y-101417465D01*
X145608030Y-101411679D01*
X145592506Y-101404336D01*
X145577775Y-101395507D01*
X145563981Y-101385277D01*
X145551256Y-101373744D01*
X145539723Y-101361019D01*
X145529493Y-101347225D01*
X145520664Y-101332494D01*
X145513321Y-101316970D01*
X145507535Y-101300800D01*
X145503363Y-101284141D01*
X145500843Y-101267153D01*
X145500000Y-101250000D01*
X145500000Y-100750000D01*
X145500843Y-100732847D01*
X145503363Y-100715859D01*
X145507535Y-100699200D01*
X145513321Y-100683030D01*
X145520664Y-100667506D01*
X145529493Y-100652775D01*
X145539723Y-100638981D01*
X145551256Y-100626256D01*
X145563981Y-100614723D01*
X145577775Y-100604493D01*
X145592506Y-100595664D01*
X145608030Y-100588321D01*
X145624200Y-100582535D01*
X145640859Y-100578363D01*
X145657847Y-100575843D01*
X145675000Y-100575000D01*
X146025000Y-100575000D01*
X146042153Y-100575843D01*
X146042153Y-100575843D01*
G37*
D18*
X145850000Y-101000000D03*
D11*
G36*
X147342153Y-99075843D02*
G01*
X147359141Y-99078363D01*
X147375800Y-99082535D01*
X147391970Y-99088321D01*
X147407494Y-99095664D01*
X147422225Y-99104493D01*
X147436019Y-99114723D01*
X147448744Y-99126256D01*
X147460277Y-99138981D01*
X147470507Y-99152775D01*
X147479336Y-99167506D01*
X147486679Y-99183030D01*
X147492465Y-99199200D01*
X147496637Y-99215859D01*
X147499157Y-99232847D01*
X147500000Y-99250000D01*
X147500000Y-99750000D01*
X147499157Y-99767153D01*
X147496637Y-99784141D01*
X147492465Y-99800800D01*
X147486679Y-99816970D01*
X147479336Y-99832494D01*
X147470507Y-99847225D01*
X147460277Y-99861019D01*
X147448744Y-99873744D01*
X147436019Y-99885277D01*
X147422225Y-99895507D01*
X147407494Y-99904336D01*
X147391970Y-99911679D01*
X147375800Y-99917465D01*
X147359141Y-99921637D01*
X147342153Y-99924157D01*
X147325000Y-99925000D01*
X146975000Y-99925000D01*
X146957847Y-99924157D01*
X146940859Y-99921637D01*
X146924200Y-99917465D01*
X146908030Y-99911679D01*
X146892506Y-99904336D01*
X146877775Y-99895507D01*
X146863981Y-99885277D01*
X146851256Y-99873744D01*
X146839723Y-99861019D01*
X146829493Y-99847225D01*
X146820664Y-99832494D01*
X146813321Y-99816970D01*
X146807535Y-99800800D01*
X146803363Y-99784141D01*
X146800843Y-99767153D01*
X146800000Y-99750000D01*
X146800000Y-99250000D01*
X146800843Y-99232847D01*
X146803363Y-99215859D01*
X146807535Y-99199200D01*
X146813321Y-99183030D01*
X146820664Y-99167506D01*
X146829493Y-99152775D01*
X146839723Y-99138981D01*
X146851256Y-99126256D01*
X146863981Y-99114723D01*
X146877775Y-99104493D01*
X146892506Y-99095664D01*
X146908030Y-99088321D01*
X146924200Y-99082535D01*
X146940859Y-99078363D01*
X146957847Y-99075843D01*
X146975000Y-99075000D01*
X147325000Y-99075000D01*
X147342153Y-99075843D01*
X147342153Y-99075843D01*
G37*
D18*
X147150000Y-99500000D03*
D11*
G36*
X146042153Y-99075843D02*
G01*
X146059141Y-99078363D01*
X146075800Y-99082535D01*
X146091970Y-99088321D01*
X146107494Y-99095664D01*
X146122225Y-99104493D01*
X146136019Y-99114723D01*
X146148744Y-99126256D01*
X146160277Y-99138981D01*
X146170507Y-99152775D01*
X146179336Y-99167506D01*
X146186679Y-99183030D01*
X146192465Y-99199200D01*
X146196637Y-99215859D01*
X146199157Y-99232847D01*
X146200000Y-99250000D01*
X146200000Y-99750000D01*
X146199157Y-99767153D01*
X146196637Y-99784141D01*
X146192465Y-99800800D01*
X146186679Y-99816970D01*
X146179336Y-99832494D01*
X146170507Y-99847225D01*
X146160277Y-99861019D01*
X146148744Y-99873744D01*
X146136019Y-99885277D01*
X146122225Y-99895507D01*
X146107494Y-99904336D01*
X146091970Y-99911679D01*
X146075800Y-99917465D01*
X146059141Y-99921637D01*
X146042153Y-99924157D01*
X146025000Y-99925000D01*
X145675000Y-99925000D01*
X145657847Y-99924157D01*
X145640859Y-99921637D01*
X145624200Y-99917465D01*
X145608030Y-99911679D01*
X145592506Y-99904336D01*
X145577775Y-99895507D01*
X145563981Y-99885277D01*
X145551256Y-99873744D01*
X145539723Y-99861019D01*
X145529493Y-99847225D01*
X145520664Y-99832494D01*
X145513321Y-99816970D01*
X145507535Y-99800800D01*
X145503363Y-99784141D01*
X145500843Y-99767153D01*
X145500000Y-99750000D01*
X145500000Y-99250000D01*
X145500843Y-99232847D01*
X145503363Y-99215859D01*
X145507535Y-99199200D01*
X145513321Y-99183030D01*
X145520664Y-99167506D01*
X145529493Y-99152775D01*
X145539723Y-99138981D01*
X145551256Y-99126256D01*
X145563981Y-99114723D01*
X145577775Y-99104493D01*
X145592506Y-99095664D01*
X145608030Y-99088321D01*
X145624200Y-99082535D01*
X145640859Y-99078363D01*
X145657847Y-99075843D01*
X145675000Y-99075000D01*
X146025000Y-99075000D01*
X146042153Y-99075843D01*
X146042153Y-99075843D01*
G37*
D18*
X145850000Y-99500000D03*
D11*
G36*
X149842153Y-107575843D02*
G01*
X149859141Y-107578363D01*
X149875800Y-107582535D01*
X149891970Y-107588321D01*
X149907494Y-107595664D01*
X149922225Y-107604493D01*
X149936019Y-107614723D01*
X149948744Y-107626256D01*
X149960277Y-107638981D01*
X149970507Y-107652775D01*
X149979336Y-107667506D01*
X149986679Y-107683030D01*
X149992465Y-107699200D01*
X149996637Y-107715859D01*
X149999157Y-107732847D01*
X150000000Y-107750000D01*
X150000000Y-108250000D01*
X149999157Y-108267153D01*
X149996637Y-108284141D01*
X149992465Y-108300800D01*
X149986679Y-108316970D01*
X149979336Y-108332494D01*
X149970507Y-108347225D01*
X149960277Y-108361019D01*
X149948744Y-108373744D01*
X149936019Y-108385277D01*
X149922225Y-108395507D01*
X149907494Y-108404336D01*
X149891970Y-108411679D01*
X149875800Y-108417465D01*
X149859141Y-108421637D01*
X149842153Y-108424157D01*
X149825000Y-108425000D01*
X149475000Y-108425000D01*
X149457847Y-108424157D01*
X149440859Y-108421637D01*
X149424200Y-108417465D01*
X149408030Y-108411679D01*
X149392506Y-108404336D01*
X149377775Y-108395507D01*
X149363981Y-108385277D01*
X149351256Y-108373744D01*
X149339723Y-108361019D01*
X149329493Y-108347225D01*
X149320664Y-108332494D01*
X149313321Y-108316970D01*
X149307535Y-108300800D01*
X149303363Y-108284141D01*
X149300843Y-108267153D01*
X149300000Y-108250000D01*
X149300000Y-107750000D01*
X149300843Y-107732847D01*
X149303363Y-107715859D01*
X149307535Y-107699200D01*
X149313321Y-107683030D01*
X149320664Y-107667506D01*
X149329493Y-107652775D01*
X149339723Y-107638981D01*
X149351256Y-107626256D01*
X149363981Y-107614723D01*
X149377775Y-107604493D01*
X149392506Y-107595664D01*
X149408030Y-107588321D01*
X149424200Y-107582535D01*
X149440859Y-107578363D01*
X149457847Y-107575843D01*
X149475000Y-107575000D01*
X149825000Y-107575000D01*
X149842153Y-107575843D01*
X149842153Y-107575843D01*
G37*
D18*
X149650000Y-108000000D03*
D11*
G36*
X148542153Y-107575843D02*
G01*
X148559141Y-107578363D01*
X148575800Y-107582535D01*
X148591970Y-107588321D01*
X148607494Y-107595664D01*
X148622225Y-107604493D01*
X148636019Y-107614723D01*
X148648744Y-107626256D01*
X148660277Y-107638981D01*
X148670507Y-107652775D01*
X148679336Y-107667506D01*
X148686679Y-107683030D01*
X148692465Y-107699200D01*
X148696637Y-107715859D01*
X148699157Y-107732847D01*
X148700000Y-107750000D01*
X148700000Y-108250000D01*
X148699157Y-108267153D01*
X148696637Y-108284141D01*
X148692465Y-108300800D01*
X148686679Y-108316970D01*
X148679336Y-108332494D01*
X148670507Y-108347225D01*
X148660277Y-108361019D01*
X148648744Y-108373744D01*
X148636019Y-108385277D01*
X148622225Y-108395507D01*
X148607494Y-108404336D01*
X148591970Y-108411679D01*
X148575800Y-108417465D01*
X148559141Y-108421637D01*
X148542153Y-108424157D01*
X148525000Y-108425000D01*
X148175000Y-108425000D01*
X148157847Y-108424157D01*
X148140859Y-108421637D01*
X148124200Y-108417465D01*
X148108030Y-108411679D01*
X148092506Y-108404336D01*
X148077775Y-108395507D01*
X148063981Y-108385277D01*
X148051256Y-108373744D01*
X148039723Y-108361019D01*
X148029493Y-108347225D01*
X148020664Y-108332494D01*
X148013321Y-108316970D01*
X148007535Y-108300800D01*
X148003363Y-108284141D01*
X148000843Y-108267153D01*
X148000000Y-108250000D01*
X148000000Y-107750000D01*
X148000843Y-107732847D01*
X148003363Y-107715859D01*
X148007535Y-107699200D01*
X148013321Y-107683030D01*
X148020664Y-107667506D01*
X148029493Y-107652775D01*
X148039723Y-107638981D01*
X148051256Y-107626256D01*
X148063981Y-107614723D01*
X148077775Y-107604493D01*
X148092506Y-107595664D01*
X148108030Y-107588321D01*
X148124200Y-107582535D01*
X148140859Y-107578363D01*
X148157847Y-107575843D01*
X148175000Y-107575000D01*
X148525000Y-107575000D01*
X148542153Y-107575843D01*
X148542153Y-107575843D01*
G37*
D18*
X148350000Y-108000000D03*
D22*
X148200000Y-106200000D03*
X144600000Y-102600000D03*
X144200000Y-107300000D03*
X144800000Y-99000000D03*
X149200000Y-98100000D03*
X149800000Y-102800000D03*
X145600000Y-111500000D03*
X158800000Y-102800000D03*
X150600000Y-108000000D03*
X148300000Y-109100000D03*
X150600000Y-111600000D03*
X158800000Y-98700000D03*
X144900000Y-106400000D03*
X148500000Y-102000000D03*
X148700000Y-107200000D03*
X154799986Y-100500000D03*
X151400000Y-106500000D03*
X149000000Y-100000000D03*
X154100000Y-105900000D03*
X149000000Y-111500000D03*
X156200000Y-100500000D03*
X144800000Y-108500000D03*
X146700000Y-110700000D03*
D23*
X144550000Y-103525000D02*
X145525000Y-103525000D01*
X145525000Y-103525000D02*
X146500000Y-104500000D01*
X146825000Y-106450000D02*
X146825000Y-104825000D01*
X146825000Y-104825000D02*
X146500000Y-104500000D01*
X146500000Y-104500000D02*
X147925010Y-105925010D01*
X147925010Y-105925010D02*
X148200000Y-106200000D01*
X148200000Y-106200000D02*
X148200000Y-106200000D01*
X147450000Y-108900000D02*
X148350000Y-108000000D01*
X147450000Y-109350000D02*
X147450000Y-108900000D01*
X147150000Y-108000000D02*
X148350000Y-108000000D01*
D24*
X147475000Y-101925000D02*
X147475000Y-102550000D01*
X148350000Y-101000000D02*
X148350000Y-101050000D01*
X148350000Y-101050000D02*
X147475000Y-101925000D01*
X148450000Y-103150000D02*
X148450000Y-103525000D01*
X147475000Y-102550000D02*
X147850000Y-102550000D01*
X147850000Y-102550000D02*
X148450000Y-103150000D01*
X145525000Y-106450000D02*
X144950000Y-106450000D01*
X144950000Y-106450000D02*
X144900000Y-106400000D01*
X148350000Y-101000000D02*
X148350000Y-101850000D01*
X148350000Y-101850000D02*
X148500000Y-102000000D01*
X148700000Y-107650000D02*
X148700000Y-107200000D01*
X148350000Y-108000000D02*
X148700000Y-107650000D01*
D23*
X154800000Y-100500000D02*
X154799986Y-100500000D01*
X146825000Y-101325000D02*
X147150000Y-101000000D01*
X146825000Y-102550000D02*
X146825000Y-101325000D01*
D24*
X147150000Y-101000000D02*
X147150000Y-99500000D01*
D23*
X151044654Y-106500000D02*
X151400000Y-106500000D01*
X150500000Y-105700000D02*
X150500000Y-105955346D01*
X150500000Y-105955346D02*
X151044654Y-106500000D01*
D25*
X154800000Y-109300000D02*
X155300000Y-109300000D01*
X154250001Y-109849999D02*
X154800000Y-109300000D01*
X153000000Y-112120000D02*
X154250001Y-110869999D01*
X154250001Y-110869999D02*
X154250001Y-109849999D01*
D26*
X149000001Y-99600001D02*
X149000001Y-99999999D01*
X149000001Y-99999999D02*
X149000000Y-100000000D01*
D25*
X148200000Y-99500000D02*
X148900000Y-99500000D01*
X148900000Y-99500000D02*
X149000001Y-99600001D01*
D26*
X142000000Y-98920000D02*
X142849999Y-98070001D01*
D25*
X147150000Y-99500000D02*
X148200000Y-99500000D01*
D26*
X142849999Y-98070001D02*
X147470001Y-98070001D01*
X147470001Y-98070001D02*
X149000001Y-99600001D01*
D23*
X143150000Y-110650000D02*
X142000000Y-109500000D01*
X144000000Y-110650000D02*
X143150000Y-110650000D01*
X143610000Y-99850000D02*
X144000000Y-99850000D01*
X142000000Y-101460000D02*
X143610000Y-99850000D01*
X153930000Y-108650000D02*
X153000000Y-109580000D01*
X155300000Y-108650000D02*
X153930000Y-108650000D01*
X152150001Y-108730001D02*
X153000000Y-109580000D01*
X152150001Y-108175001D02*
X152150001Y-108730001D01*
X150000000Y-106025000D02*
X152150001Y-108175001D01*
X150000000Y-105700000D02*
X150000000Y-106025000D01*
X153960000Y-108000000D02*
X153000000Y-107040000D01*
X155300000Y-108000000D02*
X153960000Y-108000000D01*
X151660000Y-105700000D02*
X153000000Y-107040000D01*
X151000000Y-105700000D02*
X151660000Y-105700000D01*
X148350000Y-110000000D02*
X149000000Y-110650000D01*
X145550000Y-110000000D02*
X148350000Y-110000000D01*
X154150001Y-105849999D02*
X154100000Y-105900000D01*
X154150001Y-105403970D02*
X154150001Y-105849999D01*
X156200000Y-100500000D02*
X156200000Y-101800000D01*
X156200000Y-103353971D02*
X154150001Y-105403970D01*
X149000000Y-110650000D02*
X149000000Y-111500000D01*
X156200000Y-101800000D02*
X156200000Y-103353971D01*
X145550000Y-109350000D02*
X144000000Y-109350000D01*
X145550000Y-108300000D02*
X145850000Y-108000000D01*
X145550000Y-109350000D02*
X145550000Y-108300000D01*
X143800000Y-101350000D02*
X144000000Y-101150000D01*
X143800000Y-104600000D02*
X143800000Y-101350000D01*
X144550000Y-104825000D02*
X144025000Y-104825000D01*
X144025000Y-104825000D02*
X143800000Y-104600000D01*
X145478242Y-107274990D02*
X144800000Y-107953232D01*
X145875010Y-107274990D02*
X145478242Y-107274990D01*
X146175000Y-106450000D02*
X146175000Y-106975000D01*
X146175000Y-106975000D02*
X145875010Y-107274990D01*
X144800000Y-107953232D02*
X144800000Y-108500000D01*
X147400000Y-110700000D02*
X147450000Y-110650000D01*
X146700000Y-110700000D02*
X147400000Y-110700000D01*
X149875000Y-104175000D02*
X150000000Y-104300000D01*
X148450000Y-104175000D02*
X149875000Y-104175000D01*
X151000000Y-104625000D02*
X151000000Y-104300000D01*
X150800000Y-104825000D02*
X151000000Y-104625000D01*
X148450000Y-104825000D02*
X150800000Y-104825000D01*
G36*
X159175000Y-98134619D02*
G01*
X159175001Y-112865380D01*
X158865382Y-113175000D01*
X153458098Y-113175000D01*
X153544729Y-113139116D01*
X153733082Y-113013263D01*
X153893263Y-112853082D01*
X154019116Y-112664729D01*
X154105806Y-112455443D01*
X154150000Y-112233265D01*
X154150000Y-112006735D01*
X154105806Y-111784557D01*
X154087278Y-111739828D01*
X154586188Y-111240919D01*
X154605265Y-111225263D01*
X154667747Y-111149128D01*
X154685040Y-111116775D01*
X154755528Y-111201543D01*
X154873591Y-111297166D01*
X155008040Y-111367919D01*
X155153709Y-111411083D01*
X155173827Y-111414660D01*
X155295000Y-111349982D01*
X155295000Y-110505000D01*
X155305000Y-110505000D01*
X155305000Y-111349982D01*
X155426173Y-111414660D01*
X155446291Y-111411083D01*
X155585220Y-111369916D01*
X156935647Y-111369916D01*
X156949314Y-111396474D01*
X156948864Y-111604402D01*
X156935647Y-111630084D01*
X156939396Y-111651169D01*
X156948694Y-111682525D01*
X156948548Y-111750000D01*
X156954340Y-111808810D01*
X156971495Y-111865361D01*
X156999352Y-111917478D01*
X157036841Y-111963159D01*
X157082522Y-112000648D01*
X157123842Y-112022734D01*
X157155780Y-112062150D01*
X157276387Y-112162398D01*
X157414234Y-112237190D01*
X157564024Y-112283653D01*
X157720000Y-112300000D01*
X157995000Y-112300000D01*
X157995000Y-110025000D01*
X157970000Y-110000000D01*
X157995000Y-109975000D01*
X157995000Y-109005000D01*
X158005000Y-109005000D01*
X158005000Y-109975000D01*
X158030000Y-110000000D01*
X158005000Y-110025000D01*
X158005000Y-112300000D01*
X158280000Y-112300000D01*
X158435976Y-112283653D01*
X158585766Y-112237190D01*
X158723613Y-112162398D01*
X158844220Y-112062150D01*
X158876158Y-112022734D01*
X158917478Y-112000648D01*
X158963159Y-111963159D01*
X159000648Y-111917478D01*
X159028505Y-111865361D01*
X159045660Y-111808810D01*
X159051452Y-111750000D01*
X159051306Y-111682525D01*
X159060604Y-111651169D01*
X159064353Y-111630084D01*
X159051136Y-111604402D01*
X159050686Y-111396474D01*
X159064353Y-111369916D01*
X159060604Y-111348831D01*
X159050509Y-111314787D01*
X159050000Y-111080000D01*
X158975000Y-111005000D01*
X158898630Y-111005000D01*
X158890527Y-110995000D01*
X158975000Y-110995000D01*
X159050000Y-110920000D01*
X159051452Y-110250000D01*
X159045660Y-110191190D01*
X159028505Y-110134639D01*
X159000648Y-110082522D01*
X158963159Y-110036841D01*
X158918268Y-110000000D01*
X158963159Y-109963159D01*
X159000648Y-109917478D01*
X159028505Y-109865361D01*
X159045660Y-109808810D01*
X159051452Y-109750000D01*
X159050000Y-109080000D01*
X158975000Y-109005000D01*
X158005000Y-109005000D01*
X157995000Y-109005000D01*
X157025000Y-109005000D01*
X156950000Y-109080000D01*
X156948548Y-109750000D01*
X156954340Y-109808810D01*
X156971495Y-109865361D01*
X156999352Y-109917478D01*
X157036841Y-109963159D01*
X157081732Y-110000000D01*
X157036841Y-110036841D01*
X156999352Y-110082522D01*
X156971495Y-110134639D01*
X156954340Y-110191190D01*
X156948548Y-110250000D01*
X156950000Y-110920000D01*
X157025000Y-110995000D01*
X157109473Y-110995000D01*
X157101370Y-111005000D01*
X157025000Y-111005000D01*
X156950000Y-111080000D01*
X156949491Y-111314787D01*
X156939396Y-111348831D01*
X156935647Y-111369916D01*
X155585220Y-111369916D01*
X155591960Y-111367919D01*
X155726409Y-111297166D01*
X155844472Y-111201543D01*
X155941611Y-111084724D01*
X156014093Y-110951199D01*
X156059133Y-110806099D01*
X156075000Y-110655000D01*
X156075000Y-110505000D01*
X155305000Y-110505000D01*
X155295000Y-110505000D01*
X155275000Y-110505000D01*
X155275000Y-110495000D01*
X155295000Y-110495000D01*
X155295000Y-110475000D01*
X155305000Y-110475000D01*
X155305000Y-110495000D01*
X156075000Y-110495000D01*
X156075000Y-110345000D01*
X156059133Y-110193901D01*
X156014093Y-110048801D01*
X155941611Y-109915276D01*
X155846962Y-109801451D01*
X155875000Y-109801451D01*
X155953319Y-109793737D01*
X156028629Y-109770892D01*
X156098034Y-109733794D01*
X156158869Y-109683869D01*
X156208794Y-109623034D01*
X156245892Y-109553629D01*
X156268737Y-109478319D01*
X156276451Y-109400000D01*
X156276451Y-109200000D01*
X156268737Y-109121681D01*
X156245892Y-109046371D01*
X156208794Y-108976966D01*
X156207181Y-108975000D01*
X156208794Y-108973034D01*
X156245892Y-108903629D01*
X156268737Y-108828319D01*
X156276451Y-108750000D01*
X156276451Y-108550000D01*
X156268737Y-108471681D01*
X156245892Y-108396371D01*
X156208794Y-108326966D01*
X156207181Y-108325000D01*
X156208794Y-108323034D01*
X156245892Y-108253629D01*
X156268737Y-108178319D01*
X156276451Y-108100000D01*
X156276451Y-107900000D01*
X156268737Y-107821681D01*
X156246993Y-107750000D01*
X156948548Y-107750000D01*
X156954340Y-107808810D01*
X156971495Y-107865361D01*
X156999352Y-107917478D01*
X157036841Y-107963159D01*
X157081732Y-108000000D01*
X157036841Y-108036841D01*
X156999352Y-108082522D01*
X156971495Y-108134639D01*
X156954340Y-108191190D01*
X156948548Y-108250000D01*
X156950000Y-108920000D01*
X157025000Y-108995000D01*
X157995000Y-108995000D01*
X157995000Y-108025000D01*
X157970000Y-108000000D01*
X157995000Y-107975000D01*
X157995000Y-107005000D01*
X158005000Y-107005000D01*
X158005000Y-107975000D01*
X158030000Y-108000000D01*
X158005000Y-108025000D01*
X158005000Y-108995000D01*
X158975000Y-108995000D01*
X159050000Y-108920000D01*
X159051452Y-108250000D01*
X159045660Y-108191190D01*
X159028505Y-108134639D01*
X159000648Y-108082522D01*
X158963159Y-108036841D01*
X158918268Y-108000000D01*
X158963159Y-107963159D01*
X159000648Y-107917478D01*
X159028505Y-107865361D01*
X159045660Y-107808810D01*
X159051452Y-107750000D01*
X159050000Y-107080000D01*
X158975000Y-107005000D01*
X158005000Y-107005000D01*
X157995000Y-107005000D01*
X157025000Y-107005000D01*
X156950000Y-107080000D01*
X156948548Y-107750000D01*
X156246993Y-107750000D01*
X156245892Y-107746371D01*
X156208794Y-107676966D01*
X156207181Y-107675000D01*
X156208794Y-107673034D01*
X156245892Y-107603629D01*
X156268737Y-107528319D01*
X156276451Y-107450000D01*
X156276451Y-107250000D01*
X156268737Y-107171681D01*
X156245892Y-107096371D01*
X156228048Y-107062988D01*
X156253505Y-107015361D01*
X156270660Y-106958810D01*
X156276452Y-106900000D01*
X156275000Y-106780000D01*
X156200000Y-106705000D01*
X155305000Y-106705000D01*
X155305000Y-106725000D01*
X155295000Y-106725000D01*
X155295000Y-106705000D01*
X154400000Y-106705000D01*
X154325000Y-106780000D01*
X154323548Y-106900000D01*
X154329340Y-106958810D01*
X154346495Y-107015361D01*
X154371952Y-107062988D01*
X154354108Y-107096371D01*
X154331263Y-107171681D01*
X154323549Y-107250000D01*
X154323549Y-107450000D01*
X154331263Y-107528319D01*
X154353007Y-107600000D01*
X154125686Y-107600000D01*
X154045857Y-107520171D01*
X154105806Y-107375443D01*
X154150000Y-107153265D01*
X154150000Y-106926735D01*
X154105806Y-106704557D01*
X154019294Y-106495701D01*
X154040905Y-106500000D01*
X154159095Y-106500000D01*
X154275014Y-106476942D01*
X154327980Y-106455003D01*
X154323548Y-106500000D01*
X154325000Y-106620000D01*
X154400000Y-106695000D01*
X155295000Y-106695000D01*
X155295000Y-105505000D01*
X155305000Y-105505000D01*
X155305000Y-106695000D01*
X156200000Y-106695000D01*
X156275000Y-106620000D01*
X156276452Y-106500000D01*
X156270660Y-106441190D01*
X156253505Y-106384639D01*
X156225648Y-106332522D01*
X156188159Y-106286841D01*
X156142478Y-106249352D01*
X156090361Y-106221495D01*
X156033810Y-106204340D01*
X155975000Y-106198548D01*
X155846702Y-106198861D01*
X155941611Y-106084724D01*
X156014093Y-105951199D01*
X156059133Y-105806099D01*
X156075000Y-105655000D01*
X156075000Y-105505000D01*
X155305000Y-105505000D01*
X155295000Y-105505000D01*
X155275000Y-105505000D01*
X155275000Y-105495000D01*
X155295000Y-105495000D01*
X155295000Y-105475000D01*
X155305000Y-105475000D01*
X155305000Y-105495000D01*
X156075000Y-105495000D01*
X156075000Y-105345000D01*
X156059133Y-105193901D01*
X156014093Y-105048801D01*
X155941611Y-104915276D01*
X155844472Y-104798457D01*
X155726409Y-104702834D01*
X155591960Y-104632081D01*
X155511436Y-104608220D01*
X155749740Y-104369916D01*
X156935647Y-104369916D01*
X156948864Y-104395598D01*
X156949314Y-104603526D01*
X156935647Y-104630084D01*
X156939396Y-104651169D01*
X156949491Y-104685213D01*
X156950000Y-104920000D01*
X157025000Y-104995000D01*
X157101370Y-104995000D01*
X157109473Y-105005000D01*
X157025000Y-105005000D01*
X156950000Y-105080000D01*
X156948548Y-105750000D01*
X156954340Y-105808810D01*
X156971495Y-105865361D01*
X156999352Y-105917478D01*
X157036841Y-105963159D01*
X157081732Y-106000000D01*
X157036841Y-106036841D01*
X156999352Y-106082522D01*
X156971495Y-106134639D01*
X156954340Y-106191190D01*
X156948548Y-106250000D01*
X156950000Y-106920000D01*
X157025000Y-106995000D01*
X157995000Y-106995000D01*
X157995000Y-106025000D01*
X157970000Y-106000000D01*
X157995000Y-105975000D01*
X157995000Y-104475000D01*
X158005000Y-104475000D01*
X158005000Y-105975000D01*
X158030000Y-106000000D01*
X158005000Y-106025000D01*
X158005000Y-106995000D01*
X158975000Y-106995000D01*
X159050000Y-106920000D01*
X159051452Y-106250000D01*
X159045660Y-106191190D01*
X159028505Y-106134639D01*
X159000648Y-106082522D01*
X158963159Y-106036841D01*
X158918268Y-106000000D01*
X158963159Y-105963159D01*
X159000648Y-105917478D01*
X159028505Y-105865361D01*
X159045660Y-105808810D01*
X159051452Y-105750000D01*
X159050000Y-105080000D01*
X158975000Y-105005000D01*
X158890527Y-105005000D01*
X158898630Y-104995000D01*
X158975000Y-104995000D01*
X159050000Y-104920000D01*
X159050509Y-104685213D01*
X159060604Y-104651169D01*
X159064353Y-104630084D01*
X159050686Y-104603526D01*
X159051136Y-104395598D01*
X159064353Y-104369916D01*
X159060604Y-104348831D01*
X159051306Y-104317475D01*
X159051452Y-104250000D01*
X159045660Y-104191190D01*
X159028505Y-104134639D01*
X159000648Y-104082522D01*
X158963159Y-104036841D01*
X158917478Y-103999352D01*
X158876158Y-103977266D01*
X158844220Y-103937850D01*
X158723613Y-103837602D01*
X158585766Y-103762810D01*
X158435976Y-103716347D01*
X158280000Y-103700000D01*
X157720000Y-103700000D01*
X157564024Y-103716347D01*
X157414234Y-103762810D01*
X157276387Y-103837602D01*
X157155780Y-103937850D01*
X157123842Y-103977266D01*
X157082522Y-103999352D01*
X157036841Y-104036841D01*
X156999352Y-104082522D01*
X156971495Y-104134639D01*
X156954340Y-104191190D01*
X156948548Y-104250000D01*
X156948694Y-104317475D01*
X156939396Y-104348831D01*
X156935647Y-104369916D01*
X155749740Y-104369916D01*
X156468948Y-103650708D01*
X156484211Y-103638182D01*
X156534197Y-103577274D01*
X156571340Y-103507785D01*
X156594212Y-103432385D01*
X156600000Y-103373618D01*
X156600000Y-103373608D01*
X156601934Y-103353972D01*
X156600000Y-103334336D01*
X156600000Y-101301451D01*
X156700000Y-101301451D01*
X156758810Y-101295659D01*
X156815360Y-101278504D01*
X156867477Y-101250647D01*
X156913158Y-101213158D01*
X156950647Y-101167477D01*
X156978504Y-101115360D01*
X156995659Y-101058810D01*
X157001451Y-101000000D01*
X157001451Y-100000000D01*
X156995659Y-99941190D01*
X156978504Y-99884640D01*
X156950647Y-99832523D01*
X156913158Y-99786842D01*
X156867477Y-99749353D01*
X156815360Y-99721496D01*
X156758810Y-99704341D01*
X156700000Y-99698549D01*
X155700000Y-99698549D01*
X155641190Y-99704341D01*
X155584640Y-99721496D01*
X155532523Y-99749353D01*
X155500000Y-99776044D01*
X155467477Y-99749353D01*
X155415360Y-99721496D01*
X155358810Y-99704341D01*
X155300000Y-99698549D01*
X154300000Y-99698549D01*
X154241190Y-99704341D01*
X154184640Y-99721496D01*
X154132523Y-99749353D01*
X154086842Y-99786842D01*
X154049353Y-99832523D01*
X154021496Y-99884640D01*
X154004341Y-99941190D01*
X153998549Y-100000000D01*
X153998549Y-101000000D01*
X154004341Y-101058810D01*
X154021496Y-101115360D01*
X154049353Y-101167477D01*
X154086842Y-101213158D01*
X154132523Y-101250647D01*
X154184640Y-101278504D01*
X154241190Y-101295659D01*
X154300000Y-101301451D01*
X155300000Y-101301451D01*
X155358810Y-101295659D01*
X155415360Y-101278504D01*
X155467477Y-101250647D01*
X155500000Y-101223956D01*
X155532523Y-101250647D01*
X155584640Y-101278504D01*
X155641190Y-101295659D01*
X155700000Y-101301451D01*
X155800001Y-101301451D01*
X155800001Y-101780344D01*
X155800000Y-101780354D01*
X155800001Y-103188285D01*
X154150486Y-104837800D01*
X154150000Y-104580000D01*
X154075000Y-104505000D01*
X153005000Y-104505000D01*
X153005000Y-105575000D01*
X153080000Y-105650000D01*
X153553748Y-105650893D01*
X153523058Y-105724986D01*
X153500000Y-105840905D01*
X153500000Y-105959095D01*
X153509378Y-106006241D01*
X153335443Y-105934194D01*
X153113265Y-105890000D01*
X152886735Y-105890000D01*
X152664557Y-105934194D01*
X152519829Y-105994143D01*
X152177086Y-105651401D01*
X152920000Y-105650000D01*
X152995000Y-105575000D01*
X152995000Y-104505000D01*
X151925000Y-104505000D01*
X151850000Y-104580000D01*
X151848553Y-105347229D01*
X151813814Y-105328660D01*
X151738414Y-105305788D01*
X151679647Y-105300000D01*
X151679646Y-105300000D01*
X151660000Y-105298065D01*
X151640354Y-105300000D01*
X151354479Y-105300000D01*
X151341191Y-105283809D01*
X151284145Y-105236992D01*
X151219062Y-105202205D01*
X151148442Y-105180782D01*
X151075000Y-105173549D01*
X150996453Y-105173549D01*
X151023303Y-105159197D01*
X151084211Y-105109211D01*
X151096738Y-105093947D01*
X151268944Y-104921740D01*
X151284211Y-104909211D01*
X151334197Y-104848303D01*
X151371340Y-104778814D01*
X151394212Y-104703414D01*
X151400000Y-104644647D01*
X151400000Y-104644646D01*
X151400958Y-104634916D01*
X151422795Y-104594062D01*
X151444218Y-104523442D01*
X151451451Y-104450000D01*
X151451451Y-104150000D01*
X151444218Y-104076558D01*
X151422795Y-104005938D01*
X151388008Y-103940855D01*
X151341191Y-103883809D01*
X151284145Y-103836992D01*
X151219062Y-103802205D01*
X151148442Y-103780782D01*
X151075000Y-103773549D01*
X150925000Y-103773549D01*
X150851558Y-103780782D01*
X150780938Y-103802205D01*
X150778491Y-103803513D01*
X150765361Y-103796495D01*
X150708810Y-103779340D01*
X150650000Y-103773548D01*
X150580000Y-103775000D01*
X150505000Y-103850000D01*
X150505000Y-104295000D01*
X150525000Y-104295000D01*
X150525000Y-104305000D01*
X150505000Y-104305000D01*
X150505000Y-104325000D01*
X150495000Y-104325000D01*
X150495000Y-104305000D01*
X150475000Y-104305000D01*
X150475000Y-104295000D01*
X150495000Y-104295000D01*
X150495000Y-103850000D01*
X150420000Y-103775000D01*
X150350000Y-103773548D01*
X150291190Y-103779340D01*
X150234639Y-103796495D01*
X150221509Y-103803513D01*
X150219062Y-103802205D01*
X150148442Y-103780782D01*
X150075000Y-103773549D01*
X149925000Y-103773549D01*
X149902457Y-103775769D01*
X149894647Y-103775000D01*
X149894646Y-103775000D01*
X149875000Y-103773065D01*
X149855354Y-103775000D01*
X149131259Y-103775000D01*
X149147795Y-103744062D01*
X149169218Y-103673442D01*
X149171526Y-103650000D01*
X151848548Y-103650000D01*
X151850000Y-104420000D01*
X151925000Y-104495000D01*
X152995000Y-104495000D01*
X152995000Y-103425000D01*
X153005000Y-103425000D01*
X153005000Y-104495000D01*
X154075000Y-104495000D01*
X154150000Y-104420000D01*
X154151452Y-103650000D01*
X154145660Y-103591190D01*
X154128505Y-103534639D01*
X154100648Y-103482522D01*
X154063159Y-103436841D01*
X154017478Y-103399352D01*
X153965361Y-103371495D01*
X153908810Y-103354340D01*
X153850000Y-103348548D01*
X153080000Y-103350000D01*
X153005000Y-103425000D01*
X152995000Y-103425000D01*
X152920000Y-103350000D01*
X152150000Y-103348548D01*
X152091190Y-103354340D01*
X152034639Y-103371495D01*
X151982522Y-103399352D01*
X151936841Y-103436841D01*
X151899352Y-103482522D01*
X151871495Y-103534639D01*
X151854340Y-103591190D01*
X151848548Y-103650000D01*
X149171526Y-103650000D01*
X149176451Y-103600000D01*
X149176451Y-103450000D01*
X149169218Y-103376558D01*
X149147795Y-103305938D01*
X149113008Y-103240855D01*
X149066191Y-103183809D01*
X149009145Y-103136992D01*
X148944062Y-103102205D01*
X148896035Y-103087636D01*
X148893489Y-103061785D01*
X148867757Y-102976959D01*
X148838028Y-102921340D01*
X148825971Y-102898783D01*
X148783828Y-102847432D01*
X148783824Y-102847428D01*
X148769737Y-102830263D01*
X148752573Y-102816177D01*
X148536396Y-102600000D01*
X148559095Y-102600000D01*
X148675014Y-102576942D01*
X148784207Y-102531713D01*
X148882478Y-102466050D01*
X148966050Y-102382478D01*
X149031713Y-102284207D01*
X149076942Y-102175014D01*
X149100000Y-102059095D01*
X149100000Y-101940905D01*
X149076942Y-101824986D01*
X149031713Y-101715793D01*
X148966050Y-101617522D01*
X148895045Y-101546517D01*
X148921155Y-101514702D01*
X148965183Y-101432330D01*
X148992296Y-101342951D01*
X148999188Y-101272978D01*
X148998548Y-101425000D01*
X149004340Y-101483810D01*
X149021495Y-101540361D01*
X149049352Y-101592478D01*
X149086841Y-101638159D01*
X149132522Y-101675648D01*
X149184639Y-101703505D01*
X149241190Y-101720660D01*
X149300000Y-101726452D01*
X149570000Y-101725000D01*
X149645000Y-101650000D01*
X149645000Y-101005000D01*
X149655000Y-101005000D01*
X149655000Y-101650000D01*
X149730000Y-101725000D01*
X150000000Y-101726452D01*
X150058810Y-101720660D01*
X150115361Y-101703505D01*
X150167478Y-101675648D01*
X150213159Y-101638159D01*
X150250648Y-101592478D01*
X150278505Y-101540361D01*
X150295660Y-101483810D01*
X150301452Y-101425000D01*
X150300000Y-101080000D01*
X150225000Y-101005000D01*
X149655000Y-101005000D01*
X149645000Y-101005000D01*
X149625000Y-101005000D01*
X149625000Y-100995000D01*
X149645000Y-100995000D01*
X149645000Y-100350000D01*
X149655000Y-100350000D01*
X149655000Y-100995000D01*
X150225000Y-100995000D01*
X150300000Y-100920000D01*
X150301452Y-100575000D01*
X150295660Y-100516190D01*
X150278505Y-100459639D01*
X150250648Y-100407522D01*
X150213159Y-100361841D01*
X150167478Y-100324352D01*
X150115361Y-100296495D01*
X150058810Y-100279340D01*
X150000000Y-100273548D01*
X149730000Y-100275000D01*
X149655000Y-100350000D01*
X149645000Y-100350000D01*
X149570000Y-100275000D01*
X149535603Y-100274815D01*
X149543046Y-100256847D01*
X149557011Y-100230720D01*
X149565610Y-100202371D01*
X149576942Y-100175014D01*
X149582720Y-100145968D01*
X149590915Y-100118951D01*
X149591319Y-100117620D01*
X149594222Y-100088141D01*
X149600000Y-100059095D01*
X149600000Y-100029482D01*
X149600001Y-100029472D01*
X149600001Y-100029466D01*
X149602903Y-100000000D01*
X149600001Y-99970534D01*
X149600001Y-99629475D01*
X149602904Y-99600001D01*
X149591319Y-99482380D01*
X149557011Y-99369280D01*
X149554779Y-99365105D01*
X149501297Y-99265046D01*
X149426318Y-99173684D01*
X149403421Y-99154893D01*
X148073527Y-97825000D01*
X158865382Y-97825000D01*
X159175000Y-98134619D01*
X159175000Y-98134619D01*
G37*
X159175000Y-98134619D02*
X159175001Y-112865380D01*
X158865382Y-113175000D01*
X153458098Y-113175000D01*
X153544729Y-113139116D01*
X153733082Y-113013263D01*
X153893263Y-112853082D01*
X154019116Y-112664729D01*
X154105806Y-112455443D01*
X154150000Y-112233265D01*
X154150000Y-112006735D01*
X154105806Y-111784557D01*
X154087278Y-111739828D01*
X154586188Y-111240919D01*
X154605265Y-111225263D01*
X154667747Y-111149128D01*
X154685040Y-111116775D01*
X154755528Y-111201543D01*
X154873591Y-111297166D01*
X155008040Y-111367919D01*
X155153709Y-111411083D01*
X155173827Y-111414660D01*
X155295000Y-111349982D01*
X155295000Y-110505000D01*
X155305000Y-110505000D01*
X155305000Y-111349982D01*
X155426173Y-111414660D01*
X155446291Y-111411083D01*
X155585220Y-111369916D01*
X156935647Y-111369916D01*
X156949314Y-111396474D01*
X156948864Y-111604402D01*
X156935647Y-111630084D01*
X156939396Y-111651169D01*
X156948694Y-111682525D01*
X156948548Y-111750000D01*
X156954340Y-111808810D01*
X156971495Y-111865361D01*
X156999352Y-111917478D01*
X157036841Y-111963159D01*
X157082522Y-112000648D01*
X157123842Y-112022734D01*
X157155780Y-112062150D01*
X157276387Y-112162398D01*
X157414234Y-112237190D01*
X157564024Y-112283653D01*
X157720000Y-112300000D01*
X157995000Y-112300000D01*
X157995000Y-110025000D01*
X157970000Y-110000000D01*
X157995000Y-109975000D01*
X157995000Y-109005000D01*
X158005000Y-109005000D01*
X158005000Y-109975000D01*
X158030000Y-110000000D01*
X158005000Y-110025000D01*
X158005000Y-112300000D01*
X158280000Y-112300000D01*
X158435976Y-112283653D01*
X158585766Y-112237190D01*
X158723613Y-112162398D01*
X158844220Y-112062150D01*
X158876158Y-112022734D01*
X158917478Y-112000648D01*
X158963159Y-111963159D01*
X159000648Y-111917478D01*
X159028505Y-111865361D01*
X159045660Y-111808810D01*
X159051452Y-111750000D01*
X159051306Y-111682525D01*
X159060604Y-111651169D01*
X159064353Y-111630084D01*
X159051136Y-111604402D01*
X159050686Y-111396474D01*
X159064353Y-111369916D01*
X159060604Y-111348831D01*
X159050509Y-111314787D01*
X159050000Y-111080000D01*
X158975000Y-111005000D01*
X158898630Y-111005000D01*
X158890527Y-110995000D01*
X158975000Y-110995000D01*
X159050000Y-110920000D01*
X159051452Y-110250000D01*
X159045660Y-110191190D01*
X159028505Y-110134639D01*
X159000648Y-110082522D01*
X158963159Y-110036841D01*
X158918268Y-110000000D01*
X158963159Y-109963159D01*
X159000648Y-109917478D01*
X159028505Y-109865361D01*
X159045660Y-109808810D01*
X159051452Y-109750000D01*
X159050000Y-109080000D01*
X158975000Y-109005000D01*
X158005000Y-109005000D01*
X157995000Y-109005000D01*
X157025000Y-109005000D01*
X156950000Y-109080000D01*
X156948548Y-109750000D01*
X156954340Y-109808810D01*
X156971495Y-109865361D01*
X156999352Y-109917478D01*
X157036841Y-109963159D01*
X157081732Y-110000000D01*
X157036841Y-110036841D01*
X156999352Y-110082522D01*
X156971495Y-110134639D01*
X156954340Y-110191190D01*
X156948548Y-110250000D01*
X156950000Y-110920000D01*
X157025000Y-110995000D01*
X157109473Y-110995000D01*
X157101370Y-111005000D01*
X157025000Y-111005000D01*
X156950000Y-111080000D01*
X156949491Y-111314787D01*
X156939396Y-111348831D01*
X156935647Y-111369916D01*
X155585220Y-111369916D01*
X155591960Y-111367919D01*
X155726409Y-111297166D01*
X155844472Y-111201543D01*
X155941611Y-111084724D01*
X156014093Y-110951199D01*
X156059133Y-110806099D01*
X156075000Y-110655000D01*
X156075000Y-110505000D01*
X155305000Y-110505000D01*
X155295000Y-110505000D01*
X155275000Y-110505000D01*
X155275000Y-110495000D01*
X155295000Y-110495000D01*
X155295000Y-110475000D01*
X155305000Y-110475000D01*
X155305000Y-110495000D01*
X156075000Y-110495000D01*
X156075000Y-110345000D01*
X156059133Y-110193901D01*
X156014093Y-110048801D01*
X155941611Y-109915276D01*
X155846962Y-109801451D01*
X155875000Y-109801451D01*
X155953319Y-109793737D01*
X156028629Y-109770892D01*
X156098034Y-109733794D01*
X156158869Y-109683869D01*
X156208794Y-109623034D01*
X156245892Y-109553629D01*
X156268737Y-109478319D01*
X156276451Y-109400000D01*
X156276451Y-109200000D01*
X156268737Y-109121681D01*
X156245892Y-109046371D01*
X156208794Y-108976966D01*
X156207181Y-108975000D01*
X156208794Y-108973034D01*
X156245892Y-108903629D01*
X156268737Y-108828319D01*
X156276451Y-108750000D01*
X156276451Y-108550000D01*
X156268737Y-108471681D01*
X156245892Y-108396371D01*
X156208794Y-108326966D01*
X156207181Y-108325000D01*
X156208794Y-108323034D01*
X156245892Y-108253629D01*
X156268737Y-108178319D01*
X156276451Y-108100000D01*
X156276451Y-107900000D01*
X156268737Y-107821681D01*
X156246993Y-107750000D01*
X156948548Y-107750000D01*
X156954340Y-107808810D01*
X156971495Y-107865361D01*
X156999352Y-107917478D01*
X157036841Y-107963159D01*
X157081732Y-108000000D01*
X157036841Y-108036841D01*
X156999352Y-108082522D01*
X156971495Y-108134639D01*
X156954340Y-108191190D01*
X156948548Y-108250000D01*
X156950000Y-108920000D01*
X157025000Y-108995000D01*
X157995000Y-108995000D01*
X157995000Y-108025000D01*
X157970000Y-108000000D01*
X157995000Y-107975000D01*
X157995000Y-107005000D01*
X158005000Y-107005000D01*
X158005000Y-107975000D01*
X158030000Y-108000000D01*
X158005000Y-108025000D01*
X158005000Y-108995000D01*
X158975000Y-108995000D01*
X159050000Y-108920000D01*
X159051452Y-108250000D01*
X159045660Y-108191190D01*
X159028505Y-108134639D01*
X159000648Y-108082522D01*
X158963159Y-108036841D01*
X158918268Y-108000000D01*
X158963159Y-107963159D01*
X159000648Y-107917478D01*
X159028505Y-107865361D01*
X159045660Y-107808810D01*
X159051452Y-107750000D01*
X159050000Y-107080000D01*
X158975000Y-107005000D01*
X158005000Y-107005000D01*
X157995000Y-107005000D01*
X157025000Y-107005000D01*
X156950000Y-107080000D01*
X156948548Y-107750000D01*
X156246993Y-107750000D01*
X156245892Y-107746371D01*
X156208794Y-107676966D01*
X156207181Y-107675000D01*
X156208794Y-107673034D01*
X156245892Y-107603629D01*
X156268737Y-107528319D01*
X156276451Y-107450000D01*
X156276451Y-107250000D01*
X156268737Y-107171681D01*
X156245892Y-107096371D01*
X156228048Y-107062988D01*
X156253505Y-107015361D01*
X156270660Y-106958810D01*
X156276452Y-106900000D01*
X156275000Y-106780000D01*
X156200000Y-106705000D01*
X155305000Y-106705000D01*
X155305000Y-106725000D01*
X155295000Y-106725000D01*
X155295000Y-106705000D01*
X154400000Y-106705000D01*
X154325000Y-106780000D01*
X154323548Y-106900000D01*
X154329340Y-106958810D01*
X154346495Y-107015361D01*
X154371952Y-107062988D01*
X154354108Y-107096371D01*
X154331263Y-107171681D01*
X154323549Y-107250000D01*
X154323549Y-107450000D01*
X154331263Y-107528319D01*
X154353007Y-107600000D01*
X154125686Y-107600000D01*
X154045857Y-107520171D01*
X154105806Y-107375443D01*
X154150000Y-107153265D01*
X154150000Y-106926735D01*
X154105806Y-106704557D01*
X154019294Y-106495701D01*
X154040905Y-106500000D01*
X154159095Y-106500000D01*
X154275014Y-106476942D01*
X154327980Y-106455003D01*
X154323548Y-106500000D01*
X154325000Y-106620000D01*
X154400000Y-106695000D01*
X155295000Y-106695000D01*
X155295000Y-105505000D01*
X155305000Y-105505000D01*
X155305000Y-106695000D01*
X156200000Y-106695000D01*
X156275000Y-106620000D01*
X156276452Y-106500000D01*
X156270660Y-106441190D01*
X156253505Y-106384639D01*
X156225648Y-106332522D01*
X156188159Y-106286841D01*
X156142478Y-106249352D01*
X156090361Y-106221495D01*
X156033810Y-106204340D01*
X155975000Y-106198548D01*
X155846702Y-106198861D01*
X155941611Y-106084724D01*
X156014093Y-105951199D01*
X156059133Y-105806099D01*
X156075000Y-105655000D01*
X156075000Y-105505000D01*
X155305000Y-105505000D01*
X155295000Y-105505000D01*
X155275000Y-105505000D01*
X155275000Y-105495000D01*
X155295000Y-105495000D01*
X155295000Y-105475000D01*
X155305000Y-105475000D01*
X155305000Y-105495000D01*
X156075000Y-105495000D01*
X156075000Y-105345000D01*
X156059133Y-105193901D01*
X156014093Y-105048801D01*
X155941611Y-104915276D01*
X155844472Y-104798457D01*
X155726409Y-104702834D01*
X155591960Y-104632081D01*
X155511436Y-104608220D01*
X155749740Y-104369916D01*
X156935647Y-104369916D01*
X156948864Y-104395598D01*
X156949314Y-104603526D01*
X156935647Y-104630084D01*
X156939396Y-104651169D01*
X156949491Y-104685213D01*
X156950000Y-104920000D01*
X157025000Y-104995000D01*
X157101370Y-104995000D01*
X157109473Y-105005000D01*
X157025000Y-105005000D01*
X156950000Y-105080000D01*
X156948548Y-105750000D01*
X156954340Y-105808810D01*
X156971495Y-105865361D01*
X156999352Y-105917478D01*
X157036841Y-105963159D01*
X157081732Y-106000000D01*
X157036841Y-106036841D01*
X156999352Y-106082522D01*
X156971495Y-106134639D01*
X156954340Y-106191190D01*
X156948548Y-106250000D01*
X156950000Y-106920000D01*
X157025000Y-106995000D01*
X157995000Y-106995000D01*
X157995000Y-106025000D01*
X157970000Y-106000000D01*
X157995000Y-105975000D01*
X157995000Y-104475000D01*
X158005000Y-104475000D01*
X158005000Y-105975000D01*
X158030000Y-106000000D01*
X158005000Y-106025000D01*
X158005000Y-106995000D01*
X158975000Y-106995000D01*
X159050000Y-106920000D01*
X159051452Y-106250000D01*
X159045660Y-106191190D01*
X159028505Y-106134639D01*
X159000648Y-106082522D01*
X158963159Y-106036841D01*
X158918268Y-106000000D01*
X158963159Y-105963159D01*
X159000648Y-105917478D01*
X159028505Y-105865361D01*
X159045660Y-105808810D01*
X159051452Y-105750000D01*
X159050000Y-105080000D01*
X158975000Y-105005000D01*
X158890527Y-105005000D01*
X158898630Y-104995000D01*
X158975000Y-104995000D01*
X159050000Y-104920000D01*
X159050509Y-104685213D01*
X159060604Y-104651169D01*
X159064353Y-104630084D01*
X159050686Y-104603526D01*
X159051136Y-104395598D01*
X159064353Y-104369916D01*
X159060604Y-104348831D01*
X159051306Y-104317475D01*
X159051452Y-104250000D01*
X159045660Y-104191190D01*
X159028505Y-104134639D01*
X159000648Y-104082522D01*
X158963159Y-104036841D01*
X158917478Y-103999352D01*
X158876158Y-103977266D01*
X158844220Y-103937850D01*
X158723613Y-103837602D01*
X158585766Y-103762810D01*
X158435976Y-103716347D01*
X158280000Y-103700000D01*
X157720000Y-103700000D01*
X157564024Y-103716347D01*
X157414234Y-103762810D01*
X157276387Y-103837602D01*
X157155780Y-103937850D01*
X157123842Y-103977266D01*
X157082522Y-103999352D01*
X157036841Y-104036841D01*
X156999352Y-104082522D01*
X156971495Y-104134639D01*
X156954340Y-104191190D01*
X156948548Y-104250000D01*
X156948694Y-104317475D01*
X156939396Y-104348831D01*
X156935647Y-104369916D01*
X155749740Y-104369916D01*
X156468948Y-103650708D01*
X156484211Y-103638182D01*
X156534197Y-103577274D01*
X156571340Y-103507785D01*
X156594212Y-103432385D01*
X156600000Y-103373618D01*
X156600000Y-103373608D01*
X156601934Y-103353972D01*
X156600000Y-103334336D01*
X156600000Y-101301451D01*
X156700000Y-101301451D01*
X156758810Y-101295659D01*
X156815360Y-101278504D01*
X156867477Y-101250647D01*
X156913158Y-101213158D01*
X156950647Y-101167477D01*
X156978504Y-101115360D01*
X156995659Y-101058810D01*
X157001451Y-101000000D01*
X157001451Y-100000000D01*
X156995659Y-99941190D01*
X156978504Y-99884640D01*
X156950647Y-99832523D01*
X156913158Y-99786842D01*
X156867477Y-99749353D01*
X156815360Y-99721496D01*
X156758810Y-99704341D01*
X156700000Y-99698549D01*
X155700000Y-99698549D01*
X155641190Y-99704341D01*
X155584640Y-99721496D01*
X155532523Y-99749353D01*
X155500000Y-99776044D01*
X155467477Y-99749353D01*
X155415360Y-99721496D01*
X155358810Y-99704341D01*
X155300000Y-99698549D01*
X154300000Y-99698549D01*
X154241190Y-99704341D01*
X154184640Y-99721496D01*
X154132523Y-99749353D01*
X154086842Y-99786842D01*
X154049353Y-99832523D01*
X154021496Y-99884640D01*
X154004341Y-99941190D01*
X153998549Y-100000000D01*
X153998549Y-101000000D01*
X154004341Y-101058810D01*
X154021496Y-101115360D01*
X154049353Y-101167477D01*
X154086842Y-101213158D01*
X154132523Y-101250647D01*
X154184640Y-101278504D01*
X154241190Y-101295659D01*
X154300000Y-101301451D01*
X155300000Y-101301451D01*
X155358810Y-101295659D01*
X155415360Y-101278504D01*
X155467477Y-101250647D01*
X155500000Y-101223956D01*
X155532523Y-101250647D01*
X155584640Y-101278504D01*
X155641190Y-101295659D01*
X155700000Y-101301451D01*
X155800001Y-101301451D01*
X155800001Y-101780344D01*
X155800000Y-101780354D01*
X155800001Y-103188285D01*
X154150486Y-104837800D01*
X154150000Y-104580000D01*
X154075000Y-104505000D01*
X153005000Y-104505000D01*
X153005000Y-105575000D01*
X153080000Y-105650000D01*
X153553748Y-105650893D01*
X153523058Y-105724986D01*
X153500000Y-105840905D01*
X153500000Y-105959095D01*
X153509378Y-106006241D01*
X153335443Y-105934194D01*
X153113265Y-105890000D01*
X152886735Y-105890000D01*
X152664557Y-105934194D01*
X152519829Y-105994143D01*
X152177086Y-105651401D01*
X152920000Y-105650000D01*
X152995000Y-105575000D01*
X152995000Y-104505000D01*
X151925000Y-104505000D01*
X151850000Y-104580000D01*
X151848553Y-105347229D01*
X151813814Y-105328660D01*
X151738414Y-105305788D01*
X151679647Y-105300000D01*
X151679646Y-105300000D01*
X151660000Y-105298065D01*
X151640354Y-105300000D01*
X151354479Y-105300000D01*
X151341191Y-105283809D01*
X151284145Y-105236992D01*
X151219062Y-105202205D01*
X151148442Y-105180782D01*
X151075000Y-105173549D01*
X150996453Y-105173549D01*
X151023303Y-105159197D01*
X151084211Y-105109211D01*
X151096738Y-105093947D01*
X151268944Y-104921740D01*
X151284211Y-104909211D01*
X151334197Y-104848303D01*
X151371340Y-104778814D01*
X151394212Y-104703414D01*
X151400000Y-104644647D01*
X151400000Y-104644646D01*
X151400958Y-104634916D01*
X151422795Y-104594062D01*
X151444218Y-104523442D01*
X151451451Y-104450000D01*
X151451451Y-104150000D01*
X151444218Y-104076558D01*
X151422795Y-104005938D01*
X151388008Y-103940855D01*
X151341191Y-103883809D01*
X151284145Y-103836992D01*
X151219062Y-103802205D01*
X151148442Y-103780782D01*
X151075000Y-103773549D01*
X150925000Y-103773549D01*
X150851558Y-103780782D01*
X150780938Y-103802205D01*
X150778491Y-103803513D01*
X150765361Y-103796495D01*
X150708810Y-103779340D01*
X150650000Y-103773548D01*
X150580000Y-103775000D01*
X150505000Y-103850000D01*
X150505000Y-104295000D01*
X150525000Y-104295000D01*
X150525000Y-104305000D01*
X150505000Y-104305000D01*
X150505000Y-104325000D01*
X150495000Y-104325000D01*
X150495000Y-104305000D01*
X150475000Y-104305000D01*
X150475000Y-104295000D01*
X150495000Y-104295000D01*
X150495000Y-103850000D01*
X150420000Y-103775000D01*
X150350000Y-103773548D01*
X150291190Y-103779340D01*
X150234639Y-103796495D01*
X150221509Y-103803513D01*
X150219062Y-103802205D01*
X150148442Y-103780782D01*
X150075000Y-103773549D01*
X149925000Y-103773549D01*
X149902457Y-103775769D01*
X149894647Y-103775000D01*
X149894646Y-103775000D01*
X149875000Y-103773065D01*
X149855354Y-103775000D01*
X149131259Y-103775000D01*
X149147795Y-103744062D01*
X149169218Y-103673442D01*
X149171526Y-103650000D01*
X151848548Y-103650000D01*
X151850000Y-104420000D01*
X151925000Y-104495000D01*
X152995000Y-104495000D01*
X152995000Y-103425000D01*
X153005000Y-103425000D01*
X153005000Y-104495000D01*
X154075000Y-104495000D01*
X154150000Y-104420000D01*
X154151452Y-103650000D01*
X154145660Y-103591190D01*
X154128505Y-103534639D01*
X154100648Y-103482522D01*
X154063159Y-103436841D01*
X154017478Y-103399352D01*
X153965361Y-103371495D01*
X153908810Y-103354340D01*
X153850000Y-103348548D01*
X153080000Y-103350000D01*
X153005000Y-103425000D01*
X152995000Y-103425000D01*
X152920000Y-103350000D01*
X152150000Y-103348548D01*
X152091190Y-103354340D01*
X152034639Y-103371495D01*
X151982522Y-103399352D01*
X151936841Y-103436841D01*
X151899352Y-103482522D01*
X151871495Y-103534639D01*
X151854340Y-103591190D01*
X151848548Y-103650000D01*
X149171526Y-103650000D01*
X149176451Y-103600000D01*
X149176451Y-103450000D01*
X149169218Y-103376558D01*
X149147795Y-103305938D01*
X149113008Y-103240855D01*
X149066191Y-103183809D01*
X149009145Y-103136992D01*
X148944062Y-103102205D01*
X148896035Y-103087636D01*
X148893489Y-103061785D01*
X148867757Y-102976959D01*
X148838028Y-102921340D01*
X148825971Y-102898783D01*
X148783828Y-102847432D01*
X148783824Y-102847428D01*
X148769737Y-102830263D01*
X148752573Y-102816177D01*
X148536396Y-102600000D01*
X148559095Y-102600000D01*
X148675014Y-102576942D01*
X148784207Y-102531713D01*
X148882478Y-102466050D01*
X148966050Y-102382478D01*
X149031713Y-102284207D01*
X149076942Y-102175014D01*
X149100000Y-102059095D01*
X149100000Y-101940905D01*
X149076942Y-101824986D01*
X149031713Y-101715793D01*
X148966050Y-101617522D01*
X148895045Y-101546517D01*
X148921155Y-101514702D01*
X148965183Y-101432330D01*
X148992296Y-101342951D01*
X148999188Y-101272978D01*
X148998548Y-101425000D01*
X149004340Y-101483810D01*
X149021495Y-101540361D01*
X149049352Y-101592478D01*
X149086841Y-101638159D01*
X149132522Y-101675648D01*
X149184639Y-101703505D01*
X149241190Y-101720660D01*
X149300000Y-101726452D01*
X149570000Y-101725000D01*
X149645000Y-101650000D01*
X149645000Y-101005000D01*
X149655000Y-101005000D01*
X149655000Y-101650000D01*
X149730000Y-101725000D01*
X150000000Y-101726452D01*
X150058810Y-101720660D01*
X150115361Y-101703505D01*
X150167478Y-101675648D01*
X150213159Y-101638159D01*
X150250648Y-101592478D01*
X150278505Y-101540361D01*
X150295660Y-101483810D01*
X150301452Y-101425000D01*
X150300000Y-101080000D01*
X150225000Y-101005000D01*
X149655000Y-101005000D01*
X149645000Y-101005000D01*
X149625000Y-101005000D01*
X149625000Y-100995000D01*
X149645000Y-100995000D01*
X149645000Y-100350000D01*
X149655000Y-100350000D01*
X149655000Y-100995000D01*
X150225000Y-100995000D01*
X150300000Y-100920000D01*
X150301452Y-100575000D01*
X150295660Y-100516190D01*
X150278505Y-100459639D01*
X150250648Y-100407522D01*
X150213159Y-100361841D01*
X150167478Y-100324352D01*
X150115361Y-100296495D01*
X150058810Y-100279340D01*
X150000000Y-100273548D01*
X149730000Y-100275000D01*
X149655000Y-100350000D01*
X149645000Y-100350000D01*
X149570000Y-100275000D01*
X149535603Y-100274815D01*
X149543046Y-100256847D01*
X149557011Y-100230720D01*
X149565610Y-100202371D01*
X149576942Y-100175014D01*
X149582720Y-100145968D01*
X149590915Y-100118951D01*
X149591319Y-100117620D01*
X149594222Y-100088141D01*
X149600000Y-100059095D01*
X149600000Y-100029482D01*
X149600001Y-100029472D01*
X149600001Y-100029466D01*
X149602903Y-100000000D01*
X149600001Y-99970534D01*
X149600001Y-99629475D01*
X149602904Y-99600001D01*
X149591319Y-99482380D01*
X149557011Y-99369280D01*
X149554779Y-99365105D01*
X149501297Y-99265046D01*
X149426318Y-99173684D01*
X149403421Y-99154893D01*
X148073527Y-97825000D01*
X158865382Y-97825000D01*
X159175000Y-98134619D01*
G36*
X149715855Y-105236992D02*
G01*
X149658809Y-105283809D01*
X149611992Y-105340855D01*
X149577205Y-105405938D01*
X149555782Y-105476558D01*
X149548549Y-105550000D01*
X149548549Y-105850000D01*
X149555782Y-105923442D01*
X149577205Y-105994062D01*
X149599042Y-106034916D01*
X149600000Y-106044646D01*
X149600000Y-106044647D01*
X149605788Y-106103414D01*
X149619551Y-106148784D01*
X149628661Y-106178814D01*
X149665803Y-106248302D01*
X149703265Y-106293950D01*
X149703268Y-106293953D01*
X149715790Y-106309211D01*
X149731048Y-106321733D01*
X151750001Y-108340686D01*
X151750002Y-108710345D01*
X151748066Y-108730001D01*
X151755789Y-108808414D01*
X151778662Y-108883815D01*
X151815804Y-108953303D01*
X151853266Y-108998951D01*
X151853269Y-108998954D01*
X151865791Y-109014212D01*
X151881048Y-109026734D01*
X151954143Y-109099828D01*
X151894194Y-109244557D01*
X151850000Y-109466735D01*
X151850000Y-109693265D01*
X151894194Y-109915443D01*
X151980884Y-110124729D01*
X152106737Y-110313082D01*
X152266918Y-110473263D01*
X152455271Y-110599116D01*
X152664557Y-110685806D01*
X152886735Y-110730000D01*
X153113265Y-110730000D01*
X153335443Y-110685806D01*
X153544729Y-110599116D01*
X153733082Y-110473263D01*
X153750001Y-110456344D01*
X153750001Y-110662892D01*
X153380172Y-111032722D01*
X153335443Y-111014194D01*
X153113265Y-110970000D01*
X152886735Y-110970000D01*
X152664557Y-111014194D01*
X152455271Y-111100884D01*
X152266918Y-111226737D01*
X152106737Y-111386918D01*
X151980884Y-111575271D01*
X151894194Y-111784557D01*
X151850000Y-112006735D01*
X151850000Y-112233265D01*
X151894194Y-112455443D01*
X151980884Y-112664729D01*
X152106737Y-112853082D01*
X152266918Y-113013263D01*
X152455271Y-113139116D01*
X152541902Y-113175000D01*
X142943950Y-113175000D01*
X142965361Y-113168505D01*
X143017478Y-113140648D01*
X143063159Y-113103159D01*
X143100648Y-113057478D01*
X143128505Y-113005361D01*
X143145660Y-112948810D01*
X143151452Y-112890000D01*
X143150000Y-112120000D01*
X143075000Y-112045000D01*
X142005000Y-112045000D01*
X142005000Y-112065000D01*
X141995000Y-112065000D01*
X141995000Y-112045000D01*
X141975000Y-112045000D01*
X141975000Y-112035000D01*
X141995000Y-112035000D01*
X141995000Y-110965000D01*
X141920000Y-110890000D01*
X141325000Y-110888878D01*
X141325000Y-110432072D01*
X141455271Y-110519116D01*
X141664557Y-110605806D01*
X141886735Y-110650000D01*
X142113265Y-110650000D01*
X142335443Y-110605806D01*
X142480172Y-110545857D01*
X142822914Y-110888599D01*
X142080000Y-110890000D01*
X142005000Y-110965000D01*
X142005000Y-112035000D01*
X143075000Y-112035000D01*
X143150000Y-111960000D01*
X143151452Y-111190000D01*
X143145660Y-111131190D01*
X143128505Y-111074639D01*
X143114501Y-111048439D01*
X143150000Y-111051935D01*
X143169647Y-111050000D01*
X143332624Y-111050000D01*
X143353845Y-111089702D01*
X143413098Y-111161902D01*
X143485298Y-111221155D01*
X143567670Y-111265183D01*
X143657049Y-111292296D01*
X143750000Y-111301451D01*
X144250000Y-111301451D01*
X144342951Y-111292296D01*
X144432330Y-111265183D01*
X144514702Y-111221155D01*
X144586902Y-111161902D01*
X144646155Y-111089702D01*
X144690183Y-111007330D01*
X144717296Y-110917951D01*
X144723988Y-110850000D01*
X144923548Y-110850000D01*
X144929340Y-110908810D01*
X144946495Y-110965361D01*
X144974352Y-111017478D01*
X145011841Y-111063159D01*
X145057522Y-111100648D01*
X145109639Y-111128505D01*
X145166190Y-111145660D01*
X145225000Y-111151452D01*
X145470000Y-111150000D01*
X145545000Y-111075000D01*
X145545000Y-110655000D01*
X145000000Y-110655000D01*
X144925000Y-110730000D01*
X144923548Y-110850000D01*
X144723988Y-110850000D01*
X144726451Y-110825000D01*
X144726451Y-110475000D01*
X144717296Y-110382049D01*
X144690183Y-110292670D01*
X144646155Y-110210298D01*
X144586902Y-110138098D01*
X144514702Y-110078845D01*
X144432330Y-110034817D01*
X144342951Y-110007704D01*
X144264732Y-110000000D01*
X144342951Y-109992296D01*
X144432330Y-109965183D01*
X144514702Y-109921155D01*
X144586902Y-109861902D01*
X144646155Y-109789702D01*
X144667376Y-109750000D01*
X144928473Y-109750000D01*
X144923549Y-109800000D01*
X144923549Y-110200000D01*
X144929341Y-110258810D01*
X144946496Y-110315360D01*
X144951648Y-110324999D01*
X144946495Y-110334639D01*
X144929340Y-110391190D01*
X144923548Y-110450000D01*
X144925000Y-110570000D01*
X145000000Y-110645000D01*
X145545000Y-110645000D01*
X145545000Y-110625000D01*
X145555000Y-110625000D01*
X145555000Y-110645000D01*
X145575000Y-110645000D01*
X145575000Y-110655000D01*
X145555000Y-110655000D01*
X145555000Y-111075000D01*
X145630000Y-111150000D01*
X145875000Y-111151452D01*
X145933810Y-111145660D01*
X145990361Y-111128505D01*
X146042478Y-111100648D01*
X146088159Y-111063159D01*
X146125648Y-111017478D01*
X146153505Y-110965361D01*
X146156454Y-110955640D01*
X146168287Y-110984207D01*
X146233950Y-111082478D01*
X146317522Y-111166050D01*
X146415793Y-111231713D01*
X146524986Y-111276942D01*
X146640905Y-111300000D01*
X146759095Y-111300000D01*
X146875014Y-111276942D01*
X146984207Y-111231713D01*
X147082478Y-111166050D01*
X147099580Y-111148948D01*
X147125000Y-111151451D01*
X147775000Y-111151451D01*
X147833810Y-111145659D01*
X147890360Y-111128504D01*
X147942477Y-111100647D01*
X147988158Y-111063158D01*
X148025647Y-111017477D01*
X148053504Y-110965360D01*
X148070659Y-110908810D01*
X148076451Y-110850000D01*
X148076451Y-110450000D01*
X148071527Y-110400000D01*
X148184315Y-110400000D01*
X148273549Y-110489234D01*
X148273549Y-110825000D01*
X148282704Y-110917951D01*
X148309817Y-111007330D01*
X148353845Y-111089702D01*
X148413098Y-111161902D01*
X148471998Y-111210240D01*
X148468287Y-111215793D01*
X148423058Y-111324986D01*
X148400000Y-111440905D01*
X148400000Y-111559095D01*
X148423058Y-111675014D01*
X148468287Y-111784207D01*
X148533950Y-111882478D01*
X148617522Y-111966050D01*
X148715793Y-112031713D01*
X148824986Y-112076942D01*
X148940905Y-112100000D01*
X149059095Y-112100000D01*
X149175014Y-112076942D01*
X149284207Y-112031713D01*
X149382478Y-111966050D01*
X149466050Y-111882478D01*
X149531713Y-111784207D01*
X149576942Y-111675014D01*
X149600000Y-111559095D01*
X149600000Y-111440905D01*
X149576942Y-111324986D01*
X149531713Y-111215793D01*
X149528002Y-111210240D01*
X149586902Y-111161902D01*
X149646155Y-111089702D01*
X149690183Y-111007330D01*
X149717296Y-110917951D01*
X149726451Y-110825000D01*
X149726451Y-110475000D01*
X149717296Y-110382049D01*
X149690183Y-110292670D01*
X149646155Y-110210298D01*
X149586902Y-110138098D01*
X149514702Y-110078845D01*
X149432330Y-110034817D01*
X149342951Y-110007704D01*
X149272978Y-110000812D01*
X149425000Y-110001452D01*
X149483810Y-109995660D01*
X149540361Y-109978505D01*
X149592478Y-109950648D01*
X149638159Y-109913159D01*
X149675648Y-109867478D01*
X149703505Y-109815361D01*
X149720660Y-109758810D01*
X149726452Y-109700000D01*
X149725000Y-109430000D01*
X149650000Y-109355000D01*
X149005000Y-109355000D01*
X149005000Y-109375000D01*
X148995000Y-109375000D01*
X148995000Y-109355000D01*
X148350000Y-109355000D01*
X148275000Y-109430000D01*
X148274086Y-109600000D01*
X148071527Y-109600000D01*
X148076451Y-109550000D01*
X148076451Y-109150000D01*
X148070659Y-109091190D01*
X148053504Y-109034640D01*
X148025647Y-108982523D01*
X147988158Y-108936842D01*
X147983042Y-108932643D01*
X148189235Y-108726451D01*
X148450367Y-108726451D01*
X148407522Y-108749352D01*
X148361841Y-108786841D01*
X148324352Y-108832522D01*
X148296495Y-108884639D01*
X148279340Y-108941190D01*
X148273548Y-109000000D01*
X148275000Y-109270000D01*
X148350000Y-109345000D01*
X148995000Y-109345000D01*
X148995000Y-108775000D01*
X148920000Y-108700000D01*
X148678321Y-108698983D01*
X148707330Y-108690183D01*
X148789702Y-108646155D01*
X148861902Y-108586902D01*
X148921155Y-108514702D01*
X148965183Y-108432330D01*
X148992296Y-108342951D01*
X148999188Y-108272978D01*
X148998548Y-108425000D01*
X149004340Y-108483810D01*
X149021495Y-108540361D01*
X149049352Y-108592478D01*
X149086841Y-108638159D01*
X149132522Y-108675648D01*
X149177315Y-108699590D01*
X149080000Y-108700000D01*
X149005000Y-108775000D01*
X149005000Y-109345000D01*
X149650000Y-109345000D01*
X149725000Y-109270000D01*
X149726452Y-109000000D01*
X149720660Y-108941190D01*
X149703505Y-108884639D01*
X149675648Y-108832522D01*
X149638159Y-108786841D01*
X149592478Y-108749352D01*
X149547148Y-108725123D01*
X149570000Y-108725000D01*
X149645000Y-108650000D01*
X149645000Y-108005000D01*
X149655000Y-108005000D01*
X149655000Y-108650000D01*
X149730000Y-108725000D01*
X150000000Y-108726452D01*
X150058810Y-108720660D01*
X150115361Y-108703505D01*
X150167478Y-108675648D01*
X150213159Y-108638159D01*
X150250648Y-108592478D01*
X150278505Y-108540361D01*
X150295660Y-108483810D01*
X150301452Y-108425000D01*
X150300000Y-108080000D01*
X150225000Y-108005000D01*
X149655000Y-108005000D01*
X149645000Y-108005000D01*
X149625000Y-108005000D01*
X149625000Y-107995000D01*
X149645000Y-107995000D01*
X149645000Y-107350000D01*
X149655000Y-107350000D01*
X149655000Y-107995000D01*
X150225000Y-107995000D01*
X150300000Y-107920000D01*
X150301452Y-107575000D01*
X150295660Y-107516190D01*
X150278505Y-107459639D01*
X150250648Y-107407522D01*
X150213159Y-107361841D01*
X150167478Y-107324352D01*
X150115361Y-107296495D01*
X150058810Y-107279340D01*
X150000000Y-107273548D01*
X149730000Y-107275000D01*
X149655000Y-107350000D01*
X149645000Y-107350000D01*
X149570000Y-107275000D01*
X149300000Y-107273548D01*
X149297068Y-107273837D01*
X149300000Y-107259095D01*
X149300000Y-107140905D01*
X149276942Y-107024986D01*
X149231713Y-106915793D01*
X149166050Y-106817522D01*
X149082478Y-106733950D01*
X148984207Y-106668287D01*
X148875014Y-106623058D01*
X148759095Y-106600000D01*
X148640905Y-106600000D01*
X148524986Y-106623058D01*
X148415793Y-106668287D01*
X148317522Y-106733950D01*
X148233950Y-106817522D01*
X148168287Y-106915793D01*
X148123058Y-107024986D01*
X148100000Y-107140905D01*
X148100000Y-107259095D01*
X148104261Y-107280516D01*
X148082049Y-107282704D01*
X147992670Y-107309817D01*
X147910298Y-107353845D01*
X147838098Y-107413098D01*
X147778845Y-107485298D01*
X147750000Y-107539264D01*
X147721155Y-107485298D01*
X147661902Y-107413098D01*
X147589702Y-107353845D01*
X147507330Y-107309817D01*
X147417951Y-107282704D01*
X147325000Y-107273549D01*
X146975000Y-107273549D01*
X146882049Y-107282704D01*
X146792670Y-107309817D01*
X146710298Y-107353845D01*
X146638098Y-107413098D01*
X146578845Y-107485298D01*
X146534817Y-107567670D01*
X146507704Y-107657049D01*
X146500000Y-107735268D01*
X146492296Y-107657049D01*
X146465183Y-107567670D01*
X146421155Y-107485298D01*
X146361902Y-107413098D01*
X146329324Y-107386362D01*
X146443953Y-107271733D01*
X146459211Y-107259211D01*
X146509197Y-107198303D01*
X146511597Y-107193813D01*
X146539031Y-107142490D01*
X146559639Y-107153505D01*
X146616190Y-107170660D01*
X146675000Y-107176452D01*
X146745000Y-107175000D01*
X146820000Y-107100000D01*
X146820000Y-106455000D01*
X146800000Y-106455000D01*
X146800000Y-106445000D01*
X146820000Y-106445000D01*
X146820000Y-106425000D01*
X146830000Y-106425000D01*
X146830000Y-106445000D01*
X146850000Y-106445000D01*
X146850000Y-106455000D01*
X146830000Y-106455000D01*
X146830000Y-107100000D01*
X146905000Y-107175000D01*
X146975000Y-107176452D01*
X147033810Y-107170660D01*
X147090361Y-107153505D01*
X147142478Y-107125648D01*
X147174368Y-107099477D01*
X147190855Y-107113008D01*
X147255938Y-107147795D01*
X147326558Y-107169218D01*
X147400000Y-107176451D01*
X147550000Y-107176451D01*
X147623442Y-107169218D01*
X147694062Y-107147795D01*
X147759145Y-107113008D01*
X147816191Y-107066191D01*
X147863008Y-107009145D01*
X147897795Y-106944062D01*
X147919218Y-106873442D01*
X147926451Y-106800000D01*
X147926451Y-106100000D01*
X147919218Y-106026558D01*
X147897795Y-105955938D01*
X147863008Y-105890855D01*
X147816191Y-105833809D01*
X147759145Y-105786992D01*
X147743989Y-105778891D01*
X147763159Y-105763159D01*
X147778891Y-105743989D01*
X147786992Y-105759145D01*
X147833809Y-105816191D01*
X147890855Y-105863008D01*
X147955938Y-105897795D01*
X148026558Y-105919218D01*
X148100000Y-105926451D01*
X148800000Y-105926451D01*
X148873442Y-105919218D01*
X148944062Y-105897795D01*
X149009145Y-105863008D01*
X149066191Y-105816191D01*
X149113008Y-105759145D01*
X149147795Y-105694062D01*
X149169218Y-105623442D01*
X149176451Y-105550000D01*
X149176451Y-105400000D01*
X149169218Y-105326558D01*
X149147795Y-105255938D01*
X149131259Y-105225000D01*
X149738291Y-105225000D01*
X149715855Y-105236992D01*
X149715855Y-105236992D01*
G37*
X149715855Y-105236992D02*
X149658809Y-105283809D01*
X149611992Y-105340855D01*
X149577205Y-105405938D01*
X149555782Y-105476558D01*
X149548549Y-105550000D01*
X149548549Y-105850000D01*
X149555782Y-105923442D01*
X149577205Y-105994062D01*
X149599042Y-106034916D01*
X149600000Y-106044646D01*
X149600000Y-106044647D01*
X149605788Y-106103414D01*
X149619551Y-106148784D01*
X149628661Y-106178814D01*
X149665803Y-106248302D01*
X149703265Y-106293950D01*
X149703268Y-106293953D01*
X149715790Y-106309211D01*
X149731048Y-106321733D01*
X151750001Y-108340686D01*
X151750002Y-108710345D01*
X151748066Y-108730001D01*
X151755789Y-108808414D01*
X151778662Y-108883815D01*
X151815804Y-108953303D01*
X151853266Y-108998951D01*
X151853269Y-108998954D01*
X151865791Y-109014212D01*
X151881048Y-109026734D01*
X151954143Y-109099828D01*
X151894194Y-109244557D01*
X151850000Y-109466735D01*
X151850000Y-109693265D01*
X151894194Y-109915443D01*
X151980884Y-110124729D01*
X152106737Y-110313082D01*
X152266918Y-110473263D01*
X152455271Y-110599116D01*
X152664557Y-110685806D01*
X152886735Y-110730000D01*
X153113265Y-110730000D01*
X153335443Y-110685806D01*
X153544729Y-110599116D01*
X153733082Y-110473263D01*
X153750001Y-110456344D01*
X153750001Y-110662892D01*
X153380172Y-111032722D01*
X153335443Y-111014194D01*
X153113265Y-110970000D01*
X152886735Y-110970000D01*
X152664557Y-111014194D01*
X152455271Y-111100884D01*
X152266918Y-111226737D01*
X152106737Y-111386918D01*
X151980884Y-111575271D01*
X151894194Y-111784557D01*
X151850000Y-112006735D01*
X151850000Y-112233265D01*
X151894194Y-112455443D01*
X151980884Y-112664729D01*
X152106737Y-112853082D01*
X152266918Y-113013263D01*
X152455271Y-113139116D01*
X152541902Y-113175000D01*
X142943950Y-113175000D01*
X142965361Y-113168505D01*
X143017478Y-113140648D01*
X143063159Y-113103159D01*
X143100648Y-113057478D01*
X143128505Y-113005361D01*
X143145660Y-112948810D01*
X143151452Y-112890000D01*
X143150000Y-112120000D01*
X143075000Y-112045000D01*
X142005000Y-112045000D01*
X142005000Y-112065000D01*
X141995000Y-112065000D01*
X141995000Y-112045000D01*
X141975000Y-112045000D01*
X141975000Y-112035000D01*
X141995000Y-112035000D01*
X141995000Y-110965000D01*
X141920000Y-110890000D01*
X141325000Y-110888878D01*
X141325000Y-110432072D01*
X141455271Y-110519116D01*
X141664557Y-110605806D01*
X141886735Y-110650000D01*
X142113265Y-110650000D01*
X142335443Y-110605806D01*
X142480172Y-110545857D01*
X142822914Y-110888599D01*
X142080000Y-110890000D01*
X142005000Y-110965000D01*
X142005000Y-112035000D01*
X143075000Y-112035000D01*
X143150000Y-111960000D01*
X143151452Y-111190000D01*
X143145660Y-111131190D01*
X143128505Y-111074639D01*
X143114501Y-111048439D01*
X143150000Y-111051935D01*
X143169647Y-111050000D01*
X143332624Y-111050000D01*
X143353845Y-111089702D01*
X143413098Y-111161902D01*
X143485298Y-111221155D01*
X143567670Y-111265183D01*
X143657049Y-111292296D01*
X143750000Y-111301451D01*
X144250000Y-111301451D01*
X144342951Y-111292296D01*
X144432330Y-111265183D01*
X144514702Y-111221155D01*
X144586902Y-111161902D01*
X144646155Y-111089702D01*
X144690183Y-111007330D01*
X144717296Y-110917951D01*
X144723988Y-110850000D01*
X144923548Y-110850000D01*
X144929340Y-110908810D01*
X144946495Y-110965361D01*
X144974352Y-111017478D01*
X145011841Y-111063159D01*
X145057522Y-111100648D01*
X145109639Y-111128505D01*
X145166190Y-111145660D01*
X145225000Y-111151452D01*
X145470000Y-111150000D01*
X145545000Y-111075000D01*
X145545000Y-110655000D01*
X145000000Y-110655000D01*
X144925000Y-110730000D01*
X144923548Y-110850000D01*
X144723988Y-110850000D01*
X144726451Y-110825000D01*
X144726451Y-110475000D01*
X144717296Y-110382049D01*
X144690183Y-110292670D01*
X144646155Y-110210298D01*
X144586902Y-110138098D01*
X144514702Y-110078845D01*
X144432330Y-110034817D01*
X144342951Y-110007704D01*
X144264732Y-110000000D01*
X144342951Y-109992296D01*
X144432330Y-109965183D01*
X144514702Y-109921155D01*
X144586902Y-109861902D01*
X144646155Y-109789702D01*
X144667376Y-109750000D01*
X144928473Y-109750000D01*
X144923549Y-109800000D01*
X144923549Y-110200000D01*
X144929341Y-110258810D01*
X144946496Y-110315360D01*
X144951648Y-110324999D01*
X144946495Y-110334639D01*
X144929340Y-110391190D01*
X144923548Y-110450000D01*
X144925000Y-110570000D01*
X145000000Y-110645000D01*
X145545000Y-110645000D01*
X145545000Y-110625000D01*
X145555000Y-110625000D01*
X145555000Y-110645000D01*
X145575000Y-110645000D01*
X145575000Y-110655000D01*
X145555000Y-110655000D01*
X145555000Y-111075000D01*
X145630000Y-111150000D01*
X145875000Y-111151452D01*
X145933810Y-111145660D01*
X145990361Y-111128505D01*
X146042478Y-111100648D01*
X146088159Y-111063159D01*
X146125648Y-111017478D01*
X146153505Y-110965361D01*
X146156454Y-110955640D01*
X146168287Y-110984207D01*
X146233950Y-111082478D01*
X146317522Y-111166050D01*
X146415793Y-111231713D01*
X146524986Y-111276942D01*
X146640905Y-111300000D01*
X146759095Y-111300000D01*
X146875014Y-111276942D01*
X146984207Y-111231713D01*
X147082478Y-111166050D01*
X147099580Y-111148948D01*
X147125000Y-111151451D01*
X147775000Y-111151451D01*
X147833810Y-111145659D01*
X147890360Y-111128504D01*
X147942477Y-111100647D01*
X147988158Y-111063158D01*
X148025647Y-111017477D01*
X148053504Y-110965360D01*
X148070659Y-110908810D01*
X148076451Y-110850000D01*
X148076451Y-110450000D01*
X148071527Y-110400000D01*
X148184315Y-110400000D01*
X148273549Y-110489234D01*
X148273549Y-110825000D01*
X148282704Y-110917951D01*
X148309817Y-111007330D01*
X148353845Y-111089702D01*
X148413098Y-111161902D01*
X148471998Y-111210240D01*
X148468287Y-111215793D01*
X148423058Y-111324986D01*
X148400000Y-111440905D01*
X148400000Y-111559095D01*
X148423058Y-111675014D01*
X148468287Y-111784207D01*
X148533950Y-111882478D01*
X148617522Y-111966050D01*
X148715793Y-112031713D01*
X148824986Y-112076942D01*
X148940905Y-112100000D01*
X149059095Y-112100000D01*
X149175014Y-112076942D01*
X149284207Y-112031713D01*
X149382478Y-111966050D01*
X149466050Y-111882478D01*
X149531713Y-111784207D01*
X149576942Y-111675014D01*
X149600000Y-111559095D01*
X149600000Y-111440905D01*
X149576942Y-111324986D01*
X149531713Y-111215793D01*
X149528002Y-111210240D01*
X149586902Y-111161902D01*
X149646155Y-111089702D01*
X149690183Y-111007330D01*
X149717296Y-110917951D01*
X149726451Y-110825000D01*
X149726451Y-110475000D01*
X149717296Y-110382049D01*
X149690183Y-110292670D01*
X149646155Y-110210298D01*
X149586902Y-110138098D01*
X149514702Y-110078845D01*
X149432330Y-110034817D01*
X149342951Y-110007704D01*
X149272978Y-110000812D01*
X149425000Y-110001452D01*
X149483810Y-109995660D01*
X149540361Y-109978505D01*
X149592478Y-109950648D01*
X149638159Y-109913159D01*
X149675648Y-109867478D01*
X149703505Y-109815361D01*
X149720660Y-109758810D01*
X149726452Y-109700000D01*
X149725000Y-109430000D01*
X149650000Y-109355000D01*
X149005000Y-109355000D01*
X149005000Y-109375000D01*
X148995000Y-109375000D01*
X148995000Y-109355000D01*
X148350000Y-109355000D01*
X148275000Y-109430000D01*
X148274086Y-109600000D01*
X148071527Y-109600000D01*
X148076451Y-109550000D01*
X148076451Y-109150000D01*
X148070659Y-109091190D01*
X148053504Y-109034640D01*
X148025647Y-108982523D01*
X147988158Y-108936842D01*
X147983042Y-108932643D01*
X148189235Y-108726451D01*
X148450367Y-108726451D01*
X148407522Y-108749352D01*
X148361841Y-108786841D01*
X148324352Y-108832522D01*
X148296495Y-108884639D01*
X148279340Y-108941190D01*
X148273548Y-109000000D01*
X148275000Y-109270000D01*
X148350000Y-109345000D01*
X148995000Y-109345000D01*
X148995000Y-108775000D01*
X148920000Y-108700000D01*
X148678321Y-108698983D01*
X148707330Y-108690183D01*
X148789702Y-108646155D01*
X148861902Y-108586902D01*
X148921155Y-108514702D01*
X148965183Y-108432330D01*
X148992296Y-108342951D01*
X148999188Y-108272978D01*
X148998548Y-108425000D01*
X149004340Y-108483810D01*
X149021495Y-108540361D01*
X149049352Y-108592478D01*
X149086841Y-108638159D01*
X149132522Y-108675648D01*
X149177315Y-108699590D01*
X149080000Y-108700000D01*
X149005000Y-108775000D01*
X149005000Y-109345000D01*
X149650000Y-109345000D01*
X149725000Y-109270000D01*
X149726452Y-109000000D01*
X149720660Y-108941190D01*
X149703505Y-108884639D01*
X149675648Y-108832522D01*
X149638159Y-108786841D01*
X149592478Y-108749352D01*
X149547148Y-108725123D01*
X149570000Y-108725000D01*
X149645000Y-108650000D01*
X149645000Y-108005000D01*
X149655000Y-108005000D01*
X149655000Y-108650000D01*
X149730000Y-108725000D01*
X150000000Y-108726452D01*
X150058810Y-108720660D01*
X150115361Y-108703505D01*
X150167478Y-108675648D01*
X150213159Y-108638159D01*
X150250648Y-108592478D01*
X150278505Y-108540361D01*
X150295660Y-108483810D01*
X150301452Y-108425000D01*
X150300000Y-108080000D01*
X150225000Y-108005000D01*
X149655000Y-108005000D01*
X149645000Y-108005000D01*
X149625000Y-108005000D01*
X149625000Y-107995000D01*
X149645000Y-107995000D01*
X149645000Y-107350000D01*
X149655000Y-107350000D01*
X149655000Y-107995000D01*
X150225000Y-107995000D01*
X150300000Y-107920000D01*
X150301452Y-107575000D01*
X150295660Y-107516190D01*
X150278505Y-107459639D01*
X150250648Y-107407522D01*
X150213159Y-107361841D01*
X150167478Y-107324352D01*
X150115361Y-107296495D01*
X150058810Y-107279340D01*
X150000000Y-107273548D01*
X149730000Y-107275000D01*
X149655000Y-107350000D01*
X149645000Y-107350000D01*
X149570000Y-107275000D01*
X149300000Y-107273548D01*
X149297068Y-107273837D01*
X149300000Y-107259095D01*
X149300000Y-107140905D01*
X149276942Y-107024986D01*
X149231713Y-106915793D01*
X149166050Y-106817522D01*
X149082478Y-106733950D01*
X148984207Y-106668287D01*
X148875014Y-106623058D01*
X148759095Y-106600000D01*
X148640905Y-106600000D01*
X148524986Y-106623058D01*
X148415793Y-106668287D01*
X148317522Y-106733950D01*
X148233950Y-106817522D01*
X148168287Y-106915793D01*
X148123058Y-107024986D01*
X148100000Y-107140905D01*
X148100000Y-107259095D01*
X148104261Y-107280516D01*
X148082049Y-107282704D01*
X147992670Y-107309817D01*
X147910298Y-107353845D01*
X147838098Y-107413098D01*
X147778845Y-107485298D01*
X147750000Y-107539264D01*
X147721155Y-107485298D01*
X147661902Y-107413098D01*
X147589702Y-107353845D01*
X147507330Y-107309817D01*
X147417951Y-107282704D01*
X147325000Y-107273549D01*
X146975000Y-107273549D01*
X146882049Y-107282704D01*
X146792670Y-107309817D01*
X146710298Y-107353845D01*
X146638098Y-107413098D01*
X146578845Y-107485298D01*
X146534817Y-107567670D01*
X146507704Y-107657049D01*
X146500000Y-107735268D01*
X146492296Y-107657049D01*
X146465183Y-107567670D01*
X146421155Y-107485298D01*
X146361902Y-107413098D01*
X146329324Y-107386362D01*
X146443953Y-107271733D01*
X146459211Y-107259211D01*
X146509197Y-107198303D01*
X146511597Y-107193813D01*
X146539031Y-107142490D01*
X146559639Y-107153505D01*
X146616190Y-107170660D01*
X146675000Y-107176452D01*
X146745000Y-107175000D01*
X146820000Y-107100000D01*
X146820000Y-106455000D01*
X146800000Y-106455000D01*
X146800000Y-106445000D01*
X146820000Y-106445000D01*
X146820000Y-106425000D01*
X146830000Y-106425000D01*
X146830000Y-106445000D01*
X146850000Y-106445000D01*
X146850000Y-106455000D01*
X146830000Y-106455000D01*
X146830000Y-107100000D01*
X146905000Y-107175000D01*
X146975000Y-107176452D01*
X147033810Y-107170660D01*
X147090361Y-107153505D01*
X147142478Y-107125648D01*
X147174368Y-107099477D01*
X147190855Y-107113008D01*
X147255938Y-107147795D01*
X147326558Y-107169218D01*
X147400000Y-107176451D01*
X147550000Y-107176451D01*
X147623442Y-107169218D01*
X147694062Y-107147795D01*
X147759145Y-107113008D01*
X147816191Y-107066191D01*
X147863008Y-107009145D01*
X147897795Y-106944062D01*
X147919218Y-106873442D01*
X147926451Y-106800000D01*
X147926451Y-106100000D01*
X147919218Y-106026558D01*
X147897795Y-105955938D01*
X147863008Y-105890855D01*
X147816191Y-105833809D01*
X147759145Y-105786992D01*
X147743989Y-105778891D01*
X147763159Y-105763159D01*
X147778891Y-105743989D01*
X147786992Y-105759145D01*
X147833809Y-105816191D01*
X147890855Y-105863008D01*
X147955938Y-105897795D01*
X148026558Y-105919218D01*
X148100000Y-105926451D01*
X148800000Y-105926451D01*
X148873442Y-105919218D01*
X148944062Y-105897795D01*
X149009145Y-105863008D01*
X149066191Y-105816191D01*
X149113008Y-105759145D01*
X149147795Y-105694062D01*
X149169218Y-105623442D01*
X149176451Y-105550000D01*
X149176451Y-105400000D01*
X149169218Y-105326558D01*
X149147795Y-105255938D01*
X149131259Y-105225000D01*
X149738291Y-105225000D01*
X149715855Y-105236992D01*
G36*
X143567670Y-100465183D02*
G01*
X143657049Y-100492296D01*
X143735268Y-100500000D01*
X143657049Y-100507704D01*
X143567670Y-100534817D01*
X143485298Y-100578845D01*
X143413098Y-100638098D01*
X143353845Y-100710298D01*
X143309817Y-100792670D01*
X143282704Y-100882049D01*
X143273549Y-100975000D01*
X143273549Y-101325000D01*
X143282704Y-101417951D01*
X143309817Y-101507330D01*
X143353845Y-101589702D01*
X143400001Y-101645943D01*
X143400000Y-104580353D01*
X143398065Y-104600000D01*
X143400000Y-104619646D01*
X143405788Y-104678413D01*
X143428660Y-104753813D01*
X143465803Y-104823302D01*
X143515789Y-104884211D01*
X143531052Y-104896737D01*
X143728263Y-105093948D01*
X143740789Y-105109211D01*
X143801697Y-105159197D01*
X143871186Y-105196340D01*
X143882264Y-105199700D01*
X143852205Y-105255938D01*
X143830782Y-105326558D01*
X143823549Y-105400000D01*
X143823549Y-105550000D01*
X143830782Y-105623442D01*
X143852205Y-105694062D01*
X143886992Y-105759145D01*
X143933809Y-105816191D01*
X143990855Y-105863008D01*
X144055938Y-105897795D01*
X144126558Y-105919218D01*
X144200000Y-105926451D01*
X144528745Y-105926451D01*
X144517522Y-105933950D01*
X144433950Y-106017522D01*
X144368287Y-106115793D01*
X144323058Y-106224986D01*
X144300000Y-106340905D01*
X144300000Y-106459095D01*
X144323058Y-106575014D01*
X144368287Y-106684207D01*
X144433950Y-106782478D01*
X144517522Y-106866050D01*
X144615793Y-106931713D01*
X144724986Y-106976942D01*
X144840905Y-107000000D01*
X144959095Y-107000000D01*
X145075014Y-106976942D01*
X145111665Y-106961761D01*
X145136992Y-107009145D01*
X145155657Y-107031889D01*
X144531052Y-107656495D01*
X144515789Y-107669021D01*
X144465803Y-107729930D01*
X144428660Y-107799419D01*
X144412327Y-107853263D01*
X144405788Y-107874819D01*
X144398065Y-107953232D01*
X144400000Y-107972879D01*
X144400000Y-108051472D01*
X144333950Y-108117522D01*
X144268287Y-108215793D01*
X144223058Y-108324986D01*
X144200000Y-108440905D01*
X144200000Y-108559095D01*
X144223058Y-108675014D01*
X144232806Y-108698549D01*
X143750000Y-108698549D01*
X143657049Y-108707704D01*
X143567670Y-108734817D01*
X143485298Y-108778845D01*
X143413098Y-108838098D01*
X143353845Y-108910298D01*
X143309817Y-108992670D01*
X143282704Y-109082049D01*
X143273549Y-109175000D01*
X143273549Y-109525000D01*
X143282704Y-109617951D01*
X143309817Y-109707330D01*
X143353845Y-109789702D01*
X143413098Y-109861902D01*
X143485298Y-109921155D01*
X143567670Y-109965183D01*
X143657049Y-109992296D01*
X143735268Y-110000000D01*
X143657049Y-110007704D01*
X143567670Y-110034817D01*
X143485298Y-110078845D01*
X143413098Y-110138098D01*
X143353845Y-110210298D01*
X143332624Y-110250000D01*
X143315685Y-110250000D01*
X143045857Y-109980172D01*
X143105806Y-109835443D01*
X143150000Y-109613265D01*
X143150000Y-109386735D01*
X143105806Y-109164557D01*
X143019116Y-108955271D01*
X142893263Y-108766918D01*
X142733082Y-108606737D01*
X142544729Y-108480884D01*
X142335443Y-108394194D01*
X142113265Y-108350000D01*
X141886735Y-108350000D01*
X141664557Y-108394194D01*
X141455271Y-108480884D01*
X141325000Y-108567928D01*
X141325000Y-107892072D01*
X141455271Y-107979116D01*
X141664557Y-108065806D01*
X141886735Y-108110000D01*
X142113265Y-108110000D01*
X142335443Y-108065806D01*
X142544729Y-107979116D01*
X142733082Y-107853263D01*
X142893263Y-107693082D01*
X143019116Y-107504729D01*
X143105806Y-107295443D01*
X143150000Y-107073265D01*
X143150000Y-106846735D01*
X143105806Y-106624557D01*
X143019116Y-106415271D01*
X142893263Y-106226918D01*
X142733082Y-106066737D01*
X142544729Y-105940884D01*
X142335443Y-105854194D01*
X142113265Y-105810000D01*
X141886735Y-105810000D01*
X141664557Y-105854194D01*
X141455271Y-105940884D01*
X141325000Y-106027928D01*
X141325000Y-105151122D01*
X141920000Y-105150000D01*
X141995000Y-105075000D01*
X141995000Y-104005000D01*
X142005000Y-104005000D01*
X142005000Y-105075000D01*
X142080000Y-105150000D01*
X142850000Y-105151452D01*
X142908810Y-105145660D01*
X142965361Y-105128505D01*
X143017478Y-105100648D01*
X143063159Y-105063159D01*
X143100648Y-105017478D01*
X143128505Y-104965361D01*
X143145660Y-104908810D01*
X143151452Y-104850000D01*
X143150000Y-104080000D01*
X143075000Y-104005000D01*
X142005000Y-104005000D01*
X141995000Y-104005000D01*
X141975000Y-104005000D01*
X141975000Y-103995000D01*
X141995000Y-103995000D01*
X141995000Y-102925000D01*
X142005000Y-102925000D01*
X142005000Y-103995000D01*
X143075000Y-103995000D01*
X143150000Y-103920000D01*
X143151452Y-103150000D01*
X143145660Y-103091190D01*
X143128505Y-103034639D01*
X143100648Y-102982522D01*
X143063159Y-102936841D01*
X143017478Y-102899352D01*
X142965361Y-102871495D01*
X142908810Y-102854340D01*
X142850000Y-102848548D01*
X142080000Y-102850000D01*
X142005000Y-102925000D01*
X141995000Y-102925000D01*
X141920000Y-102850000D01*
X141325000Y-102848878D01*
X141325000Y-102392072D01*
X141455271Y-102479116D01*
X141664557Y-102565806D01*
X141886735Y-102610000D01*
X142113265Y-102610000D01*
X142335443Y-102565806D01*
X142544729Y-102479116D01*
X142733082Y-102353263D01*
X142893263Y-102193082D01*
X143019116Y-102004729D01*
X143105806Y-101795443D01*
X143150000Y-101573265D01*
X143150000Y-101346735D01*
X143105806Y-101124557D01*
X143045857Y-100979829D01*
X143562999Y-100462686D01*
X143567670Y-100465183D01*
X143567670Y-100465183D01*
G37*
X143567670Y-100465183D02*
X143657049Y-100492296D01*
X143735268Y-100500000D01*
X143657049Y-100507704D01*
X143567670Y-100534817D01*
X143485298Y-100578845D01*
X143413098Y-100638098D01*
X143353845Y-100710298D01*
X143309817Y-100792670D01*
X143282704Y-100882049D01*
X143273549Y-100975000D01*
X143273549Y-101325000D01*
X143282704Y-101417951D01*
X143309817Y-101507330D01*
X143353845Y-101589702D01*
X143400001Y-101645943D01*
X143400000Y-104580353D01*
X143398065Y-104600000D01*
X143400000Y-104619646D01*
X143405788Y-104678413D01*
X143428660Y-104753813D01*
X143465803Y-104823302D01*
X143515789Y-104884211D01*
X143531052Y-104896737D01*
X143728263Y-105093948D01*
X143740789Y-105109211D01*
X143801697Y-105159197D01*
X143871186Y-105196340D01*
X143882264Y-105199700D01*
X143852205Y-105255938D01*
X143830782Y-105326558D01*
X143823549Y-105400000D01*
X143823549Y-105550000D01*
X143830782Y-105623442D01*
X143852205Y-105694062D01*
X143886992Y-105759145D01*
X143933809Y-105816191D01*
X143990855Y-105863008D01*
X144055938Y-105897795D01*
X144126558Y-105919218D01*
X144200000Y-105926451D01*
X144528745Y-105926451D01*
X144517522Y-105933950D01*
X144433950Y-106017522D01*
X144368287Y-106115793D01*
X144323058Y-106224986D01*
X144300000Y-106340905D01*
X144300000Y-106459095D01*
X144323058Y-106575014D01*
X144368287Y-106684207D01*
X144433950Y-106782478D01*
X144517522Y-106866050D01*
X144615793Y-106931713D01*
X144724986Y-106976942D01*
X144840905Y-107000000D01*
X144959095Y-107000000D01*
X145075014Y-106976942D01*
X145111665Y-106961761D01*
X145136992Y-107009145D01*
X145155657Y-107031889D01*
X144531052Y-107656495D01*
X144515789Y-107669021D01*
X144465803Y-107729930D01*
X144428660Y-107799419D01*
X144412327Y-107853263D01*
X144405788Y-107874819D01*
X144398065Y-107953232D01*
X144400000Y-107972879D01*
X144400000Y-108051472D01*
X144333950Y-108117522D01*
X144268287Y-108215793D01*
X144223058Y-108324986D01*
X144200000Y-108440905D01*
X144200000Y-108559095D01*
X144223058Y-108675014D01*
X144232806Y-108698549D01*
X143750000Y-108698549D01*
X143657049Y-108707704D01*
X143567670Y-108734817D01*
X143485298Y-108778845D01*
X143413098Y-108838098D01*
X143353845Y-108910298D01*
X143309817Y-108992670D01*
X143282704Y-109082049D01*
X143273549Y-109175000D01*
X143273549Y-109525000D01*
X143282704Y-109617951D01*
X143309817Y-109707330D01*
X143353845Y-109789702D01*
X143413098Y-109861902D01*
X143485298Y-109921155D01*
X143567670Y-109965183D01*
X143657049Y-109992296D01*
X143735268Y-110000000D01*
X143657049Y-110007704D01*
X143567670Y-110034817D01*
X143485298Y-110078845D01*
X143413098Y-110138098D01*
X143353845Y-110210298D01*
X143332624Y-110250000D01*
X143315685Y-110250000D01*
X143045857Y-109980172D01*
X143105806Y-109835443D01*
X143150000Y-109613265D01*
X143150000Y-109386735D01*
X143105806Y-109164557D01*
X143019116Y-108955271D01*
X142893263Y-108766918D01*
X142733082Y-108606737D01*
X142544729Y-108480884D01*
X142335443Y-108394194D01*
X142113265Y-108350000D01*
X141886735Y-108350000D01*
X141664557Y-108394194D01*
X141455271Y-108480884D01*
X141325000Y-108567928D01*
X141325000Y-107892072D01*
X141455271Y-107979116D01*
X141664557Y-108065806D01*
X141886735Y-108110000D01*
X142113265Y-108110000D01*
X142335443Y-108065806D01*
X142544729Y-107979116D01*
X142733082Y-107853263D01*
X142893263Y-107693082D01*
X143019116Y-107504729D01*
X143105806Y-107295443D01*
X143150000Y-107073265D01*
X143150000Y-106846735D01*
X143105806Y-106624557D01*
X143019116Y-106415271D01*
X142893263Y-106226918D01*
X142733082Y-106066737D01*
X142544729Y-105940884D01*
X142335443Y-105854194D01*
X142113265Y-105810000D01*
X141886735Y-105810000D01*
X141664557Y-105854194D01*
X141455271Y-105940884D01*
X141325000Y-106027928D01*
X141325000Y-105151122D01*
X141920000Y-105150000D01*
X141995000Y-105075000D01*
X141995000Y-104005000D01*
X142005000Y-104005000D01*
X142005000Y-105075000D01*
X142080000Y-105150000D01*
X142850000Y-105151452D01*
X142908810Y-105145660D01*
X142965361Y-105128505D01*
X143017478Y-105100648D01*
X143063159Y-105063159D01*
X143100648Y-105017478D01*
X143128505Y-104965361D01*
X143145660Y-104908810D01*
X143151452Y-104850000D01*
X143150000Y-104080000D01*
X143075000Y-104005000D01*
X142005000Y-104005000D01*
X141995000Y-104005000D01*
X141975000Y-104005000D01*
X141975000Y-103995000D01*
X141995000Y-103995000D01*
X141995000Y-102925000D01*
X142005000Y-102925000D01*
X142005000Y-103995000D01*
X143075000Y-103995000D01*
X143150000Y-103920000D01*
X143151452Y-103150000D01*
X143145660Y-103091190D01*
X143128505Y-103034639D01*
X143100648Y-102982522D01*
X143063159Y-102936841D01*
X143017478Y-102899352D01*
X142965361Y-102871495D01*
X142908810Y-102854340D01*
X142850000Y-102848548D01*
X142080000Y-102850000D01*
X142005000Y-102925000D01*
X141995000Y-102925000D01*
X141920000Y-102850000D01*
X141325000Y-102848878D01*
X141325000Y-102392072D01*
X141455271Y-102479116D01*
X141664557Y-102565806D01*
X141886735Y-102610000D01*
X142113265Y-102610000D01*
X142335443Y-102565806D01*
X142544729Y-102479116D01*
X142733082Y-102353263D01*
X142893263Y-102193082D01*
X143019116Y-102004729D01*
X143105806Y-101795443D01*
X143150000Y-101573265D01*
X143150000Y-101346735D01*
X143105806Y-101124557D01*
X143045857Y-100979829D01*
X143562999Y-100462686D01*
X143567670Y-100465183D01*
G36*
X146505000Y-104495000D02*
G01*
X146525000Y-104495000D01*
X146525000Y-104505000D01*
X146505000Y-104505000D01*
X146505000Y-104525000D01*
X146495000Y-104525000D01*
X146495000Y-104505000D01*
X146475000Y-104505000D01*
X146475000Y-104495000D01*
X146495000Y-104495000D01*
X146495000Y-104475000D01*
X146505000Y-104475000D01*
X146505000Y-104495000D01*
X146505000Y-104495000D01*
G37*
X146505000Y-104495000D02*
X146525000Y-104495000D01*
X146525000Y-104505000D01*
X146505000Y-104505000D01*
X146505000Y-104525000D01*
X146495000Y-104525000D01*
X146495000Y-104505000D01*
X146475000Y-104505000D01*
X146475000Y-104495000D01*
X146495000Y-104495000D01*
X146495000Y-104475000D01*
X146505000Y-104475000D01*
X146505000Y-104495000D01*
G36*
X147325024Y-98773551D02*
G01*
X147325000Y-98773549D01*
X146975000Y-98773549D01*
X146882049Y-98782704D01*
X146792670Y-98809817D01*
X146710298Y-98853845D01*
X146638098Y-98913098D01*
X146578845Y-98985298D01*
X146534817Y-99067670D01*
X146507704Y-99157049D01*
X146500812Y-99227022D01*
X146501452Y-99075000D01*
X146495660Y-99016190D01*
X146478505Y-98959639D01*
X146450648Y-98907522D01*
X146413159Y-98861841D01*
X146367478Y-98824352D01*
X146315361Y-98796495D01*
X146258810Y-98779340D01*
X146200000Y-98773548D01*
X145930000Y-98775000D01*
X145855000Y-98850000D01*
X145855000Y-99495000D01*
X145875000Y-99495000D01*
X145875000Y-99505000D01*
X145855000Y-99505000D01*
X145855000Y-100150000D01*
X145930000Y-100225000D01*
X146200000Y-100226452D01*
X146258810Y-100220660D01*
X146315361Y-100203505D01*
X146367478Y-100175648D01*
X146413159Y-100138159D01*
X146450648Y-100092478D01*
X146478505Y-100040361D01*
X146495660Y-99983810D01*
X146501452Y-99925000D01*
X146500812Y-99772978D01*
X146507704Y-99842951D01*
X146534817Y-99932330D01*
X146578845Y-100014702D01*
X146638098Y-100086902D01*
X146700001Y-100137704D01*
X146700000Y-100362296D01*
X146638098Y-100413098D01*
X146578845Y-100485298D01*
X146534817Y-100567670D01*
X146507704Y-100657049D01*
X146500812Y-100727022D01*
X146501452Y-100575000D01*
X146495660Y-100516190D01*
X146478505Y-100459639D01*
X146450648Y-100407522D01*
X146413159Y-100361841D01*
X146367478Y-100324352D01*
X146315361Y-100296495D01*
X146258810Y-100279340D01*
X146200000Y-100273548D01*
X145930000Y-100275000D01*
X145855000Y-100350000D01*
X145855000Y-100995000D01*
X145875000Y-100995000D01*
X145875000Y-101005000D01*
X145855000Y-101005000D01*
X145855000Y-101650000D01*
X145930000Y-101725000D01*
X146200000Y-101726452D01*
X146258810Y-101720660D01*
X146315361Y-101703505D01*
X146367478Y-101675648D01*
X146413159Y-101638159D01*
X146425001Y-101623730D01*
X146425001Y-101868742D01*
X146394062Y-101852205D01*
X146323442Y-101830782D01*
X146250000Y-101823549D01*
X146100000Y-101823549D01*
X146026558Y-101830782D01*
X145955938Y-101852205D01*
X145890855Y-101886992D01*
X145850000Y-101920521D01*
X145809145Y-101886992D01*
X145744062Y-101852205D01*
X145673442Y-101830782D01*
X145600000Y-101823549D01*
X145450000Y-101823549D01*
X145376558Y-101830782D01*
X145305938Y-101852205D01*
X145240855Y-101886992D01*
X145183809Y-101933809D01*
X145136992Y-101990855D01*
X145102205Y-102055938D01*
X145080782Y-102126558D01*
X145073549Y-102200000D01*
X145073549Y-102900000D01*
X145080782Y-102973442D01*
X145102205Y-103044062D01*
X145136992Y-103109145D01*
X145163901Y-103141933D01*
X145142478Y-103124352D01*
X145090361Y-103096495D01*
X145033810Y-103079340D01*
X144975000Y-103073548D01*
X144630000Y-103075000D01*
X144555000Y-103150000D01*
X144555000Y-103520000D01*
X144575000Y-103520000D01*
X144575000Y-103530000D01*
X144555000Y-103530000D01*
X144555000Y-103550000D01*
X144545000Y-103550000D01*
X144545000Y-103530000D01*
X144525000Y-103530000D01*
X144525000Y-103520000D01*
X144545000Y-103520000D01*
X144545000Y-103150000D01*
X144470000Y-103075000D01*
X144200000Y-103073864D01*
X144200000Y-101801451D01*
X144250000Y-101801451D01*
X144342951Y-101792296D01*
X144432330Y-101765183D01*
X144514702Y-101721155D01*
X144586902Y-101661902D01*
X144646155Y-101589702D01*
X144690183Y-101507330D01*
X144715157Y-101425000D01*
X145198548Y-101425000D01*
X145204340Y-101483810D01*
X145221495Y-101540361D01*
X145249352Y-101592478D01*
X145286841Y-101638159D01*
X145332522Y-101675648D01*
X145384639Y-101703505D01*
X145441190Y-101720660D01*
X145500000Y-101726452D01*
X145770000Y-101725000D01*
X145845000Y-101650000D01*
X145845000Y-101005000D01*
X145275000Y-101005000D01*
X145200000Y-101080000D01*
X145198548Y-101425000D01*
X144715157Y-101425000D01*
X144717296Y-101417951D01*
X144726451Y-101325000D01*
X144726451Y-100975000D01*
X144717296Y-100882049D01*
X144690183Y-100792670D01*
X144646155Y-100710298D01*
X144586902Y-100638098D01*
X144514702Y-100578845D01*
X144507509Y-100575000D01*
X145198548Y-100575000D01*
X145200000Y-100920000D01*
X145275000Y-100995000D01*
X145845000Y-100995000D01*
X145845000Y-100350000D01*
X145770000Y-100275000D01*
X145500000Y-100273548D01*
X145441190Y-100279340D01*
X145384639Y-100296495D01*
X145332522Y-100324352D01*
X145286841Y-100361841D01*
X145249352Y-100407522D01*
X145221495Y-100459639D01*
X145204340Y-100516190D01*
X145198548Y-100575000D01*
X144507509Y-100575000D01*
X144432330Y-100534817D01*
X144342951Y-100507704D01*
X144264732Y-100500000D01*
X144342951Y-100492296D01*
X144432330Y-100465183D01*
X144514702Y-100421155D01*
X144586902Y-100361902D01*
X144646155Y-100289702D01*
X144690183Y-100207330D01*
X144717296Y-100117951D01*
X144726451Y-100025000D01*
X144726451Y-99925000D01*
X145198548Y-99925000D01*
X145204340Y-99983810D01*
X145221495Y-100040361D01*
X145249352Y-100092478D01*
X145286841Y-100138159D01*
X145332522Y-100175648D01*
X145384639Y-100203505D01*
X145441190Y-100220660D01*
X145500000Y-100226452D01*
X145770000Y-100225000D01*
X145845000Y-100150000D01*
X145845000Y-99505000D01*
X145275000Y-99505000D01*
X145200000Y-99580000D01*
X145198548Y-99925000D01*
X144726451Y-99925000D01*
X144726451Y-99675000D01*
X144717296Y-99582049D01*
X144690183Y-99492670D01*
X144646155Y-99410298D01*
X144586902Y-99338098D01*
X144514702Y-99278845D01*
X144432330Y-99234817D01*
X144342951Y-99207704D01*
X144250000Y-99198549D01*
X143750000Y-99198549D01*
X143657049Y-99207704D01*
X143567670Y-99234817D01*
X143485298Y-99278845D01*
X143413098Y-99338098D01*
X143353845Y-99410298D01*
X143309817Y-99492670D01*
X143282704Y-99582049D01*
X143279474Y-99614840D01*
X142480171Y-100414143D01*
X142335443Y-100354194D01*
X142113265Y-100310000D01*
X141886735Y-100310000D01*
X141664557Y-100354194D01*
X141455271Y-100440884D01*
X141325000Y-100527928D01*
X141325000Y-99852072D01*
X141455271Y-99939116D01*
X141664557Y-100025806D01*
X141886735Y-100070000D01*
X142113265Y-100070000D01*
X142335443Y-100025806D01*
X142544729Y-99939116D01*
X142733082Y-99813263D01*
X142893263Y-99653082D01*
X143019116Y-99464729D01*
X143105806Y-99255443D01*
X143141698Y-99075000D01*
X145198548Y-99075000D01*
X145200000Y-99420000D01*
X145275000Y-99495000D01*
X145845000Y-99495000D01*
X145845000Y-98850000D01*
X145770000Y-98775000D01*
X145500000Y-98773548D01*
X145441190Y-98779340D01*
X145384639Y-98796495D01*
X145332522Y-98824352D01*
X145286841Y-98861841D01*
X145249352Y-98907522D01*
X145221495Y-98959639D01*
X145204340Y-99016190D01*
X145198548Y-99075000D01*
X143141698Y-99075000D01*
X143150000Y-99033265D01*
X143150000Y-98806735D01*
X143122802Y-98670001D01*
X147221474Y-98670001D01*
X147325024Y-98773551D01*
X147325024Y-98773551D01*
G37*
X147325024Y-98773551D02*
X147325000Y-98773549D01*
X146975000Y-98773549D01*
X146882049Y-98782704D01*
X146792670Y-98809817D01*
X146710298Y-98853845D01*
X146638098Y-98913098D01*
X146578845Y-98985298D01*
X146534817Y-99067670D01*
X146507704Y-99157049D01*
X146500812Y-99227022D01*
X146501452Y-99075000D01*
X146495660Y-99016190D01*
X146478505Y-98959639D01*
X146450648Y-98907522D01*
X146413159Y-98861841D01*
X146367478Y-98824352D01*
X146315361Y-98796495D01*
X146258810Y-98779340D01*
X146200000Y-98773548D01*
X145930000Y-98775000D01*
X145855000Y-98850000D01*
X145855000Y-99495000D01*
X145875000Y-99495000D01*
X145875000Y-99505000D01*
X145855000Y-99505000D01*
X145855000Y-100150000D01*
X145930000Y-100225000D01*
X146200000Y-100226452D01*
X146258810Y-100220660D01*
X146315361Y-100203505D01*
X146367478Y-100175648D01*
X146413159Y-100138159D01*
X146450648Y-100092478D01*
X146478505Y-100040361D01*
X146495660Y-99983810D01*
X146501452Y-99925000D01*
X146500812Y-99772978D01*
X146507704Y-99842951D01*
X146534817Y-99932330D01*
X146578845Y-100014702D01*
X146638098Y-100086902D01*
X146700001Y-100137704D01*
X146700000Y-100362296D01*
X146638098Y-100413098D01*
X146578845Y-100485298D01*
X146534817Y-100567670D01*
X146507704Y-100657049D01*
X146500812Y-100727022D01*
X146501452Y-100575000D01*
X146495660Y-100516190D01*
X146478505Y-100459639D01*
X146450648Y-100407522D01*
X146413159Y-100361841D01*
X146367478Y-100324352D01*
X146315361Y-100296495D01*
X146258810Y-100279340D01*
X146200000Y-100273548D01*
X145930000Y-100275000D01*
X145855000Y-100350000D01*
X145855000Y-100995000D01*
X145875000Y-100995000D01*
X145875000Y-101005000D01*
X145855000Y-101005000D01*
X145855000Y-101650000D01*
X145930000Y-101725000D01*
X146200000Y-101726452D01*
X146258810Y-101720660D01*
X146315361Y-101703505D01*
X146367478Y-101675648D01*
X146413159Y-101638159D01*
X146425001Y-101623730D01*
X146425001Y-101868742D01*
X146394062Y-101852205D01*
X146323442Y-101830782D01*
X146250000Y-101823549D01*
X146100000Y-101823549D01*
X146026558Y-101830782D01*
X145955938Y-101852205D01*
X145890855Y-101886992D01*
X145850000Y-101920521D01*
X145809145Y-101886992D01*
X145744062Y-101852205D01*
X145673442Y-101830782D01*
X145600000Y-101823549D01*
X145450000Y-101823549D01*
X145376558Y-101830782D01*
X145305938Y-101852205D01*
X145240855Y-101886992D01*
X145183809Y-101933809D01*
X145136992Y-101990855D01*
X145102205Y-102055938D01*
X145080782Y-102126558D01*
X145073549Y-102200000D01*
X145073549Y-102900000D01*
X145080782Y-102973442D01*
X145102205Y-103044062D01*
X145136992Y-103109145D01*
X145163901Y-103141933D01*
X145142478Y-103124352D01*
X145090361Y-103096495D01*
X145033810Y-103079340D01*
X144975000Y-103073548D01*
X144630000Y-103075000D01*
X144555000Y-103150000D01*
X144555000Y-103520000D01*
X144575000Y-103520000D01*
X144575000Y-103530000D01*
X144555000Y-103530000D01*
X144555000Y-103550000D01*
X144545000Y-103550000D01*
X144545000Y-103530000D01*
X144525000Y-103530000D01*
X144525000Y-103520000D01*
X144545000Y-103520000D01*
X144545000Y-103150000D01*
X144470000Y-103075000D01*
X144200000Y-103073864D01*
X144200000Y-101801451D01*
X144250000Y-101801451D01*
X144342951Y-101792296D01*
X144432330Y-101765183D01*
X144514702Y-101721155D01*
X144586902Y-101661902D01*
X144646155Y-101589702D01*
X144690183Y-101507330D01*
X144715157Y-101425000D01*
X145198548Y-101425000D01*
X145204340Y-101483810D01*
X145221495Y-101540361D01*
X145249352Y-101592478D01*
X145286841Y-101638159D01*
X145332522Y-101675648D01*
X145384639Y-101703505D01*
X145441190Y-101720660D01*
X145500000Y-101726452D01*
X145770000Y-101725000D01*
X145845000Y-101650000D01*
X145845000Y-101005000D01*
X145275000Y-101005000D01*
X145200000Y-101080000D01*
X145198548Y-101425000D01*
X144715157Y-101425000D01*
X144717296Y-101417951D01*
X144726451Y-101325000D01*
X144726451Y-100975000D01*
X144717296Y-100882049D01*
X144690183Y-100792670D01*
X144646155Y-100710298D01*
X144586902Y-100638098D01*
X144514702Y-100578845D01*
X144507509Y-100575000D01*
X145198548Y-100575000D01*
X145200000Y-100920000D01*
X145275000Y-100995000D01*
X145845000Y-100995000D01*
X145845000Y-100350000D01*
X145770000Y-100275000D01*
X145500000Y-100273548D01*
X145441190Y-100279340D01*
X145384639Y-100296495D01*
X145332522Y-100324352D01*
X145286841Y-100361841D01*
X145249352Y-100407522D01*
X145221495Y-100459639D01*
X145204340Y-100516190D01*
X145198548Y-100575000D01*
X144507509Y-100575000D01*
X144432330Y-100534817D01*
X144342951Y-100507704D01*
X144264732Y-100500000D01*
X144342951Y-100492296D01*
X144432330Y-100465183D01*
X144514702Y-100421155D01*
X144586902Y-100361902D01*
X144646155Y-100289702D01*
X144690183Y-100207330D01*
X144717296Y-100117951D01*
X144726451Y-100025000D01*
X144726451Y-99925000D01*
X145198548Y-99925000D01*
X145204340Y-99983810D01*
X145221495Y-100040361D01*
X145249352Y-100092478D01*
X145286841Y-100138159D01*
X145332522Y-100175648D01*
X145384639Y-100203505D01*
X145441190Y-100220660D01*
X145500000Y-100226452D01*
X145770000Y-100225000D01*
X145845000Y-100150000D01*
X145845000Y-99505000D01*
X145275000Y-99505000D01*
X145200000Y-99580000D01*
X145198548Y-99925000D01*
X144726451Y-99925000D01*
X144726451Y-99675000D01*
X144717296Y-99582049D01*
X144690183Y-99492670D01*
X144646155Y-99410298D01*
X144586902Y-99338098D01*
X144514702Y-99278845D01*
X144432330Y-99234817D01*
X144342951Y-99207704D01*
X144250000Y-99198549D01*
X143750000Y-99198549D01*
X143657049Y-99207704D01*
X143567670Y-99234817D01*
X143485298Y-99278845D01*
X143413098Y-99338098D01*
X143353845Y-99410298D01*
X143309817Y-99492670D01*
X143282704Y-99582049D01*
X143279474Y-99614840D01*
X142480171Y-100414143D01*
X142335443Y-100354194D01*
X142113265Y-100310000D01*
X141886735Y-100310000D01*
X141664557Y-100354194D01*
X141455271Y-100440884D01*
X141325000Y-100527928D01*
X141325000Y-99852072D01*
X141455271Y-99939116D01*
X141664557Y-100025806D01*
X141886735Y-100070000D01*
X142113265Y-100070000D01*
X142335443Y-100025806D01*
X142544729Y-99939116D01*
X142733082Y-99813263D01*
X142893263Y-99653082D01*
X143019116Y-99464729D01*
X143105806Y-99255443D01*
X143141698Y-99075000D01*
X145198548Y-99075000D01*
X145200000Y-99420000D01*
X145275000Y-99495000D01*
X145845000Y-99495000D01*
X145845000Y-98850000D01*
X145770000Y-98775000D01*
X145500000Y-98773548D01*
X145441190Y-98779340D01*
X145384639Y-98796495D01*
X145332522Y-98824352D01*
X145286841Y-98861841D01*
X145249352Y-98907522D01*
X145221495Y-98959639D01*
X145204340Y-99016190D01*
X145198548Y-99075000D01*
X143141698Y-99075000D01*
X143150000Y-99033265D01*
X143150000Y-98806735D01*
X143122802Y-98670001D01*
X147221474Y-98670001D01*
X147325024Y-98773551D01*
M02*
