G04 #@! TF.GenerationSoftware,KiCad,Pcbnew,5.1.0-060a0da~80~ubuntu18.04.1*
G04 #@! TF.CreationDate,2019-04-12T23:32:23+02:00*
G04 #@! TF.ProjectId,mav_sbus_bridge,6d61765f-7362-4757-935f-627269646765,rev?*
G04 #@! TF.SameCoordinates,Original*
G04 #@! TF.FileFunction,Soldermask,Top*
G04 #@! TF.FilePolarity,Negative*
%FSLAX46Y46*%
G04 Gerber Fmt 4.6, Leading zero omitted, Abs format (unit mm)*
G04 Created by KiCad (PCBNEW 5.1.0-060a0da~80~ubuntu18.04.1) date 2019-04-12 23:32:23*
%MOMM*%
%LPD*%
G04 APERTURE LIST*
%ADD10C,0.100000*%
G04 APERTURE END LIST*
D10*
G36*
X147547828Y-111950526D02*
G01*
X147629882Y-111975417D01*
X147705496Y-112015833D01*
X147771774Y-112070226D01*
X147826167Y-112136504D01*
X147866583Y-112212118D01*
X147891474Y-112294172D01*
X147900000Y-112380732D01*
X147900000Y-113603268D01*
X147891474Y-113689828D01*
X147866583Y-113771882D01*
X147844736Y-113812757D01*
X147843687Y-113814974D01*
X147797570Y-113926310D01*
X147699076Y-114073717D01*
X147573717Y-114199076D01*
X147426310Y-114297570D01*
X147262520Y-114365414D01*
X147088642Y-114400000D01*
X146911358Y-114400000D01*
X146737480Y-114365414D01*
X146573690Y-114297570D01*
X146426283Y-114199076D01*
X146300924Y-114073717D01*
X146202430Y-113926310D01*
X146156313Y-113814974D01*
X146155264Y-113812757D01*
X146133417Y-113771882D01*
X146108526Y-113689828D01*
X146100000Y-113603268D01*
X146100000Y-112380732D01*
X146108526Y-112294172D01*
X146133417Y-112212118D01*
X146173833Y-112136504D01*
X146228226Y-112070226D01*
X146294504Y-112015833D01*
X146370118Y-111975417D01*
X146452172Y-111950526D01*
X146538732Y-111942000D01*
X147461268Y-111942000D01*
X147547828Y-111950526D01*
X147547828Y-111950526D01*
G37*
G36*
X152627828Y-111950526D02*
G01*
X152709882Y-111975417D01*
X152785496Y-112015833D01*
X152851774Y-112070226D01*
X152906167Y-112136504D01*
X152946583Y-112212118D01*
X152971474Y-112294172D01*
X152980000Y-112380732D01*
X152980000Y-113603268D01*
X152971474Y-113689828D01*
X152946583Y-113771882D01*
X152924736Y-113812757D01*
X152923687Y-113814974D01*
X152877570Y-113926310D01*
X152779076Y-114073717D01*
X152653717Y-114199076D01*
X152506310Y-114297570D01*
X152342520Y-114365414D01*
X152168642Y-114400000D01*
X151991358Y-114400000D01*
X151817480Y-114365414D01*
X151653690Y-114297570D01*
X151506283Y-114199076D01*
X151380924Y-114073717D01*
X151282430Y-113926310D01*
X151236313Y-113814974D01*
X151235264Y-113812757D01*
X151213417Y-113771882D01*
X151188526Y-113689828D01*
X151180000Y-113603268D01*
X151180000Y-112380732D01*
X151188526Y-112294172D01*
X151213417Y-112212118D01*
X151253833Y-112136504D01*
X151308226Y-112070226D01*
X151374504Y-112015833D01*
X151450118Y-111975417D01*
X151532172Y-111950526D01*
X151618732Y-111942000D01*
X152541268Y-111942000D01*
X152627828Y-111950526D01*
X152627828Y-111950526D01*
G37*
G36*
X155167828Y-111950526D02*
G01*
X155249882Y-111975417D01*
X155325496Y-112015833D01*
X155391774Y-112070226D01*
X155446167Y-112136504D01*
X155486583Y-112212118D01*
X155511474Y-112294172D01*
X155520000Y-112380732D01*
X155520000Y-113603268D01*
X155511474Y-113689828D01*
X155486583Y-113771882D01*
X155464736Y-113812757D01*
X155463687Y-113814974D01*
X155417570Y-113926310D01*
X155319076Y-114073717D01*
X155193717Y-114199076D01*
X155046310Y-114297570D01*
X154882520Y-114365414D01*
X154708642Y-114400000D01*
X154531358Y-114400000D01*
X154357480Y-114365414D01*
X154193690Y-114297570D01*
X154046283Y-114199076D01*
X153920924Y-114073717D01*
X153822430Y-113926310D01*
X153776313Y-113814974D01*
X153775264Y-113812757D01*
X153753417Y-113771882D01*
X153728526Y-113689828D01*
X153720000Y-113603268D01*
X153720000Y-112380732D01*
X153728526Y-112294172D01*
X153753417Y-112212118D01*
X153793833Y-112136504D01*
X153848226Y-112070226D01*
X153914504Y-112015833D01*
X153990118Y-111975417D01*
X154072172Y-111950526D01*
X154158732Y-111942000D01*
X155081268Y-111942000D01*
X155167828Y-111950526D01*
X155167828Y-111950526D01*
G37*
G36*
X150087828Y-111950526D02*
G01*
X150169882Y-111975417D01*
X150245496Y-112015833D01*
X150311774Y-112070226D01*
X150366167Y-112136504D01*
X150406583Y-112212118D01*
X150431474Y-112294172D01*
X150440000Y-112380732D01*
X150440000Y-113603268D01*
X150431474Y-113689828D01*
X150406583Y-113771882D01*
X150384736Y-113812757D01*
X150383687Y-113814974D01*
X150337570Y-113926310D01*
X150239076Y-114073717D01*
X150113717Y-114199076D01*
X149966310Y-114297570D01*
X149802520Y-114365414D01*
X149628642Y-114400000D01*
X149451358Y-114400000D01*
X149277480Y-114365414D01*
X149113690Y-114297570D01*
X148966283Y-114199076D01*
X148840924Y-114073717D01*
X148742430Y-113926310D01*
X148696313Y-113814974D01*
X148695264Y-113812757D01*
X148673417Y-113771882D01*
X148648526Y-113689828D01*
X148640000Y-113603268D01*
X148640000Y-112380732D01*
X148648526Y-112294172D01*
X148673417Y-112212118D01*
X148713833Y-112136504D01*
X148768226Y-112070226D01*
X148834504Y-112015833D01*
X148910118Y-111975417D01*
X148992172Y-111950526D01*
X149078732Y-111942000D01*
X150001268Y-111942000D01*
X150087828Y-111950526D01*
X150087828Y-111950526D01*
G37*
G36*
X142205828Y-111188526D02*
G01*
X142287882Y-111213417D01*
X142363496Y-111253833D01*
X142429774Y-111308226D01*
X142484167Y-111374504D01*
X142524583Y-111450118D01*
X142549474Y-111532172D01*
X142558000Y-111618732D01*
X142558000Y-112541268D01*
X142549474Y-112627828D01*
X142524583Y-112709882D01*
X142484167Y-112785496D01*
X142429774Y-112851774D01*
X142363496Y-112906167D01*
X142287882Y-112946583D01*
X142205828Y-112971474D01*
X142119268Y-112980000D01*
X140896732Y-112980000D01*
X140810172Y-112971474D01*
X140728118Y-112946583D01*
X140687243Y-112924736D01*
X140685026Y-112923687D01*
X140642729Y-112906167D01*
X140573690Y-112877570D01*
X140426283Y-112779076D01*
X140300924Y-112653717D01*
X140202430Y-112506310D01*
X140134586Y-112342520D01*
X140100000Y-112168642D01*
X140100000Y-111991358D01*
X140134586Y-111817480D01*
X140202430Y-111653690D01*
X140300924Y-111506283D01*
X140426283Y-111380924D01*
X140573690Y-111282430D01*
X140685026Y-111236313D01*
X140687243Y-111235264D01*
X140728118Y-111213417D01*
X140810172Y-111188526D01*
X140896732Y-111180000D01*
X142119268Y-111180000D01*
X142205828Y-111188526D01*
X142205828Y-111188526D01*
G37*
G36*
X144624059Y-110253722D02*
G01*
X144659204Y-110264383D01*
X144691605Y-110281702D01*
X144719997Y-110305003D01*
X144743298Y-110333395D01*
X144760617Y-110365796D01*
X144771278Y-110400941D01*
X144775000Y-110438732D01*
X144775000Y-110861268D01*
X144771278Y-110899059D01*
X144760617Y-110934204D01*
X144743298Y-110966605D01*
X144719997Y-110994997D01*
X144691605Y-111018298D01*
X144659204Y-111035617D01*
X144624059Y-111046278D01*
X144586268Y-111050000D01*
X144013732Y-111050000D01*
X143975941Y-111046278D01*
X143940796Y-111035617D01*
X143908395Y-111018298D01*
X143880003Y-110994997D01*
X143856702Y-110966605D01*
X143839383Y-110934204D01*
X143828722Y-110899059D01*
X143825000Y-110861268D01*
X143825000Y-110438732D01*
X143828722Y-110400941D01*
X143839383Y-110365796D01*
X143856702Y-110333395D01*
X143880003Y-110305003D01*
X143908395Y-110281702D01*
X143940796Y-110264383D01*
X143975941Y-110253722D01*
X144013732Y-110250000D01*
X144586268Y-110250000D01*
X144624059Y-110253722D01*
X144624059Y-110253722D01*
G37*
G36*
X155687293Y-109202809D02*
G01*
X155713529Y-109210768D01*
X155737714Y-109223695D01*
X155758910Y-109241090D01*
X155776305Y-109262286D01*
X155789232Y-109286471D01*
X155797191Y-109312707D01*
X155800000Y-109341231D01*
X155800000Y-110215656D01*
X155800480Y-110220533D01*
X155801903Y-110225223D01*
X155802952Y-110227440D01*
X155835591Y-110288502D01*
X155835592Y-110288506D01*
X155867042Y-110392181D01*
X155877661Y-110500000D01*
X155867042Y-110607819D01*
X155847811Y-110671214D01*
X155835591Y-110711498D01*
X155795973Y-110785617D01*
X155784521Y-110807042D01*
X155715790Y-110890790D01*
X155632042Y-110959521D01*
X155632040Y-110959522D01*
X155536498Y-111010591D01*
X155521910Y-111015016D01*
X155432819Y-111042042D01*
X155352018Y-111050000D01*
X154647982Y-111050000D01*
X154567181Y-111042042D01*
X154478090Y-111015016D01*
X154463502Y-111010591D01*
X154367960Y-110959522D01*
X154367958Y-110959521D01*
X154284210Y-110890790D01*
X154215479Y-110807042D01*
X154204027Y-110785617D01*
X154164409Y-110711498D01*
X154152189Y-110671214D01*
X154132958Y-110607819D01*
X154122339Y-110500000D01*
X154132958Y-110392181D01*
X154164408Y-110288506D01*
X154164409Y-110288502D01*
X154197048Y-110227440D01*
X154198924Y-110222913D01*
X154199880Y-110218106D01*
X154200000Y-110215656D01*
X154200000Y-109341231D01*
X154202809Y-109312707D01*
X154210768Y-109286471D01*
X154223695Y-109262286D01*
X154241090Y-109241090D01*
X154262286Y-109223695D01*
X154286471Y-109210768D01*
X154312707Y-109202809D01*
X154341231Y-109200000D01*
X155658769Y-109200000D01*
X155687293Y-109202809D01*
X155687293Y-109202809D01*
G37*
G36*
X147734425Y-110402281D02*
G01*
X147755506Y-110408675D01*
X147774936Y-110419062D01*
X147791964Y-110433036D01*
X147805938Y-110450064D01*
X147816325Y-110469494D01*
X147822719Y-110490575D01*
X147825000Y-110513732D01*
X147825000Y-110786268D01*
X147822719Y-110809425D01*
X147816325Y-110830506D01*
X147805938Y-110849936D01*
X147791964Y-110866964D01*
X147774936Y-110880938D01*
X147755506Y-110891325D01*
X147734425Y-110897719D01*
X147711268Y-110900000D01*
X147188732Y-110900000D01*
X147165575Y-110897719D01*
X147144494Y-110891325D01*
X147125064Y-110880938D01*
X147108036Y-110866964D01*
X147094062Y-110849936D01*
X147083675Y-110830506D01*
X147077281Y-110809425D01*
X147075000Y-110786268D01*
X147075000Y-110513732D01*
X147077281Y-110490575D01*
X147083675Y-110469494D01*
X147094062Y-110450064D01*
X147108036Y-110433036D01*
X147125064Y-110419062D01*
X147144494Y-110408675D01*
X147165575Y-110402281D01*
X147188732Y-110400000D01*
X147711268Y-110400000D01*
X147734425Y-110402281D01*
X147734425Y-110402281D01*
G37*
G36*
X145834425Y-110402281D02*
G01*
X145855506Y-110408675D01*
X145874936Y-110419062D01*
X145891964Y-110433036D01*
X145905938Y-110450064D01*
X145916325Y-110469494D01*
X145922719Y-110490575D01*
X145925000Y-110513732D01*
X145925000Y-110786268D01*
X145922719Y-110809425D01*
X145916325Y-110830506D01*
X145905938Y-110849936D01*
X145891964Y-110866964D01*
X145874936Y-110880938D01*
X145855506Y-110891325D01*
X145834425Y-110897719D01*
X145811268Y-110900000D01*
X145288732Y-110900000D01*
X145265575Y-110897719D01*
X145244494Y-110891325D01*
X145225064Y-110880938D01*
X145208036Y-110866964D01*
X145194062Y-110849936D01*
X145183675Y-110830506D01*
X145177281Y-110809425D01*
X145175000Y-110786268D01*
X145175000Y-110513732D01*
X145177281Y-110490575D01*
X145183675Y-110469494D01*
X145194062Y-110450064D01*
X145208036Y-110433036D01*
X145225064Y-110419062D01*
X145244494Y-110408675D01*
X145265575Y-110402281D01*
X145288732Y-110400000D01*
X145811268Y-110400000D01*
X145834425Y-110402281D01*
X145834425Y-110402281D01*
G37*
G36*
X149324059Y-110003722D02*
G01*
X149359204Y-110014383D01*
X149391605Y-110031702D01*
X149419997Y-110055003D01*
X149443298Y-110083395D01*
X149460617Y-110115796D01*
X149471278Y-110150941D01*
X149475000Y-110188732D01*
X149475000Y-110611268D01*
X149471278Y-110649059D01*
X149460617Y-110684204D01*
X149443298Y-110716605D01*
X149419997Y-110744997D01*
X149391605Y-110768298D01*
X149359204Y-110785617D01*
X149324059Y-110796278D01*
X149286268Y-110800000D01*
X148713732Y-110800000D01*
X148675941Y-110796278D01*
X148640796Y-110785617D01*
X148608395Y-110768298D01*
X148580003Y-110744997D01*
X148556702Y-110716605D01*
X148539383Y-110684204D01*
X148528722Y-110649059D01*
X148525000Y-110611268D01*
X148525000Y-110188732D01*
X148528722Y-110150941D01*
X148539383Y-110115796D01*
X148556702Y-110083395D01*
X148580003Y-110055003D01*
X148608395Y-110031702D01*
X148640796Y-110014383D01*
X148675941Y-110003722D01*
X148713732Y-110000000D01*
X149286268Y-110000000D01*
X149324059Y-110003722D01*
X149324059Y-110003722D01*
G37*
G36*
X142205828Y-108648526D02*
G01*
X142287882Y-108673417D01*
X142363496Y-108713833D01*
X142429774Y-108768226D01*
X142484167Y-108834504D01*
X142524583Y-108910118D01*
X142549474Y-108992172D01*
X142558000Y-109078732D01*
X142558000Y-110001268D01*
X142549474Y-110087828D01*
X142524583Y-110169882D01*
X142484167Y-110245496D01*
X142429774Y-110311774D01*
X142363496Y-110366167D01*
X142287882Y-110406583D01*
X142205828Y-110431474D01*
X142119268Y-110440000D01*
X140896732Y-110440000D01*
X140810172Y-110431474D01*
X140728118Y-110406583D01*
X140687243Y-110384736D01*
X140685026Y-110383687D01*
X140641834Y-110365796D01*
X140573690Y-110337570D01*
X140426283Y-110239076D01*
X140300924Y-110113717D01*
X140202430Y-109966310D01*
X140134586Y-109802520D01*
X140100000Y-109628642D01*
X140100000Y-109451358D01*
X140134586Y-109277480D01*
X140202430Y-109113690D01*
X140300924Y-108966283D01*
X140426283Y-108840924D01*
X140573690Y-108742430D01*
X140685026Y-108696313D01*
X140687243Y-108695264D01*
X140728118Y-108673417D01*
X140810172Y-108648526D01*
X140896732Y-108640000D01*
X142119268Y-108640000D01*
X142205828Y-108648526D01*
X142205828Y-108648526D01*
G37*
G36*
X145834425Y-109752281D02*
G01*
X145855506Y-109758675D01*
X145874936Y-109769062D01*
X145891964Y-109783036D01*
X145905938Y-109800064D01*
X145916325Y-109819494D01*
X145922719Y-109840575D01*
X145925000Y-109863732D01*
X145925000Y-110136268D01*
X145922719Y-110159425D01*
X145916325Y-110180506D01*
X145905938Y-110199936D01*
X145891964Y-110216964D01*
X145874936Y-110230938D01*
X145855506Y-110241325D01*
X145834425Y-110247719D01*
X145811268Y-110250000D01*
X145288732Y-110250000D01*
X145265575Y-110247719D01*
X145244494Y-110241325D01*
X145225064Y-110230938D01*
X145208036Y-110216964D01*
X145194062Y-110199936D01*
X145183675Y-110180506D01*
X145177281Y-110159425D01*
X145175000Y-110136268D01*
X145175000Y-109863732D01*
X145177281Y-109840575D01*
X145183675Y-109819494D01*
X145194062Y-109800064D01*
X145208036Y-109783036D01*
X145225064Y-109769062D01*
X145244494Y-109758675D01*
X145265575Y-109752281D01*
X145288732Y-109750000D01*
X145811268Y-109750000D01*
X145834425Y-109752281D01*
X145834425Y-109752281D01*
G37*
G36*
X152407818Y-108807958D02*
G01*
X152495327Y-108834504D01*
X152511497Y-108839409D01*
X152573930Y-108872781D01*
X152607042Y-108890479D01*
X152690790Y-108959210D01*
X152759521Y-109042958D01*
X152759522Y-109042960D01*
X152810591Y-109138502D01*
X152810661Y-109138732D01*
X152842042Y-109242181D01*
X152850000Y-109322982D01*
X152850000Y-109677017D01*
X152842042Y-109757818D01*
X152810592Y-109861493D01*
X152759521Y-109957042D01*
X152690790Y-110040790D01*
X152607042Y-110109521D01*
X152607040Y-110109522D01*
X152511498Y-110160591D01*
X152506167Y-110162208D01*
X152407819Y-110192042D01*
X152300000Y-110202661D01*
X152192182Y-110192042D01*
X152093834Y-110162208D01*
X152088503Y-110160591D01*
X151992961Y-110109522D01*
X151992959Y-110109521D01*
X151909211Y-110040790D01*
X151840480Y-109957042D01*
X151790605Y-109863732D01*
X151789409Y-109861495D01*
X151776668Y-109819494D01*
X151757958Y-109757819D01*
X151750000Y-109677018D01*
X151750000Y-109322983D01*
X151757958Y-109242182D01*
X151789408Y-109138507D01*
X151789409Y-109138503D01*
X151828272Y-109065796D01*
X151840479Y-109042958D01*
X151909210Y-108959210D01*
X151992958Y-108890479D01*
X151998423Y-108887558D01*
X152088502Y-108839409D01*
X152104672Y-108834504D01*
X152192181Y-108807958D01*
X152300000Y-108797339D01*
X152407818Y-108807958D01*
X152407818Y-108807958D01*
G37*
G36*
X144624059Y-108953722D02*
G01*
X144659204Y-108964383D01*
X144691605Y-108981702D01*
X144719997Y-109005003D01*
X144743298Y-109033395D01*
X144760617Y-109065796D01*
X144771278Y-109100941D01*
X144775000Y-109138732D01*
X144775000Y-109561268D01*
X144771278Y-109599059D01*
X144760617Y-109634204D01*
X144743298Y-109666605D01*
X144719997Y-109694997D01*
X144691605Y-109718298D01*
X144659204Y-109735617D01*
X144624059Y-109746278D01*
X144586268Y-109750000D01*
X144013732Y-109750000D01*
X143975941Y-109746278D01*
X143940796Y-109735617D01*
X143908395Y-109718298D01*
X143880003Y-109694997D01*
X143856702Y-109666605D01*
X143839383Y-109634204D01*
X143828722Y-109599059D01*
X143825000Y-109561268D01*
X143825000Y-109138732D01*
X143828722Y-109100941D01*
X143839383Y-109065796D01*
X143856702Y-109033395D01*
X143880003Y-109005003D01*
X143908395Y-108981702D01*
X143940796Y-108964383D01*
X143975941Y-108953722D01*
X144013732Y-108950000D01*
X144586268Y-108950000D01*
X144624059Y-108953722D01*
X144624059Y-108953722D01*
G37*
G36*
X145834425Y-109102281D02*
G01*
X145855506Y-109108675D01*
X145874936Y-109119062D01*
X145891964Y-109133036D01*
X145905938Y-109150064D01*
X145916325Y-109169494D01*
X145922719Y-109190575D01*
X145925000Y-109213732D01*
X145925000Y-109486268D01*
X145922719Y-109509425D01*
X145916325Y-109530506D01*
X145905938Y-109549936D01*
X145891964Y-109566964D01*
X145874936Y-109580938D01*
X145855506Y-109591325D01*
X145834425Y-109597719D01*
X145811268Y-109600000D01*
X145288732Y-109600000D01*
X145265575Y-109597719D01*
X145244494Y-109591325D01*
X145225064Y-109580938D01*
X145208036Y-109566964D01*
X145194062Y-109549936D01*
X145183675Y-109530506D01*
X145177281Y-109509425D01*
X145175000Y-109486268D01*
X145175000Y-109213732D01*
X145177281Y-109190575D01*
X145183675Y-109169494D01*
X145194062Y-109150064D01*
X145208036Y-109133036D01*
X145225064Y-109119062D01*
X145244494Y-109108675D01*
X145265575Y-109102281D01*
X145288732Y-109100000D01*
X145811268Y-109100000D01*
X145834425Y-109102281D01*
X145834425Y-109102281D01*
G37*
G36*
X147734425Y-109102281D02*
G01*
X147755506Y-109108675D01*
X147774936Y-109119062D01*
X147791964Y-109133036D01*
X147805938Y-109150064D01*
X147816325Y-109169494D01*
X147822719Y-109190575D01*
X147825000Y-109213732D01*
X147825000Y-109486268D01*
X147822719Y-109509425D01*
X147816325Y-109530506D01*
X147805938Y-109549936D01*
X147791964Y-109566964D01*
X147774936Y-109580938D01*
X147755506Y-109591325D01*
X147734425Y-109597719D01*
X147711268Y-109600000D01*
X147188732Y-109600000D01*
X147165575Y-109597719D01*
X147144494Y-109591325D01*
X147125064Y-109580938D01*
X147108036Y-109566964D01*
X147094062Y-109549936D01*
X147083675Y-109530506D01*
X147077281Y-109509425D01*
X147075000Y-109486268D01*
X147075000Y-109213732D01*
X147077281Y-109190575D01*
X147083675Y-109169494D01*
X147094062Y-109150064D01*
X147108036Y-109133036D01*
X147125064Y-109119062D01*
X147144494Y-109108675D01*
X147165575Y-109102281D01*
X147188732Y-109100000D01*
X147711268Y-109100000D01*
X147734425Y-109102281D01*
X147734425Y-109102281D01*
G37*
G36*
X149324059Y-108703722D02*
G01*
X149359204Y-108714383D01*
X149391605Y-108731702D01*
X149419997Y-108755003D01*
X149443298Y-108783395D01*
X149460617Y-108815796D01*
X149471278Y-108850941D01*
X149475000Y-108888732D01*
X149475000Y-109311268D01*
X149471278Y-109349059D01*
X149460617Y-109384204D01*
X149443298Y-109416605D01*
X149419997Y-109444997D01*
X149391605Y-109468298D01*
X149359204Y-109485617D01*
X149324059Y-109496278D01*
X149286268Y-109500000D01*
X148713732Y-109500000D01*
X148675941Y-109496278D01*
X148640796Y-109485617D01*
X148608395Y-109468298D01*
X148580003Y-109444997D01*
X148556702Y-109416605D01*
X148539383Y-109384204D01*
X148528722Y-109349059D01*
X148525000Y-109311268D01*
X148525000Y-108888732D01*
X148528722Y-108850941D01*
X148539383Y-108815796D01*
X148556702Y-108783395D01*
X148580003Y-108755003D01*
X148608395Y-108731702D01*
X148640796Y-108714383D01*
X148675941Y-108703722D01*
X148713732Y-108700000D01*
X149286268Y-108700000D01*
X149324059Y-108703722D01*
X149324059Y-108703722D01*
G37*
G36*
X155687293Y-107202809D02*
G01*
X155713529Y-107210768D01*
X155737714Y-107223695D01*
X155758910Y-107241090D01*
X155776305Y-107262286D01*
X155789232Y-107286471D01*
X155797191Y-107312707D01*
X155800000Y-107341231D01*
X155800000Y-108658769D01*
X155797191Y-108687293D01*
X155789232Y-108713529D01*
X155776305Y-108737714D01*
X155758910Y-108758910D01*
X155737714Y-108776305D01*
X155713529Y-108789232D01*
X155687293Y-108797191D01*
X155658769Y-108800000D01*
X154341231Y-108800000D01*
X154312707Y-108797191D01*
X154286471Y-108789232D01*
X154262286Y-108776305D01*
X154241090Y-108758910D01*
X154223695Y-108737714D01*
X154210768Y-108713529D01*
X154202809Y-108687293D01*
X154200000Y-108658769D01*
X154200000Y-107341231D01*
X154202809Y-107312707D01*
X154210768Y-107286471D01*
X154223695Y-107262286D01*
X154241090Y-107241090D01*
X154262286Y-107223695D01*
X154286471Y-107210768D01*
X154312707Y-107202809D01*
X154341231Y-107200000D01*
X155658769Y-107200000D01*
X155687293Y-107202809D01*
X155687293Y-107202809D01*
G37*
G36*
X152934425Y-108052281D02*
G01*
X152955506Y-108058675D01*
X152974936Y-108069062D01*
X152991964Y-108083036D01*
X153005938Y-108100064D01*
X153016325Y-108119494D01*
X153022719Y-108140575D01*
X153025000Y-108163732D01*
X153025000Y-108436268D01*
X153022719Y-108459425D01*
X153016325Y-108480506D01*
X153005938Y-108499936D01*
X152991964Y-108516964D01*
X152974936Y-108530938D01*
X152955506Y-108541325D01*
X152934425Y-108547719D01*
X152911268Y-108550000D01*
X151688732Y-108550000D01*
X151665575Y-108547719D01*
X151644494Y-108541325D01*
X151625064Y-108530938D01*
X151608036Y-108516964D01*
X151594062Y-108499936D01*
X151583675Y-108480506D01*
X151577281Y-108459425D01*
X151575000Y-108436268D01*
X151575000Y-108163732D01*
X151577281Y-108140575D01*
X151583675Y-108119494D01*
X151594062Y-108100064D01*
X151608036Y-108083036D01*
X151625064Y-108069062D01*
X151644494Y-108058675D01*
X151665575Y-108052281D01*
X151688732Y-108050000D01*
X152911268Y-108050000D01*
X152934425Y-108052281D01*
X152934425Y-108052281D01*
G37*
G36*
X148599059Y-107528722D02*
G01*
X148634204Y-107539383D01*
X148666605Y-107556702D01*
X148694997Y-107580003D01*
X148718298Y-107608395D01*
X148735617Y-107640796D01*
X148746278Y-107675941D01*
X148750000Y-107713732D01*
X148750000Y-108286268D01*
X148746278Y-108324059D01*
X148735617Y-108359204D01*
X148718298Y-108391605D01*
X148694997Y-108419997D01*
X148666605Y-108443298D01*
X148634204Y-108460617D01*
X148599059Y-108471278D01*
X148561268Y-108475000D01*
X148138732Y-108475000D01*
X148100941Y-108471278D01*
X148065796Y-108460617D01*
X148033395Y-108443298D01*
X148005003Y-108419997D01*
X147981702Y-108391605D01*
X147964383Y-108359204D01*
X147953722Y-108324059D01*
X147950000Y-108286268D01*
X147950000Y-107713732D01*
X147953722Y-107675941D01*
X147964383Y-107640796D01*
X147981702Y-107608395D01*
X148005003Y-107580003D01*
X148033395Y-107556702D01*
X148065796Y-107539383D01*
X148100941Y-107528722D01*
X148138732Y-107525000D01*
X148561268Y-107525000D01*
X148599059Y-107528722D01*
X148599059Y-107528722D01*
G37*
G36*
X147399059Y-107528722D02*
G01*
X147434204Y-107539383D01*
X147466605Y-107556702D01*
X147494997Y-107580003D01*
X147518298Y-107608395D01*
X147535617Y-107640796D01*
X147546278Y-107675941D01*
X147550000Y-107713732D01*
X147550000Y-108286268D01*
X147546278Y-108324059D01*
X147535617Y-108359204D01*
X147518298Y-108391605D01*
X147494997Y-108419997D01*
X147466605Y-108443298D01*
X147434204Y-108460617D01*
X147399059Y-108471278D01*
X147361268Y-108475000D01*
X146938732Y-108475000D01*
X146900941Y-108471278D01*
X146865796Y-108460617D01*
X146833395Y-108443298D01*
X146805003Y-108419997D01*
X146781702Y-108391605D01*
X146764383Y-108359204D01*
X146753722Y-108324059D01*
X146750000Y-108286268D01*
X146750000Y-107713732D01*
X146753722Y-107675941D01*
X146764383Y-107640796D01*
X146781702Y-107608395D01*
X146805003Y-107580003D01*
X146833395Y-107556702D01*
X146865796Y-107539383D01*
X146900941Y-107528722D01*
X146938732Y-107525000D01*
X147361268Y-107525000D01*
X147399059Y-107528722D01*
X147399059Y-107528722D01*
G37*
G36*
X146099059Y-107528722D02*
G01*
X146134204Y-107539383D01*
X146166605Y-107556702D01*
X146194997Y-107580003D01*
X146218298Y-107608395D01*
X146235617Y-107640796D01*
X146246278Y-107675941D01*
X146250000Y-107713732D01*
X146250000Y-108286268D01*
X146246278Y-108324059D01*
X146235617Y-108359204D01*
X146218298Y-108391605D01*
X146194997Y-108419997D01*
X146166605Y-108443298D01*
X146134204Y-108460617D01*
X146099059Y-108471278D01*
X146061268Y-108475000D01*
X145638732Y-108475000D01*
X145600941Y-108471278D01*
X145565796Y-108460617D01*
X145533395Y-108443298D01*
X145505003Y-108419997D01*
X145481702Y-108391605D01*
X145464383Y-108359204D01*
X145453722Y-108324059D01*
X145450000Y-108286268D01*
X145450000Y-107713732D01*
X145453722Y-107675941D01*
X145464383Y-107640796D01*
X145481702Y-107608395D01*
X145505003Y-107580003D01*
X145533395Y-107556702D01*
X145565796Y-107539383D01*
X145600941Y-107528722D01*
X145638732Y-107525000D01*
X146061268Y-107525000D01*
X146099059Y-107528722D01*
X146099059Y-107528722D01*
G37*
G36*
X149899059Y-107528722D02*
G01*
X149934204Y-107539383D01*
X149966605Y-107556702D01*
X149994997Y-107580003D01*
X150018298Y-107608395D01*
X150035617Y-107640796D01*
X150046278Y-107675941D01*
X150050000Y-107713732D01*
X150050000Y-108286268D01*
X150046278Y-108324059D01*
X150035617Y-108359204D01*
X150018298Y-108391605D01*
X149994997Y-108419997D01*
X149966605Y-108443298D01*
X149934204Y-108460617D01*
X149899059Y-108471278D01*
X149861268Y-108475000D01*
X149438732Y-108475000D01*
X149400941Y-108471278D01*
X149365796Y-108460617D01*
X149333395Y-108443298D01*
X149305003Y-108419997D01*
X149281702Y-108391605D01*
X149264383Y-108359204D01*
X149253722Y-108324059D01*
X149250000Y-108286268D01*
X149250000Y-107713732D01*
X149253722Y-107675941D01*
X149264383Y-107640796D01*
X149281702Y-107608395D01*
X149305003Y-107580003D01*
X149333395Y-107556702D01*
X149365796Y-107539383D01*
X149400941Y-107528722D01*
X149438732Y-107525000D01*
X149861268Y-107525000D01*
X149899059Y-107528722D01*
X149899059Y-107528722D01*
G37*
G36*
X142205828Y-106108526D02*
G01*
X142287882Y-106133417D01*
X142363496Y-106173833D01*
X142429774Y-106228226D01*
X142484167Y-106294504D01*
X142524583Y-106370118D01*
X142549474Y-106452172D01*
X142558000Y-106538732D01*
X142558000Y-107461268D01*
X142549474Y-107547828D01*
X142524583Y-107629882D01*
X142484167Y-107705496D01*
X142429774Y-107771774D01*
X142363496Y-107826167D01*
X142287882Y-107866583D01*
X142205828Y-107891474D01*
X142119268Y-107900000D01*
X140896732Y-107900000D01*
X140810172Y-107891474D01*
X140728118Y-107866583D01*
X140687243Y-107844736D01*
X140685026Y-107843687D01*
X140642729Y-107826167D01*
X140573690Y-107797570D01*
X140426283Y-107699076D01*
X140300924Y-107573717D01*
X140202430Y-107426310D01*
X140134586Y-107262520D01*
X140100000Y-107088642D01*
X140100000Y-106911358D01*
X140134586Y-106737480D01*
X140202430Y-106573690D01*
X140300924Y-106426283D01*
X140426283Y-106300924D01*
X140573690Y-106202430D01*
X140685026Y-106156313D01*
X140687243Y-106155264D01*
X140728118Y-106133417D01*
X140810172Y-106108526D01*
X140896732Y-106100000D01*
X142119268Y-106100000D01*
X142205828Y-106108526D01*
X142205828Y-106108526D01*
G37*
G36*
X152934425Y-107402281D02*
G01*
X152955506Y-107408675D01*
X152974936Y-107419062D01*
X152991964Y-107433036D01*
X153005938Y-107450064D01*
X153016325Y-107469494D01*
X153022719Y-107490575D01*
X153025000Y-107513732D01*
X153025000Y-107786268D01*
X153022719Y-107809425D01*
X153016325Y-107830506D01*
X153005938Y-107849936D01*
X152991964Y-107866964D01*
X152974936Y-107880938D01*
X152955506Y-107891325D01*
X152934425Y-107897719D01*
X152911268Y-107900000D01*
X151688732Y-107900000D01*
X151665575Y-107897719D01*
X151644494Y-107891325D01*
X151625064Y-107880938D01*
X151608036Y-107866964D01*
X151594062Y-107849936D01*
X151583675Y-107830506D01*
X151577281Y-107809425D01*
X151575000Y-107786268D01*
X151575000Y-107513732D01*
X151577281Y-107490575D01*
X151583675Y-107469494D01*
X151594062Y-107450064D01*
X151608036Y-107433036D01*
X151625064Y-107419062D01*
X151644494Y-107408675D01*
X151665575Y-107402281D01*
X151688732Y-107400000D01*
X152911268Y-107400000D01*
X152934425Y-107402281D01*
X152934425Y-107402281D01*
G37*
G36*
X152934425Y-106752281D02*
G01*
X152955506Y-106758675D01*
X152974936Y-106769062D01*
X152991964Y-106783036D01*
X153005938Y-106800064D01*
X153016325Y-106819494D01*
X153022719Y-106840575D01*
X153025000Y-106863732D01*
X153025000Y-107136268D01*
X153022719Y-107159425D01*
X153016325Y-107180506D01*
X153005938Y-107199936D01*
X152991964Y-107216964D01*
X152974936Y-107230938D01*
X152955506Y-107241325D01*
X152934425Y-107247719D01*
X152911268Y-107250000D01*
X151688732Y-107250000D01*
X151665575Y-107247719D01*
X151644494Y-107241325D01*
X151625064Y-107230938D01*
X151608036Y-107216964D01*
X151594062Y-107199936D01*
X151583675Y-107180506D01*
X151577281Y-107159425D01*
X151575000Y-107136268D01*
X151575000Y-106863732D01*
X151577281Y-106840575D01*
X151583675Y-106819494D01*
X151594062Y-106800064D01*
X151608036Y-106783036D01*
X151625064Y-106769062D01*
X151644494Y-106758675D01*
X151665575Y-106752281D01*
X151688732Y-106750000D01*
X152911268Y-106750000D01*
X152934425Y-106752281D01*
X152934425Y-106752281D01*
G37*
G36*
X147604548Y-105976801D02*
G01*
X147620937Y-105981771D01*
X147636046Y-105989849D01*
X147649286Y-106000714D01*
X147660151Y-106013954D01*
X147668229Y-106029063D01*
X147673199Y-106045452D01*
X147675000Y-106063733D01*
X147675000Y-106836267D01*
X147673199Y-106854548D01*
X147668229Y-106870937D01*
X147660151Y-106886046D01*
X147649286Y-106899286D01*
X147636046Y-106910151D01*
X147620937Y-106918229D01*
X147604548Y-106923199D01*
X147586267Y-106925000D01*
X147363733Y-106925000D01*
X147345452Y-106923199D01*
X147329063Y-106918229D01*
X147313954Y-106910151D01*
X147300714Y-106899286D01*
X147289849Y-106886046D01*
X147281771Y-106870937D01*
X147276801Y-106854548D01*
X147275000Y-106836267D01*
X147275000Y-106063733D01*
X147276801Y-106045452D01*
X147281771Y-106029063D01*
X147289849Y-106013954D01*
X147300714Y-106000714D01*
X147313954Y-105989849D01*
X147329063Y-105981771D01*
X147345452Y-105976801D01*
X147363733Y-105975000D01*
X147586267Y-105975000D01*
X147604548Y-105976801D01*
X147604548Y-105976801D01*
G37*
G36*
X145654548Y-105976801D02*
G01*
X145670937Y-105981771D01*
X145686046Y-105989849D01*
X145699286Y-106000714D01*
X145710151Y-106013954D01*
X145718229Y-106029063D01*
X145723199Y-106045452D01*
X145725000Y-106063733D01*
X145725000Y-106836267D01*
X145723199Y-106854548D01*
X145718229Y-106870937D01*
X145710151Y-106886046D01*
X145699286Y-106899286D01*
X145686046Y-106910151D01*
X145670937Y-106918229D01*
X145654548Y-106923199D01*
X145636267Y-106925000D01*
X145413733Y-106925000D01*
X145395452Y-106923199D01*
X145379063Y-106918229D01*
X145363954Y-106910151D01*
X145350714Y-106899286D01*
X145339849Y-106886046D01*
X145331771Y-106870937D01*
X145326801Y-106854548D01*
X145325000Y-106836267D01*
X145325000Y-106063733D01*
X145326801Y-106045452D01*
X145331771Y-106029063D01*
X145339849Y-106013954D01*
X145350714Y-106000714D01*
X145363954Y-105989849D01*
X145379063Y-105981771D01*
X145395452Y-105976801D01*
X145413733Y-105975000D01*
X145636267Y-105975000D01*
X145654548Y-105976801D01*
X145654548Y-105976801D01*
G37*
G36*
X146304548Y-105976801D02*
G01*
X146320937Y-105981771D01*
X146336046Y-105989849D01*
X146349286Y-106000714D01*
X146360151Y-106013954D01*
X146368229Y-106029063D01*
X146373199Y-106045452D01*
X146375000Y-106063733D01*
X146375000Y-106836267D01*
X146373199Y-106854548D01*
X146368229Y-106870937D01*
X146360151Y-106886046D01*
X146349286Y-106899286D01*
X146336046Y-106910151D01*
X146320937Y-106918229D01*
X146304548Y-106923199D01*
X146286267Y-106925000D01*
X146063733Y-106925000D01*
X146045452Y-106923199D01*
X146029063Y-106918229D01*
X146013954Y-106910151D01*
X146000714Y-106899286D01*
X145989849Y-106886046D01*
X145981771Y-106870937D01*
X145976801Y-106854548D01*
X145975000Y-106836267D01*
X145975000Y-106063733D01*
X145976801Y-106045452D01*
X145981771Y-106029063D01*
X145989849Y-106013954D01*
X146000714Y-106000714D01*
X146013954Y-105989849D01*
X146029063Y-105981771D01*
X146045452Y-105976801D01*
X146063733Y-105975000D01*
X146286267Y-105975000D01*
X146304548Y-105976801D01*
X146304548Y-105976801D01*
G37*
G36*
X146954548Y-105976801D02*
G01*
X146970937Y-105981771D01*
X146986046Y-105989849D01*
X146999286Y-106000714D01*
X147010151Y-106013954D01*
X147018229Y-106029063D01*
X147023199Y-106045452D01*
X147025000Y-106063733D01*
X147025000Y-106836267D01*
X147023199Y-106854548D01*
X147018229Y-106870937D01*
X147010151Y-106886046D01*
X146999286Y-106899286D01*
X146986046Y-106910151D01*
X146970937Y-106918229D01*
X146954548Y-106923199D01*
X146936267Y-106925000D01*
X146713733Y-106925000D01*
X146695452Y-106923199D01*
X146679063Y-106918229D01*
X146663954Y-106910151D01*
X146650714Y-106899286D01*
X146639849Y-106886046D01*
X146631771Y-106870937D01*
X146626801Y-106854548D01*
X146625000Y-106836267D01*
X146625000Y-106063733D01*
X146626801Y-106045452D01*
X146631771Y-106029063D01*
X146639849Y-106013954D01*
X146650714Y-106000714D01*
X146663954Y-105989849D01*
X146679063Y-105981771D01*
X146695452Y-105976801D01*
X146713733Y-105975000D01*
X146936267Y-105975000D01*
X146954548Y-105976801D01*
X146954548Y-105976801D01*
G37*
G36*
X155687293Y-105202809D02*
G01*
X155713529Y-105210768D01*
X155737714Y-105223695D01*
X155758910Y-105241090D01*
X155776305Y-105262286D01*
X155789232Y-105286471D01*
X155797191Y-105312707D01*
X155800000Y-105341231D01*
X155800000Y-106658769D01*
X155797191Y-106687293D01*
X155789232Y-106713529D01*
X155776305Y-106737714D01*
X155758910Y-106758910D01*
X155737714Y-106776305D01*
X155713529Y-106789232D01*
X155687293Y-106797191D01*
X155658769Y-106800000D01*
X154341231Y-106800000D01*
X154312707Y-106797191D01*
X154286471Y-106789232D01*
X154262286Y-106776305D01*
X154241090Y-106758910D01*
X154223695Y-106737714D01*
X154210768Y-106713529D01*
X154202809Y-106687293D01*
X154200000Y-106658769D01*
X154200000Y-105341231D01*
X154202809Y-105312707D01*
X154210768Y-105286471D01*
X154223695Y-105262286D01*
X154241090Y-105241090D01*
X154262286Y-105223695D01*
X154286471Y-105210768D01*
X154312707Y-105202809D01*
X154341231Y-105200000D01*
X155658769Y-105200000D01*
X155687293Y-105202809D01*
X155687293Y-105202809D01*
G37*
G36*
X152934425Y-106102281D02*
G01*
X152955506Y-106108675D01*
X152974936Y-106119062D01*
X152991964Y-106133036D01*
X153005938Y-106150064D01*
X153016325Y-106169494D01*
X153022719Y-106190575D01*
X153025000Y-106213732D01*
X153025000Y-106486268D01*
X153022719Y-106509425D01*
X153016325Y-106530506D01*
X153005938Y-106549936D01*
X152991964Y-106566964D01*
X152974936Y-106580938D01*
X152955506Y-106591325D01*
X152934425Y-106597719D01*
X152911268Y-106600000D01*
X151688732Y-106600000D01*
X151665575Y-106597719D01*
X151644494Y-106591325D01*
X151625064Y-106580938D01*
X151608036Y-106566964D01*
X151594062Y-106549936D01*
X151583675Y-106530506D01*
X151577281Y-106509425D01*
X151575000Y-106486268D01*
X151575000Y-106213732D01*
X151577281Y-106190575D01*
X151583675Y-106169494D01*
X151594062Y-106150064D01*
X151608036Y-106133036D01*
X151625064Y-106119062D01*
X151644494Y-106108675D01*
X151665575Y-106102281D01*
X151688732Y-106100000D01*
X152911268Y-106100000D01*
X152934425Y-106102281D01*
X152934425Y-106102281D01*
G37*
G36*
X152934425Y-105452281D02*
G01*
X152955506Y-105458675D01*
X152974936Y-105469062D01*
X152991964Y-105483036D01*
X153005938Y-105500064D01*
X153016325Y-105519494D01*
X153022719Y-105540575D01*
X153025000Y-105563732D01*
X153025000Y-105836268D01*
X153022719Y-105859425D01*
X153016325Y-105880506D01*
X153005938Y-105899936D01*
X152991964Y-105916964D01*
X152974936Y-105930938D01*
X152955506Y-105941325D01*
X152934425Y-105947719D01*
X152911268Y-105950000D01*
X151688732Y-105950000D01*
X151665575Y-105947719D01*
X151644494Y-105941325D01*
X151625064Y-105930938D01*
X151608036Y-105916964D01*
X151594062Y-105899936D01*
X151583675Y-105880506D01*
X151577281Y-105859425D01*
X151575000Y-105836268D01*
X151575000Y-105563732D01*
X151577281Y-105540575D01*
X151583675Y-105519494D01*
X151594062Y-105500064D01*
X151608036Y-105483036D01*
X151625064Y-105469062D01*
X151644494Y-105458675D01*
X151665575Y-105452281D01*
X151688732Y-105450000D01*
X152911268Y-105450000D01*
X152934425Y-105452281D01*
X152934425Y-105452281D01*
G37*
G36*
X144954548Y-105276801D02*
G01*
X144970937Y-105281771D01*
X144986046Y-105289849D01*
X144999286Y-105300714D01*
X145010151Y-105313954D01*
X145018229Y-105329063D01*
X145023199Y-105345452D01*
X145025000Y-105363733D01*
X145025000Y-105586267D01*
X145023199Y-105604548D01*
X145018229Y-105620937D01*
X145010151Y-105636046D01*
X144999286Y-105649286D01*
X144986046Y-105660151D01*
X144970937Y-105668229D01*
X144954548Y-105673199D01*
X144936267Y-105675000D01*
X144163733Y-105675000D01*
X144145452Y-105673199D01*
X144129063Y-105668229D01*
X144113954Y-105660151D01*
X144100714Y-105649286D01*
X144089849Y-105636046D01*
X144081771Y-105620937D01*
X144076801Y-105604548D01*
X144075000Y-105586267D01*
X144075000Y-105363733D01*
X144076801Y-105345452D01*
X144081771Y-105329063D01*
X144089849Y-105313954D01*
X144100714Y-105300714D01*
X144113954Y-105289849D01*
X144129063Y-105281771D01*
X144145452Y-105276801D01*
X144163733Y-105275000D01*
X144936267Y-105275000D01*
X144954548Y-105276801D01*
X144954548Y-105276801D01*
G37*
G36*
X148854548Y-105276801D02*
G01*
X148870937Y-105281771D01*
X148886046Y-105289849D01*
X148899286Y-105300714D01*
X148910151Y-105313954D01*
X148918229Y-105329063D01*
X148923199Y-105345452D01*
X148925000Y-105363733D01*
X148925000Y-105586267D01*
X148923199Y-105604548D01*
X148918229Y-105620937D01*
X148910151Y-105636046D01*
X148899286Y-105649286D01*
X148886046Y-105660151D01*
X148870937Y-105668229D01*
X148854548Y-105673199D01*
X148836267Y-105675000D01*
X148063733Y-105675000D01*
X148045452Y-105673199D01*
X148029063Y-105668229D01*
X148013954Y-105660151D01*
X148000714Y-105649286D01*
X147989849Y-105636046D01*
X147981771Y-105620937D01*
X147976801Y-105604548D01*
X147975000Y-105586267D01*
X147975000Y-105363733D01*
X147976801Y-105345452D01*
X147981771Y-105329063D01*
X147989849Y-105313954D01*
X148000714Y-105300714D01*
X148013954Y-105289849D01*
X148029063Y-105281771D01*
X148045452Y-105276801D01*
X148063733Y-105275000D01*
X148836267Y-105275000D01*
X148854548Y-105276801D01*
X148854548Y-105276801D01*
G37*
G36*
X147404497Y-103404786D02*
G01*
X147450035Y-103418599D01*
X147491999Y-103441029D01*
X147528783Y-103471217D01*
X147558971Y-103508001D01*
X147581401Y-103549965D01*
X147595214Y-103595503D01*
X147600000Y-103644090D01*
X147600000Y-105355910D01*
X147595214Y-105404497D01*
X147581401Y-105450035D01*
X147558971Y-105491999D01*
X147528783Y-105528783D01*
X147491999Y-105558971D01*
X147450035Y-105581401D01*
X147404497Y-105595214D01*
X147355910Y-105600000D01*
X145644090Y-105600000D01*
X145595503Y-105595214D01*
X145549965Y-105581401D01*
X145508001Y-105558971D01*
X145471217Y-105528783D01*
X145441029Y-105491999D01*
X145418599Y-105450035D01*
X145404786Y-105404497D01*
X145400000Y-105355910D01*
X145400000Y-103644090D01*
X145404786Y-103595503D01*
X145418599Y-103549965D01*
X145441029Y-103508001D01*
X145471217Y-103471217D01*
X145508001Y-103441029D01*
X145549965Y-103418599D01*
X145595503Y-103404786D01*
X145644090Y-103400000D01*
X147355910Y-103400000D01*
X147404497Y-103404786D01*
X147404497Y-103404786D01*
G37*
G36*
X152407818Y-103807958D02*
G01*
X152496909Y-103834984D01*
X152511497Y-103839409D01*
X152573930Y-103872781D01*
X152607042Y-103890479D01*
X152690790Y-103959210D01*
X152759521Y-104042958D01*
X152759522Y-104042960D01*
X152810591Y-104138502D01*
X152815016Y-104153090D01*
X152842042Y-104242181D01*
X152850000Y-104322982D01*
X152850000Y-104677017D01*
X152842042Y-104757818D01*
X152810592Y-104861493D01*
X152759521Y-104957042D01*
X152690790Y-105040790D01*
X152607042Y-105109521D01*
X152607040Y-105109522D01*
X152511498Y-105160591D01*
X152496910Y-105165016D01*
X152407819Y-105192042D01*
X152300000Y-105202661D01*
X152192182Y-105192042D01*
X152103091Y-105165016D01*
X152088503Y-105160591D01*
X151992961Y-105109522D01*
X151992959Y-105109521D01*
X151909211Y-105040790D01*
X151840480Y-104957042D01*
X151812215Y-104904161D01*
X151789409Y-104861495D01*
X151783471Y-104841920D01*
X151757958Y-104757819D01*
X151750000Y-104677018D01*
X151750000Y-104322983D01*
X151757958Y-104242182D01*
X151789408Y-104138507D01*
X151789409Y-104138503D01*
X151833780Y-104055491D01*
X151840479Y-104042958D01*
X151909210Y-103959210D01*
X151992958Y-103890479D01*
X151998423Y-103887558D01*
X152088502Y-103839409D01*
X152103090Y-103834984D01*
X152192181Y-103807958D01*
X152300000Y-103797339D01*
X152407818Y-103807958D01*
X152407818Y-103807958D01*
G37*
G36*
X144954548Y-104626801D02*
G01*
X144970937Y-104631771D01*
X144986046Y-104639849D01*
X144999286Y-104650714D01*
X145010151Y-104663954D01*
X145018229Y-104679063D01*
X145023199Y-104695452D01*
X145025000Y-104713733D01*
X145025000Y-104936267D01*
X145023199Y-104954548D01*
X145018229Y-104970937D01*
X145010151Y-104986046D01*
X144999286Y-104999286D01*
X144986046Y-105010151D01*
X144970937Y-105018229D01*
X144954548Y-105023199D01*
X144936267Y-105025000D01*
X144163733Y-105025000D01*
X144145452Y-105023199D01*
X144129063Y-105018229D01*
X144113954Y-105010151D01*
X144100714Y-104999286D01*
X144089849Y-104986046D01*
X144081771Y-104970937D01*
X144076801Y-104954548D01*
X144075000Y-104936267D01*
X144075000Y-104713733D01*
X144076801Y-104695452D01*
X144081771Y-104679063D01*
X144089849Y-104663954D01*
X144100714Y-104650714D01*
X144113954Y-104639849D01*
X144129063Y-104631771D01*
X144145452Y-104626801D01*
X144163733Y-104625000D01*
X144936267Y-104625000D01*
X144954548Y-104626801D01*
X144954548Y-104626801D01*
G37*
G36*
X148854548Y-104626801D02*
G01*
X148870937Y-104631771D01*
X148886046Y-104639849D01*
X148899286Y-104650714D01*
X148910151Y-104663954D01*
X148918229Y-104679063D01*
X148923199Y-104695452D01*
X148925000Y-104713733D01*
X148925000Y-104936267D01*
X148923199Y-104954548D01*
X148918229Y-104970937D01*
X148910151Y-104986046D01*
X148899286Y-104999286D01*
X148886046Y-105010151D01*
X148870937Y-105018229D01*
X148854548Y-105023199D01*
X148836267Y-105025000D01*
X148063733Y-105025000D01*
X148045452Y-105023199D01*
X148029063Y-105018229D01*
X148013954Y-105010151D01*
X148000714Y-104999286D01*
X147989849Y-104986046D01*
X147981771Y-104970937D01*
X147976801Y-104954548D01*
X147975000Y-104936267D01*
X147975000Y-104713733D01*
X147976801Y-104695452D01*
X147981771Y-104679063D01*
X147989849Y-104663954D01*
X148000714Y-104650714D01*
X148013954Y-104639849D01*
X148029063Y-104631771D01*
X148045452Y-104626801D01*
X148063733Y-104625000D01*
X148836267Y-104625000D01*
X148854548Y-104626801D01*
X148854548Y-104626801D01*
G37*
G36*
X142205828Y-103188526D02*
G01*
X142287882Y-103213417D01*
X142363496Y-103253833D01*
X142429774Y-103308226D01*
X142484167Y-103374504D01*
X142524583Y-103450118D01*
X142549474Y-103532172D01*
X142558000Y-103618732D01*
X142558000Y-104541268D01*
X142549474Y-104627828D01*
X142524583Y-104709882D01*
X142484167Y-104785496D01*
X142429774Y-104851774D01*
X142363496Y-104906167D01*
X142287882Y-104946583D01*
X142205828Y-104971474D01*
X142119268Y-104980000D01*
X140896732Y-104980000D01*
X140810172Y-104971474D01*
X140728118Y-104946583D01*
X140687243Y-104924736D01*
X140685026Y-104923687D01*
X140642729Y-104906167D01*
X140573690Y-104877570D01*
X140426283Y-104779076D01*
X140300924Y-104653717D01*
X140202430Y-104506310D01*
X140134586Y-104342520D01*
X140100000Y-104168642D01*
X140100000Y-103991358D01*
X140134586Y-103817480D01*
X140202430Y-103653690D01*
X140300924Y-103506283D01*
X140426283Y-103380924D01*
X140573690Y-103282430D01*
X140685026Y-103236313D01*
X140687243Y-103235264D01*
X140728118Y-103213417D01*
X140810172Y-103188526D01*
X140896732Y-103180000D01*
X142119268Y-103180000D01*
X142205828Y-103188526D01*
X142205828Y-103188526D01*
G37*
G36*
X155432819Y-102957958D02*
G01*
X155521910Y-102984984D01*
X155536498Y-102989409D01*
X155603083Y-103025000D01*
X155632042Y-103040479D01*
X155715790Y-103109210D01*
X155784521Y-103192958D01*
X155784522Y-103192960D01*
X155835591Y-103288502D01*
X155835592Y-103288506D01*
X155867042Y-103392181D01*
X155877661Y-103500000D01*
X155867042Y-103607819D01*
X155850221Y-103663268D01*
X155835591Y-103711498D01*
X155802952Y-103772560D01*
X155801076Y-103777087D01*
X155800120Y-103781894D01*
X155800000Y-103784344D01*
X155800000Y-104658769D01*
X155797191Y-104687293D01*
X155789232Y-104713529D01*
X155776305Y-104737714D01*
X155758910Y-104758910D01*
X155737714Y-104776305D01*
X155713529Y-104789232D01*
X155687293Y-104797191D01*
X155658769Y-104800000D01*
X154341231Y-104800000D01*
X154312707Y-104797191D01*
X154286471Y-104789232D01*
X154262286Y-104776305D01*
X154241090Y-104758910D01*
X154223695Y-104737714D01*
X154210768Y-104713529D01*
X154202809Y-104687293D01*
X154200000Y-104658769D01*
X154200000Y-103784344D01*
X154199520Y-103779467D01*
X154198097Y-103774777D01*
X154197048Y-103772560D01*
X154164409Y-103711498D01*
X154149779Y-103663268D01*
X154132958Y-103607819D01*
X154122339Y-103500000D01*
X154132958Y-103392181D01*
X154164408Y-103288506D01*
X154164409Y-103288502D01*
X154215478Y-103192960D01*
X154215479Y-103192958D01*
X154284210Y-103109210D01*
X154367958Y-103040479D01*
X154396917Y-103025000D01*
X154463502Y-102989409D01*
X154478090Y-102984984D01*
X154567181Y-102957958D01*
X154647982Y-102950000D01*
X155352018Y-102950000D01*
X155432819Y-102957958D01*
X155432819Y-102957958D01*
G37*
G36*
X148854548Y-103976801D02*
G01*
X148870937Y-103981771D01*
X148886046Y-103989849D01*
X148899286Y-104000714D01*
X148910151Y-104013954D01*
X148918229Y-104029063D01*
X148923199Y-104045452D01*
X148925000Y-104063733D01*
X148925000Y-104286267D01*
X148923199Y-104304548D01*
X148918229Y-104320937D01*
X148910151Y-104336046D01*
X148899286Y-104349286D01*
X148886046Y-104360151D01*
X148870937Y-104368229D01*
X148854548Y-104373199D01*
X148836267Y-104375000D01*
X148063733Y-104375000D01*
X148045452Y-104373199D01*
X148029063Y-104368229D01*
X148013954Y-104360151D01*
X148000714Y-104349286D01*
X147989849Y-104336046D01*
X147981771Y-104320937D01*
X147976801Y-104304548D01*
X147975000Y-104286267D01*
X147975000Y-104063733D01*
X147976801Y-104045452D01*
X147981771Y-104029063D01*
X147989849Y-104013954D01*
X148000714Y-104000714D01*
X148013954Y-103989849D01*
X148029063Y-103981771D01*
X148045452Y-103976801D01*
X148063733Y-103975000D01*
X148836267Y-103975000D01*
X148854548Y-103976801D01*
X148854548Y-103976801D01*
G37*
G36*
X144954548Y-103976801D02*
G01*
X144970937Y-103981771D01*
X144986046Y-103989849D01*
X144999286Y-104000714D01*
X145010151Y-104013954D01*
X145018229Y-104029063D01*
X145023199Y-104045452D01*
X145025000Y-104063733D01*
X145025000Y-104286267D01*
X145023199Y-104304548D01*
X145018229Y-104320937D01*
X145010151Y-104336046D01*
X144999286Y-104349286D01*
X144986046Y-104360151D01*
X144970937Y-104368229D01*
X144954548Y-104373199D01*
X144936267Y-104375000D01*
X144163733Y-104375000D01*
X144145452Y-104373199D01*
X144129063Y-104368229D01*
X144113954Y-104360151D01*
X144100714Y-104349286D01*
X144089849Y-104336046D01*
X144081771Y-104320937D01*
X144076801Y-104304548D01*
X144075000Y-104286267D01*
X144075000Y-104063733D01*
X144076801Y-104045452D01*
X144081771Y-104029063D01*
X144089849Y-104013954D01*
X144100714Y-104000714D01*
X144113954Y-103989849D01*
X144129063Y-103981771D01*
X144145452Y-103976801D01*
X144163733Y-103975000D01*
X144936267Y-103975000D01*
X144954548Y-103976801D01*
X144954548Y-103976801D01*
G37*
G36*
X148854548Y-103326801D02*
G01*
X148870937Y-103331771D01*
X148886046Y-103339849D01*
X148899286Y-103350714D01*
X148910151Y-103363954D01*
X148918229Y-103379063D01*
X148923199Y-103395452D01*
X148925000Y-103413733D01*
X148925000Y-103636267D01*
X148923199Y-103654548D01*
X148918229Y-103670937D01*
X148910151Y-103686046D01*
X148899286Y-103699286D01*
X148886046Y-103710151D01*
X148870937Y-103718229D01*
X148854548Y-103723199D01*
X148836267Y-103725000D01*
X148063733Y-103725000D01*
X148045452Y-103723199D01*
X148029063Y-103718229D01*
X148013954Y-103710151D01*
X148000714Y-103699286D01*
X147989849Y-103686046D01*
X147981771Y-103670937D01*
X147976801Y-103654548D01*
X147975000Y-103636267D01*
X147975000Y-103413733D01*
X147976801Y-103395452D01*
X147981771Y-103379063D01*
X147989849Y-103363954D01*
X148000714Y-103350714D01*
X148013954Y-103339849D01*
X148029063Y-103331771D01*
X148045452Y-103326801D01*
X148063733Y-103325000D01*
X148836267Y-103325000D01*
X148854548Y-103326801D01*
X148854548Y-103326801D01*
G37*
G36*
X144954548Y-103326801D02*
G01*
X144970937Y-103331771D01*
X144986046Y-103339849D01*
X144999286Y-103350714D01*
X145010151Y-103363954D01*
X145018229Y-103379063D01*
X145023199Y-103395452D01*
X145025000Y-103413733D01*
X145025000Y-103636267D01*
X145023199Y-103654548D01*
X145018229Y-103670937D01*
X145010151Y-103686046D01*
X144999286Y-103699286D01*
X144986046Y-103710151D01*
X144970937Y-103718229D01*
X144954548Y-103723199D01*
X144936267Y-103725000D01*
X144163733Y-103725000D01*
X144145452Y-103723199D01*
X144129063Y-103718229D01*
X144113954Y-103710151D01*
X144100714Y-103699286D01*
X144089849Y-103686046D01*
X144081771Y-103670937D01*
X144076801Y-103654548D01*
X144075000Y-103636267D01*
X144075000Y-103413733D01*
X144076801Y-103395452D01*
X144081771Y-103379063D01*
X144089849Y-103363954D01*
X144100714Y-103350714D01*
X144113954Y-103339849D01*
X144129063Y-103331771D01*
X144145452Y-103326801D01*
X144163733Y-103325000D01*
X144936267Y-103325000D01*
X144954548Y-103326801D01*
X144954548Y-103326801D01*
G37*
G36*
X147604548Y-102076801D02*
G01*
X147620937Y-102081771D01*
X147636046Y-102089849D01*
X147649286Y-102100714D01*
X147660151Y-102113954D01*
X147668229Y-102129063D01*
X147673199Y-102145452D01*
X147675000Y-102163733D01*
X147675000Y-102936267D01*
X147673199Y-102954548D01*
X147668229Y-102970937D01*
X147660151Y-102986046D01*
X147649286Y-102999286D01*
X147636046Y-103010151D01*
X147620937Y-103018229D01*
X147604548Y-103023199D01*
X147586267Y-103025000D01*
X147363733Y-103025000D01*
X147345452Y-103023199D01*
X147329063Y-103018229D01*
X147313954Y-103010151D01*
X147300714Y-102999286D01*
X147289849Y-102986046D01*
X147281771Y-102970937D01*
X147276801Y-102954548D01*
X147275000Y-102936267D01*
X147275000Y-102163733D01*
X147276801Y-102145452D01*
X147281771Y-102129063D01*
X147289849Y-102113954D01*
X147300714Y-102100714D01*
X147313954Y-102089849D01*
X147329063Y-102081771D01*
X147345452Y-102076801D01*
X147363733Y-102075000D01*
X147586267Y-102075000D01*
X147604548Y-102076801D01*
X147604548Y-102076801D01*
G37*
G36*
X145654548Y-102076801D02*
G01*
X145670937Y-102081771D01*
X145686046Y-102089849D01*
X145699286Y-102100714D01*
X145710151Y-102113954D01*
X145718229Y-102129063D01*
X145723199Y-102145452D01*
X145725000Y-102163733D01*
X145725000Y-102936267D01*
X145723199Y-102954548D01*
X145718229Y-102970937D01*
X145710151Y-102986046D01*
X145699286Y-102999286D01*
X145686046Y-103010151D01*
X145670937Y-103018229D01*
X145654548Y-103023199D01*
X145636267Y-103025000D01*
X145413733Y-103025000D01*
X145395452Y-103023199D01*
X145379063Y-103018229D01*
X145363954Y-103010151D01*
X145350714Y-102999286D01*
X145339849Y-102986046D01*
X145331771Y-102970937D01*
X145326801Y-102954548D01*
X145325000Y-102936267D01*
X145325000Y-102163733D01*
X145326801Y-102145452D01*
X145331771Y-102129063D01*
X145339849Y-102113954D01*
X145350714Y-102100714D01*
X145363954Y-102089849D01*
X145379063Y-102081771D01*
X145395452Y-102076801D01*
X145413733Y-102075000D01*
X145636267Y-102075000D01*
X145654548Y-102076801D01*
X145654548Y-102076801D01*
G37*
G36*
X146304548Y-102076801D02*
G01*
X146320937Y-102081771D01*
X146336046Y-102089849D01*
X146349286Y-102100714D01*
X146360151Y-102113954D01*
X146368229Y-102129063D01*
X146373199Y-102145452D01*
X146375000Y-102163733D01*
X146375000Y-102936267D01*
X146373199Y-102954548D01*
X146368229Y-102970937D01*
X146360151Y-102986046D01*
X146349286Y-102999286D01*
X146336046Y-103010151D01*
X146320937Y-103018229D01*
X146304548Y-103023199D01*
X146286267Y-103025000D01*
X146063733Y-103025000D01*
X146045452Y-103023199D01*
X146029063Y-103018229D01*
X146013954Y-103010151D01*
X146000714Y-102999286D01*
X145989849Y-102986046D01*
X145981771Y-102970937D01*
X145976801Y-102954548D01*
X145975000Y-102936267D01*
X145975000Y-102163733D01*
X145976801Y-102145452D01*
X145981771Y-102129063D01*
X145989849Y-102113954D01*
X146000714Y-102100714D01*
X146013954Y-102089849D01*
X146029063Y-102081771D01*
X146045452Y-102076801D01*
X146063733Y-102075000D01*
X146286267Y-102075000D01*
X146304548Y-102076801D01*
X146304548Y-102076801D01*
G37*
G36*
X146954548Y-102076801D02*
G01*
X146970937Y-102081771D01*
X146986046Y-102089849D01*
X146999286Y-102100714D01*
X147010151Y-102113954D01*
X147018229Y-102129063D01*
X147023199Y-102145452D01*
X147025000Y-102163733D01*
X147025000Y-102936267D01*
X147023199Y-102954548D01*
X147018229Y-102970937D01*
X147010151Y-102986046D01*
X146999286Y-102999286D01*
X146986046Y-103010151D01*
X146970937Y-103018229D01*
X146954548Y-103023199D01*
X146936267Y-103025000D01*
X146713733Y-103025000D01*
X146695452Y-103023199D01*
X146679063Y-103018229D01*
X146663954Y-103010151D01*
X146650714Y-102999286D01*
X146639849Y-102986046D01*
X146631771Y-102970937D01*
X146626801Y-102954548D01*
X146625000Y-102936267D01*
X146625000Y-102163733D01*
X146626801Y-102145452D01*
X146631771Y-102129063D01*
X146639849Y-102113954D01*
X146650714Y-102100714D01*
X146663954Y-102089849D01*
X146679063Y-102081771D01*
X146695452Y-102076801D01*
X146713733Y-102075000D01*
X146936267Y-102075000D01*
X146954548Y-102076801D01*
X146954548Y-102076801D01*
G37*
G36*
X142205828Y-100648526D02*
G01*
X142287882Y-100673417D01*
X142363496Y-100713833D01*
X142429774Y-100768226D01*
X142484167Y-100834504D01*
X142524583Y-100910118D01*
X142549474Y-100992172D01*
X142558000Y-101078732D01*
X142558000Y-102001268D01*
X142549474Y-102087828D01*
X142524583Y-102169882D01*
X142484167Y-102245496D01*
X142429774Y-102311774D01*
X142363496Y-102366167D01*
X142287882Y-102406583D01*
X142205828Y-102431474D01*
X142119268Y-102440000D01*
X140896732Y-102440000D01*
X140810172Y-102431474D01*
X140728118Y-102406583D01*
X140687243Y-102384736D01*
X140685026Y-102383687D01*
X140642729Y-102366167D01*
X140573690Y-102337570D01*
X140426283Y-102239076D01*
X140300924Y-102113717D01*
X140202430Y-101966310D01*
X140134586Y-101802520D01*
X140100000Y-101628642D01*
X140100000Y-101451358D01*
X140134586Y-101277480D01*
X140202430Y-101113690D01*
X140300924Y-100966283D01*
X140426283Y-100840924D01*
X140573690Y-100742430D01*
X140685026Y-100696313D01*
X140687243Y-100695264D01*
X140728118Y-100673417D01*
X140810172Y-100648526D01*
X140896732Y-100640000D01*
X142119268Y-100640000D01*
X142205828Y-100648526D01*
X142205828Y-100648526D01*
G37*
G36*
X144624059Y-100753722D02*
G01*
X144659204Y-100764383D01*
X144691605Y-100781702D01*
X144719997Y-100805003D01*
X144743298Y-100833395D01*
X144760617Y-100865796D01*
X144771278Y-100900941D01*
X144775000Y-100938732D01*
X144775000Y-101361268D01*
X144771278Y-101399059D01*
X144760617Y-101434204D01*
X144743298Y-101466605D01*
X144719997Y-101494997D01*
X144691605Y-101518298D01*
X144659204Y-101535617D01*
X144624059Y-101546278D01*
X144586268Y-101550000D01*
X144013732Y-101550000D01*
X143975941Y-101546278D01*
X143940796Y-101535617D01*
X143908395Y-101518298D01*
X143880003Y-101494997D01*
X143856702Y-101466605D01*
X143839383Y-101434204D01*
X143828722Y-101399059D01*
X143825000Y-101361268D01*
X143825000Y-100938732D01*
X143828722Y-100900941D01*
X143839383Y-100865796D01*
X143856702Y-100833395D01*
X143880003Y-100805003D01*
X143908395Y-100781702D01*
X143940796Y-100764383D01*
X143975941Y-100753722D01*
X144013732Y-100750000D01*
X144586268Y-100750000D01*
X144624059Y-100753722D01*
X144624059Y-100753722D01*
G37*
G36*
X149899059Y-100528722D02*
G01*
X149934204Y-100539383D01*
X149966605Y-100556702D01*
X149994997Y-100580003D01*
X150018298Y-100608395D01*
X150035617Y-100640796D01*
X150046278Y-100675941D01*
X150050000Y-100713732D01*
X150050000Y-101286268D01*
X150046278Y-101324059D01*
X150035617Y-101359204D01*
X150018298Y-101391605D01*
X149994997Y-101419997D01*
X149966605Y-101443298D01*
X149934204Y-101460617D01*
X149899059Y-101471278D01*
X149861268Y-101475000D01*
X149438732Y-101475000D01*
X149400941Y-101471278D01*
X149365796Y-101460617D01*
X149333395Y-101443298D01*
X149305003Y-101419997D01*
X149281702Y-101391605D01*
X149264383Y-101359204D01*
X149253722Y-101324059D01*
X149250000Y-101286268D01*
X149250000Y-100713732D01*
X149253722Y-100675941D01*
X149264383Y-100640796D01*
X149281702Y-100608395D01*
X149305003Y-100580003D01*
X149333395Y-100556702D01*
X149365796Y-100539383D01*
X149400941Y-100528722D01*
X149438732Y-100525000D01*
X149861268Y-100525000D01*
X149899059Y-100528722D01*
X149899059Y-100528722D01*
G37*
G36*
X146099059Y-100528722D02*
G01*
X146134204Y-100539383D01*
X146166605Y-100556702D01*
X146194997Y-100580003D01*
X146218298Y-100608395D01*
X146235617Y-100640796D01*
X146246278Y-100675941D01*
X146250000Y-100713732D01*
X146250000Y-101286268D01*
X146246278Y-101324059D01*
X146235617Y-101359204D01*
X146218298Y-101391605D01*
X146194997Y-101419997D01*
X146166605Y-101443298D01*
X146134204Y-101460617D01*
X146099059Y-101471278D01*
X146061268Y-101475000D01*
X145638732Y-101475000D01*
X145600941Y-101471278D01*
X145565796Y-101460617D01*
X145533395Y-101443298D01*
X145505003Y-101419997D01*
X145481702Y-101391605D01*
X145464383Y-101359204D01*
X145453722Y-101324059D01*
X145450000Y-101286268D01*
X145450000Y-100713732D01*
X145453722Y-100675941D01*
X145464383Y-100640796D01*
X145481702Y-100608395D01*
X145505003Y-100580003D01*
X145533395Y-100556702D01*
X145565796Y-100539383D01*
X145600941Y-100528722D01*
X145638732Y-100525000D01*
X146061268Y-100525000D01*
X146099059Y-100528722D01*
X146099059Y-100528722D01*
G37*
G36*
X147399059Y-100528722D02*
G01*
X147434204Y-100539383D01*
X147466605Y-100556702D01*
X147494997Y-100580003D01*
X147518298Y-100608395D01*
X147535617Y-100640796D01*
X147546278Y-100675941D01*
X147550000Y-100713732D01*
X147550000Y-101286268D01*
X147546278Y-101324059D01*
X147535617Y-101359204D01*
X147518298Y-101391605D01*
X147494997Y-101419997D01*
X147466605Y-101443298D01*
X147434204Y-101460617D01*
X147399059Y-101471278D01*
X147361268Y-101475000D01*
X146938732Y-101475000D01*
X146900941Y-101471278D01*
X146865796Y-101460617D01*
X146833395Y-101443298D01*
X146805003Y-101419997D01*
X146781702Y-101391605D01*
X146764383Y-101359204D01*
X146753722Y-101324059D01*
X146750000Y-101286268D01*
X146750000Y-100713732D01*
X146753722Y-100675941D01*
X146764383Y-100640796D01*
X146781702Y-100608395D01*
X146805003Y-100580003D01*
X146833395Y-100556702D01*
X146865796Y-100539383D01*
X146900941Y-100528722D01*
X146938732Y-100525000D01*
X147361268Y-100525000D01*
X147399059Y-100528722D01*
X147399059Y-100528722D01*
G37*
G36*
X148599059Y-100528722D02*
G01*
X148634204Y-100539383D01*
X148666605Y-100556702D01*
X148694997Y-100580003D01*
X148718298Y-100608395D01*
X148735617Y-100640796D01*
X148746278Y-100675941D01*
X148750000Y-100713732D01*
X148750000Y-101286268D01*
X148746278Y-101324059D01*
X148735617Y-101359204D01*
X148718298Y-101391605D01*
X148694997Y-101419997D01*
X148666605Y-101443298D01*
X148634204Y-101460617D01*
X148599059Y-101471278D01*
X148561268Y-101475000D01*
X148138732Y-101475000D01*
X148100941Y-101471278D01*
X148065796Y-101460617D01*
X148033395Y-101443298D01*
X148005003Y-101419997D01*
X147981702Y-101391605D01*
X147964383Y-101359204D01*
X147953722Y-101324059D01*
X147950000Y-101286268D01*
X147950000Y-100713732D01*
X147953722Y-100675941D01*
X147964383Y-100640796D01*
X147981702Y-100608395D01*
X148005003Y-100580003D01*
X148033395Y-100556702D01*
X148065796Y-100539383D01*
X148100941Y-100528722D01*
X148138732Y-100525000D01*
X148561268Y-100525000D01*
X148599059Y-100528722D01*
X148599059Y-100528722D01*
G37*
G36*
X151850000Y-100275001D02*
G01*
X151850480Y-100279878D01*
X151851903Y-100284568D01*
X151854213Y-100288890D01*
X151857322Y-100292678D01*
X151861110Y-100295787D01*
X151865432Y-100298097D01*
X151870122Y-100299520D01*
X151874999Y-100300000D01*
X152125001Y-100300000D01*
X152129878Y-100299520D01*
X152134568Y-100298097D01*
X152138890Y-100295787D01*
X152142678Y-100292678D01*
X152145787Y-100288890D01*
X152148097Y-100284568D01*
X152149520Y-100279878D01*
X152150000Y-100275001D01*
X152150000Y-100250000D01*
X153250000Y-100250000D01*
X153250000Y-101350000D01*
X152150000Y-101350000D01*
X152150000Y-101324999D01*
X152149520Y-101320122D01*
X152148097Y-101315432D01*
X152145787Y-101311110D01*
X152142678Y-101307322D01*
X152138890Y-101304213D01*
X152134568Y-101301903D01*
X152129878Y-101300480D01*
X152125001Y-101300000D01*
X151874999Y-101300000D01*
X151870122Y-101300480D01*
X151865432Y-101301903D01*
X151861110Y-101304213D01*
X151857322Y-101307322D01*
X151854213Y-101311110D01*
X151851903Y-101315432D01*
X151850480Y-101320122D01*
X151850000Y-101324999D01*
X151850000Y-101350000D01*
X150750000Y-101350000D01*
X150750000Y-100250000D01*
X151850000Y-100250000D01*
X151850000Y-100275001D01*
X151850000Y-100275001D01*
G37*
G36*
X144624059Y-99453722D02*
G01*
X144659204Y-99464383D01*
X144691605Y-99481702D01*
X144719997Y-99505003D01*
X144743298Y-99533395D01*
X144760617Y-99565796D01*
X144771278Y-99600941D01*
X144775000Y-99638732D01*
X144775000Y-100061268D01*
X144771278Y-100099059D01*
X144760617Y-100134204D01*
X144743298Y-100166605D01*
X144719997Y-100194997D01*
X144691605Y-100218298D01*
X144659204Y-100235617D01*
X144624059Y-100246278D01*
X144586268Y-100250000D01*
X144013732Y-100250000D01*
X143975941Y-100246278D01*
X143940796Y-100235617D01*
X143908395Y-100218298D01*
X143880003Y-100194997D01*
X143856702Y-100166605D01*
X143839383Y-100134204D01*
X143828722Y-100099059D01*
X143825000Y-100061268D01*
X143825000Y-99638732D01*
X143828722Y-99600941D01*
X143839383Y-99565796D01*
X143856702Y-99533395D01*
X143880003Y-99505003D01*
X143908395Y-99481702D01*
X143940796Y-99464383D01*
X143975941Y-99453722D01*
X144013732Y-99450000D01*
X144586268Y-99450000D01*
X144624059Y-99453722D01*
X144624059Y-99453722D01*
G37*
G36*
X147399059Y-99028722D02*
G01*
X147434204Y-99039383D01*
X147466605Y-99056702D01*
X147494997Y-99080003D01*
X147518298Y-99108395D01*
X147535617Y-99140796D01*
X147546278Y-99175941D01*
X147550000Y-99213732D01*
X147550000Y-99786268D01*
X147546278Y-99824059D01*
X147535617Y-99859204D01*
X147518298Y-99891605D01*
X147494997Y-99919997D01*
X147466605Y-99943298D01*
X147434204Y-99960617D01*
X147399059Y-99971278D01*
X147361268Y-99975000D01*
X146938732Y-99975000D01*
X146900941Y-99971278D01*
X146865796Y-99960617D01*
X146833395Y-99943298D01*
X146805003Y-99919997D01*
X146781702Y-99891605D01*
X146764383Y-99859204D01*
X146753722Y-99824059D01*
X146750000Y-99786268D01*
X146750000Y-99213732D01*
X146753722Y-99175941D01*
X146764383Y-99140796D01*
X146781702Y-99108395D01*
X146805003Y-99080003D01*
X146833395Y-99056702D01*
X146865796Y-99039383D01*
X146900941Y-99028722D01*
X146938732Y-99025000D01*
X147361268Y-99025000D01*
X147399059Y-99028722D01*
X147399059Y-99028722D01*
G37*
G36*
X146099059Y-99028722D02*
G01*
X146134204Y-99039383D01*
X146166605Y-99056702D01*
X146194997Y-99080003D01*
X146218298Y-99108395D01*
X146235617Y-99140796D01*
X146246278Y-99175941D01*
X146250000Y-99213732D01*
X146250000Y-99786268D01*
X146246278Y-99824059D01*
X146235617Y-99859204D01*
X146218298Y-99891605D01*
X146194997Y-99919997D01*
X146166605Y-99943298D01*
X146134204Y-99960617D01*
X146099059Y-99971278D01*
X146061268Y-99975000D01*
X145638732Y-99975000D01*
X145600941Y-99971278D01*
X145565796Y-99960617D01*
X145533395Y-99943298D01*
X145505003Y-99919997D01*
X145481702Y-99891605D01*
X145464383Y-99859204D01*
X145453722Y-99824059D01*
X145450000Y-99786268D01*
X145450000Y-99213732D01*
X145453722Y-99175941D01*
X145464383Y-99140796D01*
X145481702Y-99108395D01*
X145505003Y-99080003D01*
X145533395Y-99056702D01*
X145565796Y-99039383D01*
X145600941Y-99028722D01*
X145638732Y-99025000D01*
X146061268Y-99025000D01*
X146099059Y-99028722D01*
X146099059Y-99028722D01*
G37*
G36*
X142205828Y-98108526D02*
G01*
X142287882Y-98133417D01*
X142363496Y-98173833D01*
X142429774Y-98228226D01*
X142484167Y-98294504D01*
X142524583Y-98370118D01*
X142549474Y-98452172D01*
X142558000Y-98538732D01*
X142558000Y-99461268D01*
X142549474Y-99547828D01*
X142524583Y-99629882D01*
X142484167Y-99705496D01*
X142429774Y-99771774D01*
X142363496Y-99826167D01*
X142287882Y-99866583D01*
X142205828Y-99891474D01*
X142119268Y-99900000D01*
X140896732Y-99900000D01*
X140810172Y-99891474D01*
X140728118Y-99866583D01*
X140687243Y-99844736D01*
X140685026Y-99843687D01*
X140642729Y-99826167D01*
X140573690Y-99797570D01*
X140426283Y-99699076D01*
X140300924Y-99573717D01*
X140202430Y-99426310D01*
X140134586Y-99262520D01*
X140100000Y-99088642D01*
X140100000Y-98911358D01*
X140134586Y-98737480D01*
X140202430Y-98573690D01*
X140300924Y-98426283D01*
X140426283Y-98300924D01*
X140573690Y-98202430D01*
X140685026Y-98156313D01*
X140687243Y-98155264D01*
X140728118Y-98133417D01*
X140810172Y-98108526D01*
X140896732Y-98100000D01*
X142119268Y-98100000D01*
X142205828Y-98108526D01*
X142205828Y-98108526D01*
G37*
M02*
