G04 #@! TF.GenerationSoftware,KiCad,Pcbnew,5.1.0-060a0da~80~ubuntu18.04.1*
G04 #@! TF.CreationDate,2019-04-03T19:32:02+02:00*
G04 #@! TF.ProjectId,mav_sbus_bridge,6d61765f-7362-4757-935f-627269646765,rev?*
G04 #@! TF.SameCoordinates,Original*
G04 #@! TF.FileFunction,Soldermask,Bot*
G04 #@! TF.FilePolarity,Negative*
%FSLAX46Y46*%
G04 Gerber Fmt 4.6, Leading zero omitted, Abs format (unit mm)*
G04 Created by KiCad (PCBNEW 5.1.0-060a0da~80~ubuntu18.04.1) date 2019-04-03 19:32:02*
%MOMM*%
%LPD*%
G04 APERTURE LIST*
%ADD10C,0.100000*%
G04 APERTURE END LIST*
D10*
G36*
X153262520Y-111254586D02*
G01*
X153426310Y-111322430D01*
X153573717Y-111420924D01*
X153699076Y-111546283D01*
X153797570Y-111693690D01*
X153865414Y-111857480D01*
X153900000Y-112031358D01*
X153900000Y-112208642D01*
X153865414Y-112382520D01*
X153797570Y-112546310D01*
X153699076Y-112693717D01*
X153573717Y-112819076D01*
X153426310Y-112917570D01*
X153262520Y-112985414D01*
X153088642Y-113020000D01*
X152911358Y-113020000D01*
X152737480Y-112985414D01*
X152573690Y-112917570D01*
X152426283Y-112819076D01*
X152300924Y-112693717D01*
X152202430Y-112546310D01*
X152134586Y-112382520D01*
X152100000Y-112208642D01*
X152100000Y-112031358D01*
X152134586Y-111857480D01*
X152202430Y-111693690D01*
X152300924Y-111546283D01*
X152426283Y-111420924D01*
X152573690Y-111322430D01*
X152737480Y-111254586D01*
X152911358Y-111220000D01*
X153088642Y-111220000D01*
X153262520Y-111254586D01*
X153262520Y-111254586D01*
G37*
G36*
X142900000Y-112940000D02*
G01*
X141100000Y-112940000D01*
X141100000Y-111140000D01*
X142900000Y-111140000D01*
X142900000Y-112940000D01*
X142900000Y-112940000D01*
G37*
G36*
X158382819Y-110957958D02*
G01*
X158471910Y-110984984D01*
X158486498Y-110989409D01*
X158576577Y-111037558D01*
X158582042Y-111040479D01*
X158665790Y-111109210D01*
X158734521Y-111192958D01*
X158734522Y-111192960D01*
X158785591Y-111288502D01*
X158785592Y-111288506D01*
X158817042Y-111392181D01*
X158827661Y-111500000D01*
X158817042Y-111607819D01*
X158790993Y-111693690D01*
X158785591Y-111711498D01*
X158737442Y-111801577D01*
X158734521Y-111807042D01*
X158665790Y-111890790D01*
X158582042Y-111959521D01*
X158582040Y-111959522D01*
X158486498Y-112010591D01*
X158471910Y-112015016D01*
X158382819Y-112042042D01*
X158302018Y-112050000D01*
X157697982Y-112050000D01*
X157617181Y-112042042D01*
X157528090Y-112015016D01*
X157513502Y-112010591D01*
X157417960Y-111959522D01*
X157417958Y-111959521D01*
X157334210Y-111890790D01*
X157265479Y-111807042D01*
X157262558Y-111801577D01*
X157214409Y-111711498D01*
X157209007Y-111693690D01*
X157182958Y-111607819D01*
X157172339Y-111500000D01*
X157182958Y-111392181D01*
X157214408Y-111288506D01*
X157214409Y-111288502D01*
X157265478Y-111192960D01*
X157265479Y-111192958D01*
X157334210Y-111109210D01*
X157417958Y-111040479D01*
X157423423Y-111037558D01*
X157513502Y-110989409D01*
X157528090Y-110984984D01*
X157617181Y-110957958D01*
X157697982Y-110950000D01*
X158302018Y-110950000D01*
X158382819Y-110957958D01*
X158382819Y-110957958D01*
G37*
G36*
X155402917Y-109832597D02*
G01*
X155501884Y-109862618D01*
X155593083Y-109911365D01*
X155593084Y-109911366D01*
X155593086Y-109911367D01*
X155611294Y-109926310D01*
X155673027Y-109976973D01*
X155738635Y-110056917D01*
X155787382Y-110148115D01*
X155817403Y-110247082D01*
X155825000Y-110324214D01*
X155825000Y-110675785D01*
X155817403Y-110752917D01*
X155787382Y-110851884D01*
X155738635Y-110943083D01*
X155738633Y-110943086D01*
X155673027Y-111023027D01*
X155593086Y-111088633D01*
X155593084Y-111088634D01*
X155593083Y-111088635D01*
X155501885Y-111137382D01*
X155402918Y-111167403D01*
X155300000Y-111177540D01*
X155197083Y-111167403D01*
X155098116Y-111137382D01*
X155006918Y-111088635D01*
X155006917Y-111088634D01*
X155006915Y-111088633D01*
X154926974Y-111023027D01*
X154861368Y-110943086D01*
X154861366Y-110943083D01*
X154812617Y-110851880D01*
X154782597Y-110752922D01*
X154775000Y-110675786D01*
X154775000Y-110324215D01*
X154782597Y-110247083D01*
X154812618Y-110148116D01*
X154861365Y-110056917D01*
X154926973Y-109976973D01*
X154988706Y-109926310D01*
X155006914Y-109911367D01*
X155006916Y-109911366D01*
X155006917Y-109911365D01*
X155098115Y-109862618D01*
X155197082Y-109832597D01*
X155300000Y-109822460D01*
X155402917Y-109832597D01*
X155402917Y-109832597D01*
G37*
G36*
X153262520Y-108714586D02*
G01*
X153426310Y-108782430D01*
X153573717Y-108880924D01*
X153699076Y-109006283D01*
X153797570Y-109153690D01*
X153865414Y-109317480D01*
X153900000Y-109491358D01*
X153900000Y-109668642D01*
X153865414Y-109842520D01*
X153797570Y-110006310D01*
X153699076Y-110153717D01*
X153573717Y-110279076D01*
X153426310Y-110377570D01*
X153262520Y-110445414D01*
X153088642Y-110480000D01*
X152911358Y-110480000D01*
X152737480Y-110445414D01*
X152573690Y-110377570D01*
X152426283Y-110279076D01*
X152300924Y-110153717D01*
X152202430Y-110006310D01*
X152134586Y-109842520D01*
X152100000Y-109668642D01*
X152100000Y-109491358D01*
X152134586Y-109317480D01*
X152202430Y-109153690D01*
X152300924Y-109006283D01*
X152426283Y-108880924D01*
X152573690Y-108782430D01*
X152737480Y-108714586D01*
X152911358Y-108680000D01*
X153088642Y-108680000D01*
X153262520Y-108714586D01*
X153262520Y-108714586D01*
G37*
G36*
X142262520Y-108634586D02*
G01*
X142426310Y-108702430D01*
X142573717Y-108800924D01*
X142699076Y-108926283D01*
X142797570Y-109073690D01*
X142865414Y-109237480D01*
X142900000Y-109411358D01*
X142900000Y-109588642D01*
X142865414Y-109762520D01*
X142797570Y-109926310D01*
X142699076Y-110073717D01*
X142573717Y-110199076D01*
X142426310Y-110297570D01*
X142262520Y-110365414D01*
X142088642Y-110400000D01*
X141911358Y-110400000D01*
X141737480Y-110365414D01*
X141573690Y-110297570D01*
X141426283Y-110199076D01*
X141300924Y-110073717D01*
X141202430Y-109926310D01*
X141134586Y-109762520D01*
X141100000Y-109588642D01*
X141100000Y-109411358D01*
X141134586Y-109237480D01*
X141202430Y-109073690D01*
X141300924Y-108926283D01*
X141426283Y-108800924D01*
X141573690Y-108702430D01*
X141737480Y-108634586D01*
X141911358Y-108600000D01*
X142088642Y-108600000D01*
X142262520Y-108634586D01*
X142262520Y-108634586D01*
G37*
G36*
X153262520Y-106174586D02*
G01*
X153426310Y-106242430D01*
X153573717Y-106340924D01*
X153699076Y-106466283D01*
X153797570Y-106613690D01*
X153865414Y-106777480D01*
X153900000Y-106951358D01*
X153900000Y-107128642D01*
X153865414Y-107302520D01*
X153797570Y-107466310D01*
X153699076Y-107613717D01*
X153573717Y-107739076D01*
X153426310Y-107837570D01*
X153262520Y-107905414D01*
X153088642Y-107940000D01*
X152911358Y-107940000D01*
X152737480Y-107905414D01*
X152573690Y-107837570D01*
X152426283Y-107739076D01*
X152300924Y-107613717D01*
X152202430Y-107466310D01*
X152134586Y-107302520D01*
X152100000Y-107128642D01*
X152100000Y-106951358D01*
X152134586Y-106777480D01*
X152202430Y-106613690D01*
X152300924Y-106466283D01*
X152426283Y-106340924D01*
X152573690Y-106242430D01*
X152737480Y-106174586D01*
X152911358Y-106140000D01*
X153088642Y-106140000D01*
X153262520Y-106174586D01*
X153262520Y-106174586D01*
G37*
G36*
X142262520Y-106094586D02*
G01*
X142426310Y-106162430D01*
X142573717Y-106260924D01*
X142699076Y-106386283D01*
X142797570Y-106533690D01*
X142865414Y-106697480D01*
X142900000Y-106871358D01*
X142900000Y-107048642D01*
X142865414Y-107222520D01*
X142797570Y-107386310D01*
X142699076Y-107533717D01*
X142573717Y-107659076D01*
X142426310Y-107757570D01*
X142262520Y-107825414D01*
X142088642Y-107860000D01*
X141911358Y-107860000D01*
X141737480Y-107825414D01*
X141573690Y-107757570D01*
X141426283Y-107659076D01*
X141300924Y-107533717D01*
X141202430Y-107386310D01*
X141134586Y-107222520D01*
X141100000Y-107048642D01*
X141100000Y-106871358D01*
X141134586Y-106697480D01*
X141202430Y-106533690D01*
X141300924Y-106386283D01*
X141426283Y-106260924D01*
X141573690Y-106162430D01*
X141737480Y-106094586D01*
X141911358Y-106060000D01*
X142088642Y-106060000D01*
X142262520Y-106094586D01*
X142262520Y-106094586D01*
G37*
G36*
X155402917Y-104832597D02*
G01*
X155501884Y-104862618D01*
X155593083Y-104911365D01*
X155593084Y-104911366D01*
X155593086Y-104911367D01*
X155673027Y-104976973D01*
X155732959Y-105050000D01*
X155738635Y-105056917D01*
X155787382Y-105148115D01*
X155817403Y-105247082D01*
X155825000Y-105324214D01*
X155825000Y-105675785D01*
X155817403Y-105752917D01*
X155787382Y-105851884D01*
X155738635Y-105943083D01*
X155738633Y-105943086D01*
X155673027Y-106023027D01*
X155593086Y-106088633D01*
X155593084Y-106088634D01*
X155593083Y-106088635D01*
X155501885Y-106137382D01*
X155402918Y-106167403D01*
X155300000Y-106177540D01*
X155197083Y-106167403D01*
X155180689Y-106162430D01*
X155098116Y-106137382D01*
X155006918Y-106088635D01*
X155006917Y-106088634D01*
X155006915Y-106088633D01*
X154926974Y-106023027D01*
X154861368Y-105943086D01*
X154861366Y-105943083D01*
X154812617Y-105851880D01*
X154782597Y-105752922D01*
X154775000Y-105675786D01*
X154775000Y-105324215D01*
X154782597Y-105247083D01*
X154812618Y-105148116D01*
X154861365Y-105056917D01*
X154867042Y-105050000D01*
X154926973Y-104976973D01*
X155006914Y-104911367D01*
X155006916Y-104911366D01*
X155006917Y-104911365D01*
X155098115Y-104862618D01*
X155197082Y-104832597D01*
X155300000Y-104822460D01*
X155402917Y-104832597D01*
X155402917Y-104832597D01*
G37*
G36*
X153900000Y-105400000D02*
G01*
X152100000Y-105400000D01*
X152100000Y-103600000D01*
X153900000Y-103600000D01*
X153900000Y-105400000D01*
X153900000Y-105400000D01*
G37*
G36*
X158382819Y-103957958D02*
G01*
X158471910Y-103984984D01*
X158486498Y-103989409D01*
X158576577Y-104037558D01*
X158582042Y-104040479D01*
X158665790Y-104109210D01*
X158734521Y-104192958D01*
X158734522Y-104192960D01*
X158785591Y-104288502D01*
X158785592Y-104288506D01*
X158817042Y-104392181D01*
X158827661Y-104500000D01*
X158817042Y-104607819D01*
X158790016Y-104696910D01*
X158785591Y-104711498D01*
X158737442Y-104801577D01*
X158734521Y-104807042D01*
X158665790Y-104890790D01*
X158582042Y-104959521D01*
X158582040Y-104959522D01*
X158486498Y-105010591D01*
X158471910Y-105015016D01*
X158382819Y-105042042D01*
X158302018Y-105050000D01*
X157697982Y-105050000D01*
X157617181Y-105042042D01*
X157528090Y-105015016D01*
X157513502Y-105010591D01*
X157417960Y-104959522D01*
X157417958Y-104959521D01*
X157334210Y-104890790D01*
X157265479Y-104807042D01*
X157262558Y-104801577D01*
X157214409Y-104711498D01*
X157209984Y-104696910D01*
X157182958Y-104607819D01*
X157172339Y-104500000D01*
X157182958Y-104392181D01*
X157214408Y-104288506D01*
X157214409Y-104288502D01*
X157265478Y-104192960D01*
X157265479Y-104192958D01*
X157334210Y-104109210D01*
X157417958Y-104040479D01*
X157423423Y-104037558D01*
X157513502Y-103989409D01*
X157528090Y-103984984D01*
X157617181Y-103957958D01*
X157697982Y-103950000D01*
X158302018Y-103950000D01*
X158382819Y-103957958D01*
X158382819Y-103957958D01*
G37*
G36*
X142900000Y-104900000D02*
G01*
X141100000Y-104900000D01*
X141100000Y-103100000D01*
X142900000Y-103100000D01*
X142900000Y-104900000D01*
X142900000Y-104900000D01*
G37*
G36*
X142262520Y-100594586D02*
G01*
X142426310Y-100662430D01*
X142573717Y-100760924D01*
X142699076Y-100886283D01*
X142797570Y-101033690D01*
X142865414Y-101197480D01*
X142900000Y-101371358D01*
X142900000Y-101548642D01*
X142865414Y-101722520D01*
X142797570Y-101886310D01*
X142699076Y-102033717D01*
X142573717Y-102159076D01*
X142426310Y-102257570D01*
X142262520Y-102325414D01*
X142088642Y-102360000D01*
X141911358Y-102360000D01*
X141737480Y-102325414D01*
X141573690Y-102257570D01*
X141426283Y-102159076D01*
X141300924Y-102033717D01*
X141202430Y-101886310D01*
X141134586Y-101722520D01*
X141100000Y-101548642D01*
X141100000Y-101371358D01*
X141134586Y-101197480D01*
X141202430Y-101033690D01*
X141300924Y-100886283D01*
X141426283Y-100760924D01*
X141573690Y-100662430D01*
X141737480Y-100594586D01*
X141911358Y-100560000D01*
X142088642Y-100560000D01*
X142262520Y-100594586D01*
X142262520Y-100594586D01*
G37*
G36*
X142262520Y-98054586D02*
G01*
X142426310Y-98122430D01*
X142573717Y-98220924D01*
X142699076Y-98346283D01*
X142797570Y-98493690D01*
X142865414Y-98657480D01*
X142900000Y-98831358D01*
X142900000Y-99008642D01*
X142865414Y-99182520D01*
X142797570Y-99346310D01*
X142699076Y-99493717D01*
X142573717Y-99619076D01*
X142426310Y-99717570D01*
X142262520Y-99785414D01*
X142088642Y-99820000D01*
X141911358Y-99820000D01*
X141737480Y-99785414D01*
X141573690Y-99717570D01*
X141426283Y-99619076D01*
X141300924Y-99493717D01*
X141202430Y-99346310D01*
X141134586Y-99182520D01*
X141100000Y-99008642D01*
X141100000Y-98831358D01*
X141134586Y-98657480D01*
X141202430Y-98493690D01*
X141300924Y-98346283D01*
X141426283Y-98220924D01*
X141573690Y-98122430D01*
X141737480Y-98054586D01*
X141911358Y-98020000D01*
X142088642Y-98020000D01*
X142262520Y-98054586D01*
X142262520Y-98054586D01*
G37*
M02*
