G04 #@! TF.GenerationSoftware,KiCad,Pcbnew,5.1.0-060a0da~80~ubuntu18.04.1*
G04 #@! TF.CreationDate,2019-04-12T23:32:23+02:00*
G04 #@! TF.ProjectId,mav_sbus_bridge,6d61765f-7362-4757-935f-627269646765,rev?*
G04 #@! TF.SameCoordinates,Original*
G04 #@! TF.FileFunction,Soldermask,Bot*
G04 #@! TF.FilePolarity,Negative*
%FSLAX46Y46*%
G04 Gerber Fmt 4.6, Leading zero omitted, Abs format (unit mm)*
G04 Created by KiCad (PCBNEW 5.1.0-060a0da~80~ubuntu18.04.1) date 2019-04-12 23:32:23*
%MOMM*%
%LPD*%
G04 APERTURE LIST*
%ADD10C,0.100000*%
G04 APERTURE END LIST*
D10*
G36*
X152342520Y-112634586D02*
G01*
X152506310Y-112702430D01*
X152653717Y-112800924D01*
X152779076Y-112926283D01*
X152877570Y-113073690D01*
X152945414Y-113237480D01*
X152980000Y-113411358D01*
X152980000Y-113588642D01*
X152945414Y-113762520D01*
X152877570Y-113926310D01*
X152779076Y-114073717D01*
X152653717Y-114199076D01*
X152506310Y-114297570D01*
X152342520Y-114365414D01*
X152168642Y-114400000D01*
X151991358Y-114400000D01*
X151817480Y-114365414D01*
X151653690Y-114297570D01*
X151506283Y-114199076D01*
X151380924Y-114073717D01*
X151282430Y-113926310D01*
X151214586Y-113762520D01*
X151180000Y-113588642D01*
X151180000Y-113411358D01*
X151214586Y-113237480D01*
X151282430Y-113073690D01*
X151380924Y-112926283D01*
X151506283Y-112800924D01*
X151653690Y-112702430D01*
X151817480Y-112634586D01*
X151991358Y-112600000D01*
X152168642Y-112600000D01*
X152342520Y-112634586D01*
X152342520Y-112634586D01*
G37*
G36*
X147262520Y-112634586D02*
G01*
X147426310Y-112702430D01*
X147573717Y-112800924D01*
X147699076Y-112926283D01*
X147797570Y-113073690D01*
X147865414Y-113237480D01*
X147900000Y-113411358D01*
X147900000Y-113588642D01*
X147865414Y-113762520D01*
X147797570Y-113926310D01*
X147699076Y-114073717D01*
X147573717Y-114199076D01*
X147426310Y-114297570D01*
X147262520Y-114365414D01*
X147088642Y-114400000D01*
X146911358Y-114400000D01*
X146737480Y-114365414D01*
X146573690Y-114297570D01*
X146426283Y-114199076D01*
X146300924Y-114073717D01*
X146202430Y-113926310D01*
X146134586Y-113762520D01*
X146100000Y-113588642D01*
X146100000Y-113411358D01*
X146134586Y-113237480D01*
X146202430Y-113073690D01*
X146300924Y-112926283D01*
X146426283Y-112800924D01*
X146573690Y-112702430D01*
X146737480Y-112634586D01*
X146911358Y-112600000D01*
X147088642Y-112600000D01*
X147262520Y-112634586D01*
X147262520Y-112634586D01*
G37*
G36*
X149802520Y-112634586D02*
G01*
X149966310Y-112702430D01*
X150113717Y-112800924D01*
X150239076Y-112926283D01*
X150337570Y-113073690D01*
X150405414Y-113237480D01*
X150440000Y-113411358D01*
X150440000Y-113588642D01*
X150405414Y-113762520D01*
X150337570Y-113926310D01*
X150239076Y-114073717D01*
X150113717Y-114199076D01*
X149966310Y-114297570D01*
X149802520Y-114365414D01*
X149628642Y-114400000D01*
X149451358Y-114400000D01*
X149277480Y-114365414D01*
X149113690Y-114297570D01*
X148966283Y-114199076D01*
X148840924Y-114073717D01*
X148742430Y-113926310D01*
X148674586Y-113762520D01*
X148640000Y-113588642D01*
X148640000Y-113411358D01*
X148674586Y-113237480D01*
X148742430Y-113073690D01*
X148840924Y-112926283D01*
X148966283Y-112800924D01*
X149113690Y-112702430D01*
X149277480Y-112634586D01*
X149451358Y-112600000D01*
X149628642Y-112600000D01*
X149802520Y-112634586D01*
X149802520Y-112634586D01*
G37*
G36*
X154882520Y-112634586D02*
G01*
X155046310Y-112702430D01*
X155193717Y-112800924D01*
X155319076Y-112926283D01*
X155417570Y-113073690D01*
X155485414Y-113237480D01*
X155520000Y-113411358D01*
X155520000Y-113588642D01*
X155485414Y-113762520D01*
X155417570Y-113926310D01*
X155319076Y-114073717D01*
X155193717Y-114199076D01*
X155046310Y-114297570D01*
X154882520Y-114365414D01*
X154708642Y-114400000D01*
X154531358Y-114400000D01*
X154357480Y-114365414D01*
X154193690Y-114297570D01*
X154046283Y-114199076D01*
X153920924Y-114073717D01*
X153822430Y-113926310D01*
X153754586Y-113762520D01*
X153720000Y-113588642D01*
X153720000Y-113411358D01*
X153754586Y-113237480D01*
X153822430Y-113073690D01*
X153920924Y-112926283D01*
X154046283Y-112800924D01*
X154193690Y-112702430D01*
X154357480Y-112634586D01*
X154531358Y-112600000D01*
X154708642Y-112600000D01*
X154882520Y-112634586D01*
X154882520Y-112634586D01*
G37*
G36*
X141262520Y-111214586D02*
G01*
X141426310Y-111282430D01*
X141573717Y-111380924D01*
X141699076Y-111506283D01*
X141797570Y-111653690D01*
X141865414Y-111817480D01*
X141900000Y-111991358D01*
X141900000Y-112168642D01*
X141865414Y-112342520D01*
X141797570Y-112506310D01*
X141699076Y-112653717D01*
X141573717Y-112779076D01*
X141426310Y-112877570D01*
X141262520Y-112945414D01*
X141088642Y-112980000D01*
X140911358Y-112980000D01*
X140737480Y-112945414D01*
X140573690Y-112877570D01*
X140426283Y-112779076D01*
X140300924Y-112653717D01*
X140202430Y-112506310D01*
X140134586Y-112342520D01*
X140100000Y-112168642D01*
X140100000Y-111991358D01*
X140134586Y-111817480D01*
X140202430Y-111653690D01*
X140300924Y-111506283D01*
X140426283Y-111380924D01*
X140573690Y-111282430D01*
X140737480Y-111214586D01*
X140911358Y-111180000D01*
X141088642Y-111180000D01*
X141262520Y-111214586D01*
X141262520Y-111214586D01*
G37*
G36*
X155432819Y-109957958D02*
G01*
X155521910Y-109984984D01*
X155536498Y-109989409D01*
X155626577Y-110037558D01*
X155632042Y-110040479D01*
X155715790Y-110109210D01*
X155784521Y-110192958D01*
X155784522Y-110192960D01*
X155835591Y-110288502D01*
X155835592Y-110288506D01*
X155867042Y-110392181D01*
X155877661Y-110500000D01*
X155867042Y-110607819D01*
X155840016Y-110696910D01*
X155835591Y-110711498D01*
X155787442Y-110801577D01*
X155784521Y-110807042D01*
X155715790Y-110890790D01*
X155632042Y-110959521D01*
X155632040Y-110959522D01*
X155536498Y-111010591D01*
X155521910Y-111015016D01*
X155432819Y-111042042D01*
X155352018Y-111050000D01*
X154647982Y-111050000D01*
X154567181Y-111042042D01*
X154478090Y-111015016D01*
X154463502Y-111010591D01*
X154367960Y-110959522D01*
X154367958Y-110959521D01*
X154284210Y-110890790D01*
X154215479Y-110807042D01*
X154212558Y-110801577D01*
X154164409Y-110711498D01*
X154159984Y-110696910D01*
X154132958Y-110607819D01*
X154122339Y-110500000D01*
X154132958Y-110392181D01*
X154164408Y-110288506D01*
X154164409Y-110288502D01*
X154215478Y-110192960D01*
X154215479Y-110192958D01*
X154284210Y-110109210D01*
X154367958Y-110040479D01*
X154373423Y-110037558D01*
X154463502Y-109989409D01*
X154478090Y-109984984D01*
X154567181Y-109957958D01*
X154647982Y-109950000D01*
X155352018Y-109950000D01*
X155432819Y-109957958D01*
X155432819Y-109957958D01*
G37*
G36*
X141262520Y-108674586D02*
G01*
X141426310Y-108742430D01*
X141573717Y-108840924D01*
X141699076Y-108966283D01*
X141797570Y-109113690D01*
X141865414Y-109277480D01*
X141900000Y-109451358D01*
X141900000Y-109628642D01*
X141865414Y-109802520D01*
X141797570Y-109966310D01*
X141699076Y-110113717D01*
X141573717Y-110239076D01*
X141426310Y-110337570D01*
X141262520Y-110405414D01*
X141088642Y-110440000D01*
X140911358Y-110440000D01*
X140737480Y-110405414D01*
X140573690Y-110337570D01*
X140426283Y-110239076D01*
X140300924Y-110113717D01*
X140202430Y-109966310D01*
X140134586Y-109802520D01*
X140100000Y-109628642D01*
X140100000Y-109451358D01*
X140134586Y-109277480D01*
X140202430Y-109113690D01*
X140300924Y-108966283D01*
X140426283Y-108840924D01*
X140573690Y-108742430D01*
X140737480Y-108674586D01*
X140911358Y-108640000D01*
X141088642Y-108640000D01*
X141262520Y-108674586D01*
X141262520Y-108674586D01*
G37*
G36*
X152407818Y-108807958D02*
G01*
X152496909Y-108834984D01*
X152511497Y-108839409D01*
X152573930Y-108872781D01*
X152607042Y-108890479D01*
X152690790Y-108959210D01*
X152759521Y-109042958D01*
X152759522Y-109042960D01*
X152810591Y-109138502D01*
X152815016Y-109153090D01*
X152842042Y-109242181D01*
X152850000Y-109322982D01*
X152850000Y-109677017D01*
X152842042Y-109757818D01*
X152810592Y-109861493D01*
X152759521Y-109957042D01*
X152690790Y-110040790D01*
X152607042Y-110109521D01*
X152607040Y-110109522D01*
X152511498Y-110160591D01*
X152496910Y-110165016D01*
X152407819Y-110192042D01*
X152300000Y-110202661D01*
X152192182Y-110192042D01*
X152103091Y-110165016D01*
X152088503Y-110160591D01*
X151992961Y-110109522D01*
X151992959Y-110109521D01*
X151909211Y-110040790D01*
X151840480Y-109957042D01*
X151814945Y-109909268D01*
X151789409Y-109861495D01*
X151771519Y-109802520D01*
X151757958Y-109757819D01*
X151750000Y-109677018D01*
X151750000Y-109322983D01*
X151757958Y-109242182D01*
X151789408Y-109138507D01*
X151789409Y-109138503D01*
X151822781Y-109076070D01*
X151840479Y-109042958D01*
X151909210Y-108959210D01*
X151992958Y-108890479D01*
X151998423Y-108887558D01*
X152088502Y-108839409D01*
X152103090Y-108834984D01*
X152192181Y-108807958D01*
X152300000Y-108797339D01*
X152407818Y-108807958D01*
X152407818Y-108807958D01*
G37*
G36*
X141262520Y-106134586D02*
G01*
X141426310Y-106202430D01*
X141573717Y-106300924D01*
X141699076Y-106426283D01*
X141797570Y-106573690D01*
X141865414Y-106737480D01*
X141900000Y-106911358D01*
X141900000Y-107088642D01*
X141865414Y-107262520D01*
X141797570Y-107426310D01*
X141699076Y-107573717D01*
X141573717Y-107699076D01*
X141426310Y-107797570D01*
X141262520Y-107865414D01*
X141088642Y-107900000D01*
X140911358Y-107900000D01*
X140737480Y-107865414D01*
X140573690Y-107797570D01*
X140426283Y-107699076D01*
X140300924Y-107573717D01*
X140202430Y-107426310D01*
X140134586Y-107262520D01*
X140100000Y-107088642D01*
X140100000Y-106911358D01*
X140134586Y-106737480D01*
X140202430Y-106573690D01*
X140300924Y-106426283D01*
X140426283Y-106300924D01*
X140573690Y-106202430D01*
X140737480Y-106134586D01*
X140911358Y-106100000D01*
X141088642Y-106100000D01*
X141262520Y-106134586D01*
X141262520Y-106134586D01*
G37*
G36*
X152407818Y-103807958D02*
G01*
X152496909Y-103834984D01*
X152511497Y-103839409D01*
X152573930Y-103872781D01*
X152607042Y-103890479D01*
X152690790Y-103959210D01*
X152759521Y-104042958D01*
X152759522Y-104042960D01*
X152810591Y-104138502D01*
X152815016Y-104153090D01*
X152842042Y-104242181D01*
X152850000Y-104322982D01*
X152850000Y-104677017D01*
X152842042Y-104757818D01*
X152810592Y-104861493D01*
X152759521Y-104957042D01*
X152690790Y-105040790D01*
X152607042Y-105109521D01*
X152607040Y-105109522D01*
X152511498Y-105160591D01*
X152496910Y-105165016D01*
X152407819Y-105192042D01*
X152300000Y-105202661D01*
X152192182Y-105192042D01*
X152103091Y-105165016D01*
X152088503Y-105160591D01*
X151992961Y-105109522D01*
X151992959Y-105109521D01*
X151909211Y-105040790D01*
X151840480Y-104957042D01*
X151814945Y-104909268D01*
X151789409Y-104861495D01*
X151783471Y-104841920D01*
X151757958Y-104757819D01*
X151750000Y-104677018D01*
X151750000Y-104322983D01*
X151757958Y-104242182D01*
X151789408Y-104138507D01*
X151789409Y-104138503D01*
X151822781Y-104076070D01*
X151840479Y-104042958D01*
X151909210Y-103959210D01*
X151992958Y-103890479D01*
X151998423Y-103887558D01*
X152088502Y-103839409D01*
X152103090Y-103834984D01*
X152192181Y-103807958D01*
X152300000Y-103797339D01*
X152407818Y-103807958D01*
X152407818Y-103807958D01*
G37*
G36*
X141262520Y-103214586D02*
G01*
X141426310Y-103282430D01*
X141573717Y-103380924D01*
X141699076Y-103506283D01*
X141797570Y-103653690D01*
X141865414Y-103817480D01*
X141900000Y-103991358D01*
X141900000Y-104168642D01*
X141865414Y-104342520D01*
X141797570Y-104506310D01*
X141699076Y-104653717D01*
X141573717Y-104779076D01*
X141426310Y-104877570D01*
X141262520Y-104945414D01*
X141088642Y-104980000D01*
X140911358Y-104980000D01*
X140737480Y-104945414D01*
X140573690Y-104877570D01*
X140426283Y-104779076D01*
X140300924Y-104653717D01*
X140202430Y-104506310D01*
X140134586Y-104342520D01*
X140100000Y-104168642D01*
X140100000Y-103991358D01*
X140134586Y-103817480D01*
X140202430Y-103653690D01*
X140300924Y-103506283D01*
X140426283Y-103380924D01*
X140573690Y-103282430D01*
X140737480Y-103214586D01*
X140911358Y-103180000D01*
X141088642Y-103180000D01*
X141262520Y-103214586D01*
X141262520Y-103214586D01*
G37*
G36*
X155432819Y-102957958D02*
G01*
X155521910Y-102984984D01*
X155536498Y-102989409D01*
X155626577Y-103037558D01*
X155632042Y-103040479D01*
X155715790Y-103109210D01*
X155784521Y-103192958D01*
X155784522Y-103192960D01*
X155835591Y-103288502D01*
X155835592Y-103288506D01*
X155867042Y-103392181D01*
X155877661Y-103500000D01*
X155867042Y-103607819D01*
X155840016Y-103696910D01*
X155835591Y-103711498D01*
X155789707Y-103797339D01*
X155784521Y-103807042D01*
X155715790Y-103890790D01*
X155632042Y-103959521D01*
X155632040Y-103959522D01*
X155536498Y-104010591D01*
X155521910Y-104015016D01*
X155432819Y-104042042D01*
X155352018Y-104050000D01*
X154647982Y-104050000D01*
X154567181Y-104042042D01*
X154478090Y-104015016D01*
X154463502Y-104010591D01*
X154367960Y-103959522D01*
X154367958Y-103959521D01*
X154284210Y-103890790D01*
X154215479Y-103807042D01*
X154210293Y-103797339D01*
X154164409Y-103711498D01*
X154159984Y-103696910D01*
X154132958Y-103607819D01*
X154122339Y-103500000D01*
X154132958Y-103392181D01*
X154164408Y-103288506D01*
X154164409Y-103288502D01*
X154215478Y-103192960D01*
X154215479Y-103192958D01*
X154284210Y-103109210D01*
X154367958Y-103040479D01*
X154373423Y-103037558D01*
X154463502Y-102989409D01*
X154478090Y-102984984D01*
X154567181Y-102957958D01*
X154647982Y-102950000D01*
X155352018Y-102950000D01*
X155432819Y-102957958D01*
X155432819Y-102957958D01*
G37*
G36*
X141262520Y-100674586D02*
G01*
X141426310Y-100742430D01*
X141573717Y-100840924D01*
X141699076Y-100966283D01*
X141797570Y-101113690D01*
X141865414Y-101277480D01*
X141900000Y-101451358D01*
X141900000Y-101628642D01*
X141865414Y-101802520D01*
X141797570Y-101966310D01*
X141699076Y-102113717D01*
X141573717Y-102239076D01*
X141426310Y-102337570D01*
X141262520Y-102405414D01*
X141088642Y-102440000D01*
X140911358Y-102440000D01*
X140737480Y-102405414D01*
X140573690Y-102337570D01*
X140426283Y-102239076D01*
X140300924Y-102113717D01*
X140202430Y-101966310D01*
X140134586Y-101802520D01*
X140100000Y-101628642D01*
X140100000Y-101451358D01*
X140134586Y-101277480D01*
X140202430Y-101113690D01*
X140300924Y-100966283D01*
X140426283Y-100840924D01*
X140573690Y-100742430D01*
X140737480Y-100674586D01*
X140911358Y-100640000D01*
X141088642Y-100640000D01*
X141262520Y-100674586D01*
X141262520Y-100674586D01*
G37*
G36*
X141262520Y-98134586D02*
G01*
X141426310Y-98202430D01*
X141573717Y-98300924D01*
X141699076Y-98426283D01*
X141797570Y-98573690D01*
X141865414Y-98737480D01*
X141900000Y-98911358D01*
X141900000Y-99088642D01*
X141865414Y-99262520D01*
X141797570Y-99426310D01*
X141699076Y-99573717D01*
X141573717Y-99699076D01*
X141426310Y-99797570D01*
X141262520Y-99865414D01*
X141088642Y-99900000D01*
X140911358Y-99900000D01*
X140737480Y-99865414D01*
X140573690Y-99797570D01*
X140426283Y-99699076D01*
X140300924Y-99573717D01*
X140202430Y-99426310D01*
X140134586Y-99262520D01*
X140100000Y-99088642D01*
X140100000Y-98911358D01*
X140134586Y-98737480D01*
X140202430Y-98573690D01*
X140300924Y-98426283D01*
X140426283Y-98300924D01*
X140573690Y-98202430D01*
X140737480Y-98134586D01*
X140911358Y-98100000D01*
X141088642Y-98100000D01*
X141262520Y-98134586D01*
X141262520Y-98134586D01*
G37*
M02*
