M48
; DRILL file {KiCad 5.1.0-060a0da~80~ubuntu18.04.1} date ons  3 apr 2019 19:32:08
; FORMAT={-:-/ absolute / metric / decimal}
; #@! TF.CreationDate,2019-04-03T19:32:08+02:00
; #@! TF.GenerationSoftware,Kicad,Pcbnew,5.1.0-060a0da~80~ubuntu18.04.1
; #@! TF.FileFunction,Plated,1,2,PTH
FMAT,2
METRIC
T1C0.300
T2C0.500
T3C0.550
T4C1.000
%
G90
G05
T1
X144.2Y-107.3
X144.6Y-102.6
X144.8Y-99.0
X144.8Y-108.5
X144.9Y-106.4
X145.6Y-111.5
X146.7Y-110.7
X148.2Y-106.2
X148.3Y-109.1
X148.5Y-102.0
X148.7Y-107.2
X149.0Y-100.0
X149.0Y-111.5
X149.2Y-98.1
X149.8Y-102.8
X150.6Y-108.0
X150.6Y-111.6
X151.4Y-106.5
X154.1Y-105.9
X154.8Y-100.5
X156.2Y-100.5
X158.8Y-98.7
X158.8Y-102.8
T4
X142.0Y-98.92
X142.0Y-101.46
X142.0Y-104.0
X142.0Y-106.96
X142.0Y-109.5
X142.0Y-112.04
X153.0Y-104.5
X153.0Y-107.04
X153.0Y-109.58
X153.0Y-112.12
T2
G00X157.675Y-104.5
M15
G01X158.325Y-104.5
M16
G05
G00X157.675Y-111.5
M15
G01X158.325Y-111.5
M16
G05
T3
G00X155.3Y-105.65
M15
G01X155.3Y-105.35
M16
G05
G00X155.3Y-110.65
M15
G01X155.3Y-110.35
M16
G05
T0
M30
