G04 #@! TF.GenerationSoftware,KiCad,Pcbnew,5.1.0-060a0da~80~ubuntu18.04.1*
G04 #@! TF.CreationDate,2019-04-12T23:32:23+02:00*
G04 #@! TF.ProjectId,mav_sbus_bridge,6d61765f-7362-4757-935f-627269646765,rev?*
G04 #@! TF.SameCoordinates,Original*
G04 #@! TF.FileFunction,Legend,Top*
G04 #@! TF.FilePolarity,Positive*
%FSLAX46Y46*%
G04 Gerber Fmt 4.6, Leading zero omitted, Abs format (unit mm)*
G04 Created by KiCad (PCBNEW 5.1.0-060a0da~80~ubuntu18.04.1) date 2019-04-12 23:32:23*
%MOMM*%
%LPD*%
G04 APERTURE LIST*
%ADD10C,0.150000*%
%ADD11C,0.120000*%
%ADD12C,0.200000*%
%ADD13C,0.100000*%
%ADD14C,1.800000*%
%ADD15O,1.100000X1.400000*%
%ADD16C,0.500000*%
%ADD17C,1.600000*%
%ADD18O,1.750000X1.100000*%
%ADD19C,0.400000*%
%ADD20C,2.200000*%
%ADD21C,0.800000*%
%ADD22R,1.000000X1.000000*%
%ADD23R,1.100000X1.100000*%
G04 APERTURE END LIST*
D10*
X151295238Y-111761904D02*
X151295238Y-110961904D01*
X151485714Y-110961904D01*
X151600000Y-111000000D01*
X151676190Y-111076190D01*
X151714285Y-111152380D01*
X151752380Y-111304761D01*
X151752380Y-111419047D01*
X151714285Y-111571428D01*
X151676190Y-111647619D01*
X151600000Y-111723809D01*
X151485714Y-111761904D01*
X151295238Y-111761904D01*
X152095238Y-111457142D02*
X152704761Y-111457142D01*
X155561904Y-112152380D02*
X155561904Y-112533333D01*
X155942857Y-112571428D01*
X155904761Y-112533333D01*
X155866666Y-112457142D01*
X155866666Y-112266666D01*
X155904761Y-112190476D01*
X155942857Y-112152380D01*
X156019047Y-112114285D01*
X156209523Y-112114285D01*
X156285714Y-112152380D01*
X156323809Y-112190476D01*
X156361904Y-112266666D01*
X156361904Y-112457142D01*
X156323809Y-112533333D01*
X156285714Y-112571428D01*
X155561904Y-111885714D02*
X156361904Y-111619047D01*
X155561904Y-111352380D01*
X145809523Y-111900000D02*
X145733333Y-111861904D01*
X145619047Y-111861904D01*
X145504761Y-111900000D01*
X145428571Y-111976190D01*
X145390476Y-112052380D01*
X145352380Y-112204761D01*
X145352380Y-112319047D01*
X145390476Y-112471428D01*
X145428571Y-112547619D01*
X145504761Y-112623809D01*
X145619047Y-112661904D01*
X145695238Y-112661904D01*
X145809523Y-112623809D01*
X145847619Y-112585714D01*
X145847619Y-112319047D01*
X145695238Y-112319047D01*
X148795238Y-111761904D02*
X148795238Y-110961904D01*
X148985714Y-110961904D01*
X149100000Y-111000000D01*
X149176190Y-111076190D01*
X149214285Y-111152380D01*
X149252380Y-111304761D01*
X149252380Y-111419047D01*
X149214285Y-111571428D01*
X149176190Y-111647619D01*
X149100000Y-111723809D01*
X148985714Y-111761904D01*
X148795238Y-111761904D01*
X149595238Y-111457142D02*
X150204761Y-111457142D01*
X149900000Y-111761904D02*
X149900000Y-111152380D01*
X142850000Y-111790476D02*
X142811904Y-111866666D01*
X142811904Y-111980952D01*
X142850000Y-112095238D01*
X142926190Y-112171428D01*
X143002380Y-112209523D01*
X143154761Y-112247619D01*
X143269047Y-112247619D01*
X143421428Y-112209523D01*
X143497619Y-112171428D01*
X143573809Y-112095238D01*
X143611904Y-111980952D01*
X143611904Y-111904761D01*
X143573809Y-111790476D01*
X143535714Y-111752380D01*
X143269047Y-111752380D01*
X143269047Y-111904761D01*
X142850000Y-103790476D02*
X142811904Y-103866666D01*
X142811904Y-103980952D01*
X142850000Y-104095238D01*
X142926190Y-104171428D01*
X143002380Y-104209523D01*
X143154761Y-104247619D01*
X143269047Y-104247619D01*
X143421428Y-104209523D01*
X143497619Y-104171428D01*
X143573809Y-104095238D01*
X143611904Y-103980952D01*
X143611904Y-103904761D01*
X143573809Y-103790476D01*
X143535714Y-103752380D01*
X143269047Y-103752380D01*
X143269047Y-103904761D01*
X142811904Y-99152380D02*
X142811904Y-99533333D01*
X143192857Y-99571428D01*
X143154761Y-99533333D01*
X143116666Y-99457142D01*
X143116666Y-99266666D01*
X143154761Y-99190476D01*
X143192857Y-99152380D01*
X143269047Y-99114285D01*
X143459523Y-99114285D01*
X143535714Y-99152380D01*
X143573809Y-99190476D01*
X143611904Y-99266666D01*
X143611904Y-99457142D01*
X143573809Y-99533333D01*
X143535714Y-99571428D01*
X142811904Y-98885714D02*
X143611904Y-98619047D01*
X142811904Y-98352380D01*
X142811904Y-107152380D02*
X142811904Y-107533333D01*
X143192857Y-107571428D01*
X143154761Y-107533333D01*
X143116666Y-107457142D01*
X143116666Y-107266666D01*
X143154761Y-107190476D01*
X143192857Y-107152380D01*
X143269047Y-107114285D01*
X143459523Y-107114285D01*
X143535714Y-107152380D01*
X143573809Y-107190476D01*
X143611904Y-107266666D01*
X143611904Y-107457142D01*
X143573809Y-107533333D01*
X143535714Y-107571428D01*
X142811904Y-106885714D02*
X143611904Y-106619047D01*
X142811904Y-106352380D01*
X143611904Y-109919047D02*
X142811904Y-109919047D01*
X143611904Y-109538095D02*
X142811904Y-109538095D01*
X143611904Y-109080952D01*
X142811904Y-109080952D01*
X142811904Y-102300000D02*
X142811904Y-102147619D01*
X142850000Y-102071428D01*
X142926190Y-101995238D01*
X143078571Y-101957142D01*
X143345238Y-101957142D01*
X143497619Y-101995238D01*
X143573809Y-102071428D01*
X143611904Y-102147619D01*
X143611904Y-102300000D01*
X143573809Y-102376190D01*
X143497619Y-102452380D01*
X143345238Y-102490476D01*
X143078571Y-102490476D01*
X142926190Y-102452380D01*
X142850000Y-102376190D01*
X142811904Y-102300000D01*
X142811904Y-101614285D02*
X143459523Y-101614285D01*
X143535714Y-101576190D01*
X143573809Y-101538095D01*
X143611904Y-101461904D01*
X143611904Y-101309523D01*
X143573809Y-101233333D01*
X143535714Y-101195238D01*
X143459523Y-101157142D01*
X142811904Y-101157142D01*
X142811904Y-100890476D02*
X142811904Y-100433333D01*
X143611904Y-100661904D02*
X142811904Y-100661904D01*
X150742857Y-109690476D02*
X150742857Y-109423809D01*
X151161904Y-109309523D02*
X151161904Y-109690476D01*
X150361904Y-109690476D01*
X150361904Y-109309523D01*
X151161904Y-108966666D02*
X150628571Y-108966666D01*
X150704761Y-108966666D02*
X150666666Y-108928571D01*
X150628571Y-108852380D01*
X150628571Y-108738095D01*
X150666666Y-108661904D01*
X150742857Y-108623809D01*
X151161904Y-108623809D01*
X150742857Y-108623809D02*
X150666666Y-108585714D01*
X150628571Y-108509523D01*
X150628571Y-108395238D01*
X150666666Y-108319047D01*
X150742857Y-108280952D01*
X151161904Y-108280952D01*
X151161904Y-107900000D02*
X150628571Y-107900000D01*
X150361904Y-107900000D02*
X150400000Y-107938095D01*
X150438095Y-107900000D01*
X150400000Y-107861904D01*
X150361904Y-107900000D01*
X150438095Y-107900000D01*
X151161904Y-107404761D02*
X151123809Y-107480952D01*
X151047619Y-107519047D01*
X150361904Y-107519047D01*
X150742857Y-106223809D02*
X150742857Y-106490476D01*
X151161904Y-106490476D02*
X150361904Y-106490476D01*
X150361904Y-106109523D01*
X151161904Y-105804761D02*
X150628571Y-105804761D01*
X150780952Y-105804761D02*
X150704761Y-105766666D01*
X150666666Y-105728571D01*
X150628571Y-105652380D01*
X150628571Y-105576190D01*
X151123809Y-105004761D02*
X151161904Y-105080952D01*
X151161904Y-105233333D01*
X151123809Y-105309523D01*
X151047619Y-105347619D01*
X150742857Y-105347619D01*
X150666666Y-105309523D01*
X150628571Y-105233333D01*
X150628571Y-105080952D01*
X150666666Y-105004761D01*
X150742857Y-104966666D01*
X150819047Y-104966666D01*
X150895238Y-105347619D01*
X151123809Y-104661904D02*
X151161904Y-104585714D01*
X151161904Y-104433333D01*
X151123809Y-104357142D01*
X151047619Y-104319047D01*
X151009523Y-104319047D01*
X150933333Y-104357142D01*
X150895238Y-104433333D01*
X150895238Y-104547619D01*
X150857142Y-104623809D01*
X150780952Y-104661904D01*
X150742857Y-104661904D01*
X150666666Y-104623809D01*
X150628571Y-104547619D01*
X150628571Y-104433333D01*
X150666666Y-104357142D01*
X151161904Y-103976190D02*
X150361904Y-103976190D01*
X150857142Y-103900000D02*
X151161904Y-103671428D01*
X150628571Y-103671428D02*
X150933333Y-103976190D01*
X154648809Y-101928571D02*
X154686904Y-101814285D01*
X154686904Y-101623809D01*
X154648809Y-101547619D01*
X154610714Y-101509523D01*
X154534523Y-101471428D01*
X154458333Y-101471428D01*
X154382142Y-101509523D01*
X154344047Y-101547619D01*
X154305952Y-101623809D01*
X154267857Y-101776190D01*
X154229761Y-101852380D01*
X154191666Y-101890476D01*
X154115476Y-101928571D01*
X154039285Y-101928571D01*
X153963095Y-101890476D01*
X153925000Y-101852380D01*
X153886904Y-101776190D01*
X153886904Y-101585714D01*
X153925000Y-101471428D01*
X154267857Y-100861904D02*
X154305952Y-100747619D01*
X154344047Y-100709523D01*
X154420238Y-100671428D01*
X154534523Y-100671428D01*
X154610714Y-100709523D01*
X154648809Y-100747619D01*
X154686904Y-100823809D01*
X154686904Y-101128571D01*
X153886904Y-101128571D01*
X153886904Y-100861904D01*
X153925000Y-100785714D01*
X153963095Y-100747619D01*
X154039285Y-100709523D01*
X154115476Y-100709523D01*
X154191666Y-100747619D01*
X154229761Y-100785714D01*
X154267857Y-100861904D01*
X154267857Y-101128571D01*
X153886904Y-100328571D02*
X154534523Y-100328571D01*
X154610714Y-100290476D01*
X154648809Y-100252380D01*
X154686904Y-100176190D01*
X154686904Y-100023809D01*
X154648809Y-99947619D01*
X154610714Y-99909523D01*
X154534523Y-99871428D01*
X153886904Y-99871428D01*
X154648809Y-99528571D02*
X154686904Y-99414285D01*
X154686904Y-99223809D01*
X154648809Y-99147619D01*
X154610714Y-99109523D01*
X154534523Y-99071428D01*
X154458333Y-99071428D01*
X154382142Y-99109523D01*
X154344047Y-99147619D01*
X154305952Y-99223809D01*
X154267857Y-99376190D01*
X154229761Y-99452380D01*
X154191666Y-99490476D01*
X154115476Y-99528571D01*
X154039285Y-99528571D01*
X153963095Y-99490476D01*
X153925000Y-99452380D01*
X153886904Y-99376190D01*
X153886904Y-99185714D01*
X153925000Y-99071428D01*
X155617857Y-101947619D02*
X155655952Y-101833333D01*
X155694047Y-101795238D01*
X155770238Y-101757142D01*
X155884523Y-101757142D01*
X155960714Y-101795238D01*
X155998809Y-101833333D01*
X156036904Y-101909523D01*
X156036904Y-102214285D01*
X155236904Y-102214285D01*
X155236904Y-101947619D01*
X155275000Y-101871428D01*
X155313095Y-101833333D01*
X155389285Y-101795238D01*
X155465476Y-101795238D01*
X155541666Y-101833333D01*
X155579761Y-101871428D01*
X155617857Y-101947619D01*
X155617857Y-102214285D01*
X156036904Y-101414285D02*
X155503571Y-101414285D01*
X155655952Y-101414285D02*
X155579761Y-101376190D01*
X155541666Y-101338095D01*
X155503571Y-101261904D01*
X155503571Y-101185714D01*
X156036904Y-100919047D02*
X155503571Y-100919047D01*
X155236904Y-100919047D02*
X155275000Y-100957142D01*
X155313095Y-100919047D01*
X155275000Y-100880952D01*
X155236904Y-100919047D01*
X155313095Y-100919047D01*
X156036904Y-100195238D02*
X155236904Y-100195238D01*
X155998809Y-100195238D02*
X156036904Y-100271428D01*
X156036904Y-100423809D01*
X155998809Y-100500000D01*
X155960714Y-100538095D01*
X155884523Y-100576190D01*
X155655952Y-100576190D01*
X155579761Y-100538095D01*
X155541666Y-100500000D01*
X155503571Y-100423809D01*
X155503571Y-100271428D01*
X155541666Y-100195238D01*
X155503571Y-99471428D02*
X156151190Y-99471428D01*
X156227380Y-99509523D01*
X156265476Y-99547619D01*
X156303571Y-99623809D01*
X156303571Y-99738095D01*
X156265476Y-99814285D01*
X155998809Y-99471428D02*
X156036904Y-99547619D01*
X156036904Y-99700000D01*
X155998809Y-99776190D01*
X155960714Y-99814285D01*
X155884523Y-99852380D01*
X155655952Y-99852380D01*
X155579761Y-99814285D01*
X155541666Y-99776190D01*
X155503571Y-99700000D01*
X155503571Y-99547619D01*
X155541666Y-99471428D01*
X155998809Y-98785714D02*
X156036904Y-98861904D01*
X156036904Y-99014285D01*
X155998809Y-99090476D01*
X155922619Y-99128571D01*
X155617857Y-99128571D01*
X155541666Y-99090476D01*
X155503571Y-99014285D01*
X155503571Y-98861904D01*
X155541666Y-98785714D01*
X155617857Y-98747619D01*
X155694047Y-98747619D01*
X155770238Y-99128571D01*
X150400000Y-98416666D02*
X150400000Y-97716666D01*
X150733333Y-98416666D02*
X150733333Y-97716666D01*
X151133333Y-98416666D01*
X151133333Y-97716666D01*
X151366666Y-97716666D02*
X151600000Y-98416666D01*
X151833333Y-97716666D01*
X152066666Y-98050000D02*
X152300000Y-98050000D01*
X152400000Y-98416666D02*
X152066666Y-98416666D01*
X152066666Y-97716666D01*
X152400000Y-97716666D01*
X153100000Y-98416666D02*
X152866666Y-98083333D01*
X152700000Y-98416666D02*
X152700000Y-97716666D01*
X152966666Y-97716666D01*
X153033333Y-97750000D01*
X153066666Y-97783333D01*
X153100000Y-97850000D01*
X153100000Y-97950000D01*
X153066666Y-98016666D01*
X153033333Y-98050000D01*
X152966666Y-98083333D01*
X152700000Y-98083333D01*
X153300000Y-97716666D02*
X153700000Y-97716666D01*
X153500000Y-98416666D02*
X153500000Y-97716666D01*
X150650000Y-99616666D02*
X150650000Y-98916666D01*
X150983333Y-99616666D02*
X150983333Y-98916666D01*
X151383333Y-99616666D01*
X151383333Y-98916666D01*
X151716666Y-99616666D02*
X151716666Y-98916666D01*
X151983333Y-98916666D01*
X152050000Y-98950000D01*
X152083333Y-98983333D01*
X152116666Y-99050000D01*
X152116666Y-99150000D01*
X152083333Y-99216666D01*
X152050000Y-99250000D01*
X151983333Y-99283333D01*
X151716666Y-99283333D01*
X152416666Y-98916666D02*
X152416666Y-99483333D01*
X152450000Y-99550000D01*
X152483333Y-99583333D01*
X152550000Y-99616666D01*
X152683333Y-99616666D01*
X152750000Y-99583333D01*
X152783333Y-99550000D01*
X152816666Y-99483333D01*
X152816666Y-98916666D01*
X153050000Y-98916666D02*
X153450000Y-98916666D01*
X153250000Y-99616666D02*
X153250000Y-98916666D01*
X153500000Y-100000000D02*
X153500000Y-101600000D01*
X150500000Y-100000000D02*
X153500000Y-100000000D01*
X150500000Y-101600000D02*
X150500000Y-100000000D01*
X153500000Y-101600000D02*
X150500000Y-101600000D01*
X152300000Y-103600000D02*
X152300000Y-103000000D01*
X152300000Y-111000000D02*
X152300000Y-110400000D01*
X152300000Y-111000000D02*
X154100000Y-111000000D01*
X152300000Y-103000000D02*
X154100000Y-103000000D01*
X145800000Y-111160000D02*
X147200000Y-111160000D01*
X147200000Y-108840000D02*
X145300000Y-108840000D01*
D11*
X144390000Y-105885000D02*
X144390000Y-106610000D01*
X148610000Y-102390000D02*
X147885000Y-102390000D01*
X148610000Y-103115000D02*
X148610000Y-102390000D01*
X148610000Y-106610000D02*
X147885000Y-106610000D01*
X148610000Y-105885000D02*
X148610000Y-106610000D01*
X144390000Y-102390000D02*
X145115000Y-102390000D01*
X144390000Y-103115000D02*
X144390000Y-102390000D01*
D12*
X148600000Y-109750000D02*
X149400000Y-109750000D01*
X146500000Y-107600000D02*
X146500000Y-108400000D01*
X143900000Y-100500000D02*
X144700000Y-100500000D01*
X144700000Y-110000000D02*
X143900000Y-110000000D01*
X149000000Y-100600000D02*
X149000000Y-101400000D01*
X146500000Y-101400000D02*
X146500000Y-100600000D01*
X146500000Y-99900000D02*
X146500000Y-99100000D01*
X149000000Y-108400000D02*
X149000000Y-107600000D01*
%LPC*%
D13*
G36*
X147494108Y-111944167D02*
G01*
X147537791Y-111950647D01*
X147580628Y-111961377D01*
X147622208Y-111976254D01*
X147662129Y-111995135D01*
X147700007Y-112017839D01*
X147735477Y-112044145D01*
X147768198Y-112073802D01*
X147797855Y-112106523D01*
X147824161Y-112141993D01*
X147846865Y-112179871D01*
X147865746Y-112219792D01*
X147880623Y-112261372D01*
X147891353Y-112304209D01*
X147897833Y-112347892D01*
X147900000Y-112392000D01*
X147900000Y-113592000D01*
X147897833Y-113636108D01*
X147891353Y-113679791D01*
X147880623Y-113722628D01*
X147865746Y-113764208D01*
X147846865Y-113804129D01*
X147824161Y-113842007D01*
X147797855Y-113877477D01*
X147768198Y-113910198D01*
X147735477Y-113939855D01*
X147700007Y-113966161D01*
X147662129Y-113988865D01*
X147622208Y-114007746D01*
X147580628Y-114022623D01*
X147537791Y-114033353D01*
X147494108Y-114039833D01*
X147450000Y-114042000D01*
X146550000Y-114042000D01*
X146505892Y-114039833D01*
X146462209Y-114033353D01*
X146419372Y-114022623D01*
X146377792Y-114007746D01*
X146337871Y-113988865D01*
X146299993Y-113966161D01*
X146264523Y-113939855D01*
X146231802Y-113910198D01*
X146202145Y-113877477D01*
X146175839Y-113842007D01*
X146153135Y-113804129D01*
X146134254Y-113764208D01*
X146119377Y-113722628D01*
X146108647Y-113679791D01*
X146102167Y-113636108D01*
X146100000Y-113592000D01*
X146100000Y-112392000D01*
X146102167Y-112347892D01*
X146108647Y-112304209D01*
X146119377Y-112261372D01*
X146134254Y-112219792D01*
X146153135Y-112179871D01*
X146175839Y-112141993D01*
X146202145Y-112106523D01*
X146231802Y-112073802D01*
X146264523Y-112044145D01*
X146299993Y-112017839D01*
X146337871Y-111995135D01*
X146377792Y-111976254D01*
X146419372Y-111961377D01*
X146462209Y-111950647D01*
X146505892Y-111944167D01*
X146550000Y-111942000D01*
X147450000Y-111942000D01*
X147494108Y-111944167D01*
X147494108Y-111944167D01*
G37*
D14*
X147000000Y-112992000D03*
D13*
G36*
X155114108Y-111944167D02*
G01*
X155157791Y-111950647D01*
X155200628Y-111961377D01*
X155242208Y-111976254D01*
X155282129Y-111995135D01*
X155320007Y-112017839D01*
X155355477Y-112044145D01*
X155388198Y-112073802D01*
X155417855Y-112106523D01*
X155444161Y-112141993D01*
X155466865Y-112179871D01*
X155485746Y-112219792D01*
X155500623Y-112261372D01*
X155511353Y-112304209D01*
X155517833Y-112347892D01*
X155520000Y-112392000D01*
X155520000Y-113592000D01*
X155517833Y-113636108D01*
X155511353Y-113679791D01*
X155500623Y-113722628D01*
X155485746Y-113764208D01*
X155466865Y-113804129D01*
X155444161Y-113842007D01*
X155417855Y-113877477D01*
X155388198Y-113910198D01*
X155355477Y-113939855D01*
X155320007Y-113966161D01*
X155282129Y-113988865D01*
X155242208Y-114007746D01*
X155200628Y-114022623D01*
X155157791Y-114033353D01*
X155114108Y-114039833D01*
X155070000Y-114042000D01*
X154170000Y-114042000D01*
X154125892Y-114039833D01*
X154082209Y-114033353D01*
X154039372Y-114022623D01*
X153997792Y-114007746D01*
X153957871Y-113988865D01*
X153919993Y-113966161D01*
X153884523Y-113939855D01*
X153851802Y-113910198D01*
X153822145Y-113877477D01*
X153795839Y-113842007D01*
X153773135Y-113804129D01*
X153754254Y-113764208D01*
X153739377Y-113722628D01*
X153728647Y-113679791D01*
X153722167Y-113636108D01*
X153720000Y-113592000D01*
X153720000Y-112392000D01*
X153722167Y-112347892D01*
X153728647Y-112304209D01*
X153739377Y-112261372D01*
X153754254Y-112219792D01*
X153773135Y-112179871D01*
X153795839Y-112141993D01*
X153822145Y-112106523D01*
X153851802Y-112073802D01*
X153884523Y-112044145D01*
X153919993Y-112017839D01*
X153957871Y-111995135D01*
X153997792Y-111976254D01*
X154039372Y-111961377D01*
X154082209Y-111950647D01*
X154125892Y-111944167D01*
X154170000Y-111942000D01*
X155070000Y-111942000D01*
X155114108Y-111944167D01*
X155114108Y-111944167D01*
G37*
D14*
X154620000Y-112992000D03*
D13*
G36*
X152574108Y-111944167D02*
G01*
X152617791Y-111950647D01*
X152660628Y-111961377D01*
X152702208Y-111976254D01*
X152742129Y-111995135D01*
X152780007Y-112017839D01*
X152815477Y-112044145D01*
X152848198Y-112073802D01*
X152877855Y-112106523D01*
X152904161Y-112141993D01*
X152926865Y-112179871D01*
X152945746Y-112219792D01*
X152960623Y-112261372D01*
X152971353Y-112304209D01*
X152977833Y-112347892D01*
X152980000Y-112392000D01*
X152980000Y-113592000D01*
X152977833Y-113636108D01*
X152971353Y-113679791D01*
X152960623Y-113722628D01*
X152945746Y-113764208D01*
X152926865Y-113804129D01*
X152904161Y-113842007D01*
X152877855Y-113877477D01*
X152848198Y-113910198D01*
X152815477Y-113939855D01*
X152780007Y-113966161D01*
X152742129Y-113988865D01*
X152702208Y-114007746D01*
X152660628Y-114022623D01*
X152617791Y-114033353D01*
X152574108Y-114039833D01*
X152530000Y-114042000D01*
X151630000Y-114042000D01*
X151585892Y-114039833D01*
X151542209Y-114033353D01*
X151499372Y-114022623D01*
X151457792Y-114007746D01*
X151417871Y-113988865D01*
X151379993Y-113966161D01*
X151344523Y-113939855D01*
X151311802Y-113910198D01*
X151282145Y-113877477D01*
X151255839Y-113842007D01*
X151233135Y-113804129D01*
X151214254Y-113764208D01*
X151199377Y-113722628D01*
X151188647Y-113679791D01*
X151182167Y-113636108D01*
X151180000Y-113592000D01*
X151180000Y-112392000D01*
X151182167Y-112347892D01*
X151188647Y-112304209D01*
X151199377Y-112261372D01*
X151214254Y-112219792D01*
X151233135Y-112179871D01*
X151255839Y-112141993D01*
X151282145Y-112106523D01*
X151311802Y-112073802D01*
X151344523Y-112044145D01*
X151379993Y-112017839D01*
X151417871Y-111995135D01*
X151457792Y-111976254D01*
X151499372Y-111961377D01*
X151542209Y-111950647D01*
X151585892Y-111944167D01*
X151630000Y-111942000D01*
X152530000Y-111942000D01*
X152574108Y-111944167D01*
X152574108Y-111944167D01*
G37*
D14*
X152080000Y-112992000D03*
D13*
G36*
X150034108Y-111944167D02*
G01*
X150077791Y-111950647D01*
X150120628Y-111961377D01*
X150162208Y-111976254D01*
X150202129Y-111995135D01*
X150240007Y-112017839D01*
X150275477Y-112044145D01*
X150308198Y-112073802D01*
X150337855Y-112106523D01*
X150364161Y-112141993D01*
X150386865Y-112179871D01*
X150405746Y-112219792D01*
X150420623Y-112261372D01*
X150431353Y-112304209D01*
X150437833Y-112347892D01*
X150440000Y-112392000D01*
X150440000Y-113592000D01*
X150437833Y-113636108D01*
X150431353Y-113679791D01*
X150420623Y-113722628D01*
X150405746Y-113764208D01*
X150386865Y-113804129D01*
X150364161Y-113842007D01*
X150337855Y-113877477D01*
X150308198Y-113910198D01*
X150275477Y-113939855D01*
X150240007Y-113966161D01*
X150202129Y-113988865D01*
X150162208Y-114007746D01*
X150120628Y-114022623D01*
X150077791Y-114033353D01*
X150034108Y-114039833D01*
X149990000Y-114042000D01*
X149090000Y-114042000D01*
X149045892Y-114039833D01*
X149002209Y-114033353D01*
X148959372Y-114022623D01*
X148917792Y-114007746D01*
X148877871Y-113988865D01*
X148839993Y-113966161D01*
X148804523Y-113939855D01*
X148771802Y-113910198D01*
X148742145Y-113877477D01*
X148715839Y-113842007D01*
X148693135Y-113804129D01*
X148674254Y-113764208D01*
X148659377Y-113722628D01*
X148648647Y-113679791D01*
X148642167Y-113636108D01*
X148640000Y-113592000D01*
X148640000Y-112392000D01*
X148642167Y-112347892D01*
X148648647Y-112304209D01*
X148659377Y-112261372D01*
X148674254Y-112219792D01*
X148693135Y-112179871D01*
X148715839Y-112141993D01*
X148742145Y-112106523D01*
X148771802Y-112073802D01*
X148804523Y-112044145D01*
X148839993Y-112017839D01*
X148877871Y-111995135D01*
X148917792Y-111976254D01*
X148959372Y-111961377D01*
X149002209Y-111950647D01*
X149045892Y-111944167D01*
X149090000Y-111942000D01*
X149990000Y-111942000D01*
X150034108Y-111944167D01*
X150034108Y-111944167D01*
G37*
D14*
X149540000Y-112992000D03*
X154620000Y-113500000D03*
X152080000Y-113500000D03*
X149540000Y-113500000D03*
X147000000Y-113500000D03*
D13*
G36*
X142152108Y-103182167D02*
G01*
X142195791Y-103188647D01*
X142238628Y-103199377D01*
X142280208Y-103214254D01*
X142320129Y-103233135D01*
X142358007Y-103255839D01*
X142393477Y-103282145D01*
X142426198Y-103311802D01*
X142455855Y-103344523D01*
X142482161Y-103379993D01*
X142504865Y-103417871D01*
X142523746Y-103457792D01*
X142538623Y-103499372D01*
X142549353Y-103542209D01*
X142555833Y-103585892D01*
X142558000Y-103630000D01*
X142558000Y-104530000D01*
X142555833Y-104574108D01*
X142549353Y-104617791D01*
X142538623Y-104660628D01*
X142523746Y-104702208D01*
X142504865Y-104742129D01*
X142482161Y-104780007D01*
X142455855Y-104815477D01*
X142426198Y-104848198D01*
X142393477Y-104877855D01*
X142358007Y-104904161D01*
X142320129Y-104926865D01*
X142280208Y-104945746D01*
X142238628Y-104960623D01*
X142195791Y-104971353D01*
X142152108Y-104977833D01*
X142108000Y-104980000D01*
X140908000Y-104980000D01*
X140863892Y-104977833D01*
X140820209Y-104971353D01*
X140777372Y-104960623D01*
X140735792Y-104945746D01*
X140695871Y-104926865D01*
X140657993Y-104904161D01*
X140622523Y-104877855D01*
X140589802Y-104848198D01*
X140560145Y-104815477D01*
X140533839Y-104780007D01*
X140511135Y-104742129D01*
X140492254Y-104702208D01*
X140477377Y-104660628D01*
X140466647Y-104617791D01*
X140460167Y-104574108D01*
X140458000Y-104530000D01*
X140458000Y-103630000D01*
X140460167Y-103585892D01*
X140466647Y-103542209D01*
X140477377Y-103499372D01*
X140492254Y-103457792D01*
X140511135Y-103417871D01*
X140533839Y-103379993D01*
X140560145Y-103344523D01*
X140589802Y-103311802D01*
X140622523Y-103282145D01*
X140657993Y-103255839D01*
X140695871Y-103233135D01*
X140735792Y-103214254D01*
X140777372Y-103199377D01*
X140820209Y-103188647D01*
X140863892Y-103182167D01*
X140908000Y-103180000D01*
X142108000Y-103180000D01*
X142152108Y-103182167D01*
X142152108Y-103182167D01*
G37*
D14*
X141508000Y-104080000D03*
D13*
G36*
X142152108Y-100642167D02*
G01*
X142195791Y-100648647D01*
X142238628Y-100659377D01*
X142280208Y-100674254D01*
X142320129Y-100693135D01*
X142358007Y-100715839D01*
X142393477Y-100742145D01*
X142426198Y-100771802D01*
X142455855Y-100804523D01*
X142482161Y-100839993D01*
X142504865Y-100877871D01*
X142523746Y-100917792D01*
X142538623Y-100959372D01*
X142549353Y-101002209D01*
X142555833Y-101045892D01*
X142558000Y-101090000D01*
X142558000Y-101990000D01*
X142555833Y-102034108D01*
X142549353Y-102077791D01*
X142538623Y-102120628D01*
X142523746Y-102162208D01*
X142504865Y-102202129D01*
X142482161Y-102240007D01*
X142455855Y-102275477D01*
X142426198Y-102308198D01*
X142393477Y-102337855D01*
X142358007Y-102364161D01*
X142320129Y-102386865D01*
X142280208Y-102405746D01*
X142238628Y-102420623D01*
X142195791Y-102431353D01*
X142152108Y-102437833D01*
X142108000Y-102440000D01*
X140908000Y-102440000D01*
X140863892Y-102437833D01*
X140820209Y-102431353D01*
X140777372Y-102420623D01*
X140735792Y-102405746D01*
X140695871Y-102386865D01*
X140657993Y-102364161D01*
X140622523Y-102337855D01*
X140589802Y-102308198D01*
X140560145Y-102275477D01*
X140533839Y-102240007D01*
X140511135Y-102202129D01*
X140492254Y-102162208D01*
X140477377Y-102120628D01*
X140466647Y-102077791D01*
X140460167Y-102034108D01*
X140458000Y-101990000D01*
X140458000Y-101090000D01*
X140460167Y-101045892D01*
X140466647Y-101002209D01*
X140477377Y-100959372D01*
X140492254Y-100917792D01*
X140511135Y-100877871D01*
X140533839Y-100839993D01*
X140560145Y-100804523D01*
X140589802Y-100771802D01*
X140622523Y-100742145D01*
X140657993Y-100715839D01*
X140695871Y-100693135D01*
X140735792Y-100674254D01*
X140777372Y-100659377D01*
X140820209Y-100648647D01*
X140863892Y-100642167D01*
X140908000Y-100640000D01*
X142108000Y-100640000D01*
X142152108Y-100642167D01*
X142152108Y-100642167D01*
G37*
D14*
X141508000Y-101540000D03*
D13*
G36*
X142152108Y-98102167D02*
G01*
X142195791Y-98108647D01*
X142238628Y-98119377D01*
X142280208Y-98134254D01*
X142320129Y-98153135D01*
X142358007Y-98175839D01*
X142393477Y-98202145D01*
X142426198Y-98231802D01*
X142455855Y-98264523D01*
X142482161Y-98299993D01*
X142504865Y-98337871D01*
X142523746Y-98377792D01*
X142538623Y-98419372D01*
X142549353Y-98462209D01*
X142555833Y-98505892D01*
X142558000Y-98550000D01*
X142558000Y-99450000D01*
X142555833Y-99494108D01*
X142549353Y-99537791D01*
X142538623Y-99580628D01*
X142523746Y-99622208D01*
X142504865Y-99662129D01*
X142482161Y-99700007D01*
X142455855Y-99735477D01*
X142426198Y-99768198D01*
X142393477Y-99797855D01*
X142358007Y-99824161D01*
X142320129Y-99846865D01*
X142280208Y-99865746D01*
X142238628Y-99880623D01*
X142195791Y-99891353D01*
X142152108Y-99897833D01*
X142108000Y-99900000D01*
X140908000Y-99900000D01*
X140863892Y-99897833D01*
X140820209Y-99891353D01*
X140777372Y-99880623D01*
X140735792Y-99865746D01*
X140695871Y-99846865D01*
X140657993Y-99824161D01*
X140622523Y-99797855D01*
X140589802Y-99768198D01*
X140560145Y-99735477D01*
X140533839Y-99700007D01*
X140511135Y-99662129D01*
X140492254Y-99622208D01*
X140477377Y-99580628D01*
X140466647Y-99537791D01*
X140460167Y-99494108D01*
X140458000Y-99450000D01*
X140458000Y-98550000D01*
X140460167Y-98505892D01*
X140466647Y-98462209D01*
X140477377Y-98419372D01*
X140492254Y-98377792D01*
X140511135Y-98337871D01*
X140533839Y-98299993D01*
X140560145Y-98264523D01*
X140589802Y-98231802D01*
X140622523Y-98202145D01*
X140657993Y-98175839D01*
X140695871Y-98153135D01*
X140735792Y-98134254D01*
X140777372Y-98119377D01*
X140820209Y-98108647D01*
X140863892Y-98102167D01*
X140908000Y-98100000D01*
X142108000Y-98100000D01*
X142152108Y-98102167D01*
X142152108Y-98102167D01*
G37*
D14*
X141508000Y-99000000D03*
X141000000Y-104080000D03*
X141000000Y-101540000D03*
X141000000Y-99000000D03*
D13*
G36*
X142152108Y-111182167D02*
G01*
X142195791Y-111188647D01*
X142238628Y-111199377D01*
X142280208Y-111214254D01*
X142320129Y-111233135D01*
X142358007Y-111255839D01*
X142393477Y-111282145D01*
X142426198Y-111311802D01*
X142455855Y-111344523D01*
X142482161Y-111379993D01*
X142504865Y-111417871D01*
X142523746Y-111457792D01*
X142538623Y-111499372D01*
X142549353Y-111542209D01*
X142555833Y-111585892D01*
X142558000Y-111630000D01*
X142558000Y-112530000D01*
X142555833Y-112574108D01*
X142549353Y-112617791D01*
X142538623Y-112660628D01*
X142523746Y-112702208D01*
X142504865Y-112742129D01*
X142482161Y-112780007D01*
X142455855Y-112815477D01*
X142426198Y-112848198D01*
X142393477Y-112877855D01*
X142358007Y-112904161D01*
X142320129Y-112926865D01*
X142280208Y-112945746D01*
X142238628Y-112960623D01*
X142195791Y-112971353D01*
X142152108Y-112977833D01*
X142108000Y-112980000D01*
X140908000Y-112980000D01*
X140863892Y-112977833D01*
X140820209Y-112971353D01*
X140777372Y-112960623D01*
X140735792Y-112945746D01*
X140695871Y-112926865D01*
X140657993Y-112904161D01*
X140622523Y-112877855D01*
X140589802Y-112848198D01*
X140560145Y-112815477D01*
X140533839Y-112780007D01*
X140511135Y-112742129D01*
X140492254Y-112702208D01*
X140477377Y-112660628D01*
X140466647Y-112617791D01*
X140460167Y-112574108D01*
X140458000Y-112530000D01*
X140458000Y-111630000D01*
X140460167Y-111585892D01*
X140466647Y-111542209D01*
X140477377Y-111499372D01*
X140492254Y-111457792D01*
X140511135Y-111417871D01*
X140533839Y-111379993D01*
X140560145Y-111344523D01*
X140589802Y-111311802D01*
X140622523Y-111282145D01*
X140657993Y-111255839D01*
X140695871Y-111233135D01*
X140735792Y-111214254D01*
X140777372Y-111199377D01*
X140820209Y-111188647D01*
X140863892Y-111182167D01*
X140908000Y-111180000D01*
X142108000Y-111180000D01*
X142152108Y-111182167D01*
X142152108Y-111182167D01*
G37*
D14*
X141508000Y-112080000D03*
D13*
G36*
X142152108Y-108642167D02*
G01*
X142195791Y-108648647D01*
X142238628Y-108659377D01*
X142280208Y-108674254D01*
X142320129Y-108693135D01*
X142358007Y-108715839D01*
X142393477Y-108742145D01*
X142426198Y-108771802D01*
X142455855Y-108804523D01*
X142482161Y-108839993D01*
X142504865Y-108877871D01*
X142523746Y-108917792D01*
X142538623Y-108959372D01*
X142549353Y-109002209D01*
X142555833Y-109045892D01*
X142558000Y-109090000D01*
X142558000Y-109990000D01*
X142555833Y-110034108D01*
X142549353Y-110077791D01*
X142538623Y-110120628D01*
X142523746Y-110162208D01*
X142504865Y-110202129D01*
X142482161Y-110240007D01*
X142455855Y-110275477D01*
X142426198Y-110308198D01*
X142393477Y-110337855D01*
X142358007Y-110364161D01*
X142320129Y-110386865D01*
X142280208Y-110405746D01*
X142238628Y-110420623D01*
X142195791Y-110431353D01*
X142152108Y-110437833D01*
X142108000Y-110440000D01*
X140908000Y-110440000D01*
X140863892Y-110437833D01*
X140820209Y-110431353D01*
X140777372Y-110420623D01*
X140735792Y-110405746D01*
X140695871Y-110386865D01*
X140657993Y-110364161D01*
X140622523Y-110337855D01*
X140589802Y-110308198D01*
X140560145Y-110275477D01*
X140533839Y-110240007D01*
X140511135Y-110202129D01*
X140492254Y-110162208D01*
X140477377Y-110120628D01*
X140466647Y-110077791D01*
X140460167Y-110034108D01*
X140458000Y-109990000D01*
X140458000Y-109090000D01*
X140460167Y-109045892D01*
X140466647Y-109002209D01*
X140477377Y-108959372D01*
X140492254Y-108917792D01*
X140511135Y-108877871D01*
X140533839Y-108839993D01*
X140560145Y-108804523D01*
X140589802Y-108771802D01*
X140622523Y-108742145D01*
X140657993Y-108715839D01*
X140695871Y-108693135D01*
X140735792Y-108674254D01*
X140777372Y-108659377D01*
X140820209Y-108648647D01*
X140863892Y-108642167D01*
X140908000Y-108640000D01*
X142108000Y-108640000D01*
X142152108Y-108642167D01*
X142152108Y-108642167D01*
G37*
D14*
X141508000Y-109540000D03*
D13*
G36*
X142152108Y-106102167D02*
G01*
X142195791Y-106108647D01*
X142238628Y-106119377D01*
X142280208Y-106134254D01*
X142320129Y-106153135D01*
X142358007Y-106175839D01*
X142393477Y-106202145D01*
X142426198Y-106231802D01*
X142455855Y-106264523D01*
X142482161Y-106299993D01*
X142504865Y-106337871D01*
X142523746Y-106377792D01*
X142538623Y-106419372D01*
X142549353Y-106462209D01*
X142555833Y-106505892D01*
X142558000Y-106550000D01*
X142558000Y-107450000D01*
X142555833Y-107494108D01*
X142549353Y-107537791D01*
X142538623Y-107580628D01*
X142523746Y-107622208D01*
X142504865Y-107662129D01*
X142482161Y-107700007D01*
X142455855Y-107735477D01*
X142426198Y-107768198D01*
X142393477Y-107797855D01*
X142358007Y-107824161D01*
X142320129Y-107846865D01*
X142280208Y-107865746D01*
X142238628Y-107880623D01*
X142195791Y-107891353D01*
X142152108Y-107897833D01*
X142108000Y-107900000D01*
X140908000Y-107900000D01*
X140863892Y-107897833D01*
X140820209Y-107891353D01*
X140777372Y-107880623D01*
X140735792Y-107865746D01*
X140695871Y-107846865D01*
X140657993Y-107824161D01*
X140622523Y-107797855D01*
X140589802Y-107768198D01*
X140560145Y-107735477D01*
X140533839Y-107700007D01*
X140511135Y-107662129D01*
X140492254Y-107622208D01*
X140477377Y-107580628D01*
X140466647Y-107537791D01*
X140460167Y-107494108D01*
X140458000Y-107450000D01*
X140458000Y-106550000D01*
X140460167Y-106505892D01*
X140466647Y-106462209D01*
X140477377Y-106419372D01*
X140492254Y-106377792D01*
X140511135Y-106337871D01*
X140533839Y-106299993D01*
X140560145Y-106264523D01*
X140589802Y-106231802D01*
X140622523Y-106202145D01*
X140657993Y-106175839D01*
X140695871Y-106153135D01*
X140735792Y-106134254D01*
X140777372Y-106119377D01*
X140820209Y-106108647D01*
X140863892Y-106102167D01*
X140908000Y-106100000D01*
X142108000Y-106100000D01*
X142152108Y-106102167D01*
X142152108Y-106102167D01*
G37*
D14*
X141508000Y-107000000D03*
X141000000Y-112080000D03*
X141000000Y-109540000D03*
X141000000Y-107000000D03*
D15*
X152300000Y-109500000D03*
X152300000Y-104500000D03*
D13*
G36*
X152912252Y-108050602D02*
G01*
X152924386Y-108052402D01*
X152936286Y-108055382D01*
X152947835Y-108059515D01*
X152958925Y-108064760D01*
X152969446Y-108071066D01*
X152979299Y-108078374D01*
X152988388Y-108086612D01*
X152996626Y-108095701D01*
X153003934Y-108105554D01*
X153010240Y-108116075D01*
X153015485Y-108127165D01*
X153019618Y-108138714D01*
X153022598Y-108150614D01*
X153024398Y-108162748D01*
X153025000Y-108175000D01*
X153025000Y-108425000D01*
X153024398Y-108437252D01*
X153022598Y-108449386D01*
X153019618Y-108461286D01*
X153015485Y-108472835D01*
X153010240Y-108483925D01*
X153003934Y-108494446D01*
X152996626Y-108504299D01*
X152988388Y-108513388D01*
X152979299Y-108521626D01*
X152969446Y-108528934D01*
X152958925Y-108535240D01*
X152947835Y-108540485D01*
X152936286Y-108544618D01*
X152924386Y-108547598D01*
X152912252Y-108549398D01*
X152900000Y-108550000D01*
X151700000Y-108550000D01*
X151687748Y-108549398D01*
X151675614Y-108547598D01*
X151663714Y-108544618D01*
X151652165Y-108540485D01*
X151641075Y-108535240D01*
X151630554Y-108528934D01*
X151620701Y-108521626D01*
X151611612Y-108513388D01*
X151603374Y-108504299D01*
X151596066Y-108494446D01*
X151589760Y-108483925D01*
X151584515Y-108472835D01*
X151580382Y-108461286D01*
X151577402Y-108449386D01*
X151575602Y-108437252D01*
X151575000Y-108425000D01*
X151575000Y-108175000D01*
X151575602Y-108162748D01*
X151577402Y-108150614D01*
X151580382Y-108138714D01*
X151584515Y-108127165D01*
X151589760Y-108116075D01*
X151596066Y-108105554D01*
X151603374Y-108095701D01*
X151611612Y-108086612D01*
X151620701Y-108078374D01*
X151630554Y-108071066D01*
X151641075Y-108064760D01*
X151652165Y-108059515D01*
X151663714Y-108055382D01*
X151675614Y-108052402D01*
X151687748Y-108050602D01*
X151700000Y-108050000D01*
X152900000Y-108050000D01*
X152912252Y-108050602D01*
X152912252Y-108050602D01*
G37*
D16*
X152300000Y-108300000D03*
D13*
G36*
X152912252Y-107400602D02*
G01*
X152924386Y-107402402D01*
X152936286Y-107405382D01*
X152947835Y-107409515D01*
X152958925Y-107414760D01*
X152969446Y-107421066D01*
X152979299Y-107428374D01*
X152988388Y-107436612D01*
X152996626Y-107445701D01*
X153003934Y-107455554D01*
X153010240Y-107466075D01*
X153015485Y-107477165D01*
X153019618Y-107488714D01*
X153022598Y-107500614D01*
X153024398Y-107512748D01*
X153025000Y-107525000D01*
X153025000Y-107775000D01*
X153024398Y-107787252D01*
X153022598Y-107799386D01*
X153019618Y-107811286D01*
X153015485Y-107822835D01*
X153010240Y-107833925D01*
X153003934Y-107844446D01*
X152996626Y-107854299D01*
X152988388Y-107863388D01*
X152979299Y-107871626D01*
X152969446Y-107878934D01*
X152958925Y-107885240D01*
X152947835Y-107890485D01*
X152936286Y-107894618D01*
X152924386Y-107897598D01*
X152912252Y-107899398D01*
X152900000Y-107900000D01*
X151700000Y-107900000D01*
X151687748Y-107899398D01*
X151675614Y-107897598D01*
X151663714Y-107894618D01*
X151652165Y-107890485D01*
X151641075Y-107885240D01*
X151630554Y-107878934D01*
X151620701Y-107871626D01*
X151611612Y-107863388D01*
X151603374Y-107854299D01*
X151596066Y-107844446D01*
X151589760Y-107833925D01*
X151584515Y-107822835D01*
X151580382Y-107811286D01*
X151577402Y-107799386D01*
X151575602Y-107787252D01*
X151575000Y-107775000D01*
X151575000Y-107525000D01*
X151575602Y-107512748D01*
X151577402Y-107500614D01*
X151580382Y-107488714D01*
X151584515Y-107477165D01*
X151589760Y-107466075D01*
X151596066Y-107455554D01*
X151603374Y-107445701D01*
X151611612Y-107436612D01*
X151620701Y-107428374D01*
X151630554Y-107421066D01*
X151641075Y-107414760D01*
X151652165Y-107409515D01*
X151663714Y-107405382D01*
X151675614Y-107402402D01*
X151687748Y-107400602D01*
X151700000Y-107400000D01*
X152900000Y-107400000D01*
X152912252Y-107400602D01*
X152912252Y-107400602D01*
G37*
D16*
X152300000Y-107650000D03*
D13*
G36*
X152912252Y-106750602D02*
G01*
X152924386Y-106752402D01*
X152936286Y-106755382D01*
X152947835Y-106759515D01*
X152958925Y-106764760D01*
X152969446Y-106771066D01*
X152979299Y-106778374D01*
X152988388Y-106786612D01*
X152996626Y-106795701D01*
X153003934Y-106805554D01*
X153010240Y-106816075D01*
X153015485Y-106827165D01*
X153019618Y-106838714D01*
X153022598Y-106850614D01*
X153024398Y-106862748D01*
X153025000Y-106875000D01*
X153025000Y-107125000D01*
X153024398Y-107137252D01*
X153022598Y-107149386D01*
X153019618Y-107161286D01*
X153015485Y-107172835D01*
X153010240Y-107183925D01*
X153003934Y-107194446D01*
X152996626Y-107204299D01*
X152988388Y-107213388D01*
X152979299Y-107221626D01*
X152969446Y-107228934D01*
X152958925Y-107235240D01*
X152947835Y-107240485D01*
X152936286Y-107244618D01*
X152924386Y-107247598D01*
X152912252Y-107249398D01*
X152900000Y-107250000D01*
X151700000Y-107250000D01*
X151687748Y-107249398D01*
X151675614Y-107247598D01*
X151663714Y-107244618D01*
X151652165Y-107240485D01*
X151641075Y-107235240D01*
X151630554Y-107228934D01*
X151620701Y-107221626D01*
X151611612Y-107213388D01*
X151603374Y-107204299D01*
X151596066Y-107194446D01*
X151589760Y-107183925D01*
X151584515Y-107172835D01*
X151580382Y-107161286D01*
X151577402Y-107149386D01*
X151575602Y-107137252D01*
X151575000Y-107125000D01*
X151575000Y-106875000D01*
X151575602Y-106862748D01*
X151577402Y-106850614D01*
X151580382Y-106838714D01*
X151584515Y-106827165D01*
X151589760Y-106816075D01*
X151596066Y-106805554D01*
X151603374Y-106795701D01*
X151611612Y-106786612D01*
X151620701Y-106778374D01*
X151630554Y-106771066D01*
X151641075Y-106764760D01*
X151652165Y-106759515D01*
X151663714Y-106755382D01*
X151675614Y-106752402D01*
X151687748Y-106750602D01*
X151700000Y-106750000D01*
X152900000Y-106750000D01*
X152912252Y-106750602D01*
X152912252Y-106750602D01*
G37*
D16*
X152300000Y-107000000D03*
D13*
G36*
X152912252Y-106100602D02*
G01*
X152924386Y-106102402D01*
X152936286Y-106105382D01*
X152947835Y-106109515D01*
X152958925Y-106114760D01*
X152969446Y-106121066D01*
X152979299Y-106128374D01*
X152988388Y-106136612D01*
X152996626Y-106145701D01*
X153003934Y-106155554D01*
X153010240Y-106166075D01*
X153015485Y-106177165D01*
X153019618Y-106188714D01*
X153022598Y-106200614D01*
X153024398Y-106212748D01*
X153025000Y-106225000D01*
X153025000Y-106475000D01*
X153024398Y-106487252D01*
X153022598Y-106499386D01*
X153019618Y-106511286D01*
X153015485Y-106522835D01*
X153010240Y-106533925D01*
X153003934Y-106544446D01*
X152996626Y-106554299D01*
X152988388Y-106563388D01*
X152979299Y-106571626D01*
X152969446Y-106578934D01*
X152958925Y-106585240D01*
X152947835Y-106590485D01*
X152936286Y-106594618D01*
X152924386Y-106597598D01*
X152912252Y-106599398D01*
X152900000Y-106600000D01*
X151700000Y-106600000D01*
X151687748Y-106599398D01*
X151675614Y-106597598D01*
X151663714Y-106594618D01*
X151652165Y-106590485D01*
X151641075Y-106585240D01*
X151630554Y-106578934D01*
X151620701Y-106571626D01*
X151611612Y-106563388D01*
X151603374Y-106554299D01*
X151596066Y-106544446D01*
X151589760Y-106533925D01*
X151584515Y-106522835D01*
X151580382Y-106511286D01*
X151577402Y-106499386D01*
X151575602Y-106487252D01*
X151575000Y-106475000D01*
X151575000Y-106225000D01*
X151575602Y-106212748D01*
X151577402Y-106200614D01*
X151580382Y-106188714D01*
X151584515Y-106177165D01*
X151589760Y-106166075D01*
X151596066Y-106155554D01*
X151603374Y-106145701D01*
X151611612Y-106136612D01*
X151620701Y-106128374D01*
X151630554Y-106121066D01*
X151641075Y-106114760D01*
X151652165Y-106109515D01*
X151663714Y-106105382D01*
X151675614Y-106102402D01*
X151687748Y-106100602D01*
X151700000Y-106100000D01*
X152900000Y-106100000D01*
X152912252Y-106100602D01*
X152912252Y-106100602D01*
G37*
D16*
X152300000Y-106350000D03*
D13*
G36*
X152912252Y-105450602D02*
G01*
X152924386Y-105452402D01*
X152936286Y-105455382D01*
X152947835Y-105459515D01*
X152958925Y-105464760D01*
X152969446Y-105471066D01*
X152979299Y-105478374D01*
X152988388Y-105486612D01*
X152996626Y-105495701D01*
X153003934Y-105505554D01*
X153010240Y-105516075D01*
X153015485Y-105527165D01*
X153019618Y-105538714D01*
X153022598Y-105550614D01*
X153024398Y-105562748D01*
X153025000Y-105575000D01*
X153025000Y-105825000D01*
X153024398Y-105837252D01*
X153022598Y-105849386D01*
X153019618Y-105861286D01*
X153015485Y-105872835D01*
X153010240Y-105883925D01*
X153003934Y-105894446D01*
X152996626Y-105904299D01*
X152988388Y-105913388D01*
X152979299Y-105921626D01*
X152969446Y-105928934D01*
X152958925Y-105935240D01*
X152947835Y-105940485D01*
X152936286Y-105944618D01*
X152924386Y-105947598D01*
X152912252Y-105949398D01*
X152900000Y-105950000D01*
X151700000Y-105950000D01*
X151687748Y-105949398D01*
X151675614Y-105947598D01*
X151663714Y-105944618D01*
X151652165Y-105940485D01*
X151641075Y-105935240D01*
X151630554Y-105928934D01*
X151620701Y-105921626D01*
X151611612Y-105913388D01*
X151603374Y-105904299D01*
X151596066Y-105894446D01*
X151589760Y-105883925D01*
X151584515Y-105872835D01*
X151580382Y-105861286D01*
X151577402Y-105849386D01*
X151575602Y-105837252D01*
X151575000Y-105825000D01*
X151575000Y-105575000D01*
X151575602Y-105562748D01*
X151577402Y-105550614D01*
X151580382Y-105538714D01*
X151584515Y-105527165D01*
X151589760Y-105516075D01*
X151596066Y-105505554D01*
X151603374Y-105495701D01*
X151611612Y-105486612D01*
X151620701Y-105478374D01*
X151630554Y-105471066D01*
X151641075Y-105464760D01*
X151652165Y-105459515D01*
X151663714Y-105455382D01*
X151675614Y-105452402D01*
X151687748Y-105450602D01*
X151700000Y-105450000D01*
X152900000Y-105450000D01*
X152912252Y-105450602D01*
X152912252Y-105450602D01*
G37*
D16*
X152300000Y-105700000D03*
D13*
G36*
X155655683Y-105200770D02*
G01*
X155671214Y-105203074D01*
X155686446Y-105206890D01*
X155701229Y-105212179D01*
X155715423Y-105218893D01*
X155728891Y-105226965D01*
X155741503Y-105236318D01*
X155753137Y-105246863D01*
X155763682Y-105258497D01*
X155773035Y-105271109D01*
X155781107Y-105284577D01*
X155787821Y-105298771D01*
X155793110Y-105313554D01*
X155796926Y-105328786D01*
X155799230Y-105344317D01*
X155800000Y-105360000D01*
X155800000Y-106640000D01*
X155799230Y-106655683D01*
X155796926Y-106671214D01*
X155793110Y-106686446D01*
X155787821Y-106701229D01*
X155781107Y-106715423D01*
X155773035Y-106728891D01*
X155763682Y-106741503D01*
X155753137Y-106753137D01*
X155741503Y-106763682D01*
X155728891Y-106773035D01*
X155715423Y-106781107D01*
X155701229Y-106787821D01*
X155686446Y-106793110D01*
X155671214Y-106796926D01*
X155655683Y-106799230D01*
X155640000Y-106800000D01*
X154360000Y-106800000D01*
X154344317Y-106799230D01*
X154328786Y-106796926D01*
X154313554Y-106793110D01*
X154298771Y-106787821D01*
X154284577Y-106781107D01*
X154271109Y-106773035D01*
X154258497Y-106763682D01*
X154246863Y-106753137D01*
X154236318Y-106741503D01*
X154226965Y-106728891D01*
X154218893Y-106715423D01*
X154212179Y-106701229D01*
X154206890Y-106686446D01*
X154203074Y-106671214D01*
X154200770Y-106655683D01*
X154200000Y-106640000D01*
X154200000Y-105360000D01*
X154200770Y-105344317D01*
X154203074Y-105328786D01*
X154206890Y-105313554D01*
X154212179Y-105298771D01*
X154218893Y-105284577D01*
X154226965Y-105271109D01*
X154236318Y-105258497D01*
X154246863Y-105246863D01*
X154258497Y-105236318D01*
X154271109Y-105226965D01*
X154284577Y-105218893D01*
X154298771Y-105212179D01*
X154313554Y-105206890D01*
X154328786Y-105203074D01*
X154344317Y-105200770D01*
X154360000Y-105200000D01*
X155640000Y-105200000D01*
X155655683Y-105200770D01*
X155655683Y-105200770D01*
G37*
D17*
X155000000Y-106000000D03*
D13*
G36*
X155655683Y-107200770D02*
G01*
X155671214Y-107203074D01*
X155686446Y-107206890D01*
X155701229Y-107212179D01*
X155715423Y-107218893D01*
X155728891Y-107226965D01*
X155741503Y-107236318D01*
X155753137Y-107246863D01*
X155763682Y-107258497D01*
X155773035Y-107271109D01*
X155781107Y-107284577D01*
X155787821Y-107298771D01*
X155793110Y-107313554D01*
X155796926Y-107328786D01*
X155799230Y-107344317D01*
X155800000Y-107360000D01*
X155800000Y-108640000D01*
X155799230Y-108655683D01*
X155796926Y-108671214D01*
X155793110Y-108686446D01*
X155787821Y-108701229D01*
X155781107Y-108715423D01*
X155773035Y-108728891D01*
X155763682Y-108741503D01*
X155753137Y-108753137D01*
X155741503Y-108763682D01*
X155728891Y-108773035D01*
X155715423Y-108781107D01*
X155701229Y-108787821D01*
X155686446Y-108793110D01*
X155671214Y-108796926D01*
X155655683Y-108799230D01*
X155640000Y-108800000D01*
X154360000Y-108800000D01*
X154344317Y-108799230D01*
X154328786Y-108796926D01*
X154313554Y-108793110D01*
X154298771Y-108787821D01*
X154284577Y-108781107D01*
X154271109Y-108773035D01*
X154258497Y-108763682D01*
X154246863Y-108753137D01*
X154236318Y-108741503D01*
X154226965Y-108728891D01*
X154218893Y-108715423D01*
X154212179Y-108701229D01*
X154206890Y-108686446D01*
X154203074Y-108671214D01*
X154200770Y-108655683D01*
X154200000Y-108640000D01*
X154200000Y-107360000D01*
X154200770Y-107344317D01*
X154203074Y-107328786D01*
X154206890Y-107313554D01*
X154212179Y-107298771D01*
X154218893Y-107284577D01*
X154226965Y-107271109D01*
X154236318Y-107258497D01*
X154246863Y-107246863D01*
X154258497Y-107236318D01*
X154271109Y-107226965D01*
X154284577Y-107218893D01*
X154298771Y-107212179D01*
X154313554Y-107206890D01*
X154328786Y-107203074D01*
X154344317Y-107200770D01*
X154360000Y-107200000D01*
X155640000Y-107200000D01*
X155655683Y-107200770D01*
X155655683Y-107200770D01*
G37*
D17*
X155000000Y-108000000D03*
D18*
X155000000Y-103500000D03*
X155000000Y-110500000D03*
D13*
G36*
X155655683Y-103200770D02*
G01*
X155671214Y-103203074D01*
X155686446Y-103206890D01*
X155701229Y-103212179D01*
X155715423Y-103218893D01*
X155728891Y-103226965D01*
X155741503Y-103236318D01*
X155753137Y-103246863D01*
X155763682Y-103258497D01*
X155773035Y-103271109D01*
X155781107Y-103284577D01*
X155787821Y-103298771D01*
X155793110Y-103313554D01*
X155796926Y-103328786D01*
X155799230Y-103344317D01*
X155800000Y-103360000D01*
X155800000Y-104640000D01*
X155799230Y-104655683D01*
X155796926Y-104671214D01*
X155793110Y-104686446D01*
X155787821Y-104701229D01*
X155781107Y-104715423D01*
X155773035Y-104728891D01*
X155763682Y-104741503D01*
X155753137Y-104753137D01*
X155741503Y-104763682D01*
X155728891Y-104773035D01*
X155715423Y-104781107D01*
X155701229Y-104787821D01*
X155686446Y-104793110D01*
X155671214Y-104796926D01*
X155655683Y-104799230D01*
X155640000Y-104800000D01*
X154360000Y-104800000D01*
X154344317Y-104799230D01*
X154328786Y-104796926D01*
X154313554Y-104793110D01*
X154298771Y-104787821D01*
X154284577Y-104781107D01*
X154271109Y-104773035D01*
X154258497Y-104763682D01*
X154246863Y-104753137D01*
X154236318Y-104741503D01*
X154226965Y-104728891D01*
X154218893Y-104715423D01*
X154212179Y-104701229D01*
X154206890Y-104686446D01*
X154203074Y-104671214D01*
X154200770Y-104655683D01*
X154200000Y-104640000D01*
X154200000Y-103360000D01*
X154200770Y-103344317D01*
X154203074Y-103328786D01*
X154206890Y-103313554D01*
X154212179Y-103298771D01*
X154218893Y-103284577D01*
X154226965Y-103271109D01*
X154236318Y-103258497D01*
X154246863Y-103246863D01*
X154258497Y-103236318D01*
X154271109Y-103226965D01*
X154284577Y-103218893D01*
X154298771Y-103212179D01*
X154313554Y-103206890D01*
X154328786Y-103203074D01*
X154344317Y-103200770D01*
X154360000Y-103200000D01*
X155640000Y-103200000D01*
X155655683Y-103200770D01*
X155655683Y-103200770D01*
G37*
D17*
X155000000Y-104000000D03*
D13*
G36*
X155655683Y-109200770D02*
G01*
X155671214Y-109203074D01*
X155686446Y-109206890D01*
X155701229Y-109212179D01*
X155715423Y-109218893D01*
X155728891Y-109226965D01*
X155741503Y-109236318D01*
X155753137Y-109246863D01*
X155763682Y-109258497D01*
X155773035Y-109271109D01*
X155781107Y-109284577D01*
X155787821Y-109298771D01*
X155793110Y-109313554D01*
X155796926Y-109328786D01*
X155799230Y-109344317D01*
X155800000Y-109360000D01*
X155800000Y-110640000D01*
X155799230Y-110655683D01*
X155796926Y-110671214D01*
X155793110Y-110686446D01*
X155787821Y-110701229D01*
X155781107Y-110715423D01*
X155773035Y-110728891D01*
X155763682Y-110741503D01*
X155753137Y-110753137D01*
X155741503Y-110763682D01*
X155728891Y-110773035D01*
X155715423Y-110781107D01*
X155701229Y-110787821D01*
X155686446Y-110793110D01*
X155671214Y-110796926D01*
X155655683Y-110799230D01*
X155640000Y-110800000D01*
X154360000Y-110800000D01*
X154344317Y-110799230D01*
X154328786Y-110796926D01*
X154313554Y-110793110D01*
X154298771Y-110787821D01*
X154284577Y-110781107D01*
X154271109Y-110773035D01*
X154258497Y-110763682D01*
X154246863Y-110753137D01*
X154236318Y-110741503D01*
X154226965Y-110728891D01*
X154218893Y-110715423D01*
X154212179Y-110701229D01*
X154206890Y-110686446D01*
X154203074Y-110671214D01*
X154200770Y-110655683D01*
X154200000Y-110640000D01*
X154200000Y-109360000D01*
X154200770Y-109344317D01*
X154203074Y-109328786D01*
X154206890Y-109313554D01*
X154212179Y-109298771D01*
X154218893Y-109284577D01*
X154226965Y-109271109D01*
X154236318Y-109258497D01*
X154246863Y-109246863D01*
X154258497Y-109236318D01*
X154271109Y-109226965D01*
X154284577Y-109218893D01*
X154298771Y-109212179D01*
X154313554Y-109206890D01*
X154328786Y-109203074D01*
X154344317Y-109200770D01*
X154360000Y-109200000D01*
X155640000Y-109200000D01*
X155655683Y-109200770D01*
X155655683Y-109200770D01*
G37*
D17*
X155000000Y-110000000D03*
D13*
G36*
X147712252Y-109100602D02*
G01*
X147724386Y-109102402D01*
X147736286Y-109105382D01*
X147747835Y-109109515D01*
X147758925Y-109114760D01*
X147769446Y-109121066D01*
X147779299Y-109128374D01*
X147788388Y-109136612D01*
X147796626Y-109145701D01*
X147803934Y-109155554D01*
X147810240Y-109166075D01*
X147815485Y-109177165D01*
X147819618Y-109188714D01*
X147822598Y-109200614D01*
X147824398Y-109212748D01*
X147825000Y-109225000D01*
X147825000Y-109475000D01*
X147824398Y-109487252D01*
X147822598Y-109499386D01*
X147819618Y-109511286D01*
X147815485Y-109522835D01*
X147810240Y-109533925D01*
X147803934Y-109544446D01*
X147796626Y-109554299D01*
X147788388Y-109563388D01*
X147779299Y-109571626D01*
X147769446Y-109578934D01*
X147758925Y-109585240D01*
X147747835Y-109590485D01*
X147736286Y-109594618D01*
X147724386Y-109597598D01*
X147712252Y-109599398D01*
X147700000Y-109600000D01*
X147200000Y-109600000D01*
X147187748Y-109599398D01*
X147175614Y-109597598D01*
X147163714Y-109594618D01*
X147152165Y-109590485D01*
X147141075Y-109585240D01*
X147130554Y-109578934D01*
X147120701Y-109571626D01*
X147111612Y-109563388D01*
X147103374Y-109554299D01*
X147096066Y-109544446D01*
X147089760Y-109533925D01*
X147084515Y-109522835D01*
X147080382Y-109511286D01*
X147077402Y-109499386D01*
X147075602Y-109487252D01*
X147075000Y-109475000D01*
X147075000Y-109225000D01*
X147075602Y-109212748D01*
X147077402Y-109200614D01*
X147080382Y-109188714D01*
X147084515Y-109177165D01*
X147089760Y-109166075D01*
X147096066Y-109155554D01*
X147103374Y-109145701D01*
X147111612Y-109136612D01*
X147120701Y-109128374D01*
X147130554Y-109121066D01*
X147141075Y-109114760D01*
X147152165Y-109109515D01*
X147163714Y-109105382D01*
X147175614Y-109102402D01*
X147187748Y-109100602D01*
X147200000Y-109100000D01*
X147700000Y-109100000D01*
X147712252Y-109100602D01*
X147712252Y-109100602D01*
G37*
D16*
X147450000Y-109350000D03*
D13*
G36*
X147712252Y-110400602D02*
G01*
X147724386Y-110402402D01*
X147736286Y-110405382D01*
X147747835Y-110409515D01*
X147758925Y-110414760D01*
X147769446Y-110421066D01*
X147779299Y-110428374D01*
X147788388Y-110436612D01*
X147796626Y-110445701D01*
X147803934Y-110455554D01*
X147810240Y-110466075D01*
X147815485Y-110477165D01*
X147819618Y-110488714D01*
X147822598Y-110500614D01*
X147824398Y-110512748D01*
X147825000Y-110525000D01*
X147825000Y-110775000D01*
X147824398Y-110787252D01*
X147822598Y-110799386D01*
X147819618Y-110811286D01*
X147815485Y-110822835D01*
X147810240Y-110833925D01*
X147803934Y-110844446D01*
X147796626Y-110854299D01*
X147788388Y-110863388D01*
X147779299Y-110871626D01*
X147769446Y-110878934D01*
X147758925Y-110885240D01*
X147747835Y-110890485D01*
X147736286Y-110894618D01*
X147724386Y-110897598D01*
X147712252Y-110899398D01*
X147700000Y-110900000D01*
X147200000Y-110900000D01*
X147187748Y-110899398D01*
X147175614Y-110897598D01*
X147163714Y-110894618D01*
X147152165Y-110890485D01*
X147141075Y-110885240D01*
X147130554Y-110878934D01*
X147120701Y-110871626D01*
X147111612Y-110863388D01*
X147103374Y-110854299D01*
X147096066Y-110844446D01*
X147089760Y-110833925D01*
X147084515Y-110822835D01*
X147080382Y-110811286D01*
X147077402Y-110799386D01*
X147075602Y-110787252D01*
X147075000Y-110775000D01*
X147075000Y-110525000D01*
X147075602Y-110512748D01*
X147077402Y-110500614D01*
X147080382Y-110488714D01*
X147084515Y-110477165D01*
X147089760Y-110466075D01*
X147096066Y-110455554D01*
X147103374Y-110445701D01*
X147111612Y-110436612D01*
X147120701Y-110428374D01*
X147130554Y-110421066D01*
X147141075Y-110414760D01*
X147152165Y-110409515D01*
X147163714Y-110405382D01*
X147175614Y-110402402D01*
X147187748Y-110400602D01*
X147200000Y-110400000D01*
X147700000Y-110400000D01*
X147712252Y-110400602D01*
X147712252Y-110400602D01*
G37*
D16*
X147450000Y-110650000D03*
D13*
G36*
X145812252Y-109750602D02*
G01*
X145824386Y-109752402D01*
X145836286Y-109755382D01*
X145847835Y-109759515D01*
X145858925Y-109764760D01*
X145869446Y-109771066D01*
X145879299Y-109778374D01*
X145888388Y-109786612D01*
X145896626Y-109795701D01*
X145903934Y-109805554D01*
X145910240Y-109816075D01*
X145915485Y-109827165D01*
X145919618Y-109838714D01*
X145922598Y-109850614D01*
X145924398Y-109862748D01*
X145925000Y-109875000D01*
X145925000Y-110125000D01*
X145924398Y-110137252D01*
X145922598Y-110149386D01*
X145919618Y-110161286D01*
X145915485Y-110172835D01*
X145910240Y-110183925D01*
X145903934Y-110194446D01*
X145896626Y-110204299D01*
X145888388Y-110213388D01*
X145879299Y-110221626D01*
X145869446Y-110228934D01*
X145858925Y-110235240D01*
X145847835Y-110240485D01*
X145836286Y-110244618D01*
X145824386Y-110247598D01*
X145812252Y-110249398D01*
X145800000Y-110250000D01*
X145300000Y-110250000D01*
X145287748Y-110249398D01*
X145275614Y-110247598D01*
X145263714Y-110244618D01*
X145252165Y-110240485D01*
X145241075Y-110235240D01*
X145230554Y-110228934D01*
X145220701Y-110221626D01*
X145211612Y-110213388D01*
X145203374Y-110204299D01*
X145196066Y-110194446D01*
X145189760Y-110183925D01*
X145184515Y-110172835D01*
X145180382Y-110161286D01*
X145177402Y-110149386D01*
X145175602Y-110137252D01*
X145175000Y-110125000D01*
X145175000Y-109875000D01*
X145175602Y-109862748D01*
X145177402Y-109850614D01*
X145180382Y-109838714D01*
X145184515Y-109827165D01*
X145189760Y-109816075D01*
X145196066Y-109805554D01*
X145203374Y-109795701D01*
X145211612Y-109786612D01*
X145220701Y-109778374D01*
X145230554Y-109771066D01*
X145241075Y-109764760D01*
X145252165Y-109759515D01*
X145263714Y-109755382D01*
X145275614Y-109752402D01*
X145287748Y-109750602D01*
X145300000Y-109750000D01*
X145800000Y-109750000D01*
X145812252Y-109750602D01*
X145812252Y-109750602D01*
G37*
D16*
X145550000Y-110000000D03*
D13*
G36*
X145812252Y-110400602D02*
G01*
X145824386Y-110402402D01*
X145836286Y-110405382D01*
X145847835Y-110409515D01*
X145858925Y-110414760D01*
X145869446Y-110421066D01*
X145879299Y-110428374D01*
X145888388Y-110436612D01*
X145896626Y-110445701D01*
X145903934Y-110455554D01*
X145910240Y-110466075D01*
X145915485Y-110477165D01*
X145919618Y-110488714D01*
X145922598Y-110500614D01*
X145924398Y-110512748D01*
X145925000Y-110525000D01*
X145925000Y-110775000D01*
X145924398Y-110787252D01*
X145922598Y-110799386D01*
X145919618Y-110811286D01*
X145915485Y-110822835D01*
X145910240Y-110833925D01*
X145903934Y-110844446D01*
X145896626Y-110854299D01*
X145888388Y-110863388D01*
X145879299Y-110871626D01*
X145869446Y-110878934D01*
X145858925Y-110885240D01*
X145847835Y-110890485D01*
X145836286Y-110894618D01*
X145824386Y-110897598D01*
X145812252Y-110899398D01*
X145800000Y-110900000D01*
X145300000Y-110900000D01*
X145287748Y-110899398D01*
X145275614Y-110897598D01*
X145263714Y-110894618D01*
X145252165Y-110890485D01*
X145241075Y-110885240D01*
X145230554Y-110878934D01*
X145220701Y-110871626D01*
X145211612Y-110863388D01*
X145203374Y-110854299D01*
X145196066Y-110844446D01*
X145189760Y-110833925D01*
X145184515Y-110822835D01*
X145180382Y-110811286D01*
X145177402Y-110799386D01*
X145175602Y-110787252D01*
X145175000Y-110775000D01*
X145175000Y-110525000D01*
X145175602Y-110512748D01*
X145177402Y-110500614D01*
X145180382Y-110488714D01*
X145184515Y-110477165D01*
X145189760Y-110466075D01*
X145196066Y-110455554D01*
X145203374Y-110445701D01*
X145211612Y-110436612D01*
X145220701Y-110428374D01*
X145230554Y-110421066D01*
X145241075Y-110414760D01*
X145252165Y-110409515D01*
X145263714Y-110405382D01*
X145275614Y-110402402D01*
X145287748Y-110400602D01*
X145300000Y-110400000D01*
X145800000Y-110400000D01*
X145812252Y-110400602D01*
X145812252Y-110400602D01*
G37*
D16*
X145550000Y-110650000D03*
D13*
G36*
X145812252Y-109100602D02*
G01*
X145824386Y-109102402D01*
X145836286Y-109105382D01*
X145847835Y-109109515D01*
X145858925Y-109114760D01*
X145869446Y-109121066D01*
X145879299Y-109128374D01*
X145888388Y-109136612D01*
X145896626Y-109145701D01*
X145903934Y-109155554D01*
X145910240Y-109166075D01*
X145915485Y-109177165D01*
X145919618Y-109188714D01*
X145922598Y-109200614D01*
X145924398Y-109212748D01*
X145925000Y-109225000D01*
X145925000Y-109475000D01*
X145924398Y-109487252D01*
X145922598Y-109499386D01*
X145919618Y-109511286D01*
X145915485Y-109522835D01*
X145910240Y-109533925D01*
X145903934Y-109544446D01*
X145896626Y-109554299D01*
X145888388Y-109563388D01*
X145879299Y-109571626D01*
X145869446Y-109578934D01*
X145858925Y-109585240D01*
X145847835Y-109590485D01*
X145836286Y-109594618D01*
X145824386Y-109597598D01*
X145812252Y-109599398D01*
X145800000Y-109600000D01*
X145300000Y-109600000D01*
X145287748Y-109599398D01*
X145275614Y-109597598D01*
X145263714Y-109594618D01*
X145252165Y-109590485D01*
X145241075Y-109585240D01*
X145230554Y-109578934D01*
X145220701Y-109571626D01*
X145211612Y-109563388D01*
X145203374Y-109554299D01*
X145196066Y-109544446D01*
X145189760Y-109533925D01*
X145184515Y-109522835D01*
X145180382Y-109511286D01*
X145177402Y-109499386D01*
X145175602Y-109487252D01*
X145175000Y-109475000D01*
X145175000Y-109225000D01*
X145175602Y-109212748D01*
X145177402Y-109200614D01*
X145180382Y-109188714D01*
X145184515Y-109177165D01*
X145189760Y-109166075D01*
X145196066Y-109155554D01*
X145203374Y-109145701D01*
X145211612Y-109136612D01*
X145220701Y-109128374D01*
X145230554Y-109121066D01*
X145241075Y-109114760D01*
X145252165Y-109109515D01*
X145263714Y-109105382D01*
X145275614Y-109102402D01*
X145287748Y-109100602D01*
X145300000Y-109100000D01*
X145800000Y-109100000D01*
X145812252Y-109100602D01*
X145812252Y-109100602D01*
G37*
D16*
X145550000Y-109350000D03*
D13*
G36*
X144934802Y-105275482D02*
G01*
X144944509Y-105276921D01*
X144954028Y-105279306D01*
X144963268Y-105282612D01*
X144972140Y-105286808D01*
X144980557Y-105291853D01*
X144988439Y-105297699D01*
X144995711Y-105304289D01*
X145002301Y-105311561D01*
X145008147Y-105319443D01*
X145013192Y-105327860D01*
X145017388Y-105336732D01*
X145020694Y-105345972D01*
X145023079Y-105355491D01*
X145024518Y-105365198D01*
X145025000Y-105375000D01*
X145025000Y-105575000D01*
X145024518Y-105584802D01*
X145023079Y-105594509D01*
X145020694Y-105604028D01*
X145017388Y-105613268D01*
X145013192Y-105622140D01*
X145008147Y-105630557D01*
X145002301Y-105638439D01*
X144995711Y-105645711D01*
X144988439Y-105652301D01*
X144980557Y-105658147D01*
X144972140Y-105663192D01*
X144963268Y-105667388D01*
X144954028Y-105670694D01*
X144944509Y-105673079D01*
X144934802Y-105674518D01*
X144925000Y-105675000D01*
X144175000Y-105675000D01*
X144165198Y-105674518D01*
X144155491Y-105673079D01*
X144145972Y-105670694D01*
X144136732Y-105667388D01*
X144127860Y-105663192D01*
X144119443Y-105658147D01*
X144111561Y-105652301D01*
X144104289Y-105645711D01*
X144097699Y-105638439D01*
X144091853Y-105630557D01*
X144086808Y-105622140D01*
X144082612Y-105613268D01*
X144079306Y-105604028D01*
X144076921Y-105594509D01*
X144075482Y-105584802D01*
X144075000Y-105575000D01*
X144075000Y-105375000D01*
X144075482Y-105365198D01*
X144076921Y-105355491D01*
X144079306Y-105345972D01*
X144082612Y-105336732D01*
X144086808Y-105327860D01*
X144091853Y-105319443D01*
X144097699Y-105311561D01*
X144104289Y-105304289D01*
X144111561Y-105297699D01*
X144119443Y-105291853D01*
X144127860Y-105286808D01*
X144136732Y-105282612D01*
X144145972Y-105279306D01*
X144155491Y-105276921D01*
X144165198Y-105275482D01*
X144175000Y-105275000D01*
X144925000Y-105275000D01*
X144934802Y-105275482D01*
X144934802Y-105275482D01*
G37*
D19*
X144550000Y-105475000D03*
D13*
G36*
X144934802Y-104625482D02*
G01*
X144944509Y-104626921D01*
X144954028Y-104629306D01*
X144963268Y-104632612D01*
X144972140Y-104636808D01*
X144980557Y-104641853D01*
X144988439Y-104647699D01*
X144995711Y-104654289D01*
X145002301Y-104661561D01*
X145008147Y-104669443D01*
X145013192Y-104677860D01*
X145017388Y-104686732D01*
X145020694Y-104695972D01*
X145023079Y-104705491D01*
X145024518Y-104715198D01*
X145025000Y-104725000D01*
X145025000Y-104925000D01*
X145024518Y-104934802D01*
X145023079Y-104944509D01*
X145020694Y-104954028D01*
X145017388Y-104963268D01*
X145013192Y-104972140D01*
X145008147Y-104980557D01*
X145002301Y-104988439D01*
X144995711Y-104995711D01*
X144988439Y-105002301D01*
X144980557Y-105008147D01*
X144972140Y-105013192D01*
X144963268Y-105017388D01*
X144954028Y-105020694D01*
X144944509Y-105023079D01*
X144934802Y-105024518D01*
X144925000Y-105025000D01*
X144175000Y-105025000D01*
X144165198Y-105024518D01*
X144155491Y-105023079D01*
X144145972Y-105020694D01*
X144136732Y-105017388D01*
X144127860Y-105013192D01*
X144119443Y-105008147D01*
X144111561Y-105002301D01*
X144104289Y-104995711D01*
X144097699Y-104988439D01*
X144091853Y-104980557D01*
X144086808Y-104972140D01*
X144082612Y-104963268D01*
X144079306Y-104954028D01*
X144076921Y-104944509D01*
X144075482Y-104934802D01*
X144075000Y-104925000D01*
X144075000Y-104725000D01*
X144075482Y-104715198D01*
X144076921Y-104705491D01*
X144079306Y-104695972D01*
X144082612Y-104686732D01*
X144086808Y-104677860D01*
X144091853Y-104669443D01*
X144097699Y-104661561D01*
X144104289Y-104654289D01*
X144111561Y-104647699D01*
X144119443Y-104641853D01*
X144127860Y-104636808D01*
X144136732Y-104632612D01*
X144145972Y-104629306D01*
X144155491Y-104626921D01*
X144165198Y-104625482D01*
X144175000Y-104625000D01*
X144925000Y-104625000D01*
X144934802Y-104625482D01*
X144934802Y-104625482D01*
G37*
D19*
X144550000Y-104825000D03*
D13*
G36*
X144934802Y-103975482D02*
G01*
X144944509Y-103976921D01*
X144954028Y-103979306D01*
X144963268Y-103982612D01*
X144972140Y-103986808D01*
X144980557Y-103991853D01*
X144988439Y-103997699D01*
X144995711Y-104004289D01*
X145002301Y-104011561D01*
X145008147Y-104019443D01*
X145013192Y-104027860D01*
X145017388Y-104036732D01*
X145020694Y-104045972D01*
X145023079Y-104055491D01*
X145024518Y-104065198D01*
X145025000Y-104075000D01*
X145025000Y-104275000D01*
X145024518Y-104284802D01*
X145023079Y-104294509D01*
X145020694Y-104304028D01*
X145017388Y-104313268D01*
X145013192Y-104322140D01*
X145008147Y-104330557D01*
X145002301Y-104338439D01*
X144995711Y-104345711D01*
X144988439Y-104352301D01*
X144980557Y-104358147D01*
X144972140Y-104363192D01*
X144963268Y-104367388D01*
X144954028Y-104370694D01*
X144944509Y-104373079D01*
X144934802Y-104374518D01*
X144925000Y-104375000D01*
X144175000Y-104375000D01*
X144165198Y-104374518D01*
X144155491Y-104373079D01*
X144145972Y-104370694D01*
X144136732Y-104367388D01*
X144127860Y-104363192D01*
X144119443Y-104358147D01*
X144111561Y-104352301D01*
X144104289Y-104345711D01*
X144097699Y-104338439D01*
X144091853Y-104330557D01*
X144086808Y-104322140D01*
X144082612Y-104313268D01*
X144079306Y-104304028D01*
X144076921Y-104294509D01*
X144075482Y-104284802D01*
X144075000Y-104275000D01*
X144075000Y-104075000D01*
X144075482Y-104065198D01*
X144076921Y-104055491D01*
X144079306Y-104045972D01*
X144082612Y-104036732D01*
X144086808Y-104027860D01*
X144091853Y-104019443D01*
X144097699Y-104011561D01*
X144104289Y-104004289D01*
X144111561Y-103997699D01*
X144119443Y-103991853D01*
X144127860Y-103986808D01*
X144136732Y-103982612D01*
X144145972Y-103979306D01*
X144155491Y-103976921D01*
X144165198Y-103975482D01*
X144175000Y-103975000D01*
X144925000Y-103975000D01*
X144934802Y-103975482D01*
X144934802Y-103975482D01*
G37*
D19*
X144550000Y-104175000D03*
D13*
G36*
X144934802Y-103325482D02*
G01*
X144944509Y-103326921D01*
X144954028Y-103329306D01*
X144963268Y-103332612D01*
X144972140Y-103336808D01*
X144980557Y-103341853D01*
X144988439Y-103347699D01*
X144995711Y-103354289D01*
X145002301Y-103361561D01*
X145008147Y-103369443D01*
X145013192Y-103377860D01*
X145017388Y-103386732D01*
X145020694Y-103395972D01*
X145023079Y-103405491D01*
X145024518Y-103415198D01*
X145025000Y-103425000D01*
X145025000Y-103625000D01*
X145024518Y-103634802D01*
X145023079Y-103644509D01*
X145020694Y-103654028D01*
X145017388Y-103663268D01*
X145013192Y-103672140D01*
X145008147Y-103680557D01*
X145002301Y-103688439D01*
X144995711Y-103695711D01*
X144988439Y-103702301D01*
X144980557Y-103708147D01*
X144972140Y-103713192D01*
X144963268Y-103717388D01*
X144954028Y-103720694D01*
X144944509Y-103723079D01*
X144934802Y-103724518D01*
X144925000Y-103725000D01*
X144175000Y-103725000D01*
X144165198Y-103724518D01*
X144155491Y-103723079D01*
X144145972Y-103720694D01*
X144136732Y-103717388D01*
X144127860Y-103713192D01*
X144119443Y-103708147D01*
X144111561Y-103702301D01*
X144104289Y-103695711D01*
X144097699Y-103688439D01*
X144091853Y-103680557D01*
X144086808Y-103672140D01*
X144082612Y-103663268D01*
X144079306Y-103654028D01*
X144076921Y-103644509D01*
X144075482Y-103634802D01*
X144075000Y-103625000D01*
X144075000Y-103425000D01*
X144075482Y-103415198D01*
X144076921Y-103405491D01*
X144079306Y-103395972D01*
X144082612Y-103386732D01*
X144086808Y-103377860D01*
X144091853Y-103369443D01*
X144097699Y-103361561D01*
X144104289Y-103354289D01*
X144111561Y-103347699D01*
X144119443Y-103341853D01*
X144127860Y-103336808D01*
X144136732Y-103332612D01*
X144145972Y-103329306D01*
X144155491Y-103326921D01*
X144165198Y-103325482D01*
X144175000Y-103325000D01*
X144925000Y-103325000D01*
X144934802Y-103325482D01*
X144934802Y-103325482D01*
G37*
D19*
X144550000Y-103525000D03*
D13*
G36*
X145634802Y-102075482D02*
G01*
X145644509Y-102076921D01*
X145654028Y-102079306D01*
X145663268Y-102082612D01*
X145672140Y-102086808D01*
X145680557Y-102091853D01*
X145688439Y-102097699D01*
X145695711Y-102104289D01*
X145702301Y-102111561D01*
X145708147Y-102119443D01*
X145713192Y-102127860D01*
X145717388Y-102136732D01*
X145720694Y-102145972D01*
X145723079Y-102155491D01*
X145724518Y-102165198D01*
X145725000Y-102175000D01*
X145725000Y-102925000D01*
X145724518Y-102934802D01*
X145723079Y-102944509D01*
X145720694Y-102954028D01*
X145717388Y-102963268D01*
X145713192Y-102972140D01*
X145708147Y-102980557D01*
X145702301Y-102988439D01*
X145695711Y-102995711D01*
X145688439Y-103002301D01*
X145680557Y-103008147D01*
X145672140Y-103013192D01*
X145663268Y-103017388D01*
X145654028Y-103020694D01*
X145644509Y-103023079D01*
X145634802Y-103024518D01*
X145625000Y-103025000D01*
X145425000Y-103025000D01*
X145415198Y-103024518D01*
X145405491Y-103023079D01*
X145395972Y-103020694D01*
X145386732Y-103017388D01*
X145377860Y-103013192D01*
X145369443Y-103008147D01*
X145361561Y-103002301D01*
X145354289Y-102995711D01*
X145347699Y-102988439D01*
X145341853Y-102980557D01*
X145336808Y-102972140D01*
X145332612Y-102963268D01*
X145329306Y-102954028D01*
X145326921Y-102944509D01*
X145325482Y-102934802D01*
X145325000Y-102925000D01*
X145325000Y-102175000D01*
X145325482Y-102165198D01*
X145326921Y-102155491D01*
X145329306Y-102145972D01*
X145332612Y-102136732D01*
X145336808Y-102127860D01*
X145341853Y-102119443D01*
X145347699Y-102111561D01*
X145354289Y-102104289D01*
X145361561Y-102097699D01*
X145369443Y-102091853D01*
X145377860Y-102086808D01*
X145386732Y-102082612D01*
X145395972Y-102079306D01*
X145405491Y-102076921D01*
X145415198Y-102075482D01*
X145425000Y-102075000D01*
X145625000Y-102075000D01*
X145634802Y-102075482D01*
X145634802Y-102075482D01*
G37*
D19*
X145525000Y-102550000D03*
D13*
G36*
X146284802Y-102075482D02*
G01*
X146294509Y-102076921D01*
X146304028Y-102079306D01*
X146313268Y-102082612D01*
X146322140Y-102086808D01*
X146330557Y-102091853D01*
X146338439Y-102097699D01*
X146345711Y-102104289D01*
X146352301Y-102111561D01*
X146358147Y-102119443D01*
X146363192Y-102127860D01*
X146367388Y-102136732D01*
X146370694Y-102145972D01*
X146373079Y-102155491D01*
X146374518Y-102165198D01*
X146375000Y-102175000D01*
X146375000Y-102925000D01*
X146374518Y-102934802D01*
X146373079Y-102944509D01*
X146370694Y-102954028D01*
X146367388Y-102963268D01*
X146363192Y-102972140D01*
X146358147Y-102980557D01*
X146352301Y-102988439D01*
X146345711Y-102995711D01*
X146338439Y-103002301D01*
X146330557Y-103008147D01*
X146322140Y-103013192D01*
X146313268Y-103017388D01*
X146304028Y-103020694D01*
X146294509Y-103023079D01*
X146284802Y-103024518D01*
X146275000Y-103025000D01*
X146075000Y-103025000D01*
X146065198Y-103024518D01*
X146055491Y-103023079D01*
X146045972Y-103020694D01*
X146036732Y-103017388D01*
X146027860Y-103013192D01*
X146019443Y-103008147D01*
X146011561Y-103002301D01*
X146004289Y-102995711D01*
X145997699Y-102988439D01*
X145991853Y-102980557D01*
X145986808Y-102972140D01*
X145982612Y-102963268D01*
X145979306Y-102954028D01*
X145976921Y-102944509D01*
X145975482Y-102934802D01*
X145975000Y-102925000D01*
X145975000Y-102175000D01*
X145975482Y-102165198D01*
X145976921Y-102155491D01*
X145979306Y-102145972D01*
X145982612Y-102136732D01*
X145986808Y-102127860D01*
X145991853Y-102119443D01*
X145997699Y-102111561D01*
X146004289Y-102104289D01*
X146011561Y-102097699D01*
X146019443Y-102091853D01*
X146027860Y-102086808D01*
X146036732Y-102082612D01*
X146045972Y-102079306D01*
X146055491Y-102076921D01*
X146065198Y-102075482D01*
X146075000Y-102075000D01*
X146275000Y-102075000D01*
X146284802Y-102075482D01*
X146284802Y-102075482D01*
G37*
D19*
X146175000Y-102550000D03*
D13*
G36*
X146934802Y-102075482D02*
G01*
X146944509Y-102076921D01*
X146954028Y-102079306D01*
X146963268Y-102082612D01*
X146972140Y-102086808D01*
X146980557Y-102091853D01*
X146988439Y-102097699D01*
X146995711Y-102104289D01*
X147002301Y-102111561D01*
X147008147Y-102119443D01*
X147013192Y-102127860D01*
X147017388Y-102136732D01*
X147020694Y-102145972D01*
X147023079Y-102155491D01*
X147024518Y-102165198D01*
X147025000Y-102175000D01*
X147025000Y-102925000D01*
X147024518Y-102934802D01*
X147023079Y-102944509D01*
X147020694Y-102954028D01*
X147017388Y-102963268D01*
X147013192Y-102972140D01*
X147008147Y-102980557D01*
X147002301Y-102988439D01*
X146995711Y-102995711D01*
X146988439Y-103002301D01*
X146980557Y-103008147D01*
X146972140Y-103013192D01*
X146963268Y-103017388D01*
X146954028Y-103020694D01*
X146944509Y-103023079D01*
X146934802Y-103024518D01*
X146925000Y-103025000D01*
X146725000Y-103025000D01*
X146715198Y-103024518D01*
X146705491Y-103023079D01*
X146695972Y-103020694D01*
X146686732Y-103017388D01*
X146677860Y-103013192D01*
X146669443Y-103008147D01*
X146661561Y-103002301D01*
X146654289Y-102995711D01*
X146647699Y-102988439D01*
X146641853Y-102980557D01*
X146636808Y-102972140D01*
X146632612Y-102963268D01*
X146629306Y-102954028D01*
X146626921Y-102944509D01*
X146625482Y-102934802D01*
X146625000Y-102925000D01*
X146625000Y-102175000D01*
X146625482Y-102165198D01*
X146626921Y-102155491D01*
X146629306Y-102145972D01*
X146632612Y-102136732D01*
X146636808Y-102127860D01*
X146641853Y-102119443D01*
X146647699Y-102111561D01*
X146654289Y-102104289D01*
X146661561Y-102097699D01*
X146669443Y-102091853D01*
X146677860Y-102086808D01*
X146686732Y-102082612D01*
X146695972Y-102079306D01*
X146705491Y-102076921D01*
X146715198Y-102075482D01*
X146725000Y-102075000D01*
X146925000Y-102075000D01*
X146934802Y-102075482D01*
X146934802Y-102075482D01*
G37*
D19*
X146825000Y-102550000D03*
D13*
G36*
X147584802Y-102075482D02*
G01*
X147594509Y-102076921D01*
X147604028Y-102079306D01*
X147613268Y-102082612D01*
X147622140Y-102086808D01*
X147630557Y-102091853D01*
X147638439Y-102097699D01*
X147645711Y-102104289D01*
X147652301Y-102111561D01*
X147658147Y-102119443D01*
X147663192Y-102127860D01*
X147667388Y-102136732D01*
X147670694Y-102145972D01*
X147673079Y-102155491D01*
X147674518Y-102165198D01*
X147675000Y-102175000D01*
X147675000Y-102925000D01*
X147674518Y-102934802D01*
X147673079Y-102944509D01*
X147670694Y-102954028D01*
X147667388Y-102963268D01*
X147663192Y-102972140D01*
X147658147Y-102980557D01*
X147652301Y-102988439D01*
X147645711Y-102995711D01*
X147638439Y-103002301D01*
X147630557Y-103008147D01*
X147622140Y-103013192D01*
X147613268Y-103017388D01*
X147604028Y-103020694D01*
X147594509Y-103023079D01*
X147584802Y-103024518D01*
X147575000Y-103025000D01*
X147375000Y-103025000D01*
X147365198Y-103024518D01*
X147355491Y-103023079D01*
X147345972Y-103020694D01*
X147336732Y-103017388D01*
X147327860Y-103013192D01*
X147319443Y-103008147D01*
X147311561Y-103002301D01*
X147304289Y-102995711D01*
X147297699Y-102988439D01*
X147291853Y-102980557D01*
X147286808Y-102972140D01*
X147282612Y-102963268D01*
X147279306Y-102954028D01*
X147276921Y-102944509D01*
X147275482Y-102934802D01*
X147275000Y-102925000D01*
X147275000Y-102175000D01*
X147275482Y-102165198D01*
X147276921Y-102155491D01*
X147279306Y-102145972D01*
X147282612Y-102136732D01*
X147286808Y-102127860D01*
X147291853Y-102119443D01*
X147297699Y-102111561D01*
X147304289Y-102104289D01*
X147311561Y-102097699D01*
X147319443Y-102091853D01*
X147327860Y-102086808D01*
X147336732Y-102082612D01*
X147345972Y-102079306D01*
X147355491Y-102076921D01*
X147365198Y-102075482D01*
X147375000Y-102075000D01*
X147575000Y-102075000D01*
X147584802Y-102075482D01*
X147584802Y-102075482D01*
G37*
D19*
X147475000Y-102550000D03*
D13*
G36*
X148834802Y-103325482D02*
G01*
X148844509Y-103326921D01*
X148854028Y-103329306D01*
X148863268Y-103332612D01*
X148872140Y-103336808D01*
X148880557Y-103341853D01*
X148888439Y-103347699D01*
X148895711Y-103354289D01*
X148902301Y-103361561D01*
X148908147Y-103369443D01*
X148913192Y-103377860D01*
X148917388Y-103386732D01*
X148920694Y-103395972D01*
X148923079Y-103405491D01*
X148924518Y-103415198D01*
X148925000Y-103425000D01*
X148925000Y-103625000D01*
X148924518Y-103634802D01*
X148923079Y-103644509D01*
X148920694Y-103654028D01*
X148917388Y-103663268D01*
X148913192Y-103672140D01*
X148908147Y-103680557D01*
X148902301Y-103688439D01*
X148895711Y-103695711D01*
X148888439Y-103702301D01*
X148880557Y-103708147D01*
X148872140Y-103713192D01*
X148863268Y-103717388D01*
X148854028Y-103720694D01*
X148844509Y-103723079D01*
X148834802Y-103724518D01*
X148825000Y-103725000D01*
X148075000Y-103725000D01*
X148065198Y-103724518D01*
X148055491Y-103723079D01*
X148045972Y-103720694D01*
X148036732Y-103717388D01*
X148027860Y-103713192D01*
X148019443Y-103708147D01*
X148011561Y-103702301D01*
X148004289Y-103695711D01*
X147997699Y-103688439D01*
X147991853Y-103680557D01*
X147986808Y-103672140D01*
X147982612Y-103663268D01*
X147979306Y-103654028D01*
X147976921Y-103644509D01*
X147975482Y-103634802D01*
X147975000Y-103625000D01*
X147975000Y-103425000D01*
X147975482Y-103415198D01*
X147976921Y-103405491D01*
X147979306Y-103395972D01*
X147982612Y-103386732D01*
X147986808Y-103377860D01*
X147991853Y-103369443D01*
X147997699Y-103361561D01*
X148004289Y-103354289D01*
X148011561Y-103347699D01*
X148019443Y-103341853D01*
X148027860Y-103336808D01*
X148036732Y-103332612D01*
X148045972Y-103329306D01*
X148055491Y-103326921D01*
X148065198Y-103325482D01*
X148075000Y-103325000D01*
X148825000Y-103325000D01*
X148834802Y-103325482D01*
X148834802Y-103325482D01*
G37*
D19*
X148450000Y-103525000D03*
D13*
G36*
X148834802Y-103975482D02*
G01*
X148844509Y-103976921D01*
X148854028Y-103979306D01*
X148863268Y-103982612D01*
X148872140Y-103986808D01*
X148880557Y-103991853D01*
X148888439Y-103997699D01*
X148895711Y-104004289D01*
X148902301Y-104011561D01*
X148908147Y-104019443D01*
X148913192Y-104027860D01*
X148917388Y-104036732D01*
X148920694Y-104045972D01*
X148923079Y-104055491D01*
X148924518Y-104065198D01*
X148925000Y-104075000D01*
X148925000Y-104275000D01*
X148924518Y-104284802D01*
X148923079Y-104294509D01*
X148920694Y-104304028D01*
X148917388Y-104313268D01*
X148913192Y-104322140D01*
X148908147Y-104330557D01*
X148902301Y-104338439D01*
X148895711Y-104345711D01*
X148888439Y-104352301D01*
X148880557Y-104358147D01*
X148872140Y-104363192D01*
X148863268Y-104367388D01*
X148854028Y-104370694D01*
X148844509Y-104373079D01*
X148834802Y-104374518D01*
X148825000Y-104375000D01*
X148075000Y-104375000D01*
X148065198Y-104374518D01*
X148055491Y-104373079D01*
X148045972Y-104370694D01*
X148036732Y-104367388D01*
X148027860Y-104363192D01*
X148019443Y-104358147D01*
X148011561Y-104352301D01*
X148004289Y-104345711D01*
X147997699Y-104338439D01*
X147991853Y-104330557D01*
X147986808Y-104322140D01*
X147982612Y-104313268D01*
X147979306Y-104304028D01*
X147976921Y-104294509D01*
X147975482Y-104284802D01*
X147975000Y-104275000D01*
X147975000Y-104075000D01*
X147975482Y-104065198D01*
X147976921Y-104055491D01*
X147979306Y-104045972D01*
X147982612Y-104036732D01*
X147986808Y-104027860D01*
X147991853Y-104019443D01*
X147997699Y-104011561D01*
X148004289Y-104004289D01*
X148011561Y-103997699D01*
X148019443Y-103991853D01*
X148027860Y-103986808D01*
X148036732Y-103982612D01*
X148045972Y-103979306D01*
X148055491Y-103976921D01*
X148065198Y-103975482D01*
X148075000Y-103975000D01*
X148825000Y-103975000D01*
X148834802Y-103975482D01*
X148834802Y-103975482D01*
G37*
D19*
X148450000Y-104175000D03*
D13*
G36*
X148834802Y-104625482D02*
G01*
X148844509Y-104626921D01*
X148854028Y-104629306D01*
X148863268Y-104632612D01*
X148872140Y-104636808D01*
X148880557Y-104641853D01*
X148888439Y-104647699D01*
X148895711Y-104654289D01*
X148902301Y-104661561D01*
X148908147Y-104669443D01*
X148913192Y-104677860D01*
X148917388Y-104686732D01*
X148920694Y-104695972D01*
X148923079Y-104705491D01*
X148924518Y-104715198D01*
X148925000Y-104725000D01*
X148925000Y-104925000D01*
X148924518Y-104934802D01*
X148923079Y-104944509D01*
X148920694Y-104954028D01*
X148917388Y-104963268D01*
X148913192Y-104972140D01*
X148908147Y-104980557D01*
X148902301Y-104988439D01*
X148895711Y-104995711D01*
X148888439Y-105002301D01*
X148880557Y-105008147D01*
X148872140Y-105013192D01*
X148863268Y-105017388D01*
X148854028Y-105020694D01*
X148844509Y-105023079D01*
X148834802Y-105024518D01*
X148825000Y-105025000D01*
X148075000Y-105025000D01*
X148065198Y-105024518D01*
X148055491Y-105023079D01*
X148045972Y-105020694D01*
X148036732Y-105017388D01*
X148027860Y-105013192D01*
X148019443Y-105008147D01*
X148011561Y-105002301D01*
X148004289Y-104995711D01*
X147997699Y-104988439D01*
X147991853Y-104980557D01*
X147986808Y-104972140D01*
X147982612Y-104963268D01*
X147979306Y-104954028D01*
X147976921Y-104944509D01*
X147975482Y-104934802D01*
X147975000Y-104925000D01*
X147975000Y-104725000D01*
X147975482Y-104715198D01*
X147976921Y-104705491D01*
X147979306Y-104695972D01*
X147982612Y-104686732D01*
X147986808Y-104677860D01*
X147991853Y-104669443D01*
X147997699Y-104661561D01*
X148004289Y-104654289D01*
X148011561Y-104647699D01*
X148019443Y-104641853D01*
X148027860Y-104636808D01*
X148036732Y-104632612D01*
X148045972Y-104629306D01*
X148055491Y-104626921D01*
X148065198Y-104625482D01*
X148075000Y-104625000D01*
X148825000Y-104625000D01*
X148834802Y-104625482D01*
X148834802Y-104625482D01*
G37*
D19*
X148450000Y-104825000D03*
D13*
G36*
X148834802Y-105275482D02*
G01*
X148844509Y-105276921D01*
X148854028Y-105279306D01*
X148863268Y-105282612D01*
X148872140Y-105286808D01*
X148880557Y-105291853D01*
X148888439Y-105297699D01*
X148895711Y-105304289D01*
X148902301Y-105311561D01*
X148908147Y-105319443D01*
X148913192Y-105327860D01*
X148917388Y-105336732D01*
X148920694Y-105345972D01*
X148923079Y-105355491D01*
X148924518Y-105365198D01*
X148925000Y-105375000D01*
X148925000Y-105575000D01*
X148924518Y-105584802D01*
X148923079Y-105594509D01*
X148920694Y-105604028D01*
X148917388Y-105613268D01*
X148913192Y-105622140D01*
X148908147Y-105630557D01*
X148902301Y-105638439D01*
X148895711Y-105645711D01*
X148888439Y-105652301D01*
X148880557Y-105658147D01*
X148872140Y-105663192D01*
X148863268Y-105667388D01*
X148854028Y-105670694D01*
X148844509Y-105673079D01*
X148834802Y-105674518D01*
X148825000Y-105675000D01*
X148075000Y-105675000D01*
X148065198Y-105674518D01*
X148055491Y-105673079D01*
X148045972Y-105670694D01*
X148036732Y-105667388D01*
X148027860Y-105663192D01*
X148019443Y-105658147D01*
X148011561Y-105652301D01*
X148004289Y-105645711D01*
X147997699Y-105638439D01*
X147991853Y-105630557D01*
X147986808Y-105622140D01*
X147982612Y-105613268D01*
X147979306Y-105604028D01*
X147976921Y-105594509D01*
X147975482Y-105584802D01*
X147975000Y-105575000D01*
X147975000Y-105375000D01*
X147975482Y-105365198D01*
X147976921Y-105355491D01*
X147979306Y-105345972D01*
X147982612Y-105336732D01*
X147986808Y-105327860D01*
X147991853Y-105319443D01*
X147997699Y-105311561D01*
X148004289Y-105304289D01*
X148011561Y-105297699D01*
X148019443Y-105291853D01*
X148027860Y-105286808D01*
X148036732Y-105282612D01*
X148045972Y-105279306D01*
X148055491Y-105276921D01*
X148065198Y-105275482D01*
X148075000Y-105275000D01*
X148825000Y-105275000D01*
X148834802Y-105275482D01*
X148834802Y-105275482D01*
G37*
D19*
X148450000Y-105475000D03*
D13*
G36*
X147584802Y-105975482D02*
G01*
X147594509Y-105976921D01*
X147604028Y-105979306D01*
X147613268Y-105982612D01*
X147622140Y-105986808D01*
X147630557Y-105991853D01*
X147638439Y-105997699D01*
X147645711Y-106004289D01*
X147652301Y-106011561D01*
X147658147Y-106019443D01*
X147663192Y-106027860D01*
X147667388Y-106036732D01*
X147670694Y-106045972D01*
X147673079Y-106055491D01*
X147674518Y-106065198D01*
X147675000Y-106075000D01*
X147675000Y-106825000D01*
X147674518Y-106834802D01*
X147673079Y-106844509D01*
X147670694Y-106854028D01*
X147667388Y-106863268D01*
X147663192Y-106872140D01*
X147658147Y-106880557D01*
X147652301Y-106888439D01*
X147645711Y-106895711D01*
X147638439Y-106902301D01*
X147630557Y-106908147D01*
X147622140Y-106913192D01*
X147613268Y-106917388D01*
X147604028Y-106920694D01*
X147594509Y-106923079D01*
X147584802Y-106924518D01*
X147575000Y-106925000D01*
X147375000Y-106925000D01*
X147365198Y-106924518D01*
X147355491Y-106923079D01*
X147345972Y-106920694D01*
X147336732Y-106917388D01*
X147327860Y-106913192D01*
X147319443Y-106908147D01*
X147311561Y-106902301D01*
X147304289Y-106895711D01*
X147297699Y-106888439D01*
X147291853Y-106880557D01*
X147286808Y-106872140D01*
X147282612Y-106863268D01*
X147279306Y-106854028D01*
X147276921Y-106844509D01*
X147275482Y-106834802D01*
X147275000Y-106825000D01*
X147275000Y-106075000D01*
X147275482Y-106065198D01*
X147276921Y-106055491D01*
X147279306Y-106045972D01*
X147282612Y-106036732D01*
X147286808Y-106027860D01*
X147291853Y-106019443D01*
X147297699Y-106011561D01*
X147304289Y-106004289D01*
X147311561Y-105997699D01*
X147319443Y-105991853D01*
X147327860Y-105986808D01*
X147336732Y-105982612D01*
X147345972Y-105979306D01*
X147355491Y-105976921D01*
X147365198Y-105975482D01*
X147375000Y-105975000D01*
X147575000Y-105975000D01*
X147584802Y-105975482D01*
X147584802Y-105975482D01*
G37*
D19*
X147475000Y-106450000D03*
D13*
G36*
X146934802Y-105975482D02*
G01*
X146944509Y-105976921D01*
X146954028Y-105979306D01*
X146963268Y-105982612D01*
X146972140Y-105986808D01*
X146980557Y-105991853D01*
X146988439Y-105997699D01*
X146995711Y-106004289D01*
X147002301Y-106011561D01*
X147008147Y-106019443D01*
X147013192Y-106027860D01*
X147017388Y-106036732D01*
X147020694Y-106045972D01*
X147023079Y-106055491D01*
X147024518Y-106065198D01*
X147025000Y-106075000D01*
X147025000Y-106825000D01*
X147024518Y-106834802D01*
X147023079Y-106844509D01*
X147020694Y-106854028D01*
X147017388Y-106863268D01*
X147013192Y-106872140D01*
X147008147Y-106880557D01*
X147002301Y-106888439D01*
X146995711Y-106895711D01*
X146988439Y-106902301D01*
X146980557Y-106908147D01*
X146972140Y-106913192D01*
X146963268Y-106917388D01*
X146954028Y-106920694D01*
X146944509Y-106923079D01*
X146934802Y-106924518D01*
X146925000Y-106925000D01*
X146725000Y-106925000D01*
X146715198Y-106924518D01*
X146705491Y-106923079D01*
X146695972Y-106920694D01*
X146686732Y-106917388D01*
X146677860Y-106913192D01*
X146669443Y-106908147D01*
X146661561Y-106902301D01*
X146654289Y-106895711D01*
X146647699Y-106888439D01*
X146641853Y-106880557D01*
X146636808Y-106872140D01*
X146632612Y-106863268D01*
X146629306Y-106854028D01*
X146626921Y-106844509D01*
X146625482Y-106834802D01*
X146625000Y-106825000D01*
X146625000Y-106075000D01*
X146625482Y-106065198D01*
X146626921Y-106055491D01*
X146629306Y-106045972D01*
X146632612Y-106036732D01*
X146636808Y-106027860D01*
X146641853Y-106019443D01*
X146647699Y-106011561D01*
X146654289Y-106004289D01*
X146661561Y-105997699D01*
X146669443Y-105991853D01*
X146677860Y-105986808D01*
X146686732Y-105982612D01*
X146695972Y-105979306D01*
X146705491Y-105976921D01*
X146715198Y-105975482D01*
X146725000Y-105975000D01*
X146925000Y-105975000D01*
X146934802Y-105975482D01*
X146934802Y-105975482D01*
G37*
D19*
X146825000Y-106450000D03*
D13*
G36*
X146284802Y-105975482D02*
G01*
X146294509Y-105976921D01*
X146304028Y-105979306D01*
X146313268Y-105982612D01*
X146322140Y-105986808D01*
X146330557Y-105991853D01*
X146338439Y-105997699D01*
X146345711Y-106004289D01*
X146352301Y-106011561D01*
X146358147Y-106019443D01*
X146363192Y-106027860D01*
X146367388Y-106036732D01*
X146370694Y-106045972D01*
X146373079Y-106055491D01*
X146374518Y-106065198D01*
X146375000Y-106075000D01*
X146375000Y-106825000D01*
X146374518Y-106834802D01*
X146373079Y-106844509D01*
X146370694Y-106854028D01*
X146367388Y-106863268D01*
X146363192Y-106872140D01*
X146358147Y-106880557D01*
X146352301Y-106888439D01*
X146345711Y-106895711D01*
X146338439Y-106902301D01*
X146330557Y-106908147D01*
X146322140Y-106913192D01*
X146313268Y-106917388D01*
X146304028Y-106920694D01*
X146294509Y-106923079D01*
X146284802Y-106924518D01*
X146275000Y-106925000D01*
X146075000Y-106925000D01*
X146065198Y-106924518D01*
X146055491Y-106923079D01*
X146045972Y-106920694D01*
X146036732Y-106917388D01*
X146027860Y-106913192D01*
X146019443Y-106908147D01*
X146011561Y-106902301D01*
X146004289Y-106895711D01*
X145997699Y-106888439D01*
X145991853Y-106880557D01*
X145986808Y-106872140D01*
X145982612Y-106863268D01*
X145979306Y-106854028D01*
X145976921Y-106844509D01*
X145975482Y-106834802D01*
X145975000Y-106825000D01*
X145975000Y-106075000D01*
X145975482Y-106065198D01*
X145976921Y-106055491D01*
X145979306Y-106045972D01*
X145982612Y-106036732D01*
X145986808Y-106027860D01*
X145991853Y-106019443D01*
X145997699Y-106011561D01*
X146004289Y-106004289D01*
X146011561Y-105997699D01*
X146019443Y-105991853D01*
X146027860Y-105986808D01*
X146036732Y-105982612D01*
X146045972Y-105979306D01*
X146055491Y-105976921D01*
X146065198Y-105975482D01*
X146075000Y-105975000D01*
X146275000Y-105975000D01*
X146284802Y-105975482D01*
X146284802Y-105975482D01*
G37*
D19*
X146175000Y-106450000D03*
D13*
G36*
X145634802Y-105975482D02*
G01*
X145644509Y-105976921D01*
X145654028Y-105979306D01*
X145663268Y-105982612D01*
X145672140Y-105986808D01*
X145680557Y-105991853D01*
X145688439Y-105997699D01*
X145695711Y-106004289D01*
X145702301Y-106011561D01*
X145708147Y-106019443D01*
X145713192Y-106027860D01*
X145717388Y-106036732D01*
X145720694Y-106045972D01*
X145723079Y-106055491D01*
X145724518Y-106065198D01*
X145725000Y-106075000D01*
X145725000Y-106825000D01*
X145724518Y-106834802D01*
X145723079Y-106844509D01*
X145720694Y-106854028D01*
X145717388Y-106863268D01*
X145713192Y-106872140D01*
X145708147Y-106880557D01*
X145702301Y-106888439D01*
X145695711Y-106895711D01*
X145688439Y-106902301D01*
X145680557Y-106908147D01*
X145672140Y-106913192D01*
X145663268Y-106917388D01*
X145654028Y-106920694D01*
X145644509Y-106923079D01*
X145634802Y-106924518D01*
X145625000Y-106925000D01*
X145425000Y-106925000D01*
X145415198Y-106924518D01*
X145405491Y-106923079D01*
X145395972Y-106920694D01*
X145386732Y-106917388D01*
X145377860Y-106913192D01*
X145369443Y-106908147D01*
X145361561Y-106902301D01*
X145354289Y-106895711D01*
X145347699Y-106888439D01*
X145341853Y-106880557D01*
X145336808Y-106872140D01*
X145332612Y-106863268D01*
X145329306Y-106854028D01*
X145326921Y-106844509D01*
X145325482Y-106834802D01*
X145325000Y-106825000D01*
X145325000Y-106075000D01*
X145325482Y-106065198D01*
X145326921Y-106055491D01*
X145329306Y-106045972D01*
X145332612Y-106036732D01*
X145336808Y-106027860D01*
X145341853Y-106019443D01*
X145347699Y-106011561D01*
X145354289Y-106004289D01*
X145361561Y-105997699D01*
X145369443Y-105991853D01*
X145377860Y-105986808D01*
X145386732Y-105982612D01*
X145395972Y-105979306D01*
X145405491Y-105976921D01*
X145415198Y-105975482D01*
X145425000Y-105975000D01*
X145625000Y-105975000D01*
X145634802Y-105975482D01*
X145634802Y-105975482D01*
G37*
D19*
X145525000Y-106450000D03*
D13*
G36*
X147363766Y-103401261D02*
G01*
X147389190Y-103405032D01*
X147414122Y-103411278D01*
X147438322Y-103419936D01*
X147461556Y-103430925D01*
X147483602Y-103444139D01*
X147504246Y-103459450D01*
X147523290Y-103476710D01*
X147540550Y-103495754D01*
X147555861Y-103516398D01*
X147569075Y-103538444D01*
X147580064Y-103561678D01*
X147588722Y-103585878D01*
X147594968Y-103610810D01*
X147598739Y-103636234D01*
X147600000Y-103661905D01*
X147600000Y-105338095D01*
X147598739Y-105363766D01*
X147594968Y-105389190D01*
X147588722Y-105414122D01*
X147580064Y-105438322D01*
X147569075Y-105461556D01*
X147555861Y-105483602D01*
X147540550Y-105504246D01*
X147523290Y-105523290D01*
X147504246Y-105540550D01*
X147483602Y-105555861D01*
X147461556Y-105569075D01*
X147438322Y-105580064D01*
X147414122Y-105588722D01*
X147389190Y-105594968D01*
X147363766Y-105598739D01*
X147338095Y-105600000D01*
X145661905Y-105600000D01*
X145636234Y-105598739D01*
X145610810Y-105594968D01*
X145585878Y-105588722D01*
X145561678Y-105580064D01*
X145538444Y-105569075D01*
X145516398Y-105555861D01*
X145495754Y-105540550D01*
X145476710Y-105523290D01*
X145459450Y-105504246D01*
X145444139Y-105483602D01*
X145430925Y-105461556D01*
X145419936Y-105438322D01*
X145411278Y-105414122D01*
X145405032Y-105389190D01*
X145401261Y-105363766D01*
X145400000Y-105338095D01*
X145400000Y-103661905D01*
X145401261Y-103636234D01*
X145405032Y-103610810D01*
X145411278Y-103585878D01*
X145419936Y-103561678D01*
X145430925Y-103538444D01*
X145444139Y-103516398D01*
X145459450Y-103495754D01*
X145476710Y-103476710D01*
X145495754Y-103459450D01*
X145516398Y-103444139D01*
X145538444Y-103430925D01*
X145561678Y-103419936D01*
X145585878Y-103411278D01*
X145610810Y-103405032D01*
X145636234Y-103401261D01*
X145661905Y-103400000D01*
X147338095Y-103400000D01*
X147363766Y-103401261D01*
X147363766Y-103401261D01*
G37*
D20*
X146500000Y-104500000D03*
D13*
G36*
X149294603Y-108700963D02*
G01*
X149314018Y-108703843D01*
X149333057Y-108708612D01*
X149351537Y-108715224D01*
X149369279Y-108723616D01*
X149386114Y-108733706D01*
X149401879Y-108745398D01*
X149416421Y-108758579D01*
X149429602Y-108773121D01*
X149441294Y-108788886D01*
X149451384Y-108805721D01*
X149459776Y-108823463D01*
X149466388Y-108841943D01*
X149471157Y-108860982D01*
X149474037Y-108880397D01*
X149475000Y-108900000D01*
X149475000Y-109300000D01*
X149474037Y-109319603D01*
X149471157Y-109339018D01*
X149466388Y-109358057D01*
X149459776Y-109376537D01*
X149451384Y-109394279D01*
X149441294Y-109411114D01*
X149429602Y-109426879D01*
X149416421Y-109441421D01*
X149401879Y-109454602D01*
X149386114Y-109466294D01*
X149369279Y-109476384D01*
X149351537Y-109484776D01*
X149333057Y-109491388D01*
X149314018Y-109496157D01*
X149294603Y-109499037D01*
X149275000Y-109500000D01*
X148725000Y-109500000D01*
X148705397Y-109499037D01*
X148685982Y-109496157D01*
X148666943Y-109491388D01*
X148648463Y-109484776D01*
X148630721Y-109476384D01*
X148613886Y-109466294D01*
X148598121Y-109454602D01*
X148583579Y-109441421D01*
X148570398Y-109426879D01*
X148558706Y-109411114D01*
X148548616Y-109394279D01*
X148540224Y-109376537D01*
X148533612Y-109358057D01*
X148528843Y-109339018D01*
X148525963Y-109319603D01*
X148525000Y-109300000D01*
X148525000Y-108900000D01*
X148525963Y-108880397D01*
X148528843Y-108860982D01*
X148533612Y-108841943D01*
X148540224Y-108823463D01*
X148548616Y-108805721D01*
X148558706Y-108788886D01*
X148570398Y-108773121D01*
X148583579Y-108758579D01*
X148598121Y-108745398D01*
X148613886Y-108733706D01*
X148630721Y-108723616D01*
X148648463Y-108715224D01*
X148666943Y-108708612D01*
X148685982Y-108703843D01*
X148705397Y-108700963D01*
X148725000Y-108700000D01*
X149275000Y-108700000D01*
X149294603Y-108700963D01*
X149294603Y-108700963D01*
G37*
D21*
X149000000Y-109100000D03*
D13*
G36*
X149294603Y-110000963D02*
G01*
X149314018Y-110003843D01*
X149333057Y-110008612D01*
X149351537Y-110015224D01*
X149369279Y-110023616D01*
X149386114Y-110033706D01*
X149401879Y-110045398D01*
X149416421Y-110058579D01*
X149429602Y-110073121D01*
X149441294Y-110088886D01*
X149451384Y-110105721D01*
X149459776Y-110123463D01*
X149466388Y-110141943D01*
X149471157Y-110160982D01*
X149474037Y-110180397D01*
X149475000Y-110200000D01*
X149475000Y-110600000D01*
X149474037Y-110619603D01*
X149471157Y-110639018D01*
X149466388Y-110658057D01*
X149459776Y-110676537D01*
X149451384Y-110694279D01*
X149441294Y-110711114D01*
X149429602Y-110726879D01*
X149416421Y-110741421D01*
X149401879Y-110754602D01*
X149386114Y-110766294D01*
X149369279Y-110776384D01*
X149351537Y-110784776D01*
X149333057Y-110791388D01*
X149314018Y-110796157D01*
X149294603Y-110799037D01*
X149275000Y-110800000D01*
X148725000Y-110800000D01*
X148705397Y-110799037D01*
X148685982Y-110796157D01*
X148666943Y-110791388D01*
X148648463Y-110784776D01*
X148630721Y-110776384D01*
X148613886Y-110766294D01*
X148598121Y-110754602D01*
X148583579Y-110741421D01*
X148570398Y-110726879D01*
X148558706Y-110711114D01*
X148548616Y-110694279D01*
X148540224Y-110676537D01*
X148533612Y-110658057D01*
X148528843Y-110639018D01*
X148525963Y-110619603D01*
X148525000Y-110600000D01*
X148525000Y-110200000D01*
X148525963Y-110180397D01*
X148528843Y-110160982D01*
X148533612Y-110141943D01*
X148540224Y-110123463D01*
X148548616Y-110105721D01*
X148558706Y-110088886D01*
X148570398Y-110073121D01*
X148583579Y-110058579D01*
X148598121Y-110045398D01*
X148613886Y-110033706D01*
X148630721Y-110023616D01*
X148648463Y-110015224D01*
X148666943Y-110008612D01*
X148685982Y-110003843D01*
X148705397Y-110000963D01*
X148725000Y-110000000D01*
X149275000Y-110000000D01*
X149294603Y-110000963D01*
X149294603Y-110000963D01*
G37*
D21*
X149000000Y-110400000D03*
D13*
G36*
X147369603Y-107525963D02*
G01*
X147389018Y-107528843D01*
X147408057Y-107533612D01*
X147426537Y-107540224D01*
X147444279Y-107548616D01*
X147461114Y-107558706D01*
X147476879Y-107570398D01*
X147491421Y-107583579D01*
X147504602Y-107598121D01*
X147516294Y-107613886D01*
X147526384Y-107630721D01*
X147534776Y-107648463D01*
X147541388Y-107666943D01*
X147546157Y-107685982D01*
X147549037Y-107705397D01*
X147550000Y-107725000D01*
X147550000Y-108275000D01*
X147549037Y-108294603D01*
X147546157Y-108314018D01*
X147541388Y-108333057D01*
X147534776Y-108351537D01*
X147526384Y-108369279D01*
X147516294Y-108386114D01*
X147504602Y-108401879D01*
X147491421Y-108416421D01*
X147476879Y-108429602D01*
X147461114Y-108441294D01*
X147444279Y-108451384D01*
X147426537Y-108459776D01*
X147408057Y-108466388D01*
X147389018Y-108471157D01*
X147369603Y-108474037D01*
X147350000Y-108475000D01*
X146950000Y-108475000D01*
X146930397Y-108474037D01*
X146910982Y-108471157D01*
X146891943Y-108466388D01*
X146873463Y-108459776D01*
X146855721Y-108451384D01*
X146838886Y-108441294D01*
X146823121Y-108429602D01*
X146808579Y-108416421D01*
X146795398Y-108401879D01*
X146783706Y-108386114D01*
X146773616Y-108369279D01*
X146765224Y-108351537D01*
X146758612Y-108333057D01*
X146753843Y-108314018D01*
X146750963Y-108294603D01*
X146750000Y-108275000D01*
X146750000Y-107725000D01*
X146750963Y-107705397D01*
X146753843Y-107685982D01*
X146758612Y-107666943D01*
X146765224Y-107648463D01*
X146773616Y-107630721D01*
X146783706Y-107613886D01*
X146795398Y-107598121D01*
X146808579Y-107583579D01*
X146823121Y-107570398D01*
X146838886Y-107558706D01*
X146855721Y-107548616D01*
X146873463Y-107540224D01*
X146891943Y-107533612D01*
X146910982Y-107528843D01*
X146930397Y-107525963D01*
X146950000Y-107525000D01*
X147350000Y-107525000D01*
X147369603Y-107525963D01*
X147369603Y-107525963D01*
G37*
D21*
X147150000Y-108000000D03*
D13*
G36*
X146069603Y-107525963D02*
G01*
X146089018Y-107528843D01*
X146108057Y-107533612D01*
X146126537Y-107540224D01*
X146144279Y-107548616D01*
X146161114Y-107558706D01*
X146176879Y-107570398D01*
X146191421Y-107583579D01*
X146204602Y-107598121D01*
X146216294Y-107613886D01*
X146226384Y-107630721D01*
X146234776Y-107648463D01*
X146241388Y-107666943D01*
X146246157Y-107685982D01*
X146249037Y-107705397D01*
X146250000Y-107725000D01*
X146250000Y-108275000D01*
X146249037Y-108294603D01*
X146246157Y-108314018D01*
X146241388Y-108333057D01*
X146234776Y-108351537D01*
X146226384Y-108369279D01*
X146216294Y-108386114D01*
X146204602Y-108401879D01*
X146191421Y-108416421D01*
X146176879Y-108429602D01*
X146161114Y-108441294D01*
X146144279Y-108451384D01*
X146126537Y-108459776D01*
X146108057Y-108466388D01*
X146089018Y-108471157D01*
X146069603Y-108474037D01*
X146050000Y-108475000D01*
X145650000Y-108475000D01*
X145630397Y-108474037D01*
X145610982Y-108471157D01*
X145591943Y-108466388D01*
X145573463Y-108459776D01*
X145555721Y-108451384D01*
X145538886Y-108441294D01*
X145523121Y-108429602D01*
X145508579Y-108416421D01*
X145495398Y-108401879D01*
X145483706Y-108386114D01*
X145473616Y-108369279D01*
X145465224Y-108351537D01*
X145458612Y-108333057D01*
X145453843Y-108314018D01*
X145450963Y-108294603D01*
X145450000Y-108275000D01*
X145450000Y-107725000D01*
X145450963Y-107705397D01*
X145453843Y-107685982D01*
X145458612Y-107666943D01*
X145465224Y-107648463D01*
X145473616Y-107630721D01*
X145483706Y-107613886D01*
X145495398Y-107598121D01*
X145508579Y-107583579D01*
X145523121Y-107570398D01*
X145538886Y-107558706D01*
X145555721Y-107548616D01*
X145573463Y-107540224D01*
X145591943Y-107533612D01*
X145610982Y-107528843D01*
X145630397Y-107525963D01*
X145650000Y-107525000D01*
X146050000Y-107525000D01*
X146069603Y-107525963D01*
X146069603Y-107525963D01*
G37*
D21*
X145850000Y-108000000D03*
D13*
G36*
X144594603Y-99450963D02*
G01*
X144614018Y-99453843D01*
X144633057Y-99458612D01*
X144651537Y-99465224D01*
X144669279Y-99473616D01*
X144686114Y-99483706D01*
X144701879Y-99495398D01*
X144716421Y-99508579D01*
X144729602Y-99523121D01*
X144741294Y-99538886D01*
X144751384Y-99555721D01*
X144759776Y-99573463D01*
X144766388Y-99591943D01*
X144771157Y-99610982D01*
X144774037Y-99630397D01*
X144775000Y-99650000D01*
X144775000Y-100050000D01*
X144774037Y-100069603D01*
X144771157Y-100089018D01*
X144766388Y-100108057D01*
X144759776Y-100126537D01*
X144751384Y-100144279D01*
X144741294Y-100161114D01*
X144729602Y-100176879D01*
X144716421Y-100191421D01*
X144701879Y-100204602D01*
X144686114Y-100216294D01*
X144669279Y-100226384D01*
X144651537Y-100234776D01*
X144633057Y-100241388D01*
X144614018Y-100246157D01*
X144594603Y-100249037D01*
X144575000Y-100250000D01*
X144025000Y-100250000D01*
X144005397Y-100249037D01*
X143985982Y-100246157D01*
X143966943Y-100241388D01*
X143948463Y-100234776D01*
X143930721Y-100226384D01*
X143913886Y-100216294D01*
X143898121Y-100204602D01*
X143883579Y-100191421D01*
X143870398Y-100176879D01*
X143858706Y-100161114D01*
X143848616Y-100144279D01*
X143840224Y-100126537D01*
X143833612Y-100108057D01*
X143828843Y-100089018D01*
X143825963Y-100069603D01*
X143825000Y-100050000D01*
X143825000Y-99650000D01*
X143825963Y-99630397D01*
X143828843Y-99610982D01*
X143833612Y-99591943D01*
X143840224Y-99573463D01*
X143848616Y-99555721D01*
X143858706Y-99538886D01*
X143870398Y-99523121D01*
X143883579Y-99508579D01*
X143898121Y-99495398D01*
X143913886Y-99483706D01*
X143930721Y-99473616D01*
X143948463Y-99465224D01*
X143966943Y-99458612D01*
X143985982Y-99453843D01*
X144005397Y-99450963D01*
X144025000Y-99450000D01*
X144575000Y-99450000D01*
X144594603Y-99450963D01*
X144594603Y-99450963D01*
G37*
D21*
X144300000Y-99850000D03*
D13*
G36*
X144594603Y-100750963D02*
G01*
X144614018Y-100753843D01*
X144633057Y-100758612D01*
X144651537Y-100765224D01*
X144669279Y-100773616D01*
X144686114Y-100783706D01*
X144701879Y-100795398D01*
X144716421Y-100808579D01*
X144729602Y-100823121D01*
X144741294Y-100838886D01*
X144751384Y-100855721D01*
X144759776Y-100873463D01*
X144766388Y-100891943D01*
X144771157Y-100910982D01*
X144774037Y-100930397D01*
X144775000Y-100950000D01*
X144775000Y-101350000D01*
X144774037Y-101369603D01*
X144771157Y-101389018D01*
X144766388Y-101408057D01*
X144759776Y-101426537D01*
X144751384Y-101444279D01*
X144741294Y-101461114D01*
X144729602Y-101476879D01*
X144716421Y-101491421D01*
X144701879Y-101504602D01*
X144686114Y-101516294D01*
X144669279Y-101526384D01*
X144651537Y-101534776D01*
X144633057Y-101541388D01*
X144614018Y-101546157D01*
X144594603Y-101549037D01*
X144575000Y-101550000D01*
X144025000Y-101550000D01*
X144005397Y-101549037D01*
X143985982Y-101546157D01*
X143966943Y-101541388D01*
X143948463Y-101534776D01*
X143930721Y-101526384D01*
X143913886Y-101516294D01*
X143898121Y-101504602D01*
X143883579Y-101491421D01*
X143870398Y-101476879D01*
X143858706Y-101461114D01*
X143848616Y-101444279D01*
X143840224Y-101426537D01*
X143833612Y-101408057D01*
X143828843Y-101389018D01*
X143825963Y-101369603D01*
X143825000Y-101350000D01*
X143825000Y-100950000D01*
X143825963Y-100930397D01*
X143828843Y-100910982D01*
X143833612Y-100891943D01*
X143840224Y-100873463D01*
X143848616Y-100855721D01*
X143858706Y-100838886D01*
X143870398Y-100823121D01*
X143883579Y-100808579D01*
X143898121Y-100795398D01*
X143913886Y-100783706D01*
X143930721Y-100773616D01*
X143948463Y-100765224D01*
X143966943Y-100758612D01*
X143985982Y-100753843D01*
X144005397Y-100750963D01*
X144025000Y-100750000D01*
X144575000Y-100750000D01*
X144594603Y-100750963D01*
X144594603Y-100750963D01*
G37*
D21*
X144300000Y-101150000D03*
D13*
G36*
X144594603Y-110250963D02*
G01*
X144614018Y-110253843D01*
X144633057Y-110258612D01*
X144651537Y-110265224D01*
X144669279Y-110273616D01*
X144686114Y-110283706D01*
X144701879Y-110295398D01*
X144716421Y-110308579D01*
X144729602Y-110323121D01*
X144741294Y-110338886D01*
X144751384Y-110355721D01*
X144759776Y-110373463D01*
X144766388Y-110391943D01*
X144771157Y-110410982D01*
X144774037Y-110430397D01*
X144775000Y-110450000D01*
X144775000Y-110850000D01*
X144774037Y-110869603D01*
X144771157Y-110889018D01*
X144766388Y-110908057D01*
X144759776Y-110926537D01*
X144751384Y-110944279D01*
X144741294Y-110961114D01*
X144729602Y-110976879D01*
X144716421Y-110991421D01*
X144701879Y-111004602D01*
X144686114Y-111016294D01*
X144669279Y-111026384D01*
X144651537Y-111034776D01*
X144633057Y-111041388D01*
X144614018Y-111046157D01*
X144594603Y-111049037D01*
X144575000Y-111050000D01*
X144025000Y-111050000D01*
X144005397Y-111049037D01*
X143985982Y-111046157D01*
X143966943Y-111041388D01*
X143948463Y-111034776D01*
X143930721Y-111026384D01*
X143913886Y-111016294D01*
X143898121Y-111004602D01*
X143883579Y-110991421D01*
X143870398Y-110976879D01*
X143858706Y-110961114D01*
X143848616Y-110944279D01*
X143840224Y-110926537D01*
X143833612Y-110908057D01*
X143828843Y-110889018D01*
X143825963Y-110869603D01*
X143825000Y-110850000D01*
X143825000Y-110450000D01*
X143825963Y-110430397D01*
X143828843Y-110410982D01*
X143833612Y-110391943D01*
X143840224Y-110373463D01*
X143848616Y-110355721D01*
X143858706Y-110338886D01*
X143870398Y-110323121D01*
X143883579Y-110308579D01*
X143898121Y-110295398D01*
X143913886Y-110283706D01*
X143930721Y-110273616D01*
X143948463Y-110265224D01*
X143966943Y-110258612D01*
X143985982Y-110253843D01*
X144005397Y-110250963D01*
X144025000Y-110250000D01*
X144575000Y-110250000D01*
X144594603Y-110250963D01*
X144594603Y-110250963D01*
G37*
D21*
X144300000Y-110650000D03*
D13*
G36*
X144594603Y-108950963D02*
G01*
X144614018Y-108953843D01*
X144633057Y-108958612D01*
X144651537Y-108965224D01*
X144669279Y-108973616D01*
X144686114Y-108983706D01*
X144701879Y-108995398D01*
X144716421Y-109008579D01*
X144729602Y-109023121D01*
X144741294Y-109038886D01*
X144751384Y-109055721D01*
X144759776Y-109073463D01*
X144766388Y-109091943D01*
X144771157Y-109110982D01*
X144774037Y-109130397D01*
X144775000Y-109150000D01*
X144775000Y-109550000D01*
X144774037Y-109569603D01*
X144771157Y-109589018D01*
X144766388Y-109608057D01*
X144759776Y-109626537D01*
X144751384Y-109644279D01*
X144741294Y-109661114D01*
X144729602Y-109676879D01*
X144716421Y-109691421D01*
X144701879Y-109704602D01*
X144686114Y-109716294D01*
X144669279Y-109726384D01*
X144651537Y-109734776D01*
X144633057Y-109741388D01*
X144614018Y-109746157D01*
X144594603Y-109749037D01*
X144575000Y-109750000D01*
X144025000Y-109750000D01*
X144005397Y-109749037D01*
X143985982Y-109746157D01*
X143966943Y-109741388D01*
X143948463Y-109734776D01*
X143930721Y-109726384D01*
X143913886Y-109716294D01*
X143898121Y-109704602D01*
X143883579Y-109691421D01*
X143870398Y-109676879D01*
X143858706Y-109661114D01*
X143848616Y-109644279D01*
X143840224Y-109626537D01*
X143833612Y-109608057D01*
X143828843Y-109589018D01*
X143825963Y-109569603D01*
X143825000Y-109550000D01*
X143825000Y-109150000D01*
X143825963Y-109130397D01*
X143828843Y-109110982D01*
X143833612Y-109091943D01*
X143840224Y-109073463D01*
X143848616Y-109055721D01*
X143858706Y-109038886D01*
X143870398Y-109023121D01*
X143883579Y-109008579D01*
X143898121Y-108995398D01*
X143913886Y-108983706D01*
X143930721Y-108973616D01*
X143948463Y-108965224D01*
X143966943Y-108958612D01*
X143985982Y-108953843D01*
X144005397Y-108950963D01*
X144025000Y-108950000D01*
X144575000Y-108950000D01*
X144594603Y-108950963D01*
X144594603Y-108950963D01*
G37*
D21*
X144300000Y-109350000D03*
D22*
X152000000Y-100800000D03*
D23*
X152700000Y-100800000D03*
X151300000Y-100800000D03*
D13*
G36*
X148569603Y-100525963D02*
G01*
X148589018Y-100528843D01*
X148608057Y-100533612D01*
X148626537Y-100540224D01*
X148644279Y-100548616D01*
X148661114Y-100558706D01*
X148676879Y-100570398D01*
X148691421Y-100583579D01*
X148704602Y-100598121D01*
X148716294Y-100613886D01*
X148726384Y-100630721D01*
X148734776Y-100648463D01*
X148741388Y-100666943D01*
X148746157Y-100685982D01*
X148749037Y-100705397D01*
X148750000Y-100725000D01*
X148750000Y-101275000D01*
X148749037Y-101294603D01*
X148746157Y-101314018D01*
X148741388Y-101333057D01*
X148734776Y-101351537D01*
X148726384Y-101369279D01*
X148716294Y-101386114D01*
X148704602Y-101401879D01*
X148691421Y-101416421D01*
X148676879Y-101429602D01*
X148661114Y-101441294D01*
X148644279Y-101451384D01*
X148626537Y-101459776D01*
X148608057Y-101466388D01*
X148589018Y-101471157D01*
X148569603Y-101474037D01*
X148550000Y-101475000D01*
X148150000Y-101475000D01*
X148130397Y-101474037D01*
X148110982Y-101471157D01*
X148091943Y-101466388D01*
X148073463Y-101459776D01*
X148055721Y-101451384D01*
X148038886Y-101441294D01*
X148023121Y-101429602D01*
X148008579Y-101416421D01*
X147995398Y-101401879D01*
X147983706Y-101386114D01*
X147973616Y-101369279D01*
X147965224Y-101351537D01*
X147958612Y-101333057D01*
X147953843Y-101314018D01*
X147950963Y-101294603D01*
X147950000Y-101275000D01*
X147950000Y-100725000D01*
X147950963Y-100705397D01*
X147953843Y-100685982D01*
X147958612Y-100666943D01*
X147965224Y-100648463D01*
X147973616Y-100630721D01*
X147983706Y-100613886D01*
X147995398Y-100598121D01*
X148008579Y-100583579D01*
X148023121Y-100570398D01*
X148038886Y-100558706D01*
X148055721Y-100548616D01*
X148073463Y-100540224D01*
X148091943Y-100533612D01*
X148110982Y-100528843D01*
X148130397Y-100525963D01*
X148150000Y-100525000D01*
X148550000Y-100525000D01*
X148569603Y-100525963D01*
X148569603Y-100525963D01*
G37*
D21*
X148350000Y-101000000D03*
D13*
G36*
X149869603Y-100525963D02*
G01*
X149889018Y-100528843D01*
X149908057Y-100533612D01*
X149926537Y-100540224D01*
X149944279Y-100548616D01*
X149961114Y-100558706D01*
X149976879Y-100570398D01*
X149991421Y-100583579D01*
X150004602Y-100598121D01*
X150016294Y-100613886D01*
X150026384Y-100630721D01*
X150034776Y-100648463D01*
X150041388Y-100666943D01*
X150046157Y-100685982D01*
X150049037Y-100705397D01*
X150050000Y-100725000D01*
X150050000Y-101275000D01*
X150049037Y-101294603D01*
X150046157Y-101314018D01*
X150041388Y-101333057D01*
X150034776Y-101351537D01*
X150026384Y-101369279D01*
X150016294Y-101386114D01*
X150004602Y-101401879D01*
X149991421Y-101416421D01*
X149976879Y-101429602D01*
X149961114Y-101441294D01*
X149944279Y-101451384D01*
X149926537Y-101459776D01*
X149908057Y-101466388D01*
X149889018Y-101471157D01*
X149869603Y-101474037D01*
X149850000Y-101475000D01*
X149450000Y-101475000D01*
X149430397Y-101474037D01*
X149410982Y-101471157D01*
X149391943Y-101466388D01*
X149373463Y-101459776D01*
X149355721Y-101451384D01*
X149338886Y-101441294D01*
X149323121Y-101429602D01*
X149308579Y-101416421D01*
X149295398Y-101401879D01*
X149283706Y-101386114D01*
X149273616Y-101369279D01*
X149265224Y-101351537D01*
X149258612Y-101333057D01*
X149253843Y-101314018D01*
X149250963Y-101294603D01*
X149250000Y-101275000D01*
X149250000Y-100725000D01*
X149250963Y-100705397D01*
X149253843Y-100685982D01*
X149258612Y-100666943D01*
X149265224Y-100648463D01*
X149273616Y-100630721D01*
X149283706Y-100613886D01*
X149295398Y-100598121D01*
X149308579Y-100583579D01*
X149323121Y-100570398D01*
X149338886Y-100558706D01*
X149355721Y-100548616D01*
X149373463Y-100540224D01*
X149391943Y-100533612D01*
X149410982Y-100528843D01*
X149430397Y-100525963D01*
X149450000Y-100525000D01*
X149850000Y-100525000D01*
X149869603Y-100525963D01*
X149869603Y-100525963D01*
G37*
D21*
X149650000Y-101000000D03*
D13*
G36*
X147369603Y-100525963D02*
G01*
X147389018Y-100528843D01*
X147408057Y-100533612D01*
X147426537Y-100540224D01*
X147444279Y-100548616D01*
X147461114Y-100558706D01*
X147476879Y-100570398D01*
X147491421Y-100583579D01*
X147504602Y-100598121D01*
X147516294Y-100613886D01*
X147526384Y-100630721D01*
X147534776Y-100648463D01*
X147541388Y-100666943D01*
X147546157Y-100685982D01*
X147549037Y-100705397D01*
X147550000Y-100725000D01*
X147550000Y-101275000D01*
X147549037Y-101294603D01*
X147546157Y-101314018D01*
X147541388Y-101333057D01*
X147534776Y-101351537D01*
X147526384Y-101369279D01*
X147516294Y-101386114D01*
X147504602Y-101401879D01*
X147491421Y-101416421D01*
X147476879Y-101429602D01*
X147461114Y-101441294D01*
X147444279Y-101451384D01*
X147426537Y-101459776D01*
X147408057Y-101466388D01*
X147389018Y-101471157D01*
X147369603Y-101474037D01*
X147350000Y-101475000D01*
X146950000Y-101475000D01*
X146930397Y-101474037D01*
X146910982Y-101471157D01*
X146891943Y-101466388D01*
X146873463Y-101459776D01*
X146855721Y-101451384D01*
X146838886Y-101441294D01*
X146823121Y-101429602D01*
X146808579Y-101416421D01*
X146795398Y-101401879D01*
X146783706Y-101386114D01*
X146773616Y-101369279D01*
X146765224Y-101351537D01*
X146758612Y-101333057D01*
X146753843Y-101314018D01*
X146750963Y-101294603D01*
X146750000Y-101275000D01*
X146750000Y-100725000D01*
X146750963Y-100705397D01*
X146753843Y-100685982D01*
X146758612Y-100666943D01*
X146765224Y-100648463D01*
X146773616Y-100630721D01*
X146783706Y-100613886D01*
X146795398Y-100598121D01*
X146808579Y-100583579D01*
X146823121Y-100570398D01*
X146838886Y-100558706D01*
X146855721Y-100548616D01*
X146873463Y-100540224D01*
X146891943Y-100533612D01*
X146910982Y-100528843D01*
X146930397Y-100525963D01*
X146950000Y-100525000D01*
X147350000Y-100525000D01*
X147369603Y-100525963D01*
X147369603Y-100525963D01*
G37*
D21*
X147150000Y-101000000D03*
D13*
G36*
X146069603Y-100525963D02*
G01*
X146089018Y-100528843D01*
X146108057Y-100533612D01*
X146126537Y-100540224D01*
X146144279Y-100548616D01*
X146161114Y-100558706D01*
X146176879Y-100570398D01*
X146191421Y-100583579D01*
X146204602Y-100598121D01*
X146216294Y-100613886D01*
X146226384Y-100630721D01*
X146234776Y-100648463D01*
X146241388Y-100666943D01*
X146246157Y-100685982D01*
X146249037Y-100705397D01*
X146250000Y-100725000D01*
X146250000Y-101275000D01*
X146249037Y-101294603D01*
X146246157Y-101314018D01*
X146241388Y-101333057D01*
X146234776Y-101351537D01*
X146226384Y-101369279D01*
X146216294Y-101386114D01*
X146204602Y-101401879D01*
X146191421Y-101416421D01*
X146176879Y-101429602D01*
X146161114Y-101441294D01*
X146144279Y-101451384D01*
X146126537Y-101459776D01*
X146108057Y-101466388D01*
X146089018Y-101471157D01*
X146069603Y-101474037D01*
X146050000Y-101475000D01*
X145650000Y-101475000D01*
X145630397Y-101474037D01*
X145610982Y-101471157D01*
X145591943Y-101466388D01*
X145573463Y-101459776D01*
X145555721Y-101451384D01*
X145538886Y-101441294D01*
X145523121Y-101429602D01*
X145508579Y-101416421D01*
X145495398Y-101401879D01*
X145483706Y-101386114D01*
X145473616Y-101369279D01*
X145465224Y-101351537D01*
X145458612Y-101333057D01*
X145453843Y-101314018D01*
X145450963Y-101294603D01*
X145450000Y-101275000D01*
X145450000Y-100725000D01*
X145450963Y-100705397D01*
X145453843Y-100685982D01*
X145458612Y-100666943D01*
X145465224Y-100648463D01*
X145473616Y-100630721D01*
X145483706Y-100613886D01*
X145495398Y-100598121D01*
X145508579Y-100583579D01*
X145523121Y-100570398D01*
X145538886Y-100558706D01*
X145555721Y-100548616D01*
X145573463Y-100540224D01*
X145591943Y-100533612D01*
X145610982Y-100528843D01*
X145630397Y-100525963D01*
X145650000Y-100525000D01*
X146050000Y-100525000D01*
X146069603Y-100525963D01*
X146069603Y-100525963D01*
G37*
D21*
X145850000Y-101000000D03*
D13*
G36*
X147369603Y-99025963D02*
G01*
X147389018Y-99028843D01*
X147408057Y-99033612D01*
X147426537Y-99040224D01*
X147444279Y-99048616D01*
X147461114Y-99058706D01*
X147476879Y-99070398D01*
X147491421Y-99083579D01*
X147504602Y-99098121D01*
X147516294Y-99113886D01*
X147526384Y-99130721D01*
X147534776Y-99148463D01*
X147541388Y-99166943D01*
X147546157Y-99185982D01*
X147549037Y-99205397D01*
X147550000Y-99225000D01*
X147550000Y-99775000D01*
X147549037Y-99794603D01*
X147546157Y-99814018D01*
X147541388Y-99833057D01*
X147534776Y-99851537D01*
X147526384Y-99869279D01*
X147516294Y-99886114D01*
X147504602Y-99901879D01*
X147491421Y-99916421D01*
X147476879Y-99929602D01*
X147461114Y-99941294D01*
X147444279Y-99951384D01*
X147426537Y-99959776D01*
X147408057Y-99966388D01*
X147389018Y-99971157D01*
X147369603Y-99974037D01*
X147350000Y-99975000D01*
X146950000Y-99975000D01*
X146930397Y-99974037D01*
X146910982Y-99971157D01*
X146891943Y-99966388D01*
X146873463Y-99959776D01*
X146855721Y-99951384D01*
X146838886Y-99941294D01*
X146823121Y-99929602D01*
X146808579Y-99916421D01*
X146795398Y-99901879D01*
X146783706Y-99886114D01*
X146773616Y-99869279D01*
X146765224Y-99851537D01*
X146758612Y-99833057D01*
X146753843Y-99814018D01*
X146750963Y-99794603D01*
X146750000Y-99775000D01*
X146750000Y-99225000D01*
X146750963Y-99205397D01*
X146753843Y-99185982D01*
X146758612Y-99166943D01*
X146765224Y-99148463D01*
X146773616Y-99130721D01*
X146783706Y-99113886D01*
X146795398Y-99098121D01*
X146808579Y-99083579D01*
X146823121Y-99070398D01*
X146838886Y-99058706D01*
X146855721Y-99048616D01*
X146873463Y-99040224D01*
X146891943Y-99033612D01*
X146910982Y-99028843D01*
X146930397Y-99025963D01*
X146950000Y-99025000D01*
X147350000Y-99025000D01*
X147369603Y-99025963D01*
X147369603Y-99025963D01*
G37*
D21*
X147150000Y-99500000D03*
D13*
G36*
X146069603Y-99025963D02*
G01*
X146089018Y-99028843D01*
X146108057Y-99033612D01*
X146126537Y-99040224D01*
X146144279Y-99048616D01*
X146161114Y-99058706D01*
X146176879Y-99070398D01*
X146191421Y-99083579D01*
X146204602Y-99098121D01*
X146216294Y-99113886D01*
X146226384Y-99130721D01*
X146234776Y-99148463D01*
X146241388Y-99166943D01*
X146246157Y-99185982D01*
X146249037Y-99205397D01*
X146250000Y-99225000D01*
X146250000Y-99775000D01*
X146249037Y-99794603D01*
X146246157Y-99814018D01*
X146241388Y-99833057D01*
X146234776Y-99851537D01*
X146226384Y-99869279D01*
X146216294Y-99886114D01*
X146204602Y-99901879D01*
X146191421Y-99916421D01*
X146176879Y-99929602D01*
X146161114Y-99941294D01*
X146144279Y-99951384D01*
X146126537Y-99959776D01*
X146108057Y-99966388D01*
X146089018Y-99971157D01*
X146069603Y-99974037D01*
X146050000Y-99975000D01*
X145650000Y-99975000D01*
X145630397Y-99974037D01*
X145610982Y-99971157D01*
X145591943Y-99966388D01*
X145573463Y-99959776D01*
X145555721Y-99951384D01*
X145538886Y-99941294D01*
X145523121Y-99929602D01*
X145508579Y-99916421D01*
X145495398Y-99901879D01*
X145483706Y-99886114D01*
X145473616Y-99869279D01*
X145465224Y-99851537D01*
X145458612Y-99833057D01*
X145453843Y-99814018D01*
X145450963Y-99794603D01*
X145450000Y-99775000D01*
X145450000Y-99225000D01*
X145450963Y-99205397D01*
X145453843Y-99185982D01*
X145458612Y-99166943D01*
X145465224Y-99148463D01*
X145473616Y-99130721D01*
X145483706Y-99113886D01*
X145495398Y-99098121D01*
X145508579Y-99083579D01*
X145523121Y-99070398D01*
X145538886Y-99058706D01*
X145555721Y-99048616D01*
X145573463Y-99040224D01*
X145591943Y-99033612D01*
X145610982Y-99028843D01*
X145630397Y-99025963D01*
X145650000Y-99025000D01*
X146050000Y-99025000D01*
X146069603Y-99025963D01*
X146069603Y-99025963D01*
G37*
D21*
X145850000Y-99500000D03*
D13*
G36*
X149869603Y-107525963D02*
G01*
X149889018Y-107528843D01*
X149908057Y-107533612D01*
X149926537Y-107540224D01*
X149944279Y-107548616D01*
X149961114Y-107558706D01*
X149976879Y-107570398D01*
X149991421Y-107583579D01*
X150004602Y-107598121D01*
X150016294Y-107613886D01*
X150026384Y-107630721D01*
X150034776Y-107648463D01*
X150041388Y-107666943D01*
X150046157Y-107685982D01*
X150049037Y-107705397D01*
X150050000Y-107725000D01*
X150050000Y-108275000D01*
X150049037Y-108294603D01*
X150046157Y-108314018D01*
X150041388Y-108333057D01*
X150034776Y-108351537D01*
X150026384Y-108369279D01*
X150016294Y-108386114D01*
X150004602Y-108401879D01*
X149991421Y-108416421D01*
X149976879Y-108429602D01*
X149961114Y-108441294D01*
X149944279Y-108451384D01*
X149926537Y-108459776D01*
X149908057Y-108466388D01*
X149889018Y-108471157D01*
X149869603Y-108474037D01*
X149850000Y-108475000D01*
X149450000Y-108475000D01*
X149430397Y-108474037D01*
X149410982Y-108471157D01*
X149391943Y-108466388D01*
X149373463Y-108459776D01*
X149355721Y-108451384D01*
X149338886Y-108441294D01*
X149323121Y-108429602D01*
X149308579Y-108416421D01*
X149295398Y-108401879D01*
X149283706Y-108386114D01*
X149273616Y-108369279D01*
X149265224Y-108351537D01*
X149258612Y-108333057D01*
X149253843Y-108314018D01*
X149250963Y-108294603D01*
X149250000Y-108275000D01*
X149250000Y-107725000D01*
X149250963Y-107705397D01*
X149253843Y-107685982D01*
X149258612Y-107666943D01*
X149265224Y-107648463D01*
X149273616Y-107630721D01*
X149283706Y-107613886D01*
X149295398Y-107598121D01*
X149308579Y-107583579D01*
X149323121Y-107570398D01*
X149338886Y-107558706D01*
X149355721Y-107548616D01*
X149373463Y-107540224D01*
X149391943Y-107533612D01*
X149410982Y-107528843D01*
X149430397Y-107525963D01*
X149450000Y-107525000D01*
X149850000Y-107525000D01*
X149869603Y-107525963D01*
X149869603Y-107525963D01*
G37*
D21*
X149650000Y-108000000D03*
D13*
G36*
X148569603Y-107525963D02*
G01*
X148589018Y-107528843D01*
X148608057Y-107533612D01*
X148626537Y-107540224D01*
X148644279Y-107548616D01*
X148661114Y-107558706D01*
X148676879Y-107570398D01*
X148691421Y-107583579D01*
X148704602Y-107598121D01*
X148716294Y-107613886D01*
X148726384Y-107630721D01*
X148734776Y-107648463D01*
X148741388Y-107666943D01*
X148746157Y-107685982D01*
X148749037Y-107705397D01*
X148750000Y-107725000D01*
X148750000Y-108275000D01*
X148749037Y-108294603D01*
X148746157Y-108314018D01*
X148741388Y-108333057D01*
X148734776Y-108351537D01*
X148726384Y-108369279D01*
X148716294Y-108386114D01*
X148704602Y-108401879D01*
X148691421Y-108416421D01*
X148676879Y-108429602D01*
X148661114Y-108441294D01*
X148644279Y-108451384D01*
X148626537Y-108459776D01*
X148608057Y-108466388D01*
X148589018Y-108471157D01*
X148569603Y-108474037D01*
X148550000Y-108475000D01*
X148150000Y-108475000D01*
X148130397Y-108474037D01*
X148110982Y-108471157D01*
X148091943Y-108466388D01*
X148073463Y-108459776D01*
X148055721Y-108451384D01*
X148038886Y-108441294D01*
X148023121Y-108429602D01*
X148008579Y-108416421D01*
X147995398Y-108401879D01*
X147983706Y-108386114D01*
X147973616Y-108369279D01*
X147965224Y-108351537D01*
X147958612Y-108333057D01*
X147953843Y-108314018D01*
X147950963Y-108294603D01*
X147950000Y-108275000D01*
X147950000Y-107725000D01*
X147950963Y-107705397D01*
X147953843Y-107685982D01*
X147958612Y-107666943D01*
X147965224Y-107648463D01*
X147973616Y-107630721D01*
X147983706Y-107613886D01*
X147995398Y-107598121D01*
X148008579Y-107583579D01*
X148023121Y-107570398D01*
X148038886Y-107558706D01*
X148055721Y-107548616D01*
X148073463Y-107540224D01*
X148091943Y-107533612D01*
X148110982Y-107528843D01*
X148130397Y-107525963D01*
X148150000Y-107525000D01*
X148550000Y-107525000D01*
X148569603Y-107525963D01*
X148569603Y-107525963D01*
G37*
D21*
X148350000Y-108000000D03*
M02*
