G04 #@! TF.GenerationSoftware,KiCad,Pcbnew,5.1.0-060a0da~80~ubuntu18.04.1*
G04 #@! TF.CreationDate,2019-04-12T23:32:23+02:00*
G04 #@! TF.ProjectId,mav_sbus_bridge,6d61765f-7362-4757-935f-627269646765,rev?*
G04 #@! TF.SameCoordinates,Original*
G04 #@! TF.FileFunction,Copper,L2,Bot*
G04 #@! TF.FilePolarity,Positive*
%FSLAX46Y46*%
G04 Gerber Fmt 4.6, Leading zero omitted, Abs format (unit mm)*
G04 Created by KiCad (PCBNEW 5.1.0-060a0da~80~ubuntu18.04.1) date 2019-04-12 23:32:23*
%MOMM*%
%LPD*%
G04 APERTURE LIST*
%ADD10C,1.700000*%
%ADD11O,1.000000X1.300000*%
%ADD12O,1.650000X1.000000*%
%ADD13C,0.600000*%
%ADD14C,0.200000*%
%ADD15C,0.300000*%
%ADD16C,0.500000*%
%ADD17C,0.600000*%
G04 APERTURE END LIST*
D10*
X154620000Y-113500000D03*
X152080000Y-113500000D03*
X149540000Y-113500000D03*
X147000000Y-113500000D03*
X141000000Y-104080000D03*
X141000000Y-101540000D03*
X141000000Y-99000000D03*
X141000000Y-112080000D03*
X141000000Y-109540000D03*
X141000000Y-107000000D03*
D11*
X152300000Y-109500000D03*
X152300000Y-104500000D03*
D12*
X155000000Y-103500000D03*
X155000000Y-110500000D03*
D13*
X148200000Y-106200000D03*
X144600000Y-102600000D03*
X144200000Y-107300000D03*
X144800000Y-99000000D03*
X149200000Y-98100000D03*
X145600000Y-111500000D03*
X150000000Y-109100000D03*
X146500000Y-109000000D03*
X144900000Y-106400000D03*
X148500000Y-102000000D03*
X148700000Y-107200000D03*
X151300000Y-100800000D03*
X153500000Y-108000000D03*
X148900002Y-99800002D03*
X151250000Y-107688909D03*
X150438909Y-105561091D03*
X152700000Y-100800000D03*
X148200000Y-110000000D03*
X144800000Y-108500000D03*
X146700000Y-110700000D03*
D14*
X155000000Y-110500000D02*
X155000000Y-102300000D01*
D15*
X148275736Y-107200000D02*
X148700000Y-107200000D01*
X145700000Y-107200000D02*
X148275736Y-107200000D01*
X144900000Y-106400000D02*
X145700000Y-107200000D01*
D16*
X144900000Y-103400000D02*
X144900000Y-106400000D01*
X148500000Y-102000000D02*
X146300000Y-102000000D01*
X146300000Y-102000000D02*
X144900000Y-103400000D01*
D14*
X151300000Y-100300000D02*
X151300000Y-100800000D01*
X148151458Y-98700000D02*
X149700000Y-98700000D01*
X147599990Y-99251468D02*
X148151458Y-98700000D01*
X148500000Y-102000000D02*
X147599990Y-102000000D01*
X149700000Y-98700000D02*
X151300000Y-100300000D01*
X147599990Y-102000000D02*
X147599990Y-99251468D01*
D17*
X141525010Y-106474990D02*
X141525010Y-107000000D01*
X141600000Y-99000000D02*
X142400000Y-99800000D01*
X142400000Y-105600000D02*
X141525010Y-106474990D01*
X142400000Y-99800000D02*
X142400000Y-105600000D01*
D16*
X148900002Y-100400002D02*
X148900002Y-99800002D01*
X152724264Y-103400000D02*
X151900000Y-103400000D01*
X153500000Y-108000000D02*
X153500000Y-104175736D01*
X151900000Y-103400000D02*
X148900002Y-100400002D01*
X153500000Y-104175736D02*
X152724264Y-103400000D01*
D14*
X151250000Y-107688909D02*
X150438909Y-106877818D01*
X150438909Y-106877818D02*
X150438909Y-105561091D01*
X148800000Y-110600000D02*
X148499999Y-110299999D01*
X148499999Y-110299999D02*
X148200000Y-110000000D01*
X152600000Y-110600000D02*
X148800000Y-110600000D01*
X152700000Y-100800000D02*
X152700000Y-102592878D01*
X152700000Y-102592878D02*
X154100011Y-103992889D01*
X154100011Y-103992889D02*
X154100011Y-109099989D01*
X154100011Y-109099989D02*
X152600000Y-110600000D01*
X144800000Y-108500000D02*
X146700000Y-110400000D01*
X146700000Y-110400000D02*
X146700000Y-110700000D01*
G36*
X156175000Y-98134619D02*
G01*
X156175001Y-112865380D01*
X155865382Y-113175000D01*
X155727883Y-113175000D01*
X155725806Y-113164557D01*
X155639116Y-112955271D01*
X155513263Y-112766918D01*
X155353082Y-112606737D01*
X155164729Y-112480884D01*
X154955443Y-112394194D01*
X154733265Y-112350000D01*
X154506735Y-112350000D01*
X154284557Y-112394194D01*
X154075271Y-112480884D01*
X153886918Y-112606737D01*
X153726737Y-112766918D01*
X153600884Y-112955271D01*
X153514194Y-113164557D01*
X153512117Y-113175000D01*
X153187883Y-113175000D01*
X153185806Y-113164557D01*
X153099116Y-112955271D01*
X152973263Y-112766918D01*
X152813082Y-112606737D01*
X152624729Y-112480884D01*
X152415443Y-112394194D01*
X152193265Y-112350000D01*
X151966735Y-112350000D01*
X151744557Y-112394194D01*
X151535271Y-112480884D01*
X151346918Y-112606737D01*
X151186737Y-112766918D01*
X151060884Y-112955271D01*
X150974194Y-113164557D01*
X150972117Y-113175000D01*
X150647883Y-113175000D01*
X150645806Y-113164557D01*
X150559116Y-112955271D01*
X150433263Y-112766918D01*
X150273082Y-112606737D01*
X150084729Y-112480884D01*
X149875443Y-112394194D01*
X149653265Y-112350000D01*
X149426735Y-112350000D01*
X149204557Y-112394194D01*
X148995271Y-112480884D01*
X148806918Y-112606737D01*
X148646737Y-112766918D01*
X148520884Y-112955271D01*
X148434194Y-113164557D01*
X148432117Y-113175000D01*
X148103551Y-113175000D01*
X148082399Y-113095352D01*
X147982658Y-112891962D01*
X147937801Y-112824828D01*
X147767601Y-112739470D01*
X147332071Y-113175000D01*
X147317929Y-113175000D01*
X147760530Y-112732399D01*
X147675172Y-112562199D01*
X147479242Y-112448499D01*
X147264896Y-112375208D01*
X147040370Y-112345142D01*
X146814293Y-112359457D01*
X146595352Y-112417601D01*
X146391962Y-112517342D01*
X146324828Y-112562199D01*
X146239470Y-112732399D01*
X146682071Y-113175000D01*
X146667929Y-113175000D01*
X146232399Y-112739470D01*
X146062199Y-112824828D01*
X145948499Y-113020758D01*
X145895759Y-113175000D01*
X141634619Y-113175000D01*
X141550495Y-113090877D01*
X141608038Y-113062658D01*
X141675172Y-113017801D01*
X141760530Y-112847601D01*
X141325000Y-112412071D01*
X141325000Y-112397929D01*
X141767601Y-112840530D01*
X141937801Y-112755172D01*
X142051501Y-112559242D01*
X142124792Y-112344896D01*
X142154858Y-112120370D01*
X142140543Y-111894293D01*
X142082399Y-111675352D01*
X141982658Y-111471962D01*
X141937801Y-111404828D01*
X141767601Y-111319470D01*
X141325000Y-111762071D01*
X141325000Y-111747929D01*
X141760530Y-111312399D01*
X141675172Y-111142199D01*
X141479242Y-111028499D01*
X141325000Y-110975759D01*
X141325000Y-110647883D01*
X141335443Y-110645806D01*
X141544729Y-110559116D01*
X141733082Y-110433263D01*
X141893263Y-110273082D01*
X142019116Y-110084729D01*
X142105806Y-109875443D01*
X142150000Y-109653265D01*
X142150000Y-109426735D01*
X142105806Y-109204557D01*
X142019116Y-108995271D01*
X141893263Y-108806918D01*
X141733082Y-108646737D01*
X141544729Y-108520884D01*
X141351645Y-108440905D01*
X144200000Y-108440905D01*
X144200000Y-108559095D01*
X144223058Y-108675014D01*
X144268287Y-108784207D01*
X144333950Y-108882478D01*
X144417522Y-108966050D01*
X144515793Y-109031713D01*
X144624986Y-109076942D01*
X144740905Y-109100000D01*
X144834315Y-109100000D01*
X146162962Y-110428648D01*
X146123058Y-110524986D01*
X146100000Y-110640905D01*
X146100000Y-110759095D01*
X146123058Y-110875014D01*
X146168287Y-110984207D01*
X146233950Y-111082478D01*
X146317522Y-111166050D01*
X146415793Y-111231713D01*
X146524986Y-111276942D01*
X146640905Y-111300000D01*
X146759095Y-111300000D01*
X146875014Y-111276942D01*
X146984207Y-111231713D01*
X147082478Y-111166050D01*
X147166050Y-111082478D01*
X147231713Y-110984207D01*
X147276942Y-110875014D01*
X147300000Y-110759095D01*
X147300000Y-110640905D01*
X147276942Y-110524986D01*
X147231713Y-110415793D01*
X147166050Y-110317522D01*
X147082478Y-110233950D01*
X147054978Y-110215575D01*
X147034197Y-110176697D01*
X146996735Y-110131049D01*
X146996733Y-110131047D01*
X146984211Y-110115789D01*
X146968954Y-110103268D01*
X146806591Y-109940905D01*
X147600000Y-109940905D01*
X147600000Y-110059095D01*
X147623058Y-110175014D01*
X147668287Y-110284207D01*
X147733950Y-110382478D01*
X147817522Y-110466050D01*
X147915793Y-110531713D01*
X148024986Y-110576942D01*
X148140905Y-110600000D01*
X148234315Y-110600000D01*
X148503263Y-110868948D01*
X148515789Y-110884211D01*
X148576697Y-110934197D01*
X148646186Y-110971340D01*
X148721586Y-110994212D01*
X148780353Y-111000000D01*
X148780363Y-111000000D01*
X148799999Y-111001934D01*
X148819635Y-111000000D01*
X152580354Y-111000000D01*
X152600000Y-111001935D01*
X152619646Y-111000000D01*
X152619647Y-111000000D01*
X152678414Y-110994212D01*
X152753814Y-110971340D01*
X152823303Y-110934197D01*
X152884211Y-110884211D01*
X152896737Y-110868948D01*
X153135601Y-110630084D01*
X153885647Y-110630084D01*
X153889396Y-110651169D01*
X153933983Y-110801528D01*
X154007047Y-110940299D01*
X154105780Y-111062150D01*
X154226387Y-111162398D01*
X154364234Y-111237190D01*
X154514024Y-111283653D01*
X154670000Y-111300000D01*
X154995000Y-111300000D01*
X154995000Y-110505000D01*
X155005000Y-110505000D01*
X155005000Y-111300000D01*
X155330000Y-111300000D01*
X155485976Y-111283653D01*
X155635766Y-111237190D01*
X155773613Y-111162398D01*
X155894220Y-111062150D01*
X155992953Y-110940299D01*
X156066017Y-110801528D01*
X156110604Y-110651169D01*
X156114353Y-110630084D01*
X156049983Y-110505000D01*
X155005000Y-110505000D01*
X154995000Y-110505000D01*
X153950017Y-110505000D01*
X153885647Y-110630084D01*
X153135601Y-110630084D01*
X153395769Y-110369916D01*
X153885647Y-110369916D01*
X153950017Y-110495000D01*
X154995000Y-110495000D01*
X154995000Y-110475000D01*
X155005000Y-110475000D01*
X155005000Y-110495000D01*
X156049983Y-110495000D01*
X156114353Y-110369916D01*
X156110604Y-110348831D01*
X156066017Y-110198472D01*
X155992953Y-110059701D01*
X155894220Y-109937850D01*
X155773613Y-109837602D01*
X155635766Y-109762810D01*
X155485976Y-109716347D01*
X155330000Y-109700000D01*
X154670000Y-109700000D01*
X154514024Y-109716347D01*
X154364234Y-109762810D01*
X154226387Y-109837602D01*
X154105780Y-109937850D01*
X154007047Y-110059701D01*
X153933983Y-110198472D01*
X153889396Y-110348831D01*
X153885647Y-110369916D01*
X153395769Y-110369916D01*
X154368964Y-109396722D01*
X154384222Y-109384200D01*
X154434208Y-109323292D01*
X154471351Y-109253804D01*
X154494223Y-109178403D01*
X154501946Y-109099989D01*
X154500011Y-109080343D01*
X154500011Y-104279306D01*
X154514024Y-104283653D01*
X154670000Y-104300000D01*
X154995000Y-104300000D01*
X154995000Y-103505000D01*
X155005000Y-103505000D01*
X155005000Y-104300000D01*
X155330000Y-104300000D01*
X155485976Y-104283653D01*
X155635766Y-104237190D01*
X155773613Y-104162398D01*
X155894220Y-104062150D01*
X155992953Y-103940299D01*
X156066017Y-103801528D01*
X156110604Y-103651169D01*
X156114353Y-103630084D01*
X156049983Y-103505000D01*
X155005000Y-103505000D01*
X154995000Y-103505000D01*
X154975000Y-103505000D01*
X154975000Y-103495000D01*
X154995000Y-103495000D01*
X154995000Y-103475000D01*
X155005000Y-103475000D01*
X155005000Y-103495000D01*
X156049983Y-103495000D01*
X156114353Y-103369916D01*
X156110604Y-103348831D01*
X156066017Y-103198472D01*
X155992953Y-103059701D01*
X155894220Y-102937850D01*
X155773613Y-102837602D01*
X155635766Y-102762810D01*
X155485976Y-102716347D01*
X155330000Y-102700000D01*
X154670000Y-102700000D01*
X154514024Y-102716347D01*
X154364234Y-102762810D01*
X154226387Y-102837602D01*
X154105780Y-102937850D01*
X154007047Y-103059701D01*
X153933983Y-103198472D01*
X153919642Y-103246835D01*
X153100000Y-102427193D01*
X153100000Y-101248528D01*
X153166050Y-101182478D01*
X153231713Y-101084207D01*
X153276942Y-100975014D01*
X153300000Y-100859095D01*
X153300000Y-100740905D01*
X153276942Y-100624986D01*
X153231713Y-100515793D01*
X153166050Y-100417522D01*
X153082478Y-100333950D01*
X152984207Y-100268287D01*
X152875014Y-100223058D01*
X152759095Y-100200000D01*
X152640905Y-100200000D01*
X152524986Y-100223058D01*
X152415793Y-100268287D01*
X152317522Y-100333950D01*
X152233950Y-100417522D01*
X152168287Y-100515793D01*
X152123058Y-100624986D01*
X152100000Y-100740905D01*
X152100000Y-100859095D01*
X152123058Y-100975014D01*
X152168287Y-101084207D01*
X152233950Y-101182478D01*
X152300000Y-101248528D01*
X152300001Y-102573222D01*
X152298065Y-102592878D01*
X152305788Y-102671291D01*
X152328661Y-102746692D01*
X152365803Y-102816180D01*
X152393558Y-102850000D01*
X152127818Y-102850000D01*
X149450002Y-100172185D01*
X149450002Y-100040060D01*
X149476944Y-99975016D01*
X149500002Y-99859097D01*
X149500002Y-99740907D01*
X149476944Y-99624988D01*
X149431715Y-99515795D01*
X149366052Y-99417524D01*
X149282480Y-99333952D01*
X149184209Y-99268289D01*
X149075016Y-99223060D01*
X148959097Y-99200002D01*
X148840907Y-99200002D01*
X148724988Y-99223060D01*
X148615795Y-99268289D01*
X148517524Y-99333952D01*
X148433952Y-99417524D01*
X148368289Y-99515795D01*
X148323060Y-99624988D01*
X148300002Y-99740907D01*
X148300002Y-99859097D01*
X148323060Y-99975016D01*
X148350002Y-100040060D01*
X148350002Y-100372994D01*
X148347342Y-100400002D01*
X148350002Y-100427010D01*
X148350002Y-100427019D01*
X148357960Y-100507820D01*
X148389410Y-100611495D01*
X148440481Y-100707044D01*
X148509212Y-100790792D01*
X148530198Y-100808015D01*
X151491992Y-103769810D01*
X151509210Y-103790790D01*
X151530190Y-103808008D01*
X151530195Y-103808013D01*
X151592958Y-103859521D01*
X151647963Y-103888922D01*
X151637602Y-103901387D01*
X151562810Y-104039234D01*
X151516347Y-104189024D01*
X151500000Y-104345000D01*
X151500000Y-104495000D01*
X152295000Y-104495000D01*
X152295000Y-104475000D01*
X152305000Y-104475000D01*
X152305000Y-104495000D01*
X152325000Y-104495000D01*
X152325000Y-104505000D01*
X152305000Y-104505000D01*
X152305000Y-105374983D01*
X152430084Y-105439353D01*
X152451169Y-105435604D01*
X152601528Y-105391017D01*
X152740299Y-105317953D01*
X152862150Y-105219220D01*
X152950001Y-105113528D01*
X152950000Y-107759942D01*
X152923058Y-107824986D01*
X152900000Y-107940905D01*
X152900000Y-108059095D01*
X152923058Y-108175014D01*
X152968287Y-108284207D01*
X153033950Y-108382478D01*
X153117522Y-108466050D01*
X153215793Y-108531713D01*
X153324986Y-108576942D01*
X153440905Y-108600000D01*
X153559095Y-108600000D01*
X153675014Y-108576942D01*
X153700012Y-108566588D01*
X153700012Y-108934302D01*
X153100000Y-109534314D01*
X153100000Y-109505000D01*
X152305000Y-109505000D01*
X152305000Y-109525000D01*
X152295000Y-109525000D01*
X152295000Y-109505000D01*
X151500000Y-109505000D01*
X151500000Y-109655000D01*
X151516347Y-109810976D01*
X151562810Y-109960766D01*
X151637602Y-110098613D01*
X151721874Y-110200000D01*
X148965685Y-110200000D01*
X148800000Y-110034315D01*
X148800000Y-109940905D01*
X148776942Y-109824986D01*
X148731713Y-109715793D01*
X148666050Y-109617522D01*
X148582478Y-109533950D01*
X148484207Y-109468287D01*
X148375014Y-109423058D01*
X148259095Y-109400000D01*
X148140905Y-109400000D01*
X148024986Y-109423058D01*
X147915793Y-109468287D01*
X147817522Y-109533950D01*
X147733950Y-109617522D01*
X147668287Y-109715793D01*
X147623058Y-109824986D01*
X147600000Y-109940905D01*
X146806591Y-109940905D01*
X146210686Y-109345000D01*
X151500000Y-109345000D01*
X151500000Y-109495000D01*
X152295000Y-109495000D01*
X152295000Y-108625017D01*
X152305000Y-108625017D01*
X152305000Y-109495000D01*
X153100000Y-109495000D01*
X153100000Y-109345000D01*
X153083653Y-109189024D01*
X153037190Y-109039234D01*
X152962398Y-108901387D01*
X152862150Y-108780780D01*
X152740299Y-108682047D01*
X152601528Y-108608983D01*
X152451169Y-108564396D01*
X152430084Y-108560647D01*
X152305000Y-108625017D01*
X152295000Y-108625017D01*
X152169916Y-108560647D01*
X152148831Y-108564396D01*
X151998472Y-108608983D01*
X151859701Y-108682047D01*
X151737850Y-108780780D01*
X151637602Y-108901387D01*
X151562810Y-109039234D01*
X151516347Y-109189024D01*
X151500000Y-109345000D01*
X146210686Y-109345000D01*
X145400000Y-108534315D01*
X145400000Y-108440905D01*
X145376942Y-108324986D01*
X145331713Y-108215793D01*
X145266050Y-108117522D01*
X145182478Y-108033950D01*
X145084207Y-107968287D01*
X144975014Y-107923058D01*
X144859095Y-107900000D01*
X144740905Y-107900000D01*
X144624986Y-107923058D01*
X144515793Y-107968287D01*
X144417522Y-108033950D01*
X144333950Y-108117522D01*
X144268287Y-108215793D01*
X144223058Y-108324986D01*
X144200000Y-108440905D01*
X141351645Y-108440905D01*
X141335443Y-108434194D01*
X141325000Y-108432117D01*
X141325000Y-108107883D01*
X141335443Y-108105806D01*
X141544729Y-108019116D01*
X141733082Y-107893263D01*
X141893263Y-107733082D01*
X142019116Y-107544729D01*
X142105806Y-107335443D01*
X142150000Y-107113265D01*
X142150000Y-106886735D01*
X142125010Y-106761102D01*
X142125010Y-106723517D01*
X142507622Y-106340905D01*
X144300000Y-106340905D01*
X144300000Y-106459095D01*
X144323058Y-106575014D01*
X144368287Y-106684207D01*
X144433950Y-106782478D01*
X144517522Y-106866050D01*
X144615793Y-106931713D01*
X144724986Y-106976942D01*
X144840905Y-107000000D01*
X144863605Y-107000000D01*
X145366176Y-107502572D01*
X145380263Y-107519737D01*
X145397428Y-107533824D01*
X145397432Y-107533828D01*
X145448783Y-107575971D01*
X145513373Y-107610495D01*
X145526959Y-107617757D01*
X145611785Y-107643489D01*
X145677895Y-107650000D01*
X145677905Y-107650000D01*
X145700000Y-107652176D01*
X145722094Y-107650000D01*
X148301472Y-107650000D01*
X148317522Y-107666050D01*
X148415793Y-107731713D01*
X148524986Y-107776942D01*
X148640905Y-107800000D01*
X148759095Y-107800000D01*
X148875014Y-107776942D01*
X148984207Y-107731713D01*
X149082478Y-107666050D01*
X149166050Y-107582478D01*
X149231713Y-107484207D01*
X149276942Y-107375014D01*
X149300000Y-107259095D01*
X149300000Y-107140905D01*
X149276942Y-107024986D01*
X149231713Y-106915793D01*
X149166050Y-106817522D01*
X149082478Y-106733950D01*
X148984207Y-106668287D01*
X148875014Y-106623058D01*
X148759095Y-106600000D01*
X148640905Y-106600000D01*
X148524986Y-106623058D01*
X148415793Y-106668287D01*
X148317522Y-106733950D01*
X148301472Y-106750000D01*
X145886396Y-106750000D01*
X145500000Y-106363605D01*
X145500000Y-106340905D01*
X145476942Y-106224986D01*
X145450000Y-106159942D01*
X145450000Y-105501996D01*
X149838909Y-105501996D01*
X149838909Y-105620186D01*
X149861967Y-105736105D01*
X149907196Y-105845298D01*
X149972859Y-105943569D01*
X150038910Y-106009620D01*
X150038909Y-106858171D01*
X150036974Y-106877818D01*
X150038909Y-106897464D01*
X150044697Y-106956231D01*
X150067569Y-107031631D01*
X150104712Y-107101120D01*
X150154698Y-107162029D01*
X150169961Y-107174555D01*
X150650000Y-107654595D01*
X150650000Y-107748004D01*
X150673058Y-107863923D01*
X150718287Y-107973116D01*
X150783950Y-108071387D01*
X150867522Y-108154959D01*
X150965793Y-108220622D01*
X151074986Y-108265851D01*
X151190905Y-108288909D01*
X151309095Y-108288909D01*
X151425014Y-108265851D01*
X151534207Y-108220622D01*
X151632478Y-108154959D01*
X151716050Y-108071387D01*
X151781713Y-107973116D01*
X151826942Y-107863923D01*
X151850000Y-107748004D01*
X151850000Y-107629814D01*
X151826942Y-107513895D01*
X151781713Y-107404702D01*
X151716050Y-107306431D01*
X151632478Y-107222859D01*
X151534207Y-107157196D01*
X151425014Y-107111967D01*
X151309095Y-107088909D01*
X151215686Y-107088909D01*
X150838909Y-106712133D01*
X150838909Y-106009619D01*
X150904959Y-105943569D01*
X150970622Y-105845298D01*
X151015851Y-105736105D01*
X151038909Y-105620186D01*
X151038909Y-105501996D01*
X151015851Y-105386077D01*
X150970622Y-105276884D01*
X150904959Y-105178613D01*
X150821387Y-105095041D01*
X150723116Y-105029378D01*
X150613923Y-104984149D01*
X150498004Y-104961091D01*
X150379814Y-104961091D01*
X150263895Y-104984149D01*
X150154702Y-105029378D01*
X150056431Y-105095041D01*
X149972859Y-105178613D01*
X149907196Y-105276884D01*
X149861967Y-105386077D01*
X149838909Y-105501996D01*
X145450000Y-105501996D01*
X145450000Y-104505000D01*
X151500000Y-104505000D01*
X151500000Y-104655000D01*
X151516347Y-104810976D01*
X151562810Y-104960766D01*
X151637602Y-105098613D01*
X151737850Y-105219220D01*
X151859701Y-105317953D01*
X151998472Y-105391017D01*
X152148831Y-105435604D01*
X152169916Y-105439353D01*
X152295000Y-105374983D01*
X152295000Y-104505000D01*
X151500000Y-104505000D01*
X145450000Y-104505000D01*
X145450000Y-103627817D01*
X146527818Y-102550000D01*
X148259942Y-102550000D01*
X148324986Y-102576942D01*
X148440905Y-102600000D01*
X148559095Y-102600000D01*
X148675014Y-102576942D01*
X148784207Y-102531713D01*
X148882478Y-102466050D01*
X148966050Y-102382478D01*
X149031713Y-102284207D01*
X149076942Y-102175014D01*
X149100000Y-102059095D01*
X149100000Y-101940905D01*
X149076942Y-101824986D01*
X149031713Y-101715793D01*
X148966050Y-101617522D01*
X148882478Y-101533950D01*
X148784207Y-101468287D01*
X148675014Y-101423058D01*
X148559095Y-101400000D01*
X148440905Y-101400000D01*
X148324986Y-101423058D01*
X148259942Y-101450000D01*
X147999990Y-101450000D01*
X147999990Y-99417153D01*
X148317143Y-99100000D01*
X149534315Y-99100000D01*
X150842894Y-100408579D01*
X150833950Y-100417522D01*
X150768287Y-100515793D01*
X150723058Y-100624986D01*
X150700000Y-100740905D01*
X150700000Y-100859095D01*
X150723058Y-100975014D01*
X150768287Y-101084207D01*
X150833950Y-101182478D01*
X150917522Y-101266050D01*
X151015793Y-101331713D01*
X151124986Y-101376942D01*
X151240905Y-101400000D01*
X151359095Y-101400000D01*
X151475014Y-101376942D01*
X151584207Y-101331713D01*
X151682478Y-101266050D01*
X151766050Y-101182478D01*
X151831713Y-101084207D01*
X151876942Y-100975014D01*
X151900000Y-100859095D01*
X151900000Y-100740905D01*
X151876942Y-100624986D01*
X151831713Y-100515793D01*
X151766050Y-100417522D01*
X151700000Y-100351472D01*
X151700000Y-100319647D01*
X151701935Y-100300000D01*
X151694212Y-100221586D01*
X151671340Y-100146186D01*
X151634197Y-100076697D01*
X151596735Y-100031050D01*
X151584211Y-100015789D01*
X151568949Y-100003264D01*
X149996737Y-98431052D01*
X149984211Y-98415789D01*
X149923303Y-98365803D01*
X149853814Y-98328660D01*
X149778414Y-98305788D01*
X149719647Y-98300000D01*
X149719646Y-98300000D01*
X149700000Y-98298065D01*
X149680354Y-98300000D01*
X148171105Y-98300000D01*
X148151458Y-98298065D01*
X148131811Y-98300000D01*
X148073044Y-98305788D01*
X147997644Y-98328660D01*
X147928155Y-98365803D01*
X147867247Y-98415789D01*
X147854721Y-98431052D01*
X147331038Y-98954735D01*
X147315780Y-98967257D01*
X147303258Y-98982515D01*
X147303255Y-98982518D01*
X147265793Y-99028166D01*
X147228651Y-99097654D01*
X147205778Y-99173055D01*
X147198055Y-99251468D01*
X147199991Y-99271124D01*
X147199990Y-101450000D01*
X146327008Y-101450000D01*
X146300000Y-101447340D01*
X146272992Y-101450000D01*
X146272982Y-101450000D01*
X146192181Y-101457958D01*
X146088506Y-101489408D01*
X146044028Y-101513182D01*
X145992957Y-101540479D01*
X145930195Y-101591987D01*
X145930190Y-101591992D01*
X145909210Y-101609210D01*
X145891992Y-101630190D01*
X144530196Y-102991987D01*
X144509210Y-103009210D01*
X144440479Y-103092958D01*
X144389408Y-103188507D01*
X144357958Y-103292182D01*
X144350000Y-103372983D01*
X144350000Y-103372992D01*
X144347340Y-103400000D01*
X144350000Y-103427008D01*
X144350001Y-106159940D01*
X144323058Y-106224986D01*
X144300000Y-106340905D01*
X142507622Y-106340905D01*
X142803419Y-106045109D01*
X142826317Y-106026317D01*
X142901296Y-105934955D01*
X142957010Y-105830721D01*
X142991318Y-105717621D01*
X143000000Y-105629474D01*
X143002903Y-105600000D01*
X143000000Y-105570526D01*
X143000000Y-99829474D01*
X143002903Y-99800000D01*
X142991318Y-99682379D01*
X142957010Y-99569278D01*
X142928422Y-99515795D01*
X142901296Y-99465045D01*
X142826317Y-99373683D01*
X142803420Y-99354892D01*
X142100660Y-98652132D01*
X142019116Y-98455271D01*
X141893263Y-98266918D01*
X141733082Y-98106737D01*
X141544729Y-97980884D01*
X141498064Y-97961555D01*
X141634619Y-97825000D01*
X155865382Y-97825000D01*
X156175000Y-98134619D01*
X156175000Y-98134619D01*
G37*
X156175000Y-98134619D02*
X156175001Y-112865380D01*
X155865382Y-113175000D01*
X155727883Y-113175000D01*
X155725806Y-113164557D01*
X155639116Y-112955271D01*
X155513263Y-112766918D01*
X155353082Y-112606737D01*
X155164729Y-112480884D01*
X154955443Y-112394194D01*
X154733265Y-112350000D01*
X154506735Y-112350000D01*
X154284557Y-112394194D01*
X154075271Y-112480884D01*
X153886918Y-112606737D01*
X153726737Y-112766918D01*
X153600884Y-112955271D01*
X153514194Y-113164557D01*
X153512117Y-113175000D01*
X153187883Y-113175000D01*
X153185806Y-113164557D01*
X153099116Y-112955271D01*
X152973263Y-112766918D01*
X152813082Y-112606737D01*
X152624729Y-112480884D01*
X152415443Y-112394194D01*
X152193265Y-112350000D01*
X151966735Y-112350000D01*
X151744557Y-112394194D01*
X151535271Y-112480884D01*
X151346918Y-112606737D01*
X151186737Y-112766918D01*
X151060884Y-112955271D01*
X150974194Y-113164557D01*
X150972117Y-113175000D01*
X150647883Y-113175000D01*
X150645806Y-113164557D01*
X150559116Y-112955271D01*
X150433263Y-112766918D01*
X150273082Y-112606737D01*
X150084729Y-112480884D01*
X149875443Y-112394194D01*
X149653265Y-112350000D01*
X149426735Y-112350000D01*
X149204557Y-112394194D01*
X148995271Y-112480884D01*
X148806918Y-112606737D01*
X148646737Y-112766918D01*
X148520884Y-112955271D01*
X148434194Y-113164557D01*
X148432117Y-113175000D01*
X148103551Y-113175000D01*
X148082399Y-113095352D01*
X147982658Y-112891962D01*
X147937801Y-112824828D01*
X147767601Y-112739470D01*
X147332071Y-113175000D01*
X147317929Y-113175000D01*
X147760530Y-112732399D01*
X147675172Y-112562199D01*
X147479242Y-112448499D01*
X147264896Y-112375208D01*
X147040370Y-112345142D01*
X146814293Y-112359457D01*
X146595352Y-112417601D01*
X146391962Y-112517342D01*
X146324828Y-112562199D01*
X146239470Y-112732399D01*
X146682071Y-113175000D01*
X146667929Y-113175000D01*
X146232399Y-112739470D01*
X146062199Y-112824828D01*
X145948499Y-113020758D01*
X145895759Y-113175000D01*
X141634619Y-113175000D01*
X141550495Y-113090877D01*
X141608038Y-113062658D01*
X141675172Y-113017801D01*
X141760530Y-112847601D01*
X141325000Y-112412071D01*
X141325000Y-112397929D01*
X141767601Y-112840530D01*
X141937801Y-112755172D01*
X142051501Y-112559242D01*
X142124792Y-112344896D01*
X142154858Y-112120370D01*
X142140543Y-111894293D01*
X142082399Y-111675352D01*
X141982658Y-111471962D01*
X141937801Y-111404828D01*
X141767601Y-111319470D01*
X141325000Y-111762071D01*
X141325000Y-111747929D01*
X141760530Y-111312399D01*
X141675172Y-111142199D01*
X141479242Y-111028499D01*
X141325000Y-110975759D01*
X141325000Y-110647883D01*
X141335443Y-110645806D01*
X141544729Y-110559116D01*
X141733082Y-110433263D01*
X141893263Y-110273082D01*
X142019116Y-110084729D01*
X142105806Y-109875443D01*
X142150000Y-109653265D01*
X142150000Y-109426735D01*
X142105806Y-109204557D01*
X142019116Y-108995271D01*
X141893263Y-108806918D01*
X141733082Y-108646737D01*
X141544729Y-108520884D01*
X141351645Y-108440905D01*
X144200000Y-108440905D01*
X144200000Y-108559095D01*
X144223058Y-108675014D01*
X144268287Y-108784207D01*
X144333950Y-108882478D01*
X144417522Y-108966050D01*
X144515793Y-109031713D01*
X144624986Y-109076942D01*
X144740905Y-109100000D01*
X144834315Y-109100000D01*
X146162962Y-110428648D01*
X146123058Y-110524986D01*
X146100000Y-110640905D01*
X146100000Y-110759095D01*
X146123058Y-110875014D01*
X146168287Y-110984207D01*
X146233950Y-111082478D01*
X146317522Y-111166050D01*
X146415793Y-111231713D01*
X146524986Y-111276942D01*
X146640905Y-111300000D01*
X146759095Y-111300000D01*
X146875014Y-111276942D01*
X146984207Y-111231713D01*
X147082478Y-111166050D01*
X147166050Y-111082478D01*
X147231713Y-110984207D01*
X147276942Y-110875014D01*
X147300000Y-110759095D01*
X147300000Y-110640905D01*
X147276942Y-110524986D01*
X147231713Y-110415793D01*
X147166050Y-110317522D01*
X147082478Y-110233950D01*
X147054978Y-110215575D01*
X147034197Y-110176697D01*
X146996735Y-110131049D01*
X146996733Y-110131047D01*
X146984211Y-110115789D01*
X146968954Y-110103268D01*
X146806591Y-109940905D01*
X147600000Y-109940905D01*
X147600000Y-110059095D01*
X147623058Y-110175014D01*
X147668287Y-110284207D01*
X147733950Y-110382478D01*
X147817522Y-110466050D01*
X147915793Y-110531713D01*
X148024986Y-110576942D01*
X148140905Y-110600000D01*
X148234315Y-110600000D01*
X148503263Y-110868948D01*
X148515789Y-110884211D01*
X148576697Y-110934197D01*
X148646186Y-110971340D01*
X148721586Y-110994212D01*
X148780353Y-111000000D01*
X148780363Y-111000000D01*
X148799999Y-111001934D01*
X148819635Y-111000000D01*
X152580354Y-111000000D01*
X152600000Y-111001935D01*
X152619646Y-111000000D01*
X152619647Y-111000000D01*
X152678414Y-110994212D01*
X152753814Y-110971340D01*
X152823303Y-110934197D01*
X152884211Y-110884211D01*
X152896737Y-110868948D01*
X153135601Y-110630084D01*
X153885647Y-110630084D01*
X153889396Y-110651169D01*
X153933983Y-110801528D01*
X154007047Y-110940299D01*
X154105780Y-111062150D01*
X154226387Y-111162398D01*
X154364234Y-111237190D01*
X154514024Y-111283653D01*
X154670000Y-111300000D01*
X154995000Y-111300000D01*
X154995000Y-110505000D01*
X155005000Y-110505000D01*
X155005000Y-111300000D01*
X155330000Y-111300000D01*
X155485976Y-111283653D01*
X155635766Y-111237190D01*
X155773613Y-111162398D01*
X155894220Y-111062150D01*
X155992953Y-110940299D01*
X156066017Y-110801528D01*
X156110604Y-110651169D01*
X156114353Y-110630084D01*
X156049983Y-110505000D01*
X155005000Y-110505000D01*
X154995000Y-110505000D01*
X153950017Y-110505000D01*
X153885647Y-110630084D01*
X153135601Y-110630084D01*
X153395769Y-110369916D01*
X153885647Y-110369916D01*
X153950017Y-110495000D01*
X154995000Y-110495000D01*
X154995000Y-110475000D01*
X155005000Y-110475000D01*
X155005000Y-110495000D01*
X156049983Y-110495000D01*
X156114353Y-110369916D01*
X156110604Y-110348831D01*
X156066017Y-110198472D01*
X155992953Y-110059701D01*
X155894220Y-109937850D01*
X155773613Y-109837602D01*
X155635766Y-109762810D01*
X155485976Y-109716347D01*
X155330000Y-109700000D01*
X154670000Y-109700000D01*
X154514024Y-109716347D01*
X154364234Y-109762810D01*
X154226387Y-109837602D01*
X154105780Y-109937850D01*
X154007047Y-110059701D01*
X153933983Y-110198472D01*
X153889396Y-110348831D01*
X153885647Y-110369916D01*
X153395769Y-110369916D01*
X154368964Y-109396722D01*
X154384222Y-109384200D01*
X154434208Y-109323292D01*
X154471351Y-109253804D01*
X154494223Y-109178403D01*
X154501946Y-109099989D01*
X154500011Y-109080343D01*
X154500011Y-104279306D01*
X154514024Y-104283653D01*
X154670000Y-104300000D01*
X154995000Y-104300000D01*
X154995000Y-103505000D01*
X155005000Y-103505000D01*
X155005000Y-104300000D01*
X155330000Y-104300000D01*
X155485976Y-104283653D01*
X155635766Y-104237190D01*
X155773613Y-104162398D01*
X155894220Y-104062150D01*
X155992953Y-103940299D01*
X156066017Y-103801528D01*
X156110604Y-103651169D01*
X156114353Y-103630084D01*
X156049983Y-103505000D01*
X155005000Y-103505000D01*
X154995000Y-103505000D01*
X154975000Y-103505000D01*
X154975000Y-103495000D01*
X154995000Y-103495000D01*
X154995000Y-103475000D01*
X155005000Y-103475000D01*
X155005000Y-103495000D01*
X156049983Y-103495000D01*
X156114353Y-103369916D01*
X156110604Y-103348831D01*
X156066017Y-103198472D01*
X155992953Y-103059701D01*
X155894220Y-102937850D01*
X155773613Y-102837602D01*
X155635766Y-102762810D01*
X155485976Y-102716347D01*
X155330000Y-102700000D01*
X154670000Y-102700000D01*
X154514024Y-102716347D01*
X154364234Y-102762810D01*
X154226387Y-102837602D01*
X154105780Y-102937850D01*
X154007047Y-103059701D01*
X153933983Y-103198472D01*
X153919642Y-103246835D01*
X153100000Y-102427193D01*
X153100000Y-101248528D01*
X153166050Y-101182478D01*
X153231713Y-101084207D01*
X153276942Y-100975014D01*
X153300000Y-100859095D01*
X153300000Y-100740905D01*
X153276942Y-100624986D01*
X153231713Y-100515793D01*
X153166050Y-100417522D01*
X153082478Y-100333950D01*
X152984207Y-100268287D01*
X152875014Y-100223058D01*
X152759095Y-100200000D01*
X152640905Y-100200000D01*
X152524986Y-100223058D01*
X152415793Y-100268287D01*
X152317522Y-100333950D01*
X152233950Y-100417522D01*
X152168287Y-100515793D01*
X152123058Y-100624986D01*
X152100000Y-100740905D01*
X152100000Y-100859095D01*
X152123058Y-100975014D01*
X152168287Y-101084207D01*
X152233950Y-101182478D01*
X152300000Y-101248528D01*
X152300001Y-102573222D01*
X152298065Y-102592878D01*
X152305788Y-102671291D01*
X152328661Y-102746692D01*
X152365803Y-102816180D01*
X152393558Y-102850000D01*
X152127818Y-102850000D01*
X149450002Y-100172185D01*
X149450002Y-100040060D01*
X149476944Y-99975016D01*
X149500002Y-99859097D01*
X149500002Y-99740907D01*
X149476944Y-99624988D01*
X149431715Y-99515795D01*
X149366052Y-99417524D01*
X149282480Y-99333952D01*
X149184209Y-99268289D01*
X149075016Y-99223060D01*
X148959097Y-99200002D01*
X148840907Y-99200002D01*
X148724988Y-99223060D01*
X148615795Y-99268289D01*
X148517524Y-99333952D01*
X148433952Y-99417524D01*
X148368289Y-99515795D01*
X148323060Y-99624988D01*
X148300002Y-99740907D01*
X148300002Y-99859097D01*
X148323060Y-99975016D01*
X148350002Y-100040060D01*
X148350002Y-100372994D01*
X148347342Y-100400002D01*
X148350002Y-100427010D01*
X148350002Y-100427019D01*
X148357960Y-100507820D01*
X148389410Y-100611495D01*
X148440481Y-100707044D01*
X148509212Y-100790792D01*
X148530198Y-100808015D01*
X151491992Y-103769810D01*
X151509210Y-103790790D01*
X151530190Y-103808008D01*
X151530195Y-103808013D01*
X151592958Y-103859521D01*
X151647963Y-103888922D01*
X151637602Y-103901387D01*
X151562810Y-104039234D01*
X151516347Y-104189024D01*
X151500000Y-104345000D01*
X151500000Y-104495000D01*
X152295000Y-104495000D01*
X152295000Y-104475000D01*
X152305000Y-104475000D01*
X152305000Y-104495000D01*
X152325000Y-104495000D01*
X152325000Y-104505000D01*
X152305000Y-104505000D01*
X152305000Y-105374983D01*
X152430084Y-105439353D01*
X152451169Y-105435604D01*
X152601528Y-105391017D01*
X152740299Y-105317953D01*
X152862150Y-105219220D01*
X152950001Y-105113528D01*
X152950000Y-107759942D01*
X152923058Y-107824986D01*
X152900000Y-107940905D01*
X152900000Y-108059095D01*
X152923058Y-108175014D01*
X152968287Y-108284207D01*
X153033950Y-108382478D01*
X153117522Y-108466050D01*
X153215793Y-108531713D01*
X153324986Y-108576942D01*
X153440905Y-108600000D01*
X153559095Y-108600000D01*
X153675014Y-108576942D01*
X153700012Y-108566588D01*
X153700012Y-108934302D01*
X153100000Y-109534314D01*
X153100000Y-109505000D01*
X152305000Y-109505000D01*
X152305000Y-109525000D01*
X152295000Y-109525000D01*
X152295000Y-109505000D01*
X151500000Y-109505000D01*
X151500000Y-109655000D01*
X151516347Y-109810976D01*
X151562810Y-109960766D01*
X151637602Y-110098613D01*
X151721874Y-110200000D01*
X148965685Y-110200000D01*
X148800000Y-110034315D01*
X148800000Y-109940905D01*
X148776942Y-109824986D01*
X148731713Y-109715793D01*
X148666050Y-109617522D01*
X148582478Y-109533950D01*
X148484207Y-109468287D01*
X148375014Y-109423058D01*
X148259095Y-109400000D01*
X148140905Y-109400000D01*
X148024986Y-109423058D01*
X147915793Y-109468287D01*
X147817522Y-109533950D01*
X147733950Y-109617522D01*
X147668287Y-109715793D01*
X147623058Y-109824986D01*
X147600000Y-109940905D01*
X146806591Y-109940905D01*
X146210686Y-109345000D01*
X151500000Y-109345000D01*
X151500000Y-109495000D01*
X152295000Y-109495000D01*
X152295000Y-108625017D01*
X152305000Y-108625017D01*
X152305000Y-109495000D01*
X153100000Y-109495000D01*
X153100000Y-109345000D01*
X153083653Y-109189024D01*
X153037190Y-109039234D01*
X152962398Y-108901387D01*
X152862150Y-108780780D01*
X152740299Y-108682047D01*
X152601528Y-108608983D01*
X152451169Y-108564396D01*
X152430084Y-108560647D01*
X152305000Y-108625017D01*
X152295000Y-108625017D01*
X152169916Y-108560647D01*
X152148831Y-108564396D01*
X151998472Y-108608983D01*
X151859701Y-108682047D01*
X151737850Y-108780780D01*
X151637602Y-108901387D01*
X151562810Y-109039234D01*
X151516347Y-109189024D01*
X151500000Y-109345000D01*
X146210686Y-109345000D01*
X145400000Y-108534315D01*
X145400000Y-108440905D01*
X145376942Y-108324986D01*
X145331713Y-108215793D01*
X145266050Y-108117522D01*
X145182478Y-108033950D01*
X145084207Y-107968287D01*
X144975014Y-107923058D01*
X144859095Y-107900000D01*
X144740905Y-107900000D01*
X144624986Y-107923058D01*
X144515793Y-107968287D01*
X144417522Y-108033950D01*
X144333950Y-108117522D01*
X144268287Y-108215793D01*
X144223058Y-108324986D01*
X144200000Y-108440905D01*
X141351645Y-108440905D01*
X141335443Y-108434194D01*
X141325000Y-108432117D01*
X141325000Y-108107883D01*
X141335443Y-108105806D01*
X141544729Y-108019116D01*
X141733082Y-107893263D01*
X141893263Y-107733082D01*
X142019116Y-107544729D01*
X142105806Y-107335443D01*
X142150000Y-107113265D01*
X142150000Y-106886735D01*
X142125010Y-106761102D01*
X142125010Y-106723517D01*
X142507622Y-106340905D01*
X144300000Y-106340905D01*
X144300000Y-106459095D01*
X144323058Y-106575014D01*
X144368287Y-106684207D01*
X144433950Y-106782478D01*
X144517522Y-106866050D01*
X144615793Y-106931713D01*
X144724986Y-106976942D01*
X144840905Y-107000000D01*
X144863605Y-107000000D01*
X145366176Y-107502572D01*
X145380263Y-107519737D01*
X145397428Y-107533824D01*
X145397432Y-107533828D01*
X145448783Y-107575971D01*
X145513373Y-107610495D01*
X145526959Y-107617757D01*
X145611785Y-107643489D01*
X145677895Y-107650000D01*
X145677905Y-107650000D01*
X145700000Y-107652176D01*
X145722094Y-107650000D01*
X148301472Y-107650000D01*
X148317522Y-107666050D01*
X148415793Y-107731713D01*
X148524986Y-107776942D01*
X148640905Y-107800000D01*
X148759095Y-107800000D01*
X148875014Y-107776942D01*
X148984207Y-107731713D01*
X149082478Y-107666050D01*
X149166050Y-107582478D01*
X149231713Y-107484207D01*
X149276942Y-107375014D01*
X149300000Y-107259095D01*
X149300000Y-107140905D01*
X149276942Y-107024986D01*
X149231713Y-106915793D01*
X149166050Y-106817522D01*
X149082478Y-106733950D01*
X148984207Y-106668287D01*
X148875014Y-106623058D01*
X148759095Y-106600000D01*
X148640905Y-106600000D01*
X148524986Y-106623058D01*
X148415793Y-106668287D01*
X148317522Y-106733950D01*
X148301472Y-106750000D01*
X145886396Y-106750000D01*
X145500000Y-106363605D01*
X145500000Y-106340905D01*
X145476942Y-106224986D01*
X145450000Y-106159942D01*
X145450000Y-105501996D01*
X149838909Y-105501996D01*
X149838909Y-105620186D01*
X149861967Y-105736105D01*
X149907196Y-105845298D01*
X149972859Y-105943569D01*
X150038910Y-106009620D01*
X150038909Y-106858171D01*
X150036974Y-106877818D01*
X150038909Y-106897464D01*
X150044697Y-106956231D01*
X150067569Y-107031631D01*
X150104712Y-107101120D01*
X150154698Y-107162029D01*
X150169961Y-107174555D01*
X150650000Y-107654595D01*
X150650000Y-107748004D01*
X150673058Y-107863923D01*
X150718287Y-107973116D01*
X150783950Y-108071387D01*
X150867522Y-108154959D01*
X150965793Y-108220622D01*
X151074986Y-108265851D01*
X151190905Y-108288909D01*
X151309095Y-108288909D01*
X151425014Y-108265851D01*
X151534207Y-108220622D01*
X151632478Y-108154959D01*
X151716050Y-108071387D01*
X151781713Y-107973116D01*
X151826942Y-107863923D01*
X151850000Y-107748004D01*
X151850000Y-107629814D01*
X151826942Y-107513895D01*
X151781713Y-107404702D01*
X151716050Y-107306431D01*
X151632478Y-107222859D01*
X151534207Y-107157196D01*
X151425014Y-107111967D01*
X151309095Y-107088909D01*
X151215686Y-107088909D01*
X150838909Y-106712133D01*
X150838909Y-106009619D01*
X150904959Y-105943569D01*
X150970622Y-105845298D01*
X151015851Y-105736105D01*
X151038909Y-105620186D01*
X151038909Y-105501996D01*
X151015851Y-105386077D01*
X150970622Y-105276884D01*
X150904959Y-105178613D01*
X150821387Y-105095041D01*
X150723116Y-105029378D01*
X150613923Y-104984149D01*
X150498004Y-104961091D01*
X150379814Y-104961091D01*
X150263895Y-104984149D01*
X150154702Y-105029378D01*
X150056431Y-105095041D01*
X149972859Y-105178613D01*
X149907196Y-105276884D01*
X149861967Y-105386077D01*
X149838909Y-105501996D01*
X145450000Y-105501996D01*
X145450000Y-104505000D01*
X151500000Y-104505000D01*
X151500000Y-104655000D01*
X151516347Y-104810976D01*
X151562810Y-104960766D01*
X151637602Y-105098613D01*
X151737850Y-105219220D01*
X151859701Y-105317953D01*
X151998472Y-105391017D01*
X152148831Y-105435604D01*
X152169916Y-105439353D01*
X152295000Y-105374983D01*
X152295000Y-104505000D01*
X151500000Y-104505000D01*
X145450000Y-104505000D01*
X145450000Y-103627817D01*
X146527818Y-102550000D01*
X148259942Y-102550000D01*
X148324986Y-102576942D01*
X148440905Y-102600000D01*
X148559095Y-102600000D01*
X148675014Y-102576942D01*
X148784207Y-102531713D01*
X148882478Y-102466050D01*
X148966050Y-102382478D01*
X149031713Y-102284207D01*
X149076942Y-102175014D01*
X149100000Y-102059095D01*
X149100000Y-101940905D01*
X149076942Y-101824986D01*
X149031713Y-101715793D01*
X148966050Y-101617522D01*
X148882478Y-101533950D01*
X148784207Y-101468287D01*
X148675014Y-101423058D01*
X148559095Y-101400000D01*
X148440905Y-101400000D01*
X148324986Y-101423058D01*
X148259942Y-101450000D01*
X147999990Y-101450000D01*
X147999990Y-99417153D01*
X148317143Y-99100000D01*
X149534315Y-99100000D01*
X150842894Y-100408579D01*
X150833950Y-100417522D01*
X150768287Y-100515793D01*
X150723058Y-100624986D01*
X150700000Y-100740905D01*
X150700000Y-100859095D01*
X150723058Y-100975014D01*
X150768287Y-101084207D01*
X150833950Y-101182478D01*
X150917522Y-101266050D01*
X151015793Y-101331713D01*
X151124986Y-101376942D01*
X151240905Y-101400000D01*
X151359095Y-101400000D01*
X151475014Y-101376942D01*
X151584207Y-101331713D01*
X151682478Y-101266050D01*
X151766050Y-101182478D01*
X151831713Y-101084207D01*
X151876942Y-100975014D01*
X151900000Y-100859095D01*
X151900000Y-100740905D01*
X151876942Y-100624986D01*
X151831713Y-100515793D01*
X151766050Y-100417522D01*
X151700000Y-100351472D01*
X151700000Y-100319647D01*
X151701935Y-100300000D01*
X151694212Y-100221586D01*
X151671340Y-100146186D01*
X151634197Y-100076697D01*
X151596735Y-100031050D01*
X151584211Y-100015789D01*
X151568949Y-100003264D01*
X149996737Y-98431052D01*
X149984211Y-98415789D01*
X149923303Y-98365803D01*
X149853814Y-98328660D01*
X149778414Y-98305788D01*
X149719647Y-98300000D01*
X149719646Y-98300000D01*
X149700000Y-98298065D01*
X149680354Y-98300000D01*
X148171105Y-98300000D01*
X148151458Y-98298065D01*
X148131811Y-98300000D01*
X148073044Y-98305788D01*
X147997644Y-98328660D01*
X147928155Y-98365803D01*
X147867247Y-98415789D01*
X147854721Y-98431052D01*
X147331038Y-98954735D01*
X147315780Y-98967257D01*
X147303258Y-98982515D01*
X147303255Y-98982518D01*
X147265793Y-99028166D01*
X147228651Y-99097654D01*
X147205778Y-99173055D01*
X147198055Y-99251468D01*
X147199991Y-99271124D01*
X147199990Y-101450000D01*
X146327008Y-101450000D01*
X146300000Y-101447340D01*
X146272992Y-101450000D01*
X146272982Y-101450000D01*
X146192181Y-101457958D01*
X146088506Y-101489408D01*
X146044028Y-101513182D01*
X145992957Y-101540479D01*
X145930195Y-101591987D01*
X145930190Y-101591992D01*
X145909210Y-101609210D01*
X145891992Y-101630190D01*
X144530196Y-102991987D01*
X144509210Y-103009210D01*
X144440479Y-103092958D01*
X144389408Y-103188507D01*
X144357958Y-103292182D01*
X144350000Y-103372983D01*
X144350000Y-103372992D01*
X144347340Y-103400000D01*
X144350000Y-103427008D01*
X144350001Y-106159940D01*
X144323058Y-106224986D01*
X144300000Y-106340905D01*
X142507622Y-106340905D01*
X142803419Y-106045109D01*
X142826317Y-106026317D01*
X142901296Y-105934955D01*
X142957010Y-105830721D01*
X142991318Y-105717621D01*
X143000000Y-105629474D01*
X143002903Y-105600000D01*
X143000000Y-105570526D01*
X143000000Y-99829474D01*
X143002903Y-99800000D01*
X142991318Y-99682379D01*
X142957010Y-99569278D01*
X142928422Y-99515795D01*
X142901296Y-99465045D01*
X142826317Y-99373683D01*
X142803420Y-99354892D01*
X142100660Y-98652132D01*
X142019116Y-98455271D01*
X141893263Y-98266918D01*
X141733082Y-98106737D01*
X141544729Y-97980884D01*
X141498064Y-97961555D01*
X141634619Y-97825000D01*
X155865382Y-97825000D01*
X156175000Y-98134619D01*
M02*
