M48
; DRILL file {KiCad 5.1.0-060a0da~80~ubuntu18.04.1} date fre 12 apr 2019 23:32:25
; FORMAT={-:-/ absolute / metric / decimal}
; #@! TF.CreationDate,2019-04-12T23:32:25+02:00
; #@! TF.GenerationSoftware,Kicad,Pcbnew,5.1.0-060a0da~80~ubuntu18.04.1
; #@! TF.FileFunction,Plated,1,2,PTH
FMAT,2
METRIC
T1C0.300
T2C0.500
T3C0.550
T4C1.000
%
G90
G05
T1
X144.2Y-107.3
X144.6Y-102.6
X144.8Y-99.0
X144.8Y-108.5
X144.9Y-106.4
X145.6Y-111.5
X146.5Y-109.0
X146.7Y-110.7
X148.2Y-106.2
X148.2Y-110.0
X148.5Y-102.0
X148.7Y-107.2
X148.9Y-99.8
X149.2Y-98.1
X150.0Y-109.1
X150.439Y-105.561
X151.25Y-107.689
X151.3Y-100.8
X152.7Y-100.8
X153.5Y-108.0
T4
X141.0Y-107.0
X141.0Y-109.54
X141.0Y-112.08
X141.0Y-99.0
X141.0Y-101.54
X141.0Y-104.08
X147.0Y-113.5
X149.54Y-113.5
X152.08Y-113.5
X154.62Y-113.5
T2
G00X154.675Y-103.5
M15
G01X155.325Y-103.5
M16
G05
G00X154.675Y-110.5
M15
G01X155.325Y-110.5
M16
G05
T3
G00X152.3Y-104.65
M15
G01X152.3Y-104.35
M16
G05
G00X152.3Y-109.65
M15
G01X152.3Y-109.35
M16
G05
T0
M30
